<?xml version="1.0" standalone="no"?>
<!DOCTYPE svg PUBLIC "-//W3C//DTD SVG 1.1//EN" "http://www.w3.org/Graphics/SVG/1.1/DTD/svg11.dtd" >
<svg>
<metadata>
Created by FontForge 20090914 at Fri Jul 11 22:06:36 2014
 By www-data
Generated by Fontographer 3.3
</metadata>
<defs>
<font id="SouvenirItalic" horiz-adv-x="1229" >
  <font-face 
    font-family="Souvenir"
    font-weight="400"
    font-style="italic"
    font-stretch="normal"
    units-per-em="2048"
    panose-1="2 11 5 0 0 0 0 0 0 0"
    ascent="1638"
    descent="-410"
    x-height="886.997"
    cap-height="1417"
    bbox="-132.997 -502.002 2370 1743"
    underline-thickness="20"
    underline-position="-123"
    unicode-range="U+0020-U+2122"
  />
<missing-glyph horiz-adv-x="1536" 
d="M256 0v1280h1024v-1280h-1024zM1248 32v1216h-960v-1216h960z" />
    <glyph glyph-name=".notdef" horiz-adv-x="1536" 
d="M256 0v1280h1024v-1280h-1024zM1248 32v1216h-960v-1216h960z" />
    <glyph glyph-name="space" unicode=" " 
 />
    <glyph glyph-name="exclam" unicode="!" horiz-adv-x="615" 
d="M211 15c6 30 21.667 55.333 47 76c26 20 54 30 84 30c28 0 50 -8 66 -24s24 -36.667 24 -62c0 -6.66699 -1.33301 -15.667 -4 -27c-6 -28.667 -22.333 -53.667 -49 -75s-54.667 -32 -84 -32c-26 0 -47.167 7.83301 -63.5 23.5s-24.5 36.5 -24.5 62.5
c0 4 1.33301 13.333 4 28zM439 391c-2 -8 -4.83203 -17.833 -8.49902 -29.5s-7.33398 -22.167 -11.001 -31.5s-9.16699 -17.5 -16.5 -24.5s-16 -10.5 -26 -10.5c-16 0 -24 13 -24 39c0 8 0.333008 16 1 24c1.33301 8 2.5 15.833 3.5 23.5s2.16699 14.5 3.5 20.5l137 923
c20.667 96 67 144 139 144c52 0 78 -26.667 78 -80c0 -26 -7.66699 -64.333 -23 -115z" />
    <glyph glyph-name="quotedbl" unicode="&#x22;" horiz-adv-x="738" 
d="M383 957l16.999 401.001c0.666992 21.333 12.667 41.666 36 60.999s47.333 29 72 29c20.667 0 37.834 -6.5 51.501 -19.5s20.5 -28.833 20.5 -47.5c0 -10 -1.33301 -17.667 -4 -23l-152 -401h-41zM753.999 957.001l16.001 401.001
c1.33301 21.333 13.666 41.666 36.999 60.999s47.333 29 72 29c20 0 37 -6.5 51 -19.5s21 -28.833 21 -47.5c0 -10 -1.33301 -17.667 -4 -23l-152 -401h-41z" />
    <glyph glyph-name="numbersign" unicode="#" 
d="M781 203c-21.333 -35.333 -45.9971 -53 -73.9971 -53c-31.333 0 -47 19 -47 57c2 7.33301 7 18.5 15 33.5l16 30.5l98 181h-299l-117 -216c-16.667 -30.667 -30.834 -52.667 -42.501 -66s-28.834 -20 -51.501 -20c-32.667 0 -49 19.667 -49 59c1.33301 6 12.333 28 33 66
l96 177h-146c-39.333 0 -59 19.333 -59 58c9.33301 36.667 36.666 55 81.999 55h185l178 326h-144c-39.333 0 -59 19 -59 57c7.33301 38.667 33.666 58 78.999 58h187l135 246c21.333 38 46.666 57 75.999 57c32.667 0 49 -19.667 49 -59
c-2.66699 -15.333 -12.667 -37.333 -30 -66l-97 -178h299l135 250c21.333 35.333 46 53 74 53c30 0 45 -19 45 -57c-1.33301 -8 -10.666 -29.333 -27.999 -64l-101 -182h141c40 0 60 -19.333 60 -58c-8 -38 -35.333 -57 -82 -57h-180l-180 -326h141
c39.333 0 59 -18.333 59 -55c-7.33301 -38.667 -34.666 -58 -81.999 -58h-180zM731.003 893l-177 -325h298l179 325h-300z" />
    <glyph glyph-name="dollar" unicode="$" 
d="M860 801c106.667 -48 189.333 -100.666 248 -157.999c58.667 -56.667 88 -131.667 88 -225c0 -34.667 -3.33301 -66.667 -10 -96c-17.333 -80.667 -51.666 -152.667 -102.999 -216c-50.667 -63.333 -113 -114.333 -187 -153s-151.333 -62 -232 -70l-35 -166
c-6 -29.333 -12.5 -50 -19.5 -62s-22.5 -18 -46.5 -18c-28.667 0 -43 9.66699 -43 29c0 10 2.33301 23 7 39l36 178c-109.333 9.33301 -192.333 37.333 -249 84c-31.333 27.333 -57.666 61 -78.999 101s-32 79.667 -32 119c0 6.66699 1.33301 18 4 34
c10 46.667 35.333 70 76 70c19.333 0 32 -6 38 -18s9.66699 -29.333 11 -52c5.33301 -81.333 27.166 -139.833 65.499 -175.5s100.5 -57.834 186.5 -66.501l141 660l-24 13c-61.333 31.333 -112 60.666 -152 87.999s-72.5 60.5 -97.5 99.5s-37.5 86.167 -37.5 141.5
c0 33.333 3.33301 63.333 10 90c11.333 53.333 32.166 103 62.499 149s67.833 86.667 112.5 122c44.667 36 93 64.333 145 85s103.667 32.667 155 36l33 155c7.33301 28.667 14.333 48.334 21 59.001c7.33301 11.333 22.333 17 45 17c27.333 0 41 -11.667 41 -35
c0 -13.333 -2.33301 -27 -7 -41l-32 -155c48 -2 93.667 -12.333 137 -31c44 -18 79.833 -44 107.5 -78s41.5 -73.667 41.5 -119c0 -15.333 -2 -31 -6 -47c-4.66699 -23.333 -14.667 -44.666 -30 -63.999c-16 -18.667 -35.333 -28 -58 -28c-35.333 0 -53 29.333 -53 88
c9.33301 37.333 14 61.333 14 72c0 15.333 -4.66699 29.666 -14 42.999c-15.333 21.333 -35.5 36.5 -60.5 45.5s-58.167 16.833 -99.5 23.5zM876.999 1364c-76 -4 -144.667 -27.9971 -206 -71.9971s-100 -102.667 -116 -176c-2.66699 -10.667 -4 -26.334 -4 -47.001
c0 -54.667 18.833 -98.334 56.5 -131.001s90.5 -65.334 158.5 -98.001zM683.999 -22.9961c55.333 4 108.666 18.5 159.999 43.5s95 58.833 131 101.5s60 91.667 72 147c5.33301 30 8 50.333 8 61c0 44 -11.167 81.5 -33.5 112.5s-47.666 55.667 -75.999 74
s-71.833 42.833 -130.5 73.5z" />
    <glyph glyph-name="percent" unicode="%" horiz-adv-x="1680" 
d="M277 1000c16 74.667 41.6689 146.499 77.002 215.499s82 126 140 171s125 67.5 201 67.5c85.333 0 147.166 -28 185.499 -84s57.5 -127.667 57.5 -215c0 -50 -5.33301 -101.667 -16 -155c-16 -75.333 -41.833 -147.5 -77.5 -216.5s-82.334 -126 -140.001 -171
s-125.167 -67.5 -202.5 -67.5c-84 0 -145.333 27.833 -184 83.5s-58 126.834 -58 213.501c0 51.333 5.66699 104 17 158zM799.002 1010c18 80 26.999 146.333 26.999 199c0 126.667 -46.667 190 -140 190c-83.333 0 -145.666 -39.667 -186.999 -119
s-73.666 -173.333 -96.999 -282c-15.333 -70.667 -23 -135 -23 -193c0 -136.667 45.667 -205 137 -205c131.333 0 225.666 136.667 282.999 410zM1068 341.999c16 74.667 41.668 146.668 77.001 216.001s81.666 126.666 138.999 171.999c58 44.667 125 67 201 67
c58 0 105.333 -13.667 142 -41s62.667 -63.333 78 -108s23 -94.667 23 -150c0 -50.667 -5.33301 -102.667 -16 -156c-16 -75.333 -41.667 -147.333 -77 -216s-82 -126 -140 -172c-58 -44.667 -125.333 -67 -202 -67c-84.667 0 -146.167 28 -184.5 84
s-57.5 127.333 -57.5 214c0 48.667 5.66699 101 17 157zM1589 353c16.667 70.667 24.999 136.001 24.999 196.001c0 128.667 -46.333 193 -139 193c-58.667 0 -107.167 -22 -145.5 -66s-67.166 -94.333 -86.499 -151s-36 -118.334 -50 -185.001
c-15.333 -70 -23 -134 -23 -192c0 -137.333 45.667 -206 137 -206c55.333 0 102.333 23.333 141 70s68.667 99.667 90 159c21.333 60 38.333 120.667 51 182zM477.001 -18.999c-23.333 -28.667 -40.167 -47.498 -50.5 -56.498s-26.833 -13.5 -49.5 -13.5
c-26 0 -39 6.33301 -39 19c2 7.33301 7.33301 16.666 16 27.999l25 32l1141 1378l29 33c7.33301 9.33301 15 15.666 23 18.999c8 4 19.333 6 34 6c27.333 0 41 -7 41 -21c-1.33301 -7.33301 -11 -22.333 -29 -45z" />
    <glyph glyph-name="ampersand" unicode="&#x26;" horiz-adv-x="1639" 
d="M1073 269c57.333 52 110.835 108.998 160.502 170.998s79.5 117.333 89.5 166c0 17.333 -4.66699 31 -14 41c-9.33301 10.667 -22.666 20.667 -39.999 30c-18 10 -30.833 18.5 -38.5 25.5s-11.5 17.167 -11.5 30.5c4 18.667 12.5 30.167 25.5 34.5s31.167 6.5 54.5 6.5
h309c48 0 72 -14.333 72 -43c-5.33301 -23.333 -26 -40.333 -62 -51c-50 -19.333 -84.667 -37.666 -104 -54.999c-27.333 -26.667 -66.333 -73.667 -117 -141l-262 -287c88.667 -110.667 193.667 -166 315 -166c20.667 0 47.5 3 80.5 9s56.833 9 71.5 9
c20.667 0 31 -12 31 -36c-6 -28 -39.667 -55 -101 -81c-59.333 -23.333 -122 -35 -188 -35c-75.333 0 -141.833 15.167 -199.5 45.5s-111.5 74.166 -161.5 131.499c-166.667 -124.667 -330.334 -187 -491.001 -187c-68.667 0 -131.834 12.667 -189.501 38
s-103.334 61.666 -137.001 108.999s-50.5 103 -50.5 167c0 28 3 54.667 9 80c19.333 95.333 69 180.666 149 255.999c80.667 75.333 176.667 141.333 288 198c-56 102.667 -84 194.334 -84 275.001c0 30.667 3 59.334 9 86.001c15.333 72.667 48 135.834 98 189.501
s109.667 94.167 179 121.5s140 41 212 41c88 0 158.333 -22.333 211 -67c53.333 -44.667 80 -103.667 80 -177c0 -20 -1.33301 -35.667 -4 -47c-14 -63.333 -47 -121 -99 -173c-51.333 -51.333 -105.666 -94 -162.999 -128
c-56.667 -33.333 -131.334 -73.666 -224.001 -120.999zM606.002 655.998c-178.667 -90 -282.668 -204 -312.001 -342c-4.66699 -24.667 -7 -46.667 -7 -66c0 -70.667 25 -127.667 75 -171c50.667 -42.667 115 -64 193 -64c67.333 0 128.333 10.833 183 32.5
s117.334 56.5 188.001 104.5zM1121 1141c2.66699 10.667 4.00098 26.333 4.00098 47c0 52 -17.667 93.333 -53 124s-81.333 46 -138 46c-40 0 -80.667 -8 -122 -24c-40.667 -16.667 -76.334 -40.5 -107.001 -71.5s-50.667 -66.833 -60 -107.5c-4 -20 -6 -39.667 -6 -59
c0 -78 30.667 -170.333 92 -277c107.333 51.333 195.5 101 264.5 149s110.833 105.667 125.5 173z" />
    <glyph glyph-name="quotesingle" unicode="'" horiz-adv-x="328" 
d="M364 957l17.001 401.001c1.33301 21.333 13.666 41.666 36.999 60.999s47.333 29 72 29c20.667 0 37.667 -6.5 51 -19.5s20 -28.833 20 -47.5c0 -10 -1.33301 -17.667 -4 -23l-151 -401h-42z" />
    <glyph glyph-name="parenleft" unicode="(" horiz-adv-x="492" 
d="M340 -406c-14.667 0 -26.8281 2.66699 -36.4951 8s-17.334 12.666 -23.001 21.999s-10.334 19.833 -14.001 31.5l-12.5 39.5c-54.667 164.667 -82 332.667 -82 504c0 113.333 11.667 224.666 35 333.999c44 208 128 412.667 252 614
c61.333 104.667 125.666 196.334 192.999 275.001c25.333 31.333 54.666 47 87.999 47c28.667 0 43 -8.33301 43 -25c-0.666992 -4 -4.33398 -12 -11.001 -24c-6.66699 -11.333 -13.5 -22.166 -20.5 -32.499l-18.5 -27.5c-182.667 -261.333 -305 -537.666 -367 -828.999
c-28.667 -136 -43 -267.333 -43 -394c0 -150.667 19.333 -295.334 58 -434.001l8 -39c4.66699 -22.667 7 -37.667 7 -45c-4 -16.667 -22.667 -25 -56 -25z" />
    <glyph glyph-name="parenright" unicode=")" horiz-adv-x="492" 
d="M410 1469c28 0 46.6699 -7.66797 56.0029 -23.001s19.333 -41.333 30 -78c55.333 -171.333 83 -341.333 83 -510c0 -112.667 -11.333 -221.667 -34 -327c-16 -71.333 -36.333 -141.666 -61 -210.999c-24 -69.333 -52.167 -138 -84.5 -206s-68.5 -134.667 -108.5 -200
c-75.333 -120 -139.333 -211 -192 -273c-24.667 -31.333 -54.334 -47 -89.001 -47c-28.667 0 -43 8.33301 -43 25c4.66699 16.667 22 44.667 52 84c179.333 262 300.666 538 363.999 828c28.667 135.333 43 267 43 395c0 148 -18.333 292.667 -55 434
c-3.33301 7.33301 -6.83301 21 -10.5 41s-5.5 34.333 -5.5 43c3.33301 16.667 21.666 25 54.999 25z" />
    <glyph glyph-name="asterisk" unicode="*" horiz-adv-x="738" 
d="M371 946c-36 0 -54 23.998 -54 71.998c10 45.333 60.667 72 152 80c8 0.666992 23.167 2.33398 45.5 5.00098s42.166 7 59.499 13c18 6 28 13.667 30 23c0 14 -26.667 25.5 -80 34.5s-92.666 17.667 -117.999 26s-38 27.833 -38 58.5c4.66699 19.333 14.834 36 30.501 50
s33.167 21 52.5 21c26 0 44.667 -7.5 56 -22.5s29 -43 53 -84s43.667 -61.5 59 -61.5c4 0 8 5 12 15c0 28.667 -3.83301 65.334 -11.5 110.001s-11.5 76.334 -11.5 95.001c4 20.667 14.333 38 31 52s35.334 21 56.001 21c36.667 0 55 -26.667 55 -80
c-4 -16.667 -14 -37.834 -30 -63.501l-48 -76c-16 -25 -25.667 -45.167 -29 -60.5c0 -11.333 2 -17 6 -17c14 0 42 21.833 84 65.5s71.833 73.5 89.5 89.5s39.167 24 64.5 24c36.667 0 55 -22.667 55 -68c-6.66699 -34.667 -25.834 -57 -57.501 -67
s-76.667 -19.333 -135 -28s-88.833 -20 -91.5 -34c0 -13.333 25 -25 75 -35c50 -9.33301 88.167 -19.333 114.5 -30s39.5 -32.667 39.5 -66c-4 -19.333 -14.333 -35.5 -31 -48.5s-34.334 -19.5 -53.001 -19.5c-25.333 0 -43.333 8 -54 24s-27.667 45.667 -51 89
s-42.333 65 -57 65c-8.66699 0 -13 -5.33301 -13 -16c0 -22 3.66699 -54.667 11 -98c6.66699 -42.667 10 -77 10 -103c-4 -22.667 -14.333 -41.667 -31 -57c-16 -15.333 -35 -23 -57 -23c-36.667 0 -55 24.667 -55 74c2.66699 12.667 12.167 32.5 28.5 59.5l49.5 80.5
c16 27.333 26 49 30 65c0 10.667 -1.66699 16 -5 16c-20 0 -51.667 -24.333 -95 -73c-36 -36.667 -62.667 -62 -80 -76s-38.333 -21 -63 -21z" />
    <glyph glyph-name="plus" unicode="+" horiz-adv-x="1352" 
d="M740 516l100 467h129l-100 -467h467l-27 -130h-467l-100 -468h-129l100 468h-469l27 129z" />
    <glyph glyph-name="comma" unicode="," horiz-adv-x="615" 
d="M220 -78c-14 18.667 -21.001 39.667 -21.001 63c0 6.66699 1.66699 15 5 25c5.33301 30 21 55 47 75s54.333 30 85 30c38 0 65.667 -11.667 83 -35s26 -54.333 26 -93c0 -18.667 -2 -38.334 -6 -59.001c-13.333 -62 -41 -123 -83 -183
c-41.333 -60.667 -89.666 -111 -144.999 -151c-17.333 -17.333 -31 -26 -41 -26c-13.333 0 -20 9.33301 -20 28c1.33301 6 18.333 23.333 51 52c33.333 29.333 62.666 59 87.999 89s42 63.667 50 101c0 26.667 -2.66699 43.834 -8 51.501s-15.666 11.5 -30.999 11.5
c-40 0 -66.667 7 -80 21z" />
    <glyph glyph-name="hyphen" unicode="-" horiz-adv-x="615" 
d="M246 444c-30.667 0 -51.334 3.16699 -62.001 9.5s-16 20.5 -16 42.5c6 29.333 15.167 47.5 27.5 54.5s37.5 10.5 75.5 10.5h348c30.667 0 51.334 -2.66699 62.001 -8s16 -19 16 -41c-6.66699 -30 -16 -48.833 -28 -56.5s-37 -11.5 -75 -11.5h-348z" />
    <glyph glyph-name="period" unicode="." horiz-adv-x="615" 
d="M217 15c6.66699 30 22.668 55.167 48.001 75.5s53 30.5 83 30.5c28 0 50 -8 66 -24c16.667 -16 25 -36.667 25 -62c0 -5.33301 -1.33301 -14.333 -4 -27c-6.66699 -28.667 -23.334 -53.667 -50.001 -75s-54.667 -32 -84 -32c-26 0 -47.167 8 -63.5 24
s-24.5 36.667 -24.5 62c0 4 1.33301 13.333 4 28z" />
    <glyph glyph-name="slash" unicode="/" horiz-adv-x="1065" 
d="M1272 1407c31.333 41.333 64.667 61.999 100 61.999c32 0 48 -10.333 48 -31c0 -11.333 -4.66699 -25.666 -14 -42.999l-1275 -1629c-18.667 -24.667 -35.167 -42.667 -49.5 -54s-32.5 -17 -54.5 -17c-34 0 -51 12 -51 36c0 13.333 5.33301 26.333 16 39z" />
    <glyph glyph-name="zero" unicode="0" 
d="M266 666c18 84 46.0029 171.668 84.0029 263.001s85.5 176.833 142.5 256.5s124 144.334 201 194.001s161.167 74.5 252.5 74.5c87.333 0 159.666 -25.333 216.999 -76s99.666 -117.334 126.999 -200.001c22 -66.667 33 -147.334 33 -242.001
c0 -94 -9.33301 -184 -28 -270c-17.333 -82.667 -44.833 -169 -82.5 -259s-85 -174.333 -142 -253s-124.167 -143 -201.5 -193c-77.333 -49.333 -162 -74 -254 -74c-132.667 0 -228.834 49.5 -288.501 148.5s-89.5 222.5 -89.5 370.5c0 78 9.66699 164.667 29 260z
M965.003 260.001c52.667 104.667 97.665 239.999 134.998 405.999c26.667 130 40 242 40 336c0 22 -1.33301 50.667 -4 86c-6.66699 74 -26.5 138.167 -59.5 192.5s-82.5 81.5 -148.5 81.5c-68.667 0 -131 -27.833 -187 -83.5s-105 -123.5 -147 -203.5
c-56.667 -114 -101 -250.333 -133 -409c-27.333 -129.333 -41 -240 -41 -332c0 -20.667 1.33301 -50 4 -88c7.33301 -73.333 27.333 -136.166 60 -188.499s82.334 -78.5 149.001 -78.5c70 0 133 27.667 189 83c56.667 55.333 104.334 121.333 143.001 198z" />
    <glyph glyph-name="one" unicode="1" 
d="M815 199c-9.33301 -48 -13.998 -79.998 -13.998 -95.998c0 -28.667 9.16699 -48.5 27.5 -59.5s52.833 -17.833 103.5 -20.5c34 -2 61.667 -5.66699 83 -11s32 -19 32 -41c-5.33301 -22 -15 -36.333 -29 -43c-13.333 -6.66699 -33.666 -10 -60.999 -10h-592
c-49.333 0 -74 15.667 -74 47c2.66699 11.333 9.66699 20.666 21 27.999c11.333 8 24.666 13.667 39.999 17s31.333 5.66602 48 6.99902c16.667 2 30.334 3.33301 41.001 4c50 4.66699 86.667 13 110 25s40.166 29.5 50.499 52.5s20.833 59.167 31.5 108.5l182 854
c3.33301 14.667 5.66602 25.834 6.99902 33.501l4 22.5c1.33301 7.33301 2 14.666 2 21.999c0 14 -2.33301 25 -7 33c-15.333 26 -63 39 -143 39l-108 -4c-40 0 -60 14.333 -60 43c2.66699 11.333 8.33398 20.333 17.001 27s18.667 11.5 30 14.5s23.666 5.16699 36.999 6.5
s24.333 2.33301 33 3c116 8 226 44.667 330 110l26 18c12 8 22.667 14.167 32 18.5s18.666 6.5 27.999 6.5c17.333 0 26 -13 26 -39c0 -16 -1.33301 -31 -4 -45z" />
    <glyph glyph-name="two" unicode="2" 
d="M197 -82c-24 0 -42.333 2.83008 -55 8.49707s-19 19.834 -19 42.501c5.33301 24 36.666 69.333 93.999 136c56.667 67.333 104 119.666 142 156.999l387 342c82.667 66.667 148.334 121.667 197.001 165c49.333 43.333 96.333 94 141 152s73.334 116.333 86.001 175
c4 18 6 36.333 6 55c0 40 -9.83301 75.5 -29.5 106.5s-46.834 55.167 -81.501 72.5s-72.667 26 -114 26c-80 0 -158.667 -24 -236 -72c-32 -21.333 -61 -47 -87 -77s-42 -59.667 -48 -89c0 -40.667 3.33301 -67.667 10 -81c10.667 -29.333 16 -51.333 16 -66
c-4.66699 -25.333 -18.167 -45 -40.5 -59s-46.833 -21 -73.5 -21c-33.333 0 -58.5 11 -75.5 33s-25.5 50 -25.5 84c0 10 1.66699 23.667 5 41c23.333 106 91.333 200 204 282c110.667 82 239 123 385 123c120.667 0 215.667 -29.333 285 -88c65.333 -57.333 98 -129 98 -215
c0 -26.667 -2.66699 -52 -8 -76c-11.333 -54 -33.166 -106.167 -65.499 -156.5s-70.166 -96.5 -113.499 -138.5c-42.667 -42 -86.334 -79.667 -131.001 -113c-44 -34 -100.333 -74.667 -169 -122c-122 -84 -225.667 -162.333 -311 -235c-85.333 -72 -160 -152 -224 -240h441
c53.333 0 92.166 1.5 116.499 4.5s48.833 11.167 73.5 24.5c24 14 54.667 37.667 92 71c34.667 31.333 62 47 82 47c18 0 27 -12.333 27 -37c-4.66699 -21.333 -19 -47.666 -43 -78.999c-25.333 -38.667 -43 -71.667 -53 -99
c-13.333 -27.333 -25.166 -46.666 -35.499 -57.999s-22.833 -18.666 -37.5 -21.999c-14.667 -2.66699 -38.334 -4 -71.001 -4h-741z" />
    <glyph glyph-name="three" unicode="3" 
d="M643 668c-43.333 2.66699 -65 20.3301 -65 52.9971c3.33301 15.333 13 26.5 29 33.5s33.333 11.333 52 13s36.667 3.16699 54 4.5c65.333 6 118 14.333 158 25c40 11.333 81 34 123 68c69.333 57.333 113.333 134.333 132 231c4 20 6 38.333 6 55
c0 64 -22.667 114.167 -68 150.5s-103.666 54.5 -174.999 54.5c-60 0 -115.5 -14 -166.5 -42s-82.167 -70.667 -93.5 -128c-3.33301 -11.333 -5.33301 -27 -6 -47s-1.33398 -33 -2.00098 -39c-4.66699 -19.333 -16.667 -34.333 -36 -45c-18.667 -10.667 -38.667 -16 -60 -16
c-60.667 0 -91 35.333 -91 106c14.667 68 65.334 133 152.001 195c52.667 36.667 111.834 64.834 177.501 84.501s130.167 29.5 193.5 29.5c66.667 0 128 -11.5 184 -34.5s100.667 -57.167 134 -102.5c33.333 -44.667 50 -98 50 -160c0 -27.333 -2.66699 -54 -8 -80
c-18 -84.667 -64 -156.167 -138 -214.5s-158.333 -99.833 -253 -124.5c87.333 -18 161 -55.833 221 -113.5s90 -128.5 90 -212.5c0 -24.667 -2.66699 -48 -8 -70c-14 -66.667 -42.667 -130 -86 -190s-96 -110.667 -158 -152c-112 -75.333 -247 -113 -405 -113
c-62.667 0 -126.334 9 -191.001 27c-65.333 18.667 -119.833 47.834 -163.5 87.501s-65.5 89.167 -65.5 148.5c0 14 2 31 6 51c6 30.667 19.5 55.667 40.5 75s47.167 29 78.5 29c22.667 0 38.167 -6.66699 46.5 -20s12.5 -38 12.5 -74
c-2.66699 -19.333 -4 -33.666 -4 -42.999c0 -63.333 22.667 -110.333 68 -141c45.333 -32 104.666 -48 177.999 -48c112 0 205 29 279 87c40 31.333 74.5 71.333 103.5 120s48.833 98 59.5 148c5.33301 27.333 8 54 8 80c0 72 -21.5 130.333 -64.5 175
s-103.167 69 -180.5 73z" />
    <glyph glyph-name="four" unicode="4" 
d="M957 156c-7.33301 -33.333 -10.9971 -65.999 -10.9971 -97.999c3.33301 -13.333 8.5 -22.333 15.5 -27s19.167 -9.33398 36.5 -14.001c20 -6 34.5 -11.667 43.5 -17s13.5 -17.666 13.5 -36.999c-7.33301 -30 -33.333 -45 -78 -45h-323c-40 0 -60 14.333 -60 43
c5.33301 22.667 24.333 37 57 43c33.333 5.33301 56.666 12.166 69.999 20.499s22 17.833 26 28.5c4 11.333 11 38.666 21 81.999l37 182h-551c-36 0 -61.833 3.66699 -77.5 11s-23.5 23 -23.5 47c9.33301 42.667 42 108.167 98 196.5s106.667 161.5 152 219.5
c57.333 75.333 123.166 152.5 197.499 231.5s147.833 150.5 220.5 214.5l213 166c26 18.667 46.667 32 62 40c16 7.33301 35 11 57 11c41.333 0 62 -19.667 62 -59c0 -15.333 -2.66699 -36.666 -8 -63.999l-191 -897h191c25.333 0 43.166 -3.5 53.499 -10.5
s15.5 -23.833 15.5 -50.5c-4 -22.667 -13 -37.667 -27 -45s-33.667 -11 -59 -11h-201zM1006 1262c-140.667 -115.333 -270.667 -243.332 -390 -383.999s-223 -289.334 -311 -446.001h524z" />
    <glyph glyph-name="five" unicode="5" 
d="M506 768c110.667 58.667 222 88.0049 334 88.0049c81.333 0 153.5 -13 216.5 -39s112 -64.833 147 -116.5s52.5 -113.834 52.5 -186.501c0 -35.333 -4 -72 -12 -110c-10 -47.333 -26.833 -94.333 -50.5 -141s-53.167 -90.834 -88.5 -132.501s-74 -77.5 -116 -107.5
c-124.667 -90.667 -271.334 -136 -440.001 -136c-120 0 -217.667 26 -293 78c-30 21.333 -54.667 48 -74 80c-18.667 32 -28 66.333 -28 103c0 8 1.33301 21.667 4 41c6.66699 30 20.334 53.5 41.001 70.5s46.667 25.5 78 25.5c47.333 0 71 -23.333 71 -70
c-1.33301 -6.66699 -4.33301 -16.334 -9 -29.001s-7.66699 -21.334 -9 -26.001c-2.66699 -16 -4 -27 -4 -33c0 -48 23.667 -84 71 -108s100 -36 158 -36c83.333 0 158.666 16.5 225.999 49.5s123.333 80 168 141s76 133.5 94 217.5c8 37.333 12 73.666 12 108.999
c0 78 -21.5 140.5 -64.5 187.5s-107.5 70.5 -193.5 70.5c-62.667 0 -117 -9.66699 -163 -29c-45.333 -19.333 -92.666 -44.333 -141.999 -75c-48.667 -30 -82.334 -45 -101.001 -45c-24 0 -36 10.667 -36 32c0 6 3.33301 22.333 10 49l209 764l317 -26l316 16
c37.333 6.66699 65 10 83 10c26 0 39 -12.333 39 -37c-9.33301 -44 -72.666 -81.333 -189.999 -112c-102.667 -24.667 -227.667 -37 -375 -37h-119z" />
    <glyph glyph-name="six" unicode="6" 
d="M912 834c107.333 0 191.334 -29.667 252.001 -89c61.333 -59.333 92 -138.333 92 -237c0 -34.667 -4 -70 -12 -106c-20.667 -96 -61 -183.167 -121 -261.5s-133.333 -140.5 -220 -186.5c-87.333 -44.667 -179.333 -67 -276 -67c-180 0 -305 65 -375 195
c-32.667 58 -49 132.333 -49 223c0 70 9 144.667 27 224c55.333 265.333 188.333 487 399 665c57.333 48.667 122.333 92.667 195 132c72 40 146.167 71.333 222.5 94s148.166 34 215.499 34c36.667 0 55 -14.333 55 -43c-6 -26.667 -43.667 -42.334 -113 -47.001
c-120 -14.667 -231.333 -56 -334 -124c-102.667 -67.333 -189.5 -152.166 -260.5 -254.499s-122.5 -211.5 -154.5 -327.5c154 117.333 306.333 176 457 176zM406.001 203c6.66699 -42 20.998 -79.502 42.998 -112.502s50.333 -58.833 85 -77.5s74.667 -28 120 -28
c66.667 0 130.334 21.833 191.001 65.5s107.334 97.834 140.001 162.501c7.33301 14 18 40 32 78s23.333 66.667 28 86c6.66699 38.667 10 72 10 100c0 74.667 -19.167 135.334 -57.5 182.001s-96.166 70 -173.499 70c-128.667 0 -261.334 -63.333 -398.001 -190
c-18.667 -112 -28 -190 -28 -234c0 -38.667 2.66699 -72.667 8 -102z" />
    <glyph glyph-name="seven" unicode="7" 
d="M729 1267c-69.333 0 -120.999 -6.83594 -154.999 -20.5029s-60.667 -49.5 -80 -107.5c-8 -20 -16.5 -35.333 -25.5 -46s-21.833 -16 -38.5 -16c-20.667 0 -31 10.333 -31 31c0 14 2.66699 30.333 8 49l23 88c18.667 90 35 141.333 49 154c12.667 12 43 18 91 18h782
c26 0 43 -1.66699 51 -5s12 -12.333 12 -27c-2 -13.333 -21.667 -48.333 -59 -105l-715 -1227l-50 -94.5c-16 -30.333 -34.833 -54.666 -56.5 -72.999s-48.834 -27.5 -81.501 -27.5c-22.667 0 -43.167 5.33301 -61.5 16s-27.5 27.334 -27.5 50.001
c4 18.667 12.333 36.334 25 53.001l838 1290h-498z" />
    <glyph glyph-name="eight" unicode="8" 
d="M1233 328c-14 -64 -42.667 -124.668 -86 -182.001s-96 -106 -158 -146c-118 -75.333 -252.333 -113 -403 -113c-114 0 -213 25.667 -297 77c-84.667 52 -127 127 -127 225c0 26 2.66699 49.667 8 71c14 66 45 125.667 93 179s104 99 168 137c64.667 38 132 70 202 96
c-152.667 78.667 -229 178.334 -229 299.001c0 25.333 2.66699 50 8 74c12 57.333 37.333 112.333 76 165s85.667 96.667 141 132c112 74.667 231.333 112 358 112c96 0 183.167 -24.167 261.5 -72.5s117.5 -114.833 117.5 -199.5c0 -18 -2 -36.333 -6 -55
c-17.333 -83.333 -62 -154 -134 -212s-161.667 -112.333 -269 -163c189.333 -82 284 -198 284 -348c0 -26.667 -2.66699 -52 -8 -76zM320 257.999c-2.66699 -19.333 -4.00293 -34.334 -4.00293 -45.001c0 -68.667 25.667 -124.667 77 -168c48.667 -38.667 122 -58 220 -58
c58.667 0 120.334 11 185.001 33c64.667 22.667 121.334 55.667 170.001 99c48 44 78.333 96 91 156c4 18 6 35 6 51c0 41.333 -11.333 77.833 -34 109.5s-51.667 58.5 -87 80.5c-35.333 22.667 -72.166 42.334 -110.499 59.001l-126.5 56
c-222.667 -88 -351.667 -212.333 -387 -373zM1204 1098c4.66699 17.333 7 35.001 7 53.001c0 42.667 -12 79.667 -36 111s-55.667 55.166 -95 71.499s-81.666 24.5 -126.999 24.5c-52.667 0 -106.667 -10.833 -162 -32.5s-103.333 -53.167 -144 -94.5
s-66.334 -88.333 -77.001 -141c-3.33301 -10 -5 -24.333 -5 -43c0 -46 16 -85.333 48 -118s67.333 -58.167 106 -76.5s90 -39.5 154 -63.5c198 96 308.333 199 331 309z" />
    <glyph glyph-name="nine" unicode="9" 
d="M654 510c-109.333 0 -194.166 29.3311 -254.499 87.998s-90.5 137.334 -90.5 236.001c0 32.667 4.33301 69.334 13 110.001c20.667 96.667 61.334 184 122.001 262c61.333 78 135.666 139 222.999 183c88 43.333 181 65 279 65c168 0 289 -62.667 363 -188
c32.667 -58.667 49 -133.667 49 -225c0 -68.667 -9 -143.334 -27 -224.001c-12 -60 -29.5 -120.333 -52.5 -181s-50.667 -119 -83 -175s-69.833 -109.667 -112.5 -161s-91 -100 -145 -146c-89.333 -78 -192 -142 -308 -192s-225.667 -75 -329 -75
c-43.333 0 -65 14.333 -65 43c4 18.667 22.333 31 55 37c104.667 12.667 200 37.834 286 75.501s162.667 86.5 230 146.5c67.333 60.667 125.666 131.667 174.999 213c50 82 90.667 173.333 122 274c-160 -110.667 -310 -166 -450 -166zM1141 839.998
c17.333 88.667 26.002 167.001 26.002 235.001c0 36.667 -2.66699 64.667 -8 84c-13.333 56 -42.5 102.833 -87.5 140.5s-97.5 56.5 -157.5 56.5c-96.667 0 -185.667 -43.667 -267 -131c-58.667 -60.667 -99.334 -142.667 -122.001 -246c-8.66699 -38 -13 -75.333 -13 -112
c0 -76.667 18.5 -139.334 55.5 -188.001s94.5 -73 172.5 -73c129.333 0 259.666 62.333 390.999 187z" />
    <glyph glyph-name="colon" unicode=":" horiz-adv-x="615" 
d="M217 15c6.66699 30 22.667 55.167 48 75.5s53 30.5 83 30.5c28 0 50 -8 66 -24c16.667 -16 25 -36.667 25 -62c0 -5.33301 -1.66699 -14.333 -5 -27c-6 -28.667 -22.333 -53.667 -49 -75s-54.667 -32 -84 -32c-26 0 -47.167 8 -63.5 24s-24.5 36.667 -24.5 62
c0 4 1.33301 13.333 4 28zM344 615c7.33301 30.667 23.502 55.999 48.502 75.999s52.5 30 82.5 30c58.667 0 88 -37.333 88 -112c-6.66699 -29.333 -23.334 -54.666 -50.001 -75.999s-54.334 -32 -83.001 -32c-57.333 0 -86 38 -86 114z" />
    <glyph glyph-name="semicolon" unicode=";" horiz-adv-x="615" 
d="M340 615c7.33301 30.667 23.833 56 49.5 76s53.5 30 83.5 30c57.333 0 86 -37.333 86 -112c-6.66699 -30 -23 -55.5 -49 -76.5s-54 -31.5 -84 -31.5c-57.333 0 -86 38 -86 114zM219 -78c-14 18.667 -21.001 39.667 -21.001 63c0 6.66699 1.66699 15 5 25
c6 30 22 55 48 75s54.333 30 85 30c38 0 65.667 -11.667 83 -35s26 -54.333 26 -93c0 -18.667 -2 -38.334 -6 -59.001c-14 -62 -41.667 -123.167 -83 -183.5s-89.666 -110.5 -144.999 -150.5c-17.333 -17.333 -31 -26 -41 -26c-14 0 -21 9.33301 -21 28
c1.33301 6 18.333 23.333 51 52c33.333 29.333 62.666 59 87.999 89s42 63.667 50 101c0 26.667 -2.66699 43.834 -8 51.501s-15.666 11.5 -30.999 11.5c-40 0 -66.667 7 -80 21z" />
    <glyph glyph-name="less" unicode="&#x3c;" horiz-adv-x="1352" 
d="M1239 -129l-1024 518l25 119l1245 522l-27 -133l-1083 -450l893 -445z" />
    <glyph glyph-name="equal" unicode="=" horiz-adv-x="1352" 
d="M1368 672l-26 -130h-1065l26 130h1065zM1303 359l-29 -130h-1065l29 130h1065z" />
    <glyph glyph-name="greater" unicode="&#x3e;" horiz-adv-x="1352" 
d="M1202 447l-890 450l26 133l1024 -522l-24 -119l-1246 -518l29 131z" />
    <glyph glyph-name="question" unicode="?" horiz-adv-x="942" 
d="M297 15c6 30 22 55.167 48 75.5s54.333 30.5 85 30.5c27.333 0 48.833 -7.83301 64.5 -23.5s23.5 -36.5 23.5 -62.5c0 -4 -1.33301 -13 -4 -27c-6 -28.667 -22.167 -53.667 -48.5 -75s-54.5 -32 -84.5 -32c-26 0 -47.167 7.83301 -63.5 23.5s-24.5 36.5 -24.5 62.5
c0 4 1.33301 13.333 4 28zM465 584c6 23.333 10.332 39.0029 12.999 47.0029c3.33301 8 8 14.333 14 19c5.33301 5.33301 14.666 10.666 27.999 15.999l45 18c60.667 25.333 108.167 47.666 142.5 66.999s69.5 45.666 105.5 78.999c80.667 75.333 130.667 161.333 150 258
c6.66699 33.333 10 61.333 10 84c0 64.667 -18.667 116.334 -56 155.001s-91 58 -161 58c-56.667 0 -108.667 -13.667 -156 -41c-27.333 -16 -47 -33.667 -59 -53c-11.333 -19.333 -19 -44.666 -23 -75.999c-5.33301 -37.333 -14 -63.333 -26 -78c-20 -22 -46 -33 -78 -33
c-24 0 -41 6.83301 -51 20.5s-15 36.167 -15 67.5c16.667 71.333 62 132 136 182c94 63.333 200.333 95 319 95c68 0 126.667 -11.333 176 -34c50 -23.333 88.333 -56.833 115 -100.5s40 -95.834 40 -156.501c0 -35.333 -3.33301 -67.333 -10 -96
c-13.333 -62 -37.666 -123.167 -72.999 -183.5s-78 -112.5 -128 -156.5c-42 -38.667 -84.5 -68.834 -127.5 -90.501s-107.5 -50.5 -193.5 -86.5c-25.333 -12 -40.333 -22.667 -45 -32c-16 -26 -31 -74.667 -45 -146c-14.667 -60 -37 -90 -67 -90
c-20.667 0 -31 11.667 -31 35c0 10 2 24 6 42c4.66699 17.333 7.33398 28 8.00098 32z" />
    <glyph glyph-name="at" unicode="@" horiz-adv-x="1680" 
d="M1176 471c-42 -76.667 -64.665 -121.671 -67.998 -135.004c0 -35.333 20 -53 60 -53c50 0 102.833 17.333 158.5 52s107.834 76.667 156.501 126c46.667 46.667 82 97 106 151c24 54.667 44 119 60 193c8 42 12 81.667 12 119c0 92.667 -23.833 171.834 -71.5 237.501
s-108 114.834 -181 147.501s-146.5 49 -220.5 49c-128 0 -249.667 -30 -365 -90c-114.667 -60.667 -212 -144.667 -292 -252s-134 -227.333 -162 -360c-12.667 -57.333 -19 -110.666 -19 -159.999c0 -100.667 21.833 -190.334 65.5 -269.001s105.167 -140 184.5 -184
c80 -44 171.667 -66 275 -66c84.667 0 168 13.333 250 40s158.833 66.667 230.5 120s134.5 118.333 188.5 195h72c-46 -69.333 -98 -131.666 -156 -186.999c-57.333 -56 -118.333 -102.667 -183 -140c-64.667 -38.667 -133 -68 -205 -88s-144.667 -30 -218 -30
c-114 0 -216.333 26.333 -307 79s-161.167 125.334 -211.5 218.001s-75.5 196 -75.5 310c0 52.667 6.33301 107.334 19 164.001c30 144 91.833 276.667 185.5 398s206.334 217 338.001 287s266.5 105 404.5 105c75.333 0 146.166 -11.833 212.499 -35.5
s124.5 -58 174.5 -103s89 -98.833 117 -161.5s42 -132 42 -208c0 -44.667 -4.66699 -89 -14 -133c-30.667 -144 -104.334 -274.333 -221.001 -391c-40.667 -39.333 -83.667 -74 -129 -104c-44.667 -30 -91.334 -54 -140.001 -72s-95.667 -27 -141 -27
c-71.333 0 -108 29.333 -110 88c0 15.333 4.66699 38.666 14 69.999c-111.333 -96.667 -215 -145 -311 -145c-60 0 -105.667 17.333 -137 52c-32 35.333 -48 81.333 -48 138c0 28.667 3 54.667 9 78c19.333 93.333 60.666 189.333 123.999 288
c62.667 99.333 138.5 181.333 227.5 246s179.833 97 272.5 97c96.667 0 156.667 -41.667 180 -125l56 94h155zM1061 542.996c110.667 157.333 175.001 279.001 193.001 365.001c2.66699 21.333 4 36.333 4 45c0 66.667 -28.667 100 -86 100
c-70.667 0 -143 -35.833 -217 -107.5s-138.667 -156.834 -194 -255.501c-54.667 -98.667 -89.334 -182.334 -104.001 -251.001c-2.66699 -11.333 -4 -25.666 -4 -42.999c0 -67.333 31.667 -101 95 -101c62 0 114.833 20.667 158.5 62s95.167 103.333 154.5 186z" />
    <glyph glyph-name="A" unicode="A" horiz-adv-x="1475" 
d="M252 303l656.006 1016c68.667 92.667 113 139 133 139c24 0 52 -46.333 84 -139c27.333 -71.333 53.166 -150.333 77.499 -237s45.833 -172.667 64.5 -258c18 -84.667 34.333 -172 49 -262s26 -176.333 34 -259l33 -221c4 -20 9.5 -34.333 16.5 -43s19.833 -19 38.5 -31
c18 -10 27 -25 27 -45c-4.66699 -19.333 -15 -31.666 -31 -36.999s-36.667 -8 -62 -8h-254c-42 0 -63 15.667 -63 47c3.33301 17.333 14.666 30.5 33.999 39.5l58 26.5c20 8.66699 31.667 22.334 35 41.001c0 38.667 -4.66699 96.667 -14 174
c-10.667 76.667 -19 129 -25 157l-6 39h-666l-103 -186.5c-33.333 -60.333 -53 -105.166 -59 -134.499c-2.66699 -16.667 -4 -28.334 -4 -35.001c0 -18 3.66699 -32.333 11 -43c6.66699 -10 17 -20 31 -30c14.667 -10.667 24.667 -18.667 30 -24s8 -14 8 -26
c-6 -31.333 -34.667 -47 -86 -47c-6.66699 0 -15.334 0.333008 -26.001 1s-17.667 1 -21 1h-119h-43c-53.333 0 -80 15.667 -80 47c3.33301 16.667 17.666 33.334 42.999 50.001c21.333 12 37.166 23 47.499 33s21.166 24.667 32.499 44zM1127.01 548.997l-10 51l-152 617
l-438 -668h600z" />
    <glyph glyph-name="B" unicode="B" horiz-adv-x="1393" 
d="M133 -82c-18.667 0 -33.668 3.00098 -45.001 9.00098c-10.667 6 -16 18.667 -16 38c4 22 24.333 38.667 61 50c28 7.33301 48 15 60 23s20.333 18.167 25 30.5s10.667 34.5 18 66.5l241 1139c0 13.333 -4.83301 22.666 -14.5 27.999s-24.5 11 -44.5 17
c-17.333 6 -29.333 11.667 -36 17c-7.33301 6 -11 17.333 -11 34c6 31.333 34.667 47 86 47h666c123.333 0 212 -19.667 266 -59c68 -46.667 102 -112.334 102 -197.001c0 -18.667 -2 -38.334 -6 -59.001c-12 -58 -39.333 -110.667 -82 -158s-92.667 -87.833 -150 -121.5
s-116.666 -61.167 -177.999 -82.5c63.333 -10 122.5 -29.667 177.5 -59s99 -68.166 132 -116.499s49.5 -103.166 49.5 -164.499c0 -27.333 -2.66699 -52.666 -8 -75.999c-14 -64 -43 -122.333 -87 -175s-97.667 -97.334 -161 -134.001c-109.333 -64.667 -244 -97 -404 -97
h-641zM538.999 695.001c134.667 28.667 244.003 54.668 328.003 78.001s157 54.666 219 93.999c44.667 27.333 84.667 61 120 101s57.666 81.333 66.999 124c4 16 6 33.667 6 53c0 74 -31.333 120.5 -94 139.5s-148.334 28.5 -257.001 28.5
c-114.667 0 -190.334 -8.33301 -227.001 -25c-12.667 -6.66699 -23 -15.5 -31 -26.5s-13.833 -22.333 -17.5 -34s-7.16699 -24.667 -10.5 -39s-6.33301 -29.5 -9 -45.5zM428.002 183.002c-9.33301 -44 -14.001 -71.335 -14.001 -82.002c0 -26.667 9.66699 -46 29 -58
c27.333 -14.667 92 -22 194 -22c149.333 0 269 20.333 359 61c56 24 104 57.5 144 100.5s65.667 91.5 77 145.5c4 22 6 43 6 63c0 78.667 -31 141.334 -93 188.001c-61.333 46.667 -137.666 78.334 -228.999 95.001l-387 -94z" />
    <glyph glyph-name="C" unicode="C" horiz-adv-x="1475" 
d="M1643 1043c-10.667 -46.667 -33.333 -70 -68 -70c-9.33301 0 -17 4.33301 -23 13c-5.33301 8 -9.33301 18 -12 30l-8 35c-13.333 50.667 -28 91.667 -44 123s-40.333 60.666 -73 87.999c-64.667 54 -146.334 81 -245.001 81c-88 0 -169.833 -17.667 -245.5 -53
s-149.5 -88.333 -221.5 -159c-137.333 -132.667 -224 -285.667 -260 -459c-14 -64.667 -21 -129 -21 -193c0 -101.333 17 -188.666 51 -261.999c72.667 -142 206 -213 400 -213c86 0 166.333 16.5 241 49.5s152.667 82.833 234 149.5c0.666992 0.666992 8 7.33398 22 20.001
s26 21.667 36 27s20 8 30 8c23.333 0 35 -16.333 35 -49c-6 -29.333 -38.333 -66.666 -97 -111.999c-58 -45.333 -109 -79.666 -153 -102.999c-61.333 -34.667 -127.333 -61.334 -198 -80.001c-71.333 -18 -140.666 -27 -207.999 -27c-87.333 0 -168.5 13.667 -243.5 41
s-140 66.333 -195 117s-97.333 111 -127 181s-44.5 146.333 -44.5 229c0 56 5.33301 108 16 156c24 109.333 67 214.666 129 315.999s137.833 191.166 227.5 269.499s188.167 139.833 295.5 184.5s216.333 67 327 67c135.333 0 259 -32 371 -96
c56 -36.667 88 -62.667 96 -78c4 -9.33301 6 -37.333 6 -84z" />
    <glyph glyph-name="D" unicode="D" horiz-adv-x="1516" 
d="M875 1417c138.667 0 251.668 -8.99902 339.001 -26.999s166.666 -58.667 237.999 -122c118.667 -104.667 178 -242 178 -412c0 -58.667 -7.33301 -122.667 -22 -192c-46 -214.667 -156 -395 -330 -541c-63.333 -52 -127.833 -93.167 -193.5 -123.5
s-132.167 -51.5 -199.5 -63.5s-141 -18 -221 -18h-531c-20 0 -35.5 2.83301 -46.5 8.5s-16.5 18.5 -16.5 38.5c4 22 24.333 38.667 61 50c27.333 7.33301 46.666 15.333 57.999 24c12 8 19.833 17.667 23.5 29s9.5 33.666 17.5 66.999l241 1139c0 14 -4.66699 23.333 -14 28
c-9.33301 5.33301 -23.666 11 -42.999 17c-15.333 6 -26.333 12 -33 18s-10 17 -10 33c6 31.333 33.333 47 82 47h422zM443.001 279.001c-18 -88.667 -27 -142.667 -27 -162c0 -36.667 13.667 -61.334 41 -74.001c28 -13.333 80.667 -20 158 -20c98 0 190.5 14.333 277.5 43
s164.5 70.334 232.5 125.001c68 55.333 125.333 122.5 172 201.5s80.667 168.833 102 269.5c12 57.333 18 116 18 176c0 134 -32 239.667 -96 317c-84.667 105.333 -236.667 158 -456 158c-63.333 0 -110 -5.83301 -140 -17.5s-52 -31.5 -66 -59.5s-27.333 -72.667 -40 -134
z" />
    <glyph glyph-name="E" unicode="E" 
d="M440 271c-13.333 -58.667 -20.001 -103.994 -20.001 -135.994c0 -38.667 11.167 -66.667 33.5 -84s60.5 -26 114.5 -26h307c86 0 176.667 37.333 272 112c42.667 34.667 71.334 52 86.001 52c16.667 0 25 -11.667 25 -35c-2.66699 -14 -11 -39.333 -25 -76
s-21.333 -55.667 -22 -57c-16 -40 -27 -65.667 -33 -77s-14.667 -18.333 -26 -21s-33.333 -4.33398 -66 -5.00098h-955c-18.667 0 -33.667 3 -45 9s-17 18.667 -17 38c3.33301 15.333 10 26 20 32c9.33301 6.66699 22.666 12.667 39.999 18
c26.667 7.33301 45.834 15.166 57.501 23.499s19.5 18.166 23.5 29.499s9.66699 33.666 17 66.999l229 1082c4.66699 16 7 31.667 7 47c0 33.333 -16.667 52.333 -50 57c-15.333 4 -26.666 9.16699 -33.999 15.5s-11 18.166 -11 35.499c6.66699 30 35 45 85 45h907
c34 -8.66699 51 -41.334 51 -98.001l-10 -125c-6.66699 -22 -20.334 -33 -41.001 -33c-13.333 0 -23.666 5.66699 -30.999 17c-22 38 -51 69.333 -87 94c-36 25.333 -75 38 -117 38h-330c-52 0 -91 -11.667 -117 -35s-43 -64.666 -51 -123.999l-80 -373h393
c32.667 0 59.167 2.5 79.5 7.5s43.166 16.167 68.499 33.5c20 18 36.333 27 49 27c19.333 0 29 -14.333 29 -43c0 -12 -1.33301 -24.333 -4 -37c-2 -13.333 -4.16699 -24.666 -6.5 -33.999l-8.5 -33c-4 -28.667 -10.167 -50.834 -18.5 -66.501s-24.5 -23.5 -48.5 -23.5
c-13.333 0 -27 8.66699 -41 26c-15.333 17.333 -30 27.666 -44 30.999s-36.333 5 -67 5h-403z" />
    <glyph glyph-name="F" unicode="F" horiz-adv-x="1147" 
d="M541 740l424.001 0.000976562c31.333 0 55 2.33301 71 7c15.333 3.33301 36 13.666 62 30.999c23.333 16.667 41 25 53 25c22 0 33 -14.333 33 -43c0 -14.667 -2.66699 -32.334 -8 -53.001s-10.333 -39 -15 -55c-2 -8.66699 -4.33301 -17.667 -7 -27s-6 -18.333 -10 -27
s-9.16699 -15.834 -15.5 -21.501s-14.5 -8.5 -24.5 -8.5c-16.667 0 -31 8 -43 24c-17.333 19.333 -32.833 31 -46.5 35s-37.834 6 -72.501 6h-426l-118 -569c0 -14 4 -23.667 12 -29c7.33301 -4.66699 21 -10.667 41 -18c16.667 -5.33301 29 -11 37 -17s12 -17.667 12 -35
c-7.33301 -31.333 -36 -47 -86 -47h-279c-42 0 -63 15.667 -63 47c3.33301 15.333 10 26 20 32c9.33301 6.66699 22.666 12.667 39.999 18c28.667 9.33301 48.167 17.666 58.5 24.999s16.833 14.833 19.5 22.5s9.33398 31.834 20.001 72.501l242 1139
c0 14 -4.66699 23.333 -14 28c-9.33301 5.33301 -24 11 -44 17c-16 6 -27.333 12 -34 18c-7.33301 6.66699 -11 18.334 -11 35.001c6 30 34 45 84 45h907c46.667 -7.33301 70 -38.666 70 -93.999l-2 -127c-9.33301 -21.333 -22.333 -32 -39 -32c-14.667 0 -31 14.333 -49 43
c-54 68.667 -128 103 -222 103h-335c-81.333 0 -125 -18 -131 -54z" />
    <glyph glyph-name="G" unicode="G" horiz-adv-x="1557" 
d="M1436 670c84 0 143.332 -4.66504 177.999 -13.998c15.333 -4 23 -18.333 23 -43l-15 -45l-67 -232c-14 -64.667 -21 -123.334 -21 -176.001c0 -12.667 -1.33301 -24.334 -4 -35.001c-10 -48.667 -87.667 -100.667 -233 -156c-76 -28 -146.333 -48.667 -211 -62
s-133 -20 -205 -20c-69.333 0 -136.333 6.33301 -201 19c-64.667 13.333 -125 34.333 -181 63c-55.333 28.667 -103.333 65 -144 109c-96 101.333 -144 232.333 -144 393c0 56 6.33301 113.333 19 172c24 112 67 217.333 129 316
c62.667 98.667 139.167 184.834 229.5 258.501s188.833 130.5 295.5 170.5s216.334 60 329.001 60c71.333 0 145.333 -9 222 -27c77.333 -18 140.333 -42.333 189 -73c46.667 -28 70 -63 70 -105c0 -13.333 -7 -55 -21 -125c-4 -30 -9.66699 -54.667 -17 -74
c-6.66699 -20 -20.667 -30 -42 -30c-17.333 0 -30.333 15 -39 45c-19.333 94.667 -55.333 162.334 -108 203.001c-73.333 54 -167 81 -281 81c-122 0 -235.333 -33.667 -340 -101c-105.333 -66.667 -193.666 -154.667 -264.999 -264
c-70.667 -109.333 -119 -223.666 -145 -342.999c-10.667 -56.667 -16 -109.334 -16 -158.001c0 -112 27.333 -208 82 -288c42.667 -62.667 99.834 -111.167 171.501 -145.5s150.5 -51.5 236.5 -51.5c55.333 0 113 7 173 21s110.667 35 152 63c47.333 32 82.333 73 105 123
c22 50.667 40.333 110.667 55 180c9.33301 49.333 14 83.666 14 102.999c0 34 -11.333 56.333 -34 67s-65.334 17.667 -128.001 21c-46.667 0 -83.334 4 -110.001 12c-10.667 6.66699 -16 21.667 -16 45c2 17.333 12.667 29.666 32 36.999c19.333 4 67.333 6 144 6h139z" />
    <glyph glyph-name="H" unicode="H" horiz-adv-x="1639" 
d="M399 64c0 -9.33301 2.66992 -16.832 8.00293 -22.499s12.333 -10.334 21 -14.001l26 -10.5c14.667 -5.33301 26 -11.333 34 -18c7.33301 -6 11 -17.333 11 -34c-4 -20 -13.167 -32.833 -27.5 -38.5s-32.833 -8.5 -55.5 -8.5h-283c-19.333 0 -34.833 3 -46.5 9
s-17.5 18.667 -17.5 38c3.33301 15.333 10.333 26 21 32c10 6.66699 24.333 12.667 43 18c26.667 7.33301 45.667 15 57 23s19.166 18 23.499 30s10.166 34.333 17.499 67l240 1137c0 15.333 -4.33301 25.5 -13 30.5s-23 10.5 -43 16.5c-16.667 6 -28.667 12.167 -36 18.5
s-11 17.833 -11 34.5c5.33301 20 15.333 32.5 30 37.5s33.667 7.5 57 7.5h283c40 0 60 -15 60 -45c-3.33301 -15.333 -9.33301 -26 -18 -32s-22.334 -12.333 -41.001 -19c-27.333 -8 -46.5 -15.833 -57.5 -23.5s-18.833 -17.167 -23.5 -28.5
c-4 -12 -9.66699 -34.667 -17 -68l-88 -414h887l104 487c0 21.333 -19.667 36.333 -59 45c-16 6 -27.5 12.167 -34.5 18.5s-10.5 17.833 -10.5 34.5c6 30 33.333 45 82 45h291c40.667 0 61 -15 61 -45c-3.33301 -15.333 -10 -26.333 -20 -33s-23.667 -12.667 -41 -18
c-40 -10 -64.333 -21.333 -73 -34s-18 -41.667 -28 -87l-237 -1118c0 -26.667 8.66699 -45 26 -55l21 -10l16 -11c14 -7.33301 23.667 -13.333 29 -18c5.33301 -4 8 -11.667 8 -23c-4 -19.333 -13 -32 -27 -38s-32.333 -9 -55 -9h-289c-20 0 -35.5 2.83301 -46.5 8.5
s-16.5 18.5 -16.5 38.5c4 22 24.333 38.667 61 50c28 7.33301 47.833 15 59.5 23s19.5 18 23.5 30c4.66699 12 10.667 34.333 18 67l114 545h-886z" />
    <glyph glyph-name="I" unicode="I" horiz-adv-x="533" 
d="M466 1274c0 14 -4.99902 23.6621 -14.999 28.9951c-9.33301 4.66699 -23.666 10 -42.999 16c-16 6 -27.333 12 -34 18c-7.33301 6.66699 -11 18.334 -11 35.001c4 20 13.167 32.5 27.5 37.5s33.166 7.5 56.499 7.5h282c41.333 0 62 -15 62 -45
c-3.33301 -15.333 -9.33301 -26 -18 -32s-22.334 -12.333 -41.001 -19c-21.333 -6 -37.333 -11.667 -48 -17s-18.667 -12.166 -24 -20.499s-9.83301 -19.166 -13.5 -32.499s-7.83398 -30.333 -12.501 -51l-242 -1136c0 -9.33301 2.66699 -17 8 -23
c6 -5.33301 12.667 -9.66602 20 -12.999l27 -11c14.667 -5.33301 26 -11.333 34 -18c7.33301 -6 11 -17.333 11 -34c-4.66699 -20 -14.167 -32.833 -28.5 -38.5s-32.833 -8.5 -55.5 -8.5h-283c-19.333 0 -34.666 3 -45.999 9s-17 18.667 -17 38
c4 22.667 25.333 39.334 64 50.001c26.667 7.33301 45.667 15 57 23s19 17.333 23 28s10 33.667 18 69z" />
    <glyph glyph-name="J" unicode="J" horiz-adv-x="983" 
d="M916 1274c0 20.667 -20.668 35.6689 -62.001 45.002c-17.333 6.66699 -29.333 12.667 -36 18c-7.33301 6 -11 17.667 -11 35c6 30 34 45 84 45h287c42 0 63 -15 63 -45c-3.33301 -15.333 -10 -26.333 -20 -33c-9.33301 -6.66699 -23 -12.667 -41 -18
c-38.667 -10.667 -62 -22 -70 -34s-16.667 -41 -26 -87l-172 -811c-34 -160 -84.667 -276 -152 -348c-48 -51.333 -106 -89.833 -174 -115.5s-135.667 -38.5 -203 -38.5c-91.333 0 -168.666 22.333 -231.999 67c-64 45.333 -96 108 -96 188c0 13.333 2.66699 35 8 65
c9.33301 42 27.333 82.333 54 121c25.333 38.667 56.833 70.167 94.5 94.5s77.834 36.5 120.501 36.5c22 0 39.667 -6.66699 53 -20s20 -33.333 20 -60c-4.66699 -22.667 -14.667 -38.834 -30 -48.501s-37.333 -18.167 -66 -25.5c-43.333 -12.667 -72 -24.667 -86 -36
c-24.667 -22.667 -40.334 -50 -47.001 -82c-2.66699 -16.667 -4 -28.334 -4 -35.001c0 -48.667 21.167 -87.167 63.5 -115.5s90.833 -42.5 145.5 -42.5c91.333 0 167.333 32 228 96c30 31.333 52.5 67.5 67.5 108.5s28.5 89.5 40.5 145.5z" />
    <glyph glyph-name="K" unicode="K" horiz-adv-x="1434" 
d="M402 64c0 -10 2.6709 -17.8301 8.00391 -23.4971s12.333 -10.167 21 -13.5c9.33301 -3.33301 18 -6.66602 26 -9.99902c14 -5.33301 24.667 -11.333 32 -18c7.33301 -6 11 -17.333 11 -34c-7.33301 -31.333 -35.333 -47 -84 -47h-283c-20 0 -35.5 2.83301 -46.5 8.5
s-16.5 18.5 -16.5 38.5c3.33301 15.333 10.333 26 21 32c10 6.66699 24.333 12.667 43 18c28 7.33301 47.667 15 59 23s19.166 18 23.499 30s10.166 34.333 17.499 67l242 1139c0 20.667 -19 35.667 -57 45c-16.667 5.33301 -28.834 11.166 -36.501 17.499
s-11.5 18.166 -11.5 35.499c6 30 33.333 45 82 45h280c42.667 0 64 -15 64 -45c-3.33301 -15.333 -8.83301 -25.5 -16.5 -30.5s-21.834 -11.833 -42.501 -20.5c-29.333 -11.333 -48.666 -20.333 -57.999 -27s-15.166 -13.834 -17.499 -21.501s-8.5 -31.834 -18.5 -72.501
l-127 -596l418 330l227 193l37 32.5l38 34.5c10.667 11.333 20.667 23.333 30 36s15.333 24.667 18 36c0 15.333 -3.66699 26.833 -11 34.5s-18 15.5 -32 23.5c-13.333 7.33301 -23.666 14.666 -30.999 21.999c-6.66699 8 -10 19 -10 33c5.33301 25.333 29.666 38 72.999 38
h301c46.667 0 70 -12.667 70 -38c-5.33301 -22.667 -25 -40.667 -59 -54c-43.333 -18.667 -77.833 -37.667 -103.5 -57s-60.167 -50 -103.5 -92l-416 -361l41 -53c31.333 -42.667 62.666 -88.667 93.999 -138s61 -100 89 -152s53.667 -106.333 77 -163
s41.333 -109.667 54 -159c10.667 -40 20.667 -68.667 30 -86c10 -17.333 28.667 -31.666 56 -42.999c14.667 -6.66699 25.667 -13.667 33 -21c8 -7.33301 12 -20.333 12 -39c-6.66699 -28.667 -33.667 -43 -81 -43h-266c-24.667 0 -45 2.66699 -61 8c-16 6 -24 19 -24 39
c2.66699 14.667 11.834 26.167 27.501 34.5l46.5 26c15.333 9 24.666 21.833 27.999 38.5c0 47.333 -19.167 114 -57.5 200s-82.833 171.333 -133.5 256s-90.334 143.667 -119.001 177l-325 -248z" />
    <glyph glyph-name="L" unicode="L" 
d="M424 156c-9.33301 -33.333 -14.0029 -56.665 -14.0029 -69.998c0 -14.667 4 -26.334 12 -35.001c8 -6 19 -11 33 -15c14.667 -4 30.667 -6.66699 48 -8c18 -1.33301 35.667 -2.33301 53 -3s30.666 -1.33398 39.999 -2.00098h111l227 13c53.333 6.66699 93.333 15 120 25
c27.333 10 63 29.333 107 58c46.667 30 75.334 45 86.001 45c16.667 0 25 -13.667 25 -41c-0.666992 -7.33301 -10.667 -34.333 -30 -81s-32.666 -74.334 -39.999 -83.001c-12 -18 -26.833 -29.333 -44.5 -34s-40.167 -7 -67.5 -7h-946c-19.333 0 -34.5 2.83301 -45.5 8.5
s-16.5 18.5 -16.5 38.5c2.66699 14.667 8.33398 25 17.001 31s22.334 12.333 41.001 19c26.667 9.33301 45.667 17.666 57 24.999c10.667 8 18 17.667 22 29s9.66699 33.333 17 66l241 1139c0 14.667 -5 24.667 -15 30s-24.667 10.333 -44 15
c-17.333 6 -29.5 11.833 -36.5 17.5s-10.5 17.5 -10.5 35.5c4.66699 20.667 13.834 33.334 27.501 38.001s32.5 7 56.5 7h278c42.667 0 64 -15 64 -45c-4 -15.333 -10 -25.666 -18 -30.999s-21.667 -11.333 -41 -18c-27.333 -9.33301 -46.333 -18 -57 -26
c-10 -7.33301 -16.333 -15.5 -19 -24.5s-8.33398 -32.5 -17.001 -70.5z" />
    <glyph glyph-name="M" unicode="M" horiz-adv-x="1762" 
d="M1293 860l298.998 470.992c17.333 30 32 51.833 44 65.5s28.667 20.5 50 20.5h264c16.667 0 28.334 -2.66699 35.001 -8s10 -19.666 10 -42.999c-4 -20.667 -25 -35.667 -63 -45s-63.667 -20.166 -77 -32.499s-23.333 -36.833 -30 -73.5l-246 -1151c0 -8 2 -14.5 6 -19.5
s8.66699 -8.83301 14 -11.5s13 -5.66699 23 -9s17.667 -5.66602 23 -6.99902c17.333 -6 30 -11.667 38 -17c8.66699 -6 13 -17.667 13 -35c-4.66699 -20 -14.167 -32.833 -28.5 -38.5s-32.833 -8.5 -55.5 -8.5h-276c-41.333 0 -62 15.667 -62 47
c2.66699 14.667 8.33398 25 17.001 31s22 12.333 40 19c22 8 37.333 15 46 21c9.33301 5.33301 15.666 11.333 18.999 18c4 6.66699 7 15.834 9 27.501s5.33301 29.5 10 53.5l228 1074l-443 -689l-219 -317c-18.667 -26 -35.667 -47.5 -51 -64.5s-30.333 -25.5 -45 -25.5
c-14 0 -23.833 4.83301 -29.5 14.5s-11.5 25.167 -17.5 46.5l-121 469l-94 496l-21 102l-248 -1169c0 -16 4.33301 -26.833 13 -32.5s25.667 -13.167 51 -22.5c16.667 -5.33301 29.667 -11.666 39 -18.999s14 -20.333 14 -39c-5.33301 -27.333 -26.333 -41 -63 -41h-246
c-21.333 0 -37.333 2.33301 -48 7c-10.667 5.33301 -16 18 -16 38c2.66699 15.333 8.66699 26 18 32c9.33301 6.66699 23 13.334 41 20.001c24 8 41 15.333 51 22s17 15.667 21 27c4.66699 10.667 9.33398 28.334 14.001 53.001l240 1130c0 30.667 -5 49.667 -15 57
s-27.667 16.333 -53 27s-38 24.334 -38 41.001c5.33301 30 27.333 45 66 45h272c15.333 0 26.833 -5.66699 34.5 -17s13.167 -25.833 16.5 -43.5s6 -33.5 8 -47.5l191 -920z" />
    <glyph glyph-name="N" unicode="N" horiz-adv-x="1516" 
d="M1477 1166c12.667 50 19 84.665 19 103.998c0 15.333 -3.66699 25.833 -11 31.5s-18.666 10.834 -33.999 15.501c-18.667 6 -32.334 12.333 -41.001 19s-13 18.667 -13 36c7.33301 30 29.333 45 66 45h251c33.333 0 50 -15.667 50 -47c-4 -19.333 -24.333 -35 -61 -47
c-6.66699 -2 -13.834 -4.5 -21.501 -7.5s-14.834 -6 -21.501 -9s-13 -6.5 -19 -10.5c-5.33301 -4.66699 -10 -10.667 -14 -18c-5.33301 -10.667 -13.666 -44 -24.999 -100l-252 -1182c-8 -40 -15.667 -68 -23 -84c-6.66699 -16.667 -22.334 -25 -47.001 -25
c-18 0 -33 20 -45 60c-12.667 46 -28 90.167 -46 132.5s-38.333 86.833 -61 133.5l-77 162l-109.5 251l-94.5 202.5c-32 65.667 -67.667 132.5 -107 200.5s-81.666 132.667 -126.999 194l-234 -1104c-5.33301 -26 -8 -42.333 -8 -49c0 -24 16.333 -40.333 49 -49
c20 -5.33301 33.833 -11 41.5 -17s11.5 -19 11.5 -39c-7.33301 -31.333 -28.333 -47 -63 -47h-279c-28.667 0 -43 15.667 -43 47c4.66699 25.333 24.667 42 60 50c35.333 6.66699 59.833 14.834 73.5 24.501s22 19.834 25 30.501s9.5 41.334 19.5 92.001l216 1006
c8 40.667 12 68.667 12 84c0 42.667 -22.667 69 -68 79c-20 6 -33.833 11.5 -41.5 16.5s-11.5 15.5 -11.5 31.5c4.66699 25.333 27.334 38 68.001 38h235c24.667 0 71.667 -54.833 141 -164.5s129 -211.834 179 -306.501l73 -139c28 -51.333 54.5 -103.833 79.5 -157.5
s49.5 -109.834 73.5 -168.501l73 -178z" />
    <glyph glyph-name="O" unicode="O" horiz-adv-x="1639" 
d="M316 105c-71.333 96 -107.003 212.002 -107.003 348.002c0 67.333 8.33301 136.333 25 207c22.667 107.333 61.5 209 116.5 305s122.333 180.167 202 252.5s169.167 128.833 268.5 169.5s204 61 314 61c102.667 0 196.334 -19.333 281.001 -58
s153.334 -94.334 206.001 -167.001c74 -94.667 111 -214 111 -358c0 -63.333 -7.33301 -131 -22 -203c-30.667 -144.667 -91 -276.334 -181 -395.001c-89.333 -118 -198.666 -211 -327.999 -279c-130 -67.333 -267.667 -101 -413 -101c-208 0 -365.667 72.667 -473 218z
M1278 211.002c110.667 118.667 184.667 265.668 222 441.001c16 78 24 150.333 24 217c0 103.333 -17.667 188.666 -53 255.999c-33.333 66.667 -81.333 119 -144 157s-134.334 57 -215.001 57c-84 0 -165.667 -21.333 -245 -64s-150.333 -101 -213 -175
c-104 -118.667 -174.333 -264.667 -211 -438c-15.333 -68 -23 -133.667 -23 -197c0 -96.667 17.667 -182 53 -256c32.667 -66.667 78.834 -119.167 138.501 -157.5s129.5 -57.5 209.5 -57.5c82 0 162.833 19.333 242.5 58s151.167 91.667 214.5 159z" />
    <glyph glyph-name="P" unicode="P" horiz-adv-x="1270" 
d="M398 62c0 -14.667 5.00098 -24.6709 15.001 -30.0039c10.667 -5.33301 26 -10.333 46 -15c17.333 -6 30.166 -11.833 38.499 -17.5s12.5 -17.167 12.5 -34.5c-7.33301 -31.333 -35.333 -47 -84 -47h-286c-20.667 0 -36.5 2.83301 -47.5 8.5s-16.5 18.5 -16.5 38.5
c2.66699 14.667 8.5 25 17.5 31s22.833 12.333 41.5 19c28.667 9.33301 48 17.666 58 24.999s16.667 16 20 26s9 33 17 69l241 1139c0 14 -4.66699 23.333 -14 28c-9.33301 5.33301 -23.666 11 -42.999 17c-15.333 4 -26.666 9.33301 -33.999 16s-11 18.334 -11 35.001
c6 31.333 33.333 47 82 47h532c76.667 0 143.667 -4.66699 201 -14s108.666 -27.666 153.999 -54.999c95.333 -54 143 -134.667 143 -242c0 -29.333 -2.66699 -56.666 -8 -81.999c-20 -93.333 -67.667 -177.166 -143 -251.499s-163.333 -133.833 -264 -178.5
c-86 -38 -175.833 -64.167 -269.5 -78.5s-195.834 -22.166 -306.501 -23.499zM512.001 597.996c76 0 153.833 7.16602 233.5 21.499s155.5 37.333 227.5 69s134 73.834 186 126.501s85.667 115.667 101 189c4 18 6 37 6 57c0 78 -30 140 -90 186
c-34 25.333 -73.333 42 -118 50c-44.667 8.66699 -97 13 -157 13c-90 0 -153.333 -8.66699 -190 -26c-28 -12 -46.5 -27 -55.5 -45s-17.833 -46.667 -26.5 -86z" />
    <glyph glyph-name="Q" unicode="Q" horiz-adv-x="1639" 
d="M787 -113c-62.667 0 -123.336 9.00098 -182.003 27.001s-112.334 44.333 -161.001 79c-49.333 35.333 -90.666 76 -123.999 122c-71.333 100.667 -107 223.667 -107 369c0 59.333 6.33301 119.333 19 180c22 103.333 61.167 202.666 117.5 297.999
s125.666 179.666 207.999 252.999s173 130.5 272 171.5s201.5 61.5 307.5 61.5c120.667 0 226.334 -24.833 317.001 -74.5s160 -118.5 208 -206.5c48.667 -88.667 73 -189.334 73 -302.001c0 -62.667 -6.66699 -123 -20 -181c-24 -114 -68.333 -223.167 -133 -327.5
s-146 -194.5 -244 -270.5c-97.333 -77.333 -204.666 -132.666 -321.999 -165.999c80 -94 178.333 -141 295 -141c16 0 39.833 2 71.5 6s54.834 6 69.501 6c31.333 0 47 -23.333 47 -70c-6.66699 -31.333 -27.667 -54.166 -63 -68.499s-71.666 -21.5 -108.999 -21.5
c-90 0 -173 24.667 -249 74s-137.667 112 -185 188zM849.998 211.001c13.333 53.333 35.333 79.999 66 79.999c12.667 0 20.5 -5.33301 23.5 -16s4.5 -32.667 4.5 -66c0 -94 7.66699 -163 23 -207c94 29.333 178 78.333 252 147s134.667 148 182 238
c48 90 82.333 183 103 279c12 60.667 18 122.667 18 186c0 89.333 -13.667 171 -41 245s-70.833 133.5 -130.5 178.5s-134.167 67.5 -223.5 67.5c-116 0 -222.167 -33.667 -318.5 -101s-176 -154.166 -239 -260.499s-106.5 -215.5 -130.5 -327.5
c-12.667 -56.667 -19 -115 -19 -175c0 -90.667 15.5 -173.5 46.5 -248.5s79.167 -135 144.5 -180s147 -67.5 245 -67.5c-9.33301 52.667 -14 98.667 -14 138c0 30.667 2.66699 60.667 8 90z" />
    <glyph glyph-name="R" unicode="R" horiz-adv-x="1393" 
d="M402 62c0 -9.33301 2.49805 -16.8389 7.49805 -22.5059s11.333 -10 19 -13s16.5 -6.16699 26.5 -9.5c15.333 -7.33301 26.333 -14 33 -20c6.66699 -5.33301 10 -16.666 10 -33.999c-4.66699 -20 -14.167 -32.5 -28.5 -37.5s-33.5 -7.5 -57.5 -7.5h-275
c-19.333 0 -34.666 2.66699 -45.999 8c-11.333 6 -17 18.333 -17 37c2.66699 15.333 8.5 26 17.5 32s23.5 12.667 43.5 20c22 6.66699 38.333 12.834 49 18.501s18.5 11.834 23.5 18.501s9.5 18.334 13.5 35.001c4.66699 16 9 32 13 48l239 1137
c0 15.333 -4.33301 25.333 -13 30s-23.334 10.334 -44.001 17.001c-17.333 6 -29.666 11.667 -36.999 17c-6.66699 6 -10 17.333 -10 34c6 31.333 34 47 84 47h637c132 0 228.333 -23.667 289 -71c69.333 -50.667 104 -119 104 -205c0 -13.333 -2.66699 -36 -8 -68
c-14 -64 -41.833 -121.667 -83.5 -173s-91.834 -95.666 -150.501 -132.999c-58 -37.333 -120.667 -69.666 -188 -96.999c48 -73.333 87.333 -153 118 -239c31.333 -86.667 61 -187.334 89 -302.001c8.66699 -36 17.334 -61.667 26.001 -77
c9.33301 -16 27.333 -30.667 54 -44c14.667 -6 25.334 -11.667 32.001 -17c7.33301 -5.33301 11 -16 11 -32c-6 -27.333 -32 -41 -78 -41h-303c-49.333 0 -74 14.333 -74 43c4 17.333 16.167 31 36.5 41l59 29.5c19 9.66699 30.833 25.167 35.5 46.5
c0 48 -12 108.667 -36 182c-24 74 -52.5 144.833 -85.5 212.5s-61.5 117.167 -85.5 148.5l-344 -60zM530.998 667.994c136 20.667 245.667 40.499 329 59.499s166 54.5 248 106.5s132.333 123.667 151 215c4 20 6 39 6 57c0 136 -125.333 204 -376 204
c-98 0 -161.333 -8.66699 -190 -26c-30 -17.333 -51.333 -59.666 -64 -126.999z" />
    <glyph glyph-name="S" unicode="S" 
d="M922 785c129.333 -31.333 219.338 -70.3398 270.005 -117.007c58.667 -56.667 88 -131 88 -223c0 -30.667 -2.66699 -58.667 -8 -84c-14 -67.333 -42.667 -131.166 -86 -191.499s-96 -111.833 -158 -154.5c-122.667 -85.333 -267.334 -128 -434.001 -128
c-155.333 0 -274 35 -356 105c-31.333 26.667 -60 61.334 -86 104.001s-39 83.667 -39 123c0 8 1.33301 19 4 33c3.33301 18 11 33.333 23 46c12 13.333 27 20 45 20c26.667 0 46.334 -18.667 59.001 -56c16.667 -46 33 -82.833 49 -110.5s38.667 -52.834 68 -75.501
c71.333 -54.667 164.666 -82 279.999 -82c66.667 0 132.834 12.167 198.501 36.5s122.667 60.666 171 108.999s79.5 106.5 93.5 174.5c4 18 6 35.667 6 53c0 74 -31.167 126.333 -93.5 157s-159.333 61.834 -291 93.501s-231.334 68.5 -299.001 110.5
s-101.5 109.333 -101.5 202c0 24 3.66699 52.667 11 86c13.333 60.667 39 118.334 77 173.001c38.667 54.667 86 101.334 142 140.001c110 79.333 241 119 393 119c43.333 0 86.333 -3.66699 129 -11s83.667 -18.666 123 -33.999s73.666 -33.666 102.999 -54.999
c21.333 -15.333 33 -32.333 35 -51c0 -8.66699 -1.16699 -19.667 -3.5 -33l-8 -46c-3 -17.333 -5.5 -30.666 -7.5 -39.999c-1.33301 -7.33301 -3.16602 -15.166 -5.49902 -23.499s-5.16602 -16 -8.49902 -23s-7.83301 -13 -13.5 -18s-12.834 -7.5 -21.501 -7.5
c-10.667 0 -27.334 16.333 -50.001 49s-44.334 61 -65.001 85c-21.333 24.667 -55.833 48 -103.5 70s-106.5 33 -176.5 33c-49.333 0 -98.833 -10.333 -148.5 -31s-92.334 -50 -128.001 -88s-58.834 -82 -69.501 -132c-4.66699 -22.667 -7 -41 -7 -55
c0 -101.333 74 -171 222 -209z" />
    <glyph glyph-name="T" unicode="T" horiz-adv-x="1311" 
d="M776 64c0 -10.667 2.6709 -18.666 8.00391 -23.999c6 -6 12 -10.333 18 -13l29 -10c16 -5.33301 28 -11.333 36 -18c7.33301 -6 11 -17.333 11 -34c-4 -20 -13.167 -32.833 -27.5 -38.5s-32.833 -8.5 -55.5 -8.5h-285c-42.667 0 -64 15.667 -64 47
c4 22.667 25.333 39.334 64 50.001c26.667 7.33301 45.667 15 57 23s19.166 18 23.499 30s10.166 34.333 17.499 67l223 1051c10 49.333 15 75.333 15 78c0 17.333 -5.5 29.833 -16.5 37.5s-31.5 11.5 -61.5 11.5c-46 0 -104 -6.66699 -174 -20
c-39.333 -8 -72.166 -19.167 -98.499 -33.5s-62.5 -37.5 -108.5 -69.5c-0.666992 -0.666992 -6.66699 -5.5 -18 -14.5s-21.333 -16 -30 -21s-17 -7.5 -25 -7.5c-22.667 0 -34 15.667 -34 47c1.33301 6 4 13.833 8 23.5s7 17.5 9 23.5c0.666992 3.33301 5 16.666 13 39.999
c8 24 16 45.333 24 64s17.333 35.334 28 50.001c11.333 14.667 22.666 22 33.999 22h1136c19.333 -3.33301 31 -7.33301 35 -12c5.33301 -6.66699 8 -31.334 8 -74.001c0 -44.667 -0.666992 -71.667 -2 -81c0 -24.667 -0.666992 -42.667 -2 -54
c-8 -28.667 -23.667 -43 -47 -43c-8.66699 0 -16.334 2.16699 -23.001 6.5s-13 9.83301 -19 16.5s-11.667 12.667 -17 18c-31.333 30 -54.833 50.833 -70.5 62.5s-39.5 22.167 -71.5 31.5c-49.333 16.667 -106 25 -170 25c-36.667 0 -64 -4.66699 -82 -14
c-17.333 -9.33301 -29.333 -22.333 -36 -39s-14.334 -45.334 -23.001 -86.001z" />
    <glyph glyph-name="U" unicode="U" horiz-adv-x="1557" 
d="M496 580c-24.667 -108 -37.0029 -193.336 -37.0029 -256.003c0 -61.333 10.333 -113.333 31 -156c26.667 -57.333 69.334 -100.333 128.001 -129s119.667 -43 183 -43c79.333 0 158 15.5 236 46.5s142.667 77.833 194 140.5c48.667 58 85.5 122.667 110.5 194
s48.167 158 69.5 260l121 570c0 58.667 -21 96.667 -63 114c-18 8 -30.667 15 -38 21s-11 16.667 -11 32c6 26 29 40.333 69 43h273c28.667 -2 43 -17.667 43 -47c-2.66699 -13.333 -8.66699 -22.833 -18 -28.5s-24 -12.5 -44 -20.5
c-30.667 -10.667 -51.667 -22.667 -63 -36s-20.333 -36.666 -27 -69.999l-127 -596c-15.333 -73.333 -31.666 -138.666 -48.999 -195.999s-41.666 -113.666 -72.999 -168.999c-30.667 -56 -70 -107.667 -118 -155c-72.667 -70.667 -158.5 -123.667 -257.5 -159
s-197.5 -53 -295.5 -53c-76.667 0 -152.167 15.333 -226.5 46s-131.166 77 -170.499 139c-41.333 65.333 -62 144.333 -62 237c0 62.667 11.667 150.334 35 263.001l144 680c0 23.333 -2.83301 38.666 -8.5 45.999s-16.5 15 -32.5 23c-15.333 6 -26.333 12 -33 18
s-10 17 -10 33c6 30 34 45 84 45h268c42.667 0 64 -15 64 -45c-4 -14.667 -10.667 -25.334 -20 -32.001c-9.33301 -6 -23.333 -11.667 -42 -17c-34.667 -9.33301 -56.834 -20.666 -66.501 -33.999s-19.5 -42.333 -29.5 -87z" />
    <glyph glyph-name="V" unicode="V" horiz-adv-x="1434" 
d="M1694 1417c26 0 38.998 -13.332 38.998 -39.999c-2 -14 -17.667 -32.667 -47 -56c-24.667 -16 -45.334 -38.333 -62.001 -67l-114 -230c-33.333 -67.333 -77.666 -150 -132.999 -248s-114.333 -197 -177 -297s-128 -196.667 -196 -290
c-67.333 -94 -130.333 -172.667 -189 -236c-53.333 -58.667 -93.333 -88 -120 -88c-16.667 0 -28.834 4.16699 -36.501 12.5s-17.5 23.166 -29.5 44.499c-76.667 162 -136.667 368.333 -180 619c-38.667 215.333 -60 441.333 -64 678c0 36 -4.33301 60.5 -13 73.5
s-21 26.5 -37 40.5c-15.333 14 -23 28.667 -23 44c6 26.667 31 40 75 40h293c35.333 0 53 -15 53 -45c-3.33301 -18.667 -21 -34.334 -53 -47.001c-35.333 -16 -59.166 -29.5 -71.499 -40.5s-21.833 -31.5 -28.5 -61.5c-5.33301 -27.333 -8 -65.666 -8 -114.999
c0 -139.333 17.667 -302.333 53 -489c36.667 -193.333 85.667 -372.333 147 -537c110.667 130 232.334 307.667 365.001 533l94 161.5l87 158.5c32.667 60.667 61.334 118.167 86.001 172.5s40 96.166 46 125.499c0 27.333 -4.5 45.333 -13.5 54s-26 21.834 -51 39.501
s-37.5 34.5 -37.5 50.5c6 26.667 29 40 69 40h277z" />
    <glyph glyph-name="W" unicode="W" horiz-adv-x="1925" 
d="M2159 1417c39.333 0 59.0039 -11.9961 59.0039 -35.9961c-3.33301 -16 -20.333 -34 -51 -54c-25.333 -16.667 -43.166 -33.167 -53.499 -49.5s-21.833 -43.5 -34.5 -81.5l-136.5 -326l-139.5 -319.5c-46 -100.333 -97 -201.833 -153 -304.5
c-56 -102 -115.667 -199.667 -179 -293c-20 -29.333 -37 -51.333 -51 -66s-30.667 -22 -50 -22c-13.333 0 -25.333 8.66699 -36 26c-11.333 18 -20.666 39.333 -27.999 64l-16 55c-66.667 224 -115.667 509 -147 855c-103.333 -215.333 -214 -428.333 -332 -639
c-69.333 -124 -135.333 -222 -198 -294c-16.667 -21.333 -31.334 -38 -44.001 -50c-12.667 -11.333 -27.334 -17 -44.001 -17c-10 0 -17.833 2.83301 -23.5 8.5s-10.167 13.167 -13.5 22.5s-6.33301 18.666 -9 27.999c-18.667 64 -34.667 135 -48 213
c-14.667 77.333 -26.167 158.166 -34.5 242.499s-14.5 168.833 -18.5 253.5c-3.33301 84.667 -5 166.667 -5 246c0 66.667 0.666992 115 2 145l4 189v43c0 16 -2.33301 28.667 -7 38c-4 9.33301 -14.667 19.666 -32 30.999c-18.667 14.667 -28 32 -28 52
c6 26.667 31.667 40 77 40h275c38 0 57 -13.333 57 -40c-2.66699 -16 -19.334 -30.667 -50.001 -44c-30 -13.333 -52.667 -25.5 -68 -36.5s-26.333 -33.5 -33 -67.5c-12.667 -58 -19 -148 -19 -270c0 -38.667 2 -123.334 6 -254.001
c7.33301 -171.333 26 -366.666 56 -585.999c147.333 240.667 251.666 421 312.999 541c49.333 96.667 99.5 202.667 150.5 318s82.833 203 95.5 263c2.66699 14 4 23 4 27c0 16 -3.5 28.333 -10.5 37s-17.5 17.334 -31.5 26.001s-23.833 16.167 -29.5 22.5
s-8.5 16.166 -8.5 29.499c2 10.667 8.83301 19 20.5 25s23.834 9 36.501 9h269c34 0 51 -12.667 51 -38c-4 -16 -20.167 -31.5 -48.5 -46.5s-49.5 -28.167 -63.5 -39.5s-24.667 -34 -32 -68c-8 -36.667 -12 -88.667 -12 -156c0 -109.333 9.66699 -251.333 29 -426
c11.333 -109.333 24.666 -204.333 39.999 -285s36.666 -157.667 63.999 -231c54.667 90.667 107.334 184.334 158.001 281.001s94 184.167 130 262.5s67.667 151.166 95 218.499l55 133c17.333 42 32.666 80.667 45.999 116s22.666 65.666 27.999 90.999
c2.66699 13.333 4 22.333 4 27c0 19.333 -4.66699 34 -14 44s-23 19.333 -41 28s-30.667 16 -38 22s-11 15.667 -11 29c4.66699 25.333 23.667 38 57 38h240z" />
    <glyph glyph-name="X" unicode="X" horiz-adv-x="1434" 
d="M783 541c-74.667 -74 -160.667 -164.333 -258 -271s-149.666 -176 -156.999 -208c0 -12.667 2.66699 -22.5 8 -29.5s14 -14.167 26 -21.5c11.333 -8.66699 20.166 -16.667 26.499 -24s9.5 -17.333 9.5 -30c-5.33301 -26 -29.666 -39 -72.999 -39h-262
c-24.667 0 -44 2.16699 -58 6.5s-21 15.166 -21 32.499c5.33301 18.667 14.333 31 27 37c12 6.66699 33 14.334 63 23.001c30.667 10 57.167 25.667 79.5 47s48.5 50.666 78.5 87.999l182 198l289 304c-30 42 -59.333 86.667 -88 134c-28 46.667 -55 96.5 -81 149.5
s-49 103.167 -69 150.5c-19.333 46.667 -39.666 98.334 -60.999 155.001c-7.33301 21.333 -15.333 37.666 -24 48.999c-8.66699 12 -21.667 21.667 -39 29c-16.667 7.33301 -29 14.666 -37 21.999s-12 20 -12 38c4.66699 24 30 36 76 36h287c42 0 63 -10.667 63 -32
c-2 -10.667 -5 -17.667 -9 -21s-14.667 -9.33301 -32 -18c-21.333 -10 -36.333 -18.667 -45 -26c-8.66699 -6.66699 -15 -18.667 -19 -36c0 -40.667 14.667 -92.167 44 -154.5s59.166 -117.666 89.499 -165.999l108.5 -166.5l242 235c56 56 101 103 135 141
s53.667 70.333 59 97c0 17.333 -4 30.666 -12 39.999s-19.833 18.5 -35.5 27.5s-26.667 16.5 -33 22.5s-9.5 15.667 -9.5 29c3.33301 18.667 23.333 28 60 28h297c38 0 57 -11.333 57 -34c-4.66699 -21.333 -22.334 -38.666 -53.001 -51.999
c-34.667 -10.667 -62.667 -25.667 -84 -45c-14.667 -13.333 -35 -35 -61 -65l-74 -86l-416 -424c66 -89.333 123 -172 171 -248c48 -75.333 87.333 -151.666 118 -228.999l41 -109c15.333 -32.667 28.833 -55.834 40.5 -69.501s31.5 -25.834 59.5 -36.501
c30 -11.333 45 -30.666 45 -57.999c-4.66699 -28.667 -29.334 -43 -74.001 -43h-315c-39.333 0 -59 13 -59 39c3.33301 16 14 28.333 32 37l54 25c18.667 8 29.334 19.333 32.001 34c0 30.667 -19.5 81.834 -58.5 153.501s-83.5 144.667 -133.5 219
s-85.667 122.5 -107 144.5z" />
    <glyph glyph-name="Y" unicode="Y" horiz-adv-x="1434" 
d="M1669 1417c49.333 0 73.998 -12.001 73.998 -36.001c-4.66699 -19.333 -19.667 -36 -45 -50c-26 -13.333 -44 -23.666 -54 -30.999c-9.33301 -8 -23.333 -24.667 -42 -50c-66 -92.667 -167.667 -213 -305 -361l-361 -369l-97 -456c0 -10.667 2.83301 -18.834 8.5 -24.501
s11.5 -9.83398 17.5 -12.501l30 -10c14.667 -4 26.334 -9 35.001 -15c8 -7.33301 12 -19.666 12 -36.999c-6.66699 -31.333 -34 -47 -82 -47h-280c-20 0 -35.667 2.83301 -47 8.5s-17 18.5 -17 38.5c2.66699 14.667 8.83398 25.334 18.501 32.001s23.167 12.667 40.5 18
c38.667 12.667 61.667 24.667 69 36c8 11.333 17 39.333 27 84l82 390l-78 158.5l-97.5 194c-33.667 67.667 -62.834 129.334 -87.501 185.001s-46.667 112.5 -66 170.5c-7.33301 24 -15.333 42 -24 54s-23.334 22.667 -44.001 32c-30 14.667 -45 34.667 -45 60
c4.66699 25.333 28.667 38 72 38h303c18.667 0 32.834 -2.33301 42.501 -7s14.5 -15.667 14.5 -33c-2.66699 -14.667 -13 -26.5 -31 -35.5l-55 -26.5c-18.667 -8.66699 -29.667 -20.334 -33 -35.001c0 -62.667 33.667 -156 101 -280c23.333 -42.667 42.333 -78.667 57 -108
l66 -133.5c29.333 -59.667 49.333 -99.5 60 -119.5l374 389c104.667 110 161.334 185.333 170.001 226c0 18.667 -3.83301 33.5 -11.5 44.5s-19.167 21.667 -34.5 32s-25.833 18.5 -31.5 24.5s-8.5 15.333 -8.5 28c5.33301 22.667 30 34 74 34h229z" />
    <glyph glyph-name="Z" unicode="Z" horiz-adv-x="1188" 
d="M1319 1417c28 0 48.6709 -3.16699 62.0039 -9.5s20 -22.833 20 -49.5c-11.333 -57.333 -90.333 -170 -237 -338s-282 -316 -406 -444l-299 -320l-60 -65c-24.667 -26 -46 -50.667 -64 -74c-18.667 -22.667 -29.334 -40.334 -32.001 -53.001c0 -16 5 -26.333 15 -31
c10 -4 25 -6 45 -6h250c101.333 0 186.666 7.33301 255.999 22c70 14 136 47 198 99c1.33301 0.666992 9.83301 7.83398 25.5 21.501s29.5 24 41.5 31s22.667 10.5 32 10.5c14.667 0 22 -10.333 22 -31c-4.66699 -24 -15.667 -60.667 -33 -110
c-16.667 -50 -30.334 -86.333 -41.001 -109c-8 -18 -18.5 -29.667 -31.5 -35s-30.5 -8 -52.5 -8h-860c-74 0 -111 24 -111 72c8 31.333 19.833 57.833 35.5 79.5s43.5 56.5 83.5 104.5l176 197l611 649c30.667 32 70.667 78.333 120 139s76.333 101 81 121
c0 23.333 -24 35 -72 35h-184c-81.333 0 -154.666 -6 -219.999 -18c-50 -10 -90.5 -22 -121.5 -36s-64.167 -37.667 -99.5 -71l-17 -17.5c-6.66699 -7 -13.334 -12.667 -20.001 -17s-13.334 -6.5 -20.001 -6.5c-19.333 0 -29 9 -29 27c0 7.33301 4 24.333 12 51
c30.667 104.667 51.334 162 62.001 172c13.333 12 40.666 18 81.999 18h780z" />
    <glyph glyph-name="bracketleft" unicode="[" horiz-adv-x="492" 
d="M436 1381c6.66699 31.333 12.501 52.332 17.501 62.999s13.5 17.334 25.5 20.001c12 3.33301 34 5 66 5h127c56 0 84 -15.667 84 -47c-3.33301 -15.333 -10.5 -26 -21.5 -32s-27.5 -12.667 -49.5 -20c-44 -14.667 -74.833 -28.834 -92.5 -42.501
s-29.334 -28.667 -35.001 -45s-14.5 -52.5 -26.5 -108.5l-268 -1264c-12.667 -56 -19 -91.667 -19 -107c0 -18.667 5.66699 -34.334 17 -47.001c11.333 -12 31.666 -24.333 60.999 -37c4 -1.33301 10.333 -3.66602 19 -6.99902s15.834 -6.66602 21.501 -9.99902
s10.667 -8.33301 15 -15s6.5 -14.334 6.5 -23.001c-5.33301 -21.333 -17.333 -34.833 -36 -40.5s-41.667 -8.5 -69 -8.5h-127c-34 0 -56.333 1.33301 -67 4c-10 2 -15 9.33301 -15 22c0 10.667 3.66699 31.334 11 62.001z" />
    <glyph glyph-name="backslash" unicode="\" 
d="M499 1469h146l297 -1551h-141z" />
    <glyph glyph-name="bracketright" unicode="]" horiz-adv-x="492" 
d="M78 -385c-24.667 0 -44.8359 2.83398 -60.5029 8.50098s-23.5 19.167 -23.5 40.5c2.66699 16 9.83398 26.667 21.501 32s31.834 13 60.501 23c39.333 13.333 67.5 27.333 84.5 42s28 29.5 33 44.5s12.833 49.833 23.5 104.5l269 1264c13.333 69.333 20 106 20 110
c0 20 -6.33301 36.167 -19 48.5s-35.667 24.833 -69 37.5c-20 8.66699 -33.667 15.667 -41 21c-6.66699 4.66699 -10 15 -10 31c4.66699 20 15.334 32.667 32.001 38c16 6 40 9 72 9h127c34.667 0 57 -1.33301 67 -4s15 -10.334 15 -23.001c0 -10 -3.33301 -30.333 -10 -61
l-356 -1678c-6.66699 -30.667 -12.667 -51.5 -18 -62.5s-14 -18 -26 -21s-33.667 -4.5 -65 -4.5h-127z" />
    <glyph glyph-name="asciicircum" unicode="^" horiz-adv-x="1352" 
d="M315 492l619 925h119l229 -925h-131l-192 774l-514 -774h-130z" />
    <glyph glyph-name="underscore" unicode="_" horiz-adv-x="1024" 
d="M989 -241l-20 -101h-1025l21 101h1024z" />
    <glyph glyph-name="grave" unicode="`" horiz-adv-x="656" 
d="M561 1329c50 0 80.3311 -3.33496 90.998 -10.002c7.33301 -3.33301 14 -19.666 20 -48.999l64 -184c5.33301 -16 8 -34.667 8 -56c-0.666992 -9.33301 -5.33398 -16.666 -14.001 -21.999c-8 -5.33301 -17 -8 -27 -8c-7.33301 0 -14.166 2.33301 -20.499 7
s-12.166 10 -17.499 16c-4.66699 6 -10 12 -16 18l-169 209c-23.333 27.333 -35 47 -35 59c4.66699 18 18.334 27 41.001 27z" />
    <glyph glyph-name="a" unicode="a" horiz-adv-x="1024" 
d="M932 170c-10.667 -60 -16.002 -94.665 -16.002 -103.998c0 -10 1.33301 -19 4 -27c6 -13.333 21 -24.333 45 -33c23.333 -6.66699 35 -21 35 -43c-7.33301 -30.667 -38 -46 -92 -46h-91c-43.333 0 -65 14 -65 42c0 6.66699 4 30 12 70l12 51
c-108.667 -128.667 -236.334 -193 -383.001 -193c-83.333 0 -152.666 20 -207.999 60c-56.667 40 -85 96.667 -85 170c0 19.333 2 40.333 6 63c26.667 120 105.334 216.333 236.001 289c111.333 62.667 242.333 94 393 94l123 -6c0 81.333 -21.167 142.666 -63.5 183.999
s-98.166 62 -167.499 62c-38 0 -70 -4 -96 -12s-59 -22.333 -99 -43l-28.5 -16c-14.333 -8 -27.166 -14 -38.499 -18c-11.333 -3.33301 -22.333 -5 -33 -5c-32 0 -48 17 -48 51c6 28 39.667 57.333 101 88c83.333 35.333 170.666 53 261.999 53c124.667 0 221 -32 289 -96
c52 -50.667 78 -115.334 78 -194.001c0 -33.333 -4 -70.333 -12 -111zM749.998 471.002c-64 0 -130 -9.16699 -198 -27.5s-128.167 -48.5 -180.5 -90.5s-85.5 -96 -99.5 -162c-2.66699 -11.333 -4 -26.333 -4 -45c0 -35.333 10.333 -64 31 -86
c34.667 -38.667 79.667 -58 135 -58c90 0 171.333 26 244 78c38 28 66.333 59 85 93c18 34.667 32.667 76.667 44 126l35 166z" />
    <glyph glyph-name="b" unicode="b" horiz-adv-x="1065" 
d="M408 1241c2.66699 14 3.99902 23.002 3.99902 27.002c0 18.667 -4.66699 31.5 -14 38.5s-25.333 15.167 -48 24.5c-17.333 6 -26 16.333 -26 31c1.33301 10.667 5.83301 18.5 13.5 23.5s19.5 11.5 35.5 19.5c21.333 11.333 54 24.666 98 39.999c43.333 16 74 24 92 24
c24.667 0 37 -13 37 -39c0 -12.667 -2.66699 -28.334 -8 -47.001l-137 -643c112.667 107.333 233.334 161 362.001 161c72 0 131.667 -14.333 179 -43c48 -28.667 83 -68 105 -118c22.667 -50.667 34 -108 34 -172c0 -43.333 -5.33301 -90.666 -16 -141.999
c-35.333 -157.333 -104.333 -283 -207 -377c-37.333 -33.333 -79 -62.333 -125 -87s-92.833 -43.334 -140.5 -56.001s-94.5 -19 -140.5 -19c-140.667 0 -235 42.667 -283 128c-20 34.667 -30 81 -30 139c0 54 8.66699 119.333 26 196zM372.999 350.002
c-15.333 -76.667 -23 -129.001 -23 -157.001c0 -34.667 6.33301 -66.667 19 -96c16 -35.333 40.833 -63.166 74.5 -83.499s71.5 -30.5 113.5 -30.5c68 0 129 19.333 183 58c54 39.333 98 89.333 132 150c34.667 60.667 59 124 73 190c8 38.667 12 81 12 127
c0 58.667 -7 107.334 -21 146.001c-12.667 40 -34.334 74 -65.001 102c-30 27.333 -66.333 41 -109 41c-37.333 0 -76.666 -8.33301 -117.999 -25s-80.833 -38.834 -118.5 -66.501s-70.167 -57.167 -97.5 -88.5z" />
    <glyph glyph-name="c" unicode="c" horiz-adv-x="942" 
d="M703 801c-43.333 0 -87.1631 -12.6719 -131.496 -38.0049s-81.833 -57.666 -112.5 -96.999c-67.333 -79.333 -113.666 -179 -138.999 -299c-7.33301 -36 -11 -66.667 -11 -92c0 -78 21.5 -142.333 64.5 -193s104.167 -76 183.5 -76c48 0 97.167 9.83301 147.5 29.5
s94.166 47.5 131.499 83.5c31.333 31.333 56.666 47 75.999 47c17.333 0 26 -12.333 26 -37c-6 -32 -41.333 -73 -106 -123c-106 -79.333 -214.667 -119 -326 -119c-77.333 0 -143.5 15.167 -198.5 45.5s-96.167 72.833 -123.5 127.5c-28.667 54 -43 116.667 -43 188
c0 32.667 4.66699 74.334 14 125.001c15.333 70.667 42.166 138.334 80.499 203.001s84.833 121.334 139.5 170.001c55.333 48.667 116.166 86.667 182.499 114s135.833 41 208.5 41c85.333 0 155.666 -22.333 210.999 -67c36.667 -27.333 55 -69 55 -125
c-4 -20 -14.667 -38.333 -32 -55s-35.333 -25 -54 -25c-14.667 0 -26 2.33301 -34 7c-8.66699 5.33301 -15.667 12.333 -21 21l-20 33c-22 40.667 -44 69.334 -66 86.001s-56 25 -102 25z" />
    <glyph glyph-name="d" unicode="d" horiz-adv-x="1065" 
d="M1051 1270c0 19.333 -4.83105 32.668 -14.498 40.001s-24.834 14.333 -45.501 21c-17.333 8.66699 -26 19.667 -26 33c3.33301 14.667 20.333 29 51 43c24 12 56.5 25.333 97.5 40s70.5 22 88.5 22c23.333 0 35 -11 35 -33c0 -10.667 -2.66699 -27 -8 -49l-276 -1307
c0 -30.667 8 -50.334 24 -59.001l21 -13c17.333 -10.667 26 -25 26 -43c-3.33301 -20.667 -11 -33.834 -23 -39.501s-33.667 -8.5 -65 -8.5h-129c-12 0 -18 10 -18 30c0 12 4.66699 44.667 14 98c-102.667 -105.333 -217.334 -158 -344.001 -158
c-110 0 -195.333 34.667 -256 104c-60 70 -90 158.333 -90 265c0 39.333 4.33301 79 13 119c20 92.667 58 179.334 114 260.001c56.667 80 126.167 144.333 208.5 193s169.833 73 262.5 73c50.667 0 93.5 -6.83301 128.5 -20.5s73.5 -36.167 115.5 -67.5zM934.002 715.002
c-52 32.667 -92.166 55.168 -120.499 67.501s-65.833 18.5 -112.5 18.5c-67.333 0 -129.5 -19.333 -186.5 -58s-104.167 -88.834 -141.5 -150.501s-63 -125.167 -77 -190.5c-10 -41.333 -15 -85 -15 -131c0 -80 19.667 -144.5 59 -193.5s101 -73.5 185 -73.5
c37.333 0 78.166 7.83301 122.499 23.5s82.5 36.5 114.5 62.5c22 17.333 36.333 33 43 47c6.66699 14.667 13.667 36.667 21 66z" />
    <glyph glyph-name="e" unicode="e" horiz-adv-x="1024" 
d="M307 275c0 -82.667 26.3311 -148.5 78.998 -197.5s120.667 -73.5 204 -73.5c66 0 123 11.833 171 35.5s93.333 52.334 136 86.001s70 50.5 82 50.5c20.667 0 31 -12 31 -36c-5.33301 -25.333 -25 -53 -59 -83c-34 -29.333 -68.333 -54.666 -103 -75.999
c-108 -62.667 -213 -94 -315 -94c-77.333 0 -146 15.167 -206 45.5s-106.667 73.166 -140 128.499s-50 119 -50 191c0 38 3.66699 72.333 11 103c20.667 98 64.334 189.167 131.001 273.5s146.667 150.833 240 199.5s189.333 73 288 73
c84.667 0 150.334 -17.667 197.001 -53c58.667 -40.667 88 -95.334 88 -164.001c0 -18.667 -1.33301 -33 -4 -43c-26 -124 -127.667 -217.333 -305 -280c-33.333 -12 -67.5 -22.333 -102.5 -31s-70.833 -16 -107.5 -22s-78 -11.667 -124 -17s-79.667 -9.33301 -101 -12z
M317.998 363c94 8.66699 179.667 20.6689 257 36.002c78 14.667 152 42 222 82c70.667 40 113 94.667 127 164c2.66699 10 4 23 4 39c0 39.333 -13.833 68.666 -41.5 87.999s-64.5 29 -110.5 29c-60.667 0 -116.667 -11.5 -168 -34.5s-97 -55 -137 -96
s-73.167 -87.833 -99.5 -140.5s-45.5 -108.334 -57.5 -167.001h4z" />
    <glyph glyph-name="f" unicode="f" horiz-adv-x="615" 
d="M408 172l-6 -34.9971c-2.66699 -15.333 -5 -31.5 -7 -48.5s-3 -33.5 -3 -49.5c1.33301 -4.66699 4.33301 -8.83398 9 -12.501s10.334 -7.16699 17.001 -10.5s11.667 -6 15 -8c22 -7.33301 33 -21.666 33 -42.999c-8 -31.333 -34.333 -47 -79 -47h-233
c-16.667 0 -28 2.66699 -34 8s-9 18.333 -9 39c3.33301 18 17.666 31.667 42.999 41l35 15c20.667 10 34.667 26.5 42 49.5s15.333 56.833 24 101.5l131 616h-50c-26 0 -45.5 1.16699 -58.5 3.5s-22.5 7 -28.5 14s-9 18.5 -9 34.5c6.66699 32.667 30.667 49 72 49
c4.66699 0 12 -0.333008 22 -1s17 -1 21 -1h53l21.5 97c8.33301 38 17.166 74.333 26.499 109s19 66.5 29 95.5s22.333 58.167 37 87.5c34 64.667 76.667 119.334 128 164.001c52 45.333 108.333 68 169 68c30 0 54.667 -9 74 -27s29 -44.667 29 -80
c-4 -20.667 -15 -38.834 -33 -54.501s-37 -23.5 -57 -23.5c-7.33301 0 -17.666 5.66699 -30.999 17c-24.667 20 -43 30 -55 30c-39.333 0 -68.333 -24.833 -87 -74.5s-34.667 -108.834 -48 -177.501l-49 -231h121c30.667 0 51 -2.83301 61 -8.5s15 -19.834 15 -42.501
c-4.66699 -20.667 -15.167 -33.834 -31.5 -39.501s-37.5 -8.5 -63.5 -8.5h-125z" />
    <glyph glyph-name="g" unicode="g" horiz-adv-x="1065" 
d="M977 781c56 -74 84.002 -156 84.002 -246c0 -39.333 -3.33301 -74.333 -10 -105c-14.667 -72.667 -45 -141.167 -91 -205.5s-102.333 -119.166 -169 -164.499c50 -20.667 91.5 -49.334 124.5 -86.001s49.5 -80 49.5 -130c0 -19.333 -1.33301 -33.666 -4 -42.999
c-16 -78 -57.333 -139.333 -124 -184s-141.334 -75.334 -224.001 -92.001s-164 -25 -244 -25c-44.667 0 -94.334 4 -149.001 12s-103.334 24 -146.001 48s-64 58 -64 102c7.33301 28.667 26.5 60 57.5 94s59.833 51 86.5 51c12 0 18 -10 18 -30
c-1.33301 -6.66699 -3.33301 -14.334 -6 -23.001c-2.66699 -8 -5.66699 -17.667 -9 -29c0 -43.333 29.333 -72.5 88 -87.5s117.667 -22.5 177 -22.5c221.333 0 345 60.667 371 182c2.66699 19.333 4 32.333 4 39c0 36.667 -12.167 66 -36.5 88s-58.5 44.667 -102.5 68
c-58 -19.333 -112.667 -29 -164 -29c-112 0 -199.167 31 -261.5 93s-93.5 144.333 -93.5 247c0 38.667 4 78.334 12 119.001c20 92.667 58 175.334 114 248.001c55.333 73.333 123.333 130.166 204 170.499s167.334 60.5 260.001 60.5c100.667 -9.33301 225.667 -14 375 -14
c32 0 56 -3.16699 72 -9.5s24 -21.5 24 -45.5c-8 -36 -42 -54 -102 -54c-8.66699 0 -18.667 0.5 -30 1.5s-20.333 1.5 -27 1.5h-64zM889.002 443c8 38.667 11.999 76.667 11.999 114c0 72.667 -17.5 132.167 -52.5 178.5s-89.833 69.5 -164.5 69.5
c-62.667 0 -119.5 -18.667 -170.5 -56s-92.833 -85 -125.5 -143c-33.333 -57.333 -56.666 -117.333 -69.999 -180c-8.66699 -34 -13 -70 -13 -108c0 -70 17 -128.333 51 -175c33.333 -46 84.666 -69 153.999 -69c68.667 0 129.334 17 182.001 51
c52 32.667 94.333 77 127 133s56 117.667 70 185z" />
    <glyph glyph-name="h" unicode="h" horiz-adv-x="1147" 
d="M1047 170c-0.666992 -4.66699 -3.49902 -19.834 -8.49902 -45.501s-7.5 -45.167 -7.5 -58.5c0 -10 1.33301 -19 4 -27c4 -10.667 17.667 -21 41 -31c22 -7.33301 33 -21.666 33 -42.999c-3.33301 -14.667 -11.333 -26.334 -24 -35.001c-12.667 -8 -26 -12 -40 -12h-224
c-26.667 0 -44.334 2.66699 -53.001 8c-8 5.33301 -12 18.333 -12 39c3.33301 15.333 17 29 41 41l23 11l29 18c12.667 14.667 27.667 59.667 45 135l86 404c4 18 6 35 6 51c0 49.333 -17.333 89 -52 119c-34 29.333 -81.667 44 -143 44c-60 0 -114.5 -10.333 -163.5 -31
s-101.833 -53.667 -158.5 -99l-104 -488c-0.666992 -4.66699 -3.5 -19.834 -8.5 -45.501s-7.5 -45.167 -7.5 -58.5c0 -10.667 1.33301 -19.667 4 -27c3.33301 -10.667 17.666 -21 42.999 -31c23.333 -7.33301 35 -21.666 35 -42.999c-6.66699 -31.333 -28 -47 -64 -47h-240
c-28 0 -46.167 2.66699 -54.5 8s-12.5 18.333 -12.5 39c2.66699 17.333 17.667 31 45 41c28.667 8.66699 49.334 18.334 62.001 29.001c16 18.667 31 63.667 45 135l229 1077c0 28.667 -4.33301 47.834 -13 57.501s-22.667 18.5 -42 26.5c-18 5.33301 -27 15.666 -27 30.999
c2 11.333 6.5 19.333 13.5 24s18.833 11 35.5 19c22 11.333 54.333 24.833 97 40.5s73 23.5 91 23.5c24 0 36 -11 36 -33c0 -10.667 -3 -27.667 -9 -51l-131 -617c55.333 43.333 114 76.333 176 99s124 34 186 34c50.667 0 97.167 -9.33301 139.5 -28s76.5 -46 102.5 -82
c27.333 -40 41 -88.667 41 -146c0 -34.667 -6 -81 -18 -139z" />
    <glyph glyph-name="i" unicode="i" horiz-adv-x="492" 
d="M384 1172c7.33301 32 24 58.333 50 79c26.667 20.667 56 31 88 31c59.333 0 89 -35.333 89 -106c-8 -36 -25.667 -64.667 -53 -86c-26.667 -21.333 -57.667 -32 -93 -32c-54 0 -81 38 -81 114zM142 -82c-40 0 -59.9961 15 -59.9961 45c3.33301 20.667 19 35 47 43
c31.333 8.66699 53.666 22.334 66.999 41.001s24.666 49.667 33.999 93l92 432c9.33301 62.667 14 95.334 14 98.001c0 33.333 -21.667 55 -65 65c-24.667 6 -37 18.333 -37 37c2 12.667 8 22.334 18 29.001c18.667 15.333 65 37.333 139 66
c13.333 5.33301 25.666 10.666 36.999 15.999s21.333 9.66602 30 12.999s16.667 5 24 5c26 0 39 -17 39 -51c0 -4.66699 -0.333008 -12 -1 -22s-1 -17 -1 -21c-2 -34 -15.667 -109.667 -41 -227l-88 -410c-1.33301 -7.33301 -3.5 -18.5 -6.5 -33.5s-5.5 -31.167 -7.5 -48.5
c-2 -16.667 -3 -33 -3 -49c4 -10.667 18.333 -21 43 -31c23.333 -6.66699 35 -21.667 35 -45c-4.66699 -18.667 -13.334 -30.834 -26.001 -36.501s-30 -8.5 -52 -8.5h-231z" />
    <glyph glyph-name="j" unicode="j" horiz-adv-x="451" 
d="M382 1172c7.33301 32.667 24 59.167 50 79.5s55.333 30.5 88 30.5c59.333 0 89 -35.333 89 -106c-8 -36 -25.667 -64.667 -53 -86c-26.667 -21.333 -57.667 -32 -93 -32c-54 0 -81 38 -81 114zM379 109c-38 -178 -84.3311 -308.667 -138.998 -392
c-34.667 -54.667 -80 -105 -136 -151c-55.333 -45.333 -108.666 -68 -159.999 -68c-20.667 0 -38.667 6.33301 -54 19c-15.333 13.333 -23 32.333 -23 57c4.66699 23.333 17 42.833 37 58.5s42.333 23.5 67 23.5c12.667 0 27.167 -2.83301 43.5 -8.5s27.833 -8.5 34.5 -8.5
c33.333 0 57.666 15.833 72.999 47.5s30 80.167 44 145.5l162 760c0.666992 7.33301 2.66699 19.333 6 36s5 30 5 40c0 19.333 -2 32.333 -6 39c-8 12.667 -28 22 -60 28c-24.667 6 -37 19 -37 39c1.33301 10.667 7.33301 20.334 18 29.001
c9.33301 6.66699 56.666 28.667 141.999 66c8 2.66699 18.667 7.16699 32 13.5s24.333 11.166 33 14.499c9.33301 2.66699 17.666 4 24.999 4c26 0 39 -17.667 39 -53c-3.33301 -52.667 -18.333 -142 -45 -268z" />
    <glyph glyph-name="k" unicode="k" horiz-adv-x="1024" 
d="M752 539l-31.001 -27.0078c32.667 -38 64.667 -81.333 96 -130s59.333 -98 84 -148s48 -104 70 -162c5.33301 -18 10.833 -30.667 16.5 -38s15.834 -15.333 30.501 -24c18 -10 27 -25.667 27 -47c-4.66699 -19.333 -11.334 -31.666 -20.001 -36.999
c-8 -5.33301 -22 -8 -42 -8h-233c-32.667 0 -49 13.667 -49 41c2.66699 14 10.334 24.667 23.001 32c12.667 8 25.667 15.667 39 23s21.333 17 24 29c0 33.333 -11.667 75.333 -35 126s-50.333 99.334 -81 146.001s-56.334 81.667 -77.001 105l-207 -143l-23 -105
c-0.666992 -6 -3.66699 -21.667 -9 -47c-4.66699 -24.667 -7 -43.667 -7 -57c0 -10.667 1.33301 -19.667 4 -27c4 -12 18.333 -22.333 43 -31c18 -10 27 -25 27 -45c-3.33301 -14 -10.666 -25.333 -21.999 -34c-12.667 -8.66699 -26.334 -13 -41.001 -13h-236
c-19.333 0 -34.166 3 -44.499 9s-15.5 18.667 -15.5 38c3.33301 18 18.333 32.333 45 43c30.667 8.66699 50.667 18.334 60 29.001c14.667 14.667 29 59.667 43 135l213 1000c10.667 50.667 16 81.334 16 92.001c0 30.667 -17.667 53 -53 67
c-19.333 8.66699 -29 19.667 -29 33c2.66699 11.333 8 19.333 16 24c8 5.33301 20.333 11.666 37 18.999c86.667 41.333 148.334 62 185.001 62c23.333 0 35 -11 35 -33c0 -9.33301 -2.66699 -25.666 -8 -48.999l-210 -991l123 82.5c40 27.667 84.667 60.334 134 98.001
s91.666 73.834 126.999 108.501s55 62.334 59 83.001c0 20.667 -6.66699 36.334 -20 47.001c-14 12 -21 25.667 -21 41c4.66699 20.667 24 31 58 31h239c30 0 45 -11 45 -33c-4 -22.667 -23 -40.334 -57 -53.001c-20.667 -8 -41 -17.667 -61 -29
c-19.333 -11.333 -36.333 -22.666 -51 -33.999s-31.667 -25.5 -51 -42.5l-60 -52.5z" />
    <glyph glyph-name="l" unicode="l" horiz-adv-x="451" 
d="M435 1250c0 42.667 -17.665 69.668 -52.998 81.001c-18 6.66699 -27 17 -27 31c1.33301 8 4.5 14.333 9.5 19s11.333 9 19 13l20.5 11c93.333 42.667 156 64 188 64c23.333 0 35 -10.333 35 -31c0 -6.66699 -3.33301 -23.667 -10 -51l-258 -1217
c-9.33301 -56 -14 -92.667 -14 -110c0 -13.333 0.833008 -22.333 2.5 -27s7.5 -9.33398 17.5 -14.001l21 -13c18.667 -10.667 28 -25 28 -43c-4.66699 -20 -11.167 -32.5 -19.5 -37.5s-23.833 -7.5 -46.5 -7.5h-237c-16.667 0 -28.334 2.5 -35.001 7.5s-10 17.5 -10 37.5
c3.33301 16 17.666 30.333 42.999 43l41 19c18 11.333 30.167 28.833 36.5 52.5s12.833 54.5 19.5 92.5z" />
    <glyph glyph-name="m" unicode="m" horiz-adv-x="1721" 
d="M1608 66c0 -14.667 2.33691 -24.6602 7.00391 -29.9932c4 -4.66699 11.333 -9.66699 22 -15l19 -13c18.667 -10.667 28 -25 28 -43c-4.66699 -20 -11.334 -33 -20.001 -39c-8.66699 -5.33301 -24 -8 -46 -8h-221c-23.333 0 -39.333 2.66699 -48 8s-13 18.333 -13 39
c2.66699 16 17 29.667 43 41l33.5 12.5c10.333 3.66699 19.333 9.16699 27 16.5s12.834 17.666 15.501 30.999l96 448c10.667 69.333 16 109.666 16 120.999c0 26 -2 44.333 -6 55c-8.66699 32 -26.334 56.333 -53.001 73s-59 25 -97 25
c-40.667 0 -84.834 -8.66699 -132.501 -26s-89.667 -43.166 -126 -77.499s-59.166 -74.166 -68.499 -119.499l-106 -499c0 -13.333 1.83301 -23.333 5.5 -30s9.5 -12 17.5 -16c7.33301 -3.33301 15.333 -7.33301 24 -12c18.667 -10.667 28 -25 28 -43
c-4.66699 -20.667 -11.334 -33.667 -20.001 -39c-8 -5.33301 -24 -8 -48 -8h-223c-21.333 0 -36.166 2.66699 -44.499 8s-12.5 18.333 -12.5 39c2.66699 15.333 16.334 29 41.001 41c3.33301 2 12 5.33301 26 10s25.333 10.667 34 18c9.33301 7.33301 15.333 18 18 32
l92 428c11.333 49.333 17 93.666 17 132.999c0 107.333 -53.667 161 -161 161c-38 0 -80.333 -8.83301 -127 -26.5s-87.834 -43.334 -123.501 -77.001s-58.5 -73.5 -68.5 -119.5l-107 -499c0 -13.333 2.66699 -23.666 8 -30.999s12.166 -12.666 20.499 -15.999
s16.833 -7 25.5 -11c20 -6.66699 30 -21 30 -43c-4.66699 -19.333 -13.167 -32 -25.5 -38s-28.833 -9 -49.5 -9h-211c-25.333 0 -43 2.66699 -53 8c-10 6 -15 19 -15 39c3.33301 16 17 29 41 39c4.66699 2 11.667 4.66699 21 8s17.833 7.16602 25.5 11.499
s13.834 10.166 18.501 17.499c5.33301 6.66699 9 15 11 25l108 504c10 48.667 15 80.667 15 96c0 37.333 -15.667 61.333 -47 72l-18 6.5c-6.66699 2.33301 -11.834 5.66602 -15.501 9.99902s-5.5 10.166 -5.5 17.499c1.33301 7.33301 4.66602 14 9.99902 20
c4.66699 6.66699 10 12.334 16 17.001c6 5.33301 14 11.666 24 18.999s17.667 12.666 23 15.999c28 19.333 50.167 33.666 66.5 42.999s32.5 14 48.5 14c30 0 45 -34 45 -102c0 -40.667 -0.666992 -66.667 -2 -78c113.333 120 237 180 371 180
c124.667 0 210.667 -60 258 -180c51.333 56 110.166 100 176.499 132s132.5 48 198.5 48c102 0 176.333 -35.333 223 -106c22 -32.667 33 -77.667 33 -135c0 -40.667 -6 -91.334 -18 -152.001z" />
    <glyph glyph-name="n" unicode="n" horiz-adv-x="1147" 
d="M1029 66c0 -13.333 2.99902 -23.832 8.99902 -31.499s14.667 -13.834 26 -18.501c10 -4.66699 15.333 -7.33398 16 -8.00098c18.667 -10.667 28 -25 28 -43c-2.66699 -14 -10 -25.333 -22 -34s-25 -13 -39 -13h-226c-28 0 -46.167 2.66699 -54.5 8s-12.5 18.333 -12.5 39
c3.33301 18 17.666 31.667 42.999 41c4.66699 2 13.667 5 27 9c12.667 4.66699 23.667 10.834 33 18.501s15.333 18.5 18 32.5l113 530c4 20 6 37.667 6 53c0 92.667 -67.667 139 -203 139c-84.667 0 -166 -28.333 -244 -85c-33.333 -26 -56.333 -52.333 -69 -79
s-25 -65.334 -37 -116.001l-95 -442c0 -13.333 3 -24 9 -32c5.33301 -7.33301 11 -12.333 17 -15s14.667 -6.33398 26 -11.001c21.333 -7.33301 32 -21.666 32 -42.999c-2.66699 -14 -10 -25.333 -22 -34s-25.667 -13 -41 -13h-227c-29.333 0 -48.666 2.66699 -57.999 8
s-14 18.333 -14 39c2.66699 17.333 17.667 31 45 41l28 9c12.667 4 23.667 10 33 18s15.666 19 18.999 33l112 528c8.66699 34 13 59.333 13 76c0 33.333 -15.667 55 -47 65c-16 7.33301 -26.667 12.666 -32 15.999c-4.66699 3.33301 -7 10.333 -7 21
c3.33301 19.333 25 42 65 68c12.667 8.66699 26 17.334 40 26.001c13.333 9.33301 26.833 17.5 40.5 24.5s25.834 10.5 36.501 10.5c34 0 51 -34 51 -102c0 -10.667 -0.333008 -24.667 -1 -42s-1 -28.666 -1 -33.999c62 62 124.333 107.167 187 135.5
s134.334 42.5 215.001 42.5c116.667 0 197.667 -34 243 -102c23.333 -32 35 -77 35 -135c0 -40.667 -6.66699 -94.667 -20 -162z" />
    <glyph glyph-name="o" unicode="o" horiz-adv-x="1147" 
d="M1186 402c-20 -95.333 -61.1709 -182.501 -123.504 -261.501s-137.833 -141.167 -226.5 -186.5c-89.333 -44.667 -181.666 -67 -276.999 -67c-78 0 -148.333 17.667 -211 53c-62 34.667 -110.333 82.667 -145 144c-34 60.667 -51 128.334 -51 203.001
c0 35.333 4.33301 70.666 13 105.999c18.667 90 59.834 174.333 123.501 253s139.834 140.834 228.501 186.501s178 68.5 268 68.5c78.667 0 149.334 -17 212.001 -51s111.667 -81.333 147 -142c34.667 -60 52 -128 52 -204c0 -39.333 -3.33301 -73.333 -10 -102z
M876.996 120.999c74 75.333 122.334 169.668 145.001 283.001c8 36.667 12 72.667 12 108c0 55.333 -10 104.833 -30 148.5s-50.667 78 -92 103s-92 37.5 -152 37.5c-75.333 0 -143.333 -19.333 -204 -58c-60 -38.667 -109.333 -89.667 -148 -153
c-38.667 -62.667 -66 -131 -82 -205c-8 -38.667 -12 -75.334 -12 -110.001c0 -85.333 22.333 -154.333 67 -207c45.333 -54 112.333 -81 201 -81c109.333 0 207.666 44.667 294.999 134z" />
    <glyph glyph-name="p" unicode="p" horiz-adv-x="1188" 
d="M316 -234c-0.666992 -4.66699 -3.66504 -19.8311 -8.99805 -45.498s-8 -45.167 -8 -58.5c0 -10 1.33301 -19 4 -27c3.33301 -9.33301 17 -20.333 41 -33c20.667 -7.33301 31 -21.666 31 -42.999c-3.33301 -18 -9.66602 -29.667 -18.999 -35
c-8.66699 -5.33301 -22.667 -8 -42 -8h-246c-18 0 -30.333 2.33301 -37 7s-10 16.667 -10 36c2.66699 16.667 16.334 31 41.001 43c44 0 76 48 96 144l176 832c10.667 41.333 16 73.333 16 96c0 45.333 -21.667 70.666 -65 75.999c-6 0.666992 -13.167 2 -21.5 4
s-15 5.33301 -20 10s-7.5 11.667 -7.5 21c4.66699 24 33 49.333 85 76s91.333 40 118 40c37.333 0 59.333 -14.333 66 -43c7.33301 -28.667 11.666 -73 12.999 -133c64 58.667 125.5 102.667 184.5 132s123.167 44 192.5 44c126.667 0 223 -48.333 289 -145
c38 -57.333 57 -128.333 57 -213c0 -46.667 -4.66699 -91 -14 -133c-34 -153.333 -98.333 -273.666 -193 -360.999c-54.667 -50.667 -117.5 -90.334 -188.5 -119.001s-139.833 -43 -206.5 -43c-38.667 0 -83.834 9.33301 -135.501 28s-77.5 45 -77.5 79
c2 11.333 7.66699 22 17 32s19.333 15 30 15c14 0 27 -4.66699 39 -14c44 -23.333 98 -35 162 -35c42 0 85.833 11.167 131.5 33.5s84.5 50.833 116.5 85.5c67.333 74.667 113 168.667 137 282c9.33301 42.667 14 86.667 14 132c0 77.333 -18.333 139.5 -55 186.5
s-95.334 70.5 -176.001 70.5c-84.667 0 -163.334 -26.667 -236.001 -80c-40.667 -30.667 -71.5 -64.334 -92.5 -101.001s-37.167 -81.334 -48.5 -134.001z" />
    <glyph glyph-name="q" unicode="q" horiz-adv-x="1065" 
d="M910 -234c0 -0.666992 -2 -10.332 -6 -28.999c-4 -18 -6.83301 -32.833 -8.5 -44.5s-2.5 -21.834 -2.5 -30.501c0 -10 1.33301 -19 4 -27c3.33301 -9.33301 17 -20.333 41 -33c20.667 -7.33301 31 -21.666 31 -42.999c-4 -18.667 -9.5 -30.5 -16.5 -35.5
s-19.833 -7.5 -38.5 -7.5h-250c-16.667 0 -28.334 2.5 -35.001 7.5s-10 16.833 -10 35.5c2 14.667 15 28.334 39 41.001c26 2 45.333 13.667 58 35c13.333 21.333 24 51.333 32 90l69 324c-50 -50 -106.5 -89.5 -169.5 -118.5s-125.833 -43.5 -188.5 -43.5
c-74 0 -136.833 16.167 -188.5 48.5s-90.5 76.166 -116.5 131.499s-39 117.666 -39 186.999c0 38 4.33301 78.333 13 121c20.667 94 59.667 181.333 117 262c58 80 129.167 144 213.5 192s173.833 72 268.5 72c104.667 0 189.334 -28.667 254.001 -86
c6.66699 4 21 14.833 43 32.5s40.667 31 56 40s29 13.5 41 13.5c13.333 0 20 -8.66699 20 -26c0 -10.667 -2 -28.667 -6 -54zM918 525.002c6.66699 34 9.99902 63.333 9.99902 88c0 48 -13 87.333 -39 118c-39.333 48 -96.666 72 -171.999 72s-142.666 -19.667 -201.999 -59
c-58.667 -39.333 -106.334 -91.333 -143.001 -156c-36 -64 -62 -133.667 -78 -209c-8.66699 -36 -13 -71.333 -13 -106c0 -79.333 20.333 -144 61 -194c41.333 -50 102.333 -75 183 -75c84.667 0 165.667 28 243 84c31.333 24 52 47 62 69c10.667 22 20.667 56.333 30 103z
" />
    <glyph glyph-name="r" unicode="r" horiz-adv-x="738" 
d="M375 86c0 -27.333 4.00293 -44.998 12.0029 -52.998s19.667 -15.667 35 -23c18 -8.66699 27 -23 27 -43c-4.66699 -20 -13.334 -33.333 -26.001 -40c-13.333 -6 -30.666 -9 -51.999 -9h-219c-18.667 0 -33.334 3 -44.001 9s-16 19.333 -16 40
c3.33301 16 17.666 29.667 42.999 41c16 4.66699 28.333 8.66699 37 12s18 10.333 28 21c10.667 10.667 17.667 25.667 21 45l105 492c2.66699 9.33301 4 23 4 41c0 27.333 -6 50.333 -18 69c-11.333 18.667 -25 31.667 -41 39c-14 7.33301 -24 13.333 -30 18
c-6 5.33301 -9 13.666 -9 24.999c5.33301 22 28.333 45.333 69 70c61.333 40.667 103.666 61 126.999 61c37.333 0 57.333 -49.667 60 -149c0 -42.667 -1.33301 -79 -4 -109c37.333 60 88.666 118 153.999 174s123.666 84 174.999 84c63.333 0 95 -28.667 95 -86
c0 -4 -1.33301 -17 -4 -39c-4.66699 -18.667 -12.5 -35.834 -23.5 -51.501s-24.5 -23.5 -40.5 -23.5c-10 0 -28 7 -54 21c-25.333 14.667 -45.666 22 -60.999 22c-47.333 0 -106.666 -42.333 -177.999 -127c-53.333 -68 -88 -140.333 -104 -217z" />
    <glyph glyph-name="s" unicode="s" horiz-adv-x="819" 
d="M615 486c84.667 -24.667 142.663 -53.3379 173.996 -86.0049c35.333 -38 53 -85.333 53 -142c0 -8 -1.33301 -21.667 -4 -41c-14 -66 -44.167 -124.167 -90.5 -174.5s-101.5 -88.833 -165.5 -115.5s-128.333 -40 -193 -40c-84.667 0 -159 22.667 -223 68
c-53.333 38.667 -80 88 -80 148c3.33301 13.333 11.333 26.5 24 39.5s26 19.5 40 19.5c15.333 0 27.333 -5 36 -15s18.334 -24 29.001 -42c22.667 -31.333 37 -50.666 43 -57.999s19.667 -16.333 41 -27c46.667 -23.333 91 -35 133 -35c54.667 0 107.334 15.667 158.001 47
c50 30 80.667 71.333 92 124c2.66699 16.667 4 27.667 4 33c0 44 -18.167 74.833 -54.5 92.5s-93.166 36.334 -170.499 56.001s-136.333 43.667 -177 72s-61 72.833 -61 133.5c0 8.66699 3 30.667 9 66c18.667 88.667 69.667 161.667 153 219
c71.333 48.667 155.333 73 252 73c94 0 174 -21.667 240 -65c18.667 -12.667 28 -29 28 -49c0 -12 -2 -26.333 -6 -43c-2 -11.333 -4.5 -24.166 -7.5 -38.499s-7.66699 -26.833 -14 -37.5s-14.833 -16 -25.5 -16c-14.667 0 -34 15.333 -58 46c-24.667 31.333 -51 57 -79 77
s-68.333 30 -121 30c-50.667 0 -98.167 -12.667 -142.5 -38s-71.166 -61.666 -80.499 -108.999c0 -44 12 -75.667 36 -95s57.667 -35.666 101 -48.999z" />
    <glyph glyph-name="t" unicode="t" horiz-adv-x="615" 
d="M388 176c-8 -32 -11.998 -59.9971 -11.998 -83.9971c0 -25.333 7.66699 -44 23 -56c15.333 -11.333 42 -17 80 -17c4.66699 0 13.667 0.333008 27 1s23.666 1 30.999 1c42.667 0 64 -17.333 64 -52c-3.33301 -16.667 -12.333 -29.334 -27 -38.001
s-30.334 -13 -47.001 -13h-277c-39.333 0 -59 15.667 -59 47c0 9.33301 2.66699 26.666 8 51.999l164 771h-72c-28.667 0 -49 3.66699 -61 11s-18 23.666 -18 48.999c6 26 32 39 78 39c26.667 0 48.667 3 66 9s32.666 20 45.999 42c31.333 49.333 61.333 119 90 209
c10.667 36 21.667 64.667 33 86c10.667 22 27.667 33 51 33c22 0 33 -12.333 33 -37c0 -6.66699 -1 -14.5 -3 -23.5s-3 -14.833 -3 -17.5l-64 -301h158c34.667 0 57.667 -2.66699 69 -8s17 -18.333 17 -39c-5.33301 -22.667 -16.666 -36.667 -33.999 -42
c-16.667 -6.66699 -39 -10 -67 -10h-166z" />
    <glyph glyph-name="u" unicode="u" horiz-adv-x="1065" 
d="M275 606c11.333 57.333 16.999 101.33 16.999 131.997c-1.33301 16.667 -14.333 33 -39 49c-18 8 -27 22.333 -27 43c4 17.333 31 33.5 81 48.5s87 22.5 111 22.5c37.333 0 56 -20.333 56 -61c0 -17.333 -2 -34.333 -6 -51l-111 -520c-12 -59.333 -18 -101 -18 -125
c0 -18.667 2 -35.334 6 -50.001c9.33301 -30 27.666 -53.167 54.999 -69.5s59.333 -24.5 96 -24.5c45.333 0 94 9.83301 146 29.5s96.667 46.167 134 79.5c30 26 48.667 48.833 56 68.5s16 56.167 26 109.5l75 342l9 44c4.66699 22.667 7 38.667 7 48
c0 29.333 -11.667 51.333 -35 66c-16 10 -24 22.333 -24 37c3.33301 16.667 22 32.334 56 47.001c16.667 6.66699 39.667 13.334 69 20.001s53 10 71 10c28.667 0 43 -16.333 43 -49c0 -11.333 -4 -38 -12 -80l-129 -604c-9.33301 -62 -14 -105.667 -14 -131
c4.66699 -11.333 20.334 -21.666 47.001 -30.999c22.667 -9.33301 34 -23.666 34 -42.999c-4.66699 -19.333 -11.667 -31.666 -21 -36.999c-8.66699 -6 -23 -9 -43 -9h-143c-22.667 0 -34 26.333 -34 79c0 18.667 2 39.334 6 62.001
c-56.667 -50.667 -119 -91.834 -187 -123.501s-133.667 -47.5 -197 -47.5c-46.667 0 -89.667 9.83301 -129 29.5s-68.666 47.5 -87.999 83.5c-21.333 39.333 -32 85 -32 137c0 39.333 6.33301 86.666 19 141.999z" />
    <glyph glyph-name="v" unicode="v" horiz-adv-x="942" 
d="M500 887c21.333 0 32.0029 -14.999 32.0029 -44.999c-2.66699 -14.667 -15.667 -28.334 -39 -41.001c-22.667 -12.667 -40.667 -24.667 -54 -36c-12.667 -12 -22.667 -34 -30 -66c-4 -20.667 -6 -44.667 -6 -72c0 -53.333 7.33301 -117.5 22 -192.5
s32.667 -145.667 54 -212s42.666 -116.5 63.999 -150.5c79.333 83.333 151 176 215 278c106 178.667 165.333 297 178 355c0 28.667 -1.66699 49 -5 61s-10.333 22.333 -21 31c-15.333 14.667 -23 31.667 -23 51c6 26 28.667 39 68 39h153c18 0 30.667 -2.33301 38 -7
s11 -16 11 -34c-1.33301 -6.66699 -13.333 -23.667 -36 -51c-20 -20 -33.333 -35.333 -40 -46s-18 -33 -34 -67l-62 -127c-74 -153.333 -175.667 -311.666 -305 -474.999c-22.667 -32 -56.5 -72.167 -101.5 -120.5s-79.5 -72.5 -103.5 -72.5s-50.333 29.333 -79 88
c-39.333 80 -69.666 158 -90.999 234c-20.667 76 -35.334 153.333 -44.001 232c-8 78 -13 171.333 -15 280c0 23.333 -2.66699 39.666 -8 48.999c-4.66699 9.33301 -12.5 20.666 -23.5 33.999s-16.5 26 -16.5 38c3.33301 14.667 11.166 25.834 23.499 33.501
s25.166 11.5 38.499 11.5h240z" />
    <glyph glyph-name="w" unicode="w" horiz-adv-x="1475" 
d="M1075 887c12 0 20.1689 -2.16699 24.502 -6.5s6.5 -15.166 6.5 -32.499c-3.33301 -16 -12.833 -28.667 -28.5 -38s-30.334 -19 -44.001 -29s-22.834 -27.333 -27.501 -52c-8 -38.667 -12 -81.667 -12 -129c0 -83.333 10.333 -175.666 31 -276.999
s45 -185.666 73 -252.999c41.333 43.333 88.833 106.166 142.5 188.499s100.667 165.5 141 249.5s65.833 151.667 76.5 203c3.33301 18.667 5 29.667 5 33c0 14 -2.5 25.167 -7.5 33.5s-11 15.666 -18 21.999s-13.833 13.333 -20.5 21s-10 16.167 -10 25.5
c6 27.333 28 41 66 41h153c33.333 0 50 -11.667 50 -35c-1.33301 -6.66699 -7 -16 -17 -28c-22 -25.333 -36.833 -44.333 -44.5 -57s-22.167 -41 -43.5 -85l-51 -108c-106 -214.667 -204.333 -381.334 -295 -500.001c-36.667 -50.667 -83.667 -104.667 -141 -162
c-16.667 -16.667 -34.667 -25 -54 -25c-28.667 0 -56 36 -82 108c-26 72.667 -47.333 150.667 -64 234c-16 83.333 -28 153.333 -36 210c-24.667 -44 -66.834 -111 -126.501 -201s-119.334 -171 -179.001 -243s-104.5 -108 -134.5 -108c-40 0 -80.333 83.333 -121 250
c-34 139.333 -51 290.333 -51 453c0 28.667 1.33301 71.667 4 129c0 24 -2.16699 41.167 -6.5 51.5s-10.833 23 -19.5 38s-13 27.5 -13 37.5c6 27.333 27 41 63 41h199c16 0 26.833 -2.5 32.5 -7.5s8.5 -18.167 8.5 -39.5c-3.33301 -14 -13 -25.333 -29 -34
s-31 -17.334 -45 -26.001c-13.333 -9.33301 -22.666 -25.666 -27.999 -48.999c-7.33301 -28 -11 -70.333 -11 -127c0 -50.667 5 -125.667 15 -225c11.333 -127.333 35 -230.333 71 -309c54 54 107.667 119.5 161 196.5s99.833 156 139.5 237s66.5 155.5 80.5 223.5
c0 22 -2 37.167 -6 45.5s-11.5 20.333 -22.5 36s-16.5 29.5 -16.5 41.5c4.66699 24.667 29.334 37 74.001 37h188z" />
    <glyph glyph-name="x" unicode="x" horiz-adv-x="1024" 
d="M341 668c-18.667 38 -33.6689 66.3291 -45.002 84.9961s-28.666 34.667 -51.999 48c-17.333 12 -26 29.667 -26 53c4 22 23 33 57 33h239c14.667 0 25 -2 31 -6s9 -13.667 9 -29c-2.66699 -12 -13.834 -25 -33.501 -39s-30.5 -27 -32.5 -39
c0 -16.667 5.33301 -36.667 16 -60s24.334 -48.833 41.001 -76.5s34.834 -55.5 54.501 -83.5l33.5 -48c49.333 42 101.166 90.5 155.499 145.5s84.5 95.833 90.5 122.5c0 8 -2 14.833 -6 20.5s-10 11.834 -18 18.501c-7.33301 6 -13 11.833 -17 17.5s-6 13.5 -6 23.5
c4 22 24.333 33 61 33h189c16 0 27.167 -2 33.5 -6s9.5 -13.667 9.5 -29c-2.66699 -17.333 -17 -31.666 -43 -42.999c-25.333 -12 -43 -22 -53 -30c-10.667 -7.33301 -25.667 -22 -45 -44l-301 -296l174 -273c32.667 -61.333 58 -101.666 76 -120.999
c7.33301 -10 27 -23 59 -39c16.667 -9.33301 25 -24.333 25 -45c-6.66699 -28.667 -28.667 -43 -66 -43h-246c-15.333 0 -26.333 2.33301 -33 7s-10 15.334 -10 32.001c2.66699 12 14.334 25.833 35.001 41.5s32.334 29.167 35.001 40.5c0 38.667 -50 122.667 -150 252
l-27 37c-50.667 -42.667 -104.5 -92.5 -161.5 -149.5s-88.167 -98.833 -93.5 -125.5c0 -12 2.33301 -21.667 7 -29s11.667 -15 21 -23c9.33301 -9.33301 16.166 -17 20.499 -23s6.5 -13.667 6.5 -23c-6.66699 -24.667 -28 -37 -64 -37h-231c-14 0 -23.333 2.33301 -28 7
s-7 16.667 -7 36c5.33301 19.333 21 33.666 47 42.999c32 14.667 52.667 25.334 62 32.001s27 24 53 52l320 310z" />
    <glyph glyph-name="y" unicode="y" horiz-adv-x="983" 
d="M249 695l-0.00292969 42.999c0 32.667 -8.66699 55.667 -26 69c-16 20 -24 34.333 -24 43c4.66699 24.667 25 37 61 37h217c26 0 39 -11 39 -33c-2.66699 -13.333 -14 -27.333 -34 -42s-36.333 -29 -49 -43s-23.167 -39.667 -31.5 -77s-12.5 -94 -12.5 -170
s4.33301 -147 13 -213c12.667 -74 34.334 -132 65.001 -174c31.333 -47.333 65.666 -71 102.999 -71c66.667 0 135.334 67.333 206.001 202c34.667 60 69.5 128.333 104.5 205s58.5 141.667 70.5 195c5.33301 23.333 8 44.333 8 63c0 27.333 -3 44.5 -9 51.5
s-17.333 17.5 -34 31.5s-25 28.667 -25 44c4.66699 20.667 22.334 31 53.001 31h181c26 0 39 -9.66699 39 -29c-2 -6 -6.33301 -15.333 -13 -28c-32 -44.667 -52.333 -80.334 -61 -107.001l-68 -174c-25.333 -68 -57.333 -140 -96 -216
c-39.333 -75.333 -82 -149.333 -128 -222c-46 -72 -93.333 -140.333 -142 -205c-50.667 -66 -107.667 -129.667 -171 -191c-62.667 -61.333 -130 -112.833 -202 -154.5s-141.667 -62.5 -209 -62.5c-63.333 0 -95 28 -95 84c4 19.333 15 36.333 33 51
c17.333 15.333 36 23 56 23c12.667 0 30.334 -2.83301 53.001 -8.5s40.334 -8.5 53.001 -8.5c42 0 91.333 19.333 148 58s109.5 84.834 158.5 138.501s84.167 100.834 105.5 141.501c-42.667 -13.333 -75.334 -20 -98.001 -20c-54 0 -99.333 21.833 -136 65.5
s-63.667 94.167 -81 151.5c-24.667 96.667 -37 197.667 -37 303c0 30 1.33301 69.667 4 119z" />
    <glyph glyph-name="z" unicode="z" horiz-adv-x="860" 
d="M170 -82c-33.333 0 -60.166 3.83301 -80.499 11.5s-30.5 26.167 -30.5 55.5c5.33301 24.667 30.166 62.334 74.499 113.001s94.833 104 151.5 160l131 127l307 297c39.333 39.333 60.666 66 63.999 80c0 10 -4.33301 16.167 -13 18.5s-25.667 3.5 -51 3.5h-168
c-51.333 0 -91.333 -4.66699 -120 -14c-28 -9.33301 -59 -32.333 -93 -69l-20 -22c-6 -6.66699 -12.667 -12.667 -20 -18c-6.66699 -4.66699 -13.667 -7 -21 -7c-12.667 0 -19 6.66699 -19 20c0 8 5.33301 28.333 16 61c10 24.667 21.667 52 35 82
c12 29.333 21.667 48.666 29 57.999c12.667 8 38 12 76 12h492c40 0 68 -3.16699 84 -9.5s24 -20.833 24 -43.5c-9.33301 -45.333 -72.666 -124.666 -189.999 -237.999l-318 -309l-168 -170c-26 -22.667 -41 -45.334 -45 -68.001c0 -18.667 18.667 -28 56 -28h272
c18.667 0 37.167 6.16699 55.5 18.5s34.833 26.666 49.5 42.999l38 42.5c32.667 32.667 58 49 76 49c10.667 0 16 -8.66699 16 -26c-6 -26.667 -17 -61.167 -33 -103.5s-29.333 -72.166 -40 -89.499c-10.667 -16 -24 -26.333 -40 -31c-16.667 -4 -37.667 -6 -63 -6h-514z
" />
    <glyph glyph-name="braceleft" unicode="{" horiz-adv-x="615" 
d="M379 -101c-6.66699 -34.667 -10 -64.001 -10 -88.001c0 -37.333 9.33301 -68.166 28 -92.499s49.667 -43.833 93 -58.5c-54 0 -96.667 3 -128 9c-30.667 6 -59 21.333 -85 46c-30 24.667 -45 62.334 -45 113.001c0 32.667 4.66699 70 14 112l86 398
c8 43.333 12 71.333 12 84c0 26.667 -7.33301 52 -22 76c-22.667 36 -58.334 60.667 -107.001 74c36.667 3.33301 75.667 19 117 47c32 21.333 53.667 45.333 65 72c12 26.667 23 64 33 112l75 352c18 79.333 39.667 141 65 185c26 43.333 62.833 75.666 110.5 96.999
s112.5 32 194.5 32c-63.333 -17.333 -111.166 -45 -143.499 -83s-55.5 -89.667 -69.5 -155l-78 -373c-18 -84 -44 -149 -78 -195c-34 -45.333 -89.333 -75.666 -166 -90.999c50 -12.667 85.667 -32.334 107 -59.001s32 -61.667 32 -105c0 -25.333 -4.66699 -61 -14 -107z
" />
    <glyph glyph-name="bar" unicode="|" horiz-adv-x="1352" 
d="M948 1469h129l-329 -1551h-130z" />
    <glyph glyph-name="braceright" unicode="}" horiz-adv-x="615" 
d="M519 1231c5.33301 26.667 7.99902 54.6709 7.99902 84.0039c-2 78.667 -41.667 130 -119 154c94.667 0 160.667 -13.333 198 -40s56 -70.667 56 -132c0 -40 -6 -87.333 -18 -142l-74 -352c-9.33301 -39.333 -14 -71.333 -14 -96c0 -36 11.333 -65.333 34 -88
c28 -28 60 -43.667 96 -47c-55.333 -14.667 -101.666 -39.334 -138.999 -74.001c-24.667 -24.667 -41.5 -47.334 -50.5 -68.001s-17.5 -51.334 -25.5 -92.001l-86 -398c-22 -111.333 -63.667 -186.333 -125 -225c-38 -24.667 -73.667 -40 -107 -46s-76.666 -9 -129.999 -9
c65.333 20 113.833 48.333 145.5 85s54.167 88 67.5 154l86 402c16.667 78.667 42 139 76 181s88.667 72 164 90c-50.667 11.333 -86.334 29.833 -107.001 55.5s-31 60.167 -31 103.5c0 35.333 5.66699 77.666 17 126.999z" />
    <glyph glyph-name="asciitilde" unicode="~" horiz-adv-x="1352" 
d="M1379 539c-44.667 -48 -82.665 -86.3311 -113.998 -114.998c-32 -28 -67.833 -51.667 -107.5 -71s-82.834 -29 -129.501 -29c-47.333 0 -112.666 17 -195.999 51l-103 41l-42.5 18c-15.667 6.66699 -31.834 13 -48.501 19s-32.334 10.5 -47.001 13.5s-30 4.5 -46 4.5
c-35.333 0 -68 -7.5 -98 -22.5s-57.5 -34.333 -82.5 -58s-52.167 -52.834 -81.5 -87.501l-82 64c38 44.667 75.333 83.667 112 117c36.667 34 76.667 60.833 120 80.5s90.333 29.5 141 29.5c36.667 0 75 -6.5 115 -19.5s88.333 -31.833 145 -56.5s100 -42.334 130 -53.001
c30.667 -10.667 59.667 -16 87 -16c46.667 0 88 13 124 39s76 63.333 120 112z" />
    <glyph glyph-name="section" unicode="&#xa4;" 
d="M1311 1198c20 16.667 34.1729 27.9951 42.5059 33.9951s18.833 9 31.5 9c13.333 0 24.666 -6 33.999 -18c10 -12.667 15 -27.667 15 -45c-3.33301 -15.333 -15 -29.666 -35 -42.999l-141 -119c44.667 -90 67 -166.333 67 -229c0 -34.667 -5.33301 -77.667 -16 -129
c-26.667 -121.333 -85.334 -226.666 -176.001 -315.999l80 -100c18 -20.667 27 -41.334 27 -62.001c-3.33301 -15.333 -14.333 -30.666 -33 -45.999s-35.334 -23 -50.001 -23c-11.333 0 -20 2.83301 -26 8.5s-15.667 17.167 -29 34.5l-78 99
c-124 -80 -244.667 -120 -362 -120c-118 0 -220.333 38.667 -307 116l-132 -109c-10 -8 -18.333 -15 -25 -21c-7.33301 -5.33301 -14.833 -10 -22.5 -14s-15.5 -6 -23.5 -6c-13.333 0 -25 5.66699 -35 17c-9.33301 12 -14 26.667 -14 44c2 9.33301 5.66699 17.333 11 24
s12 13.334 20 20.001s16 13 24 19l132 109c-41.333 64.667 -62 142.334 -62 233.001c0 40.667 4 82.334 12 125.001c27.333 124 85.333 227.333 174 310l-78 100c-4.66699 6.66699 -9.33398 13 -14.001 19c-4 6 -7.33301 12.333 -10 19c-3.33301 7.33301 -5 16 -5 26
c3.33301 15.333 13.333 29.333 30 42s32.667 19 48 19c12.667 0 25.667 -8 39 -24c13.333 -15.333 29.833 -37.333 49.5 -66s33.167 -45.667 40.5 -51c53.333 43.333 111.166 75.333 173.499 96s126.166 31 191.499 31c123.333 0 227 -37.667 311 -113zM846.006 1057
c-68.667 0 -135.998 -17.665 -201.998 -52.998s-122 -83 -168 -143s-76.333 -124.333 -91 -193c-5.33301 -25.333 -8 -52 -8 -80c0 -88 29.667 -160.5 89 -217.5s134.666 -85.5 225.999 -85.5c69.333 0 137.166 17.5 203.499 52.5s122.833 82.167 169.5 141.5
s77.667 123.666 93 192.999c5.33301 25.333 8 52.666 8 81.999c0 58 -13.667 110 -41 156s-65.5 82 -114.5 108s-103.833 39 -164.5 39z" />
    <glyph glyph-name="bullet" unicode="&#xa5;" 
d="M1118 1039c84.667 112 130 182.999 136 212.999c0 18 -2.66699 31.667 -8 41c-6 10 -14.5 20 -25.5 30s-18.833 18.333 -23.5 25s-7 17 -7 31c4.66699 25.333 26 38 64 38h217c17.333 0 26 -15 26 -45c-3.33301 -14.667 -19 -35.667 -47 -63
c-35.333 -35.333 -68.666 -76.333 -99.999 -123l-389 -494h166c14.667 0 24.667 -2 30 -6c6 -4.66699 9 -17 9 -37c-4.66699 -23.333 -13.334 -38.333 -26.001 -45s-32.667 -10 -60 -10l-203 1l-48 -60l-16 -78h246c22.667 0 37.167 -2.33301 43.5 -7
s9.5 -17.334 9.5 -38.001c-5.33301 -24 -13.666 -38.833 -24.999 -44.5s-29 -8.5 -53 -8.5h-241l-58 -262c0 -40 18.333 -69.667 55 -89c19.333 -9.33301 29 -27 29 -53c-6 -24.667 -24.333 -37 -55 -37h-282c-20 0 -30 15.667 -30 47
c3.33301 14.667 8.66602 24.334 15.999 29.001s18.666 9.33398 33.999 14.001c31.333 10 54 30 68 60c14 30.667 26.667 71 38 121l37 170h-249c-19.333 0 -33.166 2.83301 -41.499 8.5s-12.5 20.5 -12.5 44.5c5.33301 20.667 12.666 33.334 21.999 38.001s23.333 7 42 7h37
h223l12 59l-35 78h-189c-28 0 -46.667 3.33301 -56 10c-8.66699 6.66699 -13 22.667 -13 48c6 26.667 23.667 40 53 40h162l-180 510c-17.333 62.667 -34.666 98.334 -51.999 107.001c-15.333 8.66699 -26.333 16.5 -33 23.5s-10 20.833 -10 41.5c8 28.667 26.667 43 56 43
h230c30.667 0 46 -16.333 46 -49c-2.66699 -14.667 -11.5 -26.334 -26.5 -35.001l-44.5 -27c-14.667 -8.66699 -23.667 -21.334 -27 -38.001c0 -42 27.333 -140.333 82 -295l137 -344c86.667 84 162 169.333 226 256z" />
    <glyph glyph-name="germandbls" unicode="&#xa7;" horiz-adv-x="1065" 
d="M432 195c-103.333 30.667 -171.995 67.333 -205.995 110c-37.333 48 -56 102.667 -56 164c0 20.667 2 41.334 6 62.001c22 100.667 102 201.667 240 303c-39.333 62 -59 118 -59 168c0 24 2.66699 47.667 8 71c15.333 74.667 50.166 140.5 104.499 197.5
s118.666 100.833 192.999 131.5s147.833 46 220.5 46c101.333 0 199.666 -28 294.999 -84c19.333 -12 32.166 -23 38.499 -33s9.83301 -22.667 10.5 -38c0 -22 -0.666992 -42 -2 -60l-4 -96c0 -58.667 -19 -88 -57 -88c-16.667 0 -27.667 12.333 -33 37
c-38.667 174 -128.334 261 -269.001 261c-45.333 0 -92.666 -8.83301 -141.999 -26.5s-92.5 -43.5 -129.5 -77.5s-60.5 -74.667 -70.5 -122c-2.66699 -16.667 -4 -29 -4 -37c0 -87.333 75.333 -155 226 -203l125 -39c58.667 -18.667 108.334 -38 149.001 -58
c41.333 -20.667 75.5 -47.834 102.5 -81.501s40.5 -75.167 40.5 -124.5c0 -12.667 -2.66699 -34 -8 -64c-12.667 -60 -36.834 -114.333 -72.501 -163s-85.834 -105.667 -150.501 -171c38 -62 57 -118.667 57 -170c0 -24.667 -2.66699 -48 -8 -70
c-11.333 -57.333 -36 -113.666 -74 -168.999s-84.333 -103.333 -139 -144c-105.333 -79.333 -224 -119 -356 -119c-95.333 0 -182 24 -260 72c-22.667 12 -37.5 22 -44.5 30s-11.5 22.667 -13.5 44c-8 49.333 -12 112.666 -12 189.999c0 26 1.33301 48.667 4 68
c6.66699 31.333 25 47 55 47c15.333 0 27 -15.667 35 -47c7.33301 -30.667 18.5 -71.834 33.5 -123.501s40 -93.167 75 -124.5s86.167 -47 153.5 -47c52 0 105.333 11 160 33c54 22.667 100.667 54.334 140 95.001c39.333 41.333 65 88.666 77 141.999
c2.66699 18.667 4 32.334 4 41.001c0 100 -74.333 172.667 -223 218zM686.005 311.999c82 -24 141.667 -49.333 179 -76l54 71c14.667 19.333 28 39.666 40 60.999s20.667 44 26 68c2.66699 16.667 4 29 4 37c0 46.667 -12 84.334 -36 113.001
c-21.333 28 -67.333 53.333 -138 76l-202 59c-56 16.667 -101.333 36.667 -136 60c-38 -36 -67 -68 -87 -96s-34.667 -62.333 -44 -103c-2.66699 -11.333 -4 -25.666 -4 -42.999c0 -50.667 18.333 -89.834 55 -117.501s86.667 -50.5 150 -68.5z" />
    <glyph glyph-name="copyright" unicode="&#xa9;" horiz-adv-x="1721" 
d="M1184 1448c117.333 0 222.002 -26.334 314.002 -79.001s163.333 -126 214 -220c50.667 -93.333 76 -197.666 76 -312.999c0 -55.333 -6 -111.333 -18 -168c-30 -140.667 -91.5 -271 -184.5 -391s-204.5 -215 -334.5 -285s-263 -105 -399 -105
c-116.667 0 -220.834 26.5 -312.501 79.5s-162.834 126.167 -213.501 219.5s-76 197.333 -76 312c0 56.667 6.33301 113.334 19 170.001c29.333 141.333 90.333 271.666 183 390.999s204 214 334 284s262.667 105 398 105zM1164 1358
c-118 0 -234.503 -31.168 -349.503 -93.501s-213.167 -146.666 -294.5 -252.999s-135 -220.833 -161 -343.5c-11.333 -53.333 -17 -103.333 -17 -150c0 -102 22.333 -194.167 67 -276.5s107 -146.833 187 -193.5c80.667 -47.333 172.334 -71 275.001 -71
c118.667 0 235.334 31 350.001 93c114.667 62.667 213 147 295 253c82.667 106.667 137.334 221.667 164.001 345c10.667 54.667 16 103.667 16 147c0 102 -22.333 194.333 -67 277c-45.333 83.333 -108.333 148.5 -189 195.5s-172.667 70.5 -276 70.5zM1301 464.998
c27.333 0 40.998 -18.999 40.998 -56.999c-8 -34.667 -32.667 -69.667 -74 -105c-94 -90.667 -205.333 -136 -334 -136c-110.667 0 -195.667 35 -255 105s-89 160.333 -89 271c0 46 4.66699 91 14 135c18.667 85.333 54 167 106 245s115.667 141 191 189s154 72 236 72
c50 0 101.333 -8.33301 154 -25s93.334 -39.667 122.001 -69c10 -9.33301 15 -26.333 15 -51c0 -22.667 -3.66699 -50 -11 -82c-4.66699 -34 -11 -59.667 -19 -77s-25.333 -26 -52 -26c-17.333 0 -29.666 11.333 -36.999 34l-26 79c-9.33301 30 -27 55 -53 75
c-25.333 19.333 -64.666 29 -117.999 29c-62 0 -116.833 -20.167 -164.5 -60.5s-85.834 -90.5 -114.501 -150.5s-50 -122.667 -64 -188c-8.66699 -42.667 -13 -83 -13 -121c0 -76.667 17.5 -139.5 52.5 -188.5s89.833 -73.5 164.5 -73.5c52.667 0 97.667 9.66699 135 29
s75 50.666 113 93.999c16.667 19.333 30.167 33 40.5 41s23.5 12 39.5 12z" />
    <glyph glyph-name="acute" unicode="&#xab;" horiz-adv-x="697" 
d="M348 533c-10.667 -17.333 -16.0039 -41.999 -16.0039 -73.999l43 -195c0.666992 -3.33301 2.33398 -13.666 5.00098 -30.999c2 -16.667 3 -27.334 3 -32.001c-0.666992 -8.66699 -4.66699 -16.667 -12 -24s-15.666 -11 -24.999 -11c-19.333 0 -37.666 22 -54.999 66
l-94 198c-14 24 -21 48 -21 72c1.33301 7.33301 16.333 27.666 45 60.999l185 215c8.66699 10 17.334 19.5 26.001 28.5s17.5 16.833 26.5 23.5s18.833 10 29.5 10c16 0 24 -10.333 24 -31c-0.666992 -10 -13 -33 -37 -69zM651.996 533.001
c-11.333 -17.333 -17.001 -42 -17.001 -74l43 -195c0.666992 -3.33301 2.33398 -13.666 5.00098 -30.999c2 -16.667 3 -27.334 3 -32.001c-0.666992 -8.66699 -4.66699 -16.667 -12 -24s-15.666 -11 -24.999 -11c-19.333 0 -37.666 22 -54.999 66l-94 198
c-14 24 -21 48 -21 72c1.33301 8.66699 16.666 29 45.999 61l184 215l25.5 28.5c8.33301 9 17.166 16.833 26.499 23.5s19.333 10 30 10c16 0 24 -10.333 24 -31c-0.666992 -10 -13 -33 -37 -69z" />
    <glyph glyph-name="dieresis" unicode="&#xac;" horiz-adv-x="1352" 
d="M1215 542h-939l27 130h1065l-137 -647h-127z" />
    <glyph glyph-name="AE" unicode="&#xae;" horiz-adv-x="1639" 
d="M1157 1448c88.667 0 170.169 -15.1689 244.502 -45.502s138.166 -73.166 191.499 -128.499s94.333 -120.333 123 -195s43 -155.667 43 -243c0 -54.667 -6 -110.667 -18 -168c-22.667 -106 -63.334 -206.333 -122.001 -301s-130.334 -178.167 -215.001 -250.5
s-177 -128.833 -277 -169.5c-99.333 -40 -199.666 -60 -300.999 -60c-116.667 0 -221 26.667 -313 80s-163.333 126.5 -214 219.5s-76 196.833 -76 311.5c0 54.667 6.33301 111.334 19 170.001c29.333 140 90.333 270 183 390s204 215 334 285s262.667 105 398 105z
M844.002 -23.002c118.667 0 235.331 30.999 349.998 92.999c114 62.667 212 147 294 253s136.333 221 163 345c10.667 54 16 103 16 147c0 102.667 -22.333 195.334 -67 278.001s-107.167 147.5 -187.5 194.5s-172.166 70.5 -275.499 70.5
c-89.333 0 -177.666 -17.667 -264.999 -53s-168.333 -85 -243 -149s-138 -138.167 -190 -222.5s-87.667 -172.833 -107 -265.5c-11.333 -53.333 -17 -104 -17 -152c0 -101.333 22.333 -193 67 -275s107.167 -146.5 187.5 -193.5s171.833 -70.5 274.5 -70.5zM753.999 366.997
c-1.33301 -6 -3.33594 -14.1689 -6.00293 -24.502s-4 -17.833 -4 -22.5c0 -10 8 -17.667 24 -23c28.667 -7.33301 43 -25.666 43 -54.999c-5.33301 -21.333 -16 -34.833 -32 -40.5s-36.667 -8.5 -62 -8.5h-137c-23.333 0 -41.166 3 -53.499 9s-18.5 20.667 -18.5 44
c5.33301 24 23 39.667 53 47c21.333 5.33301 38 37.333 50 96l131 621c0 26.667 -4.33301 41 -13 43c-14 5.33301 -24 11.333 -30 18s-9 17.667 -9 33c5.33301 23.333 15.333 38 30 44s37 9 67 9h368c91.333 0 155.666 -17.667 192.999 -53c39.333 -33.333 59 -79 59 -137
c0 -8 -1.33301 -21.667 -4 -41c-12 -56 -40.667 -105.667 -86 -149c-44.667 -44 -97.334 -79.667 -158.001 -107c32 -54.667 55.833 -102.334 71.5 -143.001s27.5 -90 35.5 -148c0 -1.33301 1.33301 -11 4 -29c2.66699 -17.333 6.16699 -29.666 10.5 -36.999
s12.5 -14.666 24.5 -21.999c18.667 -14 28 -30.333 28 -49c-5.33301 -21.333 -15.666 -35 -30.999 -41c-15.333 -5.33301 -35.666 -8 -60.999 -8h-135c-22.667 0 -39.667 2.66699 -51 8c-12 6 -18 19.667 -18 41c2.66699 16 9.33398 26.667 20.001 32
c10.667 6 22.334 11.667 35.001 17s20 13 22 23c0 55.333 -11.167 113 -33.5 173s-45.833 106.667 -70.5 140l-211 -43zM823.996 698.995c58.667 8.66699 117.167 20.665 175.5 35.998s112.5 38.333 162.5 69s80 69.334 90 116.001c2.66699 16.667 4 27 4 31
c0 46.667 -21 76 -63 88s-96.333 18 -163 18c-27.333 2.66699 -45 4 -53 4c-28.667 0 -49.5 -5.16699 -62.5 -15.5s-22.833 -29.166 -29.5 -56.499z" />
    <glyph glyph-name="infinity" unicode="&#xb0;" horiz-adv-x="819" 
d="M606 839c-72.667 0 -132.499 23.167 -179.499 69.5s-70.5 104.166 -70.5 173.499c0 13.333 2.66699 35 8 65c11.333 56 35.666 107.333 72.999 154s82.666 83.834 135.999 111.501s107.333 41.5 162 41.5c73.333 0 133.333 -23.333 180 -70s70 -105 70 -175
c0 -20.667 -2 -41.334 -6 -62.001c-12 -56 -37 -107.333 -75 -154c-37.333 -47.333 -82.666 -84.666 -135.999 -111.999c-52.667 -28 -106.667 -42 -162 -42zM627.001 936c38 0 75.0029 9.33203 111.003 27.999s67 44 93 76c25.333 32.667 42.666 68.334 51.999 107.001
c2.66699 21.333 4 34.333 4 39c0 48.667 -16.333 89.5 -49 122.5s-74.334 49.5 -125.001 49.5c-58 0 -111.833 -20.833 -161.5 -62.5s-79.834 -91.167 -90.501 -148.5c-4.66699 -16 -7 -31.667 -7 -47c0 -46.667 16.667 -85.667 50 -117c32 -31.333 73 -47 123 -47z" />
    <glyph glyph-name="plusminus" unicode="&#xb1;" horiz-adv-x="1352" 
d="M766 645l74 338h129l-74 -338h467l-26 -130h-467l-72 -339h-130l72 339h-469l27 129zM1235 47l-26 -130h-1066l27 130h1065z" />
    <glyph glyph-name="yen" unicode="&#xb4;" horiz-adv-x="656" 
d="M486 1041c-36 -27.333 -59.334 -41 -70.001 -41c-19.333 0 -29 10 -29 30c4 13.333 15 32 33 56l141 184c18.667 28 32.334 44.333 41.001 49c14 6.66699 45.667 10 95 10l79 7c19.333 0 29 -9 29 -27c-1.33301 -7.33301 -5.5 -14.333 -12.5 -21
s-14.667 -13.167 -23 -19.5l-23.5 -18.5z" />
    <glyph glyph-name="mu" unicode="&#xb5;" horiz-adv-x="1065" 
d="M951 629l9.00488 44.002c4.66699 22.667 7 38.667 7 48c0 29.333 -11.667 51.333 -35 66c-16 10 -24 22.333 -24 37c3.33301 16 17.666 29.833 42.999 41.5s53.333 20.5 84 26.5s53.667 9 69 9c28.667 0 43 -16.333 43 -49c0 -7.33301 -0.5 -15 -1.5 -23
s-2.33301 -15.833 -4 -23.5s-3.83398 -18.834 -6.50098 -33.501l-129 -604c-12.667 -60 -19 -94.667 -19 -104c0 -27.333 17.333 -46.666 52 -57.999c22.667 -9.33301 34 -23.666 34 -42.999c-4.66699 -19.333 -11.5 -31.833 -20.5 -37.5s-23.167 -8.5 -42.5 -8.5h-143
c-23.333 0 -35 26.333 -35 79c0 18.667 2 39.334 6 62.001c-56.667 -50.667 -118.834 -91.834 -186.501 -123.501s-133.167 -47.5 -196.5 -47.5c-58.667 0 -109.334 14.333 -152.001 43l-69 -326c-6.66699 -34 -17.667 -57 -33 -69c-14.667 -12.667 -36 -19 -64 -19
c-21.333 0 -36.833 3.5 -46.5 10.5s-14.5 20.167 -14.5 39.5c0 6.66699 1.33301 19.334 4 38.001l213 1002c12.667 61.333 19 97.666 19 108.999c0 29.333 -13.667 53.333 -41 72c-18 8.66699 -27 23 -27 43c4 17.333 31 33.666 81 48.999c50.667 14.667 87.667 22 111 22
c37.333 0 56 -20.333 56 -61c0 -17.333 -2 -34.333 -6 -51l-111 -520c-12 -59.333 -18 -101 -18 -125c0 -18.667 2 -35.334 6 -50.001c10 -30 28.667 -53.167 56 -69.5s59 -24.5 95 -24.5c46 0 95 9.83301 147 29.5s96.667 46.167 134 79.5
c29.333 25.333 47.666 48.666 54.999 69.999c8 20.667 17 56.667 27 108z" />
    <glyph glyph-name="partialdiff" unicode="&#xb6;" horiz-adv-x="1475" 
d="M1141 -312l-10.998 -53.001c-3.33301 -16 -8.33301 -31.167 -15 -45.5s-16.334 -26 -29.001 -35s-29 -13.5 -49 -13.5c-41.333 0 -62 17.667 -62 53c0 4.66699 3.33301 26 10 64l348 1640h-135l-342 -1614c-10.667 -50 -21.334 -86.333 -32.001 -109s-34 -34 -70 -34
c-39.333 0 -59 19.667 -59 59c0 8.66699 3.33301 33.334 10 74.001l162 762c-102.667 10 -199.834 32.167 -291.501 66.5s-167.5 84 -227.5 149s-90 144.167 -90 237.5c0 37.333 3.66699 70 11 98c32.667 152 113.667 266 243 342c64.667 37.333 129.667 61.333 195 72
s142.333 16 231 16h715c40.667 0 61 -25.667 61 -77c-5.33301 -24.667 -18.666 -43.667 -39.999 -57c-22 -12.667 -46 -19 -72 -19c-13.333 0 -26.833 0.833008 -40.5 2.5s-29.167 4.16699 -46.5 7.5s-29.333 5.33301 -36 6zM989.002 1308
c-305.333 0 -480.333 -107.667 -525 -323c-7.33301 -34.667 -11 -64.667 -11 -90c0 -108 54.667 -196 164 -264c91.333 -55.333 181.333 -86 270 -92l164 769h-62z" />
    <glyph glyph-name="summation" unicode="&#xb7;" horiz-adv-x="942" 
d="M266 617c14.667 63.333 43.666 121.667 86.999 175c44 53.333 97 95.333 159 126c61.333 31.333 124.333 47 189 47c53.333 0 101 -11.667 143 -35c42.667 -24 75.834 -57 99.501 -99s35.5 -89 35.5 -141c0 -25.333 -2.66699 -49.666 -8 -72.999
c-13.333 -63.333 -41.5 -122 -84.5 -176s-95.333 -96.667 -157 -128s-125.167 -47 -190.5 -47c-80.667 0 -147.667 26.667 -201 80s-80 119.666 -80 198.999c0 26 2.66699 50 8 72z" />
    <glyph glyph-name="pi" unicode="&#xb9;" horiz-adv-x="819" 
d="M334 1125c11.333 54.667 37.5 105.334 78.5 152.001s89.667 83.5 146 110.5s111.833 40.5 166.5 40.5c50 0 95 -10.333 135 -31s71.333 -49.667 94 -87c22 -36.667 33 -78.667 33 -126c0 -20 -2 -40.333 -6 -61c-12.667 -59.333 -39 -112.333 -79 -159
s-88.333 -83.167 -145 -109.5s-113.667 -39.5 -171 -39.5c-74.667 0 -136.5 23.167 -185.5 69.5s-73.5 105.166 -73.5 176.499c0 20.667 2.33301 42 7 64zM862 1125c4.66699 21.333 6.99902 41.665 6.99902 60.998c0 50.667 -14 91.334 -42 122.001s-68.667 46 -122 46
c-44.667 0 -84.334 -10.333 -119.001 -31c-35.333 -22 -64.666 -51.167 -87.999 -87.5s-40 -76.166 -50 -119.499c-4 -22 -6 -43 -6 -63c0 -49.333 13.833 -89 41.5 -119s67.834 -45 120.501 -45c43.333 0 83 10.667 119 32s65.833 50 89.5 86s40.167 75.333 49.5 118z
M794.999 659.999c30 0 50.998 -2.33301 62.998 -7c11.333 -4 17 -14.667 17 -32c-3.33301 -14.667 -12.166 -24.167 -26.499 -28.5s-36.166 -6.5 -65.499 -6.5h-469c-33.333 0 -56.5 2 -69.5 6s-19.5 13.667 -19.5 29c4 16 14 26.5 30 31.5s41 7.5 75 7.5h465z" />
    <glyph glyph-name="ordfeminine" unicode="&#xbb;" horiz-adv-x="697" 
d="M588 473c9.33301 17.333 13.9971 42.001 13.9971 74.001l-43 195c-0.666992 6.66699 -1.66699 13.667 -3 21c-1.33301 8 -2.5 15.667 -3.5 23s-1.5 13.666 -1.5 18.999c2.66699 8.66699 7.66699 16.667 15 24s15.333 11 24 11c12.667 0 22.334 -5.5 29.001 -16.5
s15.334 -27.5 26.001 -49.5l93 -198c14.667 -31.333 22 -55.333 22 -72c-2 -7.33301 -17.667 -27.666 -47 -60.999l-184 -215c-2.66699 -2.66699 -8.66699 -9.33398 -18 -20.001s-16.666 -18.5 -21.999 -23.5s-11.5 -9.33301 -18.5 -13s-14.167 -5.5 -21.5 -5.5
c-18 0 -27 10.333 -27 31c2.66699 12.667 15 35.667 37 69zM284.997 473.001c9.33301 17.333 13.9971 42.001 13.9971 74.001l-43 195c-0.666992 6.66699 -1.66699 13.667 -3 21c-1.33301 8 -2.5 15.667 -3.5 23s-1.5 13.666 -1.5 18.999
c2.66699 8.66699 7.66699 16.667 15 24s15.333 11 24 11c12.667 0 22.334 -5.5 29.001 -16.5s15.334 -27.5 26.001 -49.5l92 -198c15.333 -29.333 23 -53.333 23 -72c-2 -7.33301 -17.667 -27.666 -47 -60.999l-184 -215c-2.66699 -2.66699 -8.66699 -9.33398 -18 -20.001
s-16.666 -18.5 -21.999 -23.5s-11.5 -9.33301 -18.5 -13s-14.167 -5.5 -21.5 -5.5c-18 0 -27 10.333 -27 31c2.66699 11.333 15 34.333 37 69z" />
    <glyph glyph-name="questiondown" unicode="&#xc0;" horiz-adv-x="1475" 
d="M908 1319c68.667 92.667 113.001 139.003 133.001 139.003c24 0 52 -46.333 84 -139c27.333 -71.333 53.166 -150.333 77.499 -237s45.833 -172.667 64.5 -258c18 -84.667 34.333 -172 49 -262s26 -176.333 34 -259l33 -221c4 -20 9.5 -34.333 16.5 -43
s19.833 -19 38.5 -31c18 -10 27 -25 27 -45c-4.66699 -19.333 -15 -31.666 -31 -36.999s-36.667 -8 -62 -8h-254c-42 0 -63 15.667 -63 47c3.33301 17.333 14.666 30.5 33.999 39.5l58 26.5c20 8.66699 31.667 22.334 35 41.001c0 20.667 -5.66699 83.167 -17 187.5
s-20.666 165.166 -27.999 182.499h-666l-65 -116c-24 -42.667 -45 -81.834 -63 -117.501s-29.333 -64.834 -34 -87.501c-2.66699 -16.667 -4 -28.334 -4 -35.001c0 -18 3.66699 -32.333 11 -43c6.66699 -10 17 -20 31 -30c14.667 -10.667 24.667 -18.667 30 -24s8 -14 8 -26
c-6 -31.333 -34.667 -47 -86 -47c-6.66699 0 -15.334 0.333008 -26.001 1s-17.667 1 -21 1h-119h-43c-53.333 0 -80 15.667 -80 47c3.33301 16.667 17.666 33.334 42.999 50.001c24 13.333 41 24.666 51 33.999c10.667 9.33301 20.334 23.666 29.001 42.999l119 211
c218.667 390 437.334 728.667 656.001 1016zM1127 549.003c-38 244.667 -92 467.333 -162 668c-157.333 -204 -303.333 -426.667 -438 -668h600z" />
    <glyph glyph-name="exclamdown" unicode="&#xc1;" horiz-adv-x="1393" 
d="M1422 1417c14.667 0 29.8311 -11.334 45.498 -34.001s23.5 -42.667 23.5 -60l-2 -127c-4.66699 -21.333 -17.667 -32 -39 -32c-14 0 -30.333 14.333 -49 43c-48 62 -121.667 96.333 -221 103h-445c-22.667 0 -41.667 -6.66699 -57 -20s-25 -29 -29 -47l-86 -399
c139.333 0 262 -7.33301 368 -22s193.667 -41.334 263 -80.001c70 -39.333 126.5 -88.833 169.5 -148.5s64.5 -127.167 64.5 -202.5c0 -29.333 -2.66699 -55.666 -8 -78.999c-31.333 -147.333 -122.333 -255.666 -273 -324.999c-59.333 -28 -119 -46.5 -179 -55.5
s-128.667 -13.5 -206 -13.5h-631c-18.667 0 -33.667 3 -45 9c-10.667 6 -16 18.667 -16 38c4 16.667 11.333 28 22 34c10 6.66699 25 12.667 45 18c26.667 7.33301 45.334 13.333 56.001 18s17.334 13.667 20.001 27l242 1138c9.33301 38 14 62 14 72
c0 11.333 -4 20.333 -12 27s-22.333 14 -43 22c-14 6 -24 11.833 -30 17.5s-9 16.167 -9 31.5c6 31.333 34 47 84 47h963zM421.997 182.999c-1.33301 -10.667 -3.33398 -23.5 -6.00098 -38.5s-4 -27.5 -4 -37.5c0 -31.333 11.667 -53.333 35 -66
c20.667 -12 77.334 -18 170.001 -18c16.667 0 37.667 0.333008 63 1s40.333 1 45 1c124.667 0 225.667 21 303 63c48 28 88.667 63.333 122 106s55 88.667 65 138c5.33301 22 8 45.333 8 70c0 120 -65.833 205.833 -197.5 257.5s-293.167 77.5 -484.5 77.5z" />
    <glyph glyph-name="logicalnot" unicode="&#xc2;" horiz-adv-x="1393" 
d="M133 -82c-18.667 0 -33.668 3.00098 -45.001 9.00098c-10.667 6 -16 18.667 -16 38c4 22 24.333 38.667 61 50c28 7.33301 48 15 60 23s20.333 18.167 25 30.5s10.667 34.5 18 66.5l241 1139c0 13.333 -4.83301 22.666 -14.5 27.999s-24.5 11 -44.5 17
c-17.333 6 -29.333 11.667 -36 17c-7.33301 6 -11 17.333 -11 34c6 31.333 34.667 47 86 47h666c123.333 0 212 -19.667 266 -59c68 -46.667 102 -112.334 102 -197.001c0 -18.667 -2 -38.334 -6 -59.001c-12 -58 -39.333 -110.667 -82 -158s-92.667 -87.833 -150 -121.5
s-116.666 -61.167 -177.999 -82.5c63.333 -10 122.5 -29.667 177.5 -59s99 -68.166 132 -116.499s49.5 -103.166 49.5 -164.499c0 -27.333 -2.66699 -52.666 -8 -75.999c-14 -64 -43 -122.333 -87 -175s-97.667 -97.334 -161 -134.001c-109.333 -64.667 -244 -97 -404 -97
h-641zM538.999 695.001c134.667 28.667 244.003 54.668 328.003 78.001s157 54.666 219 93.999c44.667 27.333 84.667 61 120 101s57.666 81.333 66.999 124c4 16 6 33.667 6 53c0 74 -31.333 120.5 -94 139.5s-148.334 28.5 -257.001 28.5
c-114.667 0 -190.334 -8.33301 -227.001 -25c-12.667 -6.66699 -23 -15.5 -31 -26.5s-13.833 -22.333 -17.5 -34s-7.16699 -24.667 -10.5 -39s-6.33301 -29.5 -9 -45.5zM428.002 183.002c-9.33301 -44 -14.001 -71.335 -14.001 -82.002c0 -26.667 9.66699 -46 29 -58
c27.333 -14.667 92 -22 194 -22c149.333 0 269 20.333 359 61c56 24 104 57.5 144 100.5s65.667 91.5 77 145.5c4 22 6 43 6 63c0 78.667 -31 141.334 -93 188.001c-61.333 46.667 -137.666 78.334 -228.999 95.001l-387 -94z" />
    <glyph glyph-name="radical" unicode="&#xc3;" horiz-adv-x="1147" 
d="M398 64c0 -10.667 2.66797 -19.1689 8.00098 -25.502s12.666 -11 21.999 -14l23 -7.5c16.667 -5.33301 29 -11 37 -17s12 -17.667 12 -35c-7.33301 -31.333 -36 -47 -86 -47h-279c-42 0 -63 15.667 -63 47c3.33301 15.333 10 26 20 32
c9.33301 6.66699 22.666 12.667 39.999 18c28.667 9.33301 48.167 17.666 58.5 24.999s16.833 14.833 19.5 22.5s9.33398 31.834 20.001 72.501l242 1139c0 14 -4.66699 23.333 -14 28c-9.33301 5.33301 -24 11 -44 17c-16 6 -27.333 12 -34 18
c-7.33301 6.66699 -11 18.334 -11 35.001c6 30 34 45 84 45h907c46.667 -7.33301 70 -38.666 70 -93.999l-2 -127c-9.33301 -21.333 -22.333 -32 -39 -32c-14.667 0 -31 14.333 -49 43c-54 68.667 -128 103 -222 103h-335c-81.333 0 -125 -18.333 -131 -55z" />
    <glyph glyph-name="florin" unicode="&#xc4;" horiz-adv-x="1475" 
d="M1361 23h21.9971c18 0 30.333 -4.33301 37 -13c5.33301 -9.33301 8 -36 8 -80c0 -31.333 -1.33301 -56.666 -4 -75.999c-0.666992 -5.33301 -1 -14 -1 -26c0 -12.667 -0.333008 -21.667 -1 -27c-6 -28.667 -22 -43 -48 -43c-11.333 0 -20.166 2.83301 -26.499 8.5
s-16.5 16.5 -30.5 32.5c-30 29.333 -53.333 50 -70 62s-41 22.667 -73 32c-48.667 16.667 -105.334 25 -170.001 25h-590c-49.333 0 -107.333 -7 -174 -21c-38.667 -8 -71.667 -19 -99 -33c-26.667 -14 -62.667 -37 -108 -69c-18.667 -14.667 -33.334 -25.667 -44.001 -33
c-10 -6.66699 -20 -10 -30 -10c-20 0 -30 15.667 -30 47c0.666992 6.66699 3.33398 16 8.00098 28s7.33398 18.333 8.00098 19c8.66699 36 21.667 74.333 39 115c17.333 41.333 36.666 62 57.999 62h24c18 0 36.333 6.16699 55 18.5s31.667 25.166 39 38.499l115 229
c31.333 62.667 67.833 131.667 109.5 207l137 236c49.667 82 101.334 163.167 155.001 243.5s106.834 154.833 159.501 223.5c14 17.333 21 33 21 47c0 23.333 -19.333 41 -58 53c-16.667 6 -28.667 12.167 -36 18.5s-11 17.833 -11 34.5
c4.66699 20 14.334 32.5 29.001 37.5s33.667 7.5 57 7.5h825c41.333 0 62 -15 62 -45c-3.33301 -15.333 -10 -26.333 -20 -33s-23.667 -12.667 -41 -18c-40 -10 -64.333 -21.333 -73 -34s-18 -41.667 -28 -87l-237 -1118c0 -26.667 8.66699 -45 26 -55zM384.997 21
l695.002 -0.000976562c26.667 10.667 43.167 22.167 49.5 34.5s14.166 39.166 23.499 80.499l240 1128c0 15.333 -5.83301 26.833 -17.5 34.5s-24.834 11.5 -39.501 11.5h-236c-32 0 -62 -17.667 -90 -53l-180 -255c-77.333 -111.333 -139 -205.666 -185 -282.999
l-85.5 -150.5l-95.5 -173c-34 -63.667 -62.667 -121.5 -86 -173.5c-24 -51.333 -39 -91.666 -45 -120.999c-3.33301 -10.667 -5 -19.667 -5 -27c0 -35.333 19 -53 57 -53z" />
    <glyph glyph-name="approxequal" unicode="&#xc5;" 
d="M440 271c-13.333 -58.667 -20.001 -103.994 -20.001 -135.994c0 -38.667 11.167 -66.667 33.5 -84s60.5 -26 114.5 -26h307c86 0 176.667 37.333 272 112c42.667 34.667 71.334 52 86.001 52c16.667 0 25 -11.667 25 -35c-2.66699 -14 -11 -39.333 -25 -76
s-21.333 -55.667 -22 -57c-16 -40 -27 -65.667 -33 -77s-14.667 -18.333 -26 -21s-33.333 -4.33398 -66 -5.00098h-955c-18.667 0 -33.667 3 -45 9s-17 18.667 -17 38c3.33301 15.333 10 26 20 32c9.33301 6.66699 22.666 12.667 39.999 18
c26.667 7.33301 45.834 15.166 57.501 23.499s19.5 18.166 23.5 29.499s9.66699 33.666 17 66.999l229 1082c4.66699 16 7 31.667 7 47c0 33.333 -16.667 52.333 -50 57c-15.333 4 -26.666 9.16699 -33.999 15.5s-11 18.166 -11 35.499c6.66699 30 35 45 85 45h907
c34 -8.66699 51 -41.334 51 -98.001l-10 -125c-6.66699 -22 -20.334 -33 -41.001 -33c-13.333 0 -23.666 5.66699 -30.999 17c-22 38 -51 69.333 -87 94c-36 25.333 -75 38 -117 38h-330c-52 0 -91 -11.667 -117 -35s-43 -64.666 -51 -123.999l-80 -373h393
c32.667 0 59.167 2.5 79.5 7.5s43.166 16.167 68.499 33.5c20 18 36.333 27 49 27c19.333 0 29 -14.333 29 -43c0 -12 -1.33301 -24.333 -4 -37c-2 -13.333 -4.16699 -24.666 -6.5 -33.999l-8.5 -33c-4 -28.667 -10.167 -50.834 -18.5 -66.501s-24.5 -23.5 -48.5 -23.5
c-13.333 0 -27 8.66699 -41 26c-15.333 17.333 -30 27.666 -44 30.999s-36.333 5 -67 5h-403z" />
    <glyph glyph-name="Delta" unicode="&#xc6;" horiz-adv-x="2171" 
d="M948 -82c-42 0 -63.0039 15.6621 -63.0039 46.9951c4 16 10.667 26.667 20 32c9.33301 6 24 12.667 44 20l33.5 10c11 3.33301 20.333 7.83301 28 13.5s12.5 13.5 14.5 23.5l82 385l-169 235c-46 -36.667 -112 -98.5 -198 -185.5s-164 -172.333 -234 -256
s-108.667 -143.167 -116 -178.5c0 -12 2.5 -21.667 7.5 -29s12.667 -15.166 23 -23.499s18 -15.666 23 -21.999s7.5 -14.5 7.5 -24.5c-6.66699 -31.333 -42.334 -47 -107.001 -47h-266c-42 0 -63 14.333 -63 43c4.66699 18 12.667 30.333 24 37
c10.667 7.33301 27.334 15 50.001 23c32 11.333 56.667 26 74 44s39 46.333 65 85c147.333 213.333 332.333 417.333 555 612l62 53l-240 361c-27.333 42.667 -49.666 73.667 -66.999 93c-16.667 18.667 -42.667 37.334 -78 56.001c-23.333 10 -35 28 -35 54
c4.66699 25.333 33 38 85 38h301c18.667 0 33 -2 43 -6s15 -14.667 15 -32c-4.66699 -20.667 -15.167 -35.167 -31.5 -43.5l-49.5 -25c-16.667 -8.33301 -27.334 -23.166 -32.001 -44.499c0 -50.667 13.667 -97 41 -139l342 -523l127 596c8.66699 42.667 13 66 13 70
c0 12 -3.66699 21.167 -11 27.5s-21.666 14.166 -42.999 23.499c-15.333 8 -25.5 14.5 -30.5 19.5s-7.5 15.5 -7.5 31.5c5.33301 30 33 45 83 45h270c42.667 0 64 -15 64 -45c-3.33301 -15.333 -8.66602 -25.333 -15.999 -30s-21.666 -11.667 -42.999 -21
c-29.333 -11.333 -48.833 -20.333 -58.5 -27s-16.167 -15.334 -19.5 -26.001c-3.33301 -10 -8.66602 -32.667 -15.999 -68l-127 -596l563 523c59.333 52.667 93.333 99 102 139c0 18.667 -5.16699 32.667 -15.5 42l-31.5 28.5c-10.667 9.66699 -16 23.834 -16 42.501
c5.33301 25.333 29.666 38 72.999 38h301c46.667 0 70 -12.667 70 -38c-5.33301 -22.667 -25 -40.667 -59 -54c-43.333 -18.667 -77.833 -37.667 -103.5 -57s-60.167 -50 -103.5 -92l-395 -361l41 -53c140.667 -196 238.334 -400 293.001 -612
c10.667 -40 20.667 -68.667 30 -86c10 -17.333 28.667 -31.666 56 -42.999c18.667 -8.66699 31 -15 37 -19c6.66699 -5.33301 10 -16.333 10 -33c-7.33301 -34 -35 -51 -83 -51h-266c-24.667 0 -45 2.66699 -61 8c-16 6 -24 19 -24 39
c2.66699 14.667 11.834 26.167 27.501 34.5l46.5 26c15.333 9 24.666 21.833 27.999 38.5c0 47.333 -17.5 113.5 -52.5 198.5s-75.833 168.5 -122.5 250.5s-84 139 -112 171l-267 -235l-81 -385c0 -10 2.66699 -17.833 8 -23.5s12.333 -10.167 21 -13.5
c9.33301 -3.33301 18 -6.66602 26 -9.99902c14 -5.33301 24.667 -11.333 32 -18c7.33301 -6 11 -17.333 11 -34c-4.66699 -20 -14.167 -32.833 -28.5 -38.5s-32.833 -8.5 -55.5 -8.5h-275z" />
    <glyph glyph-name="guillemotleft" unicode="&#xc7;" horiz-adv-x="1270" 
d="M643 668c-43.333 0 -65.002 16.3398 -65.002 49.0068c6.66699 33.333 33.334 51.666 80.001 54.999c15.333 1.33301 35.666 2.66602 60.999 3.99902c25.333 2 58 4.33301 98 7c44.667 2 92 12.5 142 31.5s96.333 50.167 139 93.5c43.333 44 72 100.333 86 169
c6 22 9 46 9 72c0 133.333 -94.333 200 -283 200c-54 0 -106.333 -11 -157 -33s-94.667 -47 -132 -75s-73.666 -57.167 -108.999 -87.5s-56.333 -45.5 -63 -45.5c-26 0 -39 10.333 -39 31c0 5.33301 1.33301 14.833 4 28.5s4 25.167 4 34.5c0 16.667 -1.33301 36 -4 58
c0 19.333 16.333 40.333 49 63c54 37.333 130.5 68.5 229.5 93.5s187.167 37.5 264.5 37.5c78.667 0 150.667 -11.833 216 -35.5s117.333 -58.667 156 -105s58 -101.166 58 -164.499c0 -25.333 -2.66699 -49.333 -8 -72c-12 -58.667 -39.333 -111 -82 -157
c-42 -46.667 -91.667 -85.334 -149 -116.001c-57.333 -30 -117 -52 -179 -66c94 -16.667 172.5 -51.334 235.5 -104.001s94.5 -123.334 94.5 -212.001c0 -28 -2.66699 -54.667 -8 -80c-16.667 -78 -47.667 -146.333 -93 -205
c-44.667 -58.667 -99.334 -106.334 -164.001 -143.001c-64 -37.333 -134.333 -64.5 -211 -81.5s-157.667 -25.5 -243 -25.5c-67.333 0 -134.666 10.667 -201.999 32c-68 22 -126 56.5 -174 103.5s-77 106.5 -87 178.5c0 70 14.333 107.667 43 113
c21.333 0 37.333 -3.66699 48 -11c10.667 -6.66699 18.667 -16.334 24 -29.001c4.66699 -12 14.667 -40.333 30 -85c23.333 -62.667 64.333 -111.5 123 -146.5s126.334 -52.5 203.001 -52.5c84.667 0 162.167 13.167 232.5 39.5s129.166 65.5 176.499 117.5
s78.333 114.333 93 187c5.33301 25.333 8 51.333 8 78c0 80 -29 141 -87 183c-57.333 41.333 -130.666 63.666 -219.999 66.999z" />
    <glyph glyph-name="guillemotright" unicode="&#xc8;" horiz-adv-x="1639" 
d="M399 64c0 -9.33301 2.66992 -16.832 8.00293 -22.499s12.333 -10.334 21 -14.001l26 -10.5c14.667 -5.33301 26 -11.333 34 -18c7.33301 -6 11 -17.333 11 -34c-4 -20 -13.167 -32.833 -27.5 -38.5s-32.833 -8.5 -55.5 -8.5h-283c-19.333 0 -34.833 3 -46.5 9
s-17.5 18.667 -17.5 38c3.33301 15.333 10.333 26 21 32c10 6.66699 24.333 12.667 43 18c26.667 7.33301 45.667 15 57 23s19.166 18 23.499 30s10.166 34.333 17.499 67l240 1137c0 15.333 -4.33301 25.5 -13 30.5s-23 10.5 -43 16.5c-16.667 6 -28.667 12.167 -36 18.5
s-11 17.833 -11 34.5c5.33301 20 15.333 32.5 30 37.5s33.667 7.5 57 7.5h283c40 0 60 -15 60 -45c-3.33301 -15.333 -9.33301 -26 -18 -32s-22.334 -12.333 -41.001 -19c-27.333 -8 -46.5 -15.833 -57.5 -23.5s-18.833 -17.5 -23.5 -29.5c-4 -12 -9.66699 -34.667 -17 -68
l-185 -870l1076 887l12 57c0 21.333 -19.667 36.333 -59 45c-16 6 -27.5 12.167 -34.5 18.5s-10.5 17.833 -10.5 34.5c6 30 33.333 45 82 45h291c40.667 0 61 -15 61 -45c-3.33301 -15.333 -10 -26.333 -20 -33s-23.667 -12.667 -41 -18c-40 -10 -64.333 -21.333 -73 -34
s-18 -41.667 -28 -87l-237 -1118c0 -26.667 8.66699 -45 26 -55l21 -10l16 -11c14 -7.33301 23.667 -13.333 29 -18c5.33301 -4 8 -11.667 8 -23c-4 -19.333 -13 -32 -27 -38s-32.333 -9 -55 -9h-289c-20 0 -35.5 2.83301 -46.5 8.5s-16.5 18.5 -16.5 38.5
c4 22 24.333 38.667 61 50c28 7.33301 47.833 15 59.5 23s19.5 18 23.5 30c4.66699 12 10.667 34.333 18 67l196 930l-1075 -887z" />
    <glyph glyph-name="ellipsis" unicode="&#xc9;" horiz-adv-x="1639" 
d="M1477 1696c-7.33301 -40 -32.665 -81.666 -75.998 -124.999c-72.667 -71.333 -157.334 -107 -254.001 -107c-82 0 -146.667 24 -194 72c-44 43.333 -66 96.666 -66 159.999c3.33301 13.333 10 24.5 20 33.5s21 13.5 33 13.5c12.667 0 26.667 -17.167 42 -51.5
s35.833 -63.333 61.5 -87s68.5 -35.5 128.5 -35.5c32.667 0 68.167 9.66699 106.5 29s70.166 43 95.499 71c32 42.667 58 64 78 64c16.667 0 25 -12.333 25 -37zM399.001 64.001c0 -9.33301 2.66992 -16.832 8.00293 -22.499s12.333 -10.334 21 -14.001l26 -10.5
c14.667 -5.33301 26 -11.333 34 -18c7.33301 -6 11 -17.333 11 -34c-4 -20 -13.167 -32.833 -27.5 -38.5s-32.833 -8.5 -55.5 -8.5h-283c-19.333 0 -34.833 3 -46.5 9s-17.5 18.667 -17.5 38c3.33301 15.333 10.333 26 21 32c10 6.66699 24.333 12.667 43 18
c26.667 7.33301 45.667 15 57 23s19.166 18 23.499 30s10.166 34.333 17.499 67l240 1137c0 15.333 -4.33301 25.5 -13 30.5s-23 10.5 -43 16.5c-16.667 6 -28.667 12.167 -36 18.5s-11 17.833 -11 34.5c5.33301 20 15.333 32.5 30 37.5s33.667 7.5 57 7.5h283
c40 0 60 -15 60 -45c-3.33301 -15.333 -9.33301 -26 -18 -32s-22.334 -12.333 -41.001 -19c-27.333 -8 -46.5 -15.833 -57.5 -23.5s-18.833 -17.5 -23.5 -29.5c-4 -12 -9.66699 -34.667 -17 -68l-185 -870l1076 887l12 57c0 21.333 -19.667 36.333 -59 45
c-16 6 -27.5 12.167 -34.5 18.5s-10.5 17.833 -10.5 34.5c6 30 33.333 45 82 45h291c40.667 0 61 -15 61 -45c-3.33301 -15.333 -10 -26.333 -20 -33s-23.667 -12.667 -41 -18c-40 -10 -64.333 -21.333 -73 -34s-18 -41.667 -28 -87l-237 -1118
c0 -26.667 8.66699 -45 26 -55l21 -10l16 -11c14 -7.33301 23.667 -13.333 29 -18c5.33301 -4 8 -11.667 8 -23c-4 -19.333 -13 -32 -27 -38s-32.333 -9 -55 -9h-289c-20 0 -35.5 2.83301 -46.5 8.5s-16.5 18.5 -16.5 38.5c4 22 24.333 38.667 61 50
c28 7.33301 47.833 15 59.5 23s19.5 18 23.5 30c4.66699 12 10.667 34.333 18 67l196 930l-1075 -887z" />
    <glyph glyph-name="nonbreakingspace" unicode="&#xca;" horiz-adv-x="1434" 
d="M402 64c0 -10 2.6709 -17.8301 8.00391 -23.4971s12.333 -10.167 21 -13.5c9.33301 -3.33301 18 -6.66602 26 -9.99902c14 -5.33301 24.667 -11.333 32 -18c7.33301 -6 11 -17.333 11 -34c-7.33301 -31.333 -35.333 -47 -84 -47h-283c-20 0 -35.5 2.83301 -46.5 8.5
s-16.5 18.5 -16.5 38.5c3.33301 15.333 10.333 26 21 32c10 6.66699 24.333 12.667 43 18c28 7.33301 47.667 15 59 23s19.166 18 23.499 30s10.166 34.333 17.499 67l242 1139c0 20.667 -19 35.667 -57 45c-16.667 5.33301 -28.834 11.166 -36.501 17.499
s-11.5 18.166 -11.5 35.499c6 30 33.333 45 82 45h280c42.667 0 64 -15 64 -45c-3.33301 -15.333 -8.83301 -25.5 -16.5 -30.5s-21.834 -11.833 -42.501 -20.5c-29.333 -11.333 -48.666 -20.333 -57.999 -27s-15.166 -13.834 -17.499 -21.501s-8.5 -31.834 -18.5 -72.501
l-127 -596l418 330l227 193l37 32.5l38 34.5c10.667 11.333 20.667 23.333 30 36s15.333 24.667 18 36c0 15.333 -3.66699 26.833 -11 34.5s-18 15.5 -32 23.5c-13.333 7.33301 -23.666 14.666 -30.999 21.999c-6.66699 8 -10 19 -10 33c5.33301 25.333 29.666 38 72.999 38
h301c46.667 0 70 -12.667 70 -38c-5.33301 -22.667 -25 -40.667 -59 -54c-43.333 -18.667 -77.833 -37.667 -103.5 -57s-60.167 -50 -103.5 -92l-416 -361l41 -53c31.333 -42.667 62.666 -88.667 93.999 -138s61 -100 89 -152s53.667 -106.333 77 -163
s41.333 -109.667 54 -159c10.667 -40 20.667 -68.667 30 -86c10 -17.333 28.667 -31.666 56 -42.999c14.667 -6.66699 25.667 -13.667 33 -21c8 -7.33301 12 -20.333 12 -39c-6.66699 -28.667 -33.667 -43 -81 -43h-266c-24.667 0 -45 2.66699 -61 8c-16 6 -24 19 -24 39
c2.66699 14.667 11.834 26.167 27.501 34.5l46.5 26c15.333 9 24.666 21.833 27.999 38.5c0 47.333 -19.167 114 -57.5 200s-82.833 171.333 -133.5 256s-90.334 143.667 -119.001 177l-325 -248z" />
    <glyph glyph-name="Agrave" unicode="&#xcb;" horiz-adv-x="1434" 
d="M781 1219c13.333 18 19.9961 33.665 19.9961 46.998c0 23.333 -19 41 -57 53c-16.667 6 -28.667 12.167 -36 18.5s-11 17.833 -11 34.5c6.66699 30 35.334 45 86.001 45h825c40.667 0 61 -15 61 -45c-5.33301 -24 -25.666 -41 -60.999 -51
c-28.667 -7.33301 -49 -15 -61 -23c-11.333 -8 -19 -17.333 -23 -28c-3.33301 -10.667 -8.66602 -34 -15.999 -70l-238 -1118c0 -26.667 9 -45 27 -55l36 -21c14 -7.33301 23.667 -13.333 29 -18c5.33301 -4 8 -11.667 8 -23c-6.66699 -31.333 -34 -47 -82 -47h-288
c-20.667 0 -36.5 2.83301 -47.5 8.5s-16.5 18.5 -16.5 38.5c2.66699 14.667 9.16699 25.334 19.5 32.001s24.5 12.667 42.5 18c28 7.33301 47.667 15 59 23s19 17.333 23 28s10 33.667 18 69l240 1129c0 15.333 -6 27 -18 35c-11.333 7.33301 -24.666 11 -39.999 11h-235
c-18 0 -33 -3.33301 -45 -10s-27 -21 -45 -43l-180 -255c-77.333 -111.333 -139 -205.666 -185 -282.999c-192 -330.667 -296.333 -536.667 -313 -618c0 -27.333 5 -45.833 15 -55.5s27 -23 51 -40s36 -33.167 36 -48.5c-6 -27.333 -28.333 -41 -67 -41h-277
c-15.333 0 -26.333 1.33301 -33 4c-6.66699 3.33301 -10 11.333 -10 24c6 25.333 23 48.333 51 69c26 18.667 46.667 41 62 67l114 229c31.333 62.667 67.833 131.667 109.5 207l133.5 230c47.333 78 99.5 159.667 156.5 245s111.167 161.333 162.5 228z" />
    <glyph glyph-name="Atilde" unicode="&#xcc;" horiz-adv-x="1762" 
d="M1293 860l298.998 470.992c17.333 30 32 51.833 44 65.5s28.667 20.5 50 20.5h264c16.667 0 28.334 -2.66699 35.001 -8s10 -19.666 10 -42.999c-4 -20.667 -25 -35.667 -63 -45s-63.667 -20.166 -77 -32.499s-23.333 -36.833 -30 -73.5l-246 -1151c0 -8 2 -14.5 6 -19.5
s8.66699 -8.83301 14 -11.5s13 -5.66699 23 -9s17.667 -5.66602 23 -6.99902c17.333 -6 30 -11.667 38 -17c8.66699 -6 13 -17.667 13 -35c-4.66699 -20 -14.167 -32.833 -28.5 -38.5s-32.833 -8.5 -55.5 -8.5h-276c-41.333 0 -62 15.667 -62 47
c2.66699 14.667 8.33398 25 17.001 31s22 12.333 40 19c22 8 37.333 15 46 21c9.33301 5.33301 15.666 11.333 18.999 18c4 6.66699 7 15.834 9 27.501s5.33301 29.5 10 53.5l228 1074l-443 -689l-219 -317c-18.667 -26 -35.667 -47.5 -51 -64.5s-30.333 -25.5 -45 -25.5
c-14 0 -23.833 4.83301 -29.5 14.5s-11.5 25.167 -17.5 46.5l-121 469l-94 496l-21 102l-248 -1169c0 -16 4.33301 -26.833 13 -32.5s25.667 -13.167 51 -22.5c16.667 -5.33301 29.667 -11.666 39 -18.999s14 -20.333 14 -39c-5.33301 -27.333 -26.333 -41 -63 -41h-246
c-21.333 0 -37.333 2.33301 -48 7c-10.667 5.33301 -16 18 -16 38c2.66699 15.333 8.66699 26 18 32c9.33301 6.66699 23 13.334 41 20.001c24 8 41 15.333 51 22s17 15.667 21 27c4.66699 10.667 9.33398 28.334 14.001 53.001l240 1130c0 30.667 -5 49.667 -15 57
s-27.667 16.333 -53 27s-38 24.334 -38 41.001c5.33301 30 27.333 45 66 45h272c15.333 0 26.833 -5.66699 34.5 -17s13.167 -25.833 16.5 -43.5s6 -33.5 8 -47.5l191 -920z" />
    <glyph glyph-name="Otilde" unicode="&#xcd;" horiz-adv-x="1639" 
d="M399 64c0 -9.33301 2.66992 -16.832 8.00293 -22.499s12.333 -10.334 21 -14.001l26 -10.5c14.667 -5.33301 26 -11.333 34 -18c7.33301 -6 11 -17.333 11 -34c-4 -20 -13.167 -32.833 -27.5 -38.5s-32.833 -8.5 -55.5 -8.5h-283c-19.333 0 -34.833 3 -46.5 9
s-17.5 18.667 -17.5 38c3.33301 15.333 10.333 26 21 32c10 6.66699 24.333 12.667 43 18c26.667 7.33301 45.667 15 57 23s19.166 18 23.499 30s10.166 34.333 17.499 67l240 1137c0 15.333 -4.33301 25.5 -13 30.5s-23 10.5 -43 16.5c-16.667 6 -28.667 12.167 -36 18.5
s-11 17.833 -11 34.5c5.33301 20 15.333 32.5 30 37.5s33.667 7.5 57 7.5h283c40 0 60 -15 60 -45c-3.33301 -15.333 -9.33301 -26 -18 -32s-22.334 -12.333 -41.001 -19c-27.333 -8 -46.5 -15.833 -57.5 -23.5s-18.833 -17.167 -23.5 -28.5
c-4 -12 -9.66699 -34.667 -17 -68l-88 -414h887l104 487c0 21.333 -19.667 36.333 -59 45c-16 6 -27.5 12.167 -34.5 18.5s-10.5 17.833 -10.5 34.5c6 30 33.333 45 82 45h291c40.667 0 61 -15 61 -45c-3.33301 -15.333 -10 -26.333 -20 -33s-23.667 -12.667 -41 -18
c-40 -10 -64.333 -21.333 -73 -34s-18 -41.667 -28 -87l-237 -1118c0 -26.667 8.66699 -45 26 -55l21 -10l16 -11c14 -7.33301 23.667 -13.333 29 -18c5.33301 -4 8 -11.667 8 -23c-4 -19.333 -13 -32 -27 -38s-32.333 -9 -55 -9h-289c-20 0 -35.5 2.83301 -46.5 8.5
s-16.5 18.5 -16.5 38.5c4 22 24.333 38.667 61 50c28 7.33301 47.833 15 59.5 23s19.5 18 23.5 30c4.66699 12 10.667 34.333 18 67l114 545h-886z" />
    <glyph glyph-name="OE" unicode="&#xce;" horiz-adv-x="1639" 
d="M316 105c-71.333 96 -107.003 212.002 -107.003 348.002c0 67.333 8.33301 136.333 25 207c22.667 107.333 61.5 209 116.5 305s122.333 180.167 202 252.5s169.167 128.833 268.5 169.5s204 61 314 61c102.667 0 196.334 -19.333 281.001 -58
s153.334 -94.334 206.001 -167.001c74 -94.667 111 -214 111 -358c0 -63.333 -7.33301 -131 -22 -203c-30.667 -144.667 -91 -276.334 -181 -395.001c-89.333 -118 -198.666 -211 -327.999 -279c-130 -67.333 -267.667 -101 -413 -101c-208 0 -365.667 72.667 -473 218z
M1278 211.002c110.667 118.667 184.667 265.668 222 441.001c16 78 24 150.333 24 217c0 103.333 -17.667 188.666 -53 255.999c-33.333 66.667 -81.333 119 -144 157s-134.334 57 -215.001 57c-84 0 -165.667 -21.333 -245 -64s-150.333 -101 -213 -175
c-104 -118.667 -174.333 -264.667 -211 -438c-15.333 -68 -23 -133.667 -23 -197c0 -96.667 17.667 -182 53 -256c32.667 -66.667 78.834 -119.167 138.501 -157.5s129.5 -57.5 209.5 -57.5c82 0 162.833 19.333 242.5 58s151.167 91.667 214.5 159z" />
    <glyph glyph-name="oe" unicode="&#xcf;" horiz-adv-x="1639" 
d="M738 1310c-28.667 -8 -48.166 -15.166 -58.499 -21.499s-17.5 -14.833 -21.5 -25.5s-9.66699 -31.667 -17 -63l-242 -1136c0 -9.33301 2.66699 -16.833 8 -22.5s12.333 -10.334 21 -14.001l26 -10.5c14.667 -5.33301 26 -11.333 34 -18c7.33301 -6 11 -17.333 11 -34
c-4 -20 -13.167 -32.833 -27.5 -38.5s-32.833 -8.5 -55.5 -8.5h-283c-19.333 0 -34.833 3 -46.5 9s-17.5 18.667 -17.5 38c3.33301 15.333 10.333 26 21 32c10 6.66699 24.333 12.667 43 18c26.667 7.33301 45.667 15 57 23s19.166 18 23.499 30s10.166 34.333 17.499 67
l240 1137c0 15.333 -4.33301 25.5 -13 30.5s-23 10.5 -43 16.5c-16.667 6 -28.667 12.167 -36 18.5s-11 17.833 -11 34.5c5.33301 20 15.333 32.5 30 37.5s33.667 7.5 57 7.5h1358c40.667 0 61 -15 61 -45c-3.33301 -15.333 -10 -26.333 -20 -33s-23.667 -12.667 -41 -18
c-40 -10 -64.333 -21.333 -73 -34s-18 -41.667 -28 -87l-237 -1118c0 -26.667 8.66699 -45 26 -55l21 -10l16 -11c14 -7.33301 23.667 -13.333 29 -18c5.33301 -4 8 -11.667 8 -23c-4 -19.333 -13 -32 -27 -38s-32.333 -9 -55 -9h-289c-20 0 -35.5 2.83301 -46.5 8.5
s-16.5 18.5 -16.5 38.5c4 22 24.333 38.667 61 50c28 7.33301 47.833 15 59.5 23s19.5 18 23.5 30c4.66699 12 10.667 34.333 18 67l239 1129c0 15.333 -5.66699 26.833 -17 34.5s-24.666 11.5 -39.999 11.5h-747z" />
    <glyph glyph-name="emdash" unicode="&#xd0;" horiz-adv-x="1270" 
d="M398 62c0 -14.667 5.00098 -24.6709 15.001 -30.0039c10.667 -5.33301 26 -10.333 46 -15c17.333 -6 30.166 -11.833 38.499 -17.5s12.5 -17.167 12.5 -34.5c-7.33301 -31.333 -35.333 -47 -84 -47h-286c-20.667 0 -36.5 2.83301 -47.5 8.5s-16.5 18.5 -16.5 38.5
c2.66699 14.667 8.5 25 17.5 31s22.833 12.333 41.5 19c28.667 9.33301 48 17.666 58 24.999s16.667 16 20 26s9 33 17 69l241 1139c0 14 -4.66699 23.333 -14 28c-9.33301 5.33301 -23.666 11 -42.999 17c-15.333 4 -26.666 9.33301 -33.999 16s-11 18.334 -11 35.001
c6 31.333 33.333 47 82 47h532c76.667 0 143.667 -4.66699 201 -14s108.666 -27.666 153.999 -54.999c95.333 -54 143 -134.667 143 -242c0 -29.333 -2.66699 -56.666 -8 -81.999c-20 -93.333 -67.667 -177.166 -143 -251.499s-163.333 -133.833 -264 -178.5
c-86 -38 -175.833 -64.167 -269.5 -78.5s-195.834 -22.166 -306.501 -23.499zM512.001 597.996c76 0 153.833 7.16602 233.5 21.499s155.5 37.333 227.5 69s134 73.834 186 126.501s85.667 115.667 101 189c4 18 6 37 6 57c0 78 -30 140 -90 186
c-34 25.333 -73.333 42 -118 50c-44.667 8.66699 -97 13 -157 13c-90 0 -153.333 -8.66699 -190 -26c-28 -12 -46.5 -27 -55.5 -45s-17.833 -46.667 -26.5 -86z" />
    <glyph glyph-name="endash" unicode="&#xd1;" horiz-adv-x="1475" 
d="M1643 1043c-10.667 -46.667 -33.333 -70 -68 -70c-9.33301 0 -17 4.33301 -23 13c-5.33301 8 -9.33301 18 -12 30l-8 35c-13.333 50.667 -28 91.667 -44 123s-40.333 60.666 -73 87.999c-64.667 54 -146.334 81 -245.001 81c-88 0 -169.833 -17.667 -245.5 -53
s-149.5 -88.333 -221.5 -159c-137.333 -132.667 -224 -285.667 -260 -459c-14 -64.667 -21 -129 -21 -193c0 -101.333 17 -188.666 51 -261.999c72.667 -142 206 -213 400 -213c86 0 166.333 16.5 241 49.5s152.667 82.833 234 149.5c0.666992 0.666992 8 7.33398 22 20.001
s26 21.667 36 27s20 8 30 8c23.333 0 35 -16.333 35 -49c-6 -29.333 -38.333 -66.666 -97 -111.999c-58 -45.333 -109 -79.666 -153 -102.999c-61.333 -34.667 -127.333 -61.334 -198 -80.001c-71.333 -18 -140.666 -27 -207.999 -27c-87.333 0 -168.5 13.667 -243.5 41
s-140 66.333 -195 117s-97.333 111 -127 181s-44.5 146.333 -44.5 229c0 56 5.33301 108 16 156c24 109.333 67 214.666 129 315.999s137.833 191.166 227.5 269.499s188.167 139.833 295.5 184.5s216.333 67 327 67c135.333 0 259 -32 371 -96
c56 -36.667 88 -62.667 96 -78c4 -9.33301 6 -37.333 6 -84z" />
    <glyph glyph-name="quotedblleft" unicode="&#xd2;" horiz-adv-x="1311" 
d="M776 64c0 -10.667 2.66992 -18.667 8.00293 -24c6 -6 12 -10.333 18 -13l29 -10c16 -5.33301 28 -11.333 36 -18c7.33301 -6 11 -17.333 11 -34c-4 -20 -13.167 -32.833 -27.5 -38.5s-32.833 -8.5 -55.5 -8.5h-285c-42.667 0 -64 15.667 -64 47
c4 22.667 25.333 39.334 64 50.001c26.667 7.33301 45.667 15 57 23s19.166 18 23.499 30s10.166 34.333 17.499 67l223 1051c8.66699 45.333 13 71.333 13 78c0 18.667 -5.5 31.5 -16.5 38.5s-30.833 10.5 -59.5 10.5c-46 0 -104 -6.66699 -174 -20
c-39.333 -8 -72.166 -19.167 -98.499 -33.5s-62.5 -37.5 -108.5 -69.5c-0.666992 -0.666992 -6.66699 -5.5 -18 -14.5s-21.333 -16 -30 -21s-17 -7.5 -25 -7.5c-22.667 0 -34 15.667 -34 47c1.33301 6 4 13.833 8 23.5s7 17.5 9 23.5c0.666992 3.33301 5 16.666 13 39.999
c8 24 16 45.333 24 64s17.333 35.334 28 50.001c11.333 14.667 22.666 22 33.999 22h1136c19.333 -3.33301 31 -7.33301 35 -12c5.33301 -6.66699 8 -31.334 8 -74.001c0 -44.667 -0.666992 -71.667 -2 -81c0 -24.667 -0.666992 -42.667 -2 -54
c-8 -28.667 -23.667 -43 -47 -43c-8.66699 0 -16.334 2.16699 -23.001 6.5s-13 9.83301 -19 16.5s-11.667 12.667 -17 18c-31.333 30 -54.833 50.833 -70.5 62.5s-39.5 22.167 -71.5 31.5c-49.333 16.667 -106 25 -170 25c-37.333 0 -64.5 -3.66699 -81.5 -11
s-28.5 -19 -34.5 -35c-6 -15.333 -14.333 -46.333 -25 -93z" />
    <glyph glyph-name="quotedblright" unicode="&#xd3;" horiz-adv-x="1434" 
d="M419 1204c0 60.667 -17.998 102.329 -53.998 124.996c-7.33301 6 -13.333 11.167 -18 15.5s-8.66699 8.83301 -12 13.5c-3.33301 5.33301 -5 11.666 -5 18.999c3.33301 18 10.666 29.667 21.999 35s29.333 8 54 8h289c38 0 57 -13 57 -39c-2 -14 -15.333 -28.667 -40 -44
s-44.834 -31.666 -60.501 -48.999s-25.834 -46.666 -30.501 -87.999c0 -69.333 5.66699 -146.333 17 -231c10 -84 22 -148.333 36 -193c20.667 -67.333 56.167 -129.5 106.5 -186.5s101.5 -85.5 153.5 -85.5c46.667 0 90 20 130 60s84 95 132 165
c136 198.667 216.667 346.334 242 443.001c8.66699 32 13 58.667 13 80c0 20.667 -3.5 36.667 -10.5 48s-16.833 21.833 -29.5 31.5s-21.5 17.167 -26.5 22.5s-7.5 15 -7.5 29c6.66699 24.667 29.667 37 69 37h236c35.333 0 53 -11 53 -33
c-2.66699 -13.333 -7.33398 -24.333 -14.001 -33c-10 -10 -21.333 -20.667 -34 -32c-12.667 -10.667 -23.334 -22 -32.001 -34s-18.667 -29 -30 -51c-49.333 -98.667 -104.666 -199.667 -165.999 -303s-127.666 -206.666 -198.999 -309.999
c-70.667 -103.333 -143 -202 -217 -296c-67.333 -84 -135.666 -159.167 -204.999 -225.5s-145 -120.833 -227 -163.5s-167.333 -64 -256 -64c-86 0 -129 31.333 -129 94c7.33301 22 23 41.167 47 57.5s48.333 24.5 73 24.5c14.667 0 37.334 -3 68.001 -9
s55.334 -9 74.001 -9c52.667 0 109 19.833 169 59.5s115.5 86 166.5 139s98.167 107.5 141.5 163.5c-26 -8.66699 -53.333 -13 -82 -13c-70 0 -138.5 21.833 -205.5 65.5s-117.833 103.167 -152.5 178.5c-30.667 67.333 -55.834 152.833 -75.501 256.5
s-29.834 210.834 -30.501 321.501z" />
    <glyph glyph-name="quoteleft" unicode="&#xd4;" horiz-adv-x="1843" 
d="M783 -82c-8 -5.33301 -16.999 -7.99609 -26.999 -7.99609c-24.667 0 -37 18.333 -37 55c4 15.333 11 26 21 32c9.33301 6.66699 24.333 13.334 45 20.001c10 3.33301 19 6.16602 27 8.49902s15 5.16602 21 8.49902c6.66699 2.66699 12.5 6.5 17.5 11.5
s8.16699 11.167 9.5 18.5l25 119c-58.667 0 -105 1.33301 -139 4c-153.333 18.667 -282.166 67.667 -386.499 147s-156.5 179 -156.5 299c0 30.667 2.66699 58.667 8 84c22.667 108 71.167 195.667 145.5 263s172.833 116.166 295.5 146.499s270.667 45.5 444 45.5l12 57
c5.33301 24 8 38.333 8 43c0 11.333 -4 20.333 -12 27s-23.667 14 -47 22c-13.333 6 -23.166 11.833 -29.499 17.5s-9.5 16.834 -9.5 33.501c4 19.333 12.833 31.666 26.5 36.999s32.167 8 55.5 8h283c19.333 0 34.333 -2.5 45 -7.5s16 -17.5 16 -37.5
c-3.33301 -15.333 -9.33301 -26 -18 -32s-22.334 -12.333 -41.001 -19c-38.667 -10.667 -62 -20.834 -70 -30.501s-15.333 -29.834 -22 -60.501l-13 -58c152.667 0 281.167 -12 385.5 -36s183.333 -62.333 237 -115s80.5 -120.667 80.5 -204
c0 -36.667 -3.33301 -70 -10 -100c-20 -95.333 -68.5 -181 -145.5 -257s-169.667 -137.167 -278 -183.5s-220.5 -76.166 -336.5 -89.499c-23.333 -2 -49.333 -3 -78 -3c-29.333 -0.666992 -51.333 -1 -66 -1l-24 -119c0 -7.33301 1.66699 -13.5 5 -18.5
s7.16602 -8.83301 11.499 -11.5s11 -5.83398 20 -9.50098l18.5 -7.5c14.667 -5.33301 26 -11.333 34 -18c7.33301 -6 11 -17.333 11 -34c-4 -16 -12.333 -29.5 -25 -40.5s-25.334 -16.5 -38.001 -16.5c-7.33301 0 -14.333 3.33301 -21 10h-278zM1073 1063
c-114 0 -211.001 -9.33105 -291.001 -27.998s-145.167 -44.834 -195.5 -78.501s-88.166 -71.834 -113.499 -114.501c-26.667 -42.667 -45.667 -91 -57 -145c-4 -18.667 -6 -37.334 -6 -56.001c0 -65.333 24.667 -125 74 -179c50 -53.333 114 -95.166 192 -125.499
s156 -45.5 234 -45.5zM1094 291.006c63.333 0 131.169 10 203.502 30s141.666 48.5 207.999 85.5s122.166 80.833 167.499 131.5c46 50 75 103 87 159c6.66699 32.667 10 62 10 88c0 86.667 -38.667 154.667 -116 204c-76.667 49.333 -208.667 74 -396 74z" />
    <glyph glyph-name="quoteright" unicode="&#xd5;" horiz-adv-x="1434" 
d="M783 541c-74.667 -74 -160.667 -164.333 -258 -271s-149.666 -176 -156.999 -208c0 -12.667 2.66699 -22.5 8 -29.5s14 -14.167 26 -21.5c11.333 -8.66699 20.166 -16.667 26.499 -24s9.5 -17.333 9.5 -30c-5.33301 -26 -29.666 -39 -72.999 -39h-262
c-24.667 0 -44 2.16699 -58 6.5s-21 15.166 -21 32.499c5.33301 18.667 14.333 31 27 37c12 6.66699 33 14.334 63 23.001c30.667 10 57.167 25.667 79.5 47s48.5 50.666 78.5 87.999l182 198l289 304c-30 42 -59.333 86.667 -88 134c-28 46.667 -55 96.5 -81 149.5
s-49 103.167 -69 150.5c-19.333 46.667 -39.666 98.334 -60.999 155.001c-7.33301 21.333 -15.333 37.666 -24 48.999c-8.66699 12 -21.667 21.667 -39 29c-16.667 7.33301 -29 14.666 -37 21.999s-12 20 -12 38c4.66699 24 30 36 76 36h287c42 0 63 -10.667 63 -32
c-2 -10.667 -5 -17.667 -9 -21s-14.667 -9.33301 -32 -18c-21.333 -10 -36.333 -18.667 -45 -26c-8.66699 -6.66699 -15 -18.667 -19 -36c0 -40.667 14.667 -92.167 44 -154.5s59.166 -117.666 89.499 -165.999l108.5 -166.5l242 235c56 56 101 103 135 141
s53.667 70.333 59 97c0 17.333 -4 30.666 -12 39.999s-19.833 18.5 -35.5 27.5s-26.667 16.5 -33 22.5s-9.5 15.667 -9.5 29c3.33301 18.667 23.333 28 60 28h297c38 0 57 -11.333 57 -34c-4.66699 -21.333 -22.334 -38.666 -53.001 -51.999
c-34.667 -10.667 -62.667 -25.667 -84 -45c-14.667 -13.333 -35 -35 -61 -65l-74 -86l-416 -424c66 -89.333 123 -172 171 -248c48 -75.333 87.333 -151.666 118 -228.999l41 -109c15.333 -32.667 28.833 -55.834 40.5 -69.501s31.5 -25.834 59.5 -36.501
c30 -11.333 45 -30.666 45 -57.999c-4.66699 -28.667 -29.334 -43 -74.001 -43h-315c-39.333 0 -59 13 -59 39c3.33301 16 14 28.333 32 37l54 25c18.667 8 29.334 19.333 32.001 34c0 30.667 -19.5 81.834 -58.5 153.501s-83.5 144.667 -133.5 219
s-85.667 122.5 -107 144.5z" />
    <glyph glyph-name="divide" unicode="&#xd6;" horiz-adv-x="1639" 
d="M135 -82c-19.333 0 -34.8262 3 -46.4932 9s-17.5 18.667 -17.5 38c3.33301 15.333 10.333 26 21 32c10 6.66699 24.333 12.667 43 18c26.667 7.33301 45.667 15 57 23s19.166 18 23.499 30s10.166 34.333 17.499 67l240 1137c0 15.333 -4.5 25.5 -13.5 30.5
s-22.833 10.5 -41.5 16.5c-16.667 6 -28.834 12.167 -36.501 18.5s-11.5 17.833 -11.5 34.5c5.33301 20 15.333 32.5 30 37.5s33.667 7.5 57 7.5h283c40.667 0 61 -15 61 -45c-4 -15.333 -10.333 -26 -19 -32s-22.334 -12.333 -41.001 -19
c-27.333 -8 -46.5 -15.833 -57.5 -23.5s-18.833 -17.5 -23.5 -29.5c-4 -12 -9.66699 -34.667 -17 -68l-242 -1134c0 -27.333 14 -41 42 -41h774c13.333 0 29.166 8.33301 47.499 25s31.833 45.334 40.5 86.001l241 1138c0 15.333 -5.83301 26.666 -17.5 33.999
s-25.5 11 -41.5 11c-16 6 -27.333 12 -34 18c-7.33301 6.66699 -11 18.334 -11 35.001c6 30 33.333 45 82 45h291c40.667 0 61 -15 61 -45c-3.33301 -15.333 -10 -26.333 -20 -33s-23.667 -12.667 -41 -18c-40 -10 -64.333 -21.333 -73 -34s-18 -41.667 -28 -87l-237 -1118
c0 -20.667 3.33301 -34.834 10 -42.501s12 -11.834 16 -12.501l31 -4c18 0 30.333 -4.33301 37 -13c5.33301 -9.33301 8 -36 8 -80c0 -31.333 -1.33301 -56.666 -4 -75.999c-0.666992 -5.33301 -1 -14 -1 -26c0 -12.667 -0.333008 -21.667 -1 -27
c-4.66699 -28.667 -20.334 -43 -47.001 -43c-8 0 -15.333 2 -22 6s-13 9.5 -19 16.5l-16 18.5c-30 29.333 -53.5 50 -70.5 62s-41.5 22.667 -73.5 32c-48.667 16.667 -105.334 25 -170.001 25h-1020z" />
    <glyph glyph-name="lozenge" unicode="&#xd7;" horiz-adv-x="1475" 
d="M361 848c16 70.667 35.3291 147.831 57.9961 231.498l53 192.5c0 18.667 -18.667 34.334 -56 47.001c-16.667 6 -28.667 12.167 -36 18.5s-11 17.833 -11 34.5c4.66699 20 14.334 32.5 29.001 37.5s33.667 7.5 57 7.5h283c40.667 0 61 -15 61 -45
c-4 -15.333 -10.167 -26 -18.5 -32s-21.833 -12.333 -40.5 -19c-37.333 -10.667 -60 -22 -68 -34c-8 -11.333 -18.333 -40.333 -31 -87l-48 -166c-20.667 -73.333 -36.334 -135.333 -47.001 -186c-4.66699 -17.333 -7 -34.333 -7 -51c0 -66 27 -118.333 81 -157
s126.667 -58 218 -58c56.667 0 116.334 9.83301 179.001 29.5s114.834 39.5 156.501 59.5s71.167 34.667 88.5 44l119 559c0 14.667 -5.33301 24.667 -16 30c-10 6 -24.667 11 -44 15c-16 6 -27.333 12 -34 18c-7.33301 6.66699 -11 18.334 -11 35.001c6 30 33.333 45 82 45
h291c40.667 0 61 -15 61 -45c-5.33301 -24 -25.666 -41 -60.999 -51c-28.667 -7.33301 -49 -15 -61 -23c-11.333 -8 -19 -17.333 -23 -28c-3.33301 -10.667 -8.66602 -34 -15.999 -70l-238 -1118c0 -26.667 9 -45 27 -55l20 -10l16 -11c14 -7.33301 23.667 -13.333 29 -18
c5.33301 -4 8 -11.667 8 -23c-6.66699 -31.333 -34 -47 -82 -47h-288c-20.667 0 -36.5 2.83301 -47.5 8.5s-16.5 18.5 -16.5 38.5c2.66699 14.667 9.16699 25.334 19.5 32.001s24.5 12.667 42.5 18c28 7.33301 47.667 15 59 23s19 17.333 23 28s10 33.667 18 69l98 463
c-42 -22.667 -110.5 -51.5 -205.5 -86.5s-192.833 -52.5 -293.5 -52.5c-75.333 0 -142 12 -200 36s-103.333 59.333 -136 106s-49 101.667 -49 165c0 29.333 2.66699 56.666 8 81.999z" />
    <glyph glyph-name="ydieresis" unicode="&#xd8;" horiz-adv-x="1966" 
d="M865 25c24.667 8.66699 40.0029 19.333 46.0029 32s13 38.667 21 78l242 1139c0 14 -4.83301 23.5 -14.5 28.5s-23.834 10.5 -42.501 16.5c-16 6 -27.667 12 -35 18c-6.66699 6.66699 -10 18.334 -10 35.001c4.66699 20 14 32.5 28 37.5s32.333 7.5 55 7.5h283
c41.333 0 62 -15 62 -45c-4 -15.333 -10.167 -26 -18.5 -32s-22.166 -12.333 -41.499 -19c-38.667 -10.667 -62 -22 -70 -34c-8 -11.333 -17.333 -40.333 -28 -87l-241 -1136c0 -16 10.667 -29 32 -39h411c22 0 40 7.33301 54 22c14 15.333 25.667 44.666 35 87.999
l242 1139c0 15.333 -6 26.666 -18 33.999s-26 11 -42 11c-16 6 -27.333 12 -34 18c-7.33301 6.66699 -11 18.334 -11 35.001c5.33301 30 32.666 45 81.999 45h290c41.333 0 62 -15 62 -45c-5.33301 -24 -25.666 -41 -61 -51c-28.667 -7.33301 -49 -15 -61 -23
c-11.333 -8 -19 -17.333 -23 -28c-3.33301 -10.667 -8.66602 -34 -16 -70l-238 -1118c0 -26.667 9 -45 27 -55l20 -10l17 -11c14 -8 23.5 -14 28.5 -18s7.5 -11.667 7.5 -23c-4 -16 -13.5 -29.833 -28.5 -41.5s-28.167 -17.5 -39.5 -17.5c-9.33301 0 -14 4 -14 12h-238
h-1214h-236c-4 -8 -10 -12 -18 -12c-11.333 0 -21.666 5.5 -30.999 16.5s-14 25.167 -14 42.5c3.33301 15.333 10.333 26 21 32c10 6.66699 24.333 12.667 43 18c26.667 7.33301 45.667 15 57 23s19.166 18 23.499 30s10.166 34.333 17.499 67l240 1137
c0 15.333 -4.5 25.5 -13.5 30.5s-22.833 10.5 -41.5 16.5c-16.667 6 -28.834 12.167 -36.501 18.5s-11.5 17.833 -11.5 34.5c4.66699 20 14.334 32.5 29.001 37.5s33.667 7.5 57 7.5h283c41.333 0 62 -15 62 -45c-4 -15.333 -10.333 -26 -19 -32
s-22.334 -12.333 -41.001 -19c-27.333 -8 -46.5 -15.833 -57.5 -23.5s-18.833 -17.5 -23.5 -29.5c-4 -12 -9.66699 -34.667 -17 -68l-242 -1134c0 -27.333 13.667 -41 41 -41h422z" />
    <glyph glyph-name="Ydieresis" unicode="&#xd9;" horiz-adv-x="1966" 
d="M136 -82c-19.333 0 -34.8311 2.99902 -46.498 8.99902s-17.5 18.667 -17.5 38c3.33301 15.333 10.333 26 21 32c10 6.66699 24.333 12.667 43 18c26.667 7.33301 45.667 15 57 23s19.166 18 23.499 30s10.166 34.333 17.499 67l240 1137c0 15.333 -4.5 25.5 -13.5 30.5
s-22.833 10.5 -41.5 16.5c-16.667 6 -28.834 12.167 -36.501 18.5s-11.5 17.833 -11.5 34.5c4.66699 20 14.334 32.5 29.001 37.5s33.667 7.5 57 7.5h283c41.333 0 62 -15 62 -45c-4 -15.333 -10.333 -26 -19 -32s-22.334 -12.333 -41.001 -19
c-27.333 -8 -46.5 -15.833 -57.5 -23.5s-18.833 -17.5 -23.5 -29.5c-4 -12 -9.66699 -34.667 -17 -68l-242 -1134c0 -27.333 13.667 -41 41 -41h422c24.667 8.66699 40 19.334 46 32.001s13 39 21 79l242 1138c0 14 -4.83301 23.5 -14.5 28.5s-23.834 10.5 -42.501 16.5
c-16 6 -27.667 12 -35 18c-6.66699 6.66699 -10 18.334 -10 35.001c4.66699 20 14 32.5 28 37.5s32.333 7.5 55 7.5h283c41.333 0 62 -15 62 -45c-4 -15.333 -10.167 -26 -18.5 -32s-22.166 -12.333 -41.499 -19c-38.667 -10.667 -62 -22 -70 -34
c-8 -11.333 -17.333 -40.333 -28 -87l-241 -1136c0 -26 10.667 -39 32 -39h411c22 0 40 7.5 54 22.5s25.667 44.5 35 88.5l242 1138c0 15.333 -6 26.666 -18 33.999s-26 11 -42 11c-16 6 -27.333 12 -34 18c-7.33301 6.66699 -11 18.334 -11 35.001
c5.33301 30 32.666 45 81.999 45h290c41.333 0 62 -15 62 -45c-5.33301 -24 -25.666 -41 -61 -51c-28.667 -7.33301 -49 -15 -61 -23c-11.333 -8 -19 -17.333 -23 -28c-3.33301 -10.667 -8.66602 -34 -15.999 -70l-238 -1118c0 -20.667 3.33301 -34.834 10 -42.501
s12.334 -11.834 17.001 -12.501l30 -4c18.667 0 30.834 -4.5 36.501 -13.5s8.5 -35.5 8.5 -79.5c0 -31.333 -1.33301 -56.666 -4 -75.999c-0.666992 -5.33301 -1 -14 -1 -26c0 -12.667 -0.333008 -21.667 -1 -27c-5.33301 -28.667 -21 -43 -47 -43
c-8.66699 0 -16.334 2.16699 -23.001 6.5s-13 9.83301 -19 16.5l-16 18c-30 29.333 -53.333 50 -70 62s-41 22.667 -73 32c-48 16.667 -104.333 25 -169 25h-1348z" />
    <glyph glyph-name="fraction" unicode="&#xda;" horiz-adv-x="1516" 
d="M637 1313c-38 0 -75.334 -5.33398 -112.001 -16.001c-44 -14 -78.5 -27.667 -103.5 -41s-59.5 -35.333 -103.5 -66l-23 -18c-8.66699 -6.66699 -17.5 -12.5 -26.5 -17.5s-17.167 -7.5 -24.5 -7.5c-22 0 -33 15.667 -33 47c2 6.66699 5 15 9 25
c4.66699 10.667 7.33398 18 8.00098 22l31 71c12 26 25.5 50 40.5 72s30.5 33 46.5 33h351h286c20.667 0 36.334 -2.66699 47.001 -8c11.333 -5.33301 17 -18.333 17 -39c-3.33301 -16 -10.833 -27.167 -22.5 -33.5s-28.834 -12.166 -51.501 -17.499
c-15.333 0 -32.5 -7.16699 -51.5 -21.5s-29.833 -28.833 -32.5 -43.5l-88 -410c108 0 206.333 -7.33301 295 -22s167.667 -41.334 237 -80.001s126 -88 170 -148c42.667 -60.667 64 -128.334 64 -203.001c0 -29.333 -2.66699 -55.666 -8 -78.999
c-31.333 -147.333 -122.333 -255.666 -273 -324.999c-59.333 -28 -119 -46.5 -179 -55.5s-128.667 -13.5 -206 -13.5h-532c-19.333 0 -34.5 3 -45.5 9s-16.5 18.667 -16.5 38c4 16.667 11.333 28 22 34c10.667 6.66699 26 12.667 46 18c26 6.66699 44.333 12.667 55 18
c11.333 4.66699 18.333 13.667 21 27l241 1138c6 26 9 45.333 9 58c0 36.667 -21.333 55 -64 55zM659.999 182.999l-6.99707 -35.999c-2.66699 -13.333 -4 -24 -4 -32c0 -28 12.333 -49.333 37 -64c30 -17.333 89.667 -26 179 -26c124.667 0 225.667 21 303 63
c47.333 28 87.666 63.333 120.999 106s55 88.667 65 138c5.33301 21.333 8 44.666 8 69.999c0 62 -18.333 115 -55 159s-84.334 78.833 -143.001 104.5s-121.334 44.167 -188.001 55.5s-132.667 17 -198 17z" />
    <glyph glyph-name="currency" unicode="&#xdb;" horiz-adv-x="1802" 
d="M1721 1274c0 14 -4.99902 23.6641 -14.999 28.9971c-9.33301 4.66699 -23.666 10 -42.999 16c-16 6 -27.333 12 -34 18c-7.33301 6.66699 -11 18.334 -11 35.001c4.66699 20 14 32.5 28 37.5s32.667 7.5 56 7.5h283c40.667 0 61 -15 61 -45
c-3.33301 -15.333 -9.33301 -26 -18 -32s-22.334 -12.333 -41.001 -19c-28 -8 -47.5 -15.833 -58.5 -23.5s-18.167 -16.5 -21.5 -26.5s-9.33301 -33.667 -18 -71l-242 -1136c0 -9.33301 2.66699 -17 8 -23c6 -5.33301 12.667 -9.66602 20 -12.999l27 -11
c14.667 -5.33301 26 -11.333 34 -18c7.33301 -6 11 -17.333 11 -34c-4 -20 -13.167 -32.833 -27.5 -38.5s-33.166 -8.5 -56.499 -8.5h-282c-20 0 -35.667 2.83301 -47 8.5s-17 18.5 -17 38.5c4 22.667 25.333 39.334 64 50.001c26.667 7.33301 45.667 15 57 23
s19.166 18 23.499 30s10.166 34.333 17.499 67zM563.001 843.997c108 -0.666992 206.661 -8.33496 295.994 -23.002s168.333 -41 237 -79c70 -39.333 126.333 -88.833 169 -148.5s64 -127.167 64 -202.5c0 -29.333 -2.66699 -55.666 -8 -78.999
c-15.333 -72.667 -46.666 -136.667 -93.999 -192c-46.667 -55.333 -106 -99.666 -178 -132.999c-59.333 -28 -119.166 -46.5 -179.499 -55.5s-128.833 -13.5 -205.5 -13.5h-533c-18.667 0 -33.667 3 -45 9c-10.667 6 -16 18.667 -16 38c4 16.667 11.333 28 22 34
c10 6.66699 25 12.667 45 18c26.667 7.33301 45.334 13.333 56.001 18s17.334 13.667 20.001 27l242 1138c9.33301 38 14 62 14 72c0 11.333 -4 20.333 -12 27s-22.333 14 -43 22c-14 6 -24 11.833 -30 17.5s-9 16.167 -9 31.5c6 31.333 34 47 84 47h287
c20 0 35.5 -2.66699 46.5 -8s16.5 -18.333 16.5 -39c-3.33301 -16 -10.666 -27 -21.999 -33s-28.666 -12 -51.999 -18c-48.667 -10 -75 -25 -79 -45zM421.995 182.996c-1.33301 -10.667 -3.33203 -22.667 -5.99902 -36s-4 -24 -4 -32c0 -28 12.333 -49.333 37 -64
c29.333 -17.333 88.666 -26 177.999 -26c59.333 0 113.333 4.33301 162 13s95.667 25.334 141 50.001c48 28 88.5 63.333 121.5 106s54.5 88.667 64.5 138c5.33301 21.333 8 45.333 8 72c0 78 -29 142.167 -87 192.5s-131.333 86.166 -220 107.499
c-88.667 22 -180.667 33 -276 33z" />
    <glyph glyph-name="guilsinglleft" unicode="&#xdc;" horiz-adv-x="1270" 
d="M563 844c108 -0.666992 206.661 -8.33496 295.994 -23.002s168.333 -41 237 -79c70 -39.333 126.333 -88.833 169 -148.5s64 -127.167 64 -202.5c0 -29.333 -2.66699 -55.666 -8 -78.999c-15.333 -72.667 -46.666 -136.667 -93.999 -192
c-46.667 -55.333 -106 -99.666 -178 -132.999c-59.333 -28 -119.166 -46.5 -179.499 -55.5s-128.833 -13.5 -205.5 -13.5h-533c-18.667 0 -33.667 3 -45 9c-10.667 6 -16 18.667 -16 38c4 16.667 11.333 28 22 34c10 6.66699 25 12.667 45 18
c26.667 7.33301 45.334 13.333 56.001 18s17.334 13.667 20.001 27l242 1138c9.33301 38 14 62 14 72c0 11.333 -4 20.333 -12 27s-22.333 14 -43 22c-14 6 -24 11.833 -30 17.5s-9 16.167 -9 31.5c6 31.333 34 47 84 47h287c20 0 35.5 -2.66699 46.5 -8
s16.5 -18.333 16.5 -39c-3.33301 -16 -10.666 -27 -21.999 -33s-28.666 -12 -51.999 -18c-48.667 -10 -75 -25 -79 -45zM421.994 182.999c-1.33301 -10.667 -3.33203 -22.667 -5.99902 -36s-4 -24 -4 -32c0 -28 12.333 -49.333 37 -64
c29.333 -17.333 88.666 -26 177.999 -26c59.333 0 113.333 4.33301 162 13s95.667 25.334 141 50.001c48 28 88.5 63.333 121.5 106s54.5 88.667 64.5 138c5.33301 21.333 8 45.333 8 72c0 78 -29 142.167 -87 192.5s-131.333 86.166 -220 107.499
c-88.667 22 -180.667 33 -276 33z" />
    <glyph glyph-name="guilsinglright" unicode="&#xdd;" horiz-adv-x="1475" 
d="M1364 760c2.66699 18 4 43.9961 4 77.9961c0 106.667 -27.333 204.334 -82 293.001c-42.667 71.333 -94.334 124.666 -155.001 159.999c-60 34.667 -133.667 52 -221 52c-100 0 -194.333 -27 -283 -81c-42.667 -27.333 -77.667 -55.833 -105 -85.5s-60 -71.5 -98 -125.5
l-25 -36c-8 -11.333 -16.667 -21.166 -26 -29.499s-19 -12.5 -29 -12.5c-26 0 -39 13.667 -39 41c0 5.33301 1.33301 15 4 29l31 147c6.66699 32 21 60 43 84c14.667 17.333 57.667 43.333 129 78c136.667 64 274 96 412 96c127.333 0 239.666 -29.167 336.999 -87.5
s172.333 -138 225 -239s79 -211.833 79 -332.5c0 -60.667 -6 -120 -18 -178c-22 -102.667 -62 -198.5 -120 -287.5s-128.333 -165.833 -211 -230.5c-82.667 -66 -173 -117 -271 -153c-98.667 -35.333 -198.667 -53 -300 -53c-66.667 0 -131.334 9 -194.001 27
c-63.333 18.667 -118.666 45.334 -165.999 80.001c-32 22 -66.667 54.667 -104 98s-56 82.333 -56 117c3.33301 14 10 25.667 20 35c10.667 9.33301 22.334 14 35.001 14c10 0 19.167 -2.66699 27.5 -8s15.5 -12.166 21.5 -20.499l19 -26.5
c51.333 -66.667 107.333 -116.5 168 -149.5s134.334 -49.5 221.001 -49.5c196 0 359.333 71 490 213c34 37.333 65.833 80.333 95.5 129s55.167 99 76.5 151c21.333 52.667 37 102.334 47 149.001h-742c-35.333 0 -53 15.333 -53 46c0 17.333 7 33 21 47s32.333 21 55 21
h737z" />
    <glyph glyph-name="fi" unicode="&#xde;" horiz-adv-x="2130" 
d="M740 678l-208.998 2.00293l-131 -616c0 -9.33301 2.66699 -16.833 8 -22.5s12.166 -10.334 20.499 -14.001s17.166 -7.16699 26.499 -10.5c14.667 -5.33301 25.667 -11.333 33 -18c8 -6 12 -17.333 12 -34c-4.66699 -20 -14 -32.667 -28 -38
c-14.667 -6.66699 -33.334 -10 -56.001 -10h-283c-19.333 0 -34.666 3.16699 -45.999 9.5s-17 19.166 -17 38.499c3.33301 15.333 10 26 20 32c10 6.66699 24.333 12.667 43 18c27.333 7.33301 46.666 15 57.999 23s19 18 23 30c4.66699 12 10.667 34.333 18 67l239 1137
c0 15.333 -4.16699 25.5 -12.5 30.5s-22.5 10.5 -42.5 16.5c-16.667 6 -28.667 12.167 -36 18.5s-11 17.833 -11 34.5c4.66699 20 14.334 32.5 29.001 37.5s33.667 7.5 57 7.5h283c40.667 0 61 -15 61 -45c-4 -15.333 -10 -26.333 -18 -33
c-8.66699 -6 -22.334 -12 -41.001 -18c-27.333 -8 -46.666 -15.833 -57.999 -23.5s-19.166 -17.5 -23.499 -29.5s-10.166 -34.667 -17.499 -68l-88 -413l215 -2c33.333 94.667 78.166 182.167 134.499 262.5s122.166 150.5 197.499 210.5c76 60 159.667 106.667 251 140
s186.666 50 285.999 50c102 0 195.333 -19.333 280 -58s153.667 -94.334 207.001 -167.001c74 -95.333 111 -214.666 111 -357.999c0 -61.333 -7.33301 -129 -22 -203c-31.333 -144.667 -91.666 -276.334 -181 -395.001c-89.333 -118 -199 -211 -329 -279
c-130 -67.333 -267.667 -101 -413 -101c-208 0 -365.667 72.667 -473 218c-70.667 96.667 -106 212.667 -106 348c0 64.667 8.33301 133.667 25 207zM1780 211.003c110 117.333 183.999 264.334 221.999 441.001c16 80.667 24 153 24 217c0 102.667 -18 188 -54 256
c-32.667 66.667 -80.5 119 -143.5 157s-134.5 57 -214.5 57c-56 0 -111.333 -9.66699 -166 -29s-107 -47.333 -157 -84c-50 -36 -95.333 -78 -136 -126c-103.333 -118 -173.333 -264 -210 -438c-15.333 -70.667 -23 -136.334 -23 -197.001c0 -96 17.667 -181.333 53 -256
c32.667 -66.667 78.834 -119.167 138.501 -157.5s129.5 -57.5 209.5 -57.5c82 0 163 19.5 243 58.5s151.333 91.833 214 158.5z" />
    <glyph glyph-name="fl" unicode="&#xdf;" horiz-adv-x="1393" 
d="M1159 561l-319.002 59.998c-67.333 -56.667 -154.333 -148.334 -261 -275.001s-165.334 -216 -176.001 -268c0 -15.333 3.33301 -27.5 10 -36.5s16.334 -17.667 29.001 -26s22.334 -16.5 29.001 -24.5s10 -18 10 -30c-5.33301 -28.667 -35.333 -43 -90 -43h-303
c-18.667 0 -33.667 2.33301 -45 7c-10.667 4.66699 -16 16 -16 34c4 14.667 10 24.334 18 29.001s23 11.334 45 20.001c32 13.333 56.167 28 72.5 44s36.5 41.667 60.5 77l141.5 203c44.333 60.667 91 119.667 140 177s100.833 111 155.5 161
c-172.667 84.667 -259 195.334 -259 332.001c0 26 2.66699 49.667 8 71c26 116.667 96.667 207.667 212 273c82.667 47.333 189.667 71 321 71h637c20 0 35.667 -2.66699 47 -8s17 -18.333 17 -39c-3.33301 -16 -10.666 -27.167 -21.999 -33.5s-28 -12.166 -50 -17.499
c-26 -7.33301 -44.667 -13.5 -56 -18.5s-18.666 -14.5 -21.999 -28.5l-239 -1137c-8.66699 -41.333 -13 -64.333 -13 -69c0 -22 19.333 -39 58 -51c13.333 -4.66699 23.5 -10.334 30.5 -17.001s10.5 -18.334 10.5 -35.001c-7.33301 -30 -35.333 -45 -84 -45h-275
c-20.667 0 -36.667 2.66699 -48 8s-17 17.666 -17 36.999c3.33301 16 8.66602 26.333 15.999 31s23 12.334 47 23.001c2.66699 0.666992 11.334 3.33398 26.001 8.00098c15.333 4 26.666 8.83301 33.999 14.5s12 13.167 14 22.5zM1286 1157
c7.33301 39.333 11.002 63.999 11.002 73.999c0 25.333 -7 43 -21 53c-20.667 17.333 -80 26 -178 26c-286.667 0.666992 -448.334 -86.333 -485.001 -261c-4.66699 -22.667 -7 -42.667 -7 -60c0 -74.667 31 -133.667 93 -177s127.167 -73.166 195.5 -89.499
s164.166 -34.5 287.499 -54.5z" />
    <glyph glyph-name="daggerdbl" unicode="&#xe0;" horiz-adv-x="1024" 
d="M932 170c-10.667 -60 -16.002 -94.665 -16.002 -103.998c0 -10 1.33301 -19 4 -27c6 -13.333 21 -24.333 45 -33c23.333 -6.66699 35 -21 35 -43c-7.33301 -30.667 -38 -46 -92 -46h-91c-43.333 0 -65 14 -65 42c0 6.66699 4 30 12 70l12 51
c-108.667 -128.667 -236.334 -193 -383.001 -193c-83.333 0 -152.666 20 -207.999 60c-56.667 40 -85 96.667 -85 170c0 19.333 2 40.333 6 63c26.667 120 105.334 216.333 236.001 289c111.333 62.667 242.333 94 393 94l123 -6c0 81.333 -21.167 142.666 -63.5 183.999
s-98.166 62 -167.499 62c-38 0 -70 -4 -96 -12s-59 -22.333 -99 -43l-28.5 -16c-14.333 -8 -27.166 -14 -38.499 -18c-11.333 -3.33301 -22.333 -5 -33 -5c-32 0 -48 17 -48 51c6 28 39.667 57.333 101 88c83.333 35.333 170.666 53 261.999 53c124.667 0 221 -32 289 -96
c52 -50.667 78 -115.334 78 -194.001c0 -33.333 -4 -70.333 -12 -111zM749.998 471.002c-64 0 -130 -9.16699 -198 -27.5s-128.167 -48.5 -180.5 -90.5s-85.5 -96 -99.5 -162c-2.66699 -11.333 -4 -26.333 -4 -45c0 -35.333 10.333 -64 31 -86
c34.667 -38.667 79.667 -58 135 -58c90 0 171.333 26 244 78c38 28 66.333 59 85 93c18 34.667 32.667 76.667 44 126l35 166z" />
    <glyph glyph-name="periodcentered" unicode="&#xe1;" horiz-adv-x="1147" 
d="M359 713c61.333 55.333 129.996 100.501 205.996 135.501s149.333 52.5 220 52.5c78.667 0 149.334 -17 212.001 -51s111.667 -81.333 147 -142c34.667 -60 52 -128 52 -204c0 -39.333 -3.33301 -73.333 -10 -102c-20 -95.333 -61.167 -182.5 -123.5 -261.5
s-137.833 -141.167 -226.5 -186.5c-89.333 -44.667 -181.666 -67 -276.999 -67c-78.667 0 -148.167 17.167 -208.5 51.5s-107.166 83 -140.499 146s-50 134.5 -50 214.5c0 44.667 5 89.667 15 135c16.667 80.667 37 156.167 61 226.5s51.667 135.166 83 194.499
c30 59.333 62.333 110.833 97 154.5s71 79.167 109 106.5c42 30.667 85.667 54.667 131 72s96 31.5 152 42.5l152 30c45.333 9 86 19.833 122 32.5c51.333 18 89.333 52 114 102c12.667 20.667 31.334 31 56.001 31c24 0 36 -12.333 36 -37
c-11.333 -56 -42.833 -109 -94.5 -159s-114.167 -84.333 -187.5 -103l-289 -74c-99.333 -24 -180 -68.5 -242 -133.5s-100.667 -133.833 -116 -206.5zM876.996 121.001c74 75.333 122.334 169.668 145.001 283.001c8 36.667 12 72.667 12 108
c0 55.333 -10 104.833 -30 148.5s-50.667 78 -92 103s-92 37.5 -152 37.5c-75.333 0 -143.333 -19.333 -204 -58c-60 -38.667 -109.333 -89.667 -148 -153c-38.667 -62.667 -66 -131 -82 -205c-8 -38.667 -12 -75.334 -12 -110.001c0 -85.333 22.333 -154.333 67 -207
c45.333 -54 112.333 -81 201 -81c109.333 0 207.666 44.667 294.999 134z" />
    <glyph glyph-name="quotesinglbase" unicode="&#xe2;" horiz-adv-x="1024" 
d="M66 -39c6.66699 24.667 26.667 40.332 60 46.999c38.667 8.66699 61.667 28.667 69 60l142 670c0 38 -12.333 58.333 -37 61c-30 3.33301 -45 18.333 -45 45c4 20 11.5 32.167 22.5 36.5s28.5 6.5 52.5 6.5h487c84 0 146.333 -13 187 -39h2c49.333 -34 74 -79 74 -135
c0 -4.66699 -1.33301 -17.667 -4 -39c-18.667 -88.667 -96.667 -163 -234 -223c60.667 -14.667 110.667 -40.5 150 -77.5s59 -82.833 59 -137.5c0 -16 -2 -32.333 -6 -49c-17.333 -83.333 -75.333 -152.666 -174 -207.999c-75.333 -40.667 -168.333 -61 -279 -61h-471
c-36.667 0 -55 14.333 -55 43zM359 22.998c14.667 -8.66699 63 -12.999 145 -12.999c97.333 0 175.333 12.333 234 37c76 33.333 121 80.666 135 141.999c2.66699 16 4 27.333 4 34c0 46 -19.667 83 -59 111s-88 47 -146 57l-268 -55l-49 -237
c-6.66699 -32 -10 -49.333 -10 -52c0 -12.667 4.66699 -20.667 14 -24zM789 538.999c28.667 15.333 53.667 34.835 75 58.502s34.666 47.167 39.999 70.5c2.66699 15.333 4 25.666 4 30.999c0 41.333 -19.667 67.166 -59 77.499s-95 15.5 -167 15.5
c-91.333 0.666992 -147.333 -4 -168 -14c-12 -4 -22.667 -29.667 -32 -77l-55 -260c98.667 18.667 174.334 34 227.001 46s97.667 29.333 135 52z" />
    <glyph glyph-name="quotedblbase" unicode="&#xe3;" horiz-adv-x="817" 
d="M388 10c14.667 -4.66699 24.998 -9.33398 30.998 -14.001c6.66699 -5.33301 10 -17 10 -35c-5.33301 -28.667 -29.333 -43 -72 -43h-240c-18.667 0 -32 2.33301 -40 7c-7.33301 5.33301 -11 17.333 -11 36c7.33301 28.667 27.333 44.334 60 47.001
c14 1.33301 28 7.66602 42 18.999s23 25 27 41l140 659c2.66699 14 4 22.333 4 25c0 27.333 -18.667 43 -56 47c-18.667 3.33301 -28 17 -28 41c6 31.333 22.667 47 50 47h660c18.667 0 29.667 -4 33 -12c2 -6 4.66699 -34 8 -84c0 -31.333 -0.666992 -50.666 -2 -57.999
c-2.66699 -10 -8.66699 -19.333 -18 -28s-19.666 -13 -30.999 -13c-7.33301 0 -13.666 1.33301 -18.999 4s-10.666 6.83398 -15.999 12.501l-12 12.5c-30 27.333 -61 45.666 -93 54.999c-35.333 10.667 -119.333 16 -252 16c-40.667 0 -66.334 -24.333 -77.001 -73
l-137 -651c0 -28.667 13 -48 39 -58z" />
    <glyph glyph-name="perthousand" unicode="&#xe4;" horiz-adv-x="1065" 
d="M1010 -2c9.33301 -12.667 14 -37.333 14 -74c0 -32.667 -1.33301 -54.667 -4 -66c-2 -10 -7.5 -19.333 -16.5 -28s-19.167 -13 -30.5 -13c-7.33301 0 -14.333 1.66699 -21 5s-12 7 -16 11c-3.33301 4 -7.33301 8.33301 -12 13c-29.333 26 -59.333 44.5 -90 55.5
s-69.667 16.5 -117 16.5h-422c-90 0 -170.667 -24.667 -242 -74c-28.667 -20.667 -49.667 -31 -63 -31c-22 0 -33 15 -33 45c24 99.333 56 150 96 152c35.333 2.66699 61.333 20 78 52c136.667 271.333 278.667 498.666 426 681.999c5.33301 5.33301 8 12 8 20
c0 9.33301 -3.5 17.166 -10.5 23.499s-15.5 9.5 -25.5 9.5c-28.667 0 -43 15.667 -43 47c6.66699 28.667 31.667 43 75 43h590c35.333 0 53 -14.333 53 -43c-4 -21.333 -22.333 -38.333 -55 -51c-24 -8.66699 -40.333 -15.667 -49 -21s-14.667 -16.666 -18 -33.999
l-146 -680c0 -16.667 3.83301 -27.667 11.5 -33s19 -9.66602 34 -12.999s24.5 -8 28.5 -14zM719 10.001c15.333 0 29.5 5.66406 42.5 16.9971s21.5 25 25.5 41l141 674c0 32 -14.333 48 -43 48h-135c-16.667 0 -38.667 -13.667 -66 -41
c-44 -45.333 -89.667 -101.666 -137 -168.999c-47.333 -66.667 -91.333 -135.167 -132 -205.5s-75 -135.166 -103 -194.499s-45.333 -103.666 -52 -132.999c0 -24.667 15.667 -37 47 -37h412z" />
    <glyph glyph-name="Acircumflex" unicode="&#xe5;" horiz-adv-x="1024" 
d="M307 275c0 -82.667 26.3311 -148.5 78.998 -197.5s120.667 -73.5 204 -73.5c66 0 123 11.833 171 35.5s93.333 52.334 136 86.001s70 50.5 82 50.5c20.667 0 31 -12 31 -36c-5.33301 -25.333 -25 -53 -59 -83c-34 -29.333 -68.333 -54.666 -103 -75.999
c-108 -62.667 -213 -94 -315 -94c-77.333 0 -146 15.167 -206 45.5s-106.667 73.166 -140 128.499s-50 119 -50 191c0 38 3.66699 72.333 11 103c20.667 98 64.334 189.167 131.001 273.5s146.667 150.833 240 199.5s189.333 73 288 73
c84.667 0 150.334 -17.667 197.001 -53c58.667 -40.667 88 -95.334 88 -164.001c0 -18.667 -1.33301 -33 -4 -43c-26 -124 -127.667 -217.333 -305 -280c-33.333 -12 -67.5 -22.333 -102.5 -31s-70.833 -16 -107.5 -22s-78 -11.667 -124 -17s-79.667 -9.33301 -101 -12z
M319.998 369c93.333 8.66699 178.834 20.667 256.501 36s151.5 43 221.5 83s112.667 94.667 128 164c2.66699 18 4 30 4 36c0 39.333 -14.167 69 -42.5 89s-65.5 30 -111.5 30c-60.667 0 -116.834 -11.5 -168.501 -34.5s-97.167 -55.167 -136.5 -96.5s-72 -88.333 -98 -141
s-45 -108 -57 -166h4z" />
    <glyph glyph-name="Ecircumflex" unicode="&#xe6;" horiz-adv-x="1475" 
d="M615 -82c-28.667 0 -42.998 15.6689 -42.998 47.002c3.33301 16.667 19 31.667 47 45c20.667 0 38.834 10.167 54.501 30.5s29.5 64.166 41.5 131.499l23 105l-121 143c-48 -34.667 -110.333 -96 -187 -184s-119.667 -152.333 -129 -193
c0 -12.667 8.16699 -25.667 24.5 -39s24.5 -28.333 24.5 -45c-6 -27.333 -27.667 -41 -65 -41h-234c-16 0 -26.667 2.33301 -32 7c-6 5.33301 -9 18 -9 38c3.33301 18.667 19.333 34.334 48 47.001c25.333 12.667 49 33.334 71 62.001l150.5 181.5
c35.667 41 77.167 85 124.5 132s95 89.167 143 126.5l-22 27l-60 104c-39.333 56 -66 92.167 -80 108.5s-38.333 32.833 -73 49.5c-24.667 10 -37 27.667 -37 53c5.33301 22 25.666 33 60.999 33h240c27.333 0 41 -10.333 41 -31c-2 -10 -4.83301 -16.667 -8.5 -20
s-13.167 -10.333 -28.5 -21c-22.667 -14.667 -36.334 -30.334 -41.001 -47.001c0 -48.667 26.667 -112.667 80 -192s101.666 -139.333 144.999 -180l50 237c12 62.667 18 98.334 18 107.001c0 8 -1.33301 16 -4 24c-7.33301 20.667 -21.666 31 -42.999 31
c-18 10 -27 25 -27 45c3.33301 14 11 25.333 23 34s25.333 13 40 13h248c29.333 0 44 -15.667 44 -47c-2.66699 -12 -7.33398 -20.5 -14.001 -25.5s-17.667 -11.5 -33 -19.5c-21.333 0 -40 -10.333 -56 -31c-13.333 -18.667 -27.666 -62.334 -42.999 -131.001l-49 -237
c39.333 26 87.5 62.833 144.5 110.5s109.5 96.167 157.5 145.5c47.333 50 73.666 88.667 78.999 116c0 20 -6.66699 35.667 -20 47c-14 12 -21 25.667 -21 41c4 20.667 23 31 57 31h240c30 0 45 -11 45 -33c-4 -22.667 -23 -40.334 -57 -53.001
c-21.333 -8 -41.833 -17.833 -61.5 -29.5s-36.834 -22.834 -51.501 -33.501l-50 -42.5l-60 -52.5l-105 -104l-31 -27c48.667 -58 90.334 -122.167 125.001 -192.5s69.667 -152.833 105 -247.5c6 -18.667 11.333 -31.334 16 -38.001
c5.33301 -7.33301 15.666 -15.333 30.999 -24c18 -10 27 -25.667 27 -47c-5.33301 -19.333 -12.166 -31.666 -20.499 -36.999s-22.166 -8 -41.499 -8h-234c-32 0 -48 13.667 -48 41c2.66699 14 10.334 24.667 23.001 32c12.667 8 25.667 15.667 39 23s21.333 17 24 29
c0 55.333 -18.333 123.333 -55 204c-36.667 81.333 -70.667 139 -102 173l-182 -143l-22 -105c-0.666992 -6 -3.66699 -21.667 -9 -47c-4.66699 -24.667 -7 -43.667 -7 -57c0 -10 1.33301 -19 4 -27c6.66699 -20.667 21 -31 43 -31c17.333 -10 26 -25 26 -45
c-2.66699 -14 -10.334 -25.333 -23.001 -34s-26.334 -13 -41.001 -13h-247z" />
    <glyph glyph-name="Aacute" unicode="&#xe7;" horiz-adv-x="819" 
d="M348 432c4.66699 18.667 14.8359 31.6689 30.5029 39.002s41.834 11 78.501 11c109.333 0 187 18.333 233 55c41.333 31.333 66.666 70.333 75.999 117c2.66699 13.333 4 22.666 4 27.999c0 36.667 -14 67.334 -42 92.001s-69.333 37 -124 37
c-59.333 0 -107.666 -10.667 -144.999 -32s-73 -48.333 -107 -81s-57.667 -49 -71 -49c-28 0 -42 22.667 -42 68c0 47.333 16 80.666 48 99.999c94 56 210 84 348 84c54 0 103.667 -8.5 149 -25.5s81 -41.167 107 -72.5s39 -67.333 39 -108
c0 -19.333 -1.33301 -33.666 -4 -42.999c-10.667 -52.667 -37.834 -97.5 -81.501 -134.5s-95.834 -62.5 -156.501 -76.5c56 -10.667 102.167 -33.667 138.5 -69s54.5 -78.666 54.5 -129.999c0 -14.667 -2 -30.334 -6 -47.001
c-9.33301 -42.667 -30.666 -84.334 -63.999 -125.001c-32.667 -41.333 -68.667 -74.333 -108 -99c-88.667 -53.333 -193.334 -80 -314.001 -80c-75.333 0 -143.833 19 -205.5 57s-101.834 88.333 -120.501 151c-2.66699 10.667 -4 18.667 -4 24
c0 17.333 4.66699 32.333 14 45c8 12.667 20 19 36 19c22.667 0 38.667 -5.33301 48 -16c10 -11.333 20.667 -34 32 -68c13.333 -36 39.666 -65.333 78.999 -88s84 -34 134 -34c72.667 0 138.667 17.833 198 53.5s96.333 87.167 111 154.5c4 17.333 6 33.666 6 48.999
c0 47.333 -16.5 84.333 -49.5 111s-80.167 40 -141.5 40h-121c-38 0 -57 14.333 -57 43z" />
    <glyph glyph-name="Edieresis" unicode="&#xe8;" horiz-adv-x="1147" 
d="M992 613l-637.001 -507.999l-8 -39c0 -20 5.66699 -34.667 17 -44s22.666 -14 33.999 -14c22 -7.33301 33 -21.666 33 -42.999c-3.33301 -14 -11 -25.333 -23 -34s-25.667 -13 -41 -13h-227c-29.333 0 -48.666 2.66699 -57.999 8s-14 18.333 -14 39
c3.33301 17.333 18.333 31 45 41c14 0 29.667 5 47 15c18 9.33301 29 24.333 33 45l144 674c0 21.333 -6.33301 36.5 -19 45.5s-25 13.5 -37 13.5c-17.333 6.66699 -26 20.334 -26 41.001c3.33301 19.333 11.5 32 24.5 38s35.167 9 66.5 9h228c28.667 0 43 -15.667 43 -47
c-4 -18.667 -21 -33 -51 -43c-13.333 0 -28.166 -4.83301 -44.499 -14.5s-26.833 -23.834 -31.5 -42.501l-106 -508l635 508c0 33.333 -17.333 53.666 -52 60.999c-17.333 5.33301 -26 18.333 -26 39c3.33301 20 11.333 32.833 24 38.5s33.667 8.5 63 8.5h226
c27.333 0 41 -15.667 41 -47c-4 -16.667 -19.667 -31 -47 -43l-29 -10.5c-10 -3.66699 -19.5 -9.16699 -28.5 -16.5s-15.167 -17.333 -18.5 -30l-143 -674c0 -13.333 2.66699 -24 8 -32c6 -7.33301 12 -12.333 18 -15l25 -11c19.333 -6 29 -20.333 29 -43
c-3.33301 -14 -11 -25.333 -23 -34s-25 -13 -39 -13h-226c-22 0 -38.667 2.66699 -50 8s-17 18.333 -17 39c2.66699 10.667 8 20 16 28s17 12.333 27 13c15.333 2 31.333 7.66699 48 17s26.667 23.666 30 42.999z" />
    <glyph glyph-name="Egrave" unicode="&#xe9;" horiz-adv-x="1147" 
d="M1148 1241c-8.66699 -42 -35 -83.668 -79 -125.001c-70.667 -71.333 -154.667 -107 -252 -107c-84 0 -148.667 24.333 -194 73c-43.333 40.667 -65 93.667 -65 159c2.66699 12.667 9 23.667 19 33s21.333 14 34 14s26.667 -17.333 42 -52s35.666 -63.667 60.999 -87
s68 -35 128 -35c32.667 0 68.167 9.5 106.5 28.5s70.5 43.167 96.5 72.5c16 20.667 29.333 36.334 40 47.001s23.334 16 38.001 16c16.667 0 25 -12.333 25 -37zM992 612.999l-637.001 -507.999l-8 -39c0 -20 5.66699 -34.667 17 -44s22.666 -14 33.999 -14
c22 -7.33301 33 -21.666 33 -42.999c-3.33301 -14 -11 -25.333 -23 -34s-25.667 -13 -41 -13h-227c-29.333 0 -48.666 2.66699 -57.999 8s-14 18.333 -14 39c3.33301 17.333 18.333 31 45 41c14 0 29.667 5 47 15c18 9.33301 29 24.333 33 45l144 674
c0 21.333 -6.33301 36.5 -19 45.5s-25 13.5 -37 13.5c-17.333 6.66699 -26 20.334 -26 41.001c3.33301 19.333 11.5 32 24.5 38s35.167 9 66.5 9h228c28.667 0 43 -15.667 43 -47c-4 -18.667 -21 -33 -51 -43c-13.333 0 -28.166 -4.83301 -44.499 -14.5
s-26.833 -23.834 -31.5 -42.501l-106 -508l635 508c0 33.333 -17.333 53.666 -52 60.999c-17.333 5.33301 -26 18.333 -26 39c3.33301 20 11.333 32.833 24 38.5s33.667 8.5 63 8.5h226c27.333 0 41 -15.667 41 -47c-4 -16.667 -19.667 -31 -47 -43l-29 -10.5
c-10 -3.66699 -19.5 -9.16699 -28.5 -16.5s-15.167 -17.333 -18.5 -30l-143 -674c0 -13.333 2.66699 -24 8 -32c6 -7.33301 12 -12.333 18 -15l25 -11c19.333 -6 29 -20.333 29 -43c-3.33301 -14 -11 -25.333 -23 -34s-25 -13 -39 -13h-226c-22 0 -38.667 2.66699 -50 8
s-17 18.333 -17 39c2.66699 10.667 8 20 16 28s17 12.333 27 13c15.333 2 31.333 7.66699 48 17s26.667 23.666 30 42.999z" />
    <glyph glyph-name="Iacute" unicode="&#xea;" horiz-adv-x="1024" 
d="M413 396l123 82.4941c40 27.667 84.667 60.334 134 98.001s91.666 73.834 126.999 108.501s55 62.334 59 83.001c0 20.667 -6.66699 36.334 -20 47.001c-14 12 -21 25.667 -21 41c4.66699 20.667 24 31 58 31h239c30 0 45 -11 45 -33c-4 -22.667 -23 -40.334 -57 -53.001
c-20.667 -8 -41 -17.667 -61 -29c-19.333 -11.333 -36.333 -22.666 -51 -33.999s-31.667 -25.5 -51 -42.5l-60 -52.5l-125 -104l-31 -27c32.667 -38 64.667 -81.333 96 -130s59.333 -98 84 -148s48 -104 70 -162c5.33301 -18 10.833 -30.667 16.5 -38
s15.834 -15.333 30.501 -24c18 -10 27 -25.667 27 -47c-4.66699 -19.333 -11.334 -31.666 -20.001 -36.999c-8 -5.33301 -22 -8 -42 -8h-233c-32.667 0 -49 13.667 -49 41c2.66699 14 10.334 24.667 23.001 32c12.667 8 25.667 15.667 39 23s21.333 17 24 29
c0 33.333 -11.667 75.333 -35 126s-50.333 99.334 -81 146.001s-56.334 81.667 -77.001 105l-207 -143l-23 -105c-0.666992 -6 -3.66699 -21.667 -9 -47c-4.66699 -24.667 -7 -43.667 -7 -57c0 -10.667 1.33301 -19.667 4 -27c6.66699 -20.667 21 -31 43 -31
c18 -10 27 -25 27 -45c-3.33301 -14 -10.666 -25.333 -21.999 -34c-12.667 -8.66699 -26.334 -13 -41.001 -13h-236c-19.333 0 -34.166 3 -44.499 9s-15.5 18.667 -15.5 38c3.33301 18 18.333 32.333 45 43c22.667 0 42.667 9.66699 60 29c14.667 14.667 29 59.667 43 135
l98 461c12 54 18 90.333 18 109c0 13.333 -1.33301 22 -4 26c-9.33301 19.333 -25 29 -47 29c-17.333 6.66699 -26 21 -26 43c6 31.333 32.667 47 80 47h235c28.667 0 43 -15.667 43 -47c-2.66699 -12 -7.33398 -20.5 -14.001 -25.5s-17.667 -11.5 -33 -19.5
c-21.333 0 -39.666 -10.333 -54.999 -31c-14.667 -20 -29 -63.667 -43 -131z" />
    <glyph glyph-name="Icircumflex" unicode="&#xeb;" horiz-adv-x="1024" 
d="M486 797c-27.333 6 -40.998 21.665 -40.998 46.998c8 28.667 33 43 75 43h596c32 0 48 -14.333 48 -43c-4.66699 -22 -22.334 -38.333 -53.001 -49c-40.667 -12.667 -64 -31.667 -70 -57l-141 -670c0 -18.667 3 -31 9 -37c6.66699 -6 18.667 -13 36 -21
c20.667 -9.33301 31 -25.666 31 -48.999c-7.33301 -28.667 -30 -43 -68 -43h-234c-20 0 -34.167 2.66699 -42.5 8s-12.5 17 -12.5 35c4.66699 21.333 23.334 36.333 56.001 45c40 11.333 63.667 32 71 62l142 665c0 24 -4.66699 39.667 -14 47
c-8.66699 6.66699 -20.667 10 -36 10h-105c-36.667 0 -68.667 -15.667 -96 -47c-64 -70.667 -126 -152.167 -186 -244.5s-110.667 -179.166 -152 -260.499c-40.667 -81.333 -64.334 -137.333 -71.001 -168c0 -14.667 2.83301 -25.834 8.5 -33.501s14.334 -15.5 26.001 -23.5
s20.334 -15.667 26.001 -23s8.5 -17.666 8.5 -30.999c-2.66699 -13.333 -11.334 -23.5 -26.001 -30.5s-28.334 -10.5 -41.001 -10.5h-187c-26 0 -39 14.333 -39 43c2.66699 11.333 6.5 19.333 11.5 24s14.167 11 27.5 19c17.333 10 29.666 22.333 36.999 37
c48 96.667 92 180.167 132 250.5s82.833 139.333 128.5 207l167.5 236.5c8 10.667 12 21.667 12 33c0 16 -11.333 25.667 -34 29z" />
    <glyph glyph-name="Idieresis" unicode="&#xec;" horiz-adv-x="1270" 
d="M1104 824c16 23.333 29.1689 39.6719 39.502 49.0049s25.833 14 46.5 14h178c26 0 39 -16.333 39 -49c-2 -9.33301 -6 -17 -12 -23c-6 -5.33301 -13 -9.66602 -21 -12.999s-16 -6.33301 -24 -9c-22.667 -9.33301 -38 -16.833 -46 -22.5s-14.667 -18.834 -20 -39.501
l-139 -663c0 -24.667 11 -42.334 33 -53.001c16 -8 27.167 -14.333 33.5 -19s9.5 -16.334 9.5 -35.001c-5.33301 -28.667 -30 -43 -74 -43h-237c-34.667 0 -52 13.667 -52 41c6 26 22.667 41.667 50 47c48 9.33301 75.667 30 83 62l130 610l-404 -573
c-12.667 -20.667 -23.667 -36.5 -33 -47.5s-22.333 -16.5 -39 -16.5c-28.667 0 -48.334 22.667 -59.001 68l-158 569l-127 -600c0 -24.667 3.33301 -41.334 10 -50.001s17 -15.334 31 -20.001c16.667 -6 28.667 -11.667 36 -17s11 -16 11 -32
c-4.66699 -27.333 -24.334 -41 -59.001 -41h-209c-19.333 0 -33.5 2.33301 -42.5 7s-13.5 16.667 -13.5 36c4.66699 21.333 22.667 36.333 54 45c24 7.33301 41.667 14.666 53 21.999s20 24 26 50l138 653c0 20 -3.66699 34.5 -11 43.5s-18.333 16.833 -33 23.5
c-14 6.66699 -24 12.667 -30 18c-5.33301 4.66699 -8 14 -8 28c6 28.667 26.667 43 62 43h178c24.667 0 41 -4.5 49 -13.5s16.333 -29.833 25 -62.5l145 -553z" />
    <glyph glyph-name="Igrave" unicode="&#xed;" horiz-adv-x="1147" 
d="M945 389h-529l-69 -323c0 -20 5.66699 -34.667 17 -44s22.666 -14 33.999 -14c22 -7.33301 33 -21.666 33 -42.999c-3.33301 -14 -11 -25.333 -23 -34s-25.667 -13 -41 -13h-240c-26 0 -42.333 2.33301 -49 7c-6.66699 5.33301 -10 18.666 -10 39.999
c3.33301 17.333 18.333 31 45 41c14 0 29.667 5 47 15c18 9.33301 29 24.333 33 45l144 674c0 21.333 -6.33301 36.5 -19 45.5s-25 13.5 -37 13.5c-17.333 6.66699 -26 20.334 -26 41.001c3.33301 19.333 11.5 32 24.5 38s35.167 9 66.5 9h228c28.667 0 43 -15.667 43 -47
c-4 -18.667 -21 -33 -51 -43c-13.333 0 -28.166 -4.83301 -44.499 -14.5s-26.833 -23.834 -31.5 -42.501l-55 -261h528l56 261c0 21.333 -6.33301 36.333 -19 45c-12 9.33301 -23.667 14 -35 14c-16 7.33301 -24 21 -24 41c3.33301 20 11 32.833 23 38.5s33.333 8.5 64 8.5
h226c27.333 0 41 -15.667 41 -47c-4 -16.667 -19.667 -31 -47 -43l-29 -10.5c-10 -3.66699 -19.5 -9.16699 -28.5 -16.5s-15.167 -17.333 -18.5 -30l-143 -674c0 -13.333 2.66699 -24 8 -32c6 -7.33301 12 -12.333 18 -15l25 -11c19.333 -6 29 -20.333 29 -43
c-3.33301 -14 -11 -25.333 -23 -34s-25 -13 -39 -13h-226c-22 0 -38.667 2.66699 -50 8s-17 18.333 -17 39c4 18 18.333 31.667 43 41c13.333 0 28.833 5 46.5 15s28.167 25 31.5 45z" />
    <glyph glyph-name="Oacute" unicode="&#xee;" horiz-adv-x="1147" 
d="M1186 402c-20 -95.333 -61.1709 -182.501 -123.504 -261.501s-137.833 -141.167 -226.5 -186.5c-89.333 -44.667 -181.666 -67 -276.999 -67c-78 0 -148.333 17.667 -211 53c-62 34.667 -110.333 82.667 -145 144c-34 60.667 -51 128.334 -51 203.001
c0 35.333 4.33301 70.666 13 105.999c18.667 90 59.834 174.333 123.501 253s139.834 140.834 228.501 186.501s178 68.5 268 68.5c78.667 0 149.334 -17 212.001 -51s111.667 -81.333 147 -142c34.667 -60 52 -128 52 -204c0 -39.333 -3.33301 -73.333 -10 -102z
M876.996 120.999c74 75.333 122.334 169.668 145.001 283.001c8 36.667 12 72.667 12 108c0 55.333 -10 104.833 -30 148.5s-50.667 78 -92 103s-92 37.5 -152 37.5c-75.333 0 -143.333 -19.333 -204 -58c-60 -38.667 -109.333 -89.667 -148 -153
c-38.667 -62.667 -66 -131 -82 -205c-8 -38.667 -12 -75.334 -12 -110.001c0 -85.333 22.333 -154.333 67 -207c45.333 -54 112.333 -81 201 -81c109.333 0 207.666 44.667 294.999 134z" />
    <glyph glyph-name="Ocircumflex" unicode="&#xef;" horiz-adv-x="1147" 
d="M565 796c-12.667 0.666992 -27.332 -3.83203 -43.999 -13.499s-27 -23.834 -31 -42.501l-143 -674c0 -20 5.66699 -34.667 17 -44s22.666 -14 33.999 -14c22 -7.33301 33 -21.666 33 -42.999c-3.33301 -14 -11 -25.333 -23 -34s-25.667 -13 -41 -13h-227
c-29.333 0 -48.666 2.66699 -57.999 8s-14 18.333 -14 39c3.33301 17.333 18.333 31 45 41c14 0 29.667 5 47 15c18 9.33301 29 24.333 33 45l144 674c0 21.333 -6.33301 36.5 -19 45.5s-25 13.5 -37 13.5c-17.333 6.66699 -26 20.334 -26 41.001
c3.33301 19.333 11.5 32 24.5 38s35.167 9 66.5 9h908c27.333 0 41 -15.667 41 -47c-4 -16.667 -19.667 -31 -47 -43l-29 -10.5c-10 -3.66699 -19.5 -9.16699 -28.5 -16.5s-15.167 -17.333 -18.5 -30l-143 -674c0 -13.333 3 -23.833 9 -31.5s14.5 -13.834 25.5 -18.501
s16.5 -7.33398 16.5 -8.00098c19.333 -10.667 29 -25 29 -43c-3.33301 -14 -11 -25.333 -23 -34s-25 -13 -39 -13h-226c-28 0 -46.167 2.66699 -54.5 8s-12.5 18.333 -12.5 39c4 18 18.333 31.667 43 41c13.333 0 28.833 5 46.5 15s28.167 25 31.5 45l144 674
c0 21.333 -6.33301 36.333 -19 45s-24.334 13 -35.001 13c-3.33301 0 -69.333 -0.333008 -198 -1s-196 -1 -202 -1z" />
    <glyph glyph-name="apple" unicode="&#xf0;" horiz-adv-x="1188" 
d="M316 -234c-0.666992 -4.66699 -3.66504 -19.8311 -8.99805 -45.498s-8 -45.167 -8 -58.5c0 -10 1.33301 -19 4 -27c3.33301 -9.33301 17 -20.333 41 -33c20.667 -7.33301 31 -21.666 31 -42.999c-3.33301 -18 -9.66602 -29.667 -18.999 -35
c-8.66699 -5.33301 -22.667 -8 -42 -8h-246c-18 0 -30.333 2.33301 -37 7s-10 16.667 -10 36c2.66699 16.667 16.334 31 41.001 43c44 0 76 48 96 144l176 832c10.667 41.333 16 73.333 16 96c0 45.333 -21.667 70.666 -65 75.999c-6 0.666992 -13.167 2 -21.5 4
s-15 5.33301 -20 10s-7.5 11.667 -7.5 21c4.66699 24 33 49.333 85 76s91.333 40 118 40c37.333 0 59.333 -14.333 66 -43c7.33301 -28.667 11.666 -73 12.999 -133c64 58.667 125.5 102.667 184.5 132s123.167 44 192.5 44c126.667 0 223 -48.333 289 -145
c38 -57.333 57 -128.333 57 -213c0 -46.667 -4.66699 -91 -14 -133c-34 -153.333 -98.333 -273.666 -193 -360.999c-54.667 -50.667 -117.5 -90.334 -188.5 -119.001s-139.833 -43 -206.5 -43c-38.667 0 -83.834 9.33301 -135.501 28s-77.5 45 -77.5 79
c2 11.333 7.66699 22 17 32s19.333 15 30 15c14 0 27 -4.66699 39 -14c44 -23.333 98 -35 162 -35c42 0 85.833 11.167 131.5 33.5s84.5 50.833 116.5 85.5c67.333 74.667 113 168.667 137 282c9.33301 42.667 14 86.667 14 132c0 77.333 -18.333 139.5 -55 186.5
s-95.334 70.5 -176.001 70.5c-84.667 0 -163.334 -26.667 -236.001 -80c-40.667 -30.667 -71.5 -64.334 -92.5 -101.001s-37.167 -81.334 -48.5 -134.001z" />
    <glyph glyph-name="Ograve" unicode="&#xf1;" horiz-adv-x="942" 
d="M703 801c-43.333 0 -87.1631 -12.6719 -131.496 -38.0049s-81.833 -57.666 -112.5 -96.999c-67.333 -79.333 -113.666 -179 -138.999 -299c-7.33301 -36 -11 -66.667 -11 -92c0 -78 21.5 -142.333 64.5 -193s104.167 -76 183.5 -76c48 0 97.167 9.83301 147.5 29.5
s94.166 47.5 131.499 83.5c31.333 31.333 56.666 47 75.999 47c17.333 0 26 -12.333 26 -37c-6 -32 -41.333 -73 -106 -123c-106 -79.333 -214.667 -119 -326 -119c-77.333 0 -143.5 15.167 -198.5 45.5s-96.167 72.833 -123.5 127.5c-28.667 54 -43 116.667 -43 188
c0 32.667 4.66699 74.334 14 125.001c15.333 70.667 42.166 138.334 80.499 203.001s84.833 121.334 139.5 170.001c55.333 48.667 116.166 86.667 182.499 114s135.833 41 208.5 41c85.333 0 155.666 -22.333 210.999 -67c36.667 -27.333 55 -69 55 -125
c-4 -20 -14.667 -38.333 -32 -55s-35.333 -25 -54 -25c-14.667 0 -26 2.33301 -34 7c-8.66699 5.33301 -15.667 12.333 -21 21l-20 33c-22 40.667 -44 69.334 -66 86.001s-56 25 -102 25z" />
    <glyph glyph-name="Uacute" unicode="&#xf2;" horiz-adv-x="883" 
d="M598 8c28.667 0 42.998 -15.667 42.998 -47c-5.33301 -28.667 -29 -43 -71 -43h-256c-19.333 0 -33.5 2.66699 -42.5 8s-13.5 17 -13.5 35c8 30 28.667 45 62 45c41.333 0 67.333 22 78 66l139 655l8 47v0c0 12.667 -13.667 19 -41 19c-50.667 0 -94.334 -5 -131.001 -15
s-75.667 -29.667 -117 -59c-5.33301 -4 -10.666 -8.33301 -15.999 -13s-11.5 -8.83398 -18.5 -12.501s-14.5 -5.5 -22.5 -5.5c-22 0 -33 15 -33 45c2.66699 20.667 14 51.5 34 92.5s43 61.5 69 61.5h757c27.333 0 42.333 -28 45 -84c0 -13.333 -1 -28.333 -3 -45l-3 -25
c-2 -10 -7.83301 -19.333 -17.5 -28s-20.167 -13 -31.5 -13c-7.33301 0 -13.666 1.33301 -18.999 4s-10.666 6.83398 -15.999 12.501l-12 12.5c-32 32 -64 52 -96 60s-71.667 12 -119 12c-24 0 -38.667 -3.33301 -44 -10c-6 -6 -13.333 -27.333 -22 -64l-137 -647
c0 -42.667 15.667 -64 47 -64z" />
    <glyph glyph-name="Ucircumflex" unicode="&#xf3;" horiz-adv-x="983" 
d="M266 695l0.000976562 43.001c0 32.667 -8 55.667 -24 69c-16.667 20 -25 34.333 -25 43c4.66699 24.667 25.334 37 62.001 37h217c26 0 39 -11 39 -33c-2.66699 -13.333 -14.167 -27.333 -34.5 -42s-36.666 -29 -48.999 -43s-22.833 -39.667 -31.5 -77s-13 -94 -13 -170
c0 -80.667 4.33301 -151.667 13 -213c13.333 -74 35.333 -132 66 -174c30.667 -47.333 64.667 -71 102 -71c66.667 0 135.667 67.333 207 202c23.333 41.333 46.666 85.5 69.999 132.5s44.666 95.5 63.999 145.5c20 49.333 33.333 90 40 122c5.33301 22.667 8 43.667 8 63
c0 27.333 -3 44.5 -9 51.5s-17.167 17.5 -33.5 31.5s-24.5 28.667 -24.5 44c4 20.667 21.667 31 53 31h180c26 0 39 -9.66699 39 -29c-1.33301 -6 -5.33301 -15.333 -12 -28c-32 -43.333 -52.667 -79 -62 -107l-67 -174c-25.333 -68 -57.666 -140 -96.999 -216
c-39.333 -75.333 -81.666 -149.333 -126.999 -222c-46 -72 -93.667 -140.333 -143 -205c-82 -106.667 -175.333 -201.334 -280 -284.001s-205.334 -124 -302.001 -124c-62.667 0 -94 28 -94 84c4 19.333 14.667 36.333 32 51c17.333 15.333 36 23 56 23
c13.333 0 31.333 -2.83301 54 -8.5s40.334 -8.5 53.001 -8.5c41.333 0 90.166 19.167 146.499 57.5s109.166 84.333 158.499 138s84.666 101.167 105.999 142.5c-42 -13.333 -74.667 -20 -98 -20c-53.333 0 -98.5 21.833 -135.5 65.5s-64.167 94.167 -81.5 151.5
c-24.667 94.667 -37 195.667 -37 303c0 30 1.33301 69.667 4 119z" />
    <glyph glyph-name="Ugrave" unicode="&#xf4;" horiz-adv-x="1680" 
d="M783 8c-34 -30 -79.833 -57.667 -137.5 -83s-105.5 -38 -143.5 -38c-106.667 0 -190.334 34.667 -251.001 104s-91 160.333 -91 273c0 41.333 5.66699 90 17 146c14 65.333 36.333 127.333 67 186c31.333 58 69.833 110.333 115.5 157s95.667 83 150 109
s109.833 39 166.5 39c57.333 0 109.333 -15 156 -45c47.333 -30 82.666 -73.667 105.999 -131l70 336c9.33301 45.333 14 76.666 14 93.999c0 47.333 -21.667 73.333 -65 78c-32.667 0 -49 11.667 -49 35c5.33301 24 33.833 49.5 85.5 76.5s90.5 40.5 116.5 40.5
c30.667 0 52.667 -12 66 -36c13.333 -23.333 20 -52.333 20 -87c0 -19.333 -2 -37 -6 -53l-102 -484c48 58 101.667 101.833 161 131.5s117.666 44.5 174.999 44.5c94 0 168.333 -34.167 223 -102.5s82 -154.833 82 -259.5c0 -46.667 -4.66699 -89.667 -14 -129
c-20.667 -98 -58 -187 -112 -267c-53.333 -80 -117.666 -143 -192.999 -189c-76 -44.667 -156.667 -67 -242 -67c-38.667 0 -81.5 12.667 -128.5 38s-81.5 53 -103.5 83l-51 -242l-8 -40.5c-2.66699 -13 -4.66699 -25.167 -6 -36.5c-1.33301 -10.667 -2 -19.667 -2 -27
c0 -10 1.33301 -19 4 -27c2.66699 -9.33301 16.334 -20.333 41.001 -33c20 -7.33301 30 -21.666 30 -42.999c-3.33301 -18 -9.5 -29.667 -18.5 -35s-23.167 -8 -42.5 -8h-246c-18 0 -30.333 2.33301 -37 7s-10 16.667 -10 36c2.66699 16.667 16.334 31 41.001 43
c43.333 0 75.333 48 96 144zM881 467c5.33301 25.333 8 53.332 8 83.999c0 66.667 -17.333 121.834 -52 165.501s-87 65.5 -157 65.5c-85.333 0 -158.333 -38 -219 -114c-60.667 -77.333 -102 -169 -124 -275c-10 -46 -15 -88.333 -15 -127c0 -78 16 -143.167 48 -195.5
s79.333 -78.5 142 -78.5c76 0 140 18.5 192 55.5s87.667 67.833 107 92.5zM965 139.999c9.33301 -24.667 32.334 -55.5 69.001 -92.5s92.667 -55.5 168 -55.5c55.333 0 106.666 20 153.999 60s87.5 91 120.5 153s56.5 124.667 70.5 188c10.667 50 16 96 16 138
c0 74.667 -15.833 135.167 -47.5 181.5s-80.167 69.5 -145.5 69.5c-84 0 -156.5 -31.5 -217.5 -94.5s-100.5 -136.5 -118.5 -220.5z" />
    <glyph glyph-name="dotlessi" unicode="&#xf5;" horiz-adv-x="1024" 
d="M341 668c-18.667 38 -33.6689 66.3291 -45.002 84.9961s-28.666 34.667 -51.999 48c-17.333 12 -26 29.667 -26 53c4 22 23 33 57 33h239c14.667 0 25 -2 31 -6s9 -13.667 9 -29c-2.66699 -12 -13.834 -25 -33.501 -39s-30.5 -27 -32.5 -39
c0 -16.667 5.33301 -36.667 16 -60s24.334 -48.833 41.001 -76.5s34.834 -55.5 54.501 -83.5l33.5 -48c49.333 42 101.166 90.5 155.499 145.5s84.5 95.833 90.5 122.5c0 8 -2 14.833 -6 20.5s-10 11.834 -18 18.501c-7.33301 6 -13 11.833 -17 17.5s-6 13.5 -6 23.5
c4 22 24.333 33 61 33h189c16 0 27.167 -2 33.5 -6s9.5 -13.667 9.5 -29c-2.66699 -17.333 -17 -31.666 -43 -42.999c-25.333 -12 -43 -22 -53 -30c-10.667 -7.33301 -25.667 -22 -45 -44l-301 -296l174 -273c32.667 -61.333 58 -101.666 76 -120.999
c7.33301 -10 27 -23 59 -39c16.667 -9.33301 25 -24.333 25 -45c-6.66699 -28.667 -28.667 -43 -66 -43h-246c-15.333 0 -26.333 2.33301 -33 7s-10 15.334 -10 32.001c2.66699 12 14.334 25.833 35.001 41.5s32.334 29.167 35.001 40.5c0 38.667 -50 122.667 -150 252
l-27 37c-50.667 -42.667 -104.5 -92.5 -161.5 -149.5s-88.167 -98.833 -93.5 -125.5c0 -12 2.33301 -21.667 7 -29s11.667 -15 21 -23c9.33301 -9.33301 16.166 -17 20.499 -23s6.5 -13.667 6.5 -23c-6.66699 -24.667 -28 -37 -64 -37h-231c-14 0 -23.333 2.33301 -28 7
s-7 16.667 -7 36c5.33301 19.333 21 33.666 47 42.999c32 14.667 52.667 25.334 62 32.001s27 24 53 52l320 310z" />
    <glyph glyph-name="circumflex" unicode="&#xf6;" horiz-adv-x="1147" 
d="M140 -82c-28 0 -47.001 2.66699 -57.001 8s-15 18.333 -15 39c3.33301 17.333 18.333 31 45 41c14 0 29.667 5 47 15c18 9.33301 29 24.333 33 45l144 674c0 21.333 -6.33301 36.5 -19 45.5s-25 13.5 -37 13.5c-17.333 6.66699 -26 20.334 -26 41.001
c3.33301 19.333 11.5 32 24.5 38s35.167 9 66.5 9h228c28.667 0 43 -15.667 43 -47c-4 -18.667 -21 -33 -51 -43c-13.333 0 -28.166 -4.83301 -44.499 -14.5s-26.833 -23.834 -31.5 -42.501l-143 -674c0 -22.667 4 -38 12 -46s21 -12 39 -12h399
c45.333 0 71.333 19.333 78 58l144 674c0 21.333 -6.33301 36.333 -19 45c-12 9.33301 -23.667 14 -35 14c-16 7.33301 -24 21 -24 41c3.33301 20 11.333 32.833 24 38.5s33.667 8.5 63 8.5h226c27.333 0 41 -15.667 41 -47c-4 -16.667 -19.667 -31 -47 -43l-29 -10.5
c-10 -3.66699 -19.5 -9.16699 -28.5 -16.5s-15.167 -17.333 -18.5 -30l-143 -674c0 -14.667 4 -25.667 12 -33c8.66699 -8 19.667 -15 33 -21c14 -6 22 -10.667 24 -14c10 -11.333 15 -35.333 15 -72c0 -34 -1.66699 -56.667 -5 -68c-2 -10 -7.5 -19.333 -16.5 -28
s-19.167 -13 -30.5 -13c-7.33301 0 -14.333 1.66699 -21 5s-12 7 -16 11c-3.33301 4 -7.33301 8.33301 -12 13c-29.333 26 -59 44.667 -89 56c-31.333 10.667 -70.333 16 -117 16h-666z" />
    <glyph glyph-name="tilde" unicode="&#xf7;" horiz-adv-x="1024" 
d="M283 764c0 18.667 -8 29.6641 -24 32.9971c-28.667 6.66699 -43 22.334 -43 47.001c6.66699 28.667 31 43 73 43h190c36 0 54 -14.333 54 -43c-2.66699 -13.333 -7.66699 -22.666 -15 -27.999c-7.33301 -4.66699 -19.333 -10.334 -36 -17.001
c-27.333 -12 -45.333 -32.333 -54 -61c-7.33301 -19.333 -17.833 -49.666 -31.5 -90.999s-25.5 -84.333 -35.5 -129c-2.66699 -16 -4 -28 -4 -36c0 -79.333 64 -119 192 -119c48.667 0 100 8.66699 154 26c53.333 16 92.666 29.667 117.999 41l66 310
c0 28.667 -11.667 47 -35 55c-16 6 -27 11.667 -33 17c-6.66699 6 -10 16.667 -10 32c4 18 12.333 29.667 25 35s30.334 8 53.001 8h223c36 0 54 -14.333 54 -43c-5.33301 -22.667 -24 -39.667 -56 -51l-30.5 -11c-9 -3.33301 -16.833 -8.33301 -23.5 -15
s-11 -16.334 -13 -29.001l-144 -672c0 -26 13.667 -43.667 41 -53c24.667 -9.33301 37 -26.666 37 -51.999c-6.66699 -28.667 -30.667 -43 -72 -43h-229c-36.667 0 -55 14.333 -55 43c6.66699 25.333 25 41 55 47c40 8.66699 64 28.667 72 60l57 271
c-30 -13.333 -76.833 -30.166 -140.5 -50.499s-125.5 -30.5 -185.5 -30.5c-184 0 -276 64.333 -276 193c0 10 3 32.333 9 67c10 47.333 22.667 94.333 38 141z" />
    <glyph glyph-name="macron" unicode="&#xf8;" horiz-adv-x="1475" 
d="M625 8c12 0 25.3301 5.33398 39.9971 16.001s23.667 24.667 27 42l143 674c0 20.667 -6 35.667 -18 45s-23.667 14 -35 14c-16 7.33301 -24 21 -24 41c4 20 12 32.833 24 38.5s33.333 8.5 64 8.5h225c27.333 0 41 -15.667 41 -47c-4 -16 -19.667 -30.333 -47 -43
l-28.5 -10.5c-10.333 -3.66699 -20.166 -9.16699 -29.499 -16.5c-8.66699 -7.33301 -14.667 -17.333 -18 -30l-143 -674c0 -14 3 -24.667 9 -32s12.833 -12.666 20.5 -15.999s14.834 -6.66602 21.501 -9.99902h133c40 -0.666992 68.667 -1.33398 86 -2.00098
c13.333 0 28.833 5 46.5 15s28.167 25 31.5 45l144 674c0 21.333 -6.33301 36.333 -19 45c-12 9.33301 -23.667 14 -35 14c-16 7.33301 -24 21 -24 41c4 20 11.833 32.833 23.5 38.5s33.167 8.5 64.5 8.5h225c27.333 0 41 -15.667 41 -47c-4 -16 -19.667 -30.333 -47 -43
l-29 -10.5c-10 -3.66699 -19.5 -9.16699 -28.5 -16.5s-15.167 -17.333 -18.5 -30l-143 -674c0 -13.333 3 -23.833 9 -31.5s14.5 -13.834 25.5 -18.501s16.5 -7.33398 16.5 -8.00098c19.333 -10.667 29 -25 29 -43c-3.33301 -14 -11 -25.333 -23 -34s-25 -13 -39 -13h-1226
c-29.333 0 -48.833 2.66699 -58.5 8s-14.5 18.333 -14.5 39c3.33301 17.333 18.333 31 45 41c14 0 29.667 5 47 15c18 9.33301 29 24.333 33 45l144 674c0 21.333 -6.33301 36.5 -19 45.5s-25 13.5 -37 13.5c-17.333 6.66699 -26 20.334 -26 41.001
c4 19.333 12.5 32 25.5 38s35.167 9 66.5 9h228c28 0 42 -15.667 42 -47c-4 -18.667 -21 -33 -51 -43c-13.333 0 -28.166 -4.83301 -44.499 -14.5s-26.833 -23.834 -31.5 -42.501l-143 -674c0 -20 6.33301 -34.667 19 -44s25 -14 37 -14h223z" />
    <glyph glyph-name="breve" unicode="&#xf9;" horiz-adv-x="1475" 
d="M139 -82c-28.667 0 -47.832 2.66699 -57.499 8s-14.5 18.333 -14.5 39c3.33301 17.333 18.333 31 45 41c14 0 29.667 5 47 15c18 9.33301 29 24.333 33 45l144 674c0 21.333 -6.33301 36.5 -19 45.5s-25 13.5 -37 13.5c-17.333 6.66699 -26 20.334 -26 41.001
c4 19.333 12.5 32 25.5 38s35.167 9 66.5 9h228c28 0 42 -15.667 42 -47c-4 -18.667 -21 -33 -51 -43c-13.333 0 -28.166 -4.83301 -44.499 -14.5s-26.833 -23.834 -31.5 -42.501l-143 -674c0 -22.667 4.16699 -38 12.5 -46s21.5 -12 39.5 -12h227c36.667 0 59 19.333 67 58
l143 674c0 20.667 -6 35.667 -18 45s-23.667 14 -35 14c-16 7.33301 -24 21 -24 41c4 20 12 32.833 24 38.5s33.333 8.5 64 8.5h225c27.333 0 41 -15.667 41 -47c-4 -16 -19.667 -30.333 -47 -43l-28.5 -10.5c-10.333 -3.66699 -20.166 -9.16699 -29.499 -16.5
c-8.66699 -7.33301 -14.667 -17.333 -18 -30l-143 -674c0 -23.333 3.66699 -38.833 11 -46.5s20.666 -11.5 39.999 -11.5h219c45.333 0 71.333 19.333 78 58l144 674c0 21.333 -6.33301 36.333 -19 45c-12 9.33301 -23.667 14 -35 14c-16 7.33301 -24 21 -24 41
c4 20 11.833 32.833 23.5 38.5s33.167 8.5 64.5 8.5h225c27.333 0 41 -15.667 41 -47c-4 -16 -19.667 -30.333 -47 -43l-29 -10.5c-10 -3.66699 -19.5 -9.16699 -28.5 -16.5s-15.167 -17.333 -18.5 -30l-143 -674c0 -14.667 4 -25.667 12 -33c8.66699 -8 19.667 -15 33 -21
c14 -6 22 -10.667 24 -14c10 -11.333 15 -35.333 15 -72c0 -34 -1.33301 -56.667 -4 -68c-2.66699 -10 -8.33398 -19.333 -17.001 -28s-18.667 -13 -30 -13c-8 0 -15.333 1.66699 -22 5s-11.834 7 -15.501 11l-12.5 13c-28.667 26 -58.667 44.667 -90 56
c-30.667 10.667 -69.667 16 -117 16h-985z" />
    <glyph glyph-name="dotaccent" unicode="&#xfa;" horiz-adv-x="1024" 
d="M428 793c-62.667 0 -126.669 -24.667 -192.002 -74c-1.33301 0 -8.66602 -5.16699 -21.999 -15.5s-25.333 -15.5 -36 -15.5c-21.333 0 -32 15 -32 45c18 46 35 83.167 51 111.5s36.333 42.5 61 42.5h422c37.333 0 56 -14.333 56 -43
c-6.66699 -34 -29.334 -51 -68.001 -51c-10.667 0 -22.167 -4.83301 -34.5 -14.5s-20.5 -23.834 -24.5 -42.501l-45 -209c149.333 0 266 -22 350 -66c48.667 -24 88.834 -56 120.501 -96s47.5 -85 47.5 -135c0 -16.667 -2 -34 -6 -52c-10 -48 -32 -90.667 -66 -128
c-33.333 -38 -75 -67 -125 -87c-69.333 -30 -158 -45 -266 -45h-381c-35.333 0 -53 14.333 -53 43c4 16 12.667 27.333 26 34c12.667 7.33301 25.334 11 38.001 11c14.667 0 28.167 6.33301 40.5 19s20.5 27 24.5 43l141 670c3.33301 14.667 5 23.334 5 26.001
c0 19.333 -10.667 29 -32 29zM542.998 432l-69.001 -333c-5.33301 -24.667 -8 -39 -8 -43c0 -10.667 6 -19.667 18 -27c16 -9.33301 54.667 -14 116 -14c82 0 147 12 195 36c64 34.667 101.667 82 113 142c2.66699 19.333 4 32.333 4 39c0 67.333 -37.667 117.5 -113 150.5
s-160.666 49.5 -255.999 49.5z" />
    <glyph glyph-name="ring" unicode="&#xfb;" horiz-adv-x="1352" 
d="M1221 66c0 -20.667 5.5 -35.501 16.5 -44.501s22.5 -13.5 34.5 -13.5c22 -7.33301 33 -21.666 33 -42.999c-3.33301 -14 -11 -25.333 -23 -34s-25.667 -13 -41 -13h-227c-28.667 0 -47.834 2.66699 -57.501 8s-14.5 18.333 -14.5 39c3.33301 17.333 18.333 31 45 41
c14 0 29.667 5 47 15c18 9.33301 29 24.333 33 45l144 674c0 21.333 -6.33301 36.5 -19 45.5s-25 13.5 -37 13.5c-17.333 6.66699 -26 20.334 -26 41.001c4 19.333 12.333 32 25 38s35 9 67 9h227c28.667 0 43 -15.667 43 -47c-4 -18.667 -21 -33 -51 -43
c-13.333 0 -28.166 -4.83301 -44.499 -14.5s-26.833 -23.834 -31.5 -42.501zM489 734.999l-45 -208.003c149.333 0 266 -22 350 -66c48.667 -24 89 -56 121 -96s48 -85 48 -135c0 -16 -2 -33.333 -6 -52c-10 -48 -31.833 -90.833 -65.5 -128.5s-75.5 -66.5 -125.5 -86.5
c-40 -18 -81.333 -30 -124 -36s-90 -9 -142 -9h-381c-36 0 -54 14.333 -54 43c5.33301 22 26.666 37 63.999 45c34.667 6.66699 56.334 27.334 65.001 62.001l142 670c0 34 -15 53.667 -45 59c-24.667 6.66699 -37 22.334 -37 47.001c6 28.667 29.333 43 70 43h237
c36.667 0 55 -14.333 55 -43c-3.33301 -18.667 -10 -30.5 -20 -35.5s-25.667 -10.167 -47 -15.5c-34 -7.33301 -54 -26.666 -60 -57.999zM424 431.996l-70 -333c-5.33301 -23.333 -8 -37.666 -8 -42.999c0 -10.667 6.33301 -19.667 19 -27c16 -9.33301 55 -14 117 -14
c82 0 146.667 12 194 36c64 35.333 101.667 82.666 113 141.999c2.66699 19.333 4 32.333 4 39c0 46 -18.667 84 -56 114s-84.333 51.833 -141 65.5s-114 20.5 -172 20.5z" />
    </font>
</defs>
</svg>
