<?xml version="1.0" standalone="no"?>
<!DOCTYPE svg PUBLIC "-//W3C//DTD SVG 1.1//EN" "http://www.w3.org/Graphics/SVG/1.1/DTD/svg11.dtd" >
<svg>
<metadata>
Created by FontForge 20090914 at Fri Jul 11 22:06:24 2014
 By www-data
Generated by Fontographer 3.3
</metadata>
<defs>
<font id="SouvenirBold" horiz-adv-x="1393" >
  <font-face 
    font-family="Souvenir"
    font-weight="700"
    font-stretch="normal"
    units-per-em="2048"
    panose-1="2 11 8 0 0 0 0 0 0 0"
    ascent="1638"
    descent="-410"
    x-height="984.999"
    cap-height="1499"
    bbox="-97 -447.001 2331 1893"
    underline-thickness="20"
    underline-position="-123"
    unicode-range="U+0020-U+2122"
  />
<missing-glyph horiz-adv-x="1536" 
d="M256 0v1280h1024v-1280h-1024zM1248 32v1216h-960v-1216h960z" />
    <glyph glyph-name=".notdef" horiz-adv-x="1536" 
d="M256 0v1280h1024v-1280h-1024zM1248 32v1216h-960v-1216h960z" />
    <glyph glyph-name="space" unicode=" " 
 />
    <glyph glyph-name="exclam" unicode="!" horiz-adv-x="738" 
d="M179 125c0 48 19.667 86 59 114c40 28 85.667 42 137 42c48 0 92.167 -14.5 132.5 -43.5s60.5 -67.167 60.5 -114.5c0 -32 -10.333 -59.667 -31 -83s-46.5 -41 -77.5 -53s-61.833 -18 -92.5 -18c-46.667 0 -89.667 15 -129 45c-39.333 28.667 -59 65.667 -59 111z
M463 500c-6 -39.333 -14.5 -68 -25.5 -86s-33.167 -27 -66.5 -27c-25.333 0 -44 5.5 -56 16.5s-19.667 22.5 -23 34.5c-2.66699 12.667 -7 36.667 -13 72l-123 869c0 100.667 71.667 151 215 151c66.667 0 118 -11 154 -33c36.667 -22 55 -64.333 55 -127l-10 -110z" />
    <glyph glyph-name="quotedbl" unicode="&#x22;" horiz-adv-x="1188" 
d="M320 877l-90 489c0 44 13.667 82.333 41 115s59.333 49 96 49c24 0 46.5 -7.5 67.5 -22.5s38 -35.167 51 -60.5s19.5 -52.333 19.5 -81l-91 -489h-94zM774 877l-89 489c0 44 13.333 82.333 40 115c27.333 32.667 59.333 49 96 49c24 0 46.667 -7.5 68 -22.5
s38.333 -35.167 51 -60.5s19 -52.333 19 -81l-90 -489h-95z" />
    <glyph glyph-name="numbersign" unicode="#" 
d="M852 317c-14 -42 -27.667 -72.332 -41 -90.999c-12.667 -18 -35.667 -27 -69 -27c-26.667 0 -49.167 9.33301 -67.5 28s-27.5 40.667 -27.5 66c0 11.333 4 28.333 12 51l56 161h-236l-65 -186c-13.333 -40.667 -27 -71 -41 -91c-14 -19.333 -36.667 -29 -68 -29
c-27.333 0 -50.833 9.33301 -70.5 28s-29.5 42 -29.5 70c0 12.667 4 29.667 12 51l53 157h-98c-74 0 -111 29.667 -111 89c0 58.667 35.667 88 107 88l164 -1l86 248h-109c-72.667 0 -109 29.667 -109 89c0 30 10 52.167 30 66.5s45 21.5 75 21.5h174l54 154
c14.667 42.667 28.667 73.167 42 91.5s36.666 27.5 69.999 27.5c26.667 0 49.334 -9.66699 68.001 -29c19.333 -19.333 29 -42 29 -68c0 -12.667 -4.33301 -30.334 -13 -53.001l-41 -123h235l54 156c15.333 42.667 29.333 72.667 42 90c12.667 18 35.667 27 69 27
c25.333 0 47 -9.33301 65 -28c18 -18 27 -40.333 27 -67c0 -15.333 -3.33301 -32.333 -10 -51l-43 -127h94c72 0 108 -29.333 108 -88c0 -29.333 -9.66699 -51.5 -29 -66.5s-44.333 -22.5 -75 -22.5h-162l-84 -247h103c73.333 0 110 -29.333 110 -88
c0 -29.333 -9.83301 -51.5 -29.5 -66.5s-45.167 -22.5 -76.5 -22.5h-168zM625 929.001l-87 -245h238l84 245h-235z" />
    <glyph glyph-name="dollar" unicode="$" 
d="M619 1659c0 38.667 5.00098 67.8311 15.001 87.498s33 29.5 69 29.5c34 0 55.833 -9.66699 65.5 -29s14.5 -48 14.5 -86v-178c50.667 -2 106 -12.667 166 -32s110.833 -47.666 152.5 -84.999s62.5 -82.333 62.5 -135c0 -32.667 -11 -60.334 -33 -83.001
c-21.333 -22.667 -48.666 -34 -81.999 -34c-44.667 0 -73.667 9.33301 -87 28s-27.333 50.167 -42 94.5s-36.334 77.666 -65.001 99.999s-77.334 33.5 -146.001 33.5c-71.333 0 -131.166 -16.333 -179.499 -49s-72.5 -82.334 -72.5 -149.001c0 -71.333 26.667 -122 80 -152
s148.666 -70.167 285.999 -120.5s240.333 -106.833 309 -169.5s103 -153.667 103 -273c0 -60 -12 -115.167 -36 -165.5s-57.667 -94.166 -101 -131.499s-92.166 -66.166 -146.499 -86.499s-110.5 -31.166 -168.5 -32.499v-129v-49c0 -36 -5.33301 -64.167 -16 -84.5
s-32 -30.5 -64 -30.5c-34 0 -56.5 9.66699 -67.5 29s-16.5 47 -16.5 83v181c-102.667 7.33301 -190 28 -262 62c-54 26 -102.667 65 -146 117c-43.333 52.667 -65 106.334 -65 161.001c0 50.667 37.333 76 112 76c35.333 0 59.666 -6.66699 72.999 -20
c14 -13.333 29.333 -39.333 46 -78c20 -45.333 33.667 -75.166 41 -89.499s21 -30.5 41 -48.5c48 -46 121 -69 219 -69c80 0 147.833 17.333 203.5 52s83.5 89.667 83.5 165c0 62 -25 111.667 -75 149c-44 31.333 -129.333 71 -256 119l-80 31c-108 38.667 -188 81 -240 127
c-36.667 32.667 -66.667 75.334 -90 128.001c-23.333 53.333 -35 104.666 -35 153.999c0 117.333 41.5 211.666 124.5 282.999s184.833 112.333 305.5 123v176z" />
    <glyph glyph-name="percent" unicode="%" horiz-adv-x="1925" 
d="M49 1121c0 82 16.667 158 50 228s81.666 125.5 144.999 166.5s137 61.5 221 61.5c85.333 0 159.333 -20.667 222 -62c63.333 -41.333 111.333 -97.333 144 -168c33.333 -70.667 50 -148.334 50 -233.001c0 -87.333 -16 -166.666 -48 -237.999
c-32 -70.667 -80 -126.5 -144 -167.5s-140.667 -61.5 -230 -61.5c-64.667 0 -122.667 12.667 -174 38s-94.666 60 -129.999 104c-34.667 44.667 -61 95.5 -79 152.5s-27 116.833 -27 179.5zM611 1133c0 233.333 -48.667 350 -146 350s-146 -120 -146 -360
c0 -254 48 -381 144 -381c98.667 0 148 130.333 148 391zM1049 391c0 83.333 16.667 159.998 50 229.998s81.333 125.333 144 166c63.333 40.667 137.333 61 222 61s158.5 -20.667 221.5 -62s111 -97.166 144 -167.499s49.5 -147.5 49.5 -231.5c0 -88 -16 -167.667 -48 -239
s-80 -127.666 -144 -168.999c-64 -40.667 -140.667 -61 -230 -61c-85.333 0 -159 21.667 -221 65s-108.667 101 -140 173c-32 72.667 -48 151 -48 235zM1610 403.998c0 234 -48.333 351 -145 351c-97.333 0.666992 -146 -124 -146 -374c0 -245.333 48 -368 144 -368
c98 0 147 130.333 147 391zM559 65.998c-26 -36.667 -44.668 -59 -56.001 -67c-11.333 -7.33301 -35.666 -11 -72.999 -11c-53.333 0 -80 11 -80 33c0 4.66699 2.33301 11 7 19s10.167 16.333 16.5 25l15.5 21l992 1356c25.333 34.667 44 56 56 64s37.667 12 77 12
c46 0 69 -8.33301 69 -25c0 -14 -10 -35 -30 -63z" />
    <glyph glyph-name="ampersand" unicode="&#x26;" horiz-adv-x="1721" 
d="M1121 445l26 -31.0059c87.333 100.667 131 183.334 131 248.001c0 20.667 -5.16699 36.334 -15.5 47.001s-25.833 21.167 -46.5 31.5s-36 19.833 -46 28.5c-9.33301 8.66699 -14 21.334 -14 38.001c0 36.667 30.333 55 91 55h318c61.333 0 92 -21.667 92 -65
c0 -23.333 -16.333 -41.666 -49 -54.999c-36.667 -15.333 -61 -29 -73 -41c-12.667 -11.333 -30 -35.333 -52 -72l-233 -328c86 -91.333 183.333 -137 292 -137c16.667 0 38 3.33301 64 10c26.667 6 46.334 9 59.001 9c13.333 0 25.166 -5.66699 35.499 -17
s15.5 -24.333 15.5 -39c0 -35.333 -24.333 -65.333 -73 -90c-76 -40 -162.667 -60 -260 -60c-72 0 -138 11.5 -198 34.5s-121.667 57.5 -185 103.5c-68.667 -48.667 -139.5 -85.167 -212.5 -109.5s-151.833 -36.5 -236.5 -36.5c-84 0 -165.333 14.833 -244 44.5
s-143.334 74.334 -194.001 134.001s-76 132.167 -76 217.5c0 191.333 116.667 340.666 350 447.999c-88.667 116.667 -133 228 -133 334c0 59.333 15.5 115.833 46.5 169.5s71.5 96.167 121.5 127.5c93.333 57.333 205.333 86 336 86c70.667 0 138 -11.167 202 -33.5
s116.333 -57.5 157 -105.5s61 -108 61 -180c0 -60 -18.833 -115.167 -56.5 -165.5s-84.667 -93.666 -141 -129.999s-114.166 -66.166 -173.499 -89.499zM490 683.994c-98.667 -76 -148.001 -164 -148.001 -264c0 -54 12.5 -102.333 37.5 -145s59.167 -76 102.5 -100
c44 -23.333 93 -35 147 -35c48 0 89.333 6.66699 124 20s75.334 35.333 122.001 66zM911.999 1214.99c0 49.333 -16.667 90.0029 -50 122.003c-32.667 31.333 -74 47 -124 47c-45.333 0 -83.833 -15.167 -115.5 -45.5s-47.5 -67.5 -47.5 -111.5
c0 -43.333 11 -84.833 33 -124.5s53.667 -86.834 95 -141.501c62.667 35.333 113 72.666 151 111.999c38.667 39.333 58 86.666 58 141.999z" />
    <glyph glyph-name="quotesingle" unicode="'" horiz-adv-x="533" 
d="M219 877l-90 489c0 44 13.667 82.333 41 115s59.333 49 96 49c24 0 46.667 -7.5 68 -22.5s38 -35.167 50 -60.5c12.667 -25.333 19 -52.333 19 -81l-89 -489h-95z" />
    <glyph glyph-name="parenleft" unicode="(" horiz-adv-x="697" 
d="M557 -430c-37.333 0 -70 11.6689 -98 35.002s-57.333 56 -88 98c-43.333 56.667 -82.666 119.667 -117.999 189s-66 143 -92 221c-25.333 78 -44.5 155.667 -57.5 233s-19.5 151.333 -19.5 222c0 222.667 58.667 437.667 176 645c57.333 102 123 190 197 264
c33.333 35.333 73.666 53 120.999 53c18.667 0 34.5 -4.83301 47.5 -14.5s19.5 -23.167 19.5 -40.5c0 -20 -16.333 -64.333 -49 -133c-122 -251.333 -183 -506 -183 -764c0 -268.667 60.333 -543.334 181 -824.001c28.667 -68 43 -109.667 43 -125
c0 -18.667 -8.33301 -33.334 -25 -44.001c-16.667 -10 -35 -15 -55 -15z" />
    <glyph glyph-name="parenright" unicode=")" horiz-adv-x="697" 
d="M127 1530c37.333 0 69.999 -11.501 97.999 -34.501s57.667 -55.167 89 -96.5c88.667 -116 158.5 -251.833 209.5 -407.5s76.5 -307.834 76.5 -456.501c0 -225.333 -58.667 -440.666 -176 -645.999c-57.333 -102 -122.666 -190.667 -195.999 -266
c-36 -35.333 -76.333 -53 -121 -53c-19.333 0 -35.5 4.83301 -48.5 14.5s-19.5 23.834 -19.5 42.501s16.333 63 49 133c122 251.333 183 505.333 183 762c0 271.333 -60.333 546.666 -181 825.999c-28.667 63.333 -43 105 -43 125c0 18.667 8.33301 32.834 25 42.501
s35 14.5 55 14.5z" />
    <glyph glyph-name="asterisk" unicode="*" horiz-adv-x="819" 
d="M459 971c20.667 -44 31.001 -77.333 31.001 -100c0 -25.333 -7.33301 -46.666 -22 -63.999s-34.667 -26 -60 -26c-22.667 0 -42 8 -58 24s-24 35 -24 57c0 22.667 6.66699 53 20 91l25 69c13.333 30.667 20 53.334 20 68.001c0 13.333 -4 20 -12 20s-16.333 -4 -25 -12
s-17.5 -17.833 -26.5 -29.5l-22.5 -29.5l-28 -39.5c-11.333 -15.667 -22.166 -29 -32.499 -40s-21.833 -20.5 -34.5 -28.5c-12.667 -7.33301 -26 -11 -40 -11c-23.333 0 -43 7.66699 -59 23c-16.667 16 -25 35.667 -25 59c0 35.333 15.5 58.833 46.5 70.5
s73.5 22.167 127.5 31.5c13.333 2 26.666 4.16699 39.999 6.5s26.666 6.16602 39.999 11.499c14 5.33301 21 11.666 21 18.999c0 16.667 -41.667 29.667 -125 39c-50.667 5.33301 -89.667 13.666 -117 24.999s-41 35.666 -41 72.999c0 21.333 7.83301 39.333 23.5 54
s34.5 22 56.5 22c27.333 0 50.666 -9.33301 69.999 -28s45.666 -48.334 78.999 -89.001c34 -40.667 57.333 -61 70 -61c8 0 12 6 12 18s-6 32 -18 60l-23 57c-20 44 -30 78.667 -30 104c0 23.333 7.83301 42.5 23.5 57.5s35.167 22.5 58.5 22.5
c22.667 0 41.5 -8.66699 56.5 -26s22.5 -37.333 22.5 -60c0 -15.333 -2.66699 -32.666 -8 -51.999c-6 -18.667 -13 -38.334 -21 -59.001l-23 -59c-7.33301 -19.333 -11 -33.666 -11 -42.999c0 -12 3.33301 -18 10 -18c13.333 0 35.333 21.167 66 63.5s55.667 74 75 95
s43.333 31.5 72 31.5c22.667 0 41.667 -7.16699 57 -21.5s23 -33.166 23 -56.499c0 -39.333 -17.667 -66.166 -53 -80.499s-81.666 -25.833 -138.999 -34.5s-86 -18.667 -86 -30c0 -14 30.333 -24.667 91 -32s108.334 -16.833 143.001 -28.5s52 -36.5 52 -74.5
c0 -24.667 -7.16699 -44.167 -21.5 -58.5s-33.833 -21.5 -58.5 -21.5c-14.667 0 -29.167 4.16699 -43.5 12.5s-27.5 18.333 -39.5 30s-24.333 25 -37 40l-35 42.5c-30.667 38 -52 57 -64 57c-8 0 -12 -6 -12 -18c0 -9.33301 5.33301 -29.333 16 -60z" />
    <glyph glyph-name="plus" unicode="+" horiz-adv-x="1352" 
d="M586 686v435h195v-435h434v-195h-434v-435h-195v435h-436v195h436z" />
    <glyph glyph-name="comma" unicode="," horiz-adv-x="697" 
d="M295 -6c-42 0 -77.5 13.335 -106.5 40.002s-43.5 61 -43.5 103c0 50 20.5 89.5 61.5 118.5s86.833 43.5 137.5 43.5c40 0 75.5 -9.16699 106.5 -27.5s55.167 -43.833 72.5 -76.5s26 -68.334 26 -107.001c0 -114.667 -55.333 -218.334 -166 -311.001
c-56.667 -52 -99 -78 -127 -78c-12 0 -23.833 4.16699 -35.5 12.5s-17.5 18.5 -17.5 30.5c0 6.66699 4.66699 14.667 14 24c80.667 76 127.334 154 140.001 234c-20.667 -4 -41.334 -6 -62.001 -6z" />
    <glyph glyph-name="hyphen" unicode="-" horiz-adv-x="697" 
d="M226 463c-71.333 0 -115.333 7.00098 -132 21.001c-26 22 -39 58.667 -39 110c0 49.333 12.5 81.166 37.5 95.499s63.833 21.5 116.5 21.5h260c42.667 0 75.167 -2 97.5 -6s40.333 -14.833 54 -32.5s20.5 -45.167 20.5 -82.5c0 -54.667 -12 -89.5 -36 -104.5
s-66 -22.5 -126 -22.5h-253z" />
    <glyph glyph-name="period" unicode="." horiz-adv-x="697" 
d="M154 133c0 34 9.33301 63.668 28 89.001s43.334 44.5 74.001 57.5s62 19.5 94 19.5s63 -7 93 -21s54 -33.667 72 -59c18.667 -26 28 -55.333 28 -88c0 -47.333 -19.667 -86 -59 -116c-38.667 -30.667 -82.334 -46 -131.001 -46c-51.333 0 -97.333 15.333 -138 46
c-40.667 29.333 -61 68.666 -61 117.999z" />
    <glyph glyph-name="slash" unicode="/" horiz-adv-x="942" 
d="M166 -209c-16.667 -38.667 -29.333 -63.333 -38 -74s-28.667 -16 -60 -16c-45.333 0 -68 9.33301 -68 28c-0 7.33301 6.33301 24 19 50l747 1636c18 38 31.5 61.5 40.5 70.5s30.5 13.5 64.5 13.5c39.333 0 59 -8 59 -24c0 -12.667 -7.33301 -34.667 -22 -66z" />
    <glyph glyph-name="zero" unicode="0" 
d="M68 768c0 92 11.833 182.164 35.5 270.497s59.5 167.5 107.5 237.5c37.333 54 80.666 100.333 129.999 139c48.667 39.333 102.334 69.333 161.001 90s120 31 184 31c64.667 0 125.667 -9.83301 183 -29.5s110 -48.5 158 -86.5s91.333 -84 130 -138
c50.667 -70.667 88.667 -151.667 114 -243c24 -91.333 36 -186.333 36 -285c0 -94.667 -11.167 -187.167 -33.5 -277.5s-56.833 -171.166 -103.5 -242.499c-54 -81.333 -122.833 -145.666 -206.5 -192.999s-174.167 -71 -271.5 -71c-138.667 0 -255 38.5 -349 115.5
s-163.333 176.833 -208 299.5s-67 250.334 -67 383.001zM918 763.997c0 84.667 -4.33398 173 -13.001 265c-10 92 -32.167 175.833 -66.5 251.5s-85.166 113.5 -152.499 113.5c-92.667 0.666992 -160 -90.333 -202 -273c-18 -90.667 -27 -213 -27 -367
c0 -427.333 78.333 -641 235 -641c66.667 0 116.667 40 150 120c34 80 55.167 166.5 63.5 259.5s12.5 183.5 12.5 271.5z" />
    <glyph glyph-name="one" unicode="1" 
d="M524 1086c0 45.333 -2.6709 78.334 -8.00391 99.001s-18.166 35.5 -38.499 44.5s-53.166 13.5 -98.499 13.5h-63c-60 0 -90 21.333 -90 64c0 24.667 9 41.667 27 51c18.667 9.33301 44.334 17 77.001 23c92.667 14 184.667 43.333 276 88
c44.667 22.667 79.667 39.667 105 51c26 10.667 52.667 16 80 16c42 0 70.167 -11.5 84.5 -34.5s21.5 -57.167 21.5 -102.5v-1079c0 -44 2 -76.667 6 -98c4 -20.667 14.833 -37.334 32.5 -50.001s46.5 -20.667 86.5 -24c44.667 -5.33301 76.334 -11.666 95.001 -18.999
s28 -26.333 28 -57c0 -48 -32 -72 -96 -72h-678c-35.333 0 -62.333 4.5 -81 13.5s-28 28.5 -28 58.5c0 28 12.333 46.333 37 55c24 9.33301 54.667 15.666 92 18.999c44 3.33301 75 10 93 20s29.167 25.333 33.5 46s6.5 54 6.5 100v774z" />
    <glyph glyph-name="two" unicode="2" 
d="M232 -1c-38 0 -67.6699 5.00195 -89.0029 15.002s-32 31.333 -32 64c0 37.333 14.667 82 44 134c30 51.333 65 101.5 105 150.5s78.333 92.167 115 129.5l182 184c90 90 162 174.167 216 252.5s81 160.166 81 245.499c0 60.667 -18.167 111.167 -54.5 151.5
s-84.166 60.5 -143.499 60.5c-34 0 -68.667 -8.66699 -104 -26c-35.333 -16.667 -64.5 -40 -87.5 -70s-34.5 -62.667 -34.5 -98c0 -22 7.66699 -47.333 23 -76c17.333 -31.333 26 -54.333 26 -69c0 -35.333 -16 -62 -48 -80s-67 -27 -105 -27c-56 0 -101 17 -135 51
s-51 79.333 -51 136c0 60.667 16.333 116.667 49 168c32 52 75 95.667 129 131c52.667 36.667 113.5 64.167 182.5 82.5s139.833 27.5 212.5 27.5c132 0 244 -26.667 336 -80c59.333 -34 105.833 -78.833 139.5 -134.5s50.5 -117.167 50.5 -184.5
c0 -66 -14.833 -129.333 -44.5 -190s-66.667 -115.834 -111 -165.501s-96.833 -101.167 -157.5 -154.5l-377 -371h309c64.667 0 113.334 4.16699 146.001 12.5s70 29.5 112 63.5c41.333 32.667 71.666 49 90.999 49c14.667 0 27.334 -5.33301 38.001 -16
c11.333 -10.667 17 -23.667 17 -39c0 -20.667 -6.33301 -46 -19 -76c-7.33301 -18 -21.666 -69.333 -42.999 -154c-9.33301 -44.667 -23 -71.667 -41 -81c-18 -10.667 -52 -16 -102 -16h-825z" />
    <glyph glyph-name="three" unicode="3" 
d="M482 725c-34.667 1.33301 -60.499 6.83008 -77.499 16.4971s-25.5 29.5 -25.5 59.5c0 29.333 10.167 47.5 30.5 54.5s49.833 11.5 88.5 13.5c65.333 5.33301 116 13.166 152 23.499s68.667 33.833 98 70.5c20 22.667 35.167 53.334 45.5 92.001s15.5 76.334 15.5 113.001
c0 64.667 -15 118.5 -45 161.5s-76.333 64.5 -139 64.5c-42 0 -77.667 -10.333 -107 -31c-30 -22 -45 -52.333 -45 -91c0 -13.333 2.16699 -32 6.5 -56s6.5 -43 6.5 -57c0 -30.667 -14.833 -53.667 -44.5 -69s-62.167 -23 -97.5 -23c-114.667 0 -172 45 -172 135
s45.667 167.333 137 232c93.333 68 219.666 102 378.999 102c80.667 0 159.5 -13.833 236.5 -41.5s140.167 -70.5 189.5 -128.5c49.333 -57.333 74 -127.666 74 -210.999c0 -87.333 -29 -159.666 -87 -216.999c-58 -56.667 -132 -96.334 -222 -119.001
c104.667 -18 193.667 -61.833 267 -131.5s110 -155.5 110 -257.5c0 -70 -16.833 -135 -50.5 -195s-80.5 -111 -140.5 -153c-108.667 -74.667 -245 -112 -409 -112c-144 0 -267 24.333 -369 73c-52.667 26 -96.667 60.333 -132 103c-34.667 42.667 -52 90.334 -52 143.001
c0 48 14.333 83.833 43 107.5s67.334 35.5 116.001 35.5c48 0 82.333 -7.33301 103 -22c21.333 -14.667 34.333 -44 39 -88c8 -67.333 21.667 -114.333 41 -141c35.333 -50.667 87.666 -76 156.999 -76c90.667 0 157 28 199 84c42.667 56.667 64 131.667 64 225
c0 91.333 -22 164.333 -66 219c-46 56.667 -117 86 -213 88z" />
    <glyph glyph-name="four" unicode="4" 
d="M1059 246c0 -45.333 3.33301 -75.333 10 -90c6 -11.333 26 -23 60 -35c28.667 -10.667 43 -29.667 43 -57c0 -42.667 -34.333 -64 -103 -64h-411c-34 0 -60.667 3.66699 -80 11s-29 25 -29 53c0 18.667 5.83301 31.834 17.5 39.501s28.5 14.834 50.5 21.501
c20 6 33.333 10.667 40 14s12.334 11 17.001 23c4 15.333 6 42.666 6 81.999v141h-459c-48.667 0 -84.667 4.66699 -108 14s-35 30.666 -35 63.999c0 42 17.5 104.5 52.5 187.5s71.5 160.5 109.5 232.5c86 160 184.333 306 295 438c64 79.333 118.667 135.333 164 168
c42 31.333 98 47 168 47c55.333 0 95.666 -3 120.999 -9c25.333 -7.33301 43.166 -22.833 53.499 -46.5s15.5 -62.167 15.5 -115.5v-826h137c35.333 0 61 -4.66699 77 -14s24 -30 24 -62c0 -30 -7.66699 -49.833 -23 -59.5s-38.666 -14.5 -69.999 -14.5h-143v-143zM684 1247
c-196.667 -242.667 -335 -480.667 -415 -714h415v714z" />
    <glyph glyph-name="five" unicode="5" 
d="M404 894c94.667 42 197.002 63 307.002 63c71.333 0 139.666 -9.66699 204.999 -29s123.333 -48.333 174 -87c51.333 -38.667 91.833 -87.334 121.5 -146.001s44.5 -125.667 44.5 -201c0 -49.333 -7.16699 -98 -21.5 -146s-35.166 -92.833 -62.499 -134.5
s-60.333 -78.5 -99 -110.5c-110 -88.667 -256.667 -133 -440 -133c-135.333 0 -247.333 23 -336 69c-50 24.667 -92.667 58 -128 100c-34.667 42 -52 88.667 -52 140c0 46 14.667 81 44 105s67.333 36 114 36c38.667 0 72.834 -10 102.501 -30s44.5 -48.333 44.5 -85l-4 -63
c0 -46 16.667 -80 50 -102s74.666 -33 123.999 -33c62.667 0 114.667 16.333 156 49c41.333 33.333 71.5 76.666 90.5 129.999s28.5 111 28.5 173c0 62.667 -9.5 120.334 -28.5 173.001s-49.333 95 -91 127s-94.834 48 -159.501 48c-50.667 0 -90.667 -7.66699 -120 -23
s-62.666 -36.666 -99.999 -63.999c-36.667 -28 -65 -42 -85 -42c-26 0 -43.167 9.33301 -51.5 28s-12.5 49.667 -12.5 93l60 737c233.333 -14.667 389 -22 467 -22c33.333 0 70.666 1 111.999 3c40.667 2 79.5 4.5 116.5 7.5l141.5 11.5c37.333 0 56 -19.667 56 -59
c0 -38 -19.333 -74.667 -58 -110c-38 -36 -77.333 -61.667 -118 -77c-64.667 -21.333 -186.334 -32 -365.001 -32l-201 4z" />
    <glyph glyph-name="six" unicode="6" 
d="M811 940c89.333 0 170.331 -18.165 242.998 -54.498s130.167 -88.5 172.5 -156.5s63.5 -146.333 63.5 -235c0 -156.667 -56.333 -284.334 -169 -383.001c-105.333 -94 -244.666 -141 -417.999 -141c-130.667 0 -242.667 25.667 -336 77s-164.166 125.333 -212.499 222
s-72.5 210 -72.5 340c0 169.333 40 325.166 120 467.499s190.333 254.5 331 336.5s297 123 469 123c126.667 0 190 -26.667 190 -80c0 -42.667 -41 -66 -123 -70c-103.333 -4 -195.333 -29 -276 -75c-80 -46 -144.333 -108.833 -193 -188.5s-80 -170.5 -94 -272.5
c107.333 60 209 90 305 90zM902.998 463.002c0 82.667 -14.332 157.5 -42.999 224.5s-78.334 100.5 -149.001 100.5c-82 0.666992 -140.667 -31.333 -176 -96s-53 -141 -53 -229c0 -52.667 6.66699 -106 20 -160s36.333 -100 69 -138c32.667 -37.333 76 -56 130 -56
c75.333 0 128 36.667 158 110c29.333 74 44 155.333 44 244z" />
    <glyph glyph-name="seven" unicode="7" 
d="M463 1249c-54.667 0 -93.665 -4.33301 -116.998 -13s-42.333 -31.334 -57 -68.001c-8 -18.667 -17 -32.667 -27 -42s-24.333 -14 -43 -14c-29.333 0 -48 9 -56 27c-7.33301 17.333 -11 43.333 -11 78c0 30.667 1.66699 75.834 5 135.501s7.66602 94.834 12.999 105.501
c10.667 18.667 24 30.167 40 34.5s38.333 6.5 67 6.5h854c34.667 0 58.667 -2.33301 72 -7s20 -15.334 20 -32.001c0 -12.667 -9.33301 -40.334 -28 -83.001l-217 -594l-179 -633c-11.333 -47.333 -23.666 -81.333 -36.999 -102
c-12.667 -21.333 -29.334 -34.666 -50.001 -39.999s-54.334 -8 -101.001 -8h-43h-148c-62.667 6.66699 -94 26.667 -94 60c0 18 9 44.667 27 80l477 923l107 186h-474z" />
    <glyph glyph-name="eight" unicode="8" 
d="M1299 434c0 -71.333 -17.665 -137.332 -52.998 -197.999c-35.333 -60 -84 -110.667 -146 -152c-112.667 -76.667 -257.334 -115 -434.001 -115c-150 0 -275.667 28 -377 84c-64 34.667 -115.5 79.834 -154.5 135.501s-58.5 117.834 -58.5 186.501
c0 87.333 30.833 163 92.5 227s137.5 112 227.5 144c-178 96.667 -267 218 -267 364c0 64.667 17.667 125.5 53 182.5s82 103.5 140 139.5c106 69.333 238.333 104 397 104c133.333 0 244.666 -23 333.999 -69c58 -28.667 104.833 -67.334 140.5 -116.001
s53.5 -103.667 53.5 -165c0 -46.667 -13.333 -90.834 -40 -132.501s-60.667 -78.167 -102 -109.5c-42 -30.667 -86.333 -56.334 -133 -77.001c66 -32.667 123 -68.667 171 -108s86 -86 114 -140s42 -115.667 42 -185zM547.002 662.001c-112 -80 -168.002 -171 -168.002 -273
c0 -52 13.667 -98.667 41 -140c26.667 -40.667 62.834 -72.167 108.501 -94.5s94.834 -33.5 147.501 -33.5c38.667 0 78.667 8.33301 120 25s75.333 40.667 102 72s40 67.333 40 108c0 39.333 -11.333 75 -34 107c-23.333 32.667 -53 61.5 -89 86.5
s-70.333 45.833 -103 62.5l-128 61zM957 1176c0 41.333 -10.668 79.001 -32.001 113.001s-50 60.333 -86 79s-75.333 28 -118 28c-61.333 0 -114.666 -18.667 -159.999 -56c-44.667 -38 -67 -86.667 -67 -146c0 -60 30 -108.667 90 -146s137 -74 231 -110
c54 52.667 91.167 93.167 111.5 121.5s30.5 67.166 30.5 116.499z" />
    <glyph glyph-name="nine" unicode="9" 
d="M578 565c-92.667 0 -176.332 18.4971 -250.999 55.4971s-133.5 90.167 -176.5 159.5s-64.5 150 -64.5 242c0 70.667 15.833 140 47.5 208s73.834 124.333 126.501 169c53.333 47.333 115.166 82 185.499 104s145.166 33 224.499 33
c129.333 0 240.833 -26.167 334.5 -78.5s164.667 -126.833 213 -223.5s72.5 -209.667 72.5 -339c0 -125.333 -22.5 -244.166 -67.5 -356.499s-108.5 -211.166 -190.5 -296.499s-178.333 -151.666 -289 -198.999c-111.333 -48.667 -230 -73 -356 -73
c-62.667 0 -113.5 4.66699 -152.5 14s-58.5 30.333 -58.5 63c0 29.333 12.167 48 36.5 56s56.5 12.667 96.5 14c80.667 4 152.834 19.333 216.501 46s118.667 63.667 165 111s84.166 103 113.499 167s50.333 134.333 63 211c-90 -58 -186.333 -87 -289 -87zM895.002 1032
c0 116.667 -19 207 -57 271c-16 26.667 -38.167 49.334 -66.5 68.001s-57.5 28 -87.5 28c-54 0 -96.5 -18.667 -127.5 -56s-52.333 -82.333 -64 -135s-17.5 -106.334 -17.5 -161.001c0 -83.333 14.833 -159.833 44.5 -229.5s80.5 -104.5 152.5 -104.5
c53.333 0 96.833 15.833 130.5 47.5s57.5 71.667 71.5 120s21 98.833 21 151.5z" />
    <glyph glyph-name="colon" unicode=":" horiz-adv-x="697" 
d="M152 133c0 34 9.33301 63.668 28 89.001s43.334 44.5 74.001 57.5s62 19.5 94 19.5s63 -7 93 -21s54 -33.667 72 -59c18.667 -26 28 -55.333 28 -88c0 -47.333 -19.667 -86 -59 -116c-38.667 -30.667 -82.667 -46 -132 -46c-50.667 0 -96.334 15.333 -137.001 46
c-40.667 29.333 -61 68.666 -61 117.999zM152 762.001c0 50.667 19.667 90.999 59 120.999s85 45 137 45c32 0 63 -7 93 -21s54 -34 72 -60c18.667 -26 28 -55 28 -87c0 -31.333 -9.33301 -59.666 -28 -84.999c-18.667 -24.667 -42.667 -43.667 -72 -57
s-59.666 -20 -90.999 -20c-50.667 0 -96.334 15 -137.001 45s-61 69.667 -61 119z" />
    <glyph glyph-name="semicolon" unicode=";" horiz-adv-x="697" 
d="M148 762c0 50.667 19.667 90.999 59 120.999s85 45 137 45c32 0 63 -7 93 -21s54 -34 72 -60c18.667 -26 28 -55 28 -87c0 -31.333 -9.33301 -59.666 -28 -84.999c-18.667 -24.667 -42.667 -43.667 -72 -57s-59.666 -20 -90.999 -20c-50.667 0 -96.334 15 -137.001 45
s-61 69.667 -61 119zM301 -6.00098c-42 0 -77.5 13.335 -106.5 40.002s-43.5 61 -43.5 103c0 50 20.5 89.5 61.5 118.5s86.833 43.5 137.5 43.5c40 0 75.5 -9.16699 106.5 -27.5s55.167 -43.833 72.5 -76.5s26 -68.334 26 -107.001
c0 -114.667 -55.333 -218.334 -166 -311.001c-56.667 -52 -99 -78 -127 -78c-12 0 -23.833 4.16699 -35.5 12.5s-17.5 18.5 -17.5 30.5c0 6.66699 4.66699 14.667 14 24c80.667 75.333 127.334 153.333 140.001 234c-20.667 -4 -41.334 -6 -62.001 -6z" />
    <glyph glyph-name="less" unicode="&#x3c;" horiz-adv-x="1352" 
d="M1250 -25l-1135 519v184l1135 522v-192l-944 -424l944 -418v-191z" />
    <glyph glyph-name="equal" unicode="=" horiz-adv-x="1352" 
d="M1209 850v-195h-1065v195h1065zM1209 522v-195h-1065v195h1065z" />
    <glyph glyph-name="greater" unicode="&#x3e;" horiz-adv-x="1352" 
d="M1062 584l-947 424v192l1135 -522v-184l-1135 -519v191z" />
    <glyph glyph-name="question" unicode="?" horiz-adv-x="1106" 
d="M289 123c0 48.667 19.833 86.833 59.5 114.5s85.5 41.5 137.5 41.5c48 0 92 -14.5 132 -43.5s60 -67.167 60 -114.5s-21 -84.5 -63 -111.5s-88 -40.5 -138 -40.5c-47.333 0 -90.333 14.667 -129 44c-39.333 28 -59 64.667 -59 110zM373 669.999
c1.33301 50 2.67188 80.002 4.00488 90.002s7.33301 20 18 30s32 24 64 42c41.333 22.667 73.666 42.834 96.999 60.501s45.666 41.167 66.999 70.5c42 58.667 63 131.667 63 219c0 68 -14.5 125 -43.5 171s-75.167 69 -138.5 69c-40.667 0 -75.334 -12.333 -104.001 -37
c-15.333 -13.333 -25 -28 -29 -44c-4 -15.333 -6 -36.666 -6 -63.999s-1.66699 -48 -5 -62s-12 -29 -26 -45c-28.667 -28.667 -69 -43 -121 -43c-38.667 0 -71.834 11 -99.501 33s-41.5 52 -41.5 90c0 51.333 15 96.5 45 135.5s68.667 70.5 116 94.5
c47.333 24.667 97.333 42.667 150 54s103.334 17 152.001 17c148 0 266 -31.667 354 -95c52.667 -36.667 93.5 -83.334 122.5 -140.001s43.5 -117.667 43.5 -183c0 -56.667 -12 -111.334 -36 -164.001s-57.667 -98.334 -101 -137.001c-36.667 -34 -71.667 -59.333 -105 -76
c-32.667 -17.333 -91.334 -45.333 -176.001 -84c-30.667 -13.333 -49.834 -29.333 -57.501 -48s-11.5 -48.334 -11.5 -89.001c0 -42.667 -5.33301 -74.334 -16 -95.001c-10 -21.333 -34.333 -32 -73 -32c-44 0 -72.667 9.83301 -86 29.5s-20 50.834 -20 93.501v45v94z" />
    <glyph glyph-name="at" unicode="@" horiz-adv-x="1762" 
d="M1125 615c-24.667 -61.333 -36.999 -100.999 -36.999 -118.999c0 -11.333 6 -20.666 18 -27.999s25 -11 39 -11c82 0 162.667 46.333 242 139c80.667 91.333 121 193 121 305c0 77.333 -16.167 147.5 -48.5 210.5s-76.5 116.667 -132.5 161s-120.333 78.166 -193 101.499
c-72 23.333 -146 35 -222 35c-83.333 0 -167.333 -16.333 -252 -49c-84 -33.333 -156.333 -78.333 -217 -135c-44.667 -42 -82.667 -88.667 -114 -140c-30.667 -52 -54.167 -107.167 -70.5 -165.5s-24.5 -116.833 -24.5 -175.5c0 -91.333 18 -177 54 -257
c36 -79.333 85.667 -148.333 149 -207s137 -104.334 221 -137.001c84.667 -32.667 173.334 -49 266.001 -49c59.333 0 117.333 7 174 21s110.5 34.667 161.5 62s97.667 60.5 140 99.5s78.5 83.5 108.5 133.5h121c-38.667 -94.667 -94.334 -175 -167.001 -241
s-157 -115.833 -253 -149.5s-196.333 -50.5 -301 -50.5c-144.667 0 -279 34.667 -403 104c-123.333 69.333 -221.333 163.666 -294 282.999c-72 119.333 -108 249.333 -108 390c0 217.333 78.833 402.333 236.5 555s353.167 229 586.5 229
c92.667 0 182.167 -14.833 268.5 -44.5s162.833 -72.334 229.5 -128.001s119.167 -122.5 157.5 -200.5s57.5 -164 57.5 -258c0 -69.333 -14.333 -138.666 -43 -207.999s-68.334 -131.666 -119.001 -186.999c-50 -54.667 -109 -98.667 -177 -132
c-68 -32.667 -138.667 -49 -212 -49c-98.667 0 -148 43.333 -148 130c-87.333 -80.667 -177.333 -121 -270 -121c-75.333 0 -133.166 25.5 -173.499 76.5s-60.5 114.167 -60.5 189.5c0 86 21.167 174.833 63.5 266.5s100.666 168.167 174.999 229.5s156.833 92 247.5 92
c76 0 135.333 -29.333 178 -88l23 55h215zM940.001 703.001c21.333 42.667 41.333 91.668 60 147.001s28 99.666 28 132.999c0 18 -5.33301 34.167 -16 48.5s-25 21.5 -43 21.5c-51.333 0 -101 -31.667 -149 -95c-48 -62.667 -87.667 -135.667 -119 -219
c-30.667 -83.333 -46 -148 -46 -194c0 -56 23.333 -84 70 -84c69.333 0 141 80.667 215 242z" />
    <glyph glyph-name="A" unicode="A" horiz-adv-x="1516" 
d="M129 0c-51.333 0 -88.665 4.33301 -111.998 13s-35 27.667 -35 57c0 20 14.333 40.333 43 61c20.667 13.333 34.667 23.666 42 30.999s14 19 20 35l73 229c18 56 37.667 112 59 168s45.5 116 72.5 180l72.5 170l85 191c49.333 112.667 99.666 215.667 150.999 309
c17.333 31.333 36 51.166 56 59.499s51.333 12.5 94 12.5c56 0 94.833 -8 116.5 -24s43.5 -49.667 65.5 -101l420 -983l72 -213c7.33301 -18 14.5 -30.5 21.5 -37.5s20.5 -16.5 40.5 -28.5c25.333 -15.333 38 -35 38 -59c0 -46.667 -34.667 -70 -104 -70h-347
c-36 0 -65.667 3.83301 -89 11.5s-35 25.834 -35 54.501c0 14.667 3.66699 26.334 11 35.001c8 8 19.667 16.333 35 25s26.166 15.667 32.499 21s9.5 13 9.5 23s-4.66699 31.667 -14 65s-21.333 72.333 -36 117l-32 100l-11 33h-573c-6 -19.333 -16 -50 -30 -92
c-14.667 -41.333 -26.167 -77.333 -34.5 -108s-12.5 -55.334 -12.5 -74.001c0 -20 4.33301 -35.167 13 -45.5s22 -20.833 40 -31.5s31.333 -20.5 40 -29.5s13 -21.833 13 -38.5c0 -27.333 -12.833 -45.166 -38.5 -53.499s-65.5 -12.5 -119.5 -12.5h-113zM888.001 654l-11 33
l-219 511l-229 -544h459z" />
    <glyph glyph-name="B" unicode="B" horiz-adv-x="1516" 
d="M146 0c-67.333 0 -101 23.334 -101 70.001c0 16.667 3.66699 29 11 37s20 17.333 38 28l23 13c16 8 26.167 19.833 30.5 35.5s6.5 41.167 6.5 76.5v979c0 36 -2.16699 61.833 -6.5 77.5s-14.5 27.5 -30.5 35.5l-23 12c-18.667 12.667 -31.5 22.667 -38.5 30
s-10.5 19.333 -10.5 36c0 46 33.667 69 101 69h743c66 0 124.333 -4 175 -12s97.334 -24.333 140.001 -49c51.333 -29.333 91.5 -67.5 120.5 -114.5s43.5 -98.833 43.5 -155.5c0 -76 -28.333 -144 -85 -204s-124.334 -106 -203.001 -138
c52.667 -10 102.5 -26.167 149.5 -48.5s88.333 -50.333 124 -84s63.834 -73.667 84.501 -120s31 -96.833 31 -151.5c0 -62.667 -13.667 -121.334 -41 -176.001c-28.667 -54 -68.334 -100.333 -119.001 -139c-94 -71.333 -217.667 -107 -371 -107h-792zM527 817.001
c116 24 220.333 65.499 313 124.499s139 137.167 139 234.5c0 72 -26.333 120.667 -79 146s-119.667 38 -201 38c-76.667 0 -126.667 -12.333 -150 -37c-14.667 -17.333 -22 -54.666 -22 -111.999v-394zM527 299c0 -58.667 10 -98.333 30 -119
c23.333 -20 70.666 -30 141.999 -30c103.333 0 191 23.667 263 71c71.333 48 107 121.333 107 220c0 44 -10.5 85.333 -31.5 124s-49.5 71.667 -85.5 99c-35.333 28 -74.666 48.333 -117.999 61l-307 -73v-353z" />
    <glyph glyph-name="C" unicode="C" horiz-adv-x="1557" 
d="M1159 1302c-66.667 52 -141.001 77.998 -223.001 77.998c-71.333 0 -137.666 -17 -198.999 -51s-113 -81.667 -155 -143c-78 -112.667 -117 -253.334 -117 -422.001c0 -68 9.16699 -140.167 27.5 -216.5s44.166 -142.833 77.499 -199.5c26 -44 58.667 -80.667 98 -110
s82.5 -51.333 129.5 -66s96.5 -22 148.5 -22c63.333 0 126.333 14.167 189 42.5s118 67.166 166 116.499l38 39.5c13.333 13.667 27.333 25 42 34s29.667 13.5 45 13.5c20 0 36.833 -7.16699 50.5 -21.5s20.5 -31.166 20.5 -50.499c0 -44 -22.5 -88.667 -67.5 -134
s-93.5 -83.333 -145.5 -114c-118.667 -71.333 -255.667 -107 -411 -107c-107.333 0 -209.666 17.833 -306.999 53.5s-184 87.5 -260 155.5c-75.333 67.333 -134.333 147.333 -177 240c-42.667 93.333 -64 195 -64 305c0 112 22.833 217.5 68.5 316.5s108 185.167 187 258.5
s169.667 130.333 272 171s208.833 61 319.5 61c84 0 168.167 -11.667 252.5 -35s158.5 -56.666 222.5 -99.999c37.333 -21.333 59.666 -44 66.999 -68c12.667 -38 19 -113 19 -225c0 -24.667 -8 -44 -24 -58c-15.333 -14.667 -36 -22 -62 -22c-24 0 -42 8 -54 24
s-27.667 43 -47 81c-19.333 42.667 -37.666 76.834 -54.999 102.501s-41.333 49.834 -72 72.501z" />
    <glyph glyph-name="D" unicode="D" horiz-adv-x="1680" 
d="M738 1499c80 0 153.001 -4.16895 219.001 -12.502s129.667 -24.166 191 -47.499c62 -23.333 121 -57 177 -101c90 -69.333 157.667 -153.666 203 -252.999c44 -99.333 66 -207.666 66 -324.999c0 -68.667 -7.33301 -136.334 -22 -203.001
c-14.667 -66 -37.667 -128.667 -69 -188c-30.667 -60 -69.334 -114 -116.001 -162c-138 -138 -331.333 -207 -580 -207h-661c-67.333 -0 -101 23.333 -101 70c0 16.667 3.66699 29 11 37s20 17.333 38 28l23 13c16 8 26.167 19.833 30.5 35.5s6.5 41.167 6.5 76.5v979
c0 36 -2.16699 61.833 -6.5 77.5s-14.5 27.5 -30.5 35.5l-23 12c-18.667 12.667 -31.5 22.667 -38.5 30s-10.5 19.333 -10.5 36c0 46 33.667 69 101 69h592zM527.001 343.998c0 -56.667 2.66504 -97.667 7.99805 -123c4.66699 -24.667 18 -43.334 40 -56.001
s58.333 -19 109 -19c83.333 0 157 15.333 221 46s117.667 73.334 161 128.001c42.667 55.333 74.667 118.666 96 189.999s32 147.333 32 228c0 82.667 -10.833 161.167 -32.5 235.5s-54.167 139.833 -97.5 196.5s-98.166 101.334 -164.499 134.001s-142.166 49 -227.499 49
c-48 0 -82 -5.33301 -102 -16s-32.167 -27.167 -36.5 -49.5s-6.5 -58.833 -6.5 -109.5v-834z" />
    <glyph glyph-name="E" unicode="E" horiz-adv-x="1352" 
d="M527 375c0 -56.667 3.00195 -99.332 9.00195 -127.999s18.667 -50 38 -64s48.333 -23.333 87 -28c38 -4 94.333 -6.33301 169 -7c71.333 0 127.333 6 168 18c41.333 11.333 82.333 39.333 123 84c30.667 34.667 54.667 59.667 72 75s37.666 23 60.999 23
c18.667 0 35.5 -6.33301 50.5 -19s22.5 -28.667 22.5 -48c0 -40.667 -15 -103 -45 -187c-12.667 -42 -26.667 -68.167 -42 -78.5s-46.333 -15.5 -93 -15.5h-1001c-67.333 0 -101 23.333 -101 70c0 16.667 3.66699 29 11 37s20 17.667 38 29l23 12c16 8 26 20 30 36
c4.66699 15.333 7 40.666 7 75.999v979c0 36 -2.16699 61.833 -6.5 77.5s-14.5 27.5 -30.5 35.5l-23 12c-18.667 12.667 -31.5 22.667 -38.5 30s-10.5 19.333 -10.5 36c0 46 33.667 69 101 69h956c58.667 0 96.334 -8 113.001 -24c11.333 -14 20 -42 26 -84s9 -79 9 -111
c0 -58.667 -24.667 -88 -74 -88c-20.667 0 -37 4.66699 -49 14s-27 25.333 -45 48c-38 43.333 -81 71 -129 83c-48 10.667 -116.333 16 -205 16c-85.333 0 -142 -5 -170 -15c-34 -14 -51 -34.667 -51 -62v-381h309c41.333 0 70.166 4.33301 86.499 13
s33.5 21.334 51.5 38.001c18.667 16.667 36.667 25 54 25c31.333 0 51.166 -13.333 59.499 -40s12.5 -60.334 12.5 -101.001c0 -58.667 -4.5 -102 -13.5 -130s-28.5 -42 -58.5 -42c-17.333 0 -36 7.66699 -56 23c-19.333 16 -37 28 -53 36c-15.333 7.33301 -43 11 -83 11
h-309v-353z" />
    <glyph glyph-name="F" unicode="F" horiz-adv-x="1270" 
d="M525 260c0 -35.333 2.16797 -60.833 6.50098 -76.5s14.166 -27.5 29.499 -35.5l23 -13c18 -10.667 30.667 -20 38 -28s11 -20.333 11 -37c0 -46.667 -33.333 -70 -100 -70h-389c-67.333 -0 -101 23.333 -101 70c0 16.667 3.66699 29 11 37s20 17.333 38 28l23 13
c16 8 26.167 19.833 30.5 35.5s6.5 41.167 6.5 76.5v979c0 36 -2.16699 61.833 -6.5 77.5s-14.5 27.5 -30.5 35.5l-23 12c-18.667 12.667 -31.5 22.667 -38.5 30s-10.5 19.333 -10.5 36c0 46 33.667 69 101 69h888c71.333 0 116.666 -5.33301 135.999 -16
c10.667 -6.66699 19.834 -18 27.501 -34s13 -32 16 -48s5.66699 -35.333 8 -58l5.5 -55c0 -42 -3.33301 -71.667 -10 -89c-6.66699 -16.667 -21 -25 -43 -25c-18.667 0 -33.834 4.33301 -45.501 13s-26.5 22.667 -44.5 42c-48.667 55.333 -96.667 89.833 -144 103.5
s-115.666 20.5 -204.999 20.5c-96.667 0 -156.667 -9.33301 -180 -28c-18.667 -18.667 -28 -61 -28 -127v-346h299c41.333 0 70.166 4.33301 86.499 13s33.5 21.334 51.5 38.001s36 25 54 25c31.333 0 51 -13.333 59 -40c8.66699 -26.667 13 -60.334 13 -101.001
c0 -58 -4.66699 -101.333 -14 -130c-8.66699 -28 -28 -42 -58 -42c-18 0 -36.667 7.66699 -56 23c-20 16 -38 28 -54 36c-15.333 7.33301 -42.666 11 -81.999 11h-299v-425z" />
    <glyph glyph-name="G" unicode="G" horiz-adv-x="1598" 
d="M1487 1114c-9.33301 -43.333 -34.6709 -64.999 -76.0039 -64.999c-21.333 0 -37.333 5.16699 -48 15.5s-22 27.5 -34 51.5c-37.333 80 -78 138 -122 174c-68.667 55.333 -150.667 83 -246 83c-108.667 0 -200.5 -31 -275.5 -93s-130.5 -142.333 -166.5 -241
c-36 -98 -54 -200 -54 -306c0 -92.667 16.833 -184.834 50.5 -276.501s84.167 -167.5 151.5 -227.5c68 -59.333 149.667 -89 245 -89c39.333 0 79 6.33301 119 19c40.667 12 73.334 30.667 98.001 56c39.333 41.333 59 122.666 59 243.999c0 49.333 -3 85.166 -9 107.499
s-19.5 38.166 -40.5 47.499s-54.833 14 -101.5 14h-50c-73.333 0 -110 26.333 -110 79c0 35.333 14 57.833 42 67.5s64.333 14.5 109 14.5h330c79.333 0 133.333 -5 162 -15c23.333 -8.66699 35 -27 35 -55c0 -20.667 -3.66699 -52 -11 -94l-12 -143
c0 -72.667 7.66699 -139.667 23 -201c4 -20 6 -33.667 6 -41c0 -26.667 -14.667 -52.667 -44 -78c-28.667 -25.333 -61 -46.666 -97 -63.999c-35.333 -18 -71 -33.667 -107 -47c-147.333 -54.667 -287.333 -82 -420 -82c-154.667 0 -294.667 30.667 -420 92
c-126 60 -225.5 147.833 -298.5 263.5s-109.5 251.167 -109.5 406.5c0 120.667 22 230.334 66 329.001c44.667 99.333 106.667 184 186 254c78.667 70.667 169.834 124.334 273.501 161.001s214.834 55 333.501 55c77.333 0 158.333 -9.5 243 -28.5
s157.334 -45.5 218.001 -79.5c44 -26 72.667 -51.333 86 -76c10.667 -24.667 16 -84.667 16 -180v-52z" />
    <glyph glyph-name="H" unicode="H" horiz-adv-x="1680" 
d="M531 260c0 -35.333 2.33105 -60.835 6.99805 -76.502s14.667 -27.5 30 -35.5l22 -13c17.333 -10 29.833 -19.167 37.5 -27.5s11.5 -20.833 11.5 -37.5c0 -46.667 -33.333 -70 -100 -70h-389c-67.333 0 -101 23.333 -101 70c0 16.667 3.83301 29 11.5 37
s20.5 17.333 38.5 28l22 13c16 8 26.167 19.833 30.5 35.5s6.5 41.167 6.5 76.5v979c0 36 -2 62 -6 78c-5.33301 15.333 -15.666 27 -30.999 35l-22 12c-18.667 12 -31.667 21.833 -39 29.5s-11 19.834 -11 36.501c0 46 33.667 69 101 69h389c66.667 0 100 -23 100 -69
c0 -16.667 -3.66699 -29 -11 -37s-20 -17.667 -38 -29l-22 -12c-15.333 -7.33301 -25.333 -19 -30 -35s-7 -42 -7 -78v-348h610v348c0 36 -2 62 -6 78c-5.33301 15.333 -15.666 27 -30.999 35l-22 12c-18.667 12 -31.667 21.833 -39 29.5s-11 19.834 -11 36.501
c0 46 33.667 69 101 69h389c66.667 0 100 -23 100 -69c0 -16.667 -3.66699 -29 -11 -37s-20 -17.667 -38 -29l-22 -12c-15.333 -7.33301 -25.333 -19 -30 -35s-7 -42 -7 -78v-979c0 -35.333 2.33301 -60.833 7 -76.5s14.667 -27.5 30 -35.5l22 -13
c17.333 -10 29.833 -19.167 37.5 -27.5s11.5 -20.833 11.5 -37.5c0 -46.667 -33.333 -70 -100 -70h-389c-67.333 -0 -101 23.333 -101 70c0 16.667 3.83301 29 11.5 37s20.5 17.333 38.5 28l22 13c16 8 26.167 19.833 30.5 35.5s6.5 41.167 6.5 76.5v477h-610v-477z" />
    <glyph glyph-name="I" unicode="I" horiz-adv-x="697" 
d="M156 1239c0 36 -2.00098 61.999 -6.00098 77.999c-5.33301 15.333 -15.666 27 -30.999 35l-22 12c-18.667 12 -31.667 21.833 -39 29.5s-11 19.834 -11 36.501c0 46 33.667 69 101 69h389c66.667 0 100 -23 100 -69c0 -16.667 -3.66699 -29 -11 -37s-20 -17.667 -38 -29
l-23 -12c-15.333 -8 -25.166 -19.833 -29.499 -35.5s-6.5 -41.5 -6.5 -77.5v-979c0 -35.333 2.16699 -60.833 6.5 -76.5s14.166 -27.5 29.499 -35.5l23 -13c17.333 -10 29.833 -19.167 37.5 -27.5s11.5 -20.833 11.5 -37.5c0 -46.667 -33.333 -70 -100 -70h-389
c-67.333 -0 -101 23.333 -101 70c0 16.667 3.83301 29 11.5 37s20.5 17.333 38.5 28l22 13c16 8 26.167 19.833 30.5 35.5s6.5 41.167 6.5 76.5v979z" />
    <glyph glyph-name="J" unicode="J" horiz-adv-x="1147" 
d="M631 1239c0 36 -2.33301 61.832 -7 77.499s-14.667 27.5 -30 35.5l-22 12c-19.333 12.667 -32.333 22.667 -39 30c-7.33301 8 -11 20 -11 36c0 46 33.667 69 101 69h389c66.667 0 100 -23 100 -69c0 -16.667 -3.66699 -29 -11 -37s-20 -17.667 -38 -29l-22 -12
c-15.333 -7.33301 -25.333 -19 -30 -35s-7 -42 -7 -78v-778c0 -85.333 -7 -157.666 -21 -216.999c-14.667 -58.667 -46.667 -110 -96 -154c-46 -40 -105.333 -70.333 -178 -91c-73.333 -20 -146.333 -30 -219 -30c-81.333 0 -159 12 -233 36s-135 62.667 -183 116
s-72 121.666 -72 204.999c0 54 13 102.333 39 145s61.5 75.5 106.5 98.5s94.833 34.5 149.5 34.5c25.333 0 51.333 -4.33301 78 -13c27.333 -8.66699 49.833 -22 67.5 -40s26.5 -40.333 26.5 -67c0 -27.333 -7.5 -46.166 -22.5 -56.499s-39.333 -21.166 -73 -32.499
s-58.834 -25 -75.501 -41s-25 -41.667 -25 -77c0 -46 16.667 -82.333 50 -109c34 -27.333 74.667 -41 122 -41c74.667 0 124.334 26.167 149.001 78.5s37 121.166 37 206.499v827z" />
    <glyph glyph-name="K" unicode="K" horiz-adv-x="1598" 
d="M537 260c0 -35.333 2.33105 -60.834 6.99805 -76.501s14.667 -27.5 30 -35.5l22 -13c17.333 -10 29.833 -19.167 37.5 -27.5s11.5 -20.833 11.5 -37.5c0 -46.667 -33.333 -70 -100 -70h-389c-66.667 0 -100 23.333 -100 70c0 16.667 3.66699 29 11 37s20 17.333 38 28
l22 13c16 8 26.167 19.833 30.5 35.5s6.5 41.167 6.5 76.5v979c0 36 -2.33301 61.833 -7 77.5s-14.667 27.5 -30 35.5l-22 12c-19.333 12.667 -32.333 22.667 -39 30s-10 19.333 -10 36c0 46 33.333 69 100 69h389c66.667 0 100 -23 100 -69c0 -16.667 -3.66699 -29 -11 -37
s-20 -17.667 -38 -29l-22 -12c-15.333 -7.33301 -25.333 -19 -30 -35s-7 -42 -7 -78v-469l336 269c156.667 149.333 235 242.666 235 279.999c0 13.333 -3.33301 23.333 -10 30s-17.667 14.5 -33 23.5s-26.666 17.833 -33.999 26.5s-11 21 -11 37c0 42 31.333 63 94 63h252
c30 0 57.333 -4 82 -12c31.333 -12 47 -34.333 47 -67c0 -28 -22.333 -52.667 -67 -74c-40 -20 -70.5 -40.333 -91.5 -61s-53.5 -57.667 -97.5 -111l-266 -275c58.667 -60.667 115.667 -127 171 -199c55.333 -71.333 107.333 -144.666 156 -219.999
s96.667 -155.333 144 -240c16 -28.667 30 -50.334 42 -65.001s29.333 -28 52 -40s38 -22.167 46 -30.5s12 -23.166 12 -44.499c0 -40 -33 -60 -99 -60h-391c-84.667 0 -127 22.667 -127 68c0 17.333 3.33301 29.333 10 36c6.66699 7.33301 18.667 17.666 36 30.999
c17.333 14 26 25.667 26 35c0 30.667 -22.167 81.834 -66.5 153.501s-95.166 144.5 -152.499 218.5c-58 74.667 -103 128.334 -135 161.001l-160 -123v-320z" />
    <glyph glyph-name="L" unicode="L" horiz-adv-x="1229" 
d="M158 1239c0 36 -2 62 -6 78c-5.33301 15.333 -15.666 27 -30.999 35l-22 12c-18.667 12 -31.667 21.833 -39 29.5s-11 19.834 -11 36.501c0 46 33.667 69 101 69h389c66.667 0 100 -23 100 -69c0 -16.667 -3.66699 -29 -11 -37s-20 -17.667 -38 -29l-22 -12
c-15.333 -7.33301 -25.333 -19 -30 -35s-7 -42 -7 -78v-964c0 -40.667 3.66699 -69 11 -85c8 -16.667 21 -27.334 39 -32.001c18 -4 49.667 -7.33301 95 -10h76c71.333 0 127.5 5.83301 168.5 17.5s81.833 39.834 122.5 84.501c29.333 33.333 53.166 58 71.499 74
s38.833 24 61.5 24c19.333 0 36.333 -6.33301 51 -19c15.333 -12.667 23 -28.667 23 -48c0 -40 -15.333 -102.333 -46 -187c-12.667 -42 -26.667 -68.167 -42 -78.5s-46.333 -15.5 -93 -15.5h-919c-67.333 0 -101 23.333 -101 70c0 16.667 3.83301 29 11.5 37
s20.5 17.667 38.5 29l22 12c16 8 26 20 30 36c4.66699 15.333 7 40.666 7 75.999v979z" />
    <glyph glyph-name="M" unicode="M" horiz-adv-x="1884" 
d="M1266 1393c12.667 31.333 23.3291 54.001 31.9961 68.001s20.334 24 35.001 30c15.333 5.33301 38 8 68 8h381c20 0 36.667 -6.33301 50 -19s20 -30.667 20 -54s-6.66699 -39.666 -20 -48.999c-12.667 -9.33301 -32.667 -18.333 -60 -27
c-25.333 -7.33301 -41.666 -18.333 -48.999 -33s-11 -37 -11 -67v-990c0 -35.333 2.33301 -60.833 7 -76.5s14.667 -27.5 30 -35.5l23 -13c16.667 -10 29 -19.167 37 -27.5s12 -20.833 12 -37.5c0 -46.667 -33.333 -70 -100 -70h-390c-66.667 0 -100 23.333 -100 70
c0 16.667 3.66699 29 11 37s20 17.333 38 28l23 13c16 8 26 19.833 30 35.5s6 41.167 6 76.5v889l-331 -823c-17.333 -40.667 -29.666 -67.834 -36.999 -81.501s-19.666 -24.834 -36.999 -33.501c-16.667 -9.33301 -42 -14 -76 -14c-33.333 0 -58.333 1.66699 -75 5
c-16 3.33301 -30 11 -42 23s-24 31.333 -36 58l-361 844v-871c2.66699 -27.333 7 -49.666 13 -66.999c6 -16 13.667 -26.833 23 -32.5s27.333 -14.167 54 -25.5c18.667 -7.33301 32 -15.666 40 -24.999s12 -23.333 12 -42c0 -26.667 -12 -44 -36 -52s-58.667 -12 -104 -12
h-178c-44.667 0 -79 4 -103 12s-36 25.333 -36 52c0 18.667 4 32.667 12 42s21 17.666 39 24.999c25.333 10 43 18.333 53 25c10.667 6 19 17 25 33c6 17.333 10 39.666 12 66.999v983c0 18 -2 32.333 -6 43c-8.66699 38 -35.334 63.333 -80.001 76
c-26.667 8.66699 -46.334 17.334 -59.001 26.001s-19 24 -19 46c0 29.333 10.333 48.166 31 56.499s49.334 12.5 86.001 12.5h399c24 0 43.333 -3.33301 58 -10c15.333 -7.33301 27.333 -17 36 -29s16.834 -28 24.501 -48l21.5 -58l286 -735z" />
    <glyph glyph-name="N" unicode="N" horiz-adv-x="1557" 
d="M1233 1243c-2 28.667 -6.1709 51.334 -12.5039 68.001s-15 28.334 -26 35.001s-28.167 14 -51.5 22c-18.667 8.66699 -32 17.667 -40 27c-7.33301 8.66699 -11 22.334 -11 41.001c0 26.667 11.833 43.834 35.5 51.501s58.167 11.5 103.5 11.5h178
c45.333 0 80 -3.83301 104 -11.5s36 -24.834 36 -51.501c0 -18.667 -4 -32.334 -12 -41.001c-7.33301 -9.33301 -20.666 -18.333 -39.999 -27c-24 -8.66699 -41.333 -16.334 -52 -23.001s-19 -18.167 -25 -34.5s-10.333 -38.833 -13 -67.5v-1112
c0 -42.667 -2.33301 -73.334 -7 -92.001s-16 -32.334 -34 -41.001s-48 -13 -90 -13c-27.333 0 -48.166 1.83301 -62.499 5.5s-28.166 13.167 -41.499 28.5c-16.667 16 -66.667 87 -150 213l-641 882v-858c2.66699 -27.333 6.66699 -49.666 12 -66.999
c6.66699 -16 14.667 -27 24 -33c8.66699 -5.33301 26.667 -13.666 54 -24.999c18.667 -7.33301 31.834 -15.666 39.501 -24.999s11.5 -23.333 11.5 -42c0 -26.667 -11.833 -44 -35.5 -52s-58.167 -12 -103.5 -12h-178c-45.333 0 -79.833 4 -103.5 12s-35.5 25.333 -35.5 52
c0 18.667 4 32.667 12 42s21 17.666 39 24.999c26 10.667 44 19 54 25s18 17 24 33c6 19.333 10 41.666 12 66.999v908c0 62.667 -4.66699 107.667 -14 135s-33.333 47 -72 59c-26.667 8.66699 -46.334 17.334 -59.001 26.001s-19 24 -19 46
c0 29.333 10.333 48.166 31 56.499s49.334 12.5 86.001 12.5h281c40 0 67 -2.33301 81 -7s33.333 -20 58 -46c52 -54.667 105.833 -119.5 161.5 -194.5l215.5 -298.5l276 -388v678z" />
    <glyph glyph-name="O" unicode="O" horiz-adv-x="1762" 
d="M297 191c-154.667 148 -232 335.666 -232 562.999c0 148 36.333 281.333 109 400c71.333 118 168.833 210.167 292.5 276.5s259.167 99.5 406.5 99.5c112 0 217.833 -18.5 317.5 -55.5s187 -90 262 -159s133.667 -151.5 176 -247.5s63.5 -200.667 63.5 -314
c0 -112 -21.333 -216.333 -64 -313c-44 -96.667 -104 -180 -180 -250s-164.333 -124.667 -265 -164c-100.667 -38.667 -206 -58 -316 -58c-103.333 0 -205.5 19.333 -306.5 58s-188.833 93.334 -263.5 164.001zM1293 745.999c0 98 -12.999 195 -38.999 291
s-70.333 176 -133 240c-62 64 -143.333 96 -244 96c-73.333 0.666992 -137.833 -19.333 -193.5 -60s-101.834 -96 -138.501 -166c-53.333 -104.667 -80 -233.667 -80 -387c0 -70.667 6.83301 -142.167 20.5 -214.5s36.167 -140.5 67.5 -204.5s73.833 -116 127.5 -156
s118.5 -60 194.5 -60c101.333 0 183.333 31.5 246 94.5s107 141.5 133 235.5s39 191 39 291z" />
    <glyph glyph-name="P" unicode="P" 
d="M525 256c2.66699 -27.333 6.66504 -49.667 11.998 -67c6.66699 -16 14.667 -27 24 -33c10 -6 28 -14.333 54 -25c34 -14 51 -36.333 51 -67c0 -26.667 -12 -44 -36 -52s-58.333 -12 -103 -12h-383c-67.333 -0 -101 23.333 -101 70c0 16.667 3.66699 29 11 37
s20 17.333 38 28l23 13c16 8 26.167 19.833 30.5 35.5s6.5 41.167 6.5 76.5v979c0 36 -2.16699 61.833 -6.5 77.5s-14.5 27.5 -30.5 35.5l-23 12c-18.667 12.667 -31.5 22.667 -38.5 30s-10.5 19.333 -10.5 36c0 46 33.667 69 101 69h632c78 0 149 -5 213 -15
s123 -28.667 177 -56c66.667 -34.667 118.834 -80.834 156.501 -138.501s56.5 -123.5 56.5 -197.5c0 -62 -13.5 -119.667 -40.5 -173s-63.167 -100.166 -108.5 -140.499s-96.666 -74.5 -153.999 -102.5c-127.333 -62.667 -311 -99.667 -551 -111v-309zM524.998 722.999
c124 17.333 230.667 53.833 320 109.5s134 138.167 134 247.5c0 56.667 -12.5 106 -37.5 148s-59.833 73.833 -104.5 95.5s-95.667 32.5 -153 32.5c-62.667 0 -105.667 -11.667 -129 -35c-20 -20.667 -30 -61 -30 -121v-477z" />
    <glyph glyph-name="Q" unicode="Q" horiz-adv-x="1762" 
d="M826 -31c-142.667 0 -272.169 34.1689 -388.502 102.502s-207.833 161.5 -274.5 279.5c-66.667 118.667 -100 249 -100 391c0 112.667 21 217.667 63 315c42.667 97.333 101.334 181.166 176.001 251.499s162 124.833 262 163.5s205.667 58 317 58
c69.333 0 138.333 -7.66699 207 -23s133.834 -39 195.501 -71s117.167 -71.667 166.5 -119c72 -69.333 129 -154.166 171 -254.499s63 -201.166 63 -302.499c0 -83.333 -13.167 -163.833 -39.5 -241.5s-64 -149.334 -113 -215.001s-106.5 -122.5 -172.5 -170.5
c-66 -47.333 -139.333 -84 -220 -110c74.667 -55.333 154 -83 238 -83c19.333 0 48 2.66699 86 8c38 6 68 9 90 9c32 0 58.333 -10.333 79 -31c21.333 -20.667 32 -47.334 32 -80.001c0 -46 -23 -78.833 -69 -98.5s-96.333 -29.5 -151 -29.5c-98 0 -191.333 23.333 -280 70
c-88 45.333 -164 107.666 -228 186.999zM808.998 338.002c0 79.333 27.334 118.997 82.001 118.997c32.667 0 53 -10.833 61 -32.5s13.667 -54.5 17 -98.5c3.33301 -49.333 20.333 -107.333 51 -174c95.333 34 163.166 107.333 203.499 220s60.5 232.334 60.5 359.001
c0 70 -6.83301 142 -20.5 216s-36 143.333 -67 208s-73.167 117.167 -126.5 157.5s-118.333 60.5 -195 60.5c-146.667 0.666992 -252 -61 -316 -185s-96 -267.333 -96 -430c0 -93.333 12.333 -186.166 37 -278.499s66 -171.166 124 -236.499s133.333 -101.333 226 -108
c-27.333 80 -41 147.667 -41 203z" />
    <glyph glyph-name="R" unicode="R" horiz-adv-x="1516" 
d="M531 260c0 -35.333 2.33301 -60.8301 7 -76.4971s14.667 -27.5 30 -35.5l22 -13c17.333 -10 29.833 -19.167 37.5 -27.5s11.5 -20.833 11.5 -37.5c0 -46.667 -33.333 -70 -100 -70h-391c-67.333 0 -101 23.333 -101 70c0 16.667 3.83301 29 11.5 37s20.5 17.333 38.5 28
l22 13c16 8 26.167 19.833 30.5 35.5s6.5 41.167 6.5 76.5v977c0 36 -2 62 -6 78c-5.33301 16 -15.666 27.667 -30.999 35l-22 12c-18.667 12 -31.667 21.833 -39 29.5s-11 19.834 -11 36.501c0 46 33.667 69 101 69l729 2c154 0 267.333 -18.333 340 -55
c58 -28.667 104.167 -70 138.5 -124s51.5 -113 51.5 -177c0 -89.333 -29 -167 -87 -233c-57.333 -66.667 -132.333 -121.334 -225 -164.001c104 -112 199.333 -278.667 286 -500c16.667 -38 30.167 -64.5 40.5 -79.5s29.5 -30.167 57.5 -45.5
c18.667 -11.333 31.5 -20.166 38.5 -26.499s10.5 -17.833 10.5 -34.5c0 -40 -35.333 -60 -106 -60h-402c-36.667 0 -66.334 4 -89.001 12s-34 26.667 -34 56c0 13.333 3.83301 24.166 11.5 32.499s19 17.166 34 26.499s25.833 17.333 32.5 24c6.66699 7.33301 10 17 10 29
c0 32 -14.667 79.667 -44 143s-64 126.666 -104 189.999s-74.667 111.666 -104 144.999l-202 -33v-365zM529 783.003c74 1.33301 147.333 12.667 220 34c73.333 21.333 134.666 55.666 183.999 102.999s74 108 74 182c0 84.667 -27.333 148 -82 190
c-55.333 40.667 -126.666 61 -213.999 61c-75.333 0.666992 -126 -12.666 -152 -39.999c-20 -20.667 -30 -65.667 -30 -135v-395z" />
    <glyph glyph-name="S" unicode="S" 
d="M889 930c134.667 -30.667 235.333 -72.3301 302 -124.997c46.667 -38.667 82.834 -84.5 108.501 -137.5s38.5 -108.833 38.5 -167.5c0 -77.333 -17.833 -150.333 -53.5 -219s-84.834 -126 -147.501 -172c-122.667 -93.333 -275 -140 -457 -140
c-147.333 0 -277.666 26 -390.999 78c-61.333 30.667 -117.333 71.5 -168 122.5s-76 104.5 -76 160.5c0 29.333 9.5 55.5 28.5 78.5s43.167 34.5 72.5 34.5c42.667 0 80.667 -25.333 114 -76c32.667 -49.333 56.667 -83.5 72 -102.5s38 -38.833 68 -59.5
c75.333 -49.333 162.666 -74 261.999 -74c50 0 99.333 8.83301 148 26.5s88.667 44.5 120 80.5s47 79.667 47 131c0 74 -34 127.333 -102 160c-51.333 25.333 -138.666 49.666 -261.999 72.999c-146.667 26 -257.334 64.333 -332.001 115c-56 38.667 -100 86.5 -132 143.5
s-48 118.5 -48 184.5c0 71.333 17.667 140 53 206c36 65.333 83.667 120 143 164c104 76.667 241.333 115 412 115c163.333 0 314 -35.333 452 -106c31.333 -18 50 -38 56 -60c10 -32.667 15 -94 15 -184c0 -56 -25.667 -84 -77 -84c-22 0 -42.667 14 -62 42l-72 106
c-28 42 -65.167 76.167 -111.5 102.5s-107.833 39.5 -184.5 39.5c-64.667 0 -123.5 -17.5 -176.5 -52.5s-79.5 -83.5 -79.5 -145.5c0 -45.333 12.5 -82.333 37.5 -111s55.5 -50.334 91.5 -65.001s79 -28.334 129 -41.001z" />
    <glyph glyph-name="T" unicode="T" 
d="M504 1237c0 44.667 -4.33301 74.166 -13 88.499s-31.667 21.5 -69 21.5c-68 0 -117.667 -10.333 -149 -31c-31.333 -20 -63.666 -48 -96.999 -84c-32.667 -36 -61.334 -54 -86.001 -54c-24 0 -43 7 -57 21c-13.333 14 -20 33 -20 57c0 9.33301 3.33301 31 10 65
c15.333 96 32.333 151.333 51 166c12 8 42.667 12 92 12h1049c48.667 0 79.334 -4 92.001 -12c17.333 -13.333 34.333 -68.666 51 -165.999c6.66699 -34 10 -55.667 10 -65c0 -24 -6.83301 -43 -20.5 -57s-32.834 -21 -57.501 -21c-24 0 -52.5 18 -85.5 54
s-65.167 64 -96.5 84c-31.333 20.667 -81 31 -149 31c-37.333 0 -60.333 -7.16699 -69 -21.5s-13 -43.833 -13 -88.5v-977c0 -35.333 2.33301 -60.833 7 -76.5s14.667 -27.5 30 -35.5l22 -13c17.333 -10 29.833 -19.167 37.5 -27.5s11.5 -20.833 11.5 -37.5
c0 -46.667 -33.333 -70 -100 -70h-389c-66.667 -0 -100 23.333 -100 70c0 16.667 3.66699 29 11 37s20 17.333 38 28l22 13c16 8 26.167 19.833 30.5 35.5s6.5 41.167 6.5 76.5v977z" />
    <glyph glyph-name="U" unicode="U" horiz-adv-x="1557" 
d="M498 645c0 -50 1.33984 -92.999 4.00684 -128.999c2 -35.333 7 -72 15 -110c7.33301 -37.333 18.666 -71.666 33.999 -102.999c30 -59.333 72.5 -103.5 127.5 -132.5s116.167 -43.5 183.5 -43.5c59.333 0 117.666 14 174.999 42s99.666 67.333 126.999 118
c35.333 65.333 53 183.333 53 354v635c0 27.333 -4.33301 45.666 -13 54.999s-27.667 21 -57 35c-18.667 10 -32.167 19.333 -40.5 28s-12.5 21.334 -12.5 38.001c0 28.667 11 47 33 55c22.667 8 52 12 88 12h178c36 0 65.167 -4 87.5 -12s33.5 -26.333 33.5 -55
c0 -16.667 -4.33301 -29.334 -13 -38.001s-22.334 -18 -41.001 -28c-28 -14 -46.5 -25.667 -55.5 -35s-13.5 -27.666 -13.5 -54.999v-604c0 -116 -7.16699 -215.167 -21.5 -297.5s-47.5 -154.5 -99.5 -216.5c-37.333 -44.667 -84 -81 -140 -109
c-56.667 -29.333 -116.334 -50 -179.001 -62s-125.667 -18 -189 -18c-86 0 -172.5 12.5 -259.5 37.5s-158.833 64.5 -215.5 118.5c-64.667 62 -107.834 135.833 -129.501 221.5s-32.5 185.167 -32.5 298.5v594c0 36 -2.16699 61.833 -6.5 77.5s-14.5 27.5 -30.5 35.5l-22 12
c-19.333 12.667 -32.333 22.667 -39 30s-10 19.333 -10 36c0 46 33.333 69 100 69h395c74 0 111 -23 111 -69c0 -29.333 -16.333 -50 -49 -62c-18 -7.33301 -32 -14.333 -42 -21s-16.833 -14.334 -20.5 -23.001s-6.33398 -19.834 -8.00098 -33.501s-3.5 -31.5 -5.5 -53.5
v-592z" />
    <glyph glyph-name="V" unicode="V" horiz-adv-x="1516" 
d="M850 266l2.00195 0.000976562c88 196.667 153.667 354 197 472c98.667 266 148 438.667 148 518c0 26 -6.5 45.833 -19.5 59.5s-31.5 26.667 -55.5 39s-41.833 23.833 -53.5 34.5s-17.5 26.334 -17.5 47.001c0 26.667 11 44 33 52c22.667 7.33301 50.667 11 84 11h233
c75.333 0 113 -22.333 113 -67c0 -24.667 -13.667 -48.667 -41 -72c-24.667 -20 -41 -36.667 -49 -50c-7.33301 -13.333 -16.333 -39 -27 -77c-32.667 -120.667 -69 -231.834 -109 -333.501s-110.333 -271.834 -211 -510.501l-75 -182c-18 -40 -39.5 -81.667 -64.5 -125
s-49.5 -73 -73.5 -89s-60 -24 -108 -24c-43.333 0 -75.5 2.83301 -96.5 8.5s-39.167 17.167 -54.5 34.5c-14.667 16.667 -33.334 43.334 -56.001 80.001c-37.333 60 -72 120.167 -104 180.5s-62.5 123.166 -91.5 188.499s-55.167 129 -78.5 191l-190 616
c-5.33301 26.667 -13 47.334 -23 62.001s-22.333 27.667 -37 39s-25.334 20.666 -32.001 27.999c-6 7.33301 -9 18.333 -9 33c0 46 43.667 69 131 69h338c84.667 0 127 -22.333 127 -67c0 -18.667 -4.66699 -32.5 -14 -41.5s-24 -18.667 -44 -29s-35 -20.833 -45 -31.5
s-15 -26 -15 -46c0 -56.667 14.333 -128.167 43 -214.5s66 -189.5 112 -309.5z" />
    <glyph glyph-name="W" unicode="W" horiz-adv-x="2048" 
d="M838 254c-38 -103.333 -72.333 -176.333 -103 -219c-29.333 -44 -77.666 -66 -144.999 -66c-46 0 -81.833 6.33301 -107.5 19s-45.334 30 -59.001 52s-31.834 59.333 -54.501 112c-40 94 -76 193.667 -108 299c-31.333 104.667 -59.666 212 -84.999 322
s-48 219.667 -68 329l-26 152c-6 32.667 -11.333 54.5 -16 65.5s-18 24.5 -40 40.5c-28.667 22 -43 45.333 -43 70c0 28.667 12 47.334 36 56.001c22.667 8.66699 58.667 13 108 13h332c68 0 102 -23.667 102 -71c0 -24 -17 -45.333 -51 -64
c-22 -11.333 -36.5 -22 -43.5 -32s-10.5 -27.333 -10.5 -52c0 -102 28.333 -265.667 85 -491l145 -461c29.333 74.667 55.833 147.167 79.5 217.5s44 140.666 61 210.999s30.5 143.166 40.5 218.499s15 149 15 221c0 51.333 -3.33301 89.166 -10 113.499s-23 44.5 -49 60.5
l-18 13.5c-4.66699 3.66699 -9.5 7.83398 -14.5 12.501s-8.66699 9.83398 -11 15.501s-3.5 12.5 -3.5 20.5c0 44.667 34.333 67 103 67h371c62.667 0 94 -23.667 94 -71c0 -14.667 -4 -25.667 -12 -33c-7.33301 -8 -19.833 -17 -37.5 -27s-31 -20.833 -40 -32.5
s-13.5 -28.834 -13.5 -51.501c0 -51.333 11.167 -124.5 33.5 -219.5s47.5 -188.833 75.5 -281.5l176 -461l143 424c23.333 84.667 44.166 173.334 62.499 266.001s27.5 169.667 27.5 231c0 32 -6 56.167 -18 72.5s-30.167 31.333 -54.5 45s-40.833 24.334 -49.5 32.001
s-13 21.5 -13 41.5c0 26.667 12 44.167 36 52.5s61.333 12.5 112 12.5h180c66.667 0 100 -21 100 -63c0 -16.667 -12.333 -37.334 -37 -62.001c-22 -19.333 -37.5 -35.833 -46.5 -49.5s-16.5 -33.834 -22.5 -60.501l-35 -209c-8.66699 -60.667 -22.167 -130.5 -40.5 -209.5
s-38.833 -157.167 -61.5 -234.5c-22 -78 -44 -148.333 -66 -211l-78 -203c-2 -5.33301 -7 -17 -15 -35c-7.33301 -18.667 -15.5 -38.167 -24.5 -58.5s-17.167 -37.5 -24.5 -51.5s-14.666 -25 -21.999 -33c-28 -33.333 -76.333 -50 -145 -50c-47.333 0 -83.333 7 -108 21
s-48.667 41.333 -72 82c-36.667 65.333 -69.5 133.833 -98.5 205.5s-57.833 151.334 -86.5 239.001l-78 237.5z" />
    <glyph glyph-name="X" unicode="X" horiz-adv-x="1516" 
d="M107 0c-72.667 0 -109 22.6641 -109 67.9971c0 19.333 5.66699 33.833 17 43.5s28.333 19.834 51 30.501c30 14.667 52.333 30.334 67 47.001s36 45.334 64 86.001l338 465c-38.667 42 -75 84.667 -109 128s-66 86.333 -96 129c-29.333 42 -57.833 85 -85.5 129
l-92.5 152c-12 21.333 -23 37.5 -33 48.5s-24.333 21.5 -43 31.5c-22.667 11.333 -39.667 22 -51 32c-11.333 10.667 -17 25.334 -17 44.001c0 36 22 57.667 66 65h440c32.667 -2.66699 57.667 -7.83398 75 -15.501s26 -24.167 26 -49.5c0 -16 -3.16699 -27 -9.5 -33
s-17.333 -15.667 -33 -29s-23.5 -24.666 -23.5 -33.999c0 -36 93 -169.333 279 -400c166 204 249 330.333 249 379c0 14 -4.16699 24.833 -12.5 32.5s-20.666 16.167 -36.999 25.5s-28.833 18.833 -37.5 28.5s-13 22.5 -13 38.5c0 38 30 57 90 57h234
c38.667 0 70.334 -3.66699 95.001 -11c25.333 -8 38 -26.667 38 -56c0 -19.333 -5 -33.833 -15 -43.5s-27 -21.167 -51 -34.5c-17.333 -10 -29.333 -17.5 -36 -22.5s-16.334 -15.833 -29.001 -32.5l-84 -119l-285 -365l377 -487l59 -92
c20.667 -32.667 36.334 -54.167 47.001 -64.5s30 -22.5 58 -36.5c36.667 -16.667 55 -39.667 55 -69c0 -28 -10.833 -46 -32.5 -54s-49.834 -12 -84.501 -12h-458c-40 15.333 -60 38.666 -60 69.999c0 16.667 4.33301 28.667 13 36c8 8 20 17 36 27
c16.667 9.33301 25 17.666 25 24.999c0 24 -46.333 98.333 -139 223c-92 125.333 -155 204 -189 236c-23.333 -28 -56 -72.167 -98 -132.5s-78.833 -118.5 -110.5 -174.5s-47.5 -96.333 -47.5 -121c0 -15.333 3.5 -27.166 10.5 -35.499s18.5 -18.5 34.5 -30.5
c15.333 -11.333 26.666 -21.333 33.999 -30c7.33301 -8 11 -19 11 -33c0 -32.667 -19.667 -52.667 -59 -60h-309z" />
    <glyph glyph-name="Y" unicode="Y" horiz-adv-x="1516" 
d="M1049 1012l66.998 109.002c58.667 88 88 150 88 186c0 14 -4.16699 25 -12.5 33s-20.666 16.833 -36.999 26.5s-28.5 18.834 -36.5 27.501s-12 20.667 -12 36c0 46 36.333 69 109 69h178c46.667 0 80 -4 100 -12c20.667 -8.66699 31 -27 31 -55
c0 -22 -13 -43.333 -39 -64c-28.667 -20.667 -46.667 -34.667 -54 -42s-18.666 -24 -33.999 -50l-449 -661v-355v-43c0 -22.667 3.66699 -39.334 11 -50.001s24.333 -22 51 -34c34 -14 51 -35 51 -63c0 -46.667 -33.333 -70 -100 -70h-387c-74 0 -111 23.333 -111 70
c0 26.667 15.667 47 47 61c33.333 17.333 52.333 31.333 57 42c4.66699 11.333 7.33398 41 8.00098 89v336l-425 654c-16.667 31.333 -30.334 52 -41.001 62s-32.667 24 -66 42c-40 19.333 -60 44.666 -60 75.999c0 27.333 14.333 45.333 43 54c27.333 8.66699 66 13 116 13
h63h311c34 0 60.5 -4.66699 79.5 -14s28.5 -29 28.5 -59c0 -14 -4 -25 -12 -33s-19.333 -15.667 -34 -23s-26 -14.333 -34 -21c-7.33301 -6.66699 -11 -15.334 -11 -26.001c0 -42.667 32.667 -113 98 -211l236 -348z" />
    <glyph glyph-name="Z" unicode="Z" horiz-adv-x="1270" 
d="M1098 1499c46 0 81.3301 -4.66602 105.997 -13.999c25.333 -9.33301 38 -32 38 -68c0 -62 -39.167 -155.333 -117.5 -280s-168.166 -257.667 -269.499 -399l-322 -445c-42 -57.333 -63 -95.666 -63 -114.999c0 -13.333 17.333 -20 52 -20h203
c86.667 0 157 7.16699 211 21.5s105.333 46.833 154 97.5c38 40.667 70 61 96 61c46.667 0 70 -21.667 70 -65c0 -24 -7.66699 -76 -23 -156l-12 -68c-10 -21.333 -21.833 -34.833 -35.5 -40.5s-35.167 -8.5 -64.5 -8.5h-920c-52 0 -93.333 6.66699 -124 20s-46 43 -46 89
c0 41.333 15.333 88.166 46 140.499s74.334 119.5 131.001 201.5l239 344l223 307l84 129l37 58.5c12.667 20.333 19 33.5 19 39.5c0 14.667 -18 22 -54 22h-141c-74 0 -140.333 -5.33301 -199 -16c-38 -8 -67.5 -18 -88.5 -30s-42.833 -32.667 -65.5 -62
c-17.333 -22.667 -32.666 -39.834 -45.999 -51.501s-29.333 -17.5 -48 -17.5c-20 0 -37 6 -51 18c-13.333 12.667 -20 29 -20 49c0 30.667 2.5 71 7.5 121s11.167 85 18.5 105c9.33301 21.333 40 32 92 32h883z" />
    <glyph glyph-name="bracketleft" unicode="[" horiz-adv-x="656" 
d="M144 1401c0 32 2.49707 54.5 7.49707 67.5s15.333 21.333 31 25s43.5 5.5 83.5 5.5h203c48.667 0 84.834 -4.5 108.501 -13.5s35.5 -28.167 35.5 -57.5s-20 -52 -60 -68c-34 -11.333 -58.667 -21.666 -74 -30.999s-25.166 -20.333 -29.499 -33s-6.5 -32.334 -6.5 -59.001
v-61v-1260c0 -6.66699 -0.333008 -16.167 -1 -28.5s-1 -21.5 -1 -27.5c0 -53.333 23.667 -88.666 71 -105.999c34 -10.667 59.333 -20.667 76 -30s25 -26 25 -50c0 -31.333 -12 -51.333 -36 -60c-23.333 -9.33301 -59.333 -14 -108 -14h-203c-39.333 0 -67 2 -83 6
c-15.333 3.33301 -25.666 11.666 -30.999 24.999s-8 36 -8 68v1702z" />
    <glyph glyph-name="backslash" unicode="\" horiz-adv-x="1311" 
d="M262 1551h148l641 -1551h-147z" />
    <glyph glyph-name="bracketright" unicode="]" horiz-adv-x="656" 
d="M393 1499c40 0 67.666 -1.83301 82.999 -5.5s25.5 -12 30.5 -25s7.5 -35.5 7.5 -67.5v-1702c0 -32 -2.5 -54.667 -7.5 -68s-15.167 -21.833 -30.5 -25.5s-43 -5.5 -83 -5.5h-202c-48.667 0 -85.167 4.5 -109.5 13.5s-36.5 29.167 -36.5 60.5c0 24 8.5 40.833 25.5 50.5
s42.833 19.5 77.5 29.5c46 16 69 51.333 69 106c0 6 -0.333008 16 -1 30c-0.666992 14.667 -1 26 -1 34v1252v61c0 26.667 -2.16699 46.334 -6.5 59.001s-14.166 23.667 -29.499 33s-40 19.666 -74 30.999c-40 15.333 -60 38 -60 68c0 29.333 11.833 48.5 35.5 57.5
s60.5 13.5 110.5 13.5h202z" />
    <glyph glyph-name="asciicircum" unicode="^" horiz-adv-x="1352" 
d="M61 365l519 1134h184l524 -1134h-194l-424 932l-418 -932h-191z" />
    <glyph glyph-name="underscore" unicode="_" horiz-adv-x="1024" 
d="M1024 -102v-197h-1024v197h1024z" />
    <glyph glyph-name="grave" unicode="`" horiz-adv-x="778" 
d="M346 1497c28 -1.33301 48.1689 -4.49902 60.502 -9.49902s22.166 -12.167 29.499 -21.5s19 -28.333 35 -57l107 -186c20.667 -31.333 31 -54 31 -68c0 -12 -4.83301 -21.833 -14.5 -29.5s-20.834 -11.5 -33.501 -11.5c-8.66699 0 -17.667 2.33301 -27 7
s-17.5 9.66699 -24.5 15s-17.833 13 -32.5 23l-261 195l-32 24.5c-10.667 8.33301 -19 17.333 -25 27s-9 21.167 -9 34.5c0 23.333 8.33301 38.666 25 45.999s43.667 11 81 11h90z" />
    <glyph glyph-name="a" unicode="a" horiz-adv-x="1188" 
d="M1057 281c0 -57.333 3.33203 -94.999 9.99902 -112.999c8 -16.667 23 -29.667 45 -39c34.667 -17.333 52 -38.333 52 -63c0 -28.667 -9.66699 -46.667 -29 -54c-20 -8.66699 -47.333 -13 -82 -13h-205c-33.333 0 -57.5 4.16699 -72.5 12.5s-24.5 20.5 -28.5 36.5
s-7 42.333 -9 79c-64.667 -105.333 -170.667 -158 -318 -158c-66 0 -127 12.167 -183 36.5s-101 60.5 -135 108.5s-51 105.667 -51 173c0 68.667 19.333 127 58 175s88 85.333 148 112c60.667 27.333 124.667 46.666 192 57.999c68 11.333 133.333 17 196 17h70
c0 64.667 -16 116.834 -48 156.501s-79.333 59.5 -142 59.5c-28 0 -51.333 -5.33301 -70 -16c-18 -10.667 -39.667 -27 -65 -49c-25.333 -23.333 -47.666 -40.333 -66.999 -51s-43 -16 -71 -16c-33.333 0 -62.833 8.16699 -88.5 24.5s-38.5 41.166 -38.5 74.499
c0 43.333 26 77.666 78 102.999s111 42.833 177 52.5s122.333 14.5 169 14.5c139.333 0 253.333 -25.333 342 -76c61.333 -35.333 104.333 -78.666 129 -129.999s37 -115.333 37 -192v-323zM687.999 520.001c-80 0 -148.666 -20.001 -205.999 -60.001s-86 -98.333 -86 -175
c0 -40.667 11.5 -75.5 34.5 -104.5s54.5 -43.5 94.5 -43.5c61.333 0 113.666 33 156.999 99c20 32.667 32.167 64.334 36.5 95.001s6.5 72 6.5 124v65h-37z" />
    <glyph glyph-name="b" unicode="b" horiz-adv-x="1270" 
d="M453 895c88 71.333 184.33 107 288.997 107c72 0 136.667 -11.667 194 -35c56.667 -24.667 105.334 -59 146.001 -103s72 -95.667 94 -155c20.667 -60 31 -125.667 31 -197c0 -113.333 -27.667 -211 -83 -293s-129.666 -144 -222.999 -186s-196.333 -63 -309 -63
c-62 0 -123.667 7.66699 -185 23c-61.333 16 -113.666 39 -156.999 69c-36.667 26.667 -64.667 57.667 -84 93c-19.333 36 -32 74 -38 114c-6 40.667 -9 87 -9 139v721c0 72 -2 123 -6 153c-4 20 -10 34.5 -18 43.5s-22 19.167 -42 30.5c-20 12 -33.5 21 -40.5 27
s-10.5 16 -10.5 30c0 23.333 10.333 39.5 31 48.5s52 18.833 94 29.5c119.333 40 200 60 242 60c56 0 84 -52 84 -156v-45v-455zM458.997 430c0 -90 11.167 -165.667 33.5 -227s70.5 -92 144.5 -92c78.667 0 134.167 36.667 166.5 110s48.5 155.333 48.5 246
c0 89.333 -15.167 174.833 -45.5 256.5s-81.833 122.5 -154.5 122.5c-66 0 -118 -28 -156 -84c-24.667 -36 -37 -93.333 -37 -172v-160z" />
    <glyph glyph-name="c" unicode="c" horiz-adv-x="1065" 
d="M662 144l8 -0.00390625c40.667 0 81.667 9.66699 123 29c41.333 18 78 43 110 75c34 34 62 51 84 51c17.333 0 31.666 -6.16699 42.999 -18.5s17 -27.166 17 -44.499c0 -50 -38.333 -102.667 -115 -158c-108.667 -72.667 -220 -109 -334 -109
c-73.333 0 -143.333 11.667 -210 35s-125.5 56.833 -176.5 100.5s-91.167 97 -120.5 160s-44 132.5 -44 208.5c0 104 24.667 196.333 74 277s116.666 142.834 201.999 186.501s179 65.5 281 65.5c50.667 0 109.167 -7.83301 175.5 -23.5s123.833 -40.5 172.5 -74.5
c48 -33.333 72 -76 72 -128c0 -32.667 -11.667 -59.167 -35 -79.5s-51.333 -30.5 -84 -30.5s-58.667 7.33301 -78 22s-41.166 37.834 -65.499 69.501s-46.666 55.334 -66.999 71.001s-47.5 23.5 -81.5 23.5c-52 0 -93.833 -20.333 -125.5 -61s-54 -89.5 -67 -146.5
s-19.833 -112.167 -20.5 -165.5h2c0 -90 22 -168.333 66 -235s108.667 -100 194 -100z" />
    <glyph glyph-name="d" unicode="d" horiz-adv-x="1270" 
d="M801 1129c0 72.667 -1.99902 124.001 -5.99902 154.001c-4 20 -10 34.333 -18 43c-8 9.33301 -22 19.333 -42 30c-20 12 -33.5 21 -40.5 27s-10.5 16 -10.5 30c0 23.333 10.333 39.5 31 48.5s52 18.833 94 29.5c119.333 40 200 60 242 60c55.333 0 83 -52 83 -156v-45
v-1069c0 -57.333 3.66699 -95 11 -113c8 -16.667 23 -29.667 45 -39c34 -17.333 51 -38.333 51 -63c0 -28.667 -9.66699 -46.667 -29 -54c-19.333 -8.66699 -46.333 -13 -81 -13h-205c-34 0 -58.333 4.16699 -73 12.5s-24 20.5 -28 36.5s-7.33301 42.333 -10 79
c-62 -105.333 -162.333 -158 -301 -158c-90.667 0 -172.167 22.333 -244.5 67s-128.833 105.167 -169.5 181.5s-61 160.166 -61 251.499c0 98.667 22.667 188.667 68 270c45.333 82 107.666 146.333 186.999 193c80 46.667 169 70 267 70c80 0 160 -22.333 240 -67v194z
M801.001 639.001c0 67.333 -14.333 117.999 -43 151.999c-34.667 40.667 -79.667 61 -135 61c-82 0 -140.833 -38.167 -176.5 -114.5s-53.5 -160.833 -53.5 -253.5c0 -91.333 16.5 -172.666 49.5 -243.999s89.833 -107 170.5 -107c66.667 0 119 28.667 157 86
c20.667 34 31 82.667 31 146v274z" />
    <glyph glyph-name="e" unicode="e" horiz-adv-x="1147" 
d="M680 133c52 0 99.832 10.5 143.499 31.5s88.167 51.5 133.5 91.5c22.667 19.333 37.667 31.666 45 36.999s20.333 8 39 8c14.667 0 28.167 -5.33301 40.5 -16s18.5 -23.667 18.5 -39c0 -33.333 -18.333 -68.166 -55 -104.499s-73.667 -64.833 -111 -85.5
c-96 -58 -209.333 -87 -340 -87c-68.667 0 -136.5 11.333 -203.5 34s-126.5 55 -178.5 97s-93.167 93 -123.5 153s-45.5 126.667 -45.5 200c0 110 28.5 206.667 85.5 290s132.833 147.666 227.5 192.999c94.667 44 196 66 304 66c64.667 0 129.5 -10.5 194.5 -31.5
s118.667 -54 161 -99s63.5 -101.167 63.5 -168.5c0 -68.667 -27.5 -126 -82.5 -172s-120.833 -81.667 -197.5 -107c-36 -11.333 -75.167 -21.166 -117.5 -29.499s-90.166 -16.333 -143.499 -24l-122 -17.5c14.667 -65.333 46 -118.333 94 -159s104.667 -61 170 -61z
M759.999 725c0 40.667 -10.5 73.001 -31.5 97.001s-51.5 36 -91.5 36c-75.333 0 -134 -37.833 -176 -113.5s-63 -160.5 -63 -254.5c89.333 6.66699 172.333 28.667 249 66c75.333 37.333 113 93.666 113 168.999z" />
    <glyph glyph-name="f" unicode="f" horiz-adv-x="738" 
d="M518 276c0 -57.333 3.66797 -94.6689 11.001 -112.002c5.33301 -12.667 20.333 -25 45 -37c32.667 -18 49 -38.333 49 -61c0 -28.667 -9.83301 -46.834 -29.5 -54.501s-46.834 -11.5 -81.501 -11.5h-321c-34.667 0 -61.834 3.83301 -81.501 11.5
s-29.5 25.834 -29.5 54.501c0 22.667 16.333 43 49 61c24.667 12 39.667 24.333 45 37c7.33301 18 11 55.667 11 113v550h-27c-41.333 0 -71.166 4.5 -89.499 13.5s-27.5 31.5 -27.5 67.5c0 20.667 6.33301 38.334 19 53.001c13.333 16 42.666 24 87.999 24h39
c0 80.667 2.83301 149.834 8.5 207.501s19.834 110.834 42.501 159.501c30 65.333 74.667 114.833 134 148.5s126.666 50.5 201.999 50.5c52.667 0 101.667 -11.667 147 -35s68 -58.333 68 -105c0 -33.333 -10.833 -61.333 -32.5 -84s-48.5 -34 -80.5 -34
c-17.333 0 -33.666 3.83301 -48.999 11.5s-31.333 17.5 -48 29.5c-16 12 -26 18 -30 18c-20.667 0 -31 -38.333 -31 -115v-252h60h43c33.333 0 59.333 -4.83301 78 -14.5s28 -29.834 28 -60.501c0 -35.333 -10.667 -58 -32 -68s-58.333 -15 -111 -15h-66v-551z" />
    <glyph glyph-name="g" unicode="g" horiz-adv-x="1229" 
d="M752 994l187.998 -11.0049h113c44.667 0 78.667 -4.66699 102 -14s35 -32.666 35 -69.999c0 -30 -11.167 -49.333 -33.5 -58s-52.5 -13.667 -90.5 -15h-54c75.333 -81.333 113 -179 113 -293c0 -162.667 -69 -289 -207 -379c68.667 -16 126 -44 172 -84
c46 -39.333 69 -92 69 -158c0 -80.667 -31.5 -144.5 -94.5 -191.5s-137.5 -79 -223.5 -96s-171 -25.5 -255 -25.5c-120.667 0 -238.667 13.667 -354 41c-114.667 26.667 -172 79.667 -172 159c0 53.333 23.333 94 70 122s98.334 42 155.001 42c75.333 0 113 -17.667 113 -53
c0 -5.33301 -2.66699 -13.666 -8 -24.999c-6.66699 -11.333 -10 -21.666 -10 -30.999c0 -29.333 22.667 -50.666 68 -63.999c46 -13.333 89.333 -20 130 -20c68 0 129 11.167 183 33.5s81 62.5 81 120.5c0 62.667 -45 113.334 -135 152.001c-48 -14 -100.667 -21 -158 -21
c-92.667 0 -177.5 18.167 -254.5 54.5s-137.833 88.833 -182.5 157.5c-44.667 69.333 -67 151 -67 245c0 74.667 14.333 145 43 211s70.334 120.667 125.001 164c98 76.667 231.333 115 400 115zM771.998 548.995c0 46 -5.33301 93.667 -16 143
c-10.667 50 -30 92.667 -58 128c-27.333 35.333 -64 53 -110 53c-66.667 0 -115 -36.667 -145 -110s-45 -149.333 -45 -228c0 -84.667 12.333 -161 37 -229c25.333 -68.667 72.333 -103 141 -103c74.667 0 126 35.5 154 106.5s42 150.833 42 239.5z" />
    <glyph glyph-name="h" unicode="h" horiz-adv-x="1270" 
d="M1149 260c0 -54.667 2.66406 -90.667 7.99707 -108c4.66699 -8 17.667 -19.667 39 -35c24.667 -14.667 37 -32.334 37 -53.001c0 -42.667 -26 -64 -78 -64h-346c-52 0 -78 21.333 -78 64c0 20.667 12.333 38.334 37 53.001c21.333 15.333 34.333 27 39 35
c5.33301 17.333 8 53.333 8 108v340c0 72.667 -10.667 130.334 -32 173.001c-22 41.333 -66.667 62 -134 62c-55.333 0 -101 -19.667 -137 -59c-30 -32.667 -45 -80.334 -45 -143.001v-373c0 -54.667 2.66699 -90.667 8 -108c4.66699 -8 17.667 -19.667 39 -35
c24.667 -14.667 37 -32.334 37 -53.001c0 -42.667 -26 -64 -78 -64h-346c-52 0 -78 21.333 -78 64c0 20.667 12.333 38.334 37 53.001c21.333 15.333 34.333 27 39 35c5.33301 17.333 8 53.333 8 108v869c0 72 -2 123 -6 153c-3.33301 20 -9.16602 34.5 -17.499 43.5
s-22.166 19.167 -41.499 30.5c-20 12 -33.667 21 -41 27c-6.66699 6 -10 16 -10 30c0 23.333 10.333 39.5 31 48.5s52 18.833 94 29.5c118.667 40 199 60 241 60c56 0 84 -52 84 -156v-45v-447c92 66 191.667 99 299 99c56 0 109.833 -9.16699 161.5 -27.5
s94.834 -46.166 129.501 -83.499c61.333 -64.667 92 -166.334 92 -305.001v-326z" />
    <glyph glyph-name="i" unicode="i" horiz-adv-x="615" 
d="M99 1272c0 52 19.832 93.668 59.499 125.001s85.834 47 138.501 47c54.667 0 101.667 -14 141 -42c40 -28.667 60 -69.334 60 -122.001c0 -49.333 -21.333 -88.833 -64 -118.5s-89.667 -44.5 -141 -44.5c-49.333 0 -94 14.167 -134 42.5s-60 65.833 -60 112.5z
M159.999 580.001c0 72 -2 123 -6 153c-4 20 -10 34.5 -18 43.5s-22 19.167 -42 30.5c-20 12 -33.5 21 -40.5 27s-10.5 16.333 -10.5 31c0 12.667 4.5 23.5 13.5 32.5s19.5 16.167 31.5 21.5c12.667 5.33301 26.667 10 42 14s28 7 38 9c119.333 40 200 60 242 60
c56 0 84 -52 84 -156v-45v-541c0 -54.667 2.66699 -90.667 8 -108c4 -7.33301 17 -19 39 -35c24.667 -14.667 37 -32.334 37 -53.001c0 -42.667 -26 -64 -78 -64h-346c-52 -0 -78 21.333 -78 64c0 20.667 12.333 38.334 37 53.001c22 15.333 35 27 39 35
c5.33301 17.333 8 53.333 8 108v320z" />
    <glyph glyph-name="j" unicode="j" horiz-adv-x="615" 
d="M127 1272c0 52 20.166 93.667 60.499 125s86.5 47 138.5 47c54 0 101 -14.167 141 -42.5s60 -68.833 60 -121.5c0 -49.333 -21.333 -88.833 -64 -118.5s-89.667 -44.5 -141 -44.5c-49.333 0 -94.166 14.167 -134.499 42.5s-60.5 65.833 -60.5 112.5zM182.999 580
c0 72 -2.33301 123.001 -7 153.001c-3.33301 20 -9.16602 34.5 -17.499 43.5s-22.166 19.167 -41.499 30.5c-20 12 -33.667 21 -41 27c-6.66699 6 -10 16.333 -10 31c0 12.667 4.33301 23.5 13 32.5s19.167 16.167 31.5 21.5s26.166 10 41.499 14s28.333 7 39 9
c118.667 40 199 60 241 60c56 0 84 -52 84 -156v-45v-717c0 -74 -3.5 -135.667 -10.5 -185s-23.833 -94.333 -50.5 -135c-32.667 -51.333 -76.167 -91.5 -130.5 -120.5s-112.5 -43.5 -174.5 -43.5c-57.333 0 -112.833 12.167 -166.5 36.5s-80.5 62.166 -80.5 113.499
c0 31.333 10.333 58 31 80s47 33 79 33c24 0 44.667 -5.16699 62 -15.5s34.666 -23.333 51.999 -39s29 -23.5 35 -23.5c14 0 21 28 21 84v711z" />
    <glyph glyph-name="k" unicode="k" horiz-adv-x="1229" 
d="M821 641l-26.0059 -21.998c113.333 -102 220.333 -242.667 321 -422c15.333 -29.333 34.666 -51.333 57.999 -66c16 -8.66699 27.667 -17.334 35 -26.001c8 -8.66699 12 -21 12 -37c0 -45.333 -31.333 -68 -94 -68h-338c-68.667 0 -103 22 -103 66c0 10 3 18.667 9 26
s13.667 14.333 23 21c10 6.66699 17.333 12.667 22 18c5.33301 5.33301 8 12.333 8 21c0 19.333 -12.833 50.166 -38.5 92.499s-55.667 84.833 -90 127.5s-61.166 71.667 -80.499 87l-76 -43v-156c0 -54.667 2.66699 -90.667 8 -108c4 -8 17 -19.667 39 -35
c24.667 -14.667 37 -32.334 37 -53.001c0 -42.667 -26 -64 -78 -64h-346c-52 0 -78 21.333 -78 64c0 20.667 12.333 38.334 37 53.001c21.333 15.333 34.333 27 39 35c5.33301 17.333 8 53.333 8 108v869c0 72 -2 123 -6 153c-3.33301 20 -9.16602 34.5 -17.499 43.5
s-22.166 19.167 -41.499 30.5c-20 12 -33.667 21 -41 27c-6.66699 6 -10 16 -10 30c0 12.667 4.33301 23.667 13 33s19.667 16.666 33 21.999c12.667 6 26.334 10.667 41.001 14c14.667 4 27 7 37 9c119.333 40 200 60 242 60c56 0 84 -52 84 -156v-45v-791
c28 10.667 67.333 33.834 118 69.501s95.834 73.167 135.501 112.5s59.5 70.333 59.5 93c0 12.667 -8.66699 24.334 -26 35.001c-31.333 15.333 -47 34.333 -47 57c0 27.333 17.667 44.333 53 51c30 5.33301 99.667 8 209 8h45c78 0 117 -19.667 117 -59
c0 -10 -2.16699 -19 -6.5 -27s-9.16602 -14.167 -14.499 -18.5s-12.666 -9.5 -21.999 -15.5l-31 -19c-24 -12.667 -64.333 -47.334 -121 -104.001z" />
    <glyph glyph-name="l" unicode="l" horiz-adv-x="615" 
d="M150 1129c0 72 -2.00098 123.001 -6.00098 153.001c-4 20 -10 34.5 -18 43.5s-22 19.167 -42 30.5c-20 12 -33.5 21 -40.5 27s-10.5 16 -10.5 30c0 12.667 4.33301 23.667 13 33s19.667 16.666 33 21.999c13.333 6 27.333 10.667 42 14c14.667 4 27 7 37 9
c118.667 40 199.334 60 242.001 60c56 0 84 -52 84 -156v-45v-1073c0 -57.333 3.33301 -95 10 -113c6 -12.667 21 -25 45 -37c32.667 -18 49 -38.333 49 -61c0 -28.667 -9.66699 -46.834 -29 -54.501s-46.666 -11.5 -81.999 -11.5h-321
c-34.667 0 -61.834 3.83301 -81.501 11.5s-29.5 25.834 -29.5 54.501c0 22.667 16.333 43 49 61c24.667 12 40 24.333 46 37c6.66699 18 10 55.667 10 113v852z" />
    <glyph glyph-name="m" unicode="m" horiz-adv-x="1884" 
d="M1764 260c0 -54.667 2.66504 -90.667 7.99805 -108c4 -8 17 -19.667 39 -35c24.667 -14.667 37 -32.334 37 -53.001c0 -42.667 -26 -64 -78 -64h-346c-52 0 -78 21.333 -78 64c0 20.667 12.333 38.334 37 53.001c22 16 35 27.667 39 35c5.33301 17.333 8 53.333 8 108
v318c0 46.667 -2 86 -6 118c-4.66699 32.667 -17 61 -37 85c-19.333 24 -49.333 36 -90 36c-58.667 0 -106 -23 -142 -69c-16 -21.333 -26.167 -46.333 -30.5 -75s-6.5 -63.667 -6.5 -105v-308c0 -54.667 3 -90.667 9 -108c4 -8 17 -19.667 39 -35
c24 -14.667 36 -32.334 36 -53.001c0 -42.667 -25.667 -64 -77 -64h-347c-51.333 0 -77 21.333 -77 64c0 20.667 12.333 38.334 37 53.001c21.333 16 34 27.667 38 35c6 17.333 9 53.333 9 108v318c0 46.667 -2 86 -6 118c-4.66699 32.667 -17 61 -37 85
c-19.333 24 -49.333 36 -90 36c-58.667 0 -106 -23 -142 -69c-16 -21.333 -26.167 -46.333 -30.5 -75s-6.5 -63.667 -6.5 -105v-308c0 -54.667 3 -90.667 9 -108c4 -7.33301 16.667 -19 38 -35c24.667 -14.667 37 -32.334 37 -53.001c0 -42.667 -26 -64 -78 -64h-346
c-51.333 0 -77 21.333 -77 64c0 20.667 12 38.334 36 53.001c22 15.333 35 27 39 35c6 17.333 9 53.333 9 108v392c0 46 -3.5 78 -10.5 96s-24.167 33.667 -51.5 47c-28.667 12 -43 30.333 -43 55c0 22.667 20.667 45.667 62 69s88 43 140 59s89.667 24 113 24
c30.667 0 52.334 -14.333 65.001 -43s22 -63.667 28 -105c85.333 98.667 195 148 329 148c62.667 0 119.667 -14.167 171 -42.5s92 -69.5 122 -123.5c74.667 110.667 191.334 166 350.001 166c48 0 95 -8 141 -24s85 -39.333 117 -70c60.667 -57.333 91 -151 91 -281v-367z
" />
    <glyph glyph-name="n" unicode="n" horiz-adv-x="1270" 
d="M1149 260c0 -54.667 2.66699 -90.667 8 -108c4.66699 -8 17.667 -19.667 39 -35c24.667 -14.667 37 -32.334 37 -53.001c0 -42.667 -26 -64 -78 -64h-346c-52 0 -78 21.333 -78 64c0 20.667 12.333 38.334 37 53.001c21.333 15.333 34.333 27 39 35
c5.33301 17.333 8 53.333 8 108v330c0 76 -8.83301 134.833 -26.5 176.5s-59.167 62.5 -124.5 62.5c-71.333 0 -124 -27.667 -158 -83c-20.667 -32.667 -31 -88.667 -31 -168v-318c0 -54.667 3 -90.667 9 -108c4 -7.33301 16.667 -19 38 -35
c24.667 -14.667 37 -32.334 37 -53.001c0 -42.667 -25.667 -64 -77 -64h-347c-51.333 0 -77 21.333 -77 64c0 20.667 12 38.334 36 53.001c22 15.333 35 27 39 35c6 17.333 9 53.333 9 108v392c0 46 -3.5 78 -10.5 96s-24.167 33.667 -51.5 47c-28.667 12 -43 30.333 -43 55
c0 22.667 20.5 45.5 61.5 68.5s87.667 42.667 140 59s90.5 24.5 114.5 24.5c30 0 51.333 -14.5 64 -43.5s22 -63.833 28 -104.5c80 98.667 188.333 148 325 148c125.333 0 222.333 -36.333 291 -109c58.667 -64 88 -163 88 -297v-336z" />
    <glyph glyph-name="o" unicode="o" horiz-adv-x="1270" 
d="M236 97c-58.667 48 -103.833 105.5 -135.5 172.5s-47.5 137.833 -47.5 212.5c0 69.333 15.667 136.5 47 201.5s74 121.833 128 170.5c111.333 98.667 252.666 148 423.999 148c72.667 0 143 -12.167 211 -36.5s128.833 -59.333 182.5 -105s96 -100 127 -163
s46.5 -131.5 46.5 -205.5c0 -102 -27.667 -193 -83 -273c-54.667 -80 -127 -141.5 -217 -184.5s-185.333 -64.5 -286 -64.5c-161.333 0 -293.666 42.333 -396.999 127zM867.001 504c0 92 -17.5 173.333 -52.5 244s-93.5 106 -175.5 106c-84 0 -143.833 -36.5 -179.5 -109.5
s-53.5 -156.5 -53.5 -250.5c0 -102 16.333 -191.333 49 -268c33.333 -76.667 93.333 -115 180 -115c154.667 0 232 131 232 393z" />
    <glyph glyph-name="p" unicode="p" horiz-adv-x="1311" 
d="M495 -101c0 -57.333 3.66699 -94.668 11 -112.001c5.33301 -12 20.333 -24.333 45 -37c32.667 -17.333 49 -38 49 -62c0 -28.667 -9.66699 -46.667 -29 -54s-46.333 -11 -81 -11h-322c-34.667 0 -61.667 3.66699 -81 11s-29 25.333 -29 54c0 24 16.333 44.667 49 62
c24.667 12.667 39.667 25 45 37c6.66699 17.333 10 54.666 10 111.999v753c0 46 -3.33301 78 -10 96s-23.667 33.667 -51 47c-28.667 12 -43 30.333 -43 55c0 22.667 20.5 45.667 61.5 69s87.5 43 139.5 59s90 24 114 24c30 0 51.333 -14.5 64 -43.5s22 -63.833 28 -104.5
c92 98.667 197.333 148 316 148c96 0 180.333 -22.667 253 -68s128.334 -107 167.001 -185c39.333 -78 59 -164.333 59 -259c0 -95.333 -21.667 -183 -65 -263c-42.667 -79.333 -102.334 -142 -179.001 -188c-76 -46.667 -161.333 -70 -256 -70
c-48 0 -95.5 9.83301 -142.5 29.5s-70.5 50.167 -70.5 91.5c0 14 4.16699 26.167 12.5 36.5s19.166 15.5 32.499 15.5c12.667 0 28.834 -1.16699 48.501 -3.5s34.834 -3.5 45.501 -3.5c60.667 0 112 28 154 84c45.333 63.333 68 149.333 68 258
c0 86.667 -17.333 167 -52 241c-34.667 72.667 -90.667 109 -168 109c-58 0 -105.667 -21.667 -143 -65c-20.667 -23.333 -34.334 -50.666 -41.001 -81.999c-6 -31.333 -9 -68.666 -9 -111.999v-669z" />
    <glyph glyph-name="q" unicode="q" horiz-adv-x="1270" 
d="M805 80c-79.333 -74 -177.668 -111 -295.001 -111c-87.333 0 -166 21.5 -236 64.5s-124.667 101.333 -164 175s-59 154.5 -59 242.5c0 74.667 13 145.667 39 213c26 68 62.667 127.167 110 177.5s103.333 89.833 168 118.5c65.333 28 135.333 42 210 42
c110 0 212.333 -33 307 -99c80.667 66 142 99 184 99c30.667 0 49.834 -9.66699 57.501 -29s11.5 -47.333 11.5 -84v-1002c0 -57.333 3.66699 -95 11 -113c6 -12 21 -24 45 -36c32.667 -18 49 -38.667 49 -62c0 -28.667 -9.66699 -46.667 -29 -54s-46.333 -11 -81 -11h-322
c-34.667 0 -61.667 3.66699 -81 11s-29 25.333 -29 54c0 23.333 16.333 44 49 62c24 12 39 24 45 36c6.66699 18 10 55.667 10 113v193zM804.998 588c0 72.667 -13.6689 134.835 -41.002 186.502s-73.666 77.5 -138.999 77.5c-57.333 0 -102.333 -19.833 -135 -59.5
s-55.167 -87.834 -67.5 -144.501s-18.5 -113.667 -18.5 -171c0 -54.667 6.5 -109 19.5 -163s35.833 -99.667 68.5 -137s76.334 -56 131.001 -56c60.667 0 109.667 25.333 147 76c23.333 31.333 35 81.666 35 150.999v240z" />
    <glyph glyph-name="r" unicode="r" horiz-adv-x="901" 
d="M518 277c0 -57.333 3.66992 -95 11.0029 -113c5.33301 -12.667 20.333 -25 45 -37c32.667 -18 49 -38.333 49 -61c0 -28.667 -9.83301 -46.834 -29.5 -54.501s-46.834 -11.5 -81.501 -11.5h-321c-34.667 0 -61.834 3.83301 -81.501 11.5s-29.5 25.834 -29.5 54.501
c0 22.667 16.333 43 49 61c24.667 12 39.667 24.333 45 37c7.33301 18 11 55.667 11 113v375c0 8.66699 -4 27 -12 55c-6 20.667 -14 35.667 -24 45s-26.667 19.666 -50 30.999c-37.333 16.667 -56 39 -56 67c0 22.667 9.5 40.667 28.5 54s43.167 26 72.5 38
c103.333 40 175 60 215 60c39.333 0 66.166 -19.667 80.499 -59s26.166 -90.666 35.499 -153.999c28.667 57.333 67 107.166 115 149.499s99.333 63.5 154 63.5c44 0 80.5 -14.333 109.5 -43s43.5 -65 43.5 -109c0 -35.333 -9.66699 -67.666 -29 -96.999
s-45.666 -44 -78.999 -44c-18.667 0 -42.5 4.33301 -71.5 13s-50.833 13 -65.5 13c-38 0 -69.667 -25 -95 -75c-26 -47.333 -39 -121 -39 -221v-162z" />
    <glyph glyph-name="s" unicode="s" horiz-adv-x="1024" 
d="M660 613c95.333 -25.333 169.002 -58.333 221.002 -99s78 -104 78 -190c0 -55.333 -14.667 -107 -44 -155c-30 -47.333 -70 -87.333 -120 -120c-88.667 -52.667 -194.667 -79 -318 -79c-102 0 -192 17.667 -270 53c-43.333 19.333 -81.166 43.833 -113.499 73.5
s-48.5 63.834 -48.5 102.501c0 24.667 8.33301 46.5 25 65.5s37 28.5 61 28.5c21.333 0 37.666 -4.33301 48.999 -13s26.666 -24 45.999 -46c41.333 -44.667 75.333 -75.667 102 -93s62.667 -26 108 -26c42 0 81.667 10.167 119 30.5s56 50.5 56 90.5
c0 45.333 -17.333 75 -52 89s-100 32.667 -196 56c-95.333 23.333 -166.666 53.833 -213.999 91.5s-71 98.167 -71 181.5c0 79.333 23.167 145.166 69.5 197.499s105.5 90.833 177.5 115.5c72 23.333 146 35 222 35c54 0 112.167 -6.83301 174.5 -20.5
s112.166 -32.834 149.499 -57.501c28.667 -18 43 -63.667 43 -137c0 -31.333 -3.66699 -56 -11 -74s-24.333 -27 -51 -27c-19.333 0 -37.666 10.333 -54.999 31l-52 65c-16.667 22 -38.834 40.833 -66.501 56.5s-63.834 23.5 -108.501 23.5c-40.667 0 -77 -9.66699 -109 -29
c-31.333 -19.333 -47 -47.666 -47 -84.999c0 -32 13.333 -55.5 40 -70.5s63 -28.5 109 -40.5z" />
    <glyph glyph-name="t" unicode="t" horiz-adv-x="778" 
d="M495 301c0 -52 7.33301 -88.834 22 -110.501s46.667 -32.5 96 -32.5c48.667 0 84 -5 106 -15c22 -9.33301 33 -31 33 -65c0 -52 -45.667 -78 -137 -78h-281c-46 0 -80.667 4 -104 12c-24 6.66699 -41.333 21 -52 43s-16 56.333 -16 103v665h-41
c-40 0 -70.5 4.66699 -91.5 14s-31.5 31.333 -31.5 66c0 24 7.16699 41.167 21.5 51.5s34.5 17.833 60.5 22.5c36.667 5.33301 65.167 11.833 85.5 19.5s37.5 22.5 51.5 44.5c24.667 39.333 44 101.333 58 186c8 40.667 18.833 67.834 32.5 81.501s40.167 20.5 79.5 20.5
c46.667 0 75.5 -5.33301 86.5 -16s16.5 -38 16.5 -82v-246h121c40.667 0 72 -4.66699 94 -14s33 -32 33 -68c0 -53.333 -41 -80 -123 -80h-120v-522z" />
    <glyph glyph-name="u" unicode="u" horiz-adv-x="1270" 
d="M125 686l-0.00683594 43.002c0 24 -2.66699 42.667 -8 56s-17.666 27 -36.999 41c-23.333 17.333 -35 35 -35 53c0 19.333 10.333 35.666 31 48.999c27.333 17.333 95 36.333 203 57c0.666992 3.33301 8.83398 7 24.501 11s30.5 6 44.5 6c48.667 0 79.334 -14 92.001 -42
c12.667 -27.333 19 -69.333 19 -126v-469c0 -45.333 2.66699 -83.333 8 -114s18.333 -57 39 -79c20 -21.333 50.667 -32 92 -32c27.333 0 55 6.66699 83 20s50.333 30.333 67 51c24.667 30 37 83.333 37 160v315v43c0 24 -2.66699 42.667 -8 56s-17.666 27 -36.999 41
c-23.333 17.333 -35 35 -35 53c0 18.667 10 35 30 49c27.333 16.667 95 35.667 203 57c42.667 8.66699 73.334 13 92.001 13c45.333 0 74.666 -15.667 87.999 -47v-670c0 -57.333 3.66699 -95 11 -113c8 -16.667 23 -29.667 45 -39c34 -17.333 51 -38.333 51 -63
c0 -28.667 -9.66699 -46.834 -29 -54.501s-46.666 -11.5 -81.999 -11.5h-176c-33.333 0 -58.166 3.5 -74.499 10.5s-28.166 18.5 -35.499 34.5c-6.66699 16 -13 42 -19 78c-98 -102.667 -214 -154 -348 -154c-132 0 -231 51.333 -297 154c-10 16.667 -19 45.5 -27 86.5
s-12 86.5 -12 136.5v340z" />
    <glyph glyph-name="v" unicode="v" horiz-adv-x="1106" 
d="M754 467c18 42 36.3311 95.6699 54.998 161.003c18 66 27 116 27 150c0 21.333 -4.16699 38.166 -12.5 50.499s-20.666 24.333 -36.999 36s-27.833 21.167 -34.5 28.5c-6.66699 8 -10 19.667 -10 35c0 24 9.33301 39.5 28 46.5s46.667 10.5 84 10.5h113h43
c57.333 0 86 -17.667 86 -53c0 -22 -9.33301 -42.333 -28 -61c-22.667 -23.333 -36.5 -40.166 -41.5 -50.499s-12.5 -34.5 -22.5 -72.5l-22 -86c-44 -160 -107.667 -320.667 -191 -482c-42.667 -84 -77.667 -140.667 -105 -170c-25.333 -27.333 -66.333 -41 -123 -41
c-46 0 -81 6 -105 18c-24.667 12.667 -49.667 37.667 -75 75c-38 58 -71.167 114.5 -99.5 169.5s-54.333 111.667 -78 170s-44.667 116.166 -63 173.499s-37.833 123 -58.5 197c-11.333 42.667 -26.333 71.334 -45 86.001c-17.333 13.333 -29.166 23.666 -35.499 30.999
s-9.5 18.333 -9.5 33c0 27.333 11 44.666 33 51.999s50.667 11 86 11h266c88.667 0 133 -20.333 133 -61c0 -15.333 -3.5 -27.333 -10.5 -36s-17.333 -18.167 -31 -28.5s-24.167 -20.333 -31.5 -30s-11 -21.834 -11 -36.501c0 -39.333 12.5 -96.333 37.5 -171
s55 -149.667 90 -225s65.5 -133.333 91.5 -174z" />
    <glyph glyph-name="w" unicode="w" horiz-adv-x="1639" 
d="M1520 985c44.667 0 76.999 -3.67188 96.999 -11.0049s30 -22.666 30 -45.999c0 -18 -9.5 -37.667 -28.5 -59s-31.167 -36.833 -36.5 -46.5s-12.333 -29.167 -21 -58.5l-170 -526c-47.333 -111.333 -89.666 -185.666 -126.999 -222.999c-30 -30.667 -74.333 -46 -133 -46
c-39.333 0 -70 4.5 -92 13.5s-44 27.833 -66 56.5c-30.667 40.667 -57.167 86.167 -79.5 136.5s-49.166 116.833 -80.499 199.5c-52.667 -140.667 -106.334 -250 -161.001 -328c-22 -29.333 -43.833 -49.666 -65.5 -60.999s-51.167 -17 -88.5 -17
c-43.333 0 -77.333 6 -102 18s-44.667 29.5 -60 52.5s-34.333 57.833 -57 104.5c-77.333 155.333 -138 331.333 -182 528l-23 102c-10 41.333 -19 65.333 -27 72c-34 28 -51 53.333 -51 76c0 42 32 63 96 63h295c33.333 0 59 -4 77 -12c18.667 -8 28 -25.667 28 -53
c0 -15.333 -3 -27 -9 -35c-6 -7.33301 -15.333 -15 -28 -23c-12 -8 -20.833 -15 -26.5 -21s-8.5 -16 -8.5 -30c0 -48 21.333 -152.333 64 -313c30 -112 68 -206.333 114 -283c82 160 123 326 123 498c0 39.333 -2.66699 70 -8 92s-19 42 -41 60c-24.667 22 -37 43 -37 63
c0 38 31.333 57 94 57h271c34.667 0 61.667 -3.66699 81 -11c20 -7.33301 30 -24.666 30 -51.999c0 -18.667 -5.83301 -32.5 -17.5 -41.5l-35 -27c-11.667 -9 -17.5 -22.5 -17.5 -40.5c0 -49.333 20 -142 60 -278l122 -320c25.333 48 51 106.333 77 175
s48 137.834 66 207.501s27 127.167 27 172.5c0 26 -4 45.167 -12 57.5s-20 24 -36 35s-27.333 20.5 -34 28.5s-10 21 -10 39c0 23.333 9 38.333 27 45c18.667 6.66699 47 10 85 10h107z" />
    <glyph glyph-name="x" unicode="x" horiz-adv-x="1147" 
d="M152 0c-47.333 0 -82.833 4.33008 -106.5 12.9971s-35.5 27 -35.5 55c0 24.667 16 45 48 61c30 16.667 48.333 28.334 55 35.001s25.667 30 57 70l205 237l-250 326c-12 17.333 -22.333 30 -31 38s-21.334 16.333 -38.001 25c-32 18.667 -48 40 -48 64
c0 24.667 8 41 24 49s38.333 12 67 12h350c29.333 0 53 -3.66699 71 -11s27 -23.333 27 -48c0 -14 -7.16699 -29 -21.5 -45s-21.5 -28.333 -21.5 -37c0 -20 50.667 -87.667 152 -203c25.333 26 53.666 59 84.999 99c30.667 40.667 46 71.334 46 92.001c0 8 -3 14.667 -9 20
c-5.33301 5.33301 -13.666 12 -24.999 20s-20.166 16 -26.499 24s-9.5 18 -9.5 30c0 25.333 8.83301 41.5 26.5 48.5s47.167 10.5 88.5 10.5h119c40.667 0 70.5 -3.16699 89.5 -9.5s28.5 -21.5 28.5 -45.5c0 -16.667 -4.33301 -29.667 -13 -39s-22.667 -20.333 -42 -33
c-16.667 -10.667 -27.667 -18.667 -33 -24c-4.66699 -4.66699 -14 -17.667 -28 -39c-58 -82 -129.667 -166 -215 -252l210 -258l33.5 -47c18.333 -26 35.166 -47.333 50.499 -64s31.333 -29.667 48 -39c22 -10.667 38.333 -20.667 49 -30s16 -23.666 16 -42.999
c0 -17.333 -7.5 -32 -22.5 -44s-32.167 -18 -51.5 -18h-366c-72.667 -0 -109 21.333 -109 64c0 17.333 8.16699 33.833 24.5 49.5s24.5 26.5 24.5 32.5c0 19.333 -50.333 84 -151 194l-29 33c-22.667 -22.667 -50.5 -56.5 -83.5 -101.5s-49.5 -77.5 -49.5 -97.5
c0 -11.333 3.33301 -20 10 -26s17.667 -13.333 33 -22c14.667 -8 25.834 -16.833 33.501 -26.5s11.5 -22.167 11.5 -37.5c0 -41.333 -33.333 -62 -100 -62h-43h-125z" />
    <glyph glyph-name="y" unicode="y" horiz-adv-x="1106" 
d="M361 985c44.667 0 77.3359 -3.99805 98.0029 -11.998s31 -26.333 31 -55c0 -14.667 -8 -30.334 -24 -47.001s-27.667 -30.334 -35 -41.001s-11 -30 -11 -58c0 -56 6.16699 -117.833 18.5 -185.5s28.166 -129.167 47.499 -184.5c54.667 -154.667 109 -232 163 -232
c37.333 0 70.666 38 99.999 114s52 162 68 258c16.667 96 25 164.667 25 206c0 36 -2.66699 61 -8 75c-5.33301 14.667 -20.333 29.334 -45 44.001c-28.667 18 -43 38.333 -43 61c0 23.333 9 38.666 27 45.999s47.667 11 89 11h117h43c57.333 0 86 -17.667 86 -53
c0 -19.333 -11 -41 -33 -65c-14.667 -20.667 -23.334 -36 -26.001 -46c-4.66699 -10.667 -9.16699 -27.667 -13.5 -51s-8 -46.166 -11 -68.499s-6.5 -44.5 -10.5 -66.5c-21.333 -138 -63.333 -287.5 -126 -448.5s-145.667 -299 -249 -414s-221.333 -172.5 -354 -172.5
c-42.667 0 -83.667 11.167 -123 33.5s-59 53.5 -59 93.5c0 32.667 12 59 36 79s52 30 84 30c26 0 56.667 -7.66699 92 -23c36 -14.667 58 -22 66 -22c20.667 0 46.334 11.667 77.001 35c31.333 23.333 55.666 45 72.999 65c32 36 62 82 90 138
c-32.667 -8 -65.667 -12 -99 -12c-42.667 0 -86.5 10.167 -131.5 30.5s-84.167 46.833 -117.5 79.5c-38.667 40 -72 99.667 -100 179s-49.833 158.333 -65.5 237s-30.167 163.334 -43.5 254.001c-3.33301 21.333 -8.33301 37.666 -15 48.999s-15.667 21.833 -27 31.5
s-19 17.167 -23 22.5c-3.33301 5.33301 -5 14.666 -5 27.999c0 38 33.333 57 100 57h267z" />
    <glyph glyph-name="z" unicode="z" horiz-adv-x="1024" 
d="M193 0c-46.667 0 -84.666 5.66504 -113.999 16.998s-44 36.333 -44 75c0 42.667 28.667 102.334 86 179.001l459 585h-154c-51.333 0 -91.833 -5 -121.5 -15s-57.5 -33 -83.5 -69c-14.667 -22 -27.834 -38.667 -39.501 -50s-26.5 -17 -44.5 -17c-16.667 0 -30 6 -40 18
s-15 27 -15 45c0 24 3.33301 55 10 93s13.667 66.333 21 85c12 26 45.333 39 100 39h621c42.667 0 76.5 -4.5 101.5 -13.5s37.5 -30.167 37.5 -63.5c0 -16.667 -3.83301 -35 -11.5 -55s-17 -39.167 -28 -57.5s-24.5 -38.833 -40.5 -61.5l-39 -54l-411 -540h153
c58.667 0 103.667 4.66699 135 14c28 8 49 18.667 63 32c14.667 12.667 30.667 32.667 48 60c25.333 36.667 50.666 55 75.999 55c35.333 0 53 -17.667 53 -53c0 -22.667 -3.66699 -55 -11 -97s-14.666 -72.333 -21.999 -91c-8 -25.333 -21.5 -41.666 -40.5 -48.999
s-44.5 -11 -76.5 -11h-628z" />
    <glyph glyph-name="braceleft" unicode="{" horiz-adv-x="697" 
d="M197 314c0 40 -2.16602 71.1689 -6.49902 93.502s-16.5 46.166 -36.5 71.499c-31.333 39.333 -72.333 65.333 -123 78c36 4 71.333 21.333 106 52c26.667 21.333 43.667 46.333 51 75c6 28 9 67 9 117v369c0 58 3.83301 107.5 11.5 148.5s24.834 76.167 51.501 105.5
c29.333 30.667 65.166 50.834 107.499 60.501s96.833 14.5 163.5 14.5h84c-79.333 -36.667 -119 -119.667 -119 -249v-392c0 -88.667 -12 -156.834 -36 -204.501s-72.667 -79.834 -146 -96.501c72 -18 120.333 -49.167 145 -93.5s37 -107.833 37 -190.5v-421
c0 -67.333 9.33301 -120.833 28 -160.5s49 -70.167 91 -91.5h-86c-58.667 0 -105.834 3.33301 -141.501 10s-70.5 22 -104.5 46c-36 26 -59 57.667 -69 95c-11.333 37.333 -17 85.333 -17 144v419z" />
    <glyph glyph-name="bar" unicode="|" horiz-adv-x="1352" 
d="M606 1551h141v-1551h-141v1551z" />
    <glyph glyph-name="braceright" unicode="}" horiz-adv-x="697" 
d="M199 273c0 82.667 12.5 145.999 37.5 189.999s73.5 75.333 145.5 94c-50 11.333 -88.5 30.333 -115.5 57s-45 59.334 -54 98.001s-13.5 87.334 -13.5 146.001v392c0 128.667 -39.667 211.667 -119 249h84c66.667 0 121.334 -4.83301 164.001 -14.5
s78 -29.834 106 -60.501c27.333 -28.667 44.833 -63.667 52.5 -105s11.5 -91 11.5 -149v-369c0 -50 3.16699 -89 9.5 -117s22.833 -53 49.5 -75c35.333 -30.667 71 -48 107 -52c-50.667 -12.667 -91.667 -38.667 -123 -78c-19.333 -24 -31 -47.333 -35 -70
c-5.33301 -23.333 -8 -55 -8 -95v-419c0 -58.667 -5 -106.667 -15 -144c-11.333 -37.333 -35 -69 -71 -95c-34 -24 -68.833 -39.333 -104.5 -46s-82.834 -10 -141.501 -10h-86c42 21.333 72.333 51.5 91 90.5s28 92.833 28 161.5v421z" />
    <glyph glyph-name="asciitilde" unicode="~" horiz-adv-x="1352" 
d="M1274 682c-38.667 -54.667 -72.166 -98.4971 -100.499 -131.497s-62.5 -61 -102.5 -84s-86.333 -34.5 -139 -34.5c-52 0 -122.333 17.333 -211 52l-108 41l-64.5 23c-21.667 8 -41.834 14.333 -60.501 19s-36.667 7 -54 7c-46.667 0 -82.5 -13.333 -107.5 -40
s-57.833 -72 -98.5 -136l-152 100c51.333 81.333 104 145.333 158 192s119.333 70 196 70c40 0 82 -6.33301 126 -19s96.5 -31.334 157.5 -56.001s106.167 -41.834 135.5 -51.501s57 -14.5 83 -14.5c40 0 72.167 12.667 96.5 38s55.833 65.666 94.5 120.999z" />
    <glyph glyph-name="section" unicode="&#xa4;" 
d="M1123 1280c18 18 30.332 29.666 36.999 34.999s16 8 28 8c14.667 0 28.667 -7 42 -21s20 -28 20 -42c0 -14.667 -8.33301 -29 -25 -43l-116 -119c32 -44.667 56.833 -83.667 74.5 -117s30.834 -69 39.501 -107c8 -37.333 12 -82 12 -134
c0 -121.333 -36 -226.666 -108 -315.999l100 -100c27.333 -24.667 41 -45.334 41 -62.001c0 -15.333 -7.66699 -30.666 -23 -45.999s-30.333 -23 -45 -23c-16.667 0 -37.667 14.333 -63 43l-100 99c-47.333 -36 -100.666 -64.667 -159.999 -86
c-60 -22.667 -118.667 -34 -176 -34c-118.667 0 -229.334 38.333 -332.001 115l-109 -109l-21 -19.5c-6 -5.66699 -12.667 -10.667 -20 -15s-14.666 -6.5 -21.999 -6.5c-14 0 -27.833 6.83301 -41.5 20.5s-20.5 27.5 -20.5 41.5c0 12.667 2.66699 22.167 8 28.5
s16.333 17.833 33 34.5l109 109c-83.333 99.333 -125 218.666 -125 357.999c0 124 36.333 227.333 109 310l-101 100l-19 19c-6.66699 7.33301 -12 14.333 -16 21s-6 14.334 -6 23.001c0 16 6.66699 30.333 20 43s28 19 44 19c12.667 0 27.667 -8.16699 45 -24.5
s38.666 -38.5 63.999 -66.5s42 -44.667 50 -50c44.667 42.667 96 74.5 154 95.5s119.333 31.5 184 31.5c123.333 0 235.333 -37.667 336 -113zM687.999 1102c-62 0 -119.331 -15.999 -171.998 -47.999s-94 -75.333 -124 -130c-30.667 -54 -46 -112 -46 -174
c0 -63.333 16 -121.833 48 -175.5s75.333 -95.5 130 -125.5c54 -31.333 112.333 -47 175 -47s120.667 16 174 48s96 75 128 129c30.667 54 46 112.333 46 175c0 64.667 -16.333 123.667 -49 177s-76.334 95.166 -131.001 125.499s-114.334 45.5 -179.001 45.5z" />
    <glyph glyph-name="bullet" unicode="&#xa5;" 
d="M486 1499c51.333 0 77.0039 -22.9971 77.0039 -68.9971c0 -16 -3 -27.667 -9 -35s-17.333 -15.666 -34 -24.999c-14.667 -8 -25.5 -15 -32.5 -21s-10.5 -15.333 -10.5 -28c0 -66 103.333 -251.667 310 -557c23.333 30 61.166 84.5 113.499 163.5
s98.166 155.167 137.499 228.5c40 73.333 60 123.666 60 150.999c0 14.667 -3.66699 25.834 -11 33.501s-18.666 16.834 -33.999 27.501c-18.667 13.333 -30.834 23.666 -36.501 30.999s-8.5 19.666 -8.5 36.999c0 27.333 9.83301 44.666 29.5 51.999s45.167 11 76.5 11h172
c37.333 0 64.333 -3.66699 81 -11c17.333 -8 26 -25.333 26 -52c0 -25.333 -12.333 -48 -37 -68c-24.667 -18.667 -41.667 -34.5 -51 -47.5s-23.666 -37.5 -42.999 -73.5l-299 -491h139c48 0 72 -22 72 -66c0 -25.333 -5.83301 -42.5 -17.5 -51.5
s-29.834 -13.5 -54.501 -13.5h-236v-146h205c37.333 0 63.333 -3.66699 78 -11c15.333 -8 23 -26 23 -54c0 -28.667 -6.33301 -46.834 -19 -54.501s-33.334 -11.5 -62.001 -11.5h-39h-186v-45c0 -69.333 2.33301 -111 7 -125c2 -8 6.16699 -14.833 12.5 -20.5
s14.166 -11 23.499 -16s16.333 -9.16699 21 -12.5c24.667 -12 37 -31 37 -57c0 -48 -29.333 -72 -88 -72h-309c-38.667 0 -69.5 4.33301 -92.5 13s-34.5 29 -34.5 61c0 25.333 17 46.333 51 63c21.333 10 35.166 20 41.499 30s9.5 28 9.5 54v127h-184
c-44.667 0 -76 4 -94 12s-27 26 -27 54c0 27.333 9 45 27 53s49.333 12 94 12h184v119l-18 27h-177c-41.333 0 -70.666 4 -87.999 12c-17.333 8.66699 -26 27 -26 55c0 44 29.333 66 88 66h27c10 -1.33301 17.333 -2 22 -2h63l-280 485
c-16 33.333 -28.333 55.666 -37 66.999c-8 11.333 -24.333 24 -49 38c-28 18 -46.667 31.5 -56 40.5s-14 24.167 -14 45.5c-0 44.667 29.333 67 88 67h398z" />
    <glyph glyph-name="germandbls" unicode="&#xa7;" horiz-adv-x="1229" 
d="M396 213c-68 22 -127.001 46.999 -177.001 74.999c-49.333 28 -89.333 64.667 -120 110c-30.667 46 -46 101.667 -46 167c0 66 16.667 124.167 50 174.5s80.333 98.833 141 145.5c-42 48 -71.667 89.167 -89 123.5s-26 77.166 -26 128.499c0 56 14 110.167 42 162.5
s65.333 95.833 112 130.5c88 66.667 201.333 100 340 100c58 0 118.833 -6.16699 182.5 -18.5s119.5 -30.166 167.5 -53.499c18 -8.66699 32.167 -18.834 42.5 -30.501s18.166 -24.667 23.499 -39s9.66602 -30.333 12.999 -48l11 -56.5c12.667 -58.667 19 -92 19 -100
c0 -21.333 -7.16699 -38.666 -21.5 -51.999s-31.833 -20 -52.5 -20c-18 0 -32.333 5.5 -43 16.5s-25.667 30.167 -45 57.5c-49.333 70 -94.666 121.667 -135.999 155c-41.333 34 -95 51 -161 51c-34.667 0 -69.167 -6.66699 -103.5 -20s-62.333 -33 -84 -59
s-32.5 -56.667 -32.5 -92c0 -52.667 19.167 -92.667 57.5 -120s90.166 -51.666 155.499 -72.999l187 -61c114.667 -39.333 191 -74.333 229 -105c36.667 -29.333 65.334 -66 86.001 -110s31 -89.667 31 -137c0 -64.667 -13.667 -123.5 -41 -176.5s-67 -104.833 -119 -155.5
c42 -42 72.667 -83.333 92 -124s29 -88 29 -142c0 -94.667 -26.333 -177.334 -79 -248.001c-53.333 -70 -122.666 -123.667 -207.999 -161c-86 -36.667 -174.667 -55 -266 -55c-101.333 0 -201 22 -299 66c-38.667 16.667 -65.334 30.334 -80.001 41.001
s-26.667 29.667 -36 57c-10.667 28 -22.667 73.333 -36 136s-20 105.334 -20 128.001c0 22 6.16699 40.333 18.5 55s28.833 22 49.5 22c29.333 0 50.333 -9.66699 63 -29c13.333 -18.667 38.833 -62 76.5 -130s75.834 -118 114.501 -150s88.334 -48 149.001 -48
c42 0 83.5 9.33301 124.5 28s74.5 45 100.5 79s39 72.667 39 116c0 97.333 -73.667 170.666 -221 219.999zM683.999 442.999l182.999 -76.001c18.667 30.667 32.5 55.834 41.5 75.501s13.5 42.834 13.5 69.501c0 45.333 -18 80.666 -54 105.999
c-35.333 25.333 -81 46.666 -137 63.999l-225 74l-135 53c-45.333 -42.667 -68 -88.334 -68 -137.001c0 -47.333 16.833 -82.666 50.5 -105.999s79.834 -44.666 138.501 -63.999z" />
    <glyph glyph-name="copyright" unicode="&#xa9;" horiz-adv-x="1721" 
d="M854 1530c106 0 206.831 -20.1709 302.498 -60.5039s179.5 -96.5 251.5 -168.5c72 -71.333 128 -154.666 168 -249.999s60 -195.666 60 -300.999c0 -140.667 -35 -270.667 -105 -390c-69.333 -120 -164.166 -215 -284.499 -285s-251.166 -105 -392.499 -105
c-140.667 0 -271 35 -391 105c-119.333 70 -214 164.833 -284 284.5s-105 249.834 -105 390.501s35 270.834 105 390.501s164.667 214.5 284 284.5c120 70 250.333 105 391 105zM853.998 63.9961c124 0 238.832 30.667 344.499 92s189.334 144.666 251.001 249.999
s92.5 220 92.5 344c0 123.333 -30.833 237.666 -92.5 342.999s-145.167 189 -250.5 251c-106 60.667 -221 91 -345 91c-123.333 0 -237.666 -30.667 -342.999 -92s-188.833 -144.666 -250.5 -249.999s-92.5 -219.666 -92.5 -342.999c0 -124 30.833 -238.5 92.5 -343.5
s145.167 -188.333 250.5 -250s219.666 -92.5 342.999 -92.5zM1194 546.996c14.667 0 27.6689 -5.66602 39.002 -16.999s17 -24.666 17 -39.999c0 -30.667 -18 -65.667 -54 -105c-78.667 -90 -185 -135 -319 -135c-92 0 -172.667 23.167 -242 69.5
s-122.166 108.666 -158.499 186.999s-54.5 162.833 -54.5 253.5c0 85.333 18.667 166.833 56 244.5s89.666 140.667 156.999 189s144 72.5 230 72.5c52 0 107 -8 165 -24c58 -17.333 105.333 -40.666 142 -69.999c14.667 -11.333 23.667 -27 27 -47s6 -48.667 8 -86
c0 -38.667 -3.33301 -65.334 -10 -80.001c-6 -15.333 -20 -23 -42 -23c-18 0 -33.333 11.333 -46 34l-44 79c-16.667 30 -40.834 54.833 -72.501 74.5s-75.167 29.5 -130.5 29.5c-94.667 0 -163 -40.333 -205 -121s-63 -173.334 -63 -278.001c0 -66 10.667 -128 32 -186
s54.666 -105.333 99.999 -142s101 -55 167 -55c54 0 98.333 9.5 133 28.5s67 50.5 97 94.5c14.667 20 26 34 34 42c8.66699 7.33301 21 11 37 11z" />
    <glyph glyph-name="acute" unicode="&#xab;" horiz-adv-x="778" 
d="M266 645c-12 -28 -18.001 -45.002 -18.001 -51.002c0 -4.66699 1.5 -10.5 4.5 -17.5s4.83301 -11.5 5.5 -13.5l105 -219c20 -37.333 30 -64.666 30 -81.999c0 -12 -4.16699 -21.5 -12.5 -28.5s-18.5 -10.5 -30.5 -10.5c-10.667 0 -20.667 3.33301 -30 10
s-18.833 15.834 -28.5 27.501s-16.5 20.5 -20.5 26.5l-177 213l-15.5 19.5c-5 6.33301 -10.5 14 -16.5 23s-10.667 17.5 -14 25.5s-5 16 -5 24c0 22 18 52 54 90l176 215c16.667 21.333 29.334 36.333 38.001 45s19.667 13 33 13c12 0 22.667 -3.66699 32 -11
c8.66699 -6.66699 13 -16 13 -28c0 -7.33301 -8 -30 -24 -68zM597.999 644.998c-10.667 -25.333 -15.999 -42.333 -15.999 -51c0 -9.33301 3.33301 -19.666 10 -30.999l105 -219c20 -46.667 30 -74 30 -82c0 -12 -4.33301 -21.5 -13 -28.5s-19.334 -10.5 -32.001 -10.5
c-10 0 -19.667 3.33301 -29 10s-17.5 14 -24.5 22s-15.833 18.667 -26.5 32l-176 213c-34 41.333 -51 72 -51 92c0 14 4 26.667 12 38s21.667 28.666 41 51.999l176 215c17.333 21.333 30.333 36.333 39 45s19.667 13 33 13c12 0 22.667 -3.66699 32 -11
c8.66699 -6.66699 13 -16 13 -28c0 -7.33301 -8 -30 -24 -68z" />
    <glyph glyph-name="dieresis" unicode="&#xac;" horiz-adv-x="1352" 
d="M1028 655h-899v195h1093v-647h-194v452z" />
    <glyph glyph-name="AE" unicode="&#xae;" horiz-adv-x="1721" 
d="M854 1530c106 0 206.831 -20.1709 302.498 -60.5039s179.5 -96.5 251.5 -168.5c72 -71.333 128 -154.666 168 -249.999s60 -195.666 60 -300.999c0 -140.667 -35 -270.667 -105 -390c-69.333 -120 -164.166 -215 -284.499 -285s-251.166 -105 -392.499 -105
c-140.667 0 -271 35 -391 105c-119.333 70 -214 164.833 -284 284.5s-105 249.834 -105 390.501s35 270.834 105 390.501s164.667 214.5 284 284.5c120 70 250.333 105 391 105zM853.998 63.9961c124 0 238.832 30.667 344.499 92s189.334 144.666 251.001 249.999
s92.5 220 92.5 344c0 123.333 -30.833 237.666 -92.5 342.999s-145.167 189 -250.5 251c-106 60.667 -221 91 -345 91c-123.333 0 -237.666 -30.667 -342.999 -92s-188.833 -144.666 -250.5 -249.999s-92.5 -219.666 -92.5 -342.999c0 -124 30.833 -238.5 92.5 -343.5
s145.167 -188.333 250.5 -250s219.666 -92.5 342.999 -92.5zM675.997 665.996v-217.002c0 -27.333 1.83301 -45 5.5 -53s12.167 -13.667 25.5 -17c18.667 -4.66699 32.5 -10.5 41.5 -17.5s13.5 -19.5 13.5 -37.5c0 -21.333 -7.5 -34.833 -22.5 -40.5s-35.5 -8.5 -61.5 -8.5
h-143c-28.667 0 -50.5 3 -65.5 9s-22.5 20.667 -22.5 44s15 39 45 47c17.333 6 26.666 10 27.999 12c1.33301 10 2 48.333 2 115v508c0 62.667 -0.666992 100.334 -2 113.001c-0.666992 4.66699 -8 8.66699 -22 12c-19.333 8 -32.666 14.833 -39.999 20.5
s-11 15.834 -11 30.501c0 23.333 6.66699 38 20 44s36 9 68 9h383c95.333 0 166.333 -17.667 213 -53c28.667 -20 51.834 -46 69.501 -78s26.5 -65.333 26.5 -100c0 -56 -18.5 -105.833 -55.5 -149.5s-84.167 -79.167 -141.5 -106.5
c46.667 -56.667 82.667 -105.334 108 -146.001s48.333 -89 69 -145c5.33301 -16 10 -29.167 14 -39.5s9.33301 -19.5 16 -27.5c6.66699 -7.33301 16.334 -14.333 29.001 -21c16.667 -10 27.667 -17.5 33 -22.5s8 -13.833 8 -26.5c0 -21.333 -7.33301 -35 -22 -41
c-15.333 -5.33301 -36 -8 -62 -8h-141c-26.667 0 -47.334 2.83301 -62.001 8.5s-22 19.167 -22 40.5c0 12 3 21.167 9 27.5s14.667 11.833 26 16.5s19.166 8.33398 23.499 11.001s6.5 8.33398 6.5 17.001c0 41.333 -20.333 94.666 -61 159.999s-79.667 116.333 -117 153z
M673.997 780.994c263.333 39.333 395 113 395 221c0 60 -24.167 97.667 -72.5 113s-110.833 23 -187.5 23c-42.667 0 -73 -1.66699 -91 -5s-29.833 -11 -35.5 -23s-8.5 -32.333 -8.5 -61v-80v-188z" />
    <glyph glyph-name="infinity" unicode="&#xb0;" horiz-adv-x="819" 
d="M410 922c-56 0 -107.499 13.666 -154.499 40.999s-84.167 64.5 -111.5 111.5s-41 98.5 -41 154.5c0 54.667 14 105.667 42 153c26.667 47.333 63.667 84.833 111 112.5s98.666 41.5 153.999 41.5c54.667 0 105.667 -13.833 153 -41.5s84.833 -65.167 112.5 -112.5
s41.5 -98.333 41.5 -153c0 -55.333 -13.833 -106.666 -41.5 -153.999s-65.167 -84.333 -112.5 -111c-47.333 -28 -98.333 -42 -153 -42zM600.001 1229c0 35.333 -8.16699 67.666 -24.5 96.999s-39.5 52.333 -69.5 69c-29.333 16.667 -62 25 -98 25
c-35.333 0 -67.5 -8.33301 -96.5 -25s-51.667 -39.667 -68 -69s-24.5 -61.666 -24.5 -96.999c0 -55.333 18 -100.833 54 -136.5s81.667 -53.5 137 -53.5c54 0 99.167 18 135.5 54s54.5 81.333 54.5 136z" />
    <glyph glyph-name="plusminus" unicode="&#xb1;" horiz-adv-x="1352" 
d="M580 850v271h194v-271h435v-195h-435v-272h-194v272h-436v195h436zM1209 250v-195h-1065v195h1065z" />
    <glyph glyph-name="yen" unicode="&#xb4;" horiz-adv-x="778" 
d="M281 1157c-41.333 -30 -69.3311 -45 -83.998 -45c-13.333 0 -24.5 3.83301 -33.5 11.5s-13.5 17.5 -13.5 29.5c0 11.333 10.333 34 31 68l106 186c16 28 27.5 46.833 34.5 56.5s17.167 17 30.5 22s32.666 7.5 57.999 7.5h92h35c48 0 72 -18.333 72 -55
c0 -19.333 -4.83301 -34 -14.5 -44s-26.834 -24 -51.501 -42z" />
    <glyph glyph-name="mu" unicode="&#xb5;" horiz-adv-x="1270" 
d="M785 686l-0.0078125 43.002c0 24 -2.66699 42.667 -8 56s-17.666 27 -36.999 41c-23.333 17.333 -35 35 -35 53c0 18.667 10 35 30 49c27.333 16.667 95 35.667 203 57c42.667 8.66699 73.334 13 92.001 13c45.333 0 74.666 -15.667 87.999 -47v-670
c0 -57.333 3.66699 -95 11 -113c8 -16.667 23 -29.667 45 -39c34 -17.333 51 -38.333 51 -63c0 -28.667 -9.66699 -46.834 -29 -54.501s-46.666 -11.5 -81.999 -11.5h-176c-33.333 0 -58.166 3.5 -74.499 10.5s-28.166 18.5 -35.499 34.5c-6.66699 16 -13 42 -19 78
c-95.333 -100 -191.666 -150 -288.999 -150c-30 1.33301 -64.333 14.666 -103 39.999c-38 25.333 -74 60.666 -108 105.999v-181c0 -22 6.5 -60 19.5 -114s19.5 -91.667 19.5 -113c0 -29.333 -12.167 -51.333 -36.5 -66s-55.833 -22 -94.5 -22
c-37.333 0 -68.333 7.33301 -93 22c-25.333 15.333 -38 37.333 -38 66c0 12.667 2.33301 30.334 7 53.001s9.66699 44.834 15 66.501s9.5 41.5 12.5 59.5s4.5 34 4.5 48v748v43c0 24 -2.66699 42.667 -8 56s-17.666 27 -36.999 41c-23.333 17.333 -35 35 -35 53
c0 19.333 10.333 35.666 31 48.999c27.333 17.333 95 36.333 203 57c0.666992 3.33301 8.83398 7 24.501 11s30.5 6 44.5 6c48.667 0 79.334 -14 92.001 -42c12.667 -27.333 19 -69.333 19 -126v-469c0 -45.333 2.66699 -83.333 8 -114s18.333 -57 39 -79
c20 -21.333 50.667 -32 92 -32c27.333 0 55 6.66699 83 20s50.333 30.333 67 51c24.667 30 37 83.333 37 160v315z" />
    <glyph glyph-name="partialdiff" unicode="&#xb6;" horiz-adv-x="1598" 
d="M1333 -247c0 -52.667 -8.00098 -88.6699 -24.001 -108.003c-19.333 -22.667 -43.333 -34 -72 -34c-26.667 0 -49.667 8.66699 -69 26c-19.333 20.667 -29 57 -29 109v1607l-134 1v-1600c0 -53.333 -7.33301 -89.666 -22 -108.999c-20.667 -22.667 -45.667 -34 -75 -34
c-26 0 -48.667 8.66699 -68 26c-19.333 20.667 -29 57 -29 109v742c-92.667 4 -184 16.667 -274 38c-89.333 20.667 -172.5 52.834 -249.5 96.501s-138.667 101 -185 172s-69.5 155.167 -69.5 252.5c0 70.667 12.833 137.334 38.5 200.001s64.834 114 117.501 154
c83.333 65.333 213 98 389 98h815h47c31.333 0 55.833 -4.5 73.5 -13.5s26.5 -28.167 26.5 -57.5c0 -32 -9 -53.167 -27 -63.5s-43.667 -15.5 -77 -15.5h-43h-60v-1596zM737.999 1353c-122.667 0 -219.333 -22.5 -290 -67.5s-106 -125.167 -106 -240.5
c0 -84 22 -158 66 -222s101.667 -115.167 173 -153.5s148 -63.5 230 -75.5v759h-73z" />
    <glyph glyph-name="summation" unicode="&#xb7;" horiz-adv-x="574" 
d="M-6 750c0 51.333 14.333 95.667 43 133s65.5 65.833 110.5 85.5s92.833 29.5 143.5 29.5c46.667 0 92.667 -10.333 138 -31c44.667 -22 81 -52 109 -90s42 -81 42 -129s-14 -90.667 -42 -128s-64 -66 -108 -86s-89.667 -30 -137 -30c-77.333 0 -146.5 22.5 -207.5 67.5
s-91.5 104.5 -91.5 178.5z" />
    <glyph glyph-name="pi" unicode="&#xb9;" horiz-adv-x="901" 
d="M211 953c-39.333 25.333 -71.332 59.665 -95.999 102.998s-37 88 -37 134c0 63.333 18.5 119 55.5 167s84.833 84.833 143.5 110.5s119.334 38.5 182.001 38.5c63.333 0 124.166 -12.167 182.499 -36.5s106.166 -59.833 143.499 -106.5c36 -47.333 54 -103 54 -167
c0 -63.333 -18.667 -118.666 -56 -165.999s-85.333 -83.666 -144 -108.999c-59.333 -24.667 -120 -37 -182 -37c-94 0 -176 23 -246 69zM461.001 1403c-52 0 -89 -20.332 -111 -60.999s-33 -90 -33 -148c0 -56.667 10.667 -105.334 32 -146.001s57.333 -61 108 -61
c95.333 0 143 74 143 222c0 52 -11 97.333 -33 136s-57.333 58 -106 58zM750.001 742c32 0 54.501 -2.33301 67.501 -7s19.5 -15.334 19.5 -32.001c0 -14 -6.66699 -23.333 -20 -28s-34.333 -7 -63 -7h-580c-34.667 0 -59.334 2.16699 -74.001 6.5s-22 13.833 -22 28.5
c0 16.667 7.66699 27.334 23 32.001s40.333 7 75 7h574z" />
    <glyph glyph-name="ordfeminine" unicode="&#xbb;" horiz-adv-x="778" 
d="M682 682c34 -40.667 51 -70.666 51 -89.999c0 -20 -17 -50.667 -51 -92l-176 -213c-18.667 -22.667 -32.834 -39 -42.501 -49s-22.167 -15 -37.5 -15c-28.667 0 -43 13 -43 39c0 17.333 10.333 44.666 31 81.999l84 181l20 38c0.666992 2 2.66699 6.33301 6 13
s5 12.667 5 18s-6.33301 22.333 -19 51l-98 203c-16.667 38 -25 60.667 -25 68c0 12 4.66699 21.333 14 28c8.66699 7.33301 19 11 31 11c14 0 26.333 -5.5 37 -16.5s22.334 -24.833 35.001 -41.5zM348 682.001c16.667 -18.667 29.8311 -34.833 39.498 -48.5
s14.5 -27.5 14.5 -41.5c0 -20 -17.333 -50.667 -52 -92l-176 -213c-17.333 -21.333 -31.5 -37.333 -42.5 -48s-23.5 -16 -37.5 -16c-12 0 -22.5 3.5 -31.5 10.5s-13.5 16.5 -13.5 28.5c0 10 10.333 37.333 31 82l105 219c6.66699 12 10 22.333 10 31
c0 10.667 -5.66699 27.667 -17 51l-98 203c-16 32 -24 54.667 -24 68c0 12 4.33301 21.333 13 28c8.66699 7.33301 19.334 11 32.001 11c13.333 0 25.333 -5.5 36 -16.5s22.334 -24.833 35.001 -41.5z" />
    <glyph glyph-name="questiondown" unicode="&#xc0;" horiz-adv-x="1516" 
d="M150 0c-51.333 0 -88.832 4.33301 -112.499 13s-35.5 27.667 -35.5 57c0 20 14.333 40.333 43 61c20.667 13.333 34.667 23.666 42 30.999s14 19 20 35l73 229c18 56 37.667 112 59 168s45.5 116 72.5 180l73 169.5l84.5 191.5c49.333 112.667 100 215.667 152 309
c16.667 31.333 35.167 51.166 55.5 59.499s51.5 12.5 93.5 12.5c56 0 95 -8 117 -24s44 -49.667 66 -101l419 -983l72 -213c7.33301 -18 14.5 -30.5 21.5 -37.5s20.5 -16.5 40.5 -28.5c25.333 -15.333 38 -35 38 -59c0 -46.667 -34.667 -70 -104 -70h-346
c-36.667 0 -66.667 3.83301 -90 11.5s-35 25.834 -35 54.501c0 14.667 3.66699 26.334 11 35.001c8 8 19.667 16.333 35 25s26.166 15.667 32.499 21s9.5 13 9.5 23s-4.66699 31.667 -14 65s-21 72.333 -35 117l-33 100l-10 33h-574c-5.33301 -19.333 -15.333 -50 -30 -92
c-14.667 -41.333 -26.167 -77.333 -34.5 -108s-12.5 -55.334 -12.5 -74.001c0 -20 4.33301 -35.167 13 -45.5s22 -20.833 40 -31.5s31.333 -20.5 40 -29.5s13 -21.833 13 -38.5c0 -27.333 -12.667 -45.166 -38 -53.499s-65.333 -12.5 -120 -12.5h-112zM908.001 654l-11 33
l-219 511l-229 -544h459z" />
    <glyph glyph-name="exclamdown" unicode="&#xc1;" horiz-adv-x="1516" 
d="M615 1347c-36 -1.33301 -62 -13.999 -78 -37.999c-8 -12 -12 -34.667 -12 -68v-309c250.667 0 448 -27.333 592 -82c110 -42 195.5 -100.5 256.5 -175.5s91.5 -164.5 91.5 -268.5c0 -134.667 -71 -246.667 -213 -336c-44.667 -28 -99.334 -47 -164.001 -57
s-140 -15 -226 -15h-718c-67.333 0 -101 23.333 -101 70c0 16.667 3.83301 29 11.5 37s20.167 17.333 37.5 28l23 13c16 8 26.167 19.833 30.5 35.5s6.5 41.167 6.5 76.5v979c0 36 -2 62 -6 78c-5.33301 15.333 -15.666 27 -30.999 35l-23 12
c-18.667 12.667 -31.5 22.667 -38.5 30s-10.5 19.333 -10.5 36c0 46 33.667 69 101 69l1052 2c49.333 0 80 -4 92 -12c14 -10.667 26.167 -35 36.5 -73s15.5 -69 15.5 -93c0 -6.66699 1.66699 -17.334 5 -32.001s5 -25.667 5 -33c0 -24 -7 -43 -21 -57
c-13.333 -14 -32.333 -21 -57 -21c-24 0 -52.667 18 -86 54c-32.667 36 -64.667 64 -96 84c-32 20.667 -82 31 -150 31h-325zM525 297.001c0 -60 10.001 -100.333 30.001 -121c23.333 -22.667 66.333 -34 129 -34c58.667 0 117.667 11.167 177 33.5
s108.166 54.5 146.499 96.5s57.5 90.667 57.5 146c0 58.667 -14.333 110.5 -43 155.5s-68.667 82.5 -120 112.5c-50.667 29.333 -108.167 51.333 -172.5 66s-132.5 22 -204.5 22v-477z" />
    <glyph glyph-name="logicalnot" unicode="&#xc2;" horiz-adv-x="1516" 
d="M146 0c-67.333 0 -101 23.334 -101 70.001c0 16.667 3.66699 29 11 37s20 17.333 38 28l23 13c16 8 26.167 19.833 30.5 35.5s6.5 41.167 6.5 76.5v979c0 36 -2.16699 61.833 -6.5 77.5s-14.5 27.5 -30.5 35.5l-23 12c-18.667 12.667 -31.5 22.667 -38.5 30
s-10.5 19.333 -10.5 36c0 46 33.667 69 101 69h743c66 0 124.333 -4 175 -12s97.334 -24.333 140.001 -49c51.333 -29.333 91.5 -67.5 120.5 -114.5s43.5 -98.833 43.5 -155.5c0 -76 -28.333 -144 -85 -204s-124.334 -106 -203.001 -138
c52.667 -10 102.5 -26.167 149.5 -48.5s88.333 -50.333 124 -84s63.834 -73.667 84.501 -120s31 -96.833 31 -151.5c0 -62.667 -13.667 -121.334 -41 -176.001c-28.667 -54 -68.334 -100.333 -119.001 -139c-94 -71.333 -217.667 -107 -371 -107h-792zM527 817.001
c116 24 220.333 65.499 313 124.499s139 137.167 139 234.5c0 72 -26.333 120.667 -79 146s-119.667 38 -201 38c-76.667 0 -126.667 -12.333 -150 -37c-14.667 -17.333 -22 -54.666 -22 -111.999v-394zM527 299c0 -58.667 10 -98.333 30 -119
c23.333 -20 70.666 -30 141.999 -30c103.333 0 191 23.667 263 71c71.333 48 107 121.333 107 220c0 44 -10.5 85.333 -31.5 124s-49.5 71.667 -85.5 99c-35.333 28 -74.666 48.333 -117.999 61l-307 -73v-353z" />
    <glyph glyph-name="radical" unicode="&#xc3;" horiz-adv-x="1270" 
d="M525 260c0 -60.667 11.998 -98.002 35.998 -112.002l23 -13c18 -10.667 30.667 -20 38 -28s11 -20.333 11 -37c0 -46.667 -33.333 -70 -100 -70h-389c-67.333 0 -101 23.333 -101 70c0 16.667 3.66699 29 11 37s20 17.333 38 28l23 13c16 8 26.167 19.833 30.5 35.5
s6.5 41.167 6.5 76.5v979c0 36 -2.16699 61.833 -6.5 77.5s-14.5 27.5 -30.5 35.5l-23 12c-18.667 12.667 -31.5 22.667 -38.5 30s-10.5 19.333 -10.5 36c0 46 33.667 69 101 69h909c70.667 0 115.667 -5.33301 135 -16c21.333 -14 35 -35.667 41 -65
s12 -72.666 18 -129.999c0 -76 -20.333 -114 -61 -114c-37.333 0 -72.666 18.333 -105.999 55c-49.333 56.667 -94.666 91.334 -135.999 104.001c-40.667 13.333 -104 20 -190 20c-110.667 0 -177.667 -9.33301 -201 -28c-18.667 -18.667 -28 -61 -28 -127v-938z" />
    <glyph glyph-name="florin" unicode="&#xc4;" horiz-adv-x="1516" 
d="M35 150c19.333 16 32.3301 31 38.9971 45s14.334 37.667 23.001 71c18 67.333 38.833 136.833 62.5 208.5s49.5 145.334 77.5 221.001s55 144.667 81 207l90 207.5c44.667 97.333 67 155.333 67 174c0 14.667 -3.5 25.834 -10.5 33.501s-18.5 17 -34.5 28
s-28.167 22.5 -36.5 34.5s-12.5 28.667 -12.5 50c0 46 38.333 69 115 69h866c67.333 0 101 -23 101 -69c0 -16.667 -3.83301 -29 -11.5 -37s-20.5 -17.667 -38.5 -29l-22 -13c-16 -7.33301 -26.167 -18.833 -30.5 -34.5s-6.5 -41.5 -6.5 -77.5v-979
c0 -38 5.33301 -64.333 16 -79s30.667 -28.334 60 -41.001c15.333 -8.66699 26.333 -21 33 -37c10 -24.667 17.833 -57.5 23.5 -98.5s8.5 -73.167 8.5 -96.5c0 -24 -6.66699 -43 -20 -57s-32.666 -21 -57.999 -21c-24 0 -52.5 18 -85.5 54s-65.167 64.333 -96.5 85
s-81 31 -149 31h-729c-68 0 -117.833 -10.333 -149.5 -31s-64 -49 -97 -85s-61.5 -54 -85.5 -54c-25.333 0 -44.666 7 -57.999 21s-20 33 -20 57c0 7.33301 1.66699 18.333 5 33s5 25.334 5 32.001c0 23.333 5 54.166 15 92.499s22 63.166 36 74.499l12.5 6
c5.66699 2.66699 10.5 4 14.5 4zM898.997 152c54.667 0 82 36 82 108v965c0 49.333 -9.66699 82.666 -29 99.999s-58 26 -116 26h-41c-46 0 -84.667 -19.667 -116 -59s-67 -101.333 -107 -186c-46 -96.667 -90 -201.167 -132 -313.5s-76.333 -218.166 -103 -317.499
s-40 -176.333 -40 -231c0 -29.333 7.33301 -52 22 -68s41.667 -24 81 -24h499z" />
    <glyph glyph-name="approxequal" unicode="&#xc5;" horiz-adv-x="1352" 
d="M527 375c0 -56.667 3.00195 -99.332 9.00195 -127.999s18.667 -50 38 -64s48.333 -23.333 87 -28c38 -4 94.333 -6.33301 169 -7c71.333 0 127.333 6 168 18c41.333 11.333 82.333 39.333 123 84c30.667 34.667 54.667 59.667 72 75s37.666 23 60.999 23
c18.667 0 35.5 -6.33301 50.5 -19s22.5 -28.667 22.5 -48c0 -40.667 -15 -103 -45 -187c-12.667 -42 -26.667 -68.167 -42 -78.5s-46.333 -15.5 -93 -15.5h-1001c-67.333 0 -101 23.333 -101 70c0 16.667 3.66699 29 11 37s20 17.667 38 29l23 12c16 8 26 20 30 36
c4.66699 15.333 7 40.666 7 75.999v979c0 36 -2.16699 61.833 -6.5 77.5s-14.5 27.5 -30.5 35.5l-23 12c-18.667 12.667 -31.5 22.667 -38.5 30s-10.5 19.333 -10.5 36c0 46 33.667 69 101 69h956c58.667 0 96.334 -8 113.001 -24c11.333 -14 20 -42 26 -84s9 -79 9 -111
c0 -58.667 -24.667 -88 -74 -88c-20.667 0 -37 4.66699 -49 14s-27 25.333 -45 48c-38 43.333 -81 71 -129 83c-48 10.667 -116.333 16 -205 16c-85.333 0 -142 -5 -170 -15c-34 -14 -51 -34.667 -51 -62v-381h309c41.333 0 70.166 4.33301 86.499 13
s33.5 21.334 51.5 38.001c18.667 16.667 36.667 25 54 25c31.333 0 51.166 -13.333 59.499 -40s12.5 -60.334 12.5 -101.001c0 -58.667 -4.5 -102 -13.5 -130s-28.5 -42 -58.5 -42c-17.333 0 -36 7.66699 -56 23c-19.333 16 -37 28 -53 36c-15.333 7.33301 -43 11 -83 11
h-309v-353z" />
    <glyph glyph-name="Delta" unicode="&#xc6;" horiz-adv-x="2335" 
d="M973 0c-24.667 0 -47.6709 5.67285 -69.0039 17.0059c-20.667 10.667 -31 28.334 -31 53.001c0 16.667 3.66699 29 11 37s20 17.333 38 28l22 13c16 8 26.167 19.833 30.5 35.5s6.5 41.167 6.5 76.5v320l-114 92c-32 -32 -73.5 -82.333 -124.5 -151
s-96 -136.334 -135 -203.001s-58.5 -116 -58.5 -148c0 -9.33301 8.66699 -21 26 -35c17.333 -13.333 29.333 -23.666 36 -30.999c6.66699 -6.66699 10 -18.667 10 -36c0 -45.333 -42.333 -68 -127 -68h-391c-66 0 -99 20 -99 60c0 21.333 4 36.166 12 44.499
s23.333 18.5 46 30.5s40.5 25.833 53.5 41.5s26.5 36.834 40.5 63.501c47.333 84.667 95.333 164.667 144 240s100.667 148.666 156 219.999c55.333 72 112.333 138.333 171 199l-266 275c-40.667 50 -72.167 86 -94.5 108s-53.833 43.333 -94.5 64
c-44.667 21.333 -67 46 -67 74c0 32.667 15.667 55 47 67c4.66699 0 16.334 2 35.001 6s34.334 6 47.001 6h252c62.667 0 94 -21 94 -63c0 -15.333 -3.66699 -27.5 -11 -36.5s-18.666 -17.833 -33.999 -26.5c-14.667 -8.66699 -25.667 -16.334 -33 -23.001
c-6.66699 -6.66699 -10 -17 -10 -31c0 -24.667 26.833 -69 80.5 -133s98.5 -113 134.5 -147l274 -269v469c0 36 -2.16699 61.833 -6.5 77.5s-14.5 27.5 -30.5 35.5l-22 12c-19.333 12.667 -32.333 22.667 -39 30s-10 19.333 -10 36c0 46 33.333 69 100 69h389
c67.333 0 101 -23 101 -69c0 -17.333 -4 -30.333 -12 -39s-20.667 -17.667 -38 -27l-22 -12c-16 -8 -26.167 -19.833 -30.5 -35.5s-6.5 -41.5 -6.5 -77.5v-469l275 269c37.333 36 82.333 85.5 135 148.5s79 106.833 79 131.5c0 13.333 -3.33301 23.333 -10 30
s-17.667 14.5 -33 23.5s-26.666 17.833 -33.999 26.5s-11 21 -11 37c0 42 31.667 63 95 63h251c12.667 0 28.334 -2 47 -6c18.667 -4 30.334 -6 35.001 -6c32 -12 48 -34.333 48 -67c0 -28 -22.667 -52.667 -68 -74c-40 -20 -70.333 -40.167 -91 -60.5s-53 -57.5 -97 -111.5
l-267 -275c61.333 -63.333 119.166 -130.333 173.499 -201s105.833 -143.834 154.5 -219.501s96.334 -155.167 143 -238.5c16 -28.667 30.167 -50.334 42.5 -65.001s29.833 -28 52.5 -40c21.333 -11.333 36.166 -21.333 44.499 -30s12.5 -23.667 12.5 -45
c0 -40 -32.667 -60 -98 -60h-392c-84.667 0 -127 22.667 -127 68c0 17.333 3.5 29.666 10.5 36.999s19 17.666 36 30.999s25.5 24.666 25.5 33.999c0 32 -19.333 81.333 -58 148s-83.667 134.334 -135 203.001s-92.666 119 -123.999 151l-115 -92v-320
c0 -35.333 2.16699 -60.833 6.5 -76.5s14.5 -27.5 30.5 -35.5l22 -13c17.333 -10 30 -19.167 38 -27.5s12 -20.833 12 -37.5c0 -24.667 -10.667 -42.334 -32 -53.001c-20.667 -11.333 -43.667 -17 -69 -17h-389z" />
    <glyph glyph-name="guillemotleft" unicode="&#xc7;" 
d="M895 828c84.667 -6.66699 160.17 -23.6631 226.503 -50.9961s119 -67.333 158 -120s58.5 -118.667 58.5 -198c0 -65.333 -14 -127 -42 -185c-29.333 -58.667 -72 -110.834 -128 -156.501s-125.333 -81.834 -208 -108.501s-176 -40 -280 -40
c-147.333 0 -277.666 26 -390.999 78c-61.333 30.667 -117.333 71.5 -168 122.5s-76 104.5 -76 160.5c0 29.333 9.5 55.5 28.5 78.5s43.167 34.5 72.5 34.5c42.667 0 80.667 -25.333 114 -76c32.667 -49.333 56.667 -83.5 72 -102.5s38 -38.833 68 -59.5
c75.333 -49.333 162.666 -74 261.999 -74c52.667 0 103.334 11.5 152.001 34.5s88 55.167 118 96.5c30 42 45 89.333 45 142c0 66 -14 121.833 -42 167.5s-67.667 79.834 -119 102.501s-111 34 -179 34h-186c-28.667 0 -51.5 8.5 -68.5 25.5s-25.5 36.833 -25.5 59.5
c0 22 8 41 24 57c16 16.667 38 25 66 25h188c80.667 0 146.167 25 196.5 75s75.5 113.667 75.5 191c0 42 -12.833 81.667 -38.5 119s-58.334 66.666 -98.001 87.999s-79.167 32 -118.5 32c-76.667 0 -138 -12.833 -184 -38.5s-83.333 -59.167 -112 -100.5l-71 -104
c-19.333 -27.333 -40.666 -41 -63.999 -41c-50 0 -75 28 -75 84c0 90 4.66699 151.333 14 184c6 22 24.333 42 55 60c65.333 33.333 140.666 59.333 225.999 78s167.666 28 246.999 28c119.333 0 222.666 -13.5 309.999 -40.5s155.5 -69.167 204.5 -126.5
s73.5 -129.333 73.5 -216c0 -49.333 -16.833 -97.333 -50.5 -144s-79.834 -85.834 -138.501 -117.501s-122.667 -50.834 -192 -57.501z" />
    <glyph glyph-name="guillemotright" unicode="&#xc8;" horiz-adv-x="1680" 
d="M535 260c0 -35.333 2.33301 -60.833 7 -76.5s14.667 -27.5 30 -35.5l22 -13c17.333 -10 29.833 -19.167 37.5 -27.5s11.5 -20.833 11.5 -37.5c0 -46.667 -33.333 -70 -100 -70h-389c-67.333 -0 -101 23.333 -101 70c0 16 3.83301 28.167 11.5 36.5s20.5 17.833 38.5 28.5
l22 13c16 8 26.167 19.833 30.5 35.5s6.5 41.167 6.5 76.5v979c0 36 -2.33301 61.833 -7 77.5s-14.667 27.5 -30 35.5l-22 12c-19.333 12.667 -32.333 22.667 -39 30c-7.33301 8 -11 20 -11 36c0 46 33.667 69 101 69h389c66.667 0 100 -23 100 -69
c0 -16.667 -3.66699 -29 -11 -37s-20 -17.667 -38 -29l-22 -12c-15.333 -7.33301 -25.333 -19 -30 -35s-7 -42 -7 -78v-676l610 615v61c0 36 -2.33301 61.833 -7 77.5s-14.667 27.5 -30 35.5l-22 12c-19.333 12.667 -32.333 22.667 -39 30s-10 19.333 -10 36
c0 46 33.333 69 100 69h389c66.667 0 100 -23 100 -69c0 -16.667 -3.66699 -29 -11 -37s-20 -17.667 -38 -29l-22 -12c-15.333 -7.33301 -25.333 -19 -30 -35s-7 -42 -7 -78v-979c0 -35.333 2.33301 -60.833 7 -76.5s14.667 -27.5 30 -35.5l22 -13
c17.333 -10 29.833 -19.167 37.5 -27.5s11.5 -20.833 11.5 -37.5c0 -46.667 -33.333 -70 -100 -70h-389c-66.667 -0 -100 23.333 -100 70c0 16.667 3.66699 29 11 37s20 17.333 38 28l22 13c16 8 26.167 19.833 30.5 35.5s6.5 41.167 6.5 76.5v703l-610 -615v-88z" />
    <glyph glyph-name="ellipsis" unicode="&#xc9;" horiz-adv-x="1680" 
d="M1219 1831c0 -26.667 -8.33301 -56.001 -25 -88.001c-16 -31.333 -34.333 -58.666 -55 -81.999c-74 -82 -171.667 -123 -293 -123c-94.667 0 -178.667 30 -252 90c-33.333 27.333 -61.333 59.666 -84 96.999s-34 74 -34 110c0 38.667 14 58 42 58
c16 0 39.5 -20.167 70.5 -60.5s65.5 -73.166 103.5 -98.499c37.333 -26.667 91.333 -40 162 -40c48.667 0 96 11.667 142 35c46 22 82.667 52.667 110 92l22 29.5c6.66699 9 14 16.5 22 22.5s18 9 30 9c26 0 39 -17 39 -51zM535 259.999c0 -35.333 2.33301 -60.833 7 -76.5
s14.667 -27.5 30 -35.5l22 -13c17.333 -10 29.833 -19.167 37.5 -27.5s11.5 -20.833 11.5 -37.5c0 -46.667 -33.333 -70 -100 -70h-389c-67.333 0 -101 23.333 -101 70c0 16 3.83301 28.167 11.5 36.5s20.5 17.833 38.5 28.5l22 13c16 8 26.167 19.833 30.5 35.5
s6.5 41.167 6.5 76.5v979c0 36 -2.33301 61.833 -7 77.5s-14.667 27.5 -30 35.5l-22 12c-19.333 12.667 -32.333 22.667 -39 30c-7.33301 8 -11 20 -11 36c0 46 33.667 69 101 69h389c66.667 0 100 -23 100 -69c0 -16.667 -3.66699 -29 -11 -37s-20 -17.667 -38 -29l-22 -12
c-15.333 -7.33301 -25.333 -19 -30 -35s-7 -42 -7 -78v-676l610 615v61c0 36 -2.33301 61.833 -7 77.5s-14.667 27.5 -30 35.5l-22 12c-19.333 12.667 -32.333 22.667 -39 30s-10 19.333 -10 36c0 46 33.333 69 100 69h389c66.667 0 100 -23 100 -69
c0 -16.667 -3.66699 -29 -11 -37s-20 -17.667 -38 -29l-22 -12c-15.333 -7.33301 -25.333 -19 -30 -35s-7 -42 -7 -78v-979c0 -35.333 2.33301 -60.833 7 -76.5s14.667 -27.5 30 -35.5l22 -13c17.333 -10 29.833 -19.167 37.5 -27.5s11.5 -20.833 11.5 -37.5
c0 -46.667 -33.333 -70 -100 -70h-389c-66.667 0 -100 23.333 -100 70c0 16.667 3.66699 29 11 37s20 17.333 38 28l22 13c16 8 26.167 19.833 30.5 35.5s6.5 41.167 6.5 76.5v703l-610 -615v-88z" />
    <glyph glyph-name="nonbreakingspace" unicode="&#xca;" horiz-adv-x="1598" 
d="M537 260c0 -35.333 2.33105 -60.834 6.99805 -76.501s14.667 -27.5 30 -35.5l22 -13c17.333 -10 29.833 -19.167 37.5 -27.5s11.5 -20.833 11.5 -37.5c0 -46.667 -33.333 -70 -100 -70h-389c-66.667 0 -100 23.333 -100 70c0 16.667 3.66699 29 11 37s20 17.333 38 28
l22 13c16 8 26.167 19.833 30.5 35.5s6.5 41.167 6.5 76.5v979c0 36 -2.33301 61.833 -7 77.5s-14.667 27.5 -30 35.5l-22 12c-19.333 12.667 -32.333 22.667 -39 30s-10 19.333 -10 36c0 46 33.333 69 100 69h389c66.667 0 100 -23 100 -69c0 -16.667 -3.66699 -29 -11 -37
s-20 -17.667 -38 -29l-22 -12c-15.333 -7.33301 -25.333 -19 -30 -35s-7 -42 -7 -78v-469l336 269c156.667 149.333 235 242.666 235 279.999c0 13.333 -3.33301 23.333 -10 30s-17.667 14.5 -33 23.5s-26.666 17.833 -33.999 26.5s-11 21 -11 37c0 42 31.333 63 94 63h252
c30 0 57.333 -4 82 -12c31.333 -12 47 -34.333 47 -67c0 -28 -22.333 -52.667 -67 -74c-40 -20 -70.5 -40.333 -91.5 -61s-53.5 -57.667 -97.5 -111l-266 -275c58.667 -60.667 115.667 -127 171 -199c55.333 -71.333 107.333 -144.666 156 -219.999
s96.667 -155.333 144 -240c16 -28.667 30 -50.334 42 -65.001s29.333 -28 52 -40s38 -22.167 46 -30.5s12 -23.166 12 -44.499c0 -40 -33 -60 -99 -60h-391c-84.667 0 -127 22.667 -127 68c0 17.333 3.33301 29.333 10 36c6.66699 7.33301 18.667 17.666 36 30.999
c17.333 14 26 25.667 26 35c0 30.667 -22.167 81.834 -66.5 153.501s-95.166 144.5 -152.499 218.5c-58 74.667 -103 128.334 -135 161.001l-160 -123v-320z" />
    <glyph glyph-name="Agrave" unicode="&#xcb;" horiz-adv-x="1516" 
d="M475 1284c0 14.667 -3.50098 25.8311 -10.501 33.498s-18.5 17 -34.5 28s-28.167 22.5 -36.5 34.5s-12.5 28.667 -12.5 50c0 46 38.333 69 115 69h866c67.333 0 101 -23 101 -69c0 -16.667 -3.83301 -29 -11.5 -37s-20.5 -17.667 -38.5 -29l-22 -13
c-16 -7.33301 -26.167 -18.833 -30.5 -34.5s-6.5 -41.5 -6.5 -77.5v-979c0 -35.333 2.16699 -60.833 6.5 -76.5s14.5 -27.5 30.5 -35.5l22 -13c17.333 -10 30 -19.167 38 -27.5s12 -20.833 12 -37.5c0 -46.667 -33.667 -70 -101 -70h-389c-66.667 0 -100 23.333 -100 70
c0 16.667 3.66699 29 11 37s20 17.333 38 28l22 13c16 8 26.167 19.833 30.5 35.5s6.5 41.167 6.5 76.5v965c0 48.667 -9.16699 81.834 -27.5 99.501s-57.5 26.5 -117.5 26.5h-41c-43.333 0 -82.666 -23.167 -117.999 -69.5s-70.333 -106.166 -105 -179.499
c-46.667 -97.333 -91 -201.833 -133 -313.5s-76 -216.834 -102 -315.501c-26.667 -98 -40 -174.333 -40 -229c0 -25.333 6.33301 -45 19 -59c12.667 -13.333 31 -26.333 55 -39s42 -24.167 54 -34.5s18 -26.166 18 -47.499c0 -42.667 -39 -64 -117 -64h-234
c-75.333 0 -113 22.667 -113 68c0 24.667 14 48.667 42 72c24.667 20 41 37.167 49 51.5s17 39.166 27 74.499c18 67.333 38.833 136.833 62.5 208.5s49.5 145.334 77.5 221.001s55 144.667 81 207l90 207.5c44.667 97.333 67 155.333 67 174z" />
    <glyph glyph-name="Atilde" unicode="&#xcc;" horiz-adv-x="1884" 
d="M1266 1393c12.667 31.333 23.3291 54.001 31.9961 68.001s20.334 24 35.001 30c15.333 5.33301 38 8 68 8h381c20 0 36.667 -6.33301 50 -19s20 -30.667 20 -54s-6.66699 -39.666 -20 -48.999c-12.667 -9.33301 -32.667 -18.333 -60 -27
c-25.333 -7.33301 -41.666 -18.333 -48.999 -33s-11 -37 -11 -67v-990c0 -35.333 2.33301 -60.833 7 -76.5s14.667 -27.5 30 -35.5l23 -13c16.667 -10 29 -19.167 37 -27.5s12 -20.833 12 -37.5c0 -46.667 -33.333 -70 -100 -70h-390c-66.667 0 -100 23.333 -100 70
c0 16.667 3.66699 29 11 37s20 17.333 38 28l23 13c16 8 26 19.833 30 35.5s6 41.167 6 76.5v889l-331 -823c-17.333 -40.667 -29.666 -67.834 -36.999 -81.501s-19.666 -24.834 -36.999 -33.501c-16.667 -9.33301 -42 -14 -76 -14c-33.333 0 -58.333 1.66699 -75 5
c-16 3.33301 -30 11 -42 23s-24 31.333 -36 58l-361 844v-871c2.66699 -27.333 7 -49.666 13 -66.999c6 -16 13.667 -26.833 23 -32.5s27.333 -14.167 54 -25.5c18.667 -7.33301 32 -15.666 40 -24.999s12 -23.333 12 -42c0 -26.667 -12 -44 -36 -52s-58.667 -12 -104 -12
h-178c-44.667 0 -79 4 -103 12s-36 25.333 -36 52c0 18.667 4 32.667 12 42s21 17.666 39 24.999c25.333 10 43 18.333 53 25c10.667 6 19 17 25 33c6 17.333 10 39.666 12 66.999v983c0 18 -2 32.333 -6 43c-8.66699 38 -35.334 63.333 -80.001 76
c-26.667 8.66699 -46.334 17.334 -59.001 26.001s-19 24 -19 46c0 29.333 10.333 48.166 31 56.499s49.334 12.5 86.001 12.5h399c24 0 43.333 -3.33301 58 -10c15.333 -7.33301 27.333 -17 36 -29s16.834 -28 24.501 -48l21.5 -58l286 -735z" />
    <glyph glyph-name="Otilde" unicode="&#xcd;" horiz-adv-x="1680" 
d="M535 260c0 -35.333 2.33301 -60.833 7 -76.5s14.667 -27.5 30 -35.5l22 -13c17.333 -10 29.833 -19.167 37.5 -27.5s11.5 -20.833 11.5 -37.5c0 -46.667 -33.333 -70 -100 -70h-389c-67.333 -0 -101 23.333 -101 70c0 16 3.83301 28.167 11.5 36.5s20.5 17.833 38.5 28.5
l22 13c16 8 26.167 19.833 30.5 35.5s6.5 41.167 6.5 76.5v979c0 36 -2.33301 61.833 -7 77.5s-14.667 27.5 -30 35.5l-22 12c-19.333 12.667 -32.333 22.667 -39 30c-7.33301 8 -11 20 -11 36c0 46 33.667 69 101 69h389c66.667 0 100 -23 100 -69
c0 -16.667 -3.66699 -29 -11 -37s-20 -17.667 -38 -29l-22 -12c-15.333 -7.33301 -25.333 -19 -30 -35s-7 -42 -7 -78v-348h610v348c0 36 -2.33301 61.833 -7 77.5s-14.667 27.5 -30 35.5l-22 12c-19.333 12.667 -32.333 22.667 -39 30s-10 19.333 -10 36
c0 46 33.333 69 100 69h389c66.667 0 100 -23 100 -69c0 -16.667 -3.66699 -29 -11 -37s-20 -17.667 -38 -29l-22 -12c-15.333 -7.33301 -25.333 -19 -30 -35s-7 -42 -7 -78v-979c0 -35.333 2.33301 -60.833 7 -76.5s14.667 -27.5 30 -35.5l22 -13
c17.333 -10 29.833 -19.167 37.5 -27.5s11.5 -20.833 11.5 -37.5c0 -46.667 -33.333 -70 -100 -70h-389c-66.667 -0 -100 23.333 -100 70c0 16.667 3.66699 29 11 37s20 17.333 38 28l22 13c16 8 26.167 19.833 30.5 35.5s6.5 41.167 6.5 76.5v477h-610v-477z" />
    <glyph glyph-name="OE" unicode="&#xce;" horiz-adv-x="1762" 
d="M297 191c-154.667 148 -232 335.666 -232 562.999c0 148 36.333 281.333 109 400c71.333 118 168.833 210.167 292.5 276.5s259.167 99.5 406.5 99.5c112 0 217.833 -18.5 317.5 -55.5s187 -90 262 -159s133.667 -151.5 176 -247.5s63.5 -200.667 63.5 -314
c0 -112 -21.333 -216.333 -64 -313c-44 -96.667 -104 -180 -180 -250s-164.333 -124.667 -265 -164c-100.667 -38.667 -206 -58 -316 -58c-103.333 0 -205.5 19.333 -306.5 58s-188.833 93.334 -263.5 164.001zM1293 745.999c0 98 -12.999 195 -38.999 291
s-70.333 176 -133 240c-62 64 -143.333 96 -244 96c-73.333 0.666992 -137.833 -19.333 -193.5 -60s-101.834 -96 -138.501 -166c-53.333 -104.667 -80 -233.667 -80 -387c0 -70.667 6.83301 -142.167 20.5 -214.5s36.167 -140.5 67.5 -204.5s73.833 -116 127.5 -156
s118.5 -60 194.5 -60c101.333 0 183.333 31.5 246 94.5s107 141.5 133 235.5s39 191 39 291z" />
    <glyph glyph-name="oe" unicode="&#xcf;" horiz-adv-x="1680" 
d="M744 1353c-97.333 0 -157.667 -9.33203 -181 -27.999c-18.667 -18.667 -28 -61 -28 -127v-938c0 -32 2.66699 -56.667 8 -74c4 -16.667 13.667 -29.334 29 -38.001l22 -13c17.333 -10 29.833 -19.167 37.5 -27.5s11.5 -20.833 11.5 -37.5c0 -46.667 -33.333 -70 -100 -70
h-389c-67.333 -0 -101 23.333 -101 70c0 16 3.83301 28.167 11.5 36.5s20.5 17.833 38.5 28.5l22 13c16 8 26.167 19.833 30.5 35.5s6.5 41.167 6.5 76.5v979c0 36 -2.33301 61.833 -7 77.5s-14.667 27.5 -30 35.5l-22 12c-19.333 12.667 -32.333 22.667 -39 30
c-7.33301 8 -11 20 -11 36c0 46 33.667 69 101 69h1372c66.667 0 100 -23 100 -69c0 -27.333 -16.333 -49.333 -49 -66l-22 -12c-15.333 -7.33301 -25.333 -19 -30 -35s-7 -42 -7 -78v-979c0 -35.333 2.33301 -60.833 7 -76.5s14.667 -27.5 30 -35.5l22 -13
c17.333 -10 29.833 -19.167 37.5 -27.5s11.5 -20.833 11.5 -37.5c0 -46.667 -33.333 -70 -100 -70h-389c-66.667 -0 -100 23.333 -100 70c0 16.667 3.66699 29 11 37s20 17.333 38 28l22 13c24.667 14 37 51.333 37 112v938c0 66 -9.66699 108.333 -29 127
c-22.667 18.667 -82.667 28 -180 28h-192z" />
    <glyph glyph-name="emdash" unicode="&#xd0;" 
d="M533 256c2.66699 -27.333 6.99805 -49.6699 12.998 -67.0029c6 -16 13.667 -26.833 23 -32.5s27.333 -14.167 54 -25.5c18 -7.33301 31 -15.666 39 -24.999s12 -23.333 12 -42c0 -26.667 -9.66699 -44 -29 -52s-49.333 -12 -90 -12h-403c-67.333 0 -101 23.333 -101 70
c0 16.667 3.83301 29 11.5 37s20.5 17.333 38.5 28l22 13c16 8 26.167 19.833 30.5 35.5s6.5 41.167 6.5 76.5v979c0 36 -2 62 -6 78c-5.33301 15.333 -15.666 27 -30.999 35l-22 12c-18.667 12 -31.667 21.833 -39 29.5s-11 19.834 -11 36.501c0 46 33.667 69 101 69h633
c77.333 0 148 -5 212 -15s123 -28.667 177 -56c66.667 -34.667 118.834 -80.834 156.501 -138.501s56.5 -123.5 56.5 -197.5c0 -62 -13.5 -119.167 -40.5 -171.5s-63 -98.166 -108 -137.499s-96.5 -73 -154.5 -101c-76 -37.333 -160 -64.666 -252 -81.999
c-91.333 -18 -191 -29.667 -299 -35v-309zM532.998 722.996c124 17.333 230.667 53.833 320 109.5s134 138.167 134 247.5c0 56.667 -12.5 106 -37.5 148s-59.833 73.833 -104.5 95.5s-95.667 32.5 -153 32.5c-62 0 -105 -11.667 -129 -35c-20 -20.667 -30 -61 -30 -121
v-477z" />
    <glyph glyph-name="endash" unicode="&#xd1;" horiz-adv-x="1557" 
d="M1159 1302c-66.667 52 -141.001 77.998 -223.001 77.998c-71.333 0 -137.666 -17 -198.999 -51s-113 -81.667 -155 -143c-78 -112.667 -117 -253.334 -117 -422.001c0 -68 9.16699 -140.167 27.5 -216.5s44.166 -142.833 77.499 -199.5c26 -44 58.667 -80.667 98 -110
s82.5 -51.333 129.5 -66s96.5 -22 148.5 -22c63.333 0 126.333 14.167 189 42.5s118 67.166 166 116.499l38 39.5c13.333 13.667 27.333 25 42 34s29.667 13.5 45 13.5c20 0 36.833 -7.16699 50.5 -21.5s20.5 -31.166 20.5 -50.499c0 -44 -22.5 -88.667 -67.5 -134
s-93.5 -83.333 -145.5 -114c-118.667 -71.333 -255.667 -107 -411 -107c-107.333 0 -209.666 17.833 -306.999 53.5s-184 87.5 -260 155.5c-75.333 67.333 -134.333 147.333 -177 240c-42.667 93.333 -64 195 -64 305c0 112 22.833 217.5 68.5 316.5s108 185.167 187 258.5
s169.667 130.333 272 171s208.833 61 319.5 61c84 0 168.167 -11.667 252.5 -35s158.5 -56.666 222.5 -99.999c37.333 -21.333 59.666 -44 66.999 -68c12.667 -38 19 -113 19 -225c0 -24.667 -8 -44 -24 -58c-15.333 -14.667 -36 -22 -62 -22c-24 0 -42 8 -54 24
s-27.667 43 -47 81c-19.333 42.667 -37.666 76.834 -54.999 102.501s-41.333 49.834 -72 72.501z" />
    <glyph glyph-name="quotedblleft" unicode="&#xd2;" 
d="M504 1237c0 44.667 -4.33301 74.166 -13 88.499s-31.667 21.5 -69 21.5c-68 0 -117.667 -10.333 -149 -31c-31.333 -20 -63.666 -48 -96.999 -84c-32.667 -36 -61.334 -54 -86.001 -54c-24 0 -43 7 -57 21c-13.333 14 -20 33 -20 57c0 9.33301 3.33301 31 10 65
c15.333 96 32.333 151.333 51 166c12 8 42.667 12 92 12h1049c48.667 0 79.334 -4 92.001 -12c17.333 -13.333 34.333 -68.666 51 -165.999c6.66699 -34 10 -55.667 10 -65c0 -24 -6.83301 -43 -20.5 -57s-32.834 -21 -57.501 -21c-24 0 -52.5 18 -85.5 54
s-65.167 64 -96.5 84c-31.333 20.667 -81 31 -149 31c-37.333 0 -60.333 -7.16699 -69 -21.5s-13 -43.833 -13 -88.5v-977c0 -35.333 2.33301 -60.833 7 -76.5s14.667 -27.5 30 -35.5l22 -13c17.333 -10 29.833 -19.167 37.5 -27.5s11.5 -20.833 11.5 -37.5
c0 -46.667 -33.333 -70 -100 -70h-389c-66.667 -0 -100 23.333 -100 70c0 16.667 3.66699 29 11 37s20 17.333 38 28l22 13c16 8 26.167 19.833 30.5 35.5s6.5 41.167 6.5 76.5v977z" />
    <glyph glyph-name="quotedblright" unicode="&#xd3;" horiz-adv-x="1516" 
d="M492 1499c39.333 0 69.667 -3.99414 91 -11.9941s32 -26.333 32 -55c0 -22.667 -4 -39 -12 -49c-8 -9.33301 -20 -18 -36 -26s-27.833 -16.5 -35.5 -25.5s-11.5 -24.167 -11.5 -45.5c0 -27.333 14.667 -75.666 44 -144.999c29.333 -68.667 67 -143.667 113 -225
c46 -80.667 90.667 -147.667 134 -201s79 -80 107 -80c26.667 0 48 3.16699 64 9.5s30 20.166 42 41.499c28 47.333 58 111.666 90 192.999s58.333 157.666 79 228.999c21.333 71.333 32 120.666 32 147.999c0 32.667 -4.33301 56.667 -13 72c-8 15.333 -25 30 -51 44
c-28.667 18.667 -43 42 -43 70c0 24 9.16699 39.5 27.5 46.5s48.166 10.5 89.499 10.5h172h43c57.333 0 86 -17.667 86 -53c0 -18.667 -11 -40.334 -33 -65.001c-16.667 -24 -26 -39 -28 -45c-4.66699 -12.667 -17.667 -45 -39 -97
c-20.667 -52.667 -32.334 -82.667 -35.001 -90c-50 -134.667 -100 -261.834 -150 -381.501s-111.667 -242.5 -185 -368.5c-72.667 -126 -155 -231 -247 -315c-91.333 -84.667 -188 -127 -290 -127c-42.667 0 -83.667 12 -123 36c-40 24.667 -60 57 -60 97
c0 32.667 12.333 60.667 37 84s52.667 35 84 35c14.667 0 27.834 -2.33301 39.501 -7s25.5 -11.834 41.5 -21.501s29 -16.5 39 -20.5s22.667 -6 38 -6c20 0 45.833 10.833 77.5 32.5s55.5 42.167 71.5 61.5c18.667 20 45.5 58 80.5 114s58.833 96.667 71.5 122
c-38 -15.333 -79 -23 -123 -23c-102.667 0 -199 43 -289 129c-46.667 45.333 -90 100.833 -130 166.5s-72.333 125.167 -97 178.5l-89.5 200c-34.333 79.333 -57.166 127 -68.499 143c-12 17.333 -30.667 35.666 -56 54.999c-24.667 20 -42 35.333 -52 46s-15 25.667 -15 45
c0 24.667 9.33301 43.334 28 56.001s39.667 19 63 19h395z" />
    <glyph glyph-name="quoteleft" unicode="&#xd4;" horiz-adv-x="1925" 
d="M768 0c-66.667 0 -100.001 23.3311 -100.001 69.998c0 16.667 3.66699 29 11 37s20 17.333 38 28l23 13c15.333 8 25.166 19.833 29.499 35.5s6.5 41.167 6.5 76.5v29l-163 18c-110 12.667 -210.167 44 -300.5 94s-161.166 112 -212.499 186
c-52.667 73.333 -79 148.666 -79 225.999c0 90.667 28.333 167.167 85 229.5s127.667 108.833 213 139.5c86 30.667 173 47.667 261 51l196 6c0 36 -2.16699 61.833 -6.5 77.5s-14.166 27.5 -29.499 35.5l-23 12c-32.667 16.667 -49 38.667 -49 66c0 46 33.333 69 100 69
h389c67.333 0 101 -23 101 -69c0 -27.333 -16.333 -49.333 -49 -66l-23 -12c-15.333 -7.33301 -25.333 -19 -30 -35s-7 -42 -7 -78l197 -6c88 -3.33301 174.667 -20.333 260 -51c86 -30.667 157.333 -77.167 214 -139.5s85 -138.833 85 -229.5
c0 -58 -14.833 -115.667 -44.5 -173s-71.834 -110.166 -126.501 -158.499s-117.667 -87.666 -189 -117.999s-148.666 -49.166 -231.999 -56.499l-164 -18v-29c0 -35.333 2.33301 -60.833 7 -76.5s14.667 -27.5 30 -35.5l23 -13c32.667 -16 49 -37.667 49 -65
c0 -24.667 -10.333 -42.5 -31 -53.5s-44 -16.5 -70 -16.5h-389zM775.999 964.998c0 43.333 -1.33203 73.332 -3.99902 89.999c-3.33301 17.333 -11.833 29.333 -25.5 36s-37.167 10 -70.5 10c-52 0.666992 -98.667 -13.666 -140 -42.999
c-42 -28.667 -74.5 -66.667 -97.5 -114s-34.5 -97 -34.5 -149c0 -68 17.667 -128.667 53 -182c35.333 -52.667 81.666 -94 138.999 -124c57.333 -29.333 117.333 -45.333 180 -48v524zM1149 440.997c63.333 2.66699 123.668 18.666 181.001 47.999
c57.333 30 103.666 71.5 138.999 124.5s53 113.5 53 181.5c0 52 -11.333 101.667 -34 149c-24 47.333 -56.833 85.333 -98.5 114s-88.167 43 -139.5 43c-33.333 0.666992 -57 -2.66602 -71 -9.99902c-14 -6.66699 -22.333 -18.667 -25 -36
c-3.33301 -16.667 -5 -46.667 -5 -90v-524z" />
    <glyph glyph-name="quoteright" unicode="&#xd5;" horiz-adv-x="1516" 
d="M107 0c-72.667 0 -109 22.6641 -109 67.9971c0 19.333 5.66699 33.833 17 43.5s28.333 19.834 51 30.501c30 14.667 52.333 30.334 67 47.001s36 45.334 64 86.001l338 465c-38.667 42 -75 84.667 -109 128s-66 86.333 -96 129c-29.333 42 -57.833 85 -85.5 129
l-92.5 152c-12 21.333 -23 37.5 -33 48.5s-24.333 21.5 -43 31.5c-22.667 11.333 -39.667 22 -51 32c-11.333 10.667 -17 25.334 -17 44.001c0 36 22 57.667 66 65h440c32.667 -2.66699 57.667 -7.83398 75 -15.501s26 -24.167 26 -49.5c0 -16 -3.16699 -27 -9.5 -33
s-17.333 -15.667 -33 -29s-23.5 -24.666 -23.5 -33.999c0 -36 93 -169.333 279 -400c166 204 249 330.333 249 379c0 14 -4.16699 24.833 -12.5 32.5s-20.666 16.167 -36.999 25.5s-28.833 18.833 -37.5 28.5s-13 22.5 -13 38.5c0 38 30 57 90 57h234
c38.667 0 70.334 -3.66699 95.001 -11c25.333 -8 38 -26.667 38 -56c0 -19.333 -5 -33.833 -15 -43.5s-27 -21.167 -51 -34.5c-17.333 -10 -29.333 -17.5 -36 -22.5s-16.334 -15.833 -29.001 -32.5l-84 -119l-285 -365l377 -487l59 -92
c20.667 -32.667 36.334 -54.167 47.001 -64.5s30 -22.5 58 -36.5c36.667 -16.667 55 -39.667 55 -69c0 -28 -10.833 -46 -32.5 -54s-49.834 -12 -84.501 -12h-458c-40 15.333 -60 38.666 -60 69.999c0 16.667 4.33301 28.667 13 36c8 8 20 17 36 27
c16.667 9.33301 25 17.666 25 24.999c0 24 -46.333 98.333 -139 223c-92 125.333 -155 204 -189 236c-23.333 -28 -56 -72.167 -98 -132.5s-78.833 -118.5 -110.5 -174.5s-47.5 -96.333 -47.5 -121c0 -15.333 3.5 -27.166 10.5 -35.499s18.5 -18.5 34.5 -30.5
c15.333 -11.333 26.666 -21.333 33.999 -30c7.33301 -8 11 -19 11 -33c0 -32.667 -19.667 -52.667 -59 -60h-309z" />
    <glyph glyph-name="divide" unicode="&#xd6;" horiz-adv-x="1680" 
d="M154 -1c-67.333 0 -101 23.666 -101 70.999c0 27.333 16.667 49 50 65l22 13c16 8 26.167 19.833 30.5 35.5s6.5 41.167 6.5 76.5v979c0 36 -2.33301 61.833 -7 77.5s-14.667 27.5 -30 35.5l-22 12c-19.333 12.667 -32.333 22.667 -39 30c-7.33301 8 -11 20 -11 36
c0 46 33.667 69 101 69h389c66.667 0 100 -23 100 -69c0 -16.667 -3.66699 -29 -11 -37s-20 -17.667 -38 -29l-22 -12c-15.333 -8 -25 -20.667 -29 -38c-5.33301 -17.333 -8 -42.333 -8 -75v-917c0 -66 9.33301 -108.333 28 -127c20 -16.667 109.667 -25 269 -25
c170 0 264.667 8.33301 284 25c19.333 18.667 29 61 29 127v917c0 61.333 -12.333 99 -37 113l-22 12c-19.333 12.667 -32.333 22.667 -39 30s-10 19.333 -10 36c0 46 33.333 69 100 69h389c66.667 0 100 -23 100 -69c0 -16.667 -3.66699 -29 -11 -37s-20 -17.667 -38 -29
l-22 -12c-15.333 -7.33301 -25.333 -19 -30 -35s-7 -42 -7 -78v-979c0 -44.667 6.33301 -74.167 19 -88.5s31.667 -24.833 57 -31.5c14 -4.66699 25 -17 33 -37c9.33301 -24 17 -56.667 23 -98s9 -73.666 9 -96.999c0 -24 -6.83301 -43 -20.5 -57s-32.834 -21 -57.501 -21
c-24 0 -52.333 17.667 -85 53c-33.333 36 -65.666 64.333 -96.999 85s-81 31 -149 31h-1096z" />
    <glyph glyph-name="lozenge" unicode="&#xd7;" horiz-adv-x="1639" 
d="M146 1239c0 64.667 -9.66992 102.332 -29.0029 112.999l-23 12c-17.333 9.33301 -29.833 18.333 -37.5 27s-11.5 21.667 -11.5 39c0 46 33.667 69 101 69h389c66.667 0 100 -23 100 -69c0 -16.667 -3.5 -28.834 -10.5 -36.501s-19.833 -17.5 -38.5 -29.5l-23 -12
c-20 -11.333 -34.333 -36.666 -43 -75.999c-14.667 -84 -22 -156.333 -22 -217c0 -144 33.333 -238.333 100 -283c36.667 -24 80.334 -36 131.001 -36c112.667 0 236.334 50.333 371.001 151v348c0 36 -2.33301 61.667 -7 77s-14.667 27.333 -30 36l-22 12
c-19.333 12.667 -32.333 22.667 -39 30c-7.33301 8 -11 20 -11 36c0 46 33.667 69 101 69h389c66.667 0 100 -23 100 -69c0 -16.667 -3.66699 -29 -11 -37s-20 -17.667 -38 -29l-22 -12c-15.333 -7.33301 -25.333 -19 -30 -35s-7 -42 -7 -78v-979
c0 -35.333 2.33301 -60.833 7 -76.5s14.667 -27.5 30 -35.5l22 -13c17.333 -10 29.833 -19.167 37.5 -27.5s11.5 -20.833 11.5 -37.5c0 -46.667 -33.333 -70 -100 -70h-389c-67.333 0 -101 23.333 -101 70c0 16 3.83301 28.167 11.5 36.5s20.5 17.833 38.5 28.5l22 13
c16 8 26.167 19.833 30.5 35.5s6.5 41.167 6.5 76.5v459c-78 -57.333 -163 -102.666 -255 -135.999c-91.333 -33.333 -179.666 -50 -264.999 -50c-116.667 0 -215 31.333 -295 94c-104 83.333 -156 222 -156 416c0 31.333 1.33301 60 4 86c2 26.667 4.5 51 7.5 73
s4.83301 34.333 5.5 37z" />
    <glyph glyph-name="ydieresis" unicode="&#xd8;" horiz-adv-x="2212" 
d="M1446 166c114.667 0 183.664 9.66602 206.997 28.999c18.667 18.667 28 61 28 127v917c0 32.667 -2.33301 57.667 -7 75c-4 16.667 -13.667 29.334 -29 38.001l-23 12c-18.667 12.667 -31.5 22.667 -38.5 30s-10.5 19.333 -10.5 36c0 46 33.333 69 100 69h390
c66.667 0 100 -23 100 -69c0 -16.667 -3.66699 -29 -11 -37s-20 -17.667 -38 -29l-23 -12c-15.333 -7.33301 -25.333 -19 -30 -35s-7 -42 -7 -78v-979c0 -35.333 2.33301 -60.833 7 -76.5s14.667 -27.5 30 -35.5l23 -13c16.667 -10 29 -19.167 37 -27.5s12 -20.833 12 -37.5
c0 -47.333 -33.333 -71 -100 -71h-1913c-67.333 0 -101 23.667 -101 71c0 16.667 3.83301 29 11.5 37s20.5 17.333 38.5 28l22 13c16 8 26.167 19.833 30.5 35.5s6.5 41.167 6.5 76.5v979c0 36 -2 62 -6 78c-5.33301 15.333 -15.666 27 -30.999 35l-22 12
c-18.667 12 -31.667 21.833 -39 29.5s-11 19.834 -11 36.501c0 46 33.667 69 101 69h389c66.667 0 100 -23 100 -69c0 -16.667 -3.66699 -29 -11 -37s-20 -17.667 -38 -29l-22 -12c-15.333 -8 -25 -20.667 -29 -38c-5.33301 -17.333 -8 -42.333 -8 -75v-917
c0 -66 9.33301 -108.333 28 -127c23.333 -19.333 85.666 -29 186.999 -29c58.667 0 102.334 7.5 131.001 22.5s43 45.833 43 92.5v958c0 35.333 -2 61 -6 77c-5.33301 15.333 -15.666 27.333 -30.999 36l-23 12c-18.667 12.667 -31.5 22.667 -38.5 30s-10.5 19.333 -10.5 36
c0 46 33.667 69 101 69h389c66.667 0 100 -23 100 -69c0 -16.667 -3.5 -28.834 -10.5 -36.501s-19.833 -17.5 -38.5 -29.5l-23 -12c-15.333 -8 -25.166 -19.833 -29.499 -35.5s-6.5 -41.5 -6.5 -77.5v-958c0 -48 12.5 -79.167 37.5 -93.5s63.5 -21.5 115.5 -21.5z" />
    <glyph glyph-name="Ydieresis" unicode="&#xd9;" horiz-adv-x="2212" 
d="M150 -1c-67.333 0 -101.001 23.665 -101.001 70.998c0 27.333 16.667 49 50 65l22 13c16 8 26.167 19.833 30.5 35.5s6.5 41.167 6.5 76.5v979c0 36 -2 62 -6 78c-5.33301 15.333 -15.666 27 -30.999 35l-22 12c-18.667 12 -31.667 21.833 -39 29.5
s-11 19.834 -11 36.501c0 46 33.667 69 101 69h389c66.667 0 100 -23 100 -69c0 -16.667 -3.66699 -29 -11 -37s-20 -17.667 -38 -29l-22 -12c-15.333 -8 -25 -20.667 -29 -38c-5.33301 -17.333 -8 -42.333 -8 -75v-917c0 -66 9.33301 -108.333 28 -127
c23.333 -19.333 85.666 -29 186.999 -29c58.667 0 102.334 7.5 131.001 22.5s43 45.833 43 92.5v958c0 35.333 -2 61 -6 77c-5.33301 15.333 -15.666 27.333 -30.999 36l-23 12c-18.667 12.667 -31.5 22.667 -38.5 30s-10.5 19.333 -10.5 36c0 46 33.667 69 101 69h389
c66.667 0 100 -23 100 -69c0 -16.667 -3.5 -28.834 -10.5 -36.501s-19.833 -17.5 -38.5 -29.5l-23 -12c-15.333 -8 -25.166 -19.833 -29.499 -35.5s-6.5 -41.5 -6.5 -77.5v-958c0 -48 12.5 -79.167 37.5 -93.5s63.5 -21.5 115.5 -21.5c114.667 0 183.667 9.66699 207 29
c18.667 18.667 28 61 28 127v917c0 32.667 -2.33301 57.667 -7 75c-4 16.667 -13.667 29.334 -29 38.001l-23 12c-18.667 12.667 -31.5 22.667 -38.5 30s-10.5 19.333 -10.5 36c0 46 33.333 69 100 69h390c66.667 0 100 -23 100 -69c0 -16.667 -3.66699 -29 -11 -37
s-20 -17.667 -38 -29l-23 -12c-15.333 -7.33301 -25.333 -19 -30 -35s-7 -42 -7 -78v-979c0 -44.667 6.33301 -74.167 19 -88.5s31.667 -24.833 57 -31.5c14 -4.66699 25 -17 33 -37c10 -24 18 -56.667 24 -98s9 -73.666 9 -96.999c0 -24 -6.83301 -43 -20.5 -57
s-32.834 -21 -57.501 -21c-24 0 -52.667 17.667 -86 53c-32.667 36 -64.834 64.333 -96.501 85s-81.5 31 -149.5 31h-1636z" />
    <glyph glyph-name="fraction" unicode="&#xda;" horiz-adv-x="1721" 
d="M391 1348c-52.667 0 -95.332 -7.83496 -127.999 -23.502s-59 -34.5 -79 -56.5l-57 -62c-18 -18.667 -37 -28 -57 -28c-24.667 0 -43.834 7 -57.501 21s-20.5 33 -20.5 57c0 7.33301 1.66699 18.333 5 33s5 25.334 5 32.001c0 24 5.16699 55 15.5 93
s22.166 62.333 35.499 73c12.667 8 43.667 12 93 12s113 -0.333008 191 -1s122.667 -1 134 -1h404c35.333 0 64 -3.66699 86 -11s33 -24.666 33 -51.999c0 -18.667 -4 -32.334 -12 -41.001c-7.33301 -9.33301 -20.666 -18.333 -39.999 -27
c-20 -7.33301 -35.667 -14.666 -47 -21.999c-11.333 -6.66699 -21.333 -18.334 -30 -35.001c-8.66699 -14 -13 -36.667 -13 -68v-309c231.333 -10.667 415 -49.667 551 -117c58 -28 109.5 -61.5 154.5 -100.5s81 -84.833 108 -137.5s40.5 -109.667 40.5 -171
c0 -74.667 -18.5 -140.667 -55.5 -198s-89.5 -103.333 -157.5 -138c-55.333 -28 -114.666 -47 -177.999 -57s-133.666 -15 -210.999 -15h-633c-66.667 0 -100 23.333 -100 70c0 16.667 4 29 12 37c7.33301 8.66699 19.666 18 36.999 28l23 13
c15.333 8 25.166 19.833 29.499 35.5s6.5 41.167 6.5 76.5v979c0 35.333 -1.83301 60.333 -5.5 75s-11.167 24.334 -22.5 29.001s-31.333 7 -60 7zM852.002 296.998c0 -60 10.333 -100.333 31 -121c23.333 -22.667 66.333 -34 129 -34c87.333 0 158.333 24.333 213 73
c54 49.333 81 117 81 203c0 108.667 -45 191.167 -135 247.5s-196.333 92.5 -319 108.5v-477z" />
    <glyph glyph-name="currency" unicode="&#xdb;" horiz-adv-x="2130" 
d="M525 932c231.333 -10.667 414.997 -49.6641 550.997 -116.997c90.667 -44 163.834 -100.5 219.501 -169.5s83.5 -148.833 83.5 -239.5c0 -74.667 -18.333 -140.667 -55 -198c-38 -57.333 -90.667 -103.333 -158 -138c-55.333 -28 -114.666 -47 -177.999 -57
s-134 -15 -212 -15h-632c-67.333 0 -101 23.333 -101 70c0 16.667 3.83301 29 11.5 37s20.167 17.333 37.5 28l23 13c16 8 26.167 19.833 30.5 35.5s6.5 41.167 6.5 76.5v979c0 36 -2 62 -6 78c-5.33301 15.333 -15.666 27 -30.999 35l-23 12
c-18.667 12.667 -31.5 22.667 -38.5 30s-10.5 19.333 -10.5 36c0 46 33.667 69 101 69h383c44.667 0 79 -3.83301 103 -11.5s36 -24.834 36 -51.501c0 -30.667 -17 -53.334 -51 -68.001c-22.667 -8 -39.667 -15.333 -51 -22s-20.333 -18.334 -27 -35.001
c-5.33301 -18 -9.33301 -40.667 -12 -68v-309zM1569 1239c0 36 -2.33301 61.833 -7 77.5s-14.667 27.5 -30 35.5l-22 12c-19.333 12.667 -32.333 22.667 -39 30c-7.33301 8 -11 20 -11 36c0 46 33.667 69 101 69h389c66.667 0 100 -23 100 -69
c0 -16.667 -3.66699 -29 -11 -37s-20 -17.667 -38 -29l-22 -12c-15.333 -7.33301 -25.333 -19 -30 -35s-7 -42 -7 -78v-979c0 -35.333 2.33301 -60.833 7 -76.5s14.667 -27.5 30 -35.5l22 -13c17.333 -10 29.833 -19.167 37.5 -27.5s11.5 -20.833 11.5 -37.5
c0 -46.667 -33.333 -70 -100 -70h-389c-67.333 0 -101 23.333 -101 70c0 16 3.83301 28.167 11.5 36.5s20.5 17.833 38.5 28.5l22 13c16 8 26.167 19.833 30.5 35.5s6.5 41.167 6.5 76.5v979zM524.997 297.003c0 -60 10 -100.333 30 -121c23.333 -22.667 66.333 -34 129 -34
c87.333 0 158.333 24.333 213 73c54.667 49.333 82 117 82 203c0 108.667 -45 191.167 -135 247.5s-196.333 92.5 -319 108.5v-477z" />
    <glyph glyph-name="guilsinglleft" unicode="&#xdc;" 
d="M525 932c231.333 -10.667 414.997 -49.6641 550.997 -116.997c90.667 -44 163.834 -100.5 219.501 -169.5s83.5 -148.833 83.5 -239.5c0 -74.667 -18.333 -140.667 -55 -198c-38 -57.333 -90.667 -103.333 -158 -138c-55.333 -28 -114.666 -47 -177.999 -57
s-134 -15 -212 -15h-632c-67.333 0 -101 23.333 -101 70c0 16.667 3.83301 29 11.5 37s20.167 17.333 37.5 28l23 13c16 8 26.167 19.833 30.5 35.5s6.5 41.167 6.5 76.5v979c0 36 -2 62 -6 78c-5.33301 15.333 -15.666 27 -30.999 35l-23 12
c-18.667 12.667 -31.5 22.667 -38.5 30s-10.5 19.333 -10.5 36c0 46 33.667 69 101 69h383c44.667 0 79 -3.83301 103 -11.5s36 -24.834 36 -51.501c0 -30.667 -17 -53.334 -51 -68.001c-22.667 -8 -39.667 -15.333 -51 -22s-20.333 -18.334 -27 -35.001
c-5.33301 -18 -9.33301 -40.667 -12 -68v-309zM524.997 297.003c0 -60 10 -100.333 30 -121c23.333 -22.667 66.333 -34 129 -34c87.333 0 158.333 24.333 213 73c54.667 49.333 82 117 82 203c0 108.667 -45 191.167 -135 247.5s-196.333 92.5 -319 108.5v-477z" />
    <glyph glyph-name="guilsinglright" unicode="&#xdd;" horiz-adv-x="1557" 
d="M1084 891c-16 113.333 -52.332 211.666 -108.999 294.999c-42.667 62 -94.334 109.667 -155.001 143c-61.333 34 -127.666 51 -198.999 51c-82 0 -156.333 -26 -223 -78c-30.667 -22.667 -54.167 -46 -70.5 -70s-35.166 -59 -56.499 -105
c-16.667 -34 -31.667 -60 -45 -78s-32 -27 -56 -27c-26 0 -46.833 7.33301 -62.5 22s-23.5 34 -23.5 58c0 112 6.33301 187 19 225c7.33301 24 29.666 46.667 66.999 68c64 43.333 138.333 76.666 223 99.999s168.667 35 252 35c110.667 0 217.334 -20.5 320.001 -61.5
s193.334 -98 272.001 -171s140.667 -158.833 186 -257.5s68 -204.334 68 -317.001c0 -111.333 -21 -213.333 -63 -306s-100.667 -172.667 -176 -240c-75.333 -66.667 -161.833 -118 -259.5 -154s-200.5 -54 -308.5 -54c-155.333 0 -292.333 35.667 -411 107
c-50.667 30 -99 68 -145 114s-69 90.667 -69 134c0 19.333 7.33301 36.333 22 51c13.333 14 30 21 50 21c15.333 0 30.333 -4.66699 45 -14c14.667 -8.66699 29 -20 43 -34c13.333 -13.333 25.666 -26.333 36.999 -39c48 -49.333 103.333 -88.166 166 -116.499
s125.667 -42.5 189 -42.5c52 0 101.333 7.33301 148 22c47.333 14 90.666 35.833 129.999 65.5s72 66.5 98 110.5c32 52.667 57.333 114.667 76 186c19.333 70.667 29 138.334 29 203.001h-600c-28 0 -50.5 7.83301 -67.5 23.5s-25.5 33.834 -25.5 54.501
c0 21.333 8.16699 39.333 24.5 54s39.166 22 68.499 22h592z" />
    <glyph glyph-name="fi" unicode="&#xde;" horiz-adv-x="2376" 
d="M689 735l-158 1.99902v-477c0 -35.333 2.33301 -60.833 7 -76.5s14.667 -27.5 30 -35.5l22 -13c17.333 -10 29.833 -19.167 37.5 -27.5s11.5 -20.833 11.5 -37.5c0 -47.333 -33.333 -71 -100 -71h-389c-67.333 0 -101 23.667 -101 71c0 16.667 3.83301 29 11.5 37
s20.5 17.333 38.5 28l22 13c16 8 26.167 19.833 30.5 35.5s6.5 41.167 6.5 76.5v979c0 36 -2 62 -6 78c-5.33301 15.333 -15.666 27 -30.999 35l-22 12c-18.667 12 -31.667 21.833 -39 29.5s-11 19.834 -11 36.501c0 46 33.667 69 101 69h389c66.667 0 100 -23 100 -69
c0 -16.667 -3.66699 -29 -11 -37s-20 -17.667 -38 -29l-22 -12c-15.333 -7.33301 -25.333 -19 -30 -35s-7 -42 -7 -78v-348h168c21.333 124 69.333 234.667 144 332c75.333 97.333 170 172.833 284 226.5s236.667 80.5 368 80.5c112.667 0 218.667 -18.5 318 -55.5
s186.666 -90 261.999 -159s134 -151.5 176 -247.5s63 -200.667 63 -314c0 -112 -21.5 -216.333 -64.5 -313s-102.667 -180 -179 -250s-164.833 -124.667 -265.5 -164c-100.667 -38.667 -206 -58 -316 -58c-103.333 0 -205.333 19.333 -306 58s-188.334 93 -263.001 163
c-75.333 73.333 -132.666 156.333 -171.999 249c-39.333 93.333 -59 192 -59 296zM1915 745.999c0 98 -13.001 195 -39.001 291s-70 176 -132 240s-143.667 96 -245 96c-72.667 0.666992 -137 -19.333 -193 -60s-102 -96 -138 -166c-53.333 -104.667 -80 -233.667 -80 -387
c0 -70.667 6.66699 -142.167 20 -214.5s35.833 -140.5 67.5 -204.5s74.167 -116 127.5 -156c54 -40 118.667 -60 194 -60c78 0 144.333 19 199 57c55.333 37.333 98.833 86.833 130.5 148.5s54.334 128.167 68.001 199.5s20.5 143.333 20.5 216z" />
    <glyph glyph-name="fl" unicode="&#xdf;" horiz-adv-x="1516" 
d="M985 625l-201.997 32.998c-29.333 -33.333 -64 -81.666 -104 -144.999s-74.667 -126.666 -104 -189.999s-44 -111 -44 -143c0 -12.667 3.33301 -22.334 10 -29.001s17.5 -14.667 32.5 -24s26.167 -18 33.5 -26c8 -8.66699 12 -19.667 12 -33
c0 -29.333 -11.333 -48 -34 -56s-52.334 -12 -89.001 -12h-402c-71.333 0 -107 20 -107 60c0 16.667 3.66699 28.167 11 34.5s20.333 15.166 39 26.499c27.333 15.333 46.666 31 57.999 47s24.666 42 39.999 78c86 221.333 181 388 285 500
c-92 42.667 -167 97.334 -225 164.001s-87 144.334 -87 233.001c0 64 17.333 123 52 177s81 95.333 139 124c72.667 36.667 186 55 340 55l729 -2c67.333 0 101 -23 101 -69c0 -16.667 -3.66699 -29 -11 -37s-20 -17.667 -38 -29l-23 -12
c-15.333 -8 -25.333 -19.833 -30 -35.5s-7 -41.5 -7 -77.5v-977c0 -35.333 2.16699 -60.833 6.5 -76.5s14.5 -27.5 30.5 -35.5l23 -13c16.667 -10 29 -19.167 37 -27.5s12 -20.833 12 -37.5c0 -46.667 -33.667 -70 -101 -70h-391c-66.667 -0 -100 23.333 -100 70
c0 16.667 3.66699 29 11 37s20 17.333 38 28l22 13c16 8 26.167 19.833 30.5 35.5s6.5 41.167 6.5 76.5v365zM987.003 1178c0 69.333 -9.99902 114.333 -29.999 135c-26 26.667 -76.667 40 -152 40c-86.667 0 -157.834 -20.667 -213.501 -62s-83.5 -104.333 -83.5 -189
c0 -108 49.833 -187.5 149.5 -238.5s209.5 -77.833 329.5 -80.5v395z" />
    <glyph glyph-name="daggerdbl" unicode="&#xe0;" horiz-adv-x="1188" 
d="M1057 281c0 -57.333 3.33203 -94.999 9.99902 -112.999c8 -16.667 23 -29.667 45 -39c34.667 -17.333 52 -38.333 52 -63c0 -28.667 -9.66699 -46.667 -29 -54c-20 -8.66699 -47.333 -13 -82 -13h-205c-33.333 0 -57.5 4.16699 -72.5 12.5s-24.5 20.5 -28.5 36.5
s-7 42.333 -9 79c-64.667 -105.333 -170.667 -158 -318 -158c-66 0 -127 12.167 -183 36.5s-101 60.5 -135 108.5s-51 105.667 -51 173c0 68.667 19.333 127 58 175s88 85.333 148 112c60.667 27.333 124.667 46.666 192 57.999c68 11.333 133.333 17 196 17h70
c0 64.667 -16 116.834 -48 156.501s-79.333 59.5 -142 59.5c-28 0 -51.333 -5.33301 -70 -16c-18 -10.667 -39.667 -27 -65 -49c-25.333 -23.333 -47.666 -40.333 -66.999 -51s-43 -16 -71 -16c-33.333 0 -62.833 8.16699 -88.5 24.5s-38.5 41.166 -38.5 74.499
c0 43.333 26 77.666 78 102.999s111 42.833 177 52.5s122.333 14.5 169 14.5c139.333 0 253.333 -25.333 342 -76c61.333 -35.333 104.333 -78.666 129 -129.999s37 -115.333 37 -192v-323zM687.999 520.001c-80 0 -148.666 -20.001 -205.999 -60.001s-86 -98.333 -86 -175
c0 -40.667 11.5 -75.5 34.5 -104.5s54.5 -43.5 94.5 -43.5c61.333 0 113.666 33 156.999 99c20 32.667 32.167 64.334 36.5 95.001s6.5 72 6.5 124v65h-37z" />
    <glyph glyph-name="periodcentered" unicode="&#xe1;" horiz-adv-x="1270" 
d="M197 824c61.333 56.667 133.665 100.502 216.998 131.502s162.666 46.5 237.999 46.5c72.667 0 143 -12.167 211 -36.5s128.833 -59.333 182.5 -105s96 -100 127 -163s46.5 -131.5 46.5 -205.5c0 -102 -27.667 -193 -83 -273c-54.667 -80 -127 -141.5 -217 -184.5
s-185.333 -64.5 -286 -64.5c-161.333 0 -293.666 42.333 -396.999 127c-41.333 34 -75.166 74.667 -101.499 122s-46.5 107.666 -60.5 180.999s-21 162 -21 266c0 350 94.333 584 283 702c40 25.333 82.333 45.333 127 60s99.334 29 164.001 43c65.333 14 114 25.333 146 34
s62.667 21 92 37c32.667 18.667 54 34.667 64 48s19.333 30 28 50s19.334 34 32.001 42c9.33301 5.33301 19 8 29 8c24 0 43 -13 57 -39c12.667 -22.667 19 -55.334 19 -98.001c0 -31.333 -2 -59.333 -6 -84c-7.33301 -46 -25.333 -87.333 -54 -124
s-64.334 -67 -107.001 -91c-43.333 -23.333 -89.333 -39 -138 -47l-295 -66c-49.333 -10 -97 -31.833 -143 -65.5s-83.167 -73.5 -111.5 -119.5s-42.5 -90 -42.5 -132zM866.999 504.002c0 92 -17.5 173.333 -52.5 244s-93.5 106 -175.5 106
c-84 0 -143.833 -36.5 -179.5 -109.5s-53.5 -156.5 -53.5 -250.5c0 -102 16.333 -191.333 49 -268c33.333 -76.667 93.333 -115 180 -115c154.667 0 232 131 232 393z" />
    <glyph glyph-name="quotesinglbase" unicode="&#xe2;" horiz-adv-x="1188" 
d="M58 68c0 12.667 3.16699 22.334 9.5 29.001s16.833 14.5 31.5 23.5s25.5 18 32.5 27s10.5 22.167 10.5 39.5v612c0 18.667 -3.66699 32.667 -11 42s-18.333 18 -33 26s-25 15 -31 21s-9 16 -9 30c0 44.667 28 67 84 67h612c96 0 169.667 -13.667 221 -41
c66.667 -36 100 -99.333 100 -190c0 -44 -19.333 -84.833 -58 -122.5s-80.667 -65.834 -126 -84.501c43.333 -14 84 -33 122 -57c38 -23.333 69.5 -52.333 94.5 -87s37.5 -72.667 37.5 -114c0 -97.333 -32.667 -170.333 -98 -219c-66 -46.667 -152.667 -70 -260 -70h-645
c-56 0 -84 22.667 -84 68zM580 137c63.333 0 116 13.832 158 41.499s63 67.834 63 120.501c0 34 -12.5 65.167 -37.5 93.5s-56.167 47.833 -93.5 58.5l-195 -41v-199c0 -49.333 35 -74 105 -74zM737 747.999c0 34.667 -14.832 60.667 -44.499 78s-67.834 26 -114.501 26
c-68.667 0 -103 -23.667 -103 -71v-236c174.667 43.333 262 111 262 203z" />
    <glyph glyph-name="quotedblbase" unicode="&#xe3;" horiz-adv-x="942" 
d="M488 137c12 -5.33301 27.167 -14.334 45.5 -27.001s27.5 -26.667 27.5 -42c0 -45.333 -30 -68 -90 -68h-325c-60 0 -90 22.667 -90 68c0 15.333 8.83301 29.333 26.5 42s32.5 21.667 44.5 27l2 3c8.66699 8 13 37.333 13 88v530c0 50.667 -4.33301 80 -13 88l-2 2
c-12 5.33301 -26.833 14.5 -44.5 27.5s-26.5 27.167 -26.5 42.5c0 44.667 30 67 90 67h643c44.667 0 78.667 -4.66699 102 -14h-2c34 -24 51 -71.667 51 -143c0 -32 -3.83301 -55.833 -11.5 -71.5s-23.5 -23.5 -47.5 -23.5c-11.333 0 -21.333 1.83301 -30 5.5
s-17 8.83398 -25 15.501l-25 20c-39.333 29.333 -72.5 49.333 -99.5 60s-64.833 16 -113.5 16c-39.333 0 -66.333 -2.16699 -81 -6.5s-23.667 -13.833 -27 -28.5s-5 -42.667 -5 -84v-503c0 -10 1.66699 -24.833 5 -44.5z" />
    <glyph glyph-name="perthousand" unicode="&#xe4;" horiz-adv-x="1147" 
d="M72 197c27.333 92.667 58.002 182.666 92.002 269.999s72.333 174 115 260c14.667 30 22 54 22 72c0 12 -2.5 22 -7.5 30s-12.5 16.667 -22.5 26s-17.667 18.833 -23 28.5s-8 21.167 -8 34.5c0 44.667 33.333 67 100 67h660c60 0 90 -22.333 90 -67
c0 -12.667 -3.33301 -22.667 -10 -30c-6.66699 -6.66699 -17 -14.667 -31 -24c-13.333 -8.66699 -23.833 -18 -31.5 -28s-11.5 -22.333 -11.5 -37v-612c0 -18 3.5 -30.833 10.5 -38.5s18.5 -16.334 34.5 -26.001s26.333 -19.834 31 -30.501c16 -38 24 -79.667 24 -125
c0 -20 -7.33301 -37.333 -22 -52s-32.667 -22 -54 -22c-24 4.66699 -48.667 18.667 -74 42c-24.667 23.333 -44.834 40 -60.501 50s-43.834 15 -84.501 15h-542c-40.667 0 -68.667 -5 -84 -15s-35.666 -26.667 -60.999 -50s-50.333 -37.333 -75 -42
c-20.667 0 -38.667 7.33301 -54 22c-14.667 14.667 -22 32 -22 52c0 4.66699 0.333008 9.33398 1 14.001s1.66699 9.66699 3 15s2 9.33301 2 12l7 54c2 16 5.66699 29.833 11 41.5s14.666 20.834 27.999 27.501l16 9c11.333 8.66699 18 15 20 19
c2 4.66699 5.66699 17.334 11 38.001zM672.002 206.999v581.999c-5.33301 36.667 -30 55 -74 55h-41c-28 0 -50.333 -11.667 -67 -35c-24 -38 -49.667 -85.167 -77 -141.5s-53.5 -116.166 -78.5 -179.499s-44.667 -120.333 -59 -171s-21.5 -90.667 -21.5 -120
c0 -15.333 6 -28 18 -38s27.333 -15 46 -15h262c61.333 0 92 21 92 63z" />
    <glyph glyph-name="Acircumflex" unicode="&#xe5;" horiz-adv-x="1147" 
d="M680 133c52 0 99.832 10.5 143.499 31.5s88.167 51.5 133.5 91.5c22.667 19.333 37.667 31.666 45 36.999s20.333 8 39 8c14.667 0 28.167 -5.33301 40.5 -16s18.5 -23.667 18.5 -39c0 -33.333 -18.333 -68.166 -55 -104.499s-73.667 -64.833 -111 -85.5
c-96 -58 -209.333 -87 -340 -87c-68.667 0 -136.5 11.333 -203.5 34s-126.5 55 -178.5 97s-93.167 93 -123.5 153s-45.5 126.667 -45.5 200c0 110 28.5 206.667 85.5 290s132.833 147.666 227.5 192.999c94.667 44 196 66 304 66c64.667 0 129.5 -10.5 194.5 -31.5
s118.667 -54 161 -99s63.5 -101.167 63.5 -168.5c0 -68.667 -27.5 -126 -82.5 -172s-120.833 -81.667 -197.5 -107c-36 -11.333 -75.167 -21.166 -117.5 -29.499s-90.166 -16.333 -143.499 -24l-122 -17.5c14.667 -65.333 46 -118.333 94 -159s104.667 -61 170 -61z
M759.999 725c0 40.667 -10.5 73.001 -31.5 97.001s-51.5 36 -91.5 36c-75.333 0 -134 -37.833 -176 -113.5s-63 -160.5 -63 -254.5c89.333 6.66699 172.333 28.667 249 66c75.333 37.333 113 93.666 113 168.999z" />
    <glyph glyph-name="Ecircumflex" unicode="&#xe6;" horiz-adv-x="1762" 
d="M707 0c-20.667 0 -39 5.33496 -55 16.002c-15.333 10.667 -23 26.667 -23 48c0 20.667 12.333 38.334 37 53.001c22 15.333 35 27 39 35c5.33301 17.333 8 53.333 8 108v156l-47 27c-32 -25.333 -72.833 -72.833 -122.5 -142.5s-74.5 -119.167 -74.5 -148.5
c0 -8.66699 2.33301 -15.5 7 -20.5s12 -10.833 22 -17.5s18 -14 24 -22c6 -7.33301 9 -16 9 -26c0 -44 -34.333 -66 -103 -66h-338c-62.667 0 -94 22.667 -94 68c0 16 3.66699 28.167 11 36.5s19.333 17.166 36 26.499c23.333 14.667 42.666 36.667 57.999 66
c100.667 179.333 207.667 320 321 422l-26 22l-111 101c-56.667 56.667 -97 91.334 -121 104.001c-11.333 6.66699 -21.333 12.834 -30 18.501s-16 10.834 -22 15.501c-6 5.33301 -11 11.666 -15 18.999c-4.66699 8 -7 17 -7 27c0 24 7.66699 39.833 23 47.5
s40 11.5 74 11.5h65h209c15.333 0 28 -5.66699 38 -17s15 -25.333 15 -42c0 -22.667 -15.667 -41.667 -47 -57c-17.333 -10.667 -26 -22.334 -26 -35.001c0 -22.667 17 -53.834 51 -93.501s72.667 -77.334 116 -113.001s78.333 -58.5 105 -68.5v166
c0 54.667 -2.66699 91 -8 109c-4 7.33301 -17 19 -39 35c-24.667 14 -37 31.667 -37 53c0 42 26 63 78 63h346c52 0 78 -21 78 -63c0 -21.333 -12.333 -39 -37 -53c-22 -16.667 -35 -28.334 -39 -35.001c-5.33301 -18 -8 -54.333 -8 -109v-166c26 10 61 32.667 105 68
c44 36 82.833 73.833 116.5 113.5s50.5 70.834 50.5 93.501c0 12.667 -8.66699 24.334 -26 35.001c-32 15.333 -48 34.333 -48 57c0 16.667 5 30.667 15 42s23 17 39 17h209h67c34 0 58.167 -3.66699 72.5 -11s21.5 -23.333 21.5 -48c0 -13.333 -3.5 -24.5 -10.5 -33.5
s-16.333 -17.333 -28 -25s-23.167 -14.834 -34.5 -21.501c-22.667 -12 -63 -46.667 -121 -104l-111 -101l-26 -22c113.333 -102 220.333 -242.667 321 -422c15.333 -30 34.333 -52 57 -66c16.667 -9.33301 28.834 -18.166 36.501 -26.499s11.5 -20.5 11.5 -36.5
c0 -45.333 -31.667 -68 -95 -68h-338c-68 0 -102 22 -102 66c0 10 3 18.667 9 26s13.667 14.333 23 21c10 6.66699 17.333 12.5 22 17.5s7 12.167 7 21.5c0 19.333 -12 49.166 -36 89.499s-51.833 80 -83.5 119s-57.167 66.5 -76.5 82.5l-47 -27v-156
c0 -54.667 2.66699 -90.667 8 -108c4 -7.33301 17 -19 39 -35c24.667 -14.667 37 -32.334 37 -53.001c0 -22 -8 -38 -24 -48c-15.333 -10.667 -33.333 -16 -54 -16h-346z" />
    <glyph glyph-name="Aacute" unicode="&#xe7;" horiz-adv-x="1024" 
d="M1001 291c0 -54.667 -21.335 -106.166 -64.002 -154.499s-102.334 -87 -179.001 -116s-162 -43.5 -256 -43.5c-104.667 0 -193.667 13.167 -267 39.5s-127.666 59.166 -162.999 98.499s-53 77.666 -53 114.999c0 24.667 8.33301 46.834 25 66.501
s38.334 29.5 65.001 29.5c37.333 0 69.333 -19 96 -57c29.333 -44.667 70.666 -79.5 123.999 -104.5s107 -37.5 161 -37.5c50.667 0 94 15.5 130 46.5s54 68.833 54 113.5c0 54 -17.167 95 -51.5 123s-84.166 42 -149.499 42h-125c-30 0 -53.667 8 -71 24
c-18 14.667 -27 32.334 -27 53.001s8.5 38.334 25.5 53.001s39.833 22 68.5 22h129c46.667 0 84 11.667 112 35s42 54.666 42 93.999s-13.167 71.166 -39.5 95.499s-60.833 36.5 -103.5 36.5c-60.667 0 -105 -9.33301 -133 -28c-28.667 -20 -61.167 -49 -97.5 -87
s-68.166 -60 -95.499 -66c-35.333 0 -60 25.333 -74 76c-4 14 -6 29.667 -6 47c0 25.333 4.66699 48.666 14 69.999c12.667 26.667 30 46.334 52 59.001c54.667 29.333 110.667 48.333 168 57c56.667 7.33301 122 11 196 11c77.333 0 150.833 -10.833 220.5 -32.5
s125.667 -52.5 168 -92.5s63.5 -86.333 63.5 -139c0 -54 -17.333 -97.167 -52 -129.5s-80 -54.833 -136 -67.5c152.667 -32 229 -116 229 -252z" />
    <glyph glyph-name="Edieresis" unicode="&#xe8;" horiz-adv-x="1270" 
d="M142 725c0 54.667 -3 91 -9 109c-4 7.33301 -17 19 -39 35c-24 14 -36 31.667 -36 53c0 42 25.667 63 77 63h347c51.333 0 77 -21 77 -63c0 -21.333 -12.333 -39 -37 -53c-21.333 -16.667 -34 -28.334 -38 -35.001c-6 -18 -9 -54.333 -9 -109v-289l320 320
c0 34 -2.66699 60 -8 78c-4.66699 7.33301 -17.667 19 -39 35c-24.667 14 -37 31.667 -37 53c0 42 26 63 78 63h346c52 0 78 -21 78 -63c0 -21.333 -12.333 -39 -37 -53c-21.333 -16 -34.333 -27.667 -39 -35c-5.33301 -18 -8 -54.333 -8 -109v-465
c0 -54.667 2.66699 -90.667 8 -108c4.66699 -8 17.667 -19.667 39 -35c24.667 -14.667 37 -32.334 37 -53.001c0 -42.667 -26 -64 -78 -64h-346c-52 0 -78 21.333 -78 64c0 20.667 12.333 38.334 37 53.001c21.333 15.333 34.333 27 39 35c5.33301 17.333 8 53.333 8 108
v299l-320 -319c0 -41.333 3 -70.666 9 -87.999c4 -7.33301 16.667 -19 38 -35c24.667 -14.667 37 -32.334 37 -53.001c0 -42.667 -25.667 -64 -77 -64h-347c-51.333 0 -77 21.333 -77 64c0 20.667 12 38.334 36 53.001c22 15.333 35 27 39 35c6 17.333 9 53.333 9 108v465z
" />
    <glyph glyph-name="Egrave" unicode="&#xe9;" horiz-adv-x="1270" 
d="M142 725c0 54.667 -3 91 -9 109c-4 7.33301 -17 19 -39 35c-24 14 -36 31.667 -36 53c0 42 25.667 63 77 63h347c51.333 0 77 -21 77 -63c0 -21.333 -12.333 -39 -37 -53c-21.333 -16.667 -34 -28.334 -38 -35.001c-6 -18 -9 -54.333 -9 -109v-289l320 320
c0 34 -2.66699 60 -8 78c-4.66699 7.33301 -17.667 19 -39 35c-24.667 14 -37 31.667 -37 53c0 42 26 63 78 63h346c52 0 78 -21 78 -63c0 -21.333 -12.333 -39 -37 -53c-21.333 -16 -34.333 -27.667 -39 -35c-5.33301 -18 -8 -54.333 -8 -109v-465
c0 -54.667 2.66699 -90.667 8 -108c4.66699 -8 17.667 -19.667 39 -35c24.667 -14.667 37 -32.334 37 -53.001c0 -42.667 -26 -64 -78 -64h-346c-52 0 -78 21.333 -78 64c0 20.667 12.333 38.334 37 53.001c21.333 15.333 34.333 27 39 35c5.33301 17.333 8 53.333 8 108
v299l-320 -319c0 -41.333 3 -70.666 9 -87.999c4 -7.33301 16.667 -19 38 -35c24.667 -14.667 37 -32.334 37 -53.001c0 -42.667 -25.667 -64 -77 -64h-347c-51.333 0 -77 21.333 -77 64c0 20.667 12 38.334 36 53.001c22 15.333 35 27 39 35c6 17.333 9 53.333 9 108v465z
M1010 1426c0 -27.333 -8.33301 -57 -25 -89s-35 -59 -55 -81c-74 -82.667 -171.667 -124 -293 -124c-94.667 0 -178.667 30.333 -252 91c-33.333 26.667 -61.333 58.667 -84 96s-34 74.333 -34 111c0 38 14 57 42 57c16 0 39.5 -20 70.5 -60s65.333 -73.167 103 -99.5
s91.834 -39.5 162.501 -39.5c48.667 0 96 11.5 142 34.5s82.667 53.833 110 92.5l22 30c6.66699 9.33301 14.167 17 22.5 23s18.166 9 29.499 9c26 0 39 -17 39 -51z" />
    <glyph glyph-name="Iacute" unicode="&#xea;" horiz-adv-x="1229" 
d="M475 725l-0.000976562 -165.998c27.333 10 66.5 33 117.5 69s96.5 73.667 136.5 113s60 70.333 60 93c0 12.667 -9 24.334 -27 35.001c-31.333 15.333 -47 34.333 -47 57c0 16.667 5 30.667 15 42s22.667 17 38 17h209h45c78 0 117 -19.667 117 -59
c0 -13.333 -3.66699 -24.333 -11 -33c-6.66699 -9.33301 -16 -17.833 -28 -25.5l-35 -21.5c-22 -12 -62.333 -46.667 -121 -104l-110 -101l-27 -22c114 -102 221.333 -242.667 322 -422c14.667 -30 33.667 -52 57 -66c16 -8.66699 27.833 -17.334 35.5 -26.001
s11.5 -21 11.5 -37c0 -45.333 -31.333 -68 -94 -68h-338c-68 0 -102 22 -102 66c0 10 2.83301 18.667 8.5 26s13.334 14.333 23.001 21s17 12.667 22 18s7.5 12.333 7.5 21c0 19.333 -12.667 50.166 -38 92.499s-55.333 84.833 -90 127.5s-61.667 71.667 -81 87l-76 -43
v-156c0 -54.667 3 -90.667 9 -108c4 -7.33301 16.667 -19 38 -35c24.667 -14.667 37 -32.334 37 -53.001c0 -42.667 -25.667 -64 -77 -64h-347c-51.333 -0 -77 21.333 -77 64c0 20.667 12 38.334 36 53.001c22 15.333 35 27 39 35c6 17.333 9 53.333 9 108v465
c0 54.667 -3 91 -9 109c-4 7.33301 -17 19 -39 35c-24 14 -36 31.667 -36 53c0 42 25.667 63 77 63h347c51.333 0 77 -21 77 -63c0 -21.333 -12.333 -39 -37 -53c-21.333 -16.667 -34 -28.334 -38 -35.001c-6 -18 -9 -54.333 -9 -109z" />
    <glyph glyph-name="Icircumflex" unicode="&#xeb;" horiz-adv-x="1147" 
d="M240 918c0 44.667 33.3301 67.001 99.9971 67.001h662c60 0 90 -22.333 90 -67c0 -10 -3.33301 -18 -10 -24c-6 -6.66699 -16.333 -15.334 -31 -26.001s-25.834 -21.167 -33.501 -31.5s-11.5 -22.833 -11.5 -37.5v-612c0 -17.333 3.66699 -30.666 11 -39.999
s18 -18.333 32 -27c14.667 -8.66699 25.334 -16.334 32.001 -23.001c7.33301 -6.66699 11 -16.334 11 -29.001c0 -45.333 -30 -68 -90 -68h-330c-57.333 0 -86 22.667 -86 68c0 12 3 21.333 9 28c6.66699 6.66699 17.334 14.667 32.001 24c14.667 10 26 19.667 34 29
c7.33301 10 11 22.667 11 38v602c0 36.667 -24 55 -72 55h-43c-28 0 -50.333 -11.667 -67 -35c-24 -38 -49.667 -85.167 -77 -141.5s-53.5 -116.166 -78.5 -179.499s-44.667 -120.333 -59 -171s-21.5 -90.667 -21.5 -120c0 -13.333 3 -23.5 9 -30.5s16 -15 30 -24
s25.833 -19.167 35.5 -30.5s16.834 -27.333 21.501 -48c-2.66699 -26.667 -12.834 -44 -30.501 -52s-41.5 -12 -71.5 -12h-154c-66.667 0 -100 22.667 -100 68c0 23.333 12.333 43.666 37 60.999c18 16.667 31.667 39.334 41 68.001c29.333 98.667 60.5 190 93.5 274
s70.833 169.333 113.5 256c14.667 30 22 54.667 22 74c0 11.333 -2.5 21 -7.5 29s-12.167 16.667 -21.5 26s-16.666 18.5 -21.999 27.5s-8.66602 20.5 -9.99902 34.5z" />
    <glyph glyph-name="Idieresis" unicode="&#xec;" horiz-adv-x="1434" 
d="M1020 985h292.999c22 0 39.333 -6.33301 52 -19c13.333 -13.333 20 -30.666 20 -51.999c0 -15.333 -7.66699 -28.333 -23 -39l-46 -32c-15.333 -10.667 -23 -23.334 -23 -38.001v-618c0 -15.333 3.5 -27.833 10.5 -37.5s17.5 -19.334 31.5 -29.001
s24.333 -17.834 31 -24.501c7.33301 -7.33301 11 -16.666 11 -27.999c0 -45.333 -28 -68 -84 -68h-338c-56 0 -84 22.667 -84 68c0 11.333 3.66699 20.333 11 27c6.66699 7.33301 17.667 16 33 26c14.667 10.667 25.667 20.667 33 30s11 21.333 11 36v434l-183 -404
c-9.33301 -24.667 -29.833 -46.5 -61.5 -65.5s-65.5 -28.5 -101.5 -28.5c-65.333 0 -107 22.667 -125 68l-183 430v-436c0 -29.333 14.333 -48 43 -56c33.333 -8.66699 50 -30.334 50 -65.001c0 -42.667 -38.333 -64 -115 -64h-119c-78 0 -117 21.333 -117 64
c0 30 17.333 51.667 52 65c16 10 27.167 18.167 33.5 24.5s9.5 16.833 9.5 31.5v608c0 16.667 -4.16699 29.334 -12.5 38.001s-21.166 17.5 -38.499 26.5s-30 17.667 -38 26s-12 19.833 -12 34.5c0 29.333 9.5 47.833 28.5 55.5s43.833 11.5 74.5 11.5h276
c35.333 0 60 -9.16699 74 -27.5s27.667 -45.166 41 -80.499l176 -418l199 444c21.333 54.667 58 82 110 82z" />
    <glyph glyph-name="Igrave" unicode="&#xed;" horiz-adv-x="1270" 
d="M142 725c0 54.667 -3 91.001 -9 109.001c-4 7.33301 -17 19 -39 35c-24 14 -36 31.667 -36 53c0 42 25.667 63 77 63h347c51.333 0 77 -21 77 -63c0 -21.333 -12.333 -39 -37 -53c-21.333 -16.667 -34 -28.334 -38 -35.001c-6 -18 -9 -54.333 -9 -109v-121h320v121
c0 54.667 -2.66699 91 -8 109c-4.66699 7.33301 -17.667 19 -39 35c-24.667 14 -37 31.667 -37 53c0 42 26 63 78 63h346c52 0 78 -21 78 -63c0 -21.333 -12.333 -39 -37 -53c-21.333 -16 -34.333 -27.667 -39 -35c-5.33301 -18 -8 -54.333 -8 -109v-465
c0 -54.667 2.66699 -90.667 8 -108c4.66699 -8 17.667 -19.667 39 -35c24.667 -14.667 37 -32.334 37 -53.001c0 -42.667 -26 -64 -78 -64h-346c-52 0 -78 21.333 -78 64c0 20.667 12.333 38.334 37 53.001c21.333 15.333 34.333 27 39 35c5.33301 17.333 8 53.333 8 108
v199h-320v-199c0 -54.667 3 -90.667 9 -108c4 -7.33301 16.667 -19 38 -35c24.667 -14.667 37 -32.334 37 -53.001c0 -42.667 -25.667 -64 -77 -64h-347c-51.333 0 -77 21.333 -77 64c0 20.667 12 38.334 36 53.001c22 15.333 35 27 39 35c6 17.333 9 53.333 9 108v465z" />
    <glyph glyph-name="Oacute" unicode="&#xee;" horiz-adv-x="1270" 
d="M236 97c-58.667 48 -103.833 105.5 -135.5 172.5s-47.5 137.833 -47.5 212.5c0 69.333 15.667 136.5 47 201.5s74 121.833 128 170.5c111.333 98.667 252.666 148 423.999 148c72.667 0 143 -12.167 211 -36.5s128.833 -59.333 182.5 -105s96 -100 127 -163
s46.5 -131.5 46.5 -205.5c0 -102 -27.667 -193 -83 -273c-54.667 -80 -127 -141.5 -217 -184.5s-185.333 -64.5 -286 -64.5c-161.333 0 -293.666 42.333 -396.999 127zM867.001 504c0 92 -17.5 173.333 -52.5 244s-93.5 106 -175.5 106c-84 0 -143.833 -36.5 -179.5 -109.5
s-53.5 -156.5 -53.5 -250.5c0 -102 16.333 -191.333 49 -268c33.333 -76.667 93.333 -115 180 -115c154.667 0 232 131 232 393z" />
    <glyph glyph-name="Ocircumflex" unicode="&#xef;" horiz-adv-x="1270" 
d="M1135 985c52 0 78 -21 78 -63c0 -21.333 -12.333 -39 -37 -53c-21.333 -16 -34.333 -27.667 -39 -35c-5.33301 -18 -8 -54.333 -8 -109v-465c0 -54.667 2.66699 -90.667 8 -108c4.66699 -8 17.667 -19.667 39 -35c24.667 -14.667 37 -32.334 37 -53.001
c0 -42.667 -26 -64 -78 -64h-346c-52 0 -78 21.333 -78 64c0 20.667 12.333 38.334 37 53.001c21.333 15.333 34.333 27 39 35c5.33301 17.333 8 53.333 8 108v465c0 45.333 -6.66699 76.5 -20 93.5s-36 25.5 -68 25.5h-144c-30.667 0 -53 -8.66699 -67 -26
s-21 -48.333 -21 -93v-465c0 -54.667 3 -90.667 9 -108c4 -7.33301 16.667 -19 38 -35c24.667 -14.667 37 -32.334 37 -53.001c0 -42.667 -25.667 -64 -77 -64h-347c-51.333 0 -77 21.333 -77 64c0 20.667 12 38.334 36 53.001c22 15.333 35 27 39 35
c6 17.333 9 53.333 9 108v465c0 54.667 -3 91 -9 109c-4 7.33301 -17 19 -39 35c-24 14 -36 31.667 -36 53c0 42 25.667 63 77 63h1000z" />
    <glyph glyph-name="apple" unicode="&#xf0;" horiz-adv-x="1311" 
d="M495 -101c0 -57.333 3.66699 -94.668 11 -112.001c5.33301 -12 20.333 -24.333 45 -37c32.667 -17.333 49 -38 49 -62c0 -28.667 -9.66699 -46.667 -29 -54s-46.333 -11 -81 -11h-322c-34.667 0 -61.667 3.66699 -81 11s-29 25.333 -29 54c0 24 16.333 44.667 49 62
c24.667 12.667 39.667 25 45 37c6.66699 17.333 10 54.666 10 111.999v753c0 46 -3.33301 78 -10 96s-23.667 33.667 -51 47c-28.667 12 -43 30.333 -43 55c0 22.667 20.5 45.667 61.5 69s87.5 43 139.5 59s90 24 114 24c30 0 51.333 -14.5 64 -43.5s22 -63.833 28 -104.5
c92 98.667 197.333 148 316 148c96 0 180.333 -22.667 253 -68s128.334 -107 167.001 -185c39.333 -78 59 -164.333 59 -259c0 -95.333 -21.667 -183 -65 -263c-42.667 -79.333 -102.334 -142 -179.001 -188c-76 -46.667 -161.333 -70 -256 -70
c-48 0 -95.5 9.83301 -142.5 29.5s-70.5 50.167 -70.5 91.5c0 14 4.16699 26.167 12.5 36.5s19.166 15.5 32.499 15.5c12.667 0 28.834 -1.16699 48.501 -3.5s34.834 -3.5 45.501 -3.5c60.667 0 112 28 154 84c45.333 63.333 68 149.333 68 258
c0 86.667 -17.333 167 -52 241c-34.667 72.667 -90.667 109 -168 109c-58 0 -105.667 -21.667 -143 -65c-20.667 -23.333 -34.334 -50.666 -41.001 -81.999c-6 -31.333 -9 -68.666 -9 -111.999v-669z" />
    <glyph glyph-name="Ograve" unicode="&#xf1;" horiz-adv-x="1065" 
d="M662 144l8 -0.00390625c40.667 0 81.667 9.66699 123 29c41.333 18 78 43 110 75c34 34 62 51 84 51c17.333 0 31.666 -6.16699 42.999 -18.5s17 -27.166 17 -44.499c0 -50 -38.333 -102.667 -115 -158c-108.667 -72.667 -220 -109 -334 -109
c-73.333 0 -143.333 11.667 -210 35s-125.5 56.833 -176.5 100.5s-91.167 97 -120.5 160s-44 132.5 -44 208.5c0 104 24.667 196.333 74 277s116.666 142.834 201.999 186.501s179 65.5 281 65.5c50.667 0 109.167 -7.83301 175.5 -23.5s123.833 -40.5 172.5 -74.5
c48 -33.333 72 -76 72 -128c0 -32.667 -11.667 -59.167 -35 -79.5s-51.333 -30.5 -84 -30.5s-58.667 7.33301 -78 22s-41.166 37.834 -65.499 69.501s-46.666 55.334 -66.999 71.001s-47.5 23.5 -81.5 23.5c-52 0 -93.833 -20.333 -125.5 -61s-54 -89.5 -67 -146.5
s-19.833 -112.167 -20.5 -165.5h2c0 -90 22 -168.333 66 -235s108.667 -100 194 -100z" />
    <glyph glyph-name="Uacute" unicode="&#xf2;" horiz-adv-x="1024" 
d="M297 842c-40.667 0 -68.6631 -5.00586 -83.9961 -15.0059s-35.666 -26.667 -60.999 -50c-24.667 -23.333 -49.334 -37.333 -74.001 -42c-20.667 0 -38.5 7.33301 -53.5 22s-22.5 32 -22.5 52c0 8.66699 0.833008 16.667 2.5 24s2.83398 12.333 3.50098 15
c0 56.667 15 98.334 45 125.001c18 8 42.667 12 74 12h772c32.667 0 58 -4 76 -12c15.333 -13.333 26.666 -32.166 33.999 -56.499s11 -47.166 11 -68.499c4 0 6 -13 6 -39c0 -20.667 -7.33301 -38.167 -22 -52.5s-32.334 -21.5 -53.001 -21.5
c-26 4.66699 -51.667 18.834 -77 42.501s-45.333 40.334 -60 50.001s-42.334 14.5 -83.001 14.5c-20.667 0 -34.334 -5.33301 -41.001 -16c-6.66699 -10 -10 -26.667 -10 -50v-589c0 -14.667 3.33301 -26.167 10 -34.5s17.167 -17 31.5 -26s25 -17.5 32 -25.5
s10.5 -19 10.5 -33c0 -45.333 -30 -68 -90 -68h-319c-62 0 -93 22.667 -93 68c0 13.333 3.33301 23.833 10 31.5s17.167 16.334 31.5 26.001s25.166 18.5 32.499 26.5c6.66699 8.66699 10 20.334 10 35.001v589c0 25.333 -2.83301 42.666 -8.5 51.999s-19.167 14 -40.5 14z
" />
    <glyph glyph-name="Ucircumflex" unicode="&#xf3;" horiz-adv-x="1106" 
d="M361 985c44.667 0 77.3369 -3.99707 98.0039 -11.9971s31 -26.333 31 -55c0 -14.667 -8 -30.334 -24 -47.001s-27.667 -30.334 -35 -41.001s-11 -30 -11 -58c0 -56 6.16699 -117.833 18.5 -185.5s28.166 -129.167 47.499 -184.5c54.667 -154.667 109 -232 163 -232
c37.333 0 70.666 38 99.999 114s52 162 68 258c16.667 96 25 164.667 25 206c0 36 -2.66699 61 -8 75c-5.33301 14.667 -20.333 29.334 -45 44.001c-28.667 18 -43 38.333 -43 61c0 23.333 9 38.666 27 45.999s47.667 11 89 11h117h43c57.333 0 86 -17.667 86 -53
c0 -19.333 -11 -41 -33 -65c-14.667 -20.667 -23.334 -36 -26.001 -46c-8.66699 -22 -20.334 -84 -35.001 -186c-21.333 -136.667 -63.333 -285.5 -126 -446.5s-145.667 -299.333 -249 -415s-221.333 -173.5 -354 -173.5c-42.667 0 -83.667 11.167 -123 33.5
s-59 53.5 -59 93.5c0 32.667 12 59 36 79s52 30 84 30c26 0 56.667 -7.66699 92 -23c36 -14.667 58 -22 66 -22c20.667 0 46.334 11.667 77.001 35c31.333 23.333 55.666 45 72.999 65c32 36 62 82 90 138c-32.667 -8 -65.667 -12 -99 -12
c-42.667 0 -86.5 10.167 -131.5 30.5s-84.167 46.833 -117.5 79.5c-38.667 40 -72 99.667 -100 179s-49.833 158.333 -65.5 237s-30.167 163.334 -43.5 254.001c-3.33301 21.333 -8.33301 37.666 -15 48.999s-15.667 21.833 -27 31.5s-19 17.167 -23 22.5
c-3.33301 5.33301 -5 14.666 -5 27.999c0 38 33.333 57 100 57h267z" />
    <glyph glyph-name="Ugrave" unicode="&#xf4;" horiz-adv-x="1843" 
d="M1080 -101c0 -57.333 3.33008 -94.665 9.99707 -111.998c4.66699 -12 19.667 -24.333 45 -37c32.667 -17.333 49 -38 49 -62c0 -28.667 -9.66699 -46.667 -29 -54s-46.666 -11 -81.999 -11h-321c-40.667 0 -69.334 3.5 -86.001 10.5s-25 25.167 -25 54.5
c0 24 16.333 44.667 49 62c25.333 12.667 40.333 25 45 37c7.33301 17.333 11 54.666 11 111.999v159c-70 -59.333 -144.667 -89 -224 -89c-94 0 -179.333 23.333 -256 70c-76 46 -135.667 108.667 -179 188c-43.333 80 -65 167.667 -65 263c0 96.667 16.667 184 50 262
c32 77.333 81 138.333 147 183s146.667 67 242 67c58.667 0 109.834 -9.5 153.501 -28.5s87.5 -51.833 131.5 -98.5v241c0 45.333 -3.66699 77.333 -11 96s-25 34.667 -53 48c-28.667 11.333 -43 29.666 -43 54.999c0 22.667 23 45.5 69 68.5s98 42.667 156 59
s99 24.5 123 24.5c30.667 0 52.334 -14.333 65.001 -43s22 -63.667 28 -105v-444c43.333 46.667 86.833 79.5 130.5 98.5s94.834 28.5 153.501 28.5c95.333 0 176 -22.333 242 -67s115.333 -106 148 -184c32 -77.333 48 -164.333 48 -261s-21.5 -184.5 -64.5 -263.5
s-102.5 -141.667 -178.5 -188s-161.333 -69.5 -256 -69.5c-82 0 -156.333 29.667 -223 89v-159zM745.997 205.001v363c0 94 -15 158.667 -45 194c-20 23.333 -39.167 40 -57.5 50s-41.5 15 -69.5 15c-50 0 -90 -18.333 -120 -55c-29.333 -37.333 -49.833 -82.333 -61.5 -135
s-17.5 -106 -17.5 -160c0 -48 8 -98.833 24 -152.5s39.667 -98.667 71 -135s68.666 -54.5 111.999 -54.5c62.667 0 117.334 23.333 164.001 70zM1243 135.001c42.667 0 79.833 18.1689 111.5 54.502s55.5 81.166 71.5 134.499c16 54 24 105 24 153
c0 89.333 -15 170.333 -45 243c-30 71.333 -81 107 -153 107c-48 0 -90.333 -21.667 -127 -65c-19.333 -22.667 -31.666 -49.334 -36.999 -80.001s-8 -68.667 -8 -114v-363c39.333 -46.667 93.666 -70 162.999 -70z" />
    <glyph glyph-name="dotlessi" unicode="&#xf5;" horiz-adv-x="1147" 
d="M152 0c-47.333 0 -82.833 4.33008 -106.5 12.9971s-35.5 27 -35.5 55c0 24.667 16 45 48 61c30 16.667 48.333 28.334 55 35.001s25.667 30 57 70l205 237l-250 326c-12 17.333 -22.333 30 -31 38s-21.334 16.333 -38.001 25c-32 18.667 -48 40 -48 64
c0 24.667 8 41 24 49s38.333 12 67 12h350c29.333 0 53 -3.66699 71 -11s27 -23.333 27 -48c0 -14 -7.16699 -29 -21.5 -45s-21.5 -28.333 -21.5 -37c0 -20 50.667 -87.667 152 -203c25.333 26 53.666 59 84.999 99c30.667 40.667 46 71.334 46 92.001c0 8 -3 14.667 -9 20
c-5.33301 5.33301 -13.666 12 -24.999 20s-20.166 16 -26.499 24s-9.5 18 -9.5 30c0 25.333 8.83301 41.5 26.5 48.5s47.167 10.5 88.5 10.5h119c40.667 0 70.5 -3.16699 89.5 -9.5s28.5 -21.5 28.5 -45.5c0 -16.667 -4.33301 -29.667 -13 -39s-22.667 -20.333 -42 -33
c-16.667 -10.667 -27.667 -18.667 -33 -24c-4.66699 -4.66699 -14 -17.667 -28 -39c-58 -82 -129.667 -166 -215 -252l210 -258l33.5 -47c18.333 -26 35.166 -47.333 50.499 -64s31.333 -29.667 48 -39c22 -10.667 38.333 -20.667 49 -30s16 -23.666 16 -42.999
c0 -17.333 -7.5 -32 -22.5 -44s-32.167 -18 -51.5 -18h-366c-72.667 -0 -109 21.333 -109 64c0 17.333 8.16699 33.833 24.5 49.5s24.5 26.5 24.5 32.5c0 19.333 -50.333 84 -151 194l-29 33c-22.667 -22.667 -50.5 -56.5 -83.5 -101.5s-49.5 -77.5 -49.5 -97.5
c0 -11.333 3.33301 -20 10 -26s17.667 -13.333 33 -22c14.667 -8 25.834 -16.833 33.501 -26.5s11.5 -22.167 11.5 -37.5c0 -41.333 -33.333 -62 -100 -62h-43h-125z" />
    <glyph glyph-name="circumflex" unicode="&#xf6;" horiz-adv-x="1270" 
d="M905 0l-769.999 0.00292969c-51.333 0 -77 21.333 -77 64c0 20.667 12 38.334 36 53.001c22 15.333 35 27 39 35c6 17.333 9 53.333 9 108v465c0 54.667 -3 91 -9 109c-4 7.33301 -17 19 -39 35c-24 14 -36 31.667 -36 53c0 42 25.667 63 77 63h347
c51.333 0 77 -21 77 -63c0 -21.333 -12.333 -39 -37 -53c-21.333 -16.667 -34 -28.334 -38 -35.001c-6 -18 -9 -54.333 -9 -109v-465c0 -42.667 6.5 -73 19.5 -91s35.833 -27 68.5 -27h144c33.333 0 56.333 9 69 27c12.667 18.667 19 49 19 91v465
c0 54.667 -2.66699 91 -8 109c-4.66699 7.33301 -17.667 19 -39 35c-24.667 14 -37 31.667 -37 53c0 42 26 63 78 63h346c52 0 78 -21 78 -63c0 -21.333 -12.333 -39 -37 -53c-21.333 -16 -34.333 -27.667 -39 -35c-5.33301 -18 -8 -54.333 -8 -109v-465
c0 -54.667 2.66699 -90.667 8 -108c4.66699 -8 17.667 -19.667 39 -35c24.667 -14.667 37 -32.334 37 -53.001c1.33301 -12.667 3 -29.834 5 -51.501s3 -36.834 3 -45.501c0 -20.667 -7.66699 -38 -23 -52c-14.667 -14.667 -32.334 -22 -53.001 -22
c-25.333 4.66699 -52.5 18.5 -81.5 41.5s-52.5 39.667 -70.5 50s-47.333 15.5 -88 15.5z" />
    <glyph glyph-name="tilde" unicode="&#xf7;" horiz-adv-x="1188" 
d="M715 445c-120.667 -78.667 -230.667 -117.998 -330 -117.998c-71.333 0 -141 20.667 -209 62c-72 43.333 -108 126.666 -108 249.999c0 47.333 5.66699 96.666 17 147.999c0 36.667 -7.66699 57.667 -23 63c-37.333 14.667 -56 37.334 -56 68.001
c0 24.667 9.66699 42 29 52s40 15 62 15h331c56 0 84 -22.333 84 -67c0 -28 -16.333 -48.667 -49 -62c-20 -7.33301 -34.333 -26.333 -43 -57c-13.333 -49.333 -20 -98.333 -20 -147c0 -51.333 9.33301 -88.333 28 -111c20.667 -24.667 48.667 -37 84 -37
c54 0 121.667 28 203 84v137c0 54.667 -2.66699 91 -8 109c-4 7.33301 -17 19 -39 35c-24.667 14 -37 31.667 -37 53c0 42 26 63 78 63h346c52 0 78 -21 78 -63c0 -21.333 -12.333 -39 -37 -53c-22 -16.667 -35 -28.334 -39 -35.001c-6 -18 -9 -54.333 -9 -109v-465
c0 -54.667 3 -90.667 9 -108c4 -7.33301 17 -19 39 -35c24.667 -14.667 37 -32.334 37 -53.001c0 -42.667 -26 -64 -78 -64h-346c-52 0 -78 21.333 -78 64c0 20.667 12.333 38.334 37 53.001c22 15.333 35 27 39 35c5.33301 17.333 8 53.333 8 108v185z" />
    <glyph glyph-name="macron" unicode="&#xf8;" horiz-adv-x="1843" 
d="M1278 142c33.333 0 56.332 9.00098 68.999 27.001c12.667 18.667 19 49 19 91v465c0 54.667 -2.66699 91 -8 109c-4 6.66699 -17 18.334 -39 35.001c-24.667 14 -37 31.667 -37 53c0 42 26 63 78 63h346c52 0 78 -21 78 -63c0 -21.333 -12.333 -39 -37 -53
c-22 -16 -35 -27.667 -39 -35c-5.33301 -18 -8 -54.333 -8 -109v-465c0 -54.667 2.66699 -90.667 8 -108c4 -8 17 -19.667 39 -35c24.667 -14.667 37 -32.334 37 -53.001c0 -42.667 -26 -64 -78 -64h-1571c-51.333 0 -77 21.333 -77 64c0 20.667 12 38.334 36 53.001
c22 15.333 35 27 39 35c6 17.333 9 53.333 9 108v465c0 54.667 -3 91 -9 109c-4 7.33301 -17 19 -39 35c-24 14 -36 31.667 -36 53c0 42 25.667 63 77 63h347c51.333 0 77 -21 77 -63c0 -21.333 -12.333 -39 -37 -53c-21.333 -16.667 -34 -28.334 -38 -35.001
c-6 -18 -9 -54.333 -9 -109v-465c0 -42.667 6.5 -73 19.5 -91s35.833 -27 68.5 -27h103c33.333 0 56.333 8.66699 69 26c12.667 18 19 48.667 19 92v465c0 54.667 -2.66699 91 -8 109c-4 7.33301 -17 19 -39 35c-24.667 14 -37 31.667 -37 53c0 42 26 63 78 63h346
c52 0 78 -21 78 -63c0 -21.333 -12.333 -39 -37 -53c-22 -16.667 -35 -28.334 -39 -35.001c-5.33301 -18 -8 -54.333 -8 -109v-465c0 -44.667 6.66699 -75.667 20 -93c12.667 -16.667 35.334 -25 68.001 -25h102z" />
    <glyph glyph-name="breve" unicode="&#xf9;" horiz-adv-x="1843" 
d="M135 0c-51.333 0 -77.001 21.3359 -77.001 64.0029c0 20.667 12 38.334 36 53.001c22 15.333 35 27 39 35c6 17.333 9 53.333 9 108v465c0 54.667 -3 91 -9 109c-4 7.33301 -17 19 -39 35c-24 14 -36 31.667 -36 53c0 42 25.667 63 77 63h347c51.333 0 77 -21 77 -63
c0 -21.333 -12.333 -39 -37 -53c-21.333 -16.667 -34 -28.334 -38 -35.001c-6 -18 -9 -54.333 -9 -109v-465c0 -42.667 6.5 -73 19.5 -91s35.833 -27 68.5 -27h103c33.333 0 56.333 8.66699 69 26c12.667 18 19 48.667 19 92v465c0 54.667 -2.66699 91 -8 109
c-4 7.33301 -17 19 -39 35c-24.667 14 -37 31.667 -37 53c0 42 26 63 78 63h346c52 0 78 -21 78 -63c0 -21.333 -12.333 -39 -37 -53c-22 -16.667 -35 -28.334 -39 -35.001c-5.33301 -18 -8 -54.333 -8 -109v-465c0 -44.667 6.66699 -75.667 20 -93
c12.667 -16.667 35.334 -25 68.001 -25h102c33.333 0 56.333 9 69 27c12.667 18.667 19 49 19 91v465c0 54.667 -2.66699 91 -8 109c-4 6.66699 -17 18.334 -39 35.001c-24.667 14 -37 31.667 -37 53c0 42 26 63 78 63h346c52 0 78 -21 78 -63
c0 -21.333 -12.333 -39 -37 -53c-22 -16 -35 -27.667 -39 -35c-5.33301 -18 -8 -54.333 -8 -109v-465c0 -54.667 2.66699 -90.667 8 -108c4 -8 17 -19.667 39 -35c24.667 -14.667 37 -32.334 37 -53.001c1.33301 -12.667 3 -29.834 5 -51.501s3 -36.834 3 -45.501
c0 -20.667 -7.5 -38.167 -22.5 -52.5s-32.833 -21.5 -53.5 -21.5c-25.333 4.66699 -52.333 18.5 -81 41.5s-52.167 39.667 -70.5 50s-47.5 15.5 -87.5 15.5h-1342z" />
    <glyph glyph-name="dotaccent" unicode="&#xfa;" horiz-adv-x="1311" 
d="M660 985c39.333 0 68.1641 -4.00195 86.4971 -12.002s27.5 -25 27.5 -51c0 -12.667 -3.5 -22.667 -10.5 -30s-18.833 -16.666 -35.5 -27.999c-16.667 -10.667 -28.667 -20.334 -36 -29.001c-8 -8 -12 -19.333 -12 -34v-168c64.667 0 133.834 -6.16699 207.501 -18.5
s134.834 -30.166 183.501 -53.499c61.333 -27.333 111.666 -65 150.999 -113c38.667 -47.333 58 -103 58 -167c0 -106.667 -50.333 -184.667 -151 -234c-66 -31.333 -161 -47 -285 -47h-500c-56 0 -84 22 -84 66c0 13.333 3.33301 23.5 10 30.5s17.334 15.333 32.001 25
s25.667 19.167 33 28.5s11 22.333 11 39v600c0 35.333 -16.333 53 -49 53c-40.667 0 -68.667 -5 -84 -15s-35.666 -26.667 -60.999 -50c-24.667 -23.333 -49.334 -37.333 -74.001 -42c-20.667 0 -38.5 7.33301 -53.5 22s-22.5 32 -22.5 52c0 8.66699 0.833008 16.667 2.5 24
s2.83398 12.333 3.50098 15c0 56.667 15 98.334 45 125.001c18 8 42.667 12 74 12h533zM782.998 139.998c50 0 87.332 14 111.999 42s37 65.667 37 113c0 57.333 -23.167 105 -69.5 143s-107.166 62.667 -182.499 74v-289c0 -30.667 7.16699 -52.167 21.5 -64.5
s41.5 -18.5 81.5 -18.5z" />
    <glyph glyph-name="ring" unicode="&#xfb;" horiz-adv-x="1721" 
d="M1247 725c0 54.667 -2.66699 91.001 -8 109.001c-4 7.33301 -17 19 -39 35c-24 14 -36 31.667 -36 53c0 42 25.667 63 77 63h346c52 0 78 -21 78 -63c0 -21.333 -12.333 -39 -37 -53c-22 -16.667 -35 -28.334 -39 -35.001c-5.33301 -18 -8 -54.333 -8 -109v-465
c0 -54.667 2.66699 -90.667 8 -108c4 -7.33301 17 -19 39 -35c24.667 -14.667 37 -32.334 37 -53.001c0 -42.667 -26 -64 -78 -64h-346c-51.333 0 -77 21.333 -77 64c0 20.667 12 38.334 36 53.001c22 15.333 35 27 39 35c5.33301 17.333 8 53.333 8 108v465zM867 561.001
c61.333 -27.333 111.333 -64.999 150 -112.999s58 -103.667 58 -167c0 -52.667 -13.5 -99.167 -40.5 -139.5s-63.833 -71.833 -110.5 -94.5c-66 -31.333 -161 -47 -285 -47h-499c-56 0 -84 22 -84 66c0 13.333 3.16699 23.5 9.5 30.5s17 15.333 32 25
s26.167 19.167 33.5 28.5s11 22.333 11 39v610c0 15.333 -3.83301 28 -11.5 38s-19.5 20.333 -35.5 31c-15.333 10.667 -25.666 18.667 -30.999 24s-8 14 -8 26c1.33301 44.667 29.333 67 84 67h335c58.667 0 88 -21 88 -63c0 -12 -3.33301 -21.667 -10 -29
c-6.66699 -6.66699 -17.5 -14.834 -32.5 -24.501s-26.333 -19.167 -34 -28.5s-11.5 -22.333 -11.5 -39v-168c65.333 0 134.666 -6 207.999 -18c74 -12.667 135.333 -30.667 184 -54zM578 140.002c50 0 87.332 14 111.999 42s37 65.667 37 113
c0 57.333 -23.167 105 -69.5 143s-107.166 62.667 -182.499 74v-282c0 -34 7 -57.5 21 -70.5s41.333 -19.5 82 -19.5z" />
    <glyph glyph-name="cedilla" unicode="&#xfc;" horiz-adv-x="1106" 
d="M867 561c61.333 -27.333 111.333 -64.999 150 -112.999s58 -103.667 58 -167c0 -52.667 -13.5 -99.167 -40.5 -139.5s-63.833 -71.833 -110.5 -94.5c-66 -31.333 -161 -47 -285 -47h-499c-56 0 -84 22 -84 66c0 13.333 3.16699 23.5 9.5 30.5s17 15.333 32 25
s26.167 19.167 33.5 28.5s11 22.333 11 39v610c0 15.333 -3.83301 28 -11.5 38s-19.5 20.333 -35.5 31c-15.333 10.667 -25.666 18.667 -30.999 24s-8 14 -8 26c1.33301 44.667 29.333 67 84 67h335c58.667 0 88 -21 88 -63c0 -12 -3.33301 -21.667 -10 -29
c-6.66699 -6.66699 -17.5 -14.834 -32.5 -24.501s-26.333 -19.167 -34 -28.5s-11.5 -22.333 -11.5 -39v-168c65.333 0 134.666 -6 207.999 -18c74 -12.667 135.333 -30.667 184 -54zM578 140.001c50 0 87.332 14 111.999 42s37 65.667 37 113
c0 57.333 -23.167 105 -69.5 143s-107.166 62.667 -182.499 74v-282c0 -34 7 -57.5 21 -70.5s41.333 -19.5 82 -19.5z" />
    <glyph glyph-name="hungarumlaut" unicode="&#xfd;" horiz-adv-x="1065" 
d="M654 604c-12 69.333 -34.5 128 -67.5 176s-77.5 72 -133.5 72c-43.333 0 -75 -8.5 -95 -25.5s-51.167 -48 -93.5 -93s-75.833 -67.5 -100.5 -67.5c-58 0 -92.333 41 -103 123c0 58.667 24.667 102.334 74 131.001c44 27.333 97.167 47.833 159.5 61.5
s117.833 20.5 166.5 20.5c102.667 0 196.5 -21.833 281.5 -65.5s152.167 -105.834 201.5 -186.501s74 -173 74 -277c0 -100.667 -25 -189.334 -75 -266.001s-117.167 -135.5 -201.5 -176.5s-175.833 -61.5 -274.5 -61.5c-114 0 -225.333 36.333 -334 109
c-76.667 55.333 -115 108 -115 158c0 17.333 6 32.333 18 45c10.667 12 24.667 18 42 18c22 0 50 -17 84 -51c32 -31.333 68.667 -56.666 110 -75.999c41.333 -18.667 82.666 -28 123.999 -28h8c56 0 103 14.667 141 44c38 30 66.667 69.167 86 117.5s30.333 99.5 33 153.5
h-334c-21.333 0 -38.666 7.66699 -51.999 23s-20 33 -20 53c0 40.667 24 63.667 72 69h324z" />
    <glyph glyph-name="ogonek" unicode="&#xfe;" horiz-adv-x="1802" 
d="M627 604c20.667 99.333 67.667 182.666 141 249.999c112 98.667 253.333 148 424 148c72.667 0 142 -12.167 208 -36.5s124.5 -59.333 175.5 -105s91 -99.667 120 -162s43.5 -131.166 43.5 -206.499c0 -103.333 -25.833 -194.666 -77.5 -273.999s-121 -140.5 -208 -183.5
s-180.167 -64.5 -279.5 -64.5c-161.333 0 -294 42.333 -398 127c-107.333 89.333 -161 209.333 -161 360l-140 2v-199c0 -54.667 3 -90.667 9 -108c4 -7.33301 16.667 -19 38 -35c24.667 -14.667 37 -32.334 37 -53.001c0 -42 -25.667 -63 -77 -63h-347
c-51.333 0 -77 21 -77 63c0 20.667 12 38.334 36 53.001c22 15.333 35 27 39 35c6 17.333 9 53.333 9 108v465c0 54.667 -3 91 -9 109c-4 7.33301 -17 19 -39 35c-24 14 -36 31.667 -36 53c0 42.667 25.667 64 77 64h347c51.333 0 77 -21.333 77 -64
c0 -21.333 -12.333 -39 -37 -53c-21.333 -16.667 -34 -28.334 -38 -35.001c-6 -18 -9 -54.333 -9 -109v-121h152zM1386 504c0 233.333 -68.668 350 -206.001 350c-82.667 0 -139 -35 -169 -105c-29.333 -70.667 -44 -155.667 -44 -255c0 -110 13 -201.333 39 -274
c26.667 -72.667 83.334 -109 170.001 -109c62.667 0 109.5 19.833 140.5 59.5s50.333 86.667 58 141s11.5 118.5 11.5 192.5z" />
    <glyph glyph-name="caron" unicode="&#xff;" horiz-adv-x="1229" 
d="M643 404c-40 -37.333 -78.999 -83.502 -116.999 -138.502s-57 -92.167 -57 -111.5c0 -9.33301 1.33301 -15.666 4 -18.999s7.66699 -7.83301 15 -13.5s13.333 -12 18 -19s8.66699 -18.5 12 -34.5c0 -28 -9.16699 -46.333 -27.5 -55s-43.833 -13 -76.5 -13h-320
c-62.667 0 -94 20.667 -94 62c0 33.333 15 56.333 45 69c22 10 40.667 28.667 56 56c52.667 100.667 119.667 199 201 295c-140 70.667 -210 156 -210 256c0 44 12.833 85 38.5 123s59.5 67 101.5 87c51.333 24.667 129.666 37 234.999 37h625c54.667 0 82 -23 82 -69
c0 -11.333 -2.66699 -20.333 -8 -27s-14 -13.334 -26 -20.001s-20 -11.667 -24 -15c-17.333 -12.667 -26 -38.667 -26 -78v-569c0 -38.667 8.66699 -64.667 26 -78c1.33301 -0.666992 8.33301 -4.66699 21 -12s22 -14.666 28 -21.999c6 -6.66699 9 -15.667 9 -27
c0 -45.333 -27.333 -68 -82 -68h-336c-61.333 0 -92 22.667 -92 68c0 12 3.33301 21.333 10 28c7.33301 6.66699 17 12.834 29 18.501s21 10.5 27 14.5c12 9.33301 19.333 18 22 26s4 25.333 4 52v186zM592.001 843.998c-52 0 -89.834 -10.335 -113.501 -31.002
s-35.5 -54 -35.5 -100c0 -51.333 32.833 -92.166 98.5 -122.499s135.834 -48.166 210.501 -53.499v223c0 26 -2.83301 44.333 -8.5 55s-19.167 18.167 -40.5 22.5s-58.333 6.5 -111 6.5z" />
    <glyph glyph-name="ntilde" unicode="&#x2013;" horiz-adv-x="1024" 
d="M170 463c-58.667 0 -101.668 6.99902 -129.001 20.999s-41 48 -41 102s11.5 88.333 34.5 103s62.833 22 119.5 22h721c57.333 0 100 -6.16699 128 -18.5s42 -43.166 42 -92.499c0 -42 -5.33301 -72.5 -16 -91.5s-27 -31.167 -49 -36.5c-21.333 -6 -53.666 -9 -96.999 -9
h-713z" />
    <glyph glyph-name="oacute" unicode="&#x2014;" horiz-adv-x="2048" 
d="M170 481c-66.667 0 -110.334 6.99902 -131.001 20.999c-26 22.667 -39 59.667 -39 111c0 50 12.167 81.833 36.5 95.5s63.5 20.5 117.5 20.5h1745c40.667 0 72.334 -2 95.001 -6c23.333 -4 41.666 -14 54.999 -30s20 -40.667 20 -74c0 -42 -5.33301 -72.667 -16 -92
s-27 -31.666 -49 -36.999c-21.333 -6 -53.666 -9 -96.999 -9h-1737z" />
    <glyph glyph-name="edieresis" unicode="&#x2018;" horiz-adv-x="656" 
d="M373 1266c38 0 69.999 -12.1689 95.999 -36.502s39 -55.166 39 -92.499c0 -44.667 -18.333 -80.5 -55 -107.5s-77.667 -40.5 -123 -40.5c-36 0 -68 8.5 -96 25.5s-49.833 40 -65.5 69s-23.5 61.833 -23.5 98.5c0 98.667 46.667 189.334 140 272.001
c56 50.667 97 76 123 76c11.333 0 22.333 -3.66699 33 -11s16 -16 16 -26c0 -6.66699 -4.66699 -14.667 -14 -24c-70.667 -63.333 -112.667 -133 -126 -209c18.667 4 37.334 6 56.001 6z" />
    <glyph glyph-name="iacute" unicode="&#x2019;" horiz-adv-x="656" 
d="M281 1256c-37.333 0 -69.334 12.168 -96.001 36.501s-40 55.166 -40 92.499c0 44 18.667 79.333 56 106c36 26 77 39 123 39c54.667 0 99 -18 133 -54s51 -81.333 51 -136c0 -50.667 -12.833 -99.667 -38.5 -147s-59.167 -89.333 -100.5 -126
c-56 -50.667 -97 -76 -123 -76c-11.333 0 -22.5 3.83301 -33.5 11.5s-16.5 16.167 -16.5 25.5c0 6.66699 5 15 15 25c72.667 67.333 114.334 137 125.001 209c-18 -4 -36.333 -6 -55 -6z" />
    <glyph glyph-name="igrave" unicode="&#x201c;" horiz-adv-x="1106" 
d="M373 1266c38 0 69.999 -12.1689 95.999 -36.502s39 -55.166 39 -92.499c0 -44.667 -18.333 -80.5 -55 -107.5s-77.667 -40.5 -123 -40.5c-36 0 -68 8.5 -96 25.5s-49.833 40 -65.5 69s-23.5 61.833 -23.5 98.5c0 98.667 46.667 189.334 140 272.001
c56 50.667 97 76 123 76c11.333 0 22.333 -3.66699 33 -11s16 -16 16 -26c0 -6.66699 -4.66699 -14.667 -14 -24c-70.667 -63.333 -112.667 -133 -126 -209c18.667 4 37.334 6 56.001 6zM841.999 1266c38 0 70 -12.168 96 -36.501s39 -55.166 39 -92.499
c0 -44.667 -18.333 -80.5 -55 -107.5s-77.667 -40.5 -123 -40.5c-35.333 0 -67 8.5 -95 25.5s-50 40.167 -66 69.5s-24 62 -24 98c0 96 46.667 186.667 140 272c61.333 50.667 103 76 125 76c10 0 20.333 -3.83301 31 -11.5s16 -16.834 16 -27.501
c0 -5.33301 -4.66699 -12.666 -14 -21.999c-70.667 -66 -112.667 -135.667 -126 -209l29 3c12 2 21 3 27 3z" />
    <glyph glyph-name="icircumflex" unicode="&#x201d;" horiz-adv-x="1106" 
d="M750 1256c-36.667 0 -68.334 12.333 -95.001 37s-40 55.334 -40 92.001c0 44.667 18.333 80 55 106s78.334 39 125.001 39c54 0 98.167 -18 132.5 -54s51.5 -81.333 51.5 -136c0 -50.667 -13 -99.667 -39 -147s-60 -89.333 -102 -126c-56 -50.667 -97 -76 -123 -76
c-10 0 -20.333 3.83301 -31 11.5s-16 16.167 -16 25.5s4.66699 17.666 14 24.999c71.333 66 112.333 135.667 123 209c-18 -4 -36.333 -6 -55 -6zM281 1254c-37.333 0 -69.333 12.166 -96 36.499s-40 55.166 -40 92.499c0 44 18.5 79.5 55.5 106.5s78.167 40.5 123.5 40.5
c54.667 0 99 -18.167 133 -54.5s51 -82.166 51 -137.499c0 -98.667 -46.333 -189.667 -139 -273c-54.667 -49.333 -96.334 -74 -125.001 -74c-10.667 0 -21 3.66699 -31 11c-11.333 6.66699 -17 14.667 -17 24c0 6.66699 5 15 15 25
c72.667 70.667 114.334 140.334 125.001 209.001c-18 -4 -36.333 -6 -55 -6z" />
    <glyph glyph-name="Udieresis" unicode="&#x2020;" horiz-adv-x="1065" 
d="M668 637l-67.998 -910.001c-1.33301 -32 -5.5 -56.667 -12.5 -74s-23.167 -26 -48.5 -26c-36 0 -56.667 22 -62 66l-77 944l57 273l-219 -35c-20.667 -4 -40 -6 -58 -6c-30.667 0 -57.667 8 -81 24c-34.667 25.333 -52 61 -52 107c0 36 13 66 39 90
c22 22 50.667 33 86 33c13.333 0 29.666 -1.66699 48.999 -5l236 -36l-37 264c-0.666992 6 -1.83398 15.333 -3.50098 28s-2.5 23.667 -2.5 33c0 30.667 7.33301 57.334 22 80.001c26 35.333 62.333 53 109 53c35.333 0 67.333 -14.333 96 -43c19.333 -22 29 -50.667 29 -86
c0 -9.33301 -1.33301 -26.333 -4 -51l-39 -278l219 36c20 4.66699 41.333 7 64 7c27.333 0 50.333 -6.33301 69 -19c40 -26 60 -63.333 60 -112c0 -34.667 -13.667 -65.667 -41 -93c-23.333 -21.333 -52.666 -32 -87.999 -32c-20.667 0 -41.334 2 -62.001 6l-225 35z" />
    <glyph glyph-name="Odieresis" unicode="&#x2026;" horiz-adv-x="2048" 
d="M148 133c0 34 9.33301 63.668 28 89.001s43.334 44.5 74.001 57.5s62 19.5 94 19.5s63 -7 93 -21s54 -33.667 72 -59c18.667 -26 28 -55.333 28 -88c0 -47.333 -19.667 -86 -59 -116c-38.667 -30.667 -82.667 -46 -132 -46c-50.667 0 -96.334 15.333 -137.001 46
c-40.667 29.333 -61 68.666 -61 117.999zM830 133.001c0 34 9.33105 63.668 27.998 89.001s43.334 44.5 74.001 57.5s62 19.5 94 19.5s63 -7 93 -21s54 -33.667 72 -59c18.667 -26 28 -55.333 28 -88c0 -47.333 -20 -86 -60 -116c-39.333 -30.667 -83.666 -46 -132.999 -46
c-50 0 -95.333 15.333 -136 46c-40 29.333 -60 68.666 -60 117.999zM1512 133.002c0 34 9.33105 63.668 27.998 89.001s43.334 44.5 74.001 57.5s62 19.5 94 19.5s62.833 -7 92.5 -21s53.834 -33.833 72.501 -59.5s28 -54.834 28 -87.501
c0 -47.333 -19.667 -86.166 -59 -116.499s-83.333 -45.5 -132 -45.5c-51.333 0 -97 15.333 -137 46c-40.667 29.333 -61 68.666 -61 117.999z" />
    <glyph glyph-name="ocircumflex" unicode="&#x2122;" horiz-adv-x="1721" 
d="M1286 885c-27.333 -68 -50.9961 -102.004 -70.9961 -102.004c-18 0 -33 11.333 -45 34l-86 195l-97 272l-4 -587c2.66699 -11.333 15.667 -21.666 39 -30.999c27.333 -9.33301 41 -25.666 41 -48.999c0 -30 -22.333 -45 -67 -45c-7.33301 0 -17.333 0.333008 -30 1
s-21.334 1 -26.001 1c-4 0 -11.333 -0.333008 -22 -1s-19 -1 -25 -1c-42 0 -63 15.667 -63 47c0 20 8.66699 35 26 45c13.333 7.33301 21.166 14.333 23.499 21s4.16602 20 5.49902 40l10 594v66c-1.33301 3.33301 -8.66602 8.66602 -21.999 15.999
c-16.667 6 -28.334 12.333 -35.001 19s-10 18 -10 34c0 20.667 5.66699 33.334 17 38.001s29.333 7 54 7h88c26 0 43 -2 51 -6s15 -14 21 -30l10 -35l154 -439c22.667 32.667 49.334 99.667 80.001 201l69 227c6.66699 27.333 13.167 46.333 19.5 57
s16.166 17.5 29.499 20.5s37.333 4.5 72 4.5c5.33301 0 14 0.333008 26 1s21 1 27 1c37.333 0 56 -15.667 56 -47c0 -26.667 -13 -45.667 -39 -57c-12.667 -6.66699 -20.334 -14 -23.001 -22c-2.66699 -7.33301 -4 -20.333 -4 -39v-54l17 -581
c0.666992 -10.667 3.16699 -18.834 7.5 -24.501s10.5 -11.167 18.5 -16.5c8.66699 -5.33301 15 -10.666 19 -15.999s6 -13.666 6 -24.999c0 -20 -5.66699 -32.333 -17 -37c-10.667 -5.33301 -27.667 -8 -51 -8h-100c-22.667 0 -41 2.33301 -55 7
c-14 5.33301 -21 17.333 -21 36c0 22.667 13 38.334 39 47.001c20.667 8.66699 31 19.667 31 33l-6 557zM398.004 571.996c-23.333 0 -41.1699 2.66895 -53.5029 8.00195s-18.5 18.333 -18.5 39c0 22 11.667 36.333 35 43c16 4.66699 26.167 11.667 30.5 21
s6.5 28.333 6.5 57v630c0 17.333 -1 27.833 -3 31.5s-8 5.5 -18 5.5c-14 0 -42 -4 -84 -12c-28 -7.33301 -49.667 -16.666 -65 -27.999c-16 -10.667 -31 -28.667 -45 -54c-11.333 -24.667 -25 -37 -41 -37c-24.667 0 -37 15.667 -37 47c0 5.33301 4 28.666 12 69.999
l10 57.5c2.66699 15 6.16699 25.833 10.5 32.5s11.333 11 21 13s25.834 3 48.501 3h506c21.333 0 37 -1.33301 47 -4s17 -7.33398 21 -14.001c4.66699 -6 8 -16 10 -30c2.66699 -14 5.33398 -29.333 8.00098 -46c8 -31.333 12 -56.666 12 -75.999c0 -32.667 -13 -49 -39 -49
c-14 0 -24.667 10.333 -32 31c-17.333 32.667 -37.666 54.667 -60.999 66c-23.333 12 -56.333 20 -99 24c-10 1.33301 -19.167 2.66602 -27.5 3.99902s-13.5 2 -15.5 2c-8 0 -12 -11 -12 -33v-634c0 -26.667 1.5 -45 4.5 -55s10.167 -16.333 21.5 -19
c30 -10.667 45 -26.334 45 -47.001s-6.33301 -33.667 -19 -39s-31 -8 -55 -8h-124z" />
    <glyph glyph-name=".null" horiz-adv-x="0" 
 />
    <glyph glyph-name="nonmarkingreturn" horiz-adv-x="0" 
 />
  </font>
</defs>
</svg>
