<?xml version="1.0" standalone="no"?>
<!DOCTYPE svg PUBLIC "-//W3C//DTD SVG 1.1//EN" "http://www.w3.org/Graphics/SVG/1.1/DTD/svg11.dtd" >
<svg>
<metadata>
Created by FontForge 20090914 at Sat Jul 12 14:37:27 2014
 By www-data
Lower West Side Type 1 PostScript font &#239;&#191;&#191; 1990 by David Rakowski. Alle Rechte Vorhalten.
</metadata>
<defs>
<font id="LowWeRegular" horiz-adv-x="549" >
  <font-face 
    font-family="LowWe"
    font-weight="5"
    font-stretch="normal"
    units-per-em="1000"
    panose-1="0 0 0 0 0 0 0 0 0 0"
    ascent="800"
    descent="-200"
    x-height="526"
    cap-height="769"
    bbox="-1.99414 -237.999 1020 917"
    underline-thickness="15"
    underline-position="-95"
    unicode-range="U+0020-U+25CA"
  />
<missing-glyph horiz-adv-x="769" 
d="M48 0v769h673v-769h-673zM673 48v673h-577v-673h577z" />
    <glyph glyph-name=".notdef" horiz-adv-x="769" 
d="M48 0v769h673v-769h-673zM673 48v673h-577v-673h577z" />
    <glyph glyph-name="space" unicode=" " horiz-adv-x="374" 
 />
    <glyph glyph-name="space" unicode="&#xa0;" horiz-adv-x="374" 
 />
    <glyph glyph-name="exclam" unicode="!" horiz-adv-x="312" 
d="M140 769c-9.33301 -31.333 -24 -61.167 -44 -89.5s-46 -61.5 -78 -99.5l34 168zM241 724.999c-9.33301 -50.667 -19.5 -98.167 -30.5 -142.5s-24.667 -92.666 -41 -144.999l-46.5 -150.5l-13 -27c-7.33301 -11.333 -15.666 -17 -24.999 -17c-4 0 -7 0.333008 -9 1h-9
c0 76 7.5 157.333 22.5 244l37.5 215c14 4.66699 31.667 8.66699 53 12s41.666 6.66602 60.999 9.99902zM197 207.999c-8 -4 -16.333 -6.66504 -25 -7.99805s-18.667 -2 -30 -2c-0.666992 7.33301 -1.16699 13.666 -1.5 18.999s-0.5 9.66602 -0.5 12.999
c0 59.333 19.667 116.333 59 171l98 136c-20 -44 -35.833 -86.667 -47.5 -128s-29.167 -108.333 -52.5 -201zM18 123.001c-2.66699 2 -4 5.00098 -4 9.00098s1.5 10.167 4.5 18.5l8.5 23.5c2.66699 -0.666992 7.16699 1.16602 13.5 5.49902s11.833 5.5 16.5 3.5zM189 22.002
l-109 -22c0 20 2 41 6 63s9.33301 43.667 16 65c14 4.66699 31.167 9.5 51.5 14.5s38.5 9.16699 54.5 12.5z" />
    <glyph glyph-name="dollar" unicode="$" horiz-adv-x="571" 
d="M252 768l-52.0029 -121.001c5.33301 6 21.666 14.333 48.999 25s41 25 41 43c0 2 -0.666992 7 -2 15l30 5l2 -39c4 0.666992 10 1 18 1c39.333 0 71 -15 95 -45c11.333 0 21.666 -3.33301 30.999 -10s17.166 -15.5 23.499 -26.5s10.333 -21.833 12 -32.5
s2.5 -24.334 2.5 -41.001v-26l-87 -21c0 14.667 -2 26.834 -6 36.501s-12 16.834 -24 21.501c-6 0.666992 -12 -3 -18 -11s-10.333 -12.333 -13 -13c-6 24 -10.667 40 -14 48s-12 12.667 -26 14c-3.33301 2 -8.66602 -0.666992 -15.999 -8l-16 -121
c7.33301 -4.66699 18.333 -7 33 -7l43 56l-12 -80c4 -2 21.5 -7.33301 52.5 -16s53.167 -20.667 66.5 -36c2.66699 -2 6.33398 -8.5 11.001 -19.5s10.334 -15.167 17.001 -12.5l12 13c9.33301 -3.33301 16 -7.66602 20 -12.999s10.333 -20.333 19 -45
c0 -54.667 -11.5 -104.167 -34.5 -148.5s-56.833 -78.166 -101.5 -101.499l-47.5 -18c-12.333 -4.66699 -17.166 -15.334 -14.499 -32.001h-22h-9c-4.66699 1.33301 -5.66699 6 -3 14h-7c0 8.66699 4.16699 20 12.5 34s12.833 22.667 13.5 26
c-5.33301 2 -11.666 1.5 -18.999 -1.5l-20 -8.5c-4 -4.66699 -6.66699 -16.167 -8 -34.5s-7.66602 -28.833 -18.999 -31.5l-20 3c0 4.66699 1 11.667 3 21s3 14.666 3 15.999c0 8 -3.66699 14 -11 18c-4.66699 -0.666992 -11.667 -1 -21 -1c-22 0 -41.5 4.33301 -58.5 13
s-31.167 22.667 -42.5 42c-3.33301 -5.33301 -7.66602 -8 -12.999 -8c-4.66699 0 -9.66699 2.5 -15 7.5s-11.333 11.167 -18 18.5s-12.834 19.166 -18.501 35.499s-8.5 33.833 -8.5 52.5c0 9.33301 0.333008 16.333 1 21c14.667 7.33301 30.167 13.333 46.5 18
s32.833 7 49.5 7c2 -16.667 4 -30.334 6 -41.001s8.66699 -16.667 20 -18c8.66699 11.333 19 19.333 31 24c3.33301 -4 5.83301 -10.833 7.5 -20.5s3.5 -18.5 5.5 -26.5c8 -9.33301 15.167 -15.666 21.5 -18.999s12.833 -5 19.5 -5c1.33301 0 4.66602 0.666992 9.99902 2
c8.66699 22 15 45.5 19 70.5s6 51.167 6 78.5c-4.66699 -0.666992 -13.5 1.16602 -26.5 5.49902s-19.833 6.5 -20.5 6.5c-5.33301 0 -9.5 -1.33301 -12.5 -4s-5.16699 -8.33398 -6.5 -17.001c4.66699 10 7 19 7 27c0 13.333 -14.167 21 -42.5 23s-45.5 7 -51.5 15
c-17.333 8 -29.5 21.333 -36.5 40s-10.5 39.334 -10.5 62.001l-42 -48c-13.333 19.333 -20 41.333 -20 66c0 17.333 2.5 34.833 7.5 52.5s12.167 36.834 21.5 57.501c16.667 29.333 38.834 54.666 66.501 75.999s58.167 38.333 91.5 51
c3.33301 10.667 7.33301 21.834 12 33.501s13.667 15.834 27 12.501zM129.997 546.999c6 2.66699 11.668 9.83301 17.001 21.5s9.66602 19.5 12.999 23.5c-20 -8 -30 -23 -30 -45zM255.998 577.998c-1.33301 0.666992 -3.16699 0.166992 -5.5 -1.5s-4.5 -2.16699 -6.5 -1.5
c-15.333 -10.667 -27.666 -22.167 -36.999 -34.5s-14 -25.833 -14 -40.5c0 -2 0.666992 -6.33301 2 -13c3.33301 -8 9.16602 -13.167 17.499 -15.5s17.833 -3.5 28.5 -3.5zM376.997 274.998c2 -7.33301 3.00098 -14.001 3.00098 -20.001c0 -9.33301 -2 -18.333 -6 -27
s-10.333 -19 -19 -31c-8.66699 -5.33301 -16.667 -9.83301 -24 -13.5s-13.666 -5.5 -18.999 -5.5l21 124c9.33301 0.666992 18.166 -1.66602 26.499 -6.99902s14.166 -12 17.499 -20zM434.998 251.997c-16 -24.667 -29.5 -46.499 -40.5 -65.499s-19.833 -37.167 -26.5 -54.5
c18 4 33.833 13.167 47.5 27.5s22.167 27.166 25.5 38.499s5 19 5 23c0 14.667 -3.66699 25 -11 31z" />
    <glyph glyph-name="ampersand" unicode="&#x26;" horiz-adv-x="667" 
d="M292 769c0 -8 -4.99805 -20.6689 -14.998 -38.002s-15 -30.333 -15 -39c17.333 10.667 33.666 19 48.999 25s31.666 9 48.999 9h12c3.33301 0 9.66602 -1.66699 18.999 -5s18.5 -9.5 27.5 -18.5s16.5 -19.167 22.5 -30.5c2.66699 -10 4 -21.333 4 -34
c0 -7.33301 -0.5 -16.833 -1.5 -28.5s-1.83301 -24.167 -2.5 -37.5c8 5.33301 17.333 14.166 28 26.499l33 39.5c10 -14 15 -33.667 15 -59c0 -15.333 -2 -29 -6 -41c0 -22.667 -17.667 -51.667 -53 -87s-53 -62 -53 -80c0 -8.66699 2.83301 -17.5 8.5 -26.5
s14.834 -18.5 27.501 -28.5c9.33301 8.66699 16.833 19 22.5 31s13.167 30 22.5 54l87 14c-2 -19.333 -9.5 -42.666 -22.5 -69.999l-42.5 -89c8 4.66699 24.167 25 48.5 61s50.833 54 79.5 54c0 -28 -9.16699 -59.5 -27.5 -94.5l-53.5 -100.5l53 -120l-63 -15
c-17.333 -4 -34 -6 -50 -6l-11.5 22.5c-3 5.66699 -6.83301 11.167 -11.5 16.5c-12 -4.66699 -31 -17.834 -57 -39.501s-40.333 -33.167 -43 -34.5c0 10.667 6.16699 26.334 18.5 47.001s18.5 36.334 18.5 47.001c0 8 -1.66699 15 -5 21l-96 -63
c-38.667 -22 -73.667 -33 -105 -33c-10 0 -19.833 1 -29.5 3s-20.167 5.33301 -31.5 10c-7.33301 10 -25.333 22.5 -54 37.5s-45.334 32.167 -50.001 51.5s-7 37.333 -7 54c0 48 14.5 92.667 43.5 134s67.5 82 115.5 122c-6 16.667 -10.667 32.667 -14 48s-5 32.333 -5 51
c0 10 1 19.667 3 29l-62 -61c-8 22 -12 44 -12 66c0 28.667 6.33301 56.334 19 83.001s28.834 49.167 48.501 67.5s39.667 32 60 41s41.833 13.5 64.5 13.5zM318.002 624.998c-12.667 -6.66699 -23.667 -15.498 -33 -26.498s-14 -22.833 -14 -35.5c0 -4 1 -9.33301 3 -16
s4.5 -13.834 7.5 -21.501s8.5 -11.167 16.5 -10.5c20.667 22 34.334 37.167 41.001 45.5s10.667 19.833 12 34.5c1.33301 9.33301 -1.33398 16.666 -8.00098 21.999s-15 8 -25 8zM234.002 344l-21.002 -14c-12 9.33301 -21 14 -27 14
c-7.33301 0 -13.166 -12.5 -17.499 -37.5s-13.166 -38.833 -26.499 -41.5c0 -4.66699 -0.833008 -12.834 -2.5 -24.501s-2.5 -19.167 -2.5 -22.5c0 -9.33301 1.16699 -16.833 3.5 -22.5s7.5 -10.834 15.5 -15.501c5.33301 -4.66699 12.666 -7 21.999 -7c12.667 0 23 4 31 12
c-1.33301 -8.66699 -0.5 -16.5 2.5 -23.5s7.5 -14.833 13.5 -23.5c8 -2.66699 16.333 -4 25 -4c18 0 32.833 4.66699 44.5 14s30.5 26.333 56.5 51c-2.66699 16.667 -8.66699 33.334 -18 50.001l-27 49c-5.33301 0.666992 -12.166 -2.16602 -20.499 -8.49902
s-14.833 -8.83301 -19.5 -7.5c2 4.66699 3 9 3 13z" />
    <glyph glyph-name="quotesingle" unicode="'" horiz-adv-x="188" 
d="M104 762l0.000976562 -122.998c7.33301 8.66699 17.833 26 31.5 52s21.167 39.667 22.5 41h4c0 -70 -6.33301 -120.167 -19 -150.5s-31.667 -53.833 -57 -70.5c-2 4 -3 8 -3 12c0 7.33301 6 19.166 18 35.499s18.333 26.166 19 29.499
c-0.666992 5.33301 0 11.666 2 18.999s3 11.333 3 12c0 4 -1.33301 7.33301 -4 10c-13.333 -1.33301 -25.333 -10.166 -36 -26.499l-35 -54.5c-1.33301 -0.666992 -5 -4 -11 -10s-11.333 -8.33301 -16 -7c-2 5.33301 -3 9.66602 -3 12.999c0 6.66699 3.5 14.334 10.5 23.001
l23.5 28c7.33301 15.333 12 33.333 14 54c-4 2 -7.33301 3 -10 3c-10.667 -2.66699 -21.334 -5 -32.001 -7l4 90l37 15c12.667 5.33301 25 9.33301 37 12z" />
    <glyph glyph-name="parenleft" unicode="(" horiz-adv-x="332" 
d="M231 754c-39.333 -58 -75.6689 -108.333 -109.002 -151s-69 -83 -107 -121c14.667 44.667 34.334 86.667 59.001 126s58.334 87.333 101.001 144c8 6 17 10.333 27 13s20.667 4 32 4zM316.997 727c-50 -71.333 -90.6641 -141.003 -121.997 -209.003
s-51.333 -138.667 -60 -212c13.333 10 30.5 29.333 51.5 58s34.833 46.667 41.5 54c-14.667 -35.333 -26.167 -74.5 -34.5 -117.5s-12.5 -85.5 -12.5 -127.5c0 -40.667 4 -80 12 -118c14 6.66699 28 20 42 40l14 -95h-76c-1.33301 2 -2 5.16699 -2 9.5v9.5l4 5
c-3.33301 2.66699 -7.33301 4 -12 4c-2 0 -7 -1.16699 -15 -3.5s-14 -3.5 -18 -3.5s-7 0.333008 -9 1c-10.667 22.667 -18.334 47.334 -23.001 74.001s-7 54.334 -7 83.001v27c0 7.33301 1.33301 19.333 4 36l-57 -61c-2 19.333 -3 38 -3 56
c0 86.667 18.667 171.834 56 255.501s88 160.167 152 229.5c11.333 0 25.666 0.833008 42.999 2.5s27.666 2.5 30.999 2.5z" />
    <glyph glyph-name="parenright" unicode=")" horiz-adv-x="346" 
d="M185 768c5.33301 -16.667 11.002 -32.998 17.002 -48.998l37 6c22 -57.333 33 -120 33 -188c0 -24.667 -1.33301 -46.334 -4 -65.001l57 56l6 -4c0 -94 -21.167 -184.333 -63.5 -271s-100.833 -169 -175.5 -247c-6.66699 -3.33301 -12.834 -5.33301 -18.501 -6
s-13.834 -1 -24.501 -1c-7.33301 0 -13.833 0.166992 -19.5 0.5s-10.5 0.5 -14.5 0.5c48.667 67.333 89.5 132.5 122.5 195.5s55.167 126.5 66.5 190.5c-14.667 -12 -35.5 -32.333 -62.5 -61s-40.833 -43.334 -41.5 -44.001c28.667 78.667 48 141.167 58 187.5
s15 88.833 15 127.5c0 24 -2 48 -6 72l-49 -41l-12 135c20.667 2 41.667 4.33301 63 7c6.66699 0 12 -0.333008 16 -1z" />
    <glyph glyph-name="comma" unicode="," horiz-adv-x="231" 
d="M132 192c0.666992 -4 1.00195 -8.16504 1.00195 -12.498v-13.5c0 -18 -1.5 -44 -4.5 -78s-4.5 -52.333 -4.5 -55l82 120c0 -92 -9.66699 -158.833 -29 -200.5s-47.333 -71.834 -84 -90.501c0 16 8.16699 34.667 24.5 56s25.666 37.5 27.999 48.5s4.83301 22.167 7.5 33.5
c0 6.66699 -2 12 -6 16c-18.667 -4.66699 -40.334 -24.834 -65.001 -60.501s-46 -55.834 -64 -60.501c-3.33301 6.66699 -5 12 -5 16c0 8.66699 6.83301 18.667 20.5 30s21.5 20.333 23.5 27c7.33301 10.667 12.333 22.667 15 36s4 28 4 44c-4 2 -8 3 -12 3
c-14 -3.33301 -28 -6.33301 -42 -9l4 117c27.333 12.667 48.5 21.334 63.5 26.001s29.167 7 42.5 7z" />
    <glyph glyph-name="hyphen" unicode="-" horiz-adv-x="434" 
d="M410 491l-388 2v29c66.667 0 132 0.333008 196 1l192 2v-34zM416 420l-169 2l169 19v-21z" />
    <glyph glyph-name="period" unicode="." horiz-adv-x="203" 
d="M106 65c-32.667 -16 -64.667 -27.667 -96 -35l5 118c14 6.66699 29.667 13.167 47 19.5s34 11.5 50 15.5zM184 33l-82.001 -33c4 22.667 10.5 46 19.5 70s19.833 45.667 32.5 65l16.5 8.5c5.66699 3 11.834 4.5 18.501 4.5z" />
    <glyph glyph-name="zero" unicode="0" horiz-adv-x="654" 
d="M417 714c-0.666992 -1.33301 -1.99805 -3.49805 -3.99805 -6.49805s-2.33301 -5.83301 -1 -8.5c28 0 53.833 -7.83301 77.5 -23.5s40.5 -37.167 50.5 -64.5c4.66699 -10.667 9 -27.5 13 -50.5s8 -39.5 12 -49.5l51 49c5.33301 -37.333 8 -72.333 8 -105
c0 -92.667 -17.167 -176.334 -51.5 -251.001s-78 -127.334 -131 -158.001s-100.833 -46 -143.5 -46c-16.667 -0 -31.334 1.33301 -44.001 4l13 36c-4 -0.666992 -8.33301 -1 -13 -1h-11c-36.667 0 -66 8.33301 -88 25c-20 17.333 -34.833 37.333 -44.5 60
s-14.5 47.667 -14.5 75l-5 8c-0.666992 -0.666992 -6.83398 -8.5 -18.501 -23.5s-21.834 -23.5 -30.501 -25.5c-8 39.333 -12 79 -12 119c0 72.667 13.167 142.667 39.5 210s65.5 126 117.5 176c25.333 20 52 36.333 80 49s55.333 19 82 19
c11.333 0 22.833 -1.33301 34.5 -4s22.834 -7 33.501 -13zM282.002 614.002c-50.667 -30 -86.1631 -73.001 -106.496 -129.001s-30.5 -118.667 -30.5 -188l91 120c-1.33301 -8.66699 -5.33301 -31.667 -12 -69s-10 -66 -10 -86c0 -18.667 2.16699 -36.167 6.5 -52.5
s11.5 -31.833 21.5 -46.5c9.33301 -6 18.333 -9 27 -9c9.33301 0 23.166 3.83301 41.499 11.5s30.833 12.167 37.5 13.5l-27 -63h47c54.667 26.667 93.167 68.334 115.5 125.001s33.5 120.667 33.5 192l-103 -145c1.33301 8 6.66602 33 15.999 75s14 76.667 14 104
c0 28.667 -4 54.667 -12 78c-2.66699 12.667 -8.33398 21.5 -17.001 26.5s-19.334 7.5 -32.001 7.5c-10.667 0 -19.5 -0.833008 -26.5 -2.5s-15.167 -4.5 -24.5 -8.5l16 37c-11.333 10 -24.333 15 -39 15c-8.66699 0 -17.667 -2 -27 -6z" />
    <glyph glyph-name="one" unicode="1" horiz-adv-x="420" 
d="M133 558c28 5.33301 54.167 19.165 78.5 41.498s40.166 47.5 47.499 75.5c32.667 11.333 63.334 17 92.001 17c-4 -41.333 -11.5 -86.333 -22.5 -135l-31.5 -142c12.667 12 29.667 34 51 66s39 54.667 53 68l-85 -457c3.33301 -28.667 -9 -46 -37 -52l-72 -12l-5 7
l49 290c-15.333 -16.667 -31.666 -37.5 -48.999 -62.5l-50 -71.5c12 39.333 24 93.333 36 162s19.667 111 23 127c-12.667 0 -33 -2.66699 -61 -8s-49.333 -8 -64 -8c-2.66699 9.33301 -0.333984 20.5 6.99902 33.5s9.66602 22.167 6.99902 27.5l-80 -17
c-0.666992 3.33301 -1 8.33301 -1 15c0 10.667 1 20.834 3 30.501s5 19.834 9 30.501c36.667 8 69.834 23.667 99.501 47s50.5 52.333 62.5 87l32 13zM370 10.999c-6 -2 -15.167 -3.83301 -27.5 -5.5s-22.833 -3.5 -31.5 -5.5l76 112c0 -14 -1.33301 -28 -4 -42
s-7 -33.667 -13 -59z" />
    <glyph glyph-name="two" unicode="2" horiz-adv-x="559" 
d="M299 730l-9.50293 -26.001c-2.33301 -6.66699 -6.16602 -13 -11.499 -19c2.66699 -2.66699 6.33398 -4 11.001 -4l30.5 5c8.33301 1.33301 16.5 2 24.5 2c24 0 46 -6 66 -18c14.667 -11.333 25.5 -25.333 32.5 -42s10.5 -35 10.5 -55c0 -6.66699 -0.5 -14 -1.5 -22
s-1.83301 -14 -2.5 -18c6.66699 3.33301 14.334 10.666 23.001 21.999l29 38c7.33301 -10 12.333 -20.667 15 -32s4 -24.333 4 -39s-1.5 -30 -4.5 -46s-5.16699 -28.333 -6.5 -37c-12.667 -38.667 -30.667 -71.5 -54 -98.5s-58.166 -61.167 -104.499 -102.5
s-80.166 -75 -101.499 -101v-9c30 0 64.5 4.33301 103.5 13l112.5 25l-17 -51c6.66699 -1.33301 12 -2 16 -2c6.66699 0 18 1.66699 34 5s27.667 5 35 5c0 -21.333 -1.33301 -40.5 -4 -57.5s-8.33398 -30.5 -17.001 -40.5l-116 -25l19 56h-22
c-40 -11.333 -81.667 -21.333 -125 -30s-90 -16.334 -140 -23.001l22 57l-125 -26c8 68 44 136.833 108 206.5l186 198.5c8 13.333 14.667 27.333 20 42s8 29 8 43c0 16 -3.66699 30 -11 42c-4.66699 4 -10 6.83301 -16 8.5s-13.333 2.5 -22 2.5h-12
c-5.33301 -1.33301 -9 -2 -11 -2c-24 -9.33301 -43.333 -26 -58 -50s-24.334 -50.667 -29.001 -80c-6 -5.33301 -14.667 -8.66602 -26 -9.99902s-22 -2.66602 -32 -3.99902c9.33301 19.333 28.666 53.833 57.999 103.5s46.333 78.834 51 87.501
c-20 0 -39.5 -8.16699 -58.5 -24.5s-33.167 -34.833 -42.5 -55.5l-19 -64c-29.333 -4.66699 -58.666 -9 -87.999 -13c4 46 17.667 89.833 41 131.5s54 74.167 92 97.5c24.667 12.667 45.5 22 62.5 28s36.167 9 57.5 9c6.66699 0 11.667 -0.333008 15 -1zM370.997 384.999
l22 43l-43 -62zM286.997 290.999l-98 -113c12 -2 23.667 0.666992 35 8z" />
    <glyph glyph-name="three" unicode="3" horiz-adv-x="567" 
d="M235 672c22 6 41.1641 11.0039 57.4971 15.0039s31.166 6 44.499 6c25.333 0 45.5 -5.83301 60.5 -17.5s24.833 -23.334 29.5 -35.001s8 -26.5 10 -44.5l33 35c10 -10 17.333 -22 22 -36s7 -28.667 7 -44c0 -14.667 -1.83301 -29.334 -5.5 -44.001
s-10.5 -31.834 -20.5 -51.501s-28.333 -39.834 -55 -60.501l35 -29c10 -8.66699 17 -18.667 21 -30c2 -9.33301 3 -17.666 3 -24.999v-24c0 -6.66699 0.333008 -12.334 1 -17.001l52 49c6.66699 -20 10 -42.333 10 -67c0 -30 -4.66699 -57.833 -14 -83.5
s-24 -49.167 -44 -70.5c-19.333 -23.333 -42.166 -43 -68.499 -59s-55.166 -29 -86.499 -39l38 83c-8 -1.33301 -19.833 -7.16602 -35.5 -17.499s-27.5 -16.166 -35.5 -17.499c-15.333 -5.33301 -30 -9.5 -44 -12.5s-28 -4.5 -42 -4.5c-14.667 0 -28.5 2 -41.5 6
s-24.5 11 -34.5 21l-8 24c-4.66699 -4.66699 -9.66699 -7 -15 -7c-3.33301 0 -6.83301 0.666992 -10.5 2s-8.5 3.33301 -14.5 6c-18 12 -31.167 28.167 -39.5 48.5s-12.5 42.5 -12.5 66.5c0 18 2 36 6 54l91 21c1.33301 -18.667 3 -37 5 -55
c4.66699 -20 16.334 -33.333 35.001 -40c7.33301 -2.66699 13.5 -0.666992 18.5 6l14.5 19c-0.666992 -3.33301 -1 -8.33301 -1 -15c0 -22 9 -38 27 -48c7.33301 -2.66699 15.333 -4 24 -4c12 0 24 2.66699 36 8s24 12.333 36 21c14.667 15.333 26.167 31 34.5 47
s12.5 32.333 12.5 49c0 10.667 -2 22 -6 34c-10 18 -26.667 27 -50 27c-6 0 -12.667 -1 -20 -3c-1.33301 -1.33301 -3.33301 -1.83301 -6 -1.5s-5 0.5 -7 0.5c0 2.66699 0.666992 6.66699 2 12s2 9.66602 2 12.999c0 6 -4 11.333 -12 16l-70 -3l11 75
c26 8.66699 49 19 69 31s33 24.333 39 37s9.33301 21.5 10 26.5s1 11.167 1 18.5c0 12 -1.83301 22 -5.5 30s-8.5 13.333 -14.5 16s-12.667 4 -20 4h-12c-5.33301 -1.33301 -9 -2 -11 -2c-24 -7.33301 -43.833 -22 -59.5 -44s-26.5 -46 -32.5 -72l-75 -15
c-3.33301 6.66699 -1.33301 14.667 6 24s11 16.333 11 21h-15c-10.667 0 -25.667 -0.833008 -45 -2.5s-31.333 -2.5 -36 -2.5c8.66699 49.333 28.5 94.666 59.5 135.999s69.167 68.333 114.5 81c20.667 4 41.334 8.33301 62.001 13zM401.997 526.004l-74 -117
c21.333 10.667 39 27 53 49s21 44.667 21 68z" />
    <glyph glyph-name="four" unicode="4" horiz-adv-x="635" 
d="M465 731l-7.00098 -51.5c-2 -14.333 -3 -26.5 -3 -36.5c15.333 13.333 27.833 23.833 37.5 31.5s21.167 11.5 34.5 11.5c-6.66699 -57.333 -15.5 -118.333 -26.5 -183l-32.5 -191c8 -2 16.667 -3 26 -3c22.667 0 40.667 6.66699 54 20c2 -3.33301 3 -7 3 -11
s-1.33301 -10.333 -4 -19s-4 -15 -4 -19c0 -7.33301 3.66699 -13 11 -17c4.66699 -1.33301 11.5 -1 20.5 1s14.5 3 16.5 3c6 0 10.667 -3 14 -9l-17 -86l-45 -13c-12 -3.33301 -21 -9 -27 -17l-27 -117c-18.667 -7.33301 -36.167 -13.333 -52.5 -18s-32.833 -7 -49.5 -7
c0 15.333 2 32.833 6 52.5s7 34.834 9 45.501c-2.66699 -0.666992 -12.5 -10.167 -29.5 -28.5s-30.833 -27.5 -41.5 -27.5c-4.66699 0 -10 1 -16 3c0 14 2.5 35.667 7.5 65s7.5 50 7.5 62c-23.333 -2.66699 -42.166 -5.33398 -56.499 -8.00098s-56.5 -11.334 -126.5 -26.001
c2 10 5.33301 19.667 10 29s9.66699 18.666 15 27.999l-7 6l-136 -23c0 26.667 2.5 51.334 7.5 74.001s10.167 44.334 15.5 65.001l296 388c36.667 17.333 75.667 26 117 26zM314.999 534l-100.5 -130.002c-27 -36 -50.167 -71 -69.5 -105c9.33301 0 24.5 3 45.5 9
s35.833 9 44.5 9l5 -5c-1.33301 -6 -5.83301 -15.167 -13.5 -27.5s-11.834 -21.166 -12.501 -26.499l79.5 13.5c21 3.66699 41.5 9.83398 61.5 18.501l32 195l-35 -39c-4 1.33301 -6 4 -6 8c0.666992 6 1.33398 12.333 2.00098 19l-41 -48c0 8.66699 1.66699 24 5 46
s5 37 5 45c0 4 -0.666992 10 -2 18z" />
    <glyph glyph-name="five" unicode="5" horiz-adv-x="592" 
d="M178 731c-9.33301 -25.333 -19.5 -46.668 -30.5 -64.001s-44.167 -63.666 -99.5 -138.999c7.33301 12 18 48.833 32 110.5s46.667 92.5 98 92.5zM445 724.998c-2 -5.33301 -6.50195 -13.9971 -13.502 -25.9971s-11.167 -21.667 -12.5 -29c11.333 0 30.5 2.83301 57.5 8.5
s45.5 8.5 55.5 8.5c0.666992 -3.33301 1 -9 1 -17c0 -12 -1.16699 -23.5 -3.5 -34.5s-6.16602 -24.5 -11.499 -40.5l-166 -43c-1.33301 6.66699 2.5 16.667 11.5 30s13.833 23.333 14.5 30c-20 0 -43 -3 -69 -9l-75 -17l-39 -102l7 -6l55 26c22 8.66699 43.333 13 64 13
l-39 -73c21.333 8 40 14.667 56 20s30.667 9 44 11h12c20.667 0 38.667 -5.83301 54 -17.5s27.666 -28.167 36.999 -49.5c2.66699 -2.66699 5 -9 7 -19s5.66699 -17 11 -21c4.66699 1.33301 10 6.83301 16 16.5s11 14.5 15 14.5c3.33301 0 7 -2.33301 11 -7
c6.66699 -13.333 11.5 -26.833 14.5 -40.5s4.5 -28.834 4.5 -45.501c0 -26 -4.33301 -53 -13 -81s-19.667 -55.333 -33 -82c-30.667 -43.333 -67.667 -78 -111 -104s-89.666 -39 -138.999 -39l23 52l-47 -9c-10.667 -2 -23.334 -3 -38.001 -3c-22 0 -41 4.16699 -57 12.5
s-28.667 20.666 -38 36.999s-17 34.833 -23 55.5l-37 -32c-8 10.667 -14 24 -18 40s-6 31.667 -6 47c0 12 1 23.667 3 35l87 21l14 -42c0 -2 -0.666992 -5 -2 -9c5.33301 -2 10 -3 14 -3c4.66699 0 12.667 1.83301 24 5.5s19 5.16699 23 4.5c5.33301 -20 11 -36 17 -48
s16.333 -19 31 -21c30 0 57.667 8.5 83 25.5s44.333 39.167 57 66.5c2.66699 8.66699 5.33398 19.167 8.00098 31.5s4 23.166 4 32.499c0 14 -2.33301 26 -7 36s-11.5 17.5 -20.5 22.5s-18.833 7.5 -29.5 7.5c-9.33301 0 -19.666 -1.16699 -30.999 -3.5
s-28.333 -11.833 -51 -28.5s-40.334 -26 -53.001 -28c2 8.66699 10.5 25 25.5 49s24.167 40.667 27.5 50c-17.333 -2 -42 -13.167 -74 -33.5s-59.333 -30.5 -82 -30.5c-7.33301 0 -15.666 1 -24.999 3c12.667 46.667 28.5 98.5 47.5 155.5s39.167 114.167 60.5 171.5
c26 12 62.667 21.833 110 29.5zM450.998 287.001l-118.999 -181.999c17.333 2.66699 33.5 8.66699 48.5 18s28.167 21 39.5 35s20.166 29.667 26.499 47s9.5 33.666 9.5 48.999c0 10 -1.66699 21 -5 33z" />
    <glyph glyph-name="six" unicode="6" horiz-adv-x="652" 
d="M412 727c2.66699 -4.66699 1.83301 -11.166 -2.5 -19.499s-6.16602 -14.5 -5.49902 -18.5c9.33301 2 19 3 29 3c13.333 0 27.166 -2 41.499 -6s26.833 -10 37.5 -18c14 -14 24.167 -30.167 30.5 -48.5s9.5 -38.833 9.5 -61.5
c-7.33301 -1.33301 -22 -4.66602 -44 -9.99902s-39 -8.66602 -51 -9.99902c-6 13.333 -11.5 24.666 -16.5 33.999s-12.5 16 -22.5 20h-12c-12.667 0 -24.334 -1.5 -35.001 -4.5s-23 -7.5 -37 -13.5l25 53c-12 6 -24.333 9 -37 9c-14 0 -26.833 -2.5 -38.5 -7.5
s-25.5 -14.5 -41.5 -28.5s-29.833 -31.333 -41.5 -52s-20.5 -44 -26.5 -70c7.33301 1.33301 21.833 8.33301 43.5 21s37.834 20 48.501 22l-18 -84c10.667 3.33301 32.334 12.833 65.001 28.5s61.667 23.5 87 23.5c4 0 11.333 -0.666992 22 -2c12.667 0 28.5 -9 47.5 -27
s35.5 -25.667 49.5 -23c16.667 -11.333 29.667 -26.333 39 -45s16 -39.334 20 -62.001c0 -64.667 -14.167 -124 -42.5 -178s-61.166 -89.333 -98.499 -106s-66.5 -28.5 -87.5 -35.5s-41.167 -10.5 -60.5 -10.5c-22 0 -41.333 5 -58 15
c-1.33301 3.33301 -0.833008 7.83301 1.5 13.5s3.5 8.83398 3.5 9.50098c-23.333 4 -42.833 8.66699 -58.5 14s-30.5 14.666 -44.5 27.999s-23.333 30.666 -28 51.999s-7 46.666 -7 75.999v38l-63 -58c-4 27.333 -6 54.333 -6 81c0 84 17.333 163 52 237s85 138 151 192
c17.333 10.667 37.166 18.834 59.499 24.501s45.166 8.5 68.499 8.5c8 0 16.333 -0.5 25 -1.5s17.667 -1.83301 27 -2.5zM617.999 517.001l-63 -16c6.66699 14 15 26.5 25 37.5s22.333 23.167 37 36.5l5 -5zM230.999 303.001l-18.498 -44.501
c-6.33301 -15.667 -9.5 -30.167 -9.5 -43.5c0 -8.66699 2 -17.667 6 -27c4 -14 11.667 -23.667 23 -29s25 -8 41 -8c13.333 0.666992 23 1 29 1l-9 -30c12 -10 27 -16 45 -18c26 0 49.833 9.5 71.5 28.5s39.167 42.167 52.5 69.5c2.66699 10 5 20.167 7 30.5
s3 20.833 3 31.5c0 20 -4.66699 36.667 -14 50c-6.66699 11.333 -14.334 17 -23.001 17c-10.667 0 -21 -7.66699 -31 -23c-4 3.33301 -6 11 -6 23c-1.33301 6.66699 -2.33301 11.334 -3 14.001c-7.33301 10.667 -15.833 18.667 -25.5 24s-19.834 8 -30.501 8
c-19.333 0 -39.333 -7.5 -60 -22.5s-36.667 -32.167 -48 -51.5z" />
    <glyph glyph-name="seven" unicode="7" horiz-adv-x="578" 
d="M409 731l-22.998 -56c22.667 0 53.834 4.16699 93.501 12.5s63.5 12.833 71.5 13.5c0.666992 -4 1 -10 1 -18c0 -40 -21.167 -89.833 -63.5 -149.5s-67.5 -100.167 -75.5 -121.5c-30.667 -44.667 -56.834 -99.667 -78.501 -165l-61.5 -189l-105 -26
c9.33301 62 26.333 124.167 51 186.5s51.667 118.333 81 168s68.666 111.5 117.999 185.5c-28.667 -2.66699 -52.5 -6.33398 -71.5 -11.001s-36.167 -12.667 -51.5 -24l-110 -180c16 37.333 34.833 73.833 56.5 109.5l88.5 140.5l-233 -48l12 101
c-14 -15.333 -27.333 -28.5 -40 -39.5s-27 -16.5 -43 -16.5c0 14 0.666992 26.167 2 36.5s4.66602 28.5 9.99902 54.5c10 5.33301 18.667 9.33301 26 12s31 9.33398 71 20.001l-30 -62c44 5.33301 93 14.5 147 27.5zM348.002 14l-84.999 -14
c11.333 28 39.666 76.167 84.999 144.5s70 106.5 74 114.5z" />
    <glyph glyph-name="eight" unicode="8" horiz-adv-x="642" 
d="M400 730c2 -3.33301 0.835938 -8.99609 -3.49707 -16.9961s-6.5 -13.667 -6.5 -17c0 -4 2.33301 -7.33301 7 -10c7.33301 1.33301 14.166 2.33301 20.499 3s14.166 1 23.499 1c26 0 48 -4.66699 66 -14c28 -20.667 42 -50 42 -88c0 -31.333 -8.33301 -60.333 -25 -87
s-38.667 -52.334 -66 -77.001l14 -12l135 170c4 -15.333 6 -29.666 6 -42.999c0 -29.333 -7.5 -57.333 -22.5 -84s-34.5 -50.334 -58.5 -71.001c17.333 -12 29.666 -27.833 36.999 -47.5s11 -40.834 11 -63.501c0 -16 -1 -31.667 -3 -47
c-12 -52.667 -38.5 -98.834 -79.5 -138.501s-88.167 -67.167 -141.5 -82.5c-20 -3.33301 -39.333 -5 -58 -5c-25.333 0 -48 3 -68 9c-2 2.66699 -1.66699 8.66699 1 18s4 14.333 4 15c-27.333 0 -49.333 1.83301 -66 5.5s-31.334 13.5 -44.001 29.5
c-11.333 11.333 -19.5 25.166 -24.5 41.499s-7.5 34.5 -7.5 54.5c0 21.333 2.66699 42 8 62c-10.667 -6.66699 -21.667 -17.667 -33 -33l-33 -44c-4 17.333 -6 34.333 -6 51c0 38.667 9.66699 75.667 29 111s46.333 67 81 95c-2 6.66699 -6.16699 13.834 -12.5 21.501
l-18.5 22.5c-4 14 -6 28 -6 42c0 26 5.33301 50.167 16 72.5s25.334 45.166 44.001 68.499c30 30 65 52.167 105 66.5s84.333 21.5 133 21.5zM348.003 634.004h-35.999c-22 -3.33301 -42.5 -12.833 -61.5 -28.5s-30.5 -31 -34.5 -46s-6.16699 -24.167 -6.5 -27.5
s-0.5 -9 -0.5 -17c0 -6 0.666992 -11.667 2 -17s5 -10.333 11 -15c5.33301 -6 10.666 -9 15.999 -9s10.833 2.16699 16.5 6.5s11.167 8.83301 16.5 13.5c2 -3.33301 3 -8.33301 3 -15c0 -10.667 1.5 -18.834 4.5 -24.501s8.83301 -10.167 17.5 -13.5s19 -5 31 -5h21
c17.333 8 32.833 16.833 46.5 26.5s24.167 21.5 31.5 35.5l7 25c2.66699 9.33301 4 17.666 4 24.999c0 10.667 -2.83301 19.834 -8.5 27.501s-11.667 12.834 -18 15.501s-13.5 4 -21.5 4c-10.667 0 -23.167 -2.66699 -37.5 -8l-29.5 -11zM330.004 342.004
c-24 -2.66699 -46.501 -12.999 -67.501 -30.999s-36.833 -39 -47.5 -63c-4.66699 -16.667 -7 -31.667 -7 -45c0 -16 3.33301 -28 10 -36s13.5 -13 20.5 -15s14.167 -3 21.5 -3c8 0 15.5 0.333008 22.5 1l21.5 2c-0.666992 -3.33301 -3.5 -9.5 -8.5 -18.5
s-6.16699 -15.5 -3.5 -19.5c10 -2 17.333 -3.33301 22 -4s12.334 -1 23.001 -1c18 0 35 2.83301 51 8.5s29.333 15.5 40 29.5c14 12 24.833 26.167 32.5 42.5s11.5 33.5 11.5 51.5c0 9.33301 -1.66699 19.666 -5 30.999c-14.667 24 -34 36 -58 36
c-5.33301 0 -9.33301 -0.333008 -12 -1v7c-4 10 -10.833 17.167 -20.5 21.5s-21.167 6.5 -34.5 6.5h-12z" />
    <glyph glyph-name="nine" unicode="9" horiz-adv-x="644" 
d="M279 731c0 -6.66699 -3.33105 -17.1719 -9.99805 -31.5049s-10 -22.5 -10 -24.5c17.333 4.66699 35.5 9 54.5 13s36.167 6 51.5 6c17.333 0 33 -2.5 47 -7.5s26 -13.167 36 -24.5l25 -46l29 17c16 -20.667 27.5 -44.667 34.5 -72s10.5 -55.666 10.5 -84.999
c0 -32.667 -2.83301 -66.5 -8.5 -101.5s-9.5 -59.167 -11.5 -72.5l88 112c-9.33301 -98.667 -34.5 -186.5 -75.5 -263.5s-102.5 -127.167 -184.5 -150.5c4 10.667 9.16699 23.334 15.5 38.001s13.5 29.334 21.5 44.001c-22.667 -12.667 -46.334 -23.167 -71.001 -31.5
s-49 -12.5 -73 -12.5s-45.667 4.66699 -65 14c-5.33301 4 -10.666 8.33301 -15.999 13s-8 9.66699 -8 15c0 3.33301 2 7 6 11v4c-5.33301 -10 -12.333 -15 -21 -15c-6.66699 0 -14 2.83301 -22 8.5l-24.5 18c-8.33301 6.33301 -14.666 14.666 -18.999 24.999
s-7.83301 30.5 -10.5 60.5l54 20.5c14.667 5.66699 29 8.5 43 8.5c1.33301 -12.667 5.16602 -23.667 11.499 -33s15.166 -15.333 26.499 -18l25 8c2 -10 6.16699 -19 12.5 -27s14.5 -13 24.5 -15c19.333 -2 36.833 0.5 52.5 7.5s32.167 18.5 49.5 34.5
c14.667 18.667 26.834 37.5 36.501 56.5s15.834 38.5 18.501 58.5c-24 -13.333 -41.5 -23.666 -52.5 -30.999s-20.167 -15.333 -27.5 -24c-2.66699 0.666992 -6.66699 1 -12 1c-6.66699 0 -18.334 -1.66699 -35.001 -5s-29 -5 -37 -5c-2.66699 0 -8 0.666992 -16 2
c0 7.33301 1.83301 14.166 5.5 20.499l11.5 19.5c-10 -1.33301 -18.333 -2.16602 -25 -2.49902s-14.334 -0.5 -23.001 -0.5c-19.333 0 -33.833 1.66699 -43.5 5s-20 10.5 -31 21.5s-20.333 25 -28 42s-14.167 37.5 -19.5 61.5l-42 -46
c-6.66699 14 -11.334 27.833 -14.001 41.5s-4 28.167 -4 43.5c0 30 5.5 60.167 16.5 90.5s26.167 59.833 45.5 88.5c23.333 30.667 51.5 56.334 84.5 77.001s67.5 33.334 103.5 38.001zM224.002 627.995c-27.333 -16 -49.667 -36.667 -67 -62s-26 -52.333 -26 -81v-12
c24 34 43 61.833 57 83.5s26 45.5 36 71.5zM313.001 590.995c-24 -6.66699 -46 -20.001 -66 -40.001s-32.833 -40.167 -38.5 -60.5s-8.5 -37.5 -8.5 -51.5c0 -12 1.83301 -22.833 5.5 -32.5s9.83398 -17.834 18.501 -24.501c6 -3.33301 14 -5 24 -5
c8.66699 0 16.5 0.666992 23.5 2s12.5 2.33301 16.5 3c26.667 16.667 48 38.834 64 66.501s24 56.834 24 87.501c0 8 -1 16 -3 24s-8.83301 15.167 -20.5 21.5s-24.834 9.5 -39.501 9.5zM431.001 536.994c-32 -44 -57.333 -81 -76 -111s-34.334 -61.333 -47.001 -94l22 3
c26 6.66699 49.833 21.667 71.5 45s34.334 43.833 38.001 61.5s5.5 31.167 5.5 40.5c0 22 -4.66699 40.333 -14 55z" />
    <glyph glyph-name="colon" unicode=":" horiz-adv-x="216" 
d="M112 522c-2.66699 -10 -12 -17.333 -28 -22s-28 -8 -36 -10l-12 -74c-8 -1.33301 -12 -7.33301 -12 -18v-27c6.66699 -1.33301 11.334 -2 14.001 -2c10.667 0 26 4.16699 46 12.5s34.667 12.5 44 12.5l-13 -49c18.667 4.66699 34.334 8.83398 47.001 12.501
s24.667 8.5 36 14.5l9 118c-16 1.33301 -29.5 -5.83398 -40.5 -21.501l-30.5 -43.5l9 88c-0.666992 0.666992 -3.16699 2 -7.5 4s-6.5 4.66699 -6.5 8c-2.66699 0.666992 -5.83398 0.166992 -9.50098 -1.5s-6.83398 -2.16699 -9.50098 -1.5zM106 65
c-32.667 -16 -64.667 -27.667 -96 -35l5 118c14 6.66699 29.667 13.167 47 19.5s34 11.5 50 15.5zM184 33l-82.001 -33c4 22.667 10.5 46 19.5 70s19.833 45.667 32.5 65l16.5 8.5c5.66699 3 11.834 4.5 18.501 4.5z" />
    <glyph glyph-name="semicolon" unicode=";" horiz-adv-x="231" 
d="M128 408l-102 -30.001c2.66699 10 5 29 7 57s4.66699 49 8 63c20.667 8.66699 38.667 15.334 54 20.001s32 7.66699 50 9zM206 373.999l-91 -29c7.33301 22 15.833 43.667 25.5 65s21.5 44 35.5 68c9.33301 4 17 7 23 9s12 2.33301 18 1zM132 191.999
c0.666992 -4 1.00195 -8.16504 1.00195 -12.498v-13.5c0 -18 -1.5 -44 -4.5 -78s-4.5 -52.333 -4.5 -55l82 120c0 -92 -9.66699 -158.833 -29 -200.5s-47.333 -71.834 -84 -90.501c0 16 8.16699 34.667 24.5 56s25.666 37.5 27.999 48.5s4.83301 22.167 7.5 33.5
c0 6.66699 -2 12 -6 16c-18.667 -4.66699 -40.334 -24.834 -65.001 -60.501s-46 -55.834 -64 -60.501c-3.33301 6.66699 -5 12 -5 16c0 8.66699 6.83301 18.667 20.5 30s21.5 20.333 23.5 27c7.33301 10.667 12.333 22.667 15 36s4 28 4 44c-4 2 -8 3 -12 3
c-14 -3.33301 -28 -6.33301 -42 -9l4 117c27.333 12.667 48.5 21.334 63.5 26.001s29.167 7 42.5 7z" />
    <glyph glyph-name="question" unicode="?" horiz-adv-x="586" 
d="M277 728c25.333 5.33301 49.999 8.00488 73.999 8.00488c24.667 0 46.5 -3.33301 65.5 -10s36.167 -18 51.5 -34l27 -44c4 0.666992 8 3 12 7s7.33301 6.33301 10 7c15.333 -12 26.333 -27.5 33 -46.5s10 -40.167 10 -63.5c0 -5.33301 -0.333008 -10.833 -1 -16.5
s-1.83398 -18.667 -3.50098 -39s-31 -62 -88 -125s-88.167 -108.5 -93.5 -136.5l-108 -19c0 12 1.5 29 4.5 51s4.5 33.333 4.5 34c-8 -3.33301 -15.833 -12.333 -23.5 -27s-16.167 -22 -25.5 -22l-11 2c-2 9.33301 -3 18.333 -3 27c0 34.667 28.667 86 86 154
s86.5 103.667 87.5 107s1.5 8.33301 1.5 15c0 14 -3.5 26.5 -10.5 37.5s-14.167 18.5 -21.5 22.5s-13.666 6.5 -18.999 7.5s-10.666 1.5 -15.999 1.5c-8.66699 0 -18.667 -1.66699 -30 -5s-22 -6.33301 -32 -9c-20 -12 -36.833 -28.333 -50.5 -49
s-23.5 -43.334 -29.5 -68.001c-6 1.33301 -15.5 1 -28.5 -1s-21.833 -2.66699 -26.5 -2c4.66699 18 20.334 45.833 47.001 83.5s41.667 60.5 45 68.5c-22 -4.66699 -40.5 -17.834 -55.5 -39.501s-26.5 -45.834 -34.5 -72.501c-10.667 -6 -25.334 -10 -44.001 -12
s-36.667 -3.66699 -54 -5c0 37.333 9.5 72.166 28.5 104.499s45.167 63.833 78.5 94.5c22 14.667 45.5 26.167 70.5 34.5s53.5 15.166 85.5 20.499zM377.999 175.005c0 -19.333 -1.66699 -39 -5 -59s-8.33301 -43.667 -15 -71l-119 -18l15 127
c14.667 4.66699 36.667 9 66 13zM412.999 11.0049l-51 -11c2 16 8.5 32 19.5 48s25.167 33.333 42.5 52c0 -20 -0.5 -36.833 -1.5 -50.5s-4.16699 -26.5 -9.5 -38.5zM432.999 542.005c-20 -22.667 -38.667 -47.5 -56 -74.5s-31.333 -52.833 -42 -77.5
c25.333 21.333 48 42 68 62s30 46 30 78v12z" />
    <glyph glyph-name="A" unicode="A" horiz-adv-x="758" 
d="M416 769c2 -4 3 -8.00195 3 -12.002c0 -5.33301 -2.83301 -13.666 -8.5 -24.999s-6.83398 -19.333 -3.50098 -24l86 17l45 -260l51 64l55 -349l52 64c4.66699 -25.333 9.83398 -60.166 15.501 -104.499s9.83398 -81.833 12.501 -112.5c-10 -4 -28.5 -8.66699 -55.5 -14
s-44.833 -9.66602 -53.5 -12.999c-3.33301 8.66699 -6 23.667 -8 45s-5.66699 36.666 -11 45.999c-4.66699 -2.66699 -11 -10.667 -19 -24s-16.333 -20 -25 -20c-1.33301 0 -4.66602 0.666992 -9.99902 2l-17 118c-27.333 0 -61 -5 -101 -15s-64.333 -15.667 -73 -17
c0 6 3.83301 15.667 11.5 29s11.5 22.333 11.5 27c0 2.66699 -1 5.66699 -3 9l-115 -27c-10 -16.667 -21 -39 -33 -67l-34 -79l-100 -20c21.333 58 45.166 118.167 71.499 180.5l84.5 198c30 69.667 53.667 127.167 71 172.5l-18 -18l-263 -418l272 626
c13.333 0 29.166 2.16699 47.499 6.5zM435 319.998l-20 238l-110 -267zM496 388.998l-80 -134c8.66699 0 22.167 1.33301 40.5 4s36.833 5.66699 55.5 9z" />
    <glyph glyph-name="B" unicode="B" horiz-adv-x="722" 
d="M123 768c-11.333 -22 -25.166 -45 -41.499 -69l-48.5 -71l38 125c9.33301 5.33301 17.166 9.33301 23.499 12s12.833 4 19.5 4c4 0 7 -0.333008 9 -1zM392 768c0 -6.66699 -3.16504 -17.1709 -9.49805 -31.5039s-9.5 -23.833 -9.5 -28.5
c3.33301 0.666992 19.666 3.33398 48.999 8.00098s51.333 7 66 7c16 0 30.333 -1.66699 43 -5s25 -9.66602 37 -18.999c6 -8 11.667 -17 17 -27s8.66602 -19.333 9.99902 -28l31 22c10.667 -10.667 18.167 -23 22.5 -37s6.5 -30 6.5 -48c0 -10 -0.333008 -18 -1 -24
s-2 -14.667 -4 -26c-7.33301 -23.333 -19 -46.166 -35 -68.499s-34.333 -41.166 -55 -56.499c22 -11.333 38.5 -28.833 49.5 -52.5s16.5 -49.5 16.5 -77.5l7 -7c6 4.66699 13.333 13.5 22 26.5s16.334 21.833 23.001 26.5c7.33301 -21.333 11 -44.333 11 -69
c0 -37.333 -8.5 -73.333 -25.5 -108s-40.833 -65.667 -71.5 -93l-115 -52c0 9.33301 5.16699 22.833 15.5 40.5s16.833 30.167 19.5 37.5c-31.333 -13.333 -83.5 -25.833 -156.5 -37.5s-124.5 -22.5 -154.5 -32.5l17 30.5c6 11 10.333 20.833 13 29.5
c-13.333 0 -35.833 -3 -67.5 -9s-53.834 -9 -66.501 -9c0 32 7.83301 83.333 23.5 154s23.5 118.667 23.5 144l-94 -116l90 481l12 9l137 24c38 6.66699 72.333 14 103 22zM232.002 625.996l-21.999 -130.001h21c15.333 18 31.166 40.833 47.499 68.5l47.5 80.5
c-16 -2.66699 -32.167 -5.16699 -48.5 -7.5s-31.5 -6.16602 -45.5 -11.499zM452.003 604.995c-10.667 2.66699 -21.999 4 -33.999 4s-28.333 -2.66699 -49 -8l-67 -18l-20 -134c39.333 7.33301 72.666 13.833 99.999 19.5s47.333 14.167 60 25.5s21 22.5 25 33.5
s6 28.167 6 51.5zM470.004 426.995c8 0 15.667 2.33301 23 7s15.333 11 24 19c20 22 30 46.667 30 74c0 6.66699 -0.333008 11.667 -1 15c-14 -14 -27.5 -31.167 -40.5 -51.5s-24.833 -41.5 -35.5 -63.5zM265.004 347.995l-7.99902 -8.00293
c-6 -27.333 -11.833 -55.833 -17.5 -85.5s-8.5 -55.5 -8.5 -77.5l65 12c11.333 -1.33301 17 -6.66602 17 -15.999c-2 -10 -3 -17.667 -3 -23c0 -4.66699 1.33301 -8.66699 4 -12l113 25c42 14 66 32.833 72 56.5s9 40.834 9 51.501c0 12.667 -2.16699 23.334 -6.5 32.001
s-10.833 14.5 -19.5 17.5s-16 4.5 -22 4.5l-59 -6c0.666992 4 4 10.833 10 20.5s8.33301 17.167 7 22.5c-10 2.66699 -21 4 -33 4s-32.333 -3 -61 -9s-48.334 -9 -59.001 -9z" />
    <glyph glyph-name="C" unicode="C" horiz-adv-x="798" 
d="M36 369c10 79.333 36.498 155.832 79.498 229.499s99.167 130.5 168.5 170.5l-87 -162c-17.333 -31.333 -40.166 -68.666 -68.499 -111.999s-59.166 -85.333 -92.499 -126zM536.998 725.999c-2 -5.33301 -3.00195 -9.33789 -3.00195 -12.0049
c0 -8.66699 9.83301 -13.5 29.5 -14.5s31.5 -3.5 35.5 -7.5c30.667 -10.667 51.834 -28.667 63.501 -54s21.834 -59 30.501 -101l43 44c10 -17.333 16.833 -37.666 20.5 -60.999s5.5 -49.333 5.5 -78c-8.66699 -10 -22.5 -15.667 -41.5 -17s-36.833 -2.66602 -53.5 -3.99902
c-4 4 -8.33301 14 -13 30s-8.66699 24.667 -12 26s-8 2 -14 2s-13.833 -1 -23.5 -3s-14.834 -3 -15.501 -3c-6 28.667 -11.5 52.334 -16.5 71.001s-14.667 31 -29 37s-24.166 9.5 -29.499 10.5s-12 1.5 -20 1.5c-5.33301 0 -9.33301 -0.333008 -12 -1
c4 10.667 0.666992 18.834 -10 24.501l-30 15.5h-12c-29.333 0 -55.666 -9.83301 -78.999 -29.5s-47.333 -45.5 -72 -77.5c-18 -31.333 -32 -61.666 -42 -90.999s-15 -60 -15 -92c-4.66699 -4.66699 -7 -13.667 -7 -27v-17l7 -3c0 -15.333 0.833008 -28.333 2.5 -39
s5.16699 -21 10.5 -31c10 5.33301 18.5 13.166 25.5 23.499l21.5 30.5c2.66699 -27.333 8.66699 -52 18 -74s24.333 -39.667 45 -53c11.333 -6 23.333 -9 36 -9c10.667 0 20.5 1.33301 29.5 4s22.167 7.33398 39.5 14.001l-24 -57c9.33301 -1.33301 16.333 -2 21 -2
c32.667 0 63 10 91 30s51.333 46 70 78c18 2 34 3.66699 48 5s26.333 2 37 2c-22.667 -63.333 -61.667 -115.333 -117 -156s-116.666 -61 -183.999 -61h-13c-2 6 0 14 6 24s9.33301 17 10 21c-19.333 -4 -40.333 -6 -63 -6c-24.667 0 -45.334 4.33301 -62.001 13
c-19.333 11.333 -35.5 24.833 -48.5 40.5s-24.5 34.5 -34.5 56.5l-33 -26c-12.667 25.333 -22.334 53.5 -29.001 84.5s-10 60.5 -10 88.5c0 55.333 9.5 109.5 28.5 162.5s45.833 101 80.5 144s72.834 76.833 114.501 101.5s86.5 37 134.5 37c17.333 0 35.666 -2 54.999 -6z
" />
    <glyph glyph-name="D" unicode="D" horiz-adv-x="719" 
d="M88 723l-56.002 -286.002c12 15.333 32.167 43.333 60.5 84s44.833 64 49.5 70c1.33301 -0.666992 2 -3.66699 2 -9l-87 -514l13 -3l72 94c0 -14 -2.83301 -36.667 -8.5 -68s-8.5 -53.333 -8.5 -66c29.333 0 64.5 4.16699 105.5 12.5l117.5 24.5
c-0.666992 -7.33301 -5.66699 -19.166 -15 -35.499s-14.333 -25.166 -15 -26.499c65.333 17.333 113.5 32 144.5 44s64.167 37.5 99.5 76.5s64.833 88 88.5 147s35.5 119.5 35.5 181.5c0 41.333 -6 82 -18 122l-21 -26.5c-6 -7.66699 -12.667 -13.167 -20 -16.5
c-15.333 50.667 -27 85.167 -35 103.5s-24.667 34.5 -50 48.5c-2 2 -13 5 -33 9s-28 12.667 -24 26c-11.333 6.66699 -24.666 11.667 -39.999 15s-29.666 5 -42.999 5c-24 0 -58.167 -5.83301 -102.5 -17.5s-74.833 -18.5 -91.5 -20.5c0 10 3.33301 21.5 10 34.5l20 37.5
c-13.333 -10 -40 -19.333 -80 -28s-63.333 -14.667 -70 -18zM407.998 599.998c2 -3.33301 3 -6.33105 3 -8.99805c0 -4.66699 -3.33301 -10.334 -10 -17.001c1.33301 -0.666992 3.5 -1.33398 6.5 -2.00098s7.5 -1 13.5 -1h13.5c5.66699 0 15.834 -3 30.501 -9
s25.334 -20.333 32.001 -43s10 -51.667 10 -87c-8 -60 -20.333 -110 -37 -150s-40 -66.833 -70 -80.5s-54.5 -22.5 -73.5 -26.5s-41.833 -7.33301 -68.5 -10c6.66699 75.333 20 151.666 40 228.999l-2 4l-97 -144c0 46.667 6.33301 100.834 19 162.501l37 178.5
c17.333 4.66699 34.666 9 51.999 13s32.666 6 45.999 6c20.667 0 39 -4.66699 55 -14zM578.998 425c-8.66699 -76.667 -22.167 -138.668 -40.5 -186.001s-54.5 -79.666 -108.5 -96.999l-25 -5l169 288h5z" />
    <glyph glyph-name="E" unicode="E" horiz-adv-x="660" 
d="M318 769c-1.33301 -6.66699 -5 -16.6709 -11 -30.0039s-9 -20.666 -9 -21.999c36.667 5.33301 87.834 13.666 153.501 24.999s103.167 17.666 112.5 18.999c-0.666992 -2 -1 -5.66699 -1 -11c0 -4.66699 0.333008 -9.66699 1 -15s1.33398 -10.333 2.00098 -15
c0 -6.66699 -2 -12.667 -6 -18c14.667 2 27.167 3.83301 37.5 5.5s21.166 4.83398 32.499 9.50098c-1.33301 -18 -3 -36.833 -5 -56.5s-6.33301 -36.167 -13 -49.5c-8 -3.33301 -27.667 -8 -59 -14s-54.333 -13.667 -69 -23c2 5.33301 8 16 18 32s15 28.667 15 38
c-39.333 -4 -78.666 -10.167 -117.999 -18.5s-84.333 -19.166 -135 -32.499l-15 -70c-4 -19.333 -6 -37.333 -6 -54c18.667 0 50.167 4.33301 94.5 13s74.833 13 91.5 13l-33 -60c14.667 0 40.667 4.33301 78 13s63.333 13 78 13c-2 -17.333 -4.33301 -35.333 -7 -54
s-7.33398 -35 -14.001 -49l-209 -46l20 32c5.33301 8.66699 8.66602 17.334 9.99902 26.001c-16.667 0 -37.167 -2.5 -61.5 -7.5l-68.5 -13.5l-31 -161c7.33301 -4 16.333 -6 27 -6c9.33301 0 17.666 2 24.999 6l43 68l-22 -104l8 -9c24 6 61.167 12.667 111.5 20
s87.5 14 111.5 20c0 -8.66699 -3.33301 -19 -10 -31s-12 -21 -16 -27c30 3.33301 54.667 6.33301 74 9s39.666 6.33398 60.999 11.001c0.666992 -3.33301 1 -8.33301 1 -15c0 -14 -1.66699 -28.667 -5 -44s-6 -28.333 -8 -39c-26 -9.33301 -56.333 -17.833 -91 -25.5
l-101 -21.5c2 6 7.16699 16.333 15.5 31s12.833 23 13.5 25l-7 5l-284 -49l23 53c-3.33301 0.666992 -8.66602 1 -15.999 1c-8.66699 0 -23 -1.66699 -43 -5s-34 -5 -42 -5c9.33301 65.333 19.5 128.833 30.5 190.5s23.833 125.834 38.5 192.501h-8l-50 -68.5
c-13.333 -18.333 -27 -35.833 -41 -52.5l66 407c56 14 100.333 24.167 133 30.5s62.334 10.833 89.001 13.5zM220 643.996c-18 -3.33301 -29 -17.3311 -33 -41.998c-2 -20.667 -3.66699 -41 -5 -61l36.5 53c13 18.667 22.833 35.667 29.5 51
c-3.33301 1.33301 -8 1.16602 -14 -0.500977s-10.667 -1.83398 -14 -0.500977z" />
    <glyph glyph-name="F" unicode="F" horiz-adv-x="652" 
d="M98 726c-15.333 -77.333 -28.832 -150.5 -40.499 -219.5s-20.834 -135.5 -27.501 -199.5l103 138c-14 -58 -27.333 -122.833 -40 -194.5s-23 -140.167 -31 -205.5c9.33301 0 24 2.33301 44 7s32.333 7 37 7l17 -2c0 -6.66699 -3.83301 -15.667 -11.5 -27
s-10.5 -21.333 -8.5 -30l108 23c0 31.333 4.33301 66.5 13 105.5l26 112.5l-52 -77c-18 -26 -34.667 -46.667 -50 -62c0 28.667 1.83301 53.667 5.5 75s15.5 75 35.5 161c20 4 41.167 7.83301 63.5 11.5s42.166 5.5 59.499 5.5l-27 -57l199 48
c5.33301 18 9.33301 33.333 12 46s4 25.667 4 39c0 6.66699 -0.333008 11.667 -1 15c-10.667 0 -31 -3.16699 -61 -9.5s-51 -9.5 -63 -9.5h-13l27 55l-182 -24l18 126l12 12c25.333 8 51.666 15 78.999 21s81.333 15.333 162 28c2 -4 3 -7.66699 3 -11
c0 -5.33301 -3.66699 -13.666 -11 -24.999s-10.666 -21 -9.99902 -29l66 20h11c23.333 0 36.5 12.833 39.5 38.5l8.5 73.5c-15.333 0 -28.166 -1.66699 -38.499 -5s-19.833 -9.33301 -28.5 -18c-3.33301 6 -5 14.667 -5 26c0.666992 11.333 1 19.666 1 24.999
c0 8 -1.33301 14.667 -4 20c-28.667 0 -65.167 -5 -109.5 -15l-145.5 -33l26 57c-39.333 -3.33301 -75.333 -8.33301 -108 -15s-70 -16 -112 -28zM242.001 646c-4.66699 -14 -10.8311 -27.167 -18.498 -39.5s-19.834 -30.5 -36.501 -54.5c0 22 1 39.833 3 53.5
s8 25.5 18 35.5c11.333 1.33301 22.666 3 33.999 5z" />
    <glyph glyph-name="G" unicode="G" horiz-adv-x="741" 
d="M321 702c8.66699 -1.33301 23.6641 2.49707 44.9971 11.4971s33.333 13.5 36 13.5c19.333 5.33301 38.666 8 57.999 8c22.667 0 43 -3.66699 61 -11s33.667 -19.666 47 -36.999c22.667 -3.33301 42.834 -14.833 60.501 -34.5s28.834 -40.834 33.501 -63.501
c0 -3.33301 0.666992 -10 2 -20s2 -17.667 2 -23c0 -7.33301 -1.5 -13.5 -4.5 -18.5s-8.5 -7.83301 -16.5 -8.5l-40.5 -12c-18.333 -5.33301 -28.833 -8.33301 -31.5 -9c-9.33301 26 -18.5 46.333 -27.5 61s-22.5 23.667 -40.5 27l-17 -20
c0 27.333 -6.83301 44.5 -20.5 51.5s-23.167 11 -28.5 12s-10.666 1.5 -15.999 1.5c-10 0 -19.833 -1.5 -29.5 -4.5s-19.834 -6.83301 -30.501 -11.5c-46 -33.333 -81.333 -74.666 -106 -123.999s-37 -102.666 -37 -159.999v-18c1.33301 -8 2 -14 2 -18
c4 -22 9 -39.667 15 -53s16 -24.666 30 -33.999l22 20c5.33301 -14 11 -26.167 17 -36.5s14.333 -18.833 25 -25.5c11.333 -4.66699 23.333 -7 36 -7c19.333 0 37.833 4.66699 55.5 14s37.167 22.333 58.5 39c14 13.333 26.167 28 36.5 44s16.5 32.333 18.5 49
c-8 2.66699 -17 4 -27 4c-8 0 -19.333 -1.33301 -34 -4s-30.667 -5.33398 -48 -8.00098l11 91l104 26c36 8.66699 69.667 13 101 13c2 -4 3 -8 3 -12s-0.333008 -8.33301 -1 -13l-2 -14c0 -5.33301 1.66699 -9.33301 5 -12l59 3c0 -42 -7.16699 -96.833 -21.5 -164.5
s-22.833 -111.834 -25.5 -132.501c-4.66699 -8 -15.167 -13.167 -31.5 -15.5s-27.5 -5.5 -33.5 -9.5c-5.33301 3.33301 -8 9 -8 17v17c0 4.66699 -0.333008 8 -1 10c-10.667 -2.66699 -24.667 -13.5 -42 -32.5s-31.333 -30.5 -42 -34.5
c-26 -15.333 -54.333 -26.666 -85 -33.999c2 10 8.16699 25.667 18.5 47s15.833 33 16.5 35c-28.667 -11.333 -54.167 -20.666 -76.5 -27.999s-44.166 -11 -65.499 -11c-13.333 0 -26 1.83301 -38 5.5s-23.333 9.16699 -34 16.5c-5.33301 2 -12 8.66699 -20 20
s-16 17 -24 17c-3.33301 0 -7 -1 -11 -3c-29.333 18 -49.666 42 -60.999 72s-17 65 -17 105c0 12.667 0.666992 27.5 2 44.5s2.66602 32.833 3.99902 47.5c-10 -6.66699 -21.333 -18.334 -34 -35.001l-42 -55c0 94.667 16.167 180.5 48.5 257.5s83.5 140.833 153.5 191.5
c28 16.667 50.333 27.834 67 33.501s32.334 8.5 47.001 8.5zM350.997 355.997l22.001 73.999l49 25c-17.333 -31.333 -29.833 -53.166 -37.5 -65.499s-18.834 -23.5 -33.501 -33.5zM162.998 471.996c21.333 22.667 41.667 50.332 61 82.999l48 82
c-28 -15.333 -48.167 -34.166 -60.5 -56.499s-28.5 -58.5 -48.5 -108.5zM560.999 257.994c-22.667 -33.333 -39.334 -59.334 -50.001 -78.001s-19.667 -36.667 -27 -54c28 10 52.833 28.333 74.5 55s34.834 54.334 39.501 83.001c-12.667 0 -25 -2 -37 -6z" />
    <glyph glyph-name="H" unicode="H" horiz-adv-x="748" 
d="M35 641c-1.33301 11.333 1.16602 29.667 7.49902 55s9.5 44 9.5 56l61 17c-9.33301 -25.333 -20.166 -48.5 -32.499 -69.5s-27.5 -40.5 -45.5 -58.5zM616.999 752.001c0.666992 -3.33301 1.00391 -8.33496 1.00391 -15.002c0 -6 -1.33301 -15.667 -4 -29
s-4 -23.333 -4 -30c0 -3.33301 0.666992 -8.33301 2 -15l45 33c11.333 6.66699 22.666 10 33.999 10l-77 -468v-12h8c12 20.667 28.5 45.167 49.5 73.5l43.5 58.5c-16 -105.333 -36 -213.333 -60 -324l-103 -20l17 118c-10 -3.33301 -21.333 -17 -34 -41
s-27.334 -36 -44.001 -36c-4.66699 0 -8.33398 0.333008 -11.001 1l39 268l-5 5l-115 -21c0.666992 1.33301 5.5 9.83301 14.5 25.5s12.833 27.167 11.5 34.5c-53.333 -8 -91.5 -14.5 -114.5 -19.5s-47.5 -14.5 -73.5 -28.5l-47 -264l-102 -17
c7.33301 54 15.666 110.5 24.999 169.5s23.333 108.833 42 149.5c-19.333 -16 -42 -44.167 -68 -84.5s-43.333 -65.833 -52 -76.5l1 46l86 466l106 21l-31 -230c3.33301 -3.33301 7.33301 -5 12 -5c3.33301 0 8 0.833008 14 2.5s9.33301 2.5 10 2.5c8 6 17 16.167 27 30.5
l32 47.5l-30 -130c27.333 0 59.333 4 96 12l105 23c6.66699 20.667 15.5 60.834 26.5 120.501s20.5 101.834 28.5 126.501c11.333 6 26.333 10.5 45 13.5zM285.003 127.999c-12 -14.667 -25.002 -33.833 -39.002 -57.5l-40 -67.5c9.33301 -2 17.333 -3 24 -3
c24.667 0 39.334 20.333 44.001 61s8.33398 63 11.001 67zM557.001 578l-85 -150c14.667 2.66699 27 5.33398 37 8.00098s20.333 6.66699 31 12c11.333 47.333 17 90.666 17 129.999z" />
    <glyph glyph-name="I" unicode="I" horiz-adv-x="308" 
d="M157 707l101 16.001l-67 -402l1 -4c16 17.333 36.333 43.833 61 79.5s41 58.5 49 68.5l-80 -385c1.33301 -8 2 -13.667 2 -17c0 -25.333 -14 -41 -42 -47s-54.667 -11.333 -80 -16c0 31.333 6.66699 74 20 128s21.333 89.333 24 106l-110 -151l15 84l101 517v4
c-9.33301 -10 -27.333 -33.667 -54 -71s-45.334 -62.333 -56.001 -75c2.66699 31.333 7.16699 64.666 13.5 99.999s13.5 71.333 21.5 108c13.333 0 32.333 3 57 9s41.334 9.33301 50.001 10z" />
    <glyph glyph-name="J" unicode="J" horiz-adv-x="616" 
d="M332 674c3.33301 21.333 6.5 40.168 9.5 56.501s9.83301 29.166 20.5 38.499h31zM531 747.002l-19.501 -134.001c-6.33301 -44 -14.5 -89 -24.5 -135l5 -4l96 134l-56 -359c-4.66699 -45.333 -20.5 -87.5 -47.5 -126.5s-54 -66.5 -81 -82.5s-49.667 -26.667 -68 -32
s-35.5 -8 -51.5 -8c-22.667 0 -43 5 -61 15c-2 3.33301 -1 8.66602 3 15.999s6 12.333 6 15c-4 0 -11.333 -0.333008 -22 -1s-19 -1 -25 -1c-8.66699 0 -16.667 0.666992 -24 2s-16 6.33301 -26 15s-17.833 21.334 -23.5 38.001s-8.5 34.667 -8.5 54
c0 18.667 1.66699 38 5 58l10 59l105 18c0 -8.66699 -1.66699 -23.167 -5 -43.5s-5 -33.833 -5 -40.5c0 -16.667 4 -30.667 12 -42c5.33301 -5.33301 12.333 -8 21 -8c7.33301 0 14.5 1.66699 21.5 5l20.5 10c22 20 38.667 46 50 78l24 89l61 381
c8 12 25.833 18.833 53.5 20.5s45.834 4.83398 54.501 9.50098zM128.999 335.001c-9.33301 -23.333 -20.5 -45.667 -33.5 -67s-35.5 -51.333 -67.5 -90l23 127c11.333 5.33301 24 10.5 38 15.5zM436.999 371c-14.667 -24 -38.668 -61.168 -72.001 -111.501
s-57.666 -93.166 -72.999 -128.499c9.33301 -8 21.333 -12 36 -12c6 0 12 1 18 3c38.667 18 63 55 73 111z" />
    <glyph glyph-name="K" unicode="K" horiz-adv-x="743" 
d="M613 769c-22.667 -44 -55.3301 -92.1709 -97.9971 -144.504l-123 -149.5l21 -44c21.333 28.667 45.666 64.167 72.999 106.5s62 99.5 104 171.5l119 16l-247 -287c10 -28 23.167 -60.333 39.5 -97l55.5 -123l33 30l84 -193l-4 -10l-118 -27
c-7.33301 7.33301 -16.5 24.333 -27.5 51s-20.833 45 -29.5 55c-5.33301 -0.666992 -10.666 -3.66699 -15.999 -9l-17 -17l-106 230c-6 -2.66699 -11.5 -7.66699 -16.5 -15l-14.5 -21c-0.666992 1.33301 -4.83398 11.833 -12.501 31.5s-16.834 31.167 -27.501 34.5
c-36 -23.333 -62 -72.166 -78 -146.499s-29.333 -120.833 -40 -139.5c14 14.667 33.667 39 59 73s44 57.667 56 71l-41 -202l-106 -14l27 58c-32.667 -6 -65.334 -11.667 -98.001 -17l64 371c-11.333 -8 -29.5 -28 -54.5 -60s-38.167 -48.667 -39.5 -50l83 428l103 22
c0 -25.333 -5 -62.333 -15 -111s-15 -85 -15 -109c16 16.667 31.667 36.834 47 60.501l45 70.5c0 -15.333 -3 -44.666 -9 -87.999s-9 -73.666 -9 -90.999l8 -6c21.333 22 44.5 47.333 69.5 76l87 102.5c33 39.667 59.167 70.167 78.5 91.5c10.667 2.66699 26.5 6 47.5 10z
" />
    <glyph glyph-name="L" unicode="L" horiz-adv-x="583" 
d="M162 769c1.33301 -8 -0.165039 -17.1689 -4.49805 -27.502l-13.5 -33.5c10 0 26 2.83301 48 8.5s38.333 8.5 49 8.5l-58 -405c15.333 14.667 31.666 34.834 48.999 60.501l50 74.5l-47 -293c20.667 0 43 2.16699 67 6.5s47.333 8.83301 70 13.5
c0 -6 -3.33301 -15.167 -10 -27.5s-9 -21.833 -7 -28.5l202 39c-2.66699 -6.66699 -4.33398 -26.5 -5.00098 -59.5s-14 -49.5 -40 -49.5l-233 -56c0.666992 5.33301 4.66699 14.5 12 27.5s11 23.833 11 32.5c-20.667 0 -54.167 -6.5 -100.5 -19.5s-78.833 -19.5 -97.5 -19.5
c0 18 5.16699 51.833 15.5 101.5s15.5 84.5 15.5 104.5c-39.333 -50 -73 -97 -101 -141l93 578l-4 1c-4 -5.33301 -17.833 -25.166 -41.5 -59.499s-42.167 -59.5 -55.5 -75.5l27 213z" />
    <glyph glyph-name="M" unicode="M" horiz-adv-x="958" 
d="M176 769c-31.333 -56 -53.833 -94 -67.5 -114s-31.5 -41 -53.5 -63l27 157zM742 692c12 0 32.832 2.16895 62.499 6.50195s49.5 6.5 59.5 6.5l-59 -350c14 12 35 37.333 63 76s43.667 59.667 47 63c-9.33301 -64.667 -25.5 -140.334 -48.5 -227.001l-66.5 -249l-100 -18
l69 283c-19.333 -23.333 -44 -57.333 -74 -102s-50.667 -74.667 -62 -90c13.333 39.333 25.833 86.333 37.5 141s24.5 120 38.5 196c-20.667 -29.333 -45.667 -76.833 -75 -142.5s-49.666 -108.834 -60.999 -129.501l-71 -138l-108 -18c0 12.667 -1 32 -3 58s-3 45 -3 57
c0 19.333 2 38 6 56c-14 -4 -29 -15.667 -45 -35s-27.333 -32 -34 -38c0 67.333 -0.833008 124.833 -2.5 172.5s-5.5 95.834 -11.5 144.501c-18 -59.333 -36.667 -127 -56 -203l-47 -187c-11.333 -4.66699 -28.833 -8.83398 -52.5 -12.501s-39.5 -6.5 -47.5 -8.5
c4 38 14.167 88.667 30.5 152s25.5 100.333 27.5 111c-12.667 -10.667 -31.334 -32.334 -56.001 -65.001s-43.334 -55 -56.001 -67l118 562c0.666992 3.33301 1.66699 6 3 8l154 28c7.33301 -17.333 11.833 -46.666 13.5 -87.999s3.83398 -69.333 6.50098 -84
c12.667 10 25 23 37 39l30 41l13 -379l6 -6c22.667 40 42.834 80.5 60.501 121.5l71.5 172.5c30 74 55.333 133.333 76 178c12.667 5.33301 33.5 10 62.5 14s49.833 8.33301 62.5 13zM518.999 239.002l140.999 325c-67.333 -86 -125.666 -171.667 -174.999 -257l8 3
c1.33301 -4 2.33301 -8.66699 3 -14s1 -15 1 -29c0 -10 0.166992 -20 0.5 -30s1.83301 -18.333 4.5 -25zM224.998 470.002l-23.001 -122c10.667 7.33301 18.167 16.833 22.5 28.5s6.5 25.167 6.5 40.5c0 8 -0.666992 17 -2 27s-2.66602 18.667 -3.99902 26z" />
    <glyph glyph-name="N" unicode="N" horiz-adv-x="798" 
d="M261 720l16.998 6.99707c38.667 -77.333 72.334 -157 101.001 -239c8 4.66699 15.167 13.334 21.5 26.001s11.166 20.667 14.499 24l99 -233l11 23l63 399l100 21c0 -31.333 -4.66699 -81 -14 -149s-14 -112.667 -14 -134c10.667 13.333 24.167 32.833 40.5 58.5
l46.5 72.5c0 -58 -4.16699 -115.167 -12.5 -171.5s-20 -116.666 -35 -180.999l-43.5 -183.5c-10 -2.66699 -23 -5.83398 -39 -9.50098l-65 -14.5c-6 10 -17.167 33.667 -33.5 71s-28.166 62.333 -35.499 75l-40 -34c-13.333 35.333 -29.833 75.666 -49.5 120.999l-56.5 132
l-36 -36c-2 4 -9.5 21.5 -22.5 52.5s-23.167 51.5 -30.5 61.5l-64 -293l4 -4c12.667 14.667 30.5 40 53.5 76s40.167 61.333 51.5 76c-3.33301 -41.333 -12.666 -96.166 -27.999 -164.499s-24.666 -112.833 -27.999 -133.5c-12 -9.33301 -28.833 -15.5 -50.5 -18.5
l-62.5 -8.5l14 100c-4.66699 -2.66699 -15.667 -13 -33 -31s-34 -27 -50 -27c5.33301 42 17.166 103.333 35.499 184s30.833 139.834 37.5 177.501s10 81.167 10 130.5v9c-15.333 -15.333 -31.333 -34.5 -48 -57.5s-34.667 -49.5 -54 -79.5l51 327
c14 6.66699 34 12.334 60 17.001s45.667 8 59 10c3.33301 -3.33301 8 -13.333 14 -30s13.333 -25 22 -25c4.66699 0 11 2 19 6zM731.998 23.9971l-80.999 -24l51.5 88c18.333 30 38.166 56.667 59.499 80zM601.999 345.997l-19 -21c-6 -5.33301 -9 -12.333 -9 -21
c0 -7.33301 2 -15 6 -23l8 -16c6 9.33301 9.83301 21 11.5 35s2.5 29.333 2.5 46z" />
    <glyph glyph-name="O" unicode="O" horiz-adv-x="779" 
d="M403 769c-2 -8.66699 -4.99902 -16.668 -8.99902 -24.001l-12 -22c16 2.66699 28 4.33398 36 5.00098s16.667 1 26 1c23.333 0 44.166 -3 62.499 -9s34.833 -16.333 49.5 -31l46 -54l19 15c20 -24 34.833 -52.333 44.5 -85s14.5 -67 14.5 -103
c0 -61.333 -11.667 -121.333 -35 -180l2 -2l97 124c0 -59.333 -12.333 -116.333 -37 -171s-59.667 -106.667 -105 -156c-34 -30 -70.667 -55.667 -110 -77c4 14.667 15 37.667 33 69s29.667 55 35 71c-36.667 -38.667 -73.5 -68.834 -110.5 -90.501
s-77.5 -32.5 -121.5 -32.5c-29.333 3.33301 -51 9 -65 17s-23.667 17.667 -29 29c-25.333 2.66699 -47.666 11.334 -66.999 26.001s-33.5 32.667 -42.5 54s-16 40.5 -21 57.5s-7.5 33.833 -7.5 50.5l-43 -46c-12 42 -18 83.667 -18 125c0 66.667 14.667 131.167 44 193.5
s70.666 118.833 123.999 169.5s120 76 200 76zM297.001 642.999c-52.667 -28.667 -91.334 -70 -116.001 -124s-37 -114 -37 -180c34 45.333 67 94.333 99 147s64.333 110 97 172c-7.33301 0 -14.666 -1.66699 -21.999 -5zM395.001 608.999
c-18.667 -2.66699 -38.5029 -12.3311 -59.5029 -28.998s-43.5 -44 -67.5 -82c-15.333 -30.667 -27.666 -61.334 -36.999 -92.001s-14 -62 -14 -94c0 -24 3.16699 -45.833 9.5 -65.5s16.833 -38.167 31.5 -55.5c3.33301 -5.33301 12.333 -8.33301 27 -9s22 -5 22 -13l-2 -9
c8.66699 -7.33301 18.167 -12.333 28.5 -15s25.5 -5.66699 45.5 -9c25.333 0 46.5 7.83301 63.5 23.5s33.833 33.167 50.5 52.5c22.667 32 41.334 67.5 56.001 106.5s22 77.167 22 114.5c0 40 -8.66699 77 -26 111l-43 -51c-3.33301 28 -7.66602 48.667 -12.999 62
s-13 25.666 -23 36.999c-17.333 12 -36 18 -56 18c-6.66699 0 -11.667 -0.333008 -15 -1z" />
    <glyph glyph-name="P" unicode="P" horiz-adv-x="636" 
d="M302 769c-2 -8.66699 -7.00098 -19.8301 -15.001 -33.4971s-13 -24.5 -15 -32.5l162 31c22 0 41.5 -4.33301 58.5 -13s31.833 -23.334 44.5 -44.001c14 -4.66699 25.5 -11 34.5 -19s17.833 -19 26.5 -33c6 -24 9 -48.667 9 -74c0 -66.667 -20.333 -124.334 -61 -173.001
c-26.667 -35.333 -65.667 -63.666 -117 -84.999c-61.333 -20.667 -106.666 -37 -135.999 -49l-51 -209c-35.333 -16.667 -70.333 -28.334 -105 -35.001l3 44h-17c0 2 1 5.16699 3 9.5s1 7.16602 -3 8.49902l-78 -25l88 431l-10 -3l-94 -122l3 40l70 346
c18 5.33301 50 11.833 96 19.5s80.667 14.5 104 20.5zM174.999 552.004c8.66699 8.66699 16.334 18 23.001 28s20 34 40 72c-2.66699 0.666992 -6.66699 1 -12 1c-20 0 -32.833 -16 -38.5 -48s-9.83398 -49.667 -12.501 -53zM270.999 595.004l-29.001 -173
c20 0 40.333 3 61 9s40.667 14.333 60 25c40.667 26.667 61 64 61 112v12c-1.33301 5.33301 -2 9.33301 -2 12c-6.66699 10.667 -14.167 18.167 -22.5 22.5s-18.5 6.5 -30.5 6.5c-13.333 0 -29.166 -3 -47.499 -9zM457.998 564.004
c-2.66699 -4.66699 -18.332 -30.667 -46.999 -78s-48.667 -84.666 -60 -111.999c38.667 11.333 66.667 20.833 84 28.5s33.333 21.5 48 41.5c7.33301 12.667 12.666 24.167 15.999 34.5s5 22.166 5 35.499c0 6.66699 -1 13.667 -3 21c-4 8 -9.66699 14.833 -17 20.5
s-16 8.5 -26 8.5zM215 292.004l-25.999 -139c24.667 30 45.167 57.167 61.5 81.5s32.166 51.833 47.499 82.5c-14 -2 -28 -5.5 -42 -10.5z" />
    <glyph glyph-name="Q" unicode="Q" horiz-adv-x="772" 
d="M462 758c-1.33301 -6.66699 -2.00195 -10.667 -2.00195 -12c0 -10.667 10.833 -16.667 32.5 -18s34.834 -4.66602 39.501 -9.99902c27.333 -12 48.666 -30.833 63.999 -56.5s26 -55.167 32 -88.5l40 41c10.667 -23.333 18.334 -46.833 23.001 -70.5s7 -48.834 7 -75.501
c0 -52 -8.5 -103.167 -25.5 -153.5s-40.5 -99.5 -70.5 -147.5c6.66699 -17.333 17 -29 31 -35l105 141c-14.667 -40 -26.334 -69.167 -35.001 -87.5s-19 -35.833 -31 -52.5c-2.66699 -10.667 1.66602 -22.167 12.999 -34.5s17 -21.5 17 -27.5
c0 -4.66699 -1.33301 -9.33398 -4 -14.001c-3.33301 -2.66699 -11.666 -12.834 -24.999 -30.501s-24.333 -26.5 -33 -26.5c-4.66699 0 -9.5 1.66699 -14.5 5s-12.667 11.166 -23 23.499s-19.5 18.5 -27.5 18.5c-5.33301 0 -10.666 -1.66699 -15.999 -5
c-6 13.333 -12.167 22.666 -18.5 27.999s-13.166 8 -20.499 8c-10 0 -26 -9 -48 -27s-38.667 -27 -50 -27c-28 -8 -57.667 -12 -89 -12c-12.667 0 -25.667 1 -39 3c-0.666992 5.33301 1 13.166 5 23.499s6.33301 16.5 7 18.5c-15.333 -2 -31 -3 -47 -3
c-24 0 -44.833 3.33301 -62.5 10s-31.5 16.334 -41.5 29.001s-19 25.834 -27 39.501s-16.333 28.834 -25 45.501l-33 -23c-23.333 50.667 -35 104.667 -35 162c0 48.667 7.66699 96.834 23 144.501s37 94.834 65 141.501c34 50 74 90 120 120s94.667 45 146 45
c24.667 0 49 -3.33301 73 -10zM275.998 626c-41.333 -34.667 -72.668 -76.6709 -94.001 -126.004s-32 -101.666 -32 -156.999c0 -23.333 2 -46.666 6 -69.999l53 58l12 -74c2 -12 6.83301 -25.667 14.5 -41s18.334 -27.166 32.001 -35.499s29.5 -12.5 47.5 -12.5l33 10
c12.667 5.33301 21.334 13.333 26.001 24c-14 9.33301 -21 20 -21 32c0 12.667 8.33301 26.5 25 41.5l47 42.5l14.5 -12.5c5 -4.33301 9.16699 -9.16602 12.5 -14.499l-44 -71.5c-24 -39 -40.333 -69.5 -49 -91.5h12c19.333 0 35.333 1.33301 48 4s23.667 9 33 19l-30 35
c2.66699 17.333 12.334 34.333 29.001 51l41 41l39 -32c15.333 28 27.666 56.333 36.999 85s14 57.667 14 87c0 12 -0.333008 21.333 -1 28s-2.66699 16.667 -6 30l-78 -101c6 17.333 11 35.333 15 54s6 37.334 6 56.001c0 23.333 -3.16699 44.166 -9.5 62.499
s-17.5 34.5 -33.5 48.5c-20.667 12.667 -41.334 19 -62.001 19c-6.66699 0 -13.667 -1 -21 -3c-2 3.33301 -1 9.33301 3 18s5 14.667 3 18c-11.333 4 -22.333 6 -33 6c-15.333 0 -29 -2.16699 -41 -6.5s-28 -11.5 -48 -21.5z" />
    <glyph glyph-name="R" unicode="R" horiz-adv-x="710" 
d="M378 769c-1.33301 -8 -5.33496 -18.6631 -12.002 -31.9961l-11 -22l5 -6l131 22c24 0 45.333 -6 64 -18c12 -2.66699 22.167 -14.834 30.5 -36.501s14.833 -32.5 19.5 -32.5c6.66699 0 15 7.66699 25 23c14.667 -13.333 24.834 -27.833 30.501 -43.5
s8.5 -33.834 8.5 -54.501c0 -15.333 -1.16699 -29.5 -3.5 -42.5s-5.83301 -29.167 -10.5 -48.5c-10.667 -23.333 -24.5 -45.5 -41.5 -66.5s-35.833 -38.5 -56.5 -52.5c31.333 -24 47 -55.667 47 -95c0 -8 -0.333008 -14 -1 -18c0 -8.66699 -1.83301 -21.667 -5.5 -39
s-5.5 -29 -5.5 -35c12 10 27.167 27.5 45.5 52.5s30.5 40.833 36.5 47.5c2.66699 -10.667 4 -24 4 -40c0 -12.667 -3.16699 -43.834 -9.5 -93.501s-9.5 -83.834 -9.5 -102.501c-14 -10 -31.167 -16.5 -51.5 -19.5l-50.5 -7.5c-2.66699 8 -4 17.333 -4 28
c0 14 2.16699 28.833 6.5 44.5s9.5 31.167 15.5 46.5c-1.33301 -0.666992 -11.833 -13.667 -31.5 -39s-34.5 -38 -44.5 -38c-6.66699 0 -14.667 3 -24 9c-0.666992 4 -1 10.667 -1 20c0 13.333 2.66699 34.333 8 63s8 50 8 64c0 18.667 -3.5 34.5 -10.5 47.5
s-19.5 23.5 -37.5 31.5c-6.66699 1.33301 -11.334 2 -14.001 2c-8.66699 0 -17.5 -1.66699 -26.5 -5l-26.5 -10l13 37c-14.667 10 -31.667 15 -51 15c-12.667 0 -27 -2 -43 -6l-46 -11c-9.33301 -34.667 -19.166 -75 -29.499 -121l-29.5 -132l-106 -15l49 295
c-13.333 -13.333 -29.166 -32.333 -47.499 -57l-52.5 -70l2 38l89 478zM214.998 0.00390625c3.33301 26.667 17.666 58.667 42.999 96s40 60 44 68c-8 -12 -15.167 -42.333 -21.5 -91s-28.166 -73 -65.499 -73zM454.998 608.004
c-6.66699 0.666992 -12.502 1.16895 -17.502 1.50195s-9.5 0.5 -13.5 0.5c-21.333 0 -42 -2.16699 -62 -6.5s-41.667 -10.5 -65 -18.5l-24 -162c36.667 0 68.834 3.66699 96.501 11s53.834 20.666 78.501 39.999c10.667 17.333 18.667 31.666 24 42.999s8 24 8 38
c0 8 -1.66699 17 -5 27zM547.996 551.006l-56.001 -83c-14.667 -22.667 -25 -45 -31 -67c12 2 22.167 5.33301 30.5 10s19.5 12.667 33.5 24c10.667 12.667 18.834 25.167 24.501 37.5s8.5 25.833 8.5 40.5c0 14 -3.33301 26.667 -10 38zM314.995 651.006l-99 -20l-27 -190
l76 115.5c20 31 36.667 62.5 50 94.5z" />
    <glyph glyph-name="S" unicode="S" horiz-adv-x="639" 
d="M254 699c25.333 8 48.5039 14.6641 69.5039 19.9971s41.167 8 60.5 8c28 0 52.667 -6 74 -18c7.33301 -0.666992 14.666 -7.16699 21.999 -19.5s13.333 -18.5 18 -18.5c3.33301 0 6.66602 1.33301 9.99902 4c11.333 0 20.666 -3.66699 27.999 -11s17 -19.333 29 -36
c4.66699 -12.667 7.83398 -27.334 9.50098 -44.001s2.5 -34.667 2.5 -54c-14.667 -6.66699 -30.5 -12 -47.5 -16s-35.167 -7 -54.5 -9c-2.66699 16.667 -6.16699 30.5 -10.5 41.5s-11.833 20.833 -22.5 29.5c-5.33301 0 -11 -4.33301 -17 -13s-12.667 -11.667 -20 -9
c-2.66699 16 -6.16699 29 -10.5 39s-11.833 17.333 -22.5 22c-10 2.66699 -20.333 4 -31 4c-15.333 0 -29.833 -2.66699 -43.5 -8s-28.167 -13 -43.5 -23c-12 -10.667 -21.5 -21 -28.5 -31s-11.833 -21.667 -14.5 -35c2.66699 -30.667 21.667 -48.334 57 -53.001
c30 -2.66699 60.333 -5 91 -7c0 -2.66699 -1.66699 -6.66699 -5 -12s-4.33301 -10 -3 -14c38 -6.66699 76.333 -13 115 -19c44 -12 68.333 -38.333 73 -79l5 -5l33 26c12 -10.667 20.5 -23.167 25.5 -37.5s7.5 -31.166 7.5 -50.499c0 -14.667 -1.5 -29.5 -4.5 -44.5
s-6.83301 -30.833 -11.5 -47.5c-18.667 -51.333 -50 -94 -94 -128s-92.333 -51 -145 -51c0 8 5 18.667 15 32s15 24.333 15 33c-23.333 -11.333 -48.333 -21.166 -75 -29.499s-51.334 -12.5 -74.001 -12.5c-14.667 0 -28.667 1.66699 -42 5s-26.333 9.33301 -39 18
c-8.66699 11.333 -27.667 23.833 -57 37.5s-47 30.167 -53 49.5c-5.33301 23.333 -8.5 37.5 -9.5 42.5s-1.5 11.833 -1.5 20.5c0 16 3.66699 30.333 11 43l92 21c1.33301 -12.667 2.83301 -25.667 4.5 -39s6.16699 -24.333 13.5 -33l34 -12c4 0 8 1 12 3l8 9
c2.66699 -10 8.16699 -20.167 16.5 -30.5s17.666 -17.333 27.999 -21s20.5 -5.5 30.5 -5.5c11.333 0 25.333 2.66699 42 8l37 12c19.333 14.667 35 30 47 46s18 34.333 18 55c-8 25.333 -27.667 40 -59 44l-90 12c-1.33301 3.33301 -0.833008 7.33301 1.5 12
s4.83301 10 7.5 16c0 4 -3 7 -9 9c-46 0 -83.333 3.33301 -112 10s-50 24.334 -64 53.001l-8 28l-33 -22c-12 8.66699 -20.5 19.334 -25.5 32.001s-7.5 27.334 -7.5 44.001c0 17.333 1.5 31.833 4.5 43.5s9.16699 31.5 18.5 59.5c18.667 44.667 48.667 81.5 90 110.5
s88 50.833 140 65.5c0 -8.66699 -4.33301 -21.5 -13 -38.5s-13.667 -27.5 -15 -31.5zM219.004 652.997l-51.001 -34.999c-7.33301 -8.66699 -13.5 -19 -18.5 -31s-7.5 -23.333 -7.5 -34c0 -8 2 -15.667 6 -23c3.33301 6 14.833 23.167 34.5 51.5
s31.834 52.166 36.501 71.499zM485.003 224.998c-26 -37.333 -41.499 -60.166 -46.499 -68.499s-9.5 -19.5 -13.5 -33.5c10 1.33301 19.5 6.5 28.5 15.5s17.5 19.833 25.5 32.5c1.33301 4 3.66602 10.333 6.99902 19s5 15 5 19c0 5.33301 -2 10.666 -6 15.999z" />
    <glyph glyph-name="T" unicode="T" horiz-adv-x="669" 
d="M313 769c-1.33301 -6.66699 -4.49902 -19.667 -9.49902 -39s-7.83301 -30 -8.5 -32c34.667 12 73.667 22.5 117 31.5s92.666 17.833 147.999 26.5v-61l9 9c8 -3.33301 19.5 -1.5 34.5 5.5s26.5 9.5 34.5 7.5c0.666992 -4 1 -10 1 -18c0 -13.333 -1.33301 -27.333 -4 -42
s-6.66699 -31 -12 -49l-124 -37c4.66699 10 10.834 22 18.501 36s12.5 26 14.5 36l-139 -31l-13 -19l-43 -283c21.333 26.667 44.166 60.167 68.499 100.5l56.5 93.5c-13.333 -46.667 -23.5 -88.167 -30.5 -124.5s-16.667 -92.333 -29 -168s-23.5 -137.5 -33.5 -185.5
c-2 -0.666992 -16.667 -4.66699 -44 -12s-49.333 -12 -66 -14c0 34 3.33301 69.333 10 106s15.667 75.667 27 117c-11.333 -12.667 -26.833 -32.667 -46.5 -60l-64.5 -91l3 49l79 450v9c-5.33301 1.33301 -9.33301 2 -12 2c-6 0 -15.167 -2.83301 -27.5 -8.5
s-20.833 -8.5 -25.5 -8.5l-23 -24c-1.33301 7.33301 0 20.5 4 39.5s5.66699 32.5 5 40.5c-21.333 0 -45.833 -2.83301 -73.5 -8.5l-79.5 -16.5c-2.66699 10 -4 20.667 -4 32c0 12 1.5 25.333 4.5 40s6.16699 28.667 9.5 42z" />
    <glyph glyph-name="U" unicode="U" horiz-adv-x="753" 
d="M621 728c2 3.33301 7.6709 1.33105 17.0039 -6.00195c13.333 2.66699 22.666 4.33398 27.999 5.00098s12.333 1 21 1h9l-8 -81l-64 -344c-2.66699 -2 -4 -5.33301 -4 -10c0.666992 -5.33301 1 -9 1 -11c9.33301 7.33301 25 26.5 47 57.5s39 50.5 51 58.5
c-9.33301 -68 -20.833 -127 -34.5 -177s-36.167 -95.333 -67.5 -136s-75 -69 -131 -85h-12c0.666992 10 6.5 27 17.5 51s16.833 38 17.5 42c-30 -21.333 -61 -38.166 -93 -50.499s-65.333 -18.5 -100 -18.5c-24 0 -46.333 3.33301 -67 10
c-14 6.66699 -23.667 12.167 -29 16.5s-7.33301 9.5 -6 15.5c-22.667 5.33301 -41 11.5 -55 18.5s-25.333 18.833 -34 35.5c-7.33301 24 -11 50.667 -11 80c0 22 2.33301 48.667 7 80s9.33398 61 14.001 89l-6 6l-94 -131l89 484c28.667 8 50.667 13.5 66 16.5
s29.333 4.5 42 4.5c-6 -54 -13 -102.5 -21 -145.5s-19 -86.833 -33 -131.5c12 10.667 27.333 29.5 46 56.5l61 88.5l-57 -380c0 -13.333 3.16699 -25.5 9.5 -36.5s15.166 -18.5 26.499 -22.5c8 -0.666992 13.667 -1 17 -1c6 0 10.667 2 14 6c6.66699 -12 16 -23.333 28 -34
s24.667 -15 38 -13c28.667 -2.66699 55.167 4.16602 79.5 20.499s43.166 38.166 56.499 65.499c17.333 67.333 32.666 136.833 45.999 208.5s23 139.834 29 204.501c-14.667 -20 -31.834 -45.833 -51.501 -77.5l-55.5 -89.5l53 278c9.33301 5.33301 18.5 9.33301 27.5 12
s26.833 6.33398 53.5 11.001h22v-41z" />
    <glyph glyph-name="V" unicode="V" horiz-adv-x="663" 
d="M512 769c-18.667 -46.667 -38.333 -86.668 -59 -120.001s-59.334 -90.666 -116.001 -171.999l115 275c6.66699 4.66699 15.834 8.16699 27.501 10.5zM142.001 752.999c4 -11.333 6.99707 -29.501 8.99707 -54.501s4 -51.833 6 -80.5c8.66699 6 20.667 20.833 36 44.5
s24.333 36.834 27 39.501l27 -374l5 -5c6.66699 7.33301 17.334 21.333 32.001 42s23.334 32.667 26.001 36l18 -157l194 468l111 21l-9 -36l-274 -634c-31.333 -8 -52.666 -13.333 -63.999 -16s-25.666 -4 -42.999 -4c-8 21.333 -13.667 56.5 -17 105.5
s-8.33301 83.833 -15 104.5l-58 -69l-36 352l-2 4c-8 -4 -18.333 -14.5 -31 -31.5s-23.334 -26.5 -32.001 -28.5l-22 249c8 2 24.5 6.5 49.5 13.5s45.833 10.5 62.5 10.5zM349.998 -0.00195312c18 50 48.667 107.5 92 172.5l124 186.5l-148 -341z" />
    <glyph glyph-name="W" unicode="W" horiz-adv-x="1002" 
d="M490 736l-104 -168.001c-28.667 -46 -56 -87 -82 -123l104 310c10 5.33301 26.5 8.83301 49.5 10.5s36.5 2.83398 40.5 3.50098zM152 755.999l10 -92.0059l60 51c4 -13.333 7.33301 -40.666 10 -81.999s6.66699 -70 12 -86l-6 -5
c1.33301 -9.33301 3.33301 -38.166 6 -86.499s5.66699 -84.833 9 -109.5l69 101c-2 -11.333 -3 -25.666 -3 -42.999c0 -18 0.833008 -37.5 2.5 -58.5s4.16699 -42.167 7.5 -63.5h6l137 387c0 28 14.667 45.667 44 53l78 14l3 -281c10.667 9.33301 22.834 25.333 36.501 48
l45.5 75c-2.66699 -18.667 -4.66699 -41.834 -6 -69.501s-2 -55.167 -2 -82.5v-57c0 -18.667 0.333008 -37 1 -55l7 -8c25.333 55.333 53.833 121.666 85.5 198.999l90.5 222l97 21c-11.333 -43.333 -36.333 -116 -75 -218s-60.334 -160.333 -65.001 -175l4 -3
c21.333 27.333 54.833 78.5 100.5 153.5s80.167 127.833 103.5 158.5l-80 -205l-169 -417c-22 -9.33301 -40.333 -16.166 -55 -20.499s-31.334 -6.5 -50.001 -6.5l4 73c-7.33301 -10.667 -18 -18.334 -32 -23.001s-30 -8 -48 -10c0 52.667 -0.833008 120.834 -2.5 204.501
s-2.5 130.834 -2.5 141.501c-36 -44.667 -66.667 -102.667 -92 -174l-72 -205c-9.33301 -5.33301 -22 -9.66602 -38 -12.999l-45 -9c13.333 32.667 26.166 59.834 38.499 81.501l69 116c33.667 55.667 57.5 97.167 71.5 124.5l-11 3v38.5c0 13 0.333008 26.167 1 39.5
c0 16.667 -0.666992 31.834 -2 45.501s-4 26.5 -8 38.5c-17.333 -38.667 -34.666 -82.167 -51.999 -130.5l-56 -161.5c-20 -59.333 -35 -101.666 -45 -126.999c-11.333 -7.33301 -26.166 -12.833 -44.499 -16.5s-35.833 -6.83398 -52.5 -9.50098l-9 9
c0 23.333 -2 58.333 -6 105s-6 73.667 -6 81c0 16.667 1 33.667 3 51c-12.667 -6 -27 -21 -43 -45s-26 -38 -30 -42l-21 364c0 6 1.16699 15.167 3.5 27.5s2.83301 21.5 1.5 27.5c-14.667 -14 -28.5 -32 -41.5 -54l-36.5 -64l-14 231c22 8 40.333 13.833 55 17.5
s31 5.5 49 5.5z" />
    <glyph glyph-name="X" unicode="X" horiz-adv-x="728" 
d="M390 565c1.33301 -12 3.16797 -22.002 5.50098 -30.002s6.5 -16 12.5 -24l132 207c20.667 4.66699 38.5 8.5 53.5 11.5s29.833 4.5 44.5 4.5l-7 -26l-179 -300c4.66699 -18.667 11.167 -39 19.5 -61s16.833 -42.667 25.5 -62l39 43l89 -262
c-14 -9.33301 -27.833 -15.5 -41.5 -18.5s-37.167 -7.16699 -70.5 -12.5c-12.667 24.667 -23 49.334 -31 74.001s-16.667 56.667 -26 96c-9.33301 -2 -17.833 -9.16699 -25.5 -21.5s-12.834 -19.833 -15.501 -22.5c-8 14 -15.667 32.167 -23 54.5l-21 64.5
c-26.667 -33.333 -57.5 -79 -92.5 -137s-56.167 -92.667 -63.5 -104l-110 -21l5 25l216 342c-2.66699 9.33301 -4.66699 17 -6 23s-4.66602 11 -9.99902 15l-36 -46l-184 -299c-21.333 -6.66699 -34.333 -10.667 -39 -12s-10.667 -2.66602 -18 -3.99902l102.5 172.5
l116.5 188.5c-8 32 -22.667 75.167 -44 129.5s-33.333 85.5 -36 93.5l-40 -32l-49 125c21.333 8 41.5 14.333 60.5 19s37.5 7 55.5 7c4.66699 -4.66699 7.66699 -14 9 -28s3.66602 -22.333 6.99902 -25c6 3.33301 14.5 5.83301 25.5 7.5s21.5 3.5 31.5 5.5l64 -170
c22 28.667 44.167 61.167 66.5 97.5l65.5 107.5l38 9zM620.002 -0.00195312c2 14.667 7.66797 29.667 17.001 45s21.666 31.333 36.999 48l21 -75z" />
    <glyph glyph-name="Y" unicode="Y" horiz-adv-x="663" 
d="M143 738c-5.33301 -10 -7.33105 -17.665 -5.99805 -22.998l75 10c11.333 -30.667 23 -67.834 35 -111.501s22 -84.167 30 -121.5l44 53c2.66699 -6.66699 7.66699 -21.334 15 -44.001s14.666 -44 21.999 -64c26.667 38 59.5 92.333 98.5 163l69.5 125l101 22
c-75.333 -148 -154 -294.333 -236 -439c0 -10 -3.16699 -28.833 -9.5 -56.5s-9.5 -47.167 -9.5 -58.5v-9l31 36l230 362l-169 -310l-46 -252c-19.333 -6 -37.833 -10.833 -55.5 -14.5s-35.834 -5.5 -54.501 -5.5l9 79c-8.66699 -10 -20 -18.167 -34 -24.5
s-29 -10.5 -45 -12.5c0 28.667 6.16699 73.167 18.5 133.5s18.5 101.5 18.5 123.5l-19 53.5c-6 16.333 -13 36.5 -21 60.5l-43 -46l-55 187l-40 103l-40 -46l-28 115c0 6.66699 1 13.667 3 21c12 0 29 3.66699 51 11s40 11 54 11z" />
    <glyph glyph-name="Z" unicode="Z" horiz-adv-x="740" 
d="M197 769l-15.001 -36.002c-4 -10 -6.66699 -19.333 -8 -28l298 57c-0.666992 -7.33301 -4 -17.666 -10 -30.999s-9.33301 -23.666 -10 -30.999c18.667 0 52.5 5.5 101.5 16.5s77.167 16.833 84.5 17.5c2 -9.33301 3 -19 3 -29c0 -9.33301 -1 -20.166 -3 -32.499
s-3.66699 -23.833 -5 -34.5l-277 -358l-81 -103c3.33301 -2 6.83301 -3.33301 10.5 -4s7.83398 -1 12.501 -1c7.33301 0 19.333 1.66699 36 5s29.334 5 38.001 5l-16 -56l261 36c-1.33301 -8 -2 -14 -2 -18c0 -17.333 6.66699 -28 20 -32c6 -1.33301 13.833 -1 23.5 1
s16.167 2.66699 19.5 2c0.666992 -6.66699 1.16699 -12.5 1.5 -17.5s0.5 -9.5 0.5 -13.5c0 -8.66699 -0.5 -17.667 -1.5 -27s-4.5 -19.333 -10.5 -30c-14.667 -6.66699 -32.5 -12.334 -53.5 -17.001s-39.833 -8 -56.5 -10c0 4.66699 2.33301 12 7 22s7 17.333 7 22
s-1.66699 8.33398 -5 11.001l-291 -53c1.33301 4.66699 6.5 14.334 15.5 29.001s12.5 25.667 10.5 33c-30.667 -2.66699 -63.334 -7.16699 -98.001 -13.5l-101 -18.5l10 94l367 464v7h-12c-11.333 0 -27.5 -2.33301 -48.5 -7s-34.833 -7.33398 -41.5 -8.00098l30 60
l-260 -43c1.33301 9.33301 4.83301 26 10.5 50s8.5 39.333 8.5 46l-45 -48l-40 4l13 97c10.667 3.33301 31.667 7.66602 63 12.999c18 4 31 6.66699 39 8zM685.999 575.998l-255 -335l-6 -6l263 403l17 21c0.666992 -4 1 -10 1 -18c0 -13.333 -1.5 -25 -4.5 -35
s-8.16699 -20 -15.5 -30zM33.999 97.998l21 90l234 290l-194 -304z" />
    <glyph glyph-name="a" unicode="a" horiz-adv-x="522" 
d="M258 475c8.66699 0 24.8301 1.66699 48.4971 5s40.834 5 51.501 5c18.667 0 34.167 -3 46.5 -9s22.166 -17.333 29.499 -34c2 -9.33301 3 -19 3 -29c0 -10.667 -0.5 -18.834 -1.5 -24.501s-3.16699 -15.834 -6.5 -30.501c7.33301 2.66699 17 12.5 29 29.5
s22 27.167 30 30.5c6.66699 -18 10 -38.667 10 -62c0 -16.667 -1 -31.667 -3 -45s-5.5 -33.166 -10.5 -59.499l-16.5 -83.5c-6 -29.333 -9 -55.666 -9 -78.999c0 -5.33301 0.333008 -10.833 1 -16.5s1 -10.167 1 -13.5c-10 -6.66699 -20.167 -11.334 -30.5 -14.001
s-27.833 -6 -52.5 -10c-3.33301 2 -5 6.33301 -5 13c0 10.667 -1.66699 17 -5 19c-14.667 -20.667 -35 -37 -61 -49s-53 -18 -81 -18c2 8 6.83301 19.333 14.5 34s12.5 25.667 14.5 33c-18 -8.66699 -34.167 -16 -48.5 -22s-28.5 -9 -42.5 -9c-9.33301 0 -18 1.33301 -26 4
c-12 2.66699 -22 8.33398 -30 17.001s-15 20 -21 34c-1.33301 12 -2 21 -2 27c0 51.333 17.667 91.666 53 120.999c18.667 18 53.167 36.667 103.5 56s85.166 40.333 104.499 63c2 5.33301 3 10.333 3 15c0 4 -1 9.66699 -3 17c-5.33301 10 -11.666 15 -18.999 15
c-23.333 0 -44.166 -4.16699 -62.499 -12.5s-32.166 -21.833 -41.499 -40.5c0 -10 -3.16699 -16.5 -9.5 -19.5s-16.5 -5.5 -30.5 -7.5h-8l64 117c-18 0 -35.167 -7.5 -51.5 -22.5s-29.166 -32.167 -38.499 -51.5c-8.66699 -3.33301 -19.667 -5.66602 -33 -6.99902
s-26 -2.33301 -38 -3c6 38 24.833 71.833 56.5 101.5s67.5 49.5 107.5 59.5l36 6zM161.996 331c-22 -42.667 -42.6689 -79.667 -62.002 -111s-42.666 -64.666 -69.999 -99.999c-4 11.333 -6 23 -6 35c0 15.333 2.33301 29.666 7 42.999s12.334 30 23.001 50
c12.667 18.667 28 34.5 46 47.5s38.667 24.833 62 35.5zM181.994 148c5.33301 -17.333 19.333 -25.998 42 -25.998c6 0 17.5 3.16699 34.5 9.5s32.833 22.666 47.5 48.999s23.667 56.833 27 91.5l-95.5 -45.5c-33 -15.667 -51.5 -41.834 -55.5 -78.501zM340.994 208.002
c-17.333 -24.667 -31 -46 -41 -64s-17.667 -36.667 -23 -56c16 0 34.667 5.33301 56 16c22 14 37.667 32.333 47 55s14 48 14 76c-10.667 -4 -20 -8.33301 -28 -13z" />
    <glyph glyph-name="b" unicode="b" horiz-adv-x="579" 
d="M93 729c-6 -17.333 -14.5 -34.6689 -25.5 -52.002s-24.833 -36.666 -41.5 -57.999c3.33301 26.667 7 51.834 11 75.501s18 35.5 42 35.5c6 0 10.667 -0.333008 14 -1zM208 696.997c-6.66699 -42.667 -12.165 -79.668 -16.498 -111.001s-6.5 -58 -6.5 -80l32 28.5
c8.66699 7.66699 18 12.5 28 14.5c-1.33301 -2 -2 -7.66699 -2 -17l2 -4c2.66699 0 5 2 7 6s4.66699 6 8 6c0.666992 -2.66699 1 -6.66699 1 -12c0 -4.66699 -1.5 -14 -4.5 -28s-4.5 -24.667 -4.5 -32c33.333 21.333 59 36.833 77 46.5s35.667 15.5 53 17.5
c36 -4 64.667 -21.333 86 -52l10.5 5.5c5.66699 3 10.167 2.83301 13.5 -0.5c22 -16.667 37.667 -37.667 47 -63s14 -53.666 14 -84.999c0 -20 -1.5 -39.667 -4.5 -59s-7.5 -40.333 -13.5 -63c-18 -52.667 -44.833 -99.667 -80.5 -141s-76.834 -62 -123.501 -62
c-12 0 -23.333 2.66699 -34 8s-23 13 -37 23c-9.33301 -17.333 -19 -29.166 -29 -35.499s-20.333 -8.83301 -31 -7.5c0 6.66699 3.5 16.667 10.5 30s10.5 22.666 10.5 27.999c0 10 -8 17.667 -24 23c-8.66699 0 -14.667 -6.33301 -18 -19s-9 -19 -17 -19
c-8.66699 0 -21.667 -1.33301 -39 -4s-31 -4 -41 -4c3.33301 30 10.666 78.5 21.999 145.5s18.333 112.833 21 137.5l-90 -115l60 399l16 76c16 4 31.667 7.66699 47 11s32 6 50 8zM329.002 424.996c-34.667 -10 -58.667 -27.167 -72 -51.5s-23.5 -47.5 -30.5 -69.5
s-10.5 -43.333 -10.5 -64c0 -29.333 4.83301 -50.833 14.5 -64.5s18.834 -20.5 27.501 -20.5c11.333 1.33301 19.333 2 24 2c6 0 9.66699 -4 11 -12s7 -15.333 17 -22s21 -9.33398 33 -8.00098c14 3.33301 28 10.333 42 21s25.5 24.834 34.5 42.501s16.667 37.334 23 59.001
s9.5 44.5 9.5 68.5c0 33.333 -8 61.666 -24 84.999c-4.66699 -1.33301 -10.334 -6.16602 -17.001 -14.499l-22 -27.5c-2.66699 4.66699 -5 11.167 -7 19.5s-4 16.166 -6 23.499s-7.66699 15 -17 23s-19.333 11.333 -30 10z" />
    <glyph glyph-name="c" unicode="c" horiz-adv-x="530" 
d="M289 526c-2 -8 -5.16016 -16.3369 -9.49316 -25.0039l-14.5 -30c28.667 8 47.167 12.833 55.5 14.5s17.166 2.5 26.499 2.5c17.333 0 33.666 -5 48.999 -15s26.5 -23.667 33.5 -41s12.5 -39.666 16.5 -66.999l44 40c10.667 -24.667 16 -49.667 16 -75
c-10 -6.66699 -26.667 -12.667 -50 -18s-37.333 -9 -42 -11l35 60c-12.667 0 -26.167 -1.83301 -40.5 -5.5s-29.166 -8.16699 -44.499 -13.5c-4.66699 2.66699 -10 11 -16 25s-13.667 22.667 -23 26c-8 1.33301 -14 2 -18 2c-23.333 0 -48.833 -15.167 -76.5 -45.5
s-41.5 -76.833 -41.5 -139.5c0 -17.333 2 -34.666 6 -51.999c4 -10 10 -17.167 18 -21.5s17 -6.5 27 -6.5c6 0 16 1.83301 30 5.5s26 11.834 36 24.501s21.667 31 35 55h11l-27 -48c-9.33301 -17.333 -21.666 -42 -36.999 -74c5.33301 -2 10.666 -3 15.999 -3
c7.33301 0 14.666 1.33301 21.999 4s16.333 6.66699 27 12s22.167 18.833 34.5 40.5s24.833 33.5 37.5 35.5l57 5c-8.66699 -35.333 -24.834 -68.5 -48.501 -99.5s-51.834 -54.5 -84.501 -70.5c-25.333 -10.667 -54.333 -16 -87 -16h-18
c1.33301 6.66699 3.33301 12.5 6 17.5l10 19.5c-8.66699 0 -20.334 -0.5 -35.001 -1.5s-22.334 -1.5 -23.001 -1.5c-10 0 -19 0.666992 -27 2s-20.5 6.16602 -37.5 14.499s-28.833 28.833 -35.5 61.5s-11 54.667 -13 66l-48 -54c-11.333 27.333 -17 57.333 -17 90
c0 38.667 7.66699 77.334 23 116.001s36 74.334 62 107.001c25.333 28.667 52.666 50.5 81.999 65.5s62 22.5 98 22.5zM222.007 430.996c-30.667 -18.667 -54.168 -45 -70.501 -79s-24.5 -70 -24.5 -108c26 39.333 46.833 71.833 62.5 97.5s31.834 55.5 48.501 89.5h-16z
" />
    <glyph glyph-name="d" unicode="d" horiz-adv-x="635" 
d="M499 477c14 10.667 34.1689 35.333 60.502 74s40.833 59.334 43.5 62.001l-69 -449c-2.66699 -6 -5.66699 -22.833 -9 -50.5s-12 -45.5 -26 -53.5c-12.667 -2.66699 -25.834 -5.83398 -39.501 -9.50098s-25.834 -5.5 -36.501 -5.5v11
c0 7.33301 -1.66699 12.666 -5 15.999c-22.667 -20.667 -45.5 -37.834 -68.5 -51.501s-45.5 -20.5 -67.5 -20.5c-16.667 0 -32.334 3.66699 -47.001 11l8 21c2 5.33301 4.66699 11 8 17l-34 -7c-10 -2 -19.333 -3 -28 -3c-18 0 -32 5.33301 -42 16
c-22 18.667 -36.333 47 -43 85c-4 44 -7.33301 76 -10 96l-56 -71c-3.33301 6 -5.66602 13.833 -6.99902 23.5s-2 19.834 -2 30.501c0 12.667 0.333008 25 1 37l2 36c12 66 36.5 125.667 73.5 179s85.5 87 145.5 101l31 2l-21 -52c14.667 4 25.834 6.5 33.501 7.5
s17.5 1.5 29.5 1.5c18 0 33.667 -2.66699 47 -8s24.666 -14.666 33.999 -27.999c6.66699 20 13.5 49.833 20.5 89.5l23.5 128.5c32.667 12 65 18 97 18zM588.002 27.999c-8 -4.66699 -22.167 -9.16699 -42.5 -13.5s-31.5 -6.83301 -33.5 -7.5
c7.33301 26.667 18.5 52.5 33.5 77.5s35.167 54.167 60.5 87.5c0 -21.333 -1.5 -43.833 -4.5 -67.5s-7.5 -49.167 -13.5 -76.5zM321.002 432.999c-36.667 -12 -65.166 -35.6699 -85.499 -71.0029s-32.5 -75 -36.5 -119c3.33301 -28.667 6.5 -48.667 9.5 -60
s9.83301 -19.666 20.5 -24.999s20 -8 28 -8c12 0 24 4.33301 36 13c14 12 24 20 30 24l-14 -29c-4 -8 -8.33301 -15 -13 -21c-3.33301 -3.33301 -2.83301 -6.83301 1.5 -10.5s9.16602 -7.16699 14.499 -10.5c7.33301 -2.66699 14.666 -4 21.999 -4c12 0 22.667 2.33301 32 7
s19.666 12.334 30.999 23.001c36.667 40 55 88.667 55 146c0 26.667 -5 51.667 -15 75c-4.66699 -5.33301 -15.667 -22.166 -33 -50.499s-32.666 -47.833 -45.999 -58.5c11.333 32 18.166 53.167 20.499 63.5s3.5 22.5 3.5 36.5c0 14.667 -2.16699 28.167 -6.5 40.5
s-11.666 22.5 -21.999 30.5s-21.166 10.667 -32.499 8zM125.003 297.996c41.333 57.333 77.333 116.333 108 177c-31.333 -14.667 -55.5 -38.167 -72.5 -70.5s-28.833 -67.833 -35.5 -106.5z" />
    <glyph glyph-name="e" unicode="e" horiz-adv-x="534" 
d="M312 522c2 -4 1.83691 -9.66797 -0.496094 -17.001s-3.5 -11.666 -3.5 -12.999c0 -3.33301 1.33301 -6.33301 4 -9c8.66699 4.66699 18 7 28 7c9.33301 0 16.666 -0.666992 21.999 -2s14 -4.66602 26 -9.99902c22 -14.667 37 -39 45 -73c5.33301 -30 11 -59.667 17 -89
c9.33301 4.66699 19.333 14.167 30 28.5s16.667 22.166 18 23.499c4 -15.333 6.83301 -29.666 8.5 -42.999s2.5 -28 2.5 -44c0 -20.667 -2.33301 -38.334 -7 -53.001c-4 -0.666992 -19 -4.16699 -45 -10.5s-45.667 -9.5 -59 -9.5c-0.666992 4 1.5 11.5 6.5 22.5
s7.5 18.167 7.5 21.5c0 2.66699 -1 5.66699 -3 9l-225 -46c-3.33301 -5.33301 -5 -11.666 -5 -18.999c0 -6 0.333008 -10.167 1 -12.5s3.33398 -10.833 8.00098 -25.5c10 -18 26 -27 48 -27c8.66699 0 16.667 1.33301 24 4c12.667 0 30.667 11.667 54 35
s42.666 34 57.999 32l-55 -111c16 4 29.667 11.167 41 21.5s24.666 25.5 39.999 45.5l84 6c-18 -44.667 -47 -83.167 -87 -115.5s-83.333 -48.5 -130 -48.5l28 57c-16.667 -4 -32.834 -7.5 -48.501 -10.5s-30.834 -4.5 -45.501 -4.5c-14 0 -26.667 1.33301 -38 4
s-22.333 8 -33 16c-10 9.33301 -19.333 23.666 -28 42.999s-13 29.333 -13 30l-32 -28c-11.333 17.333 -19.333 34.833 -24 52.5s-7 37.167 -7 58.5c0 33.333 5.5 66 16.5 98s26.5 64.333 46.5 97c26 34.667 54.5 62.167 85.5 82.5s64.833 30.5 101.5 30.5h15.5
c4.33301 0 11.833 -1.33301 22.5 -4zM217.004 431.999c-20 -4 -37.334 -14.333 -52.001 -31s-26 -35.667 -34 -57c2.66699 -0.666992 6.66699 -1 12 -1c6.66699 0 16.334 1 29.001 3s22 3 28 3c5.33301 0 9.33301 -0.333008 12 -1l-12 -46
c50.667 6.66699 101.334 16.667 152.001 30v8c-2.66699 15.333 -6.16699 27.5 -10.5 36.5s-10.833 15.167 -19.5 18.5s-15.334 5 -20.001 5c-7.33301 0 -15.5 -1.66699 -24.5 -5s-17.5 -7 -25.5 -11c-0.666992 4 1.83301 10.5 7.5 19.5s8.5 16.167 8.5 21.5
c-4.66699 4.66699 -11.667 7 -21 7h-30zM112.003 247.999c-0.666992 -3.33301 -0.999023 -8.33301 -0.999023 -15c0 -5.33301 0.333008 -10 1 -14s3 -12 7 -24c9.33301 6 18.166 15 26.499 27s15.166 25 20.499 39c-7.33301 -0.666992 -15.166 -1.5 -23.499 -2.5
s-18.5 -4.5 -30.5 -10.5z" />
    <glyph glyph-name="f" unicode="f" horiz-adv-x="415" 
d="M245 731c-12.667 -32 -32.333 -68.832 -59 -110.499l-90 -139.5c9.33301 -2 16.666 -3 21.999 -3c22 0 37 18.5 45 55.5s15.333 59.167 22 66.5c17.333 29.333 42.166 51.833 74.499 67.5s66.5 23.5 102.5 23.5c-0.666992 -3.33301 -2.16699 -17.666 -4.5 -42.999
s-9.83301 -41.333 -22.5 -48c-14 -2 -27.167 -7.5 -39.5 -16.5s-20.166 -18.667 -23.499 -29s-5.66602 -18 -6.99902 -23s-1.33301 -10.5 0 -16.5h63l-13 -73c-49.333 0 -79.833 -34.167 -91.5 -102.5s-20.5 -106.833 -26.5 -115.5c27.333 30.667 52.333 62.334 75 95.001
l68.5 100.5c23 34.333 37.333 51.833 43 52.5s9.83398 1.66699 12.501 3l-8 -73c-3.33301 -2.66699 -17.333 -6.33398 -42 -11.001s-37 -15.667 -37 -33l-64 -339c-14.667 -6.66699 -30.667 -11.5 -48 -14.5s-35.666 -4.5 -54.999 -4.5c6.66699 34 11.667 62.667 15 86
s5 47.333 5 72c-4 -3.33301 -16.667 -20.5 -38 -51.5s-38.666 -50.167 -51.999 -57.5l59 349l-47 4c0 8 1.66699 19.167 5 33.5s5 23.5 5 27.5c0 2.66699 -0.666992 6.66699 -2 12c-13.333 -12 -23.5 -20.667 -30.5 -26s-18.833 -8 -35.5 -8h-7
c0 18.667 0.666992 33.334 2 44.001s4.66602 20.667 9.99902 30c34 -3.33301 55.167 14.667 63.5 54s16.166 63.666 23.499 72.999c13.333 21.333 31.166 39.666 53.499 54.999s46.833 26.666 73.5 33.999z" />
    <glyph glyph-name="g" unicode="g" horiz-adv-x="640" 
d="M345 502c-2 -5.33301 -3 -9.33398 -3 -12.001c0 -7.33301 8.83301 -12.166 26.5 -14.499s28.5 -4.83301 32.5 -7.5l37 -27c0 24 13 38.333 39 43l68 8c0 -13.333 -3 -38.833 -9 -76.5s-9 -63.834 -9 -78.501c0 -8 0.333008 -14 1 -18
c14.667 12.667 31.667 33.334 51 62.001s33 47.334 41 56.001l-18 -136l-74 -358c-20 -53.333 -55.667 -96.833 -107 -130.5s-106 -50.5 -164 -50.5c-14 2 -28 3.66699 -42 5c-17.333 4 -26 11.667 -26 23c0 4 1 8.66699 3 14c-18.667 0 -35.667 2.16699 -51 6.5
s-29.166 11.166 -41.499 20.499s-20.166 22 -23.499 38c-2 20.667 -3.66699 36 -5 46l50 20.5c14 5.66699 27 8.5 39 8.5c11.333 0 20.666 -3.33301 27.999 -10c2.66699 -10 7.66699 -17 15 -21s23.666 -7.66699 48.999 -11c0 -5.33301 0.333008 -8.33301 1 -9
c4.66699 0 10 -4.83301 16 -14.5s11.333 -15.167 16 -16.5c24 0 44.333 1.33301 61 4s32.5 11.167 47.5 25.5s27 33.5 36 57.5s13.5 48.667 13.5 74c-24 -18 -46.5 -32.667 -67.5 -44s-43.5 -19 -67.5 -23l57 103c-6.66699 -0.666992 -19 -6.66699 -37 -18
s-30.333 -17.666 -37 -18.999c-13.333 -6.66699 -27 -11.834 -41 -15.501s-29 -5.5 -45 -5.5c-12 0 -23.5 1.66699 -34.5 5s-20.5 9 -28.5 17c-11.333 7.33301 -20.5 18 -27.5 32s-13.5 27.667 -19.5 41l-31 -26c-14.667 14 -25.5 31.5 -32.5 52.5s-10.5 43.833 -10.5 68.5
c0 28 6.66699 63.167 20 105.5s38.666 85.833 75.999 130.5s82.333 74 135 88h24c14.667 0 27.334 -0.833008 38.001 -2.5s21 -5.16699 31 -10.5zM198 378.999c-21.333 -19.333 -37.333 -43 -48 -71s-16 -57 -16 -87v-19c0 -5.33301 1.33301 -14 4 -26l27 12l133 228
c-22 -2.66699 -40.833 -6.5 -56.5 -11.5s-30.167 -13.5 -43.5 -25.5zM345 374.999c-16.667 -4 -29.502 -7.83203 -38.502 -11.499s-22.333 -17.5 -40 -41.5s-31.334 -47.333 -41.001 -70s-14.5 -44 -14.5 -64c0 -10.667 1.66699 -22.334 5 -35.001s10.333 -22.167 21 -28.5
s22.334 -9.5 35.001 -9.5c16.667 0 32.334 4 47.001 12s29.334 19.333 44.001 34c14 18.667 24.333 39.5 31 62.5s10 47.167 10 72.5c0 12.667 -1 25.667 -3 39c-4 11.333 -11.333 21.5 -22 30.5s-22 12.167 -34 9.5zM480.998 232l-59.999 -85.499
c-14.667 -21.667 -30.667 -47.834 -48 -78.501c31.333 11.333 57.166 33 77.499 65s30.5 65 30.5 99z" />
    <glyph glyph-name="h" unicode="h" horiz-adv-x="601" 
d="M161 731c2 -4 1.83594 -9.83203 -0.49707 -17.499s-3.5 -12.5 -3.5 -14.5c0 -5.33301 3 -9.66602 9 -12.999l69 6l-21 -196l5 -5c16 20 34.833 34.833 56.5 44.5s46.834 17.167 75.501 22.5c-0.666992 -4 -4.83398 -14.667 -12.501 -32s-12.167 -29 -13.5 -35
c7.33301 -2 17.333 0.5 30 7.5s22 10.833 28 11.5c12 3.33301 23 5 33 5c36.667 0 62.334 -14 77.001 -42c4 -9.33301 6.66699 -19.5 8 -30.5s2 -23.5 2 -37.5c0 -16.667 -0.666992 -31.334 -2 -44.001l-3 -29c9.33301 4 22.333 16.667 39 38s26 32.666 28 33.999
c4 -6.66699 6.5 -13.334 7.5 -20.001s1.5 -13.334 1.5 -20.001c0 -8 -1 -20.667 -3 -38s-3 -30 -3 -38c-6 -22 -14.667 -65.667 -26 -131s-20 -109.333 -26 -132c-14.667 -5.33301 -29.5 -9.66602 -44.5 -12.999s-30.5 -5 -46.5 -5c0 25.333 4.5 65 13.5 119
s13.5 89 13.5 105c-12.667 -10 -28.334 -28.333 -47.001 -55s-32 -44.667 -40 -54c0 20.667 4.5 54.5 13.5 101.5s13.5 79.833 13.5 98.5c0 17.333 -2 35 -6 53c-6.66699 11.333 -17.334 17 -32.001 17c-4 0 -8.66699 -0.666992 -14 -2s-10.333 -2.66602 -15 -3.99902
c-42.667 -20 -69 -62.5 -79 -127.5s-16 -100.833 -18 -107.5l-23 -133l-94 -18c-2 9.33301 -3 18.333 -3 27c0 14 2.33301 34 7 60s7 43.667 7 53v15l-86 -103l84 542l-4 4l-89 -116l39 227c9.33301 5.33301 19.166 9.33301 29.499 12s32.166 6 65.499 10zM173.003 252.001
c20.667 27.333 40 56.834 58 88.501s35 64.167 51 97.5c-36 -10 -63.167 -33.833 -81.5 -71.5s-27.5 -75.834 -27.5 -114.501z" />
    <glyph glyph-name="i" unicode="i" horiz-adv-x="295" 
d="M165 678l74.001 8l-14 -101l-96 -20v54c-24.667 -2.66699 -49.334 -5 -74.001 -7l12 99c4 0.666992 17.833 4.16699 41.5 10.5s42.5 9.5 56.5 9.5v-53zM90.001 545c-4.66699 -13.333 -12 -27.332 -22 -41.999s-22 -30.667 -36 -48c-0.666992 2.66699 -1 6.66699 -1 12
c0 6.66699 1.66699 17.667 5 33s5 26 5 32c5.33301 3.33301 14.333 6.16602 27 8.49902s20 3.83301 22 4.5zM212.001 512.001c-4 -42 -9.99805 -86.3311 -17.998 -132.998l-24 -136l7 -7l94 126l-67 -344l-96 -18c0 23.333 3 48 9 74l18 77
c-10.667 -8.66699 -25.834 -27.334 -45.501 -56.001s-31.834 -45.334 -36.501 -50.001h-16c0 64 8.33301 135.167 25 213.5l50 227.5c11.333 8.66699 26.5 14.5 45.5 17.5z" />
    <glyph glyph-name="j" unicode="j" horiz-adv-x="300" 
d="M206 722c-6 -32.667 -12.3311 -59.8311 -18.998 -81.498s-21.334 -32.5 -44.001 -32.5c-6 0 -13 1 -21 3h-17v26c0 17.333 1.16699 31.666 3.5 42.999s7.83301 20.666 16.5 27.999c18 4.66699 33.167 8.16699 45.5 10.5s24.166 3.5 35.499 3.5zM259.002 591.003
c-6.66699 -4 -19.833 -7.16699 -39.5 -9.5s-31.5 -4.5 -35.5 -6.5c7.33301 19.333 17 38.833 29 58.5s24.667 36.167 38 49.5h20zM155.003 553.003c-10.667 -28 -23.333 -54.168 -38 -78.501s-32 -46.5 -52 -66.5l23 122c12 5.33301 23.5 9.83301 34.5 13.5
s21.833 6.83398 32.5 9.50098zM154.004 500.002l-81.998 -450.001l-18 -25c-22 0 -36.333 -11 -43 -33c-4.66699 -20 -9 -40.333 -13 -61c12.667 -2 23 0.333008 31 7l53 84c26.667 42.667 50.667 76 72 100l1 -4c-2 -5.33301 -6 -31.5 -12 -78.5s-28.333 -70.5 -67 -70.5
c-4 -21.333 -7.66699 -42.666 -11 -63.999c0 -7.33301 1 -15 3 -23l57 8c27.333 6 50.833 19.5 70.5 40.5s32.5 45.833 38.5 74.5l54 320l-96 -128c13.333 67.333 24.166 124 32.499 170s16.166 94.667 23.499 146c-16 0 -33.833 -1.83301 -53.5 -5.5z" />
    <glyph glyph-name="k" unicode="k" horiz-adv-x="580" 
d="M178 731c0 -14.667 -2.49902 -37.668 -7.49902 -69.001s-7.5 -53.666 -7.5 -66.999c7.33301 5.33301 18.666 21.333 33.999 48s31.666 40 48.999 40l-19.5 -172c-5 -45.333 -12.5 -91.666 -22.5 -138.999l7 -8l82.5 89c25.667 28.667 46.834 54.667 63.501 78
c3.33301 2.66699 8 5.16699 14 7.5s16 4.83301 30 7.5l-92 -197l121 146l109 21c-12.667 -24 -32.167 -52.333 -58.5 -85l-88.5 -108c3.33301 -22.667 11.333 -47.5 24 -74.5l37 -77.5c6 0 11.167 3.16699 15.5 9.5l14.5 21.5c13.333 -24 26.5 -52.5 39.5 -85.5l30.5 -78.5
l-5 -8c-8 0 -22.333 -3.66699 -43 -11s-35.667 -11 -45 -11c-16 0 -26.5 6.83301 -31.5 20.5s-8.66699 24.334 -11 32.001s-6.83301 13.834 -13.5 18.501l-32 -26l-77 162c-30.667 -16.667 -49.167 -44.334 -55.5 -83.001l-17.5 -111c-13.333 -7.33301 -30 -12.333 -50 -15
s-36.333 -4.66699 -49 -6c0 9.33301 1.5 22.166 4.5 38.499s4.5 26.833 4.5 31.5c-9.33301 -10 -20.833 -17.167 -34.5 -21.5s-28.5 -6.5 -44.5 -6.5c4.66699 46 10.334 91.333 17.001 136l25.5 169.5c10.333 68.333 17.166 117.166 20.499 146.499l-90 -112l53 326z
M175.001 152.999l39.001 58.999c7.33301 14 11 26.333 11 37c-14.667 -6.66699 -26.834 -17.667 -36.501 -33s-14.5 -32 -14.5 -50c0 -5.33301 0.333008 -9.66602 1 -12.999z" />
    <glyph glyph-name="l" unicode="l" horiz-adv-x="268" 
d="M145 581c4.66699 4 17.667 20.1641 39 48.4971s37.333 45.833 48 52.5c-6.66699 -50 -15.5 -108.833 -26.5 -176.5l-35.5 -213l-25 -145.5c13.333 8.66699 29.5 26.834 48.5 54.501s32.833 45.834 41.5 54.501c-3.33301 -30.667 -7.83301 -63.334 -13.5 -98.001
l-19.5 -122c-8.66699 -12.667 -21.167 -21 -37.5 -25s-36.166 -6 -59.499 -6c-1.33301 6 -1.16602 14 0.500977 24s2.5 15.667 2.5 17c0 4.66699 -1 9 -3 13c-8.66699 0 -21.334 -2.33301 -38.001 -7s-28.667 -7 -36 -7c22 152 48.333 304.667 79 458
c-10.667 -11.333 -26.834 -33.166 -48.501 -65.499s-38.167 -55.166 -49.5 -68.499l49 343c16 6.66699 32.833 12.167 50.5 16.5s35.5 6.5 53.5 6.5z" />
    <glyph glyph-name="m" unicode="m" horiz-adv-x="913" 
d="M301 462c0 -14.667 0.333008 -22.667 1 -24c18.667 20.667 38.5 37.5 59.5 50.5s42.833 19.5 65.5 19.5c6.66699 0 14 -1 22 -3l40 -35l36 35c-10 -7.33301 -15 -14.333 -15 -21c0 -4.66699 7.16699 -13.834 21.5 -27.501s21.5 -24.167 21.5 -31.5
c34.667 39.333 60.334 64.666 77.001 75.999s35 17 55 17h12c14.667 4 28 -2.33301 40 -19s21.667 -25 29 -25c4.66699 0 9.33398 1.33301 14.001 4c18.667 -5.33301 29.167 -15.166 31.5 -29.499s4.5 -32.833 6.5 -55.5l-26 -257l4 -8c6.66699 6.66699 18.5 23.667 35.5 51
s30.5 44.333 40.5 51l-33 -168c-8 -5.33301 -17.833 -11.5 -29.5 -18.5s-24.167 -9.83301 -37.5 -8.5v45c-8 0 -20.333 -2.5 -37 -7.5s-30 -6.83301 -40 -5.5c0 30 5.66699 77.333 17 142s17 109 17 133c0 8 -1.16699 15.333 -3.5 22s-6.83301 11.334 -13.5 14.001
c-9.33301 -3.33301 -18.333 -12.333 -27 -27s-15.667 -24.334 -21 -29.001c0 4 0.333008 10.5 1 19.5s1 15.833 1 20.5c0 13.333 -1.83301 24.5 -5.5 33.5s-8.66699 14.5 -15 16.5s-10.666 3 -12.999 3h-4.5c-11.333 0 -21.5 -4 -30.5 -12s-18.5 -18.667 -28.5 -32
c-16.667 -34 -29.5 -88.667 -38.5 -164s-15.167 -121 -18.5 -137l-88 -18c0 32 4.66699 82.333 14 151s14 120.334 14 155.001l-4 5c-8.66699 -7.33301 -18.334 -19.166 -29.001 -35.499l-34 -53.5c-0.666992 7.33301 0.333008 19.333 3 36s4 28 4 34
c0 12 -1.66699 22 -5 30s-9.33301 15 -18 21c-6 2 -11.333 3 -16 3c-10.667 0 -20 -3.83301 -28 -11.5s-16 -18.167 -24 -31.5c-17.333 -44 -29.833 -95.167 -37.5 -153.5s-13.834 -106.833 -18.501 -145.5l-87 -18c8 85.333 16 149.333 24 192s18 81 30 115
c-12.667 -11.333 -29.667 -34 -51 -68s-39 -57.667 -53 -71l37 269c10.667 6 22.667 10.667 36 14s29.666 6.66602 48.999 9.99902c2 -2 3 -5.66699 3 -11c0 -10 1.66699 -16 5 -18l56 56l-21 -64h28zM577 40c-8 -5.33301 -19.668 -10.333 -35.001 -15
s-26.666 -8 -33.999 -10l4 25l97 175zM301.999 19c-8.66699 -4 -17.166 -7.66699 -25.499 -11s-15.833 -6 -22.5 -8c9.33301 23.333 23.666 53.833 42.999 91.5l35 68.5zM85 110c-11.333 -11.333 -20.332 -25 -26.999 -41s-12 -33.667 -16 -53l4 15l6 -15
c12 6 19.667 21.667 23 47s6.66602 41 9.99902 47z" />
    <glyph glyph-name="n" unicode="n" horiz-adv-x="548" 
d="M305 526c-14.667 -36 -27.665 -65.835 -38.998 -89.502s-30.333 -35.5 -57 -35.5c-22 -20.667 -38.667 -44.834 -50 -72.501s-17 -56.5 -17 -86.5c14 14 42.833 57.667 86.5 131s93.5 110 149.5 110h22c7.33301 -2 12.333 -3.33301 15 -4
c16 -9.33301 26.833 -22.666 32.5 -39.999s8.5 -38 8.5 -62c0 -8.66699 -0.166992 -17 -0.5 -25s-0.5 -16 -0.5 -24c8 6 18.333 18.833 31 38.5s22.667 32.167 30 37.5l6 -84l-50 -288c-10.667 -4.66699 -24.167 -8.5 -40.5 -11.5l-46.5 -8.5
c3.33301 31.333 6.83301 58.666 10.5 81.999s14.167 82 31.5 176c-12 -10.667 -29.667 -34 -53 -70s-36.333 -55.333 -39 -58c0 16 3.33301 45.333 10 88s10 73.334 10 92.001c0 12 -1 24 -3 36c-5.33301 10 -15 15 -29 15c-6.66699 0 -13.334 -0.833008 -20.001 -2.5
s-15 -4.66699 -25 -9s-19.5 -13.833 -28.5 -28.5s-18.167 -35 -27.5 -61l-44 -249l-86 -23c0 22.667 1.5 45.834 4.5 69.501s9.83301 59.167 20.5 106.5c-11.333 -8 -27.833 -28.333 -49.5 -61s-35.834 -52 -42.501 -58c4.66699 53.333 13 116.833 25 190.5l35 211.5
c8.66699 7.33301 23.834 13.333 45.501 18s35.5 8.33398 41.5 11.001l6 -29c22.667 18 44.167 33.167 64.5 45.5s41.166 19.5 62.499 21.5z" />
    <glyph glyph-name="o" unicode="o" horiz-adv-x="548" 
d="M326 515c-1.33301 -4.66699 -3.00195 -9.49707 -5.00195 -14.4971s-1.66699 -9.16699 1 -12.5c7.33301 2.66699 15.333 4 24 4c10 0 20.5 -2 31.5 -6s22.167 -9.66699 33.5 -17c18.667 -16 30.5 -32.5 35.5 -49.5s10.833 -48.167 17.5 -93.5
c3.33301 1.33301 10.5 9.5 21.5 24.5s20.167 23.5 27.5 25.5c7.33301 -25.333 11 -49.333 11 -72c0 -40.667 -9.16699 -80.834 -27.5 -120.501s-43.166 -76.834 -74.499 -111.501c-19.333 -19.333 -40.666 -34.833 -63.999 -46.5s-48.666 -20.167 -75.999 -25.5
c1.33301 6.66699 6 17.167 14 31.5s12.667 24.833 14 31.5c-10 -2 -27.167 -7.33301 -51.5 -16s-43.166 -13 -56.499 -13c-12 0 -23.667 2.33301 -35 7c-14.667 4 -27.167 12.333 -37.5 25s-20.5 28.667 -30.5 48l-27 -25c-14.667 17.333 -26.167 38 -34.5 62
s-12.5 49 -12.5 75c0 18 4.16699 45.667 12.5 83s33.166 80.166 74.499 128.499s88.333 77.833 141 88.5h21c14.667 0 25.167 -0.5 31.5 -1.5s13.166 -4.16699 20.499 -9.5zM227.998 432.003c-18.667 -5.33301 -36.166 -16.168 -52.499 -32.501
s-30.666 -36.666 -42.999 -60.999s-18.5 -53.166 -18.5 -86.499c0 -30 6 -55 18 -75l56 78c-2 -17.333 -3 -33.333 -3 -48c0 -16 2.33301 -31 7 -45c2 -9.33301 7.66699 -17.333 17 -24s19.666 -9.33398 30.999 -8.00098c18 0 34.167 5.5 48.5 16.5s27.833 25.5 40.5 43.5
c10.667 18.667 19.167 38 25.5 58s9.5 40.667 9.5 62c0 30 -7.33301 55 -22 75c-9.33301 6.66699 -20.333 10 -33 10c-8.66699 0 -16.834 -0.833008 -24.501 -2.5s-15.167 -3.16699 -22.5 -4.5l10 36c-4 4.66699 -12.667 7 -26 7c-8 0 -14 0.333008 -18 1zM431.999 266.001
c-32 -45.333 -54.667 -80.166 -68 -104.499s-24.333 -48.5 -33 -72.5c30.667 23.333 55.167 50.166 73.5 80.499s27.5 62.5 27.5 96.5z" />
    <glyph glyph-name="p" unicode="p" horiz-adv-x="612" 
d="M178 510l35.0039 21.998l-11.5 -23c-3 -6 -3.5 -11.667 -1.5 -17l46 5l6 -29c26 21.333 50.667 38.333 74 51s47.666 19 72.999 19c12 0 23 -1.33301 33 -4l105 -57c16 -18.667 27.833 -40.167 35.5 -64.5s11.5 -50.166 11.5 -77.499c0 -28 -3.5 -56.333 -10.5 -85
s-16.167 -56 -27.5 -82c-35.333 -57.333 -67.5 -101.166 -96.5 -131.499s-65.833 -45.5 -110.5 -45.5c-8 0 -15.667 0.5 -23 1.5s-16 4.16699 -26 9.5s-21.667 13 -35 23c-8 -22.667 -15.667 -57 -23 -103s-13 -76.667 -17 -92c-26.667 -12.667 -54 -19 -82 -19
c-8.66699 0 -15.334 0.333008 -20.001 1l22 102c-6 -3.33301 -15.833 -14.833 -29.5 -34.5s-26.834 -29.5 -39.501 -29.5c-9.33301 0 -18.333 2.66699 -27 8c9.33301 79.333 22.166 163.166 38.499 251.499l48.5 258.5l-98 -130c0 35.333 5.16699 79 15.5 131l30.5 150
c11.333 6.66699 24 11.334 38 14.001s34 5.66699 60 9zM328.004 422.998c-18 -3.33301 -33.167 -11.335 -45.5 -24.002s-25.833 -30 -40.5 -52c-9.33301 -22 -17.166 -43.333 -23.499 -64s-9.5 -41 -9.5 -61c0 -14.667 2.16699 -28.167 6.5 -40.5s11.5 -23.5 21.5 -33.5
c7.33301 -4.66699 14.333 -7 21 -7c11.333 0 19.666 4.66699 24.999 14l8 -16c2 -12.667 8.16699 -21.667 18.5 -27s23.5 -8 39.5 -8c7.33301 0 15.5 1.16699 24.5 3.5s19.167 9.16602 30.5 20.499s23.666 26.333 36.999 45c9.33301 24.667 17 47.334 23 68.001
s9 40.667 9 60c0 12.667 -1.66699 25 -5 37s-8.83301 22.167 -16.5 30.5s-15.167 12.5 -22.5 12.5c-9.33301 0 -16.333 -5.33301 -21 -16c-4 2.66699 -6.83301 6.33398 -8.5 11.001s-3.16699 9.33398 -4.5 14.001c-11.333 23.333 -28.666 35 -51.999 35
c-3.33301 0 -8.33301 -0.666992 -15 -2zM182.004 61.9961l-19 -80c8 8 14.333 16 19 24s12 21.667 22 41c-2 3.33301 -5.83301 6.33301 -11.5 9s-9.16699 4.66699 -10.5 6z" />
    <glyph glyph-name="q" unicode="q" horiz-adv-x="637" 
d="M411 548c-8.66699 -16 -12.998 -30.333 -12.998 -43c0 -19.333 11.667 -34 35 -44c9.33301 31.333 32.333 47 69 47l47 8l-22.5 -153.5c-7.66699 -52.333 -17.167 -101.5 -28.5 -147.5l5 -7l101 134l-88 -483c-15.333 -5.33301 -31.833 -9.66602 -49.5 -12.999
s-34.834 -5 -51.501 -5c4 24 7.83301 50.167 11.5 78.5s7.5 61.166 11.5 98.499l-5 7l-68 -54c0 1.33301 1.66699 5.5 5 12.5s3.66602 11.833 0.999023 14.5l-16 -8c-0.666992 6 0.5 16.5 3.5 31.5s4.5 24.833 4.5 29.5c0 5.33301 -0.333008 9.33301 -1 12
c-27.333 -20.667 -53 -37.167 -77 -49.5s-48 -18.5 -72 -18.5c-21.333 0 -41 5.66699 -59 17l-33 42c-8.66699 -7.33301 -16.667 -11 -24 -11c-6 0 -10.333 3 -13 9c-18 15.333 -30.667 33.666 -38 54.999s-11 45.333 -11 72c0 21.333 1.33301 40.333 4 57
s7.33398 39.334 14.001 68.001c20 53.333 46.167 100.5 78.5 141.5s72.5 70.833 120.5 89.5c10 2 19.667 3 29 3c32.667 0 58.667 -11.667 78 -35c0.666992 0.666992 6.16699 9 16.5 25s22.166 22.667 35.499 20zM274.002 433c-24 -4 -43.5 -13.3301 -58.5 -27.9971
s-29.5 -35.334 -43.5 -62.001c-7.33301 -18 -13.166 -36 -17.499 -54s-6.5 -36.667 -6.5 -56c0 -36 10 -65.333 30 -88l40 45l10 -45c7.33301 -20 22.666 -30 45.999 -30c2.66699 0 11 1.16699 25 3.5s28.5 11.666 43.5 27.999s29.833 38.166 44.5 65.499
c5.33301 20 9.83301 38.333 13.5 55s5.5 32 5.5 46c0 14.667 -2.16699 28.167 -6.5 40.5s-11.5 23.5 -21.5 33.5c-14.667 0 -33 7.66699 -55 23s-38.333 23 -49 23z" />
    <glyph glyph-name="r" unicode="r" horiz-adv-x="370" 
d="M225 526l-50.002 -48.002c-2 3.33301 -3 9 -3 17v17l-86 -14c-16 -38.667 -30 -91.5 -42 -158.5s-21 -113.167 -27 -138.5l125 160c-14 -30 -26.667 -67.5 -38 -112.5l-32 -128.5c-4 -22.667 -7.66699 -45 -11 -67c0 -6 0.333008 -10.333 1 -13c15.333 0 30 1.33301 44 4
s28.333 6.33398 43 11.001c8 20.667 18.833 63.5 32.5 128.5s30.667 115.167 51 150.5s54.833 59.333 103.5 72l17 89c-3.33301 1.33301 -6.66602 2.33301 -9.99902 3s-6.66602 1 -9.99902 1c-18.667 0 -38.5 -10.5 -59.5 -31.5s-32.5 -32.167 -34.5 -33.5v34
c-10.667 2.66699 -22.5 -2.66602 -35.5 -15.999s-20.833 -20.333 -23.5 -21zM204.998 11.998l-39 -12c6 18.667 15.167 37.167 27.5 55.5s28.5 39.833 48.5 64.5c-0.666992 -2.66699 -4 -19.167 -10 -49.5s-15 -49.833 -27 -58.5z" />
    <glyph glyph-name="s" unicode="s" horiz-adv-x="505" 
d="M348 515c-6 -6 -9 -14.0059 -9 -24.0059c2 -0.666992 14.167 -3.16699 36.5 -7.5s39.5 -13.833 51.5 -28.5s18 -37 18 -67v-15c-25.333 -10.667 -51.333 -16 -78 -16c-6 17.333 -11.667 30.333 -17 39s-14.333 13 -27 13l-36 -3c0 0.666992 1.16699 3.5 3.5 8.5
s2.83301 9.16699 1.5 12.5c-4.66699 6.66699 -10.667 11.5 -18 14.5s-15.666 4.5 -24.999 4.5c-8.66699 0 -20.834 -1.83301 -36.501 -5.5s-28.834 -16.5 -39.501 -38.5c-2.66699 -14.667 2.66602 -27 15.999 -37l54 -8c0 -12 1.16699 -20.333 3.5 -25
s6.5 -8.33398 12.5 -11.001l94 -12c34.667 -8.66699 58.334 -26.334 71.001 -53.001c4.66699 7.33301 10 11 16 11s11.833 -3.16699 17.5 -9.5s10.834 -12.5 15.501 -18.5c6.66699 -15.333 10 -30.666 10 -45.999c0 -22.667 -6.66699 -45 -20 -67s-31.666 -45 -54.999 -69
c-20.667 -19.333 -43.667 -32.5 -69 -39.5s-49.666 -12.833 -72.999 -17.5c0 10.667 3.16699 21.334 9.5 32.001l19.5 32l-111 -23c-12.667 0 -25.667 2 -39 6c-10.667 2 -20.5 8.33301 -29.5 19s-15.833 22.334 -20.5 35.001c-2 2.66699 -3 7.33398 -3 14.001
c0 10.667 -1.66699 17 -5 19c-8 -7.33301 -14.833 -13.166 -20.5 -17.499s-11.834 -6.83301 -18.501 -7.5c-16 23.333 -24 48 -24 74c0 8.66699 1 17.667 3 27c13.333 4 26.166 7.16699 38.499 9.5s24.5 3.5 36.5 3.5h11c-2 -5.33301 -3 -11 -3 -17c0 -5.33301 1 -11 3 -17
s7 -10.667 15 -14l48 11c2.66699 -13.333 5.66699 -26.333 9 -39c5.33301 -15.333 15 -23.666 29 -24.999c22 0 41.667 4.16699 59 12.5s31.333 21.833 42 40.5c1.33301 4 2 7.66699 2 11c0 9.33301 -3 17.333 -9 24s-17.833 11 -35.5 13l-53 6
c-17.667 2 -34.167 6.66699 -49.5 14c0 4 2 9.33301 6 16c-23.333 6.66699 -42.666 13 -57.999 19s-26.666 17.333 -33.999 34c-2 11.333 -3 22 -3 32c0 30.667 8.33301 59.834 25 87.501s40.167 50.334 70.5 68.001s65.166 26.5 104.499 26.5
c21.333 0 43.666 -3.66699 66.999 -11zM367 161.994l-52 -80c13.333 5.33301 23.333 10 30 14s13 9.83301 19 17.5s9.83301 14 11.5 19s2.5 9.83301 2.5 14.5c0 8 -3.66699 13 -11 15z" />
    <glyph glyph-name="t" unicode="t" horiz-adv-x="392" 
d="M174 658c-10.667 -28.667 -32.499 -66.6689 -65.499 -114.002s-54.167 -81.333 -63.5 -102c-3.33301 -2 -7.5 -3.66699 -12.5 -5s-9.83301 -2.33301 -14.5 -3c-1.33301 10.667 -0.833008 20.834 1.5 30.501s6.5 20.834 12.5 33.501
c28.667 3.33301 48.167 30.833 58.5 82.5s34.166 77.5 71.499 77.5h12zM242.001 497.998l55.999 -2l-3.5 -27c-1 -7.33301 -1.16699 -13.666 -0.5 -18.999l20 16v-5h44l-7 -70c-5.33301 -2.66699 -16.666 -6.16699 -33.999 -10.5s-29 -10.5 -35 -18.5l-37 -214
c4.66699 -8 13 -12 25 -12c9.33301 0.666992 16 1 20 1c5.33301 0 9.33301 -0.333008 12 -1c-4 -20 -7.83301 -37 -11.5 -51s-10.5 -24.667 -20.5 -32c-12 -3.33301 -23.167 -5.83301 -33.5 -7.5s-21.5 -2.5 -33.5 -2.5c-15.333 0 -29 2.33301 -41 7
c-6 7.33301 -10.5 15.833 -13.5 25.5s-4.5 19.834 -4.5 30.501c0 11.333 3 31.5 9 60.5s9 48.5 9 58.5l-82 -93c3.33301 30 11 79.333 23 148l19 109c-2.66699 3.33301 -6 5 -10 5c-0.666992 0 -5 -0.833008 -13 -2.5s-14.333 -1.83398 -19 -0.500977l8 70l50 20l28 122
c12.667 3.33301 27.667 6.66602 45 9.99902s33 5 47 5zM362 95.998c-2.66699 -25.333 -5.66895 -46.5 -9.00195 -63.5s-14.666 -25.5 -33.999 -25.5c-5.33301 0 -9.66602 0.333008 -12.999 1l-44 -8c8 18.667 17.333 36.667 28 54s23 34.333 37 51c2 -4 7.33301 -6 16 -6
c10.667 0 17 -1 19 -3zM203.998 304.998c16 21.333 29.833 40.832 41.5 58.499s22.167 36.834 31.5 57.501c-8 2 -15 3 -21 3c-22 0 -35.5 -18.667 -40.5 -56s-8.83301 -58.333 -11.5 -63z" />
    <glyph glyph-name="u" unicode="u" horiz-adv-x="575" 
d="M466 386l6.00293 -3.99609l77 93c0 -56 -12.5 -133.333 -37.5 -232s-39.167 -158.667 -42.5 -180c-8.66699 -5.33301 -17.5 -9 -26.5 -11s-31.5 -5.33301 -67.5 -10l-3 24c-6.66699 -0.666992 -16.834 -7.5 -30.501 -20.5s-27 -23.833 -40 -32.5s-35.5 -13 -67.5 -13
l26 63c-19.333 -6.66699 -36.5 -12.167 -51.5 -16.5s-28.833 -6.5 -41.5 -6.5c-18.667 0 -34.334 6 -47.001 18c-10.667 8 -18.5 18.5 -23.5 31.5s-7.5 27.167 -7.5 42.5c0 11.333 1.5 26 4.5 44l6.5 39c-11.333 -7.33301 -22.833 -20.333 -34.5 -39
s-21.834 -31.334 -30.501 -38.001c-3.33301 5.33301 -5.66602 11.833 -6.99902 19.5s-2 15.5 -2 23.5c0 11.333 1 23.666 3 36.999l6 39l51 247c10 5.33301 20.5 9.16602 31.5 11.499s32.833 5.5 65.5 9.5c0 -22.667 -4.83301 -59.834 -14.5 -111.501
s-14.5 -86.167 -14.5 -103.5l39.5 47c9.66699 12 26.167 34.333 49.5 67c-10 -52.667 -18.333 -98.5 -25 -137.5s-10 -75.5 -10 -109.5c8 -12 19.667 -18 35 -18c8.66699 0 16 2 22 6c43.333 19.333 70.333 60 81 122s17.667 98 21 108l22 114
c9.33301 2.66699 22.666 6.16699 39.999 10.5s35.333 6.5 54 6.5zM418.003 292.004l-65 -86.5c-22 -29.667 -39 -57.834 -51 -84.501h9c32 6 55.833 24.833 71.5 56.5s27.5 69.834 35.5 114.501z" />
    <glyph glyph-name="v" unicode="v" horiz-adv-x="502" 
d="M437 526c-22.667 -72.667 -48.667 -146.669 -78 -222.002s-63.333 -156.333 -102 -243c-12.667 -8.66699 -28.334 -15 -47.001 -19s-33 -6.66699 -43 -8c-7.33301 20.667 -14.333 49.334 -21 86.001l-21 121c0 4.66699 -1 7.33398 -3 8.00098
c-7.33301 -8 -16.5 -19 -27.5 -33l-26.5 -34c0 46.667 -7 104.667 -21 174s-22 110 -24 122c13.333 6 28.333 11.167 45 15.5s34.667 7.83301 54 10.5c6.66699 -30.667 12.167 -63.5 16.5 -98.5s6.5 -67.167 6.5 -96.5c20.667 24 39.334 51 56.001 81l5 -3l29 -166
c13.333 25.333 29.5 63.5 48.5 114.5l61.5 165.5c12 6 25.5 10.833 40.5 14.5s32.167 7.16699 51.5 10.5zM333 17.998c-16.667 -6 -32 -10.5 -46 -13.5s-29.667 -4.5 -47 -4.5l46 98l193 314c-18.667 -58 -40.667 -120.833 -66 -188.5z" />
    <glyph glyph-name="w" unicode="w" horiz-adv-x="778" 
d="M695 526c-18.667 -64.667 -40.168 -131.001 -64.501 -199.001s-50.5 -135.333 -78.5 -202c22 28.667 57.667 82.5 107 161.5s77 122.5 83 130.5l-47.5 -130.5l-56 -152.5c-9 -24 -22.833 -58.667 -41.5 -104l-84 -18c-2 4 -3 8 -3 12c0 6 1.66699 12.167 5 18.5l10 19.5
c-10.667 0 -26.167 -2.5 -46.5 -7.5s-33.833 -7.5 -40.5 -7.5l-23 213c-20.667 -28 -37.834 -58.5 -51.501 -91.5s-32.5 -83.5 -56.5 -151.5l-71 -17c12.667 30.667 32.667 69.334 60 116.001l62 106l-13 88c-17.333 -31.333 -35.333 -70.833 -54 -118.5l-53 -136.5
c-10.667 -6.66699 -24.667 -11 -42 -13s-34 -3.66699 -50 -5c-5.33301 19.333 -10.5 56 -15.5 110s-8.16699 84.333 -9.5 91c-6 -4 -14.667 -14.333 -26 -31s-22.333 -27 -33 -31c0 32.667 -4.5 84.5 -13.5 155.5s-13.5 120.833 -13.5 149.5l93 24
c8 -46 14 -83.167 18 -111.5s6 -56.833 6 -85.5c8 6 18.667 19.5 32 40.5s21.333 33.167 24 36.5c4.66699 -10 8 -31.833 10 -65.5s6 -56.834 12 -69.501c10.667 20 27.667 62.333 51 127s37.666 103 42.999 115c13.333 6.66699 27.333 12.167 42 16.5s29 6.5 43 6.5
c4.66699 -22 8.5 -48.167 11.5 -78.5l8.5 -86.5c6.66699 6 17.5 20.333 32.5 43s26.5 38 34.5 46c-4 -19.333 -6 -39 -6 -59c0 -21.333 1.33301 -40 4 -56s7.33398 -40 14.001 -72c12.667 22 31.334 68.833 56.001 140.5s43.334 111.834 56.001 120.501s37.667 13 75 13z
" />
    <glyph glyph-name="x" unicode="x" horiz-adv-x="535" 
d="M285 431c7.33301 -4 14.1699 -12.335 20.5029 -25.002l20.5 -41c13.333 14 29 36.833 47 68.5s29 50.167 33 55.5l84 17c-12.667 -32 -31.167 -68.167 -55.5 -108.5l-69.5 -115.5c6 -20 11.833 -37 17.5 -51s13.5 -29.333 23.5 -46c7.33301 0 13.666 3.33301 18.999 10
s10.333 13.334 15 20.001l70 -177c-18.667 -6 -35.834 -11 -51.501 -15s-33.5 -7.33301 -53.5 -10l-37 96l-39 -34l-44 81c-13.333 -9.33301 -34 -37.5 -62 -84.5s-58.333 -70.5 -91 -70.5c-6.66699 0 -12 0.333008 -16 1l-28 -2c15.333 29.333 44.333 76.333 87 141
s66.667 101.667 72 111c-2.66699 11.333 -5.83398 21.166 -9.50098 29.499s-8.83398 16.833 -15.501 25.5c-20.667 -28.667 -45.167 -65.167 -73.5 -109.5l-93.5 -147.5c-3.33301 -2.66699 -8.66602 -5.16699 -15.999 -7.5l-14 -4.5v12l155 238l-75 188l105 25l45 -90
c13.333 14.667 26 31.334 38 50.001s24.667 40.334 38 65.001z" />
    <glyph glyph-name="y" unicode="y" horiz-adv-x="578" 
d="M378 508l-136 -303.998c-6.66699 46 -11.5 83.833 -14.5 113.5s-4.5 64.167 -4.5 103.5l-62 -100l-29 202c-38.667 -6 -75.667 -15.333 -111 -28l23 -182c8.66699 -70 13.667 -111.667 15 -125l7 -3l59 70c0 -22.667 3.5 -57.5 10.5 -104.5s10.5 -80.167 10.5 -99.5
c0 -16.667 -0.666992 -30.167 -2 -40.5s-4.66602 -23.333 -9.99902 -39s-16.166 -28.334 -32.499 -38.001s-34.166 -15.834 -53.499 -18.501c-12 -8.66699 -20 -24.334 -24 -47.001c-2.66699 -26.667 -4.33398 -45.334 -5.00098 -56.001c39.333 8 79 15.667 119 23
c0 -6.66699 -3.5 -18.167 -10.5 -34.5s-9.83301 -28.166 -8.5 -35.499c42.667 4 80.167 16.667 112.5 38s56.166 51 71.499 89l198 416l63 168h-10c-19.333 -26 -42.166 -60.167 -68.499 -102.5l-77 -124c-25 -40.333 -48.833 -75.166 -71.5 -104.499l64.5 162l51 128
c10.333 26.667 22.166 59 35.499 97l-57 -6c-20.667 -3.33301 -38.334 -9.33301 -53.001 -18zM189 -111.998h-6l44 64c0 -11.333 -3.16699 -23 -9.5 -35s-15.833 -21.667 -28.5 -29z" />
    <glyph glyph-name="z" unicode="z" horiz-adv-x="486" 
d="M313 466c5.33301 0.666992 26.8311 5.50293 64.498 14.5029s64.834 13.5 81.501 13.5l-17 -93l-209 -246l9 -9l105 16l-26 -58c14 0 38.5 4 73.5 12s58.167 12 69.5 12l-16 -84l-183 -44c1.33301 5.33301 6.16602 15.666 14.499 30.999s11.166 26.666 8.49902 33.999
l-201 -40v13c0 12 1.16699 23 3.5 33s6.16602 21.333 11.499 34l216 267c-3.33301 3.33301 -8.66602 5 -15.999 5c-5.33301 0 -9.16602 -0.333008 -11.499 -1s-9.5 -3.33398 -21.5 -8.00098l-24 -7l-187 -279c-3.33301 -7.33301 -9.66602 -11 -18.999 -11
c-8 0.666992 -13.667 1 -17 1l13 83l217 257l-3 6l-139 -22l13 85c72.667 17.333 144.334 32.333 215.001 45z" />
    <glyph glyph-name="sterling" unicode="&#xa3;" horiz-adv-x="617" 
d="M316 769c-30 0 -57.998 -5.5 -83.998 -16.5s-55 -27.167 -87 -48.5c-26.667 -24 -47.167 -53.333 -61.5 -88s-21.5 -70.667 -21.5 -108c0 -6.66699 1.5 -16.334 4.5 -29.001s4.5 -20.667 4.5 -24c0 -6.66699 -1.33301 -12.334 -4 -17.001
c-17.333 0 -28.166 -6.16699 -32.499 -18.5s-6.5 -28.833 -6.5 -49.5c26 0 46 6.66699 60 20s29 29.666 45 48.999c3.33301 -4 5.83301 -9.66699 7.5 -17l4.5 -20c-2 -3.33301 -6 -6 -12 -8s-10.333 -4 -13 -6c-8 -1.33301 -13.333 -4.83301 -16 -10.5s-4 -13.167 -4 -22.5
v-24l61 1c2 -8 3 -16 3 -24c0 -18 -2.33301 -33.5 -7 -46.5s-10.334 -26.167 -17.001 -39.5c-2 -10.667 -13.667 -26.667 -35 -48s-32 -37.333 -32 -48c0 -4.66699 1 -9.66699 3 -15s8 -13 18 -23c4.66699 -7.33301 9.66699 -11 15 -11c2 0 11.833 5.66699 29.5 17
s30.5 16 38.5 14c6.66699 -2.66699 10 -7 10 -13c0 -4.66699 -3.33301 -12 -10 -22s-10.667 -16.333 -12 -19c2.66699 -7.33301 4.83398 -12.5 6.50098 -15.5s5.16699 -3.5 10.5 -1.5c9.33301 8.66699 19.5 15 30.5 19s21.833 6 32.5 6c13.333 0 34 -4 62 -12
s49.667 -12 65 -12c14 0 27.333 2.66699 40 8l-16 -40c15.333 -4 29.666 -6 42.999 -6c28 0 54 7.16699 78 21.5s48 34.166 72 59.499c-4 33.333 -13 61.333 -27 84c-26 -16.667 -45.167 -28.334 -57.5 -35.001s-26.5 -10 -42.5 -10l32 76
c0 2.66699 -0.666992 6.66699 -2 12c-11.333 -16 -24.5 -27 -39.5 -33s-32.5 -9 -52.5 -9c-12.667 0 -30.834 1.83301 -54.501 5.5s-39.834 5.83398 -48.501 6.50098c15.333 20.667 27.166 45.667 35.499 75l21.5 74l69 18l-1 53l-38.5 -10
c-10.333 -2.66699 -19.833 -7 -28.5 -13l-98 -154c-7.33301 -0.666992 -13 -1 -17 -1s-7 1.66699 -9 5c18.667 34.667 31.5 60.167 38.5 76.5s10.5 35.833 10.5 58.5l64 24l10 51l-75 -10c-8 8.66699 -15 23.334 -21 44.001s-9.66699 33.667 -11 39s-2 11.333 -2 18
c0 16 4.5 31 13.5 45s20.5 26 34.5 36c16.667 6.66699 28.167 11.167 34.5 13.5s13.833 3.5 22.5 3.5c4.66699 0 13.334 -2.66699 26.001 -8s21 -22.666 25 -51.999c0.666992 -13.333 1.66699 -26.666 3 -39.999c6 0.666992 16.5 5.5 31.5 14.5s27.167 12.5 36.5 10.5v-61
c20.667 3.33301 39.667 6.83301 57 10.5s30.333 9.5 39 17.5c1.33301 7.33301 2.33301 14.333 3 21s1 15.334 1 26.001c0 20 -2.16699 37.667 -6.5 53s-12.5 29.333 -24.5 42l-34 -38c-4.66699 22 -11.667 41 -21 57s-23 29.667 -41 41
c-6.66699 2.66699 -14.5 4.66699 -23.5 6s-17.833 2 -26.5 2c-14.667 0 -32.5 -2 -53.5 -6s-36.5 -6.66699 -46.5 -8zM182.002 538c-0.666992 4.66699 -1 9.16602 -1 13.499v9.5c0 12.667 1.33301 24 4 34s8 19.333 16 28c16.667 20.667 35.667 34.334 57 41.001
c-4.66699 -19.333 -14 -39.833 -28 -61.5s-30 -43.167 -48 -64.5z" />
    <glyph glyph-name="plusminus" unicode="&#xb1;" 
d="M247 408v237h55v-237h237v-55h-237v-237h-55v237h-237v55h237zM10 0v55h529v-55h-529z" />
    <glyph glyph-name="mu" unicode="&#xb5;" horiz-adv-x="576" 
d="M147 500v-332.997c0 -26 4 -48 12 -66s20.167 -30.833 36.5 -38.5s31.833 -11.5 46.5 -11.5c12.667 0 26 3.16699 40 9.5s27.833 15.5 41.5 27.5s23.834 25.333 30.501 40v372h86v-384c0 -12.667 2 -25.667 6 -39s10.167 -24.166 18.5 -32.499s18.166 -12.5 29.499 -12.5
c6.66699 0 14.834 2.66699 24.501 8s16.167 14.166 19.5 26.499l9 34.5h20c-6 -26 -13 -46.667 -21 -62s-22.333 -28.5 -43 -39.5s-39.667 -16.5 -57 -16.5c-10.667 0 -20.5 1.5 -29.5 4.5s-19 8.66699 -30 17s-18.667 21.166 -23 38.499s-7.16602 30 -8.49902 38
c-10 -14 -20.333 -26.333 -31 -37s-22.834 -20.834 -36.501 -30.501s-28.667 -17.167 -45 -22.5s-33.5 -8 -51.5 -8c-19.333 0 -39 6.66699 -59 20c-18.667 15.333 -30.334 24.666 -35.001 27.999v-23c0 -22 4.5 -46.667 13.5 -74s14.5 -46.5 16.5 -57.5s3 -20.5 3 -28.5
c0 -22 -5 -39.333 -15 -52s-21.333 -19 -34 -19s-24 6.33301 -34 19s-15 30.334 -15 53.001c0 8 1 17.5 3 28.5s6.83301 30.167 14.5 57.5s11.5 51.666 11.5 72.999v492h86z" />
    <glyph glyph-name="divide" unicode="&#xf7;" 
d="M10 291h526v-55h-526v55zM268 456c16 0 29.333 -5.33301 40 -16s16 -24 16 -40s-5.33301 -29.333 -16 -40s-24 -16 -40 -16s-29.333 5.33301 -40 16s-16 24 -16 40s5.33301 29.333 16 40s24 16 40 16zM268 183c16 0 29.333 -5.33301 40 -16s16 -24 16 -40
s-5.33301 -29.333 -16 -40s-24 -16 -40 -16s-29.333 5.33301 -40 16s-16 24 -16 40s5.33301 29.333 16 40s24 16 40 16z" />
    <glyph glyph-name="summation" unicode="&#x3a3;" horiz-adv-x="713" 
d="M623 586l-20.001 -0.000976562c-13.333 42.667 -28 72.334 -44 89.001s-52.333 25 -109 25h-263l273 -358l-294 -339h371c37.333 0 64.666 7.5 81.999 22.5s35 45.167 53 90.5h23c-13.333 -54.667 -22.333 -93.5 -27 -116.5s-10 -58.833 -16 -107.5
c-17.333 3.33301 -32.166 6 -44.499 8s-23.166 3 -32.499 3h-503l-58 -3l349 398l-347 454c8 0 24.333 -1.16699 49 -3.5s43 -3.5 55 -3.5h497z" />
    <glyph glyph-name="Omega" unicode="&#x3a9;" horiz-adv-x="768" 
d="M329 0l-295.001 0.00195312v162h15c6 -25.333 13.167 -41.833 21.5 -49.5s23.166 -11.5 44.499 -11.5h158l-2 28c-42 12.667 -75.333 26.667 -100 42s-46.167 36.333 -64.5 63s-31.666 54.167 -39.999 82.5s-12.5 55.833 -12.5 82.5c0 24.667 2.83301 48.334 8.5 71.001
s15.667 46.667 30 72s29.833 44.833 46.5 58.5s37.167 27.667 61.5 42s52.5 25.5 84.5 33.5s65.333 12 100 12s68 -4 100 -12s60.167 -19 84.5 -33s44.833 -27.833 61.5 -41.5s35 -38.5 55 -74.5s30 -78.667 30 -128c0 -28.667 -4 -56.334 -12 -83.001
s-21.167 -53.334 -39.5 -80.001s-40.5 -48.167 -66.5 -64.5s-59 -30.5 -99 -42.5l-2 -28h158c20.667 0 35.334 4 44.001 12s16 24.333 22 49h15v-162h-295l16 152c30 13.333 53 25.833 69 37.5s29.833 31.334 41.5 59.001s19.834 53.5 24.501 77.5s7 49.333 7 76
c0 40 -5.33301 77.5 -16 112.5s-26.834 63.333 -48.501 85s-45 36.5 -70 44.5s-51.5 12 -79.5 12c-29.333 0 -55.833 -3.66699 -79.5 -11s-46.334 -21.833 -68.001 -43.5s-38.167 -50.834 -49.5 -87.501s-17 -74.667 -17 -114c0 -52.667 7.33301 -95.834 22 -129.501
s29.334 -58 44.001 -73s40 -30.167 76 -45.5z" />
    <glyph glyph-name="pi" unicode="&#x3c0;" 
d="M222 401c-8 -90.667 -15.6729 -162.831 -23.0059 -216.498s-14 -94.5 -20 -122.5s-13.167 -47.333 -21.5 -58s-17.166 -17.167 -26.499 -19.5s-16.666 -3.5 -21.999 -3.5c-11.333 0 -22 4 -32 12s-15.833 16.5 -17.5 25.5s-2.5 14.833 -2.5 17.5
c0 10.667 2.66699 20.334 8 29.001l21.5 26.5l26 32.5c11 14 17.5 30 19.5 48l29 229h-47c-13.333 0 -26.166 -3.16699 -38.499 -9.5s-21.5 -13.833 -27.5 -22.5l-21 -31h-17l18 51c6.66699 14.667 15.334 29.667 26.001 45s23.834 28 39.501 38s34.167 15 55.5 15h373v-86
h-126c-4 -39.333 -7 -77.833 -9 -115.5s-3 -77.5 -3 -119.5c0 -33.333 5.16699 -54.833 15.5 -64.5s19.166 -16.334 26.499 -20.001s15 -5.5 23 -5.5c11.333 0 22.5 4.16699 33.5 12.5s18.167 19.166 21.5 32.499c2.66699 15.333 4.33398 25.333 5.00098 30h21
c0 -40 -7.66699 -73.333 -23 -100s-28.833 -43.167 -40.5 -49.5s-21.667 -10.833 -30 -13.5s-17.166 -4 -26.499 -4c-14 0 -25.833 3.5 -35.5 10.5s-19 17 -28 30s-15.833 26.333 -20.5 40s-7.66699 28.667 -9 45s-2 35.5 -2 57.5c0 27.333 1 51.666 3 72.999l17 161h-113z
" />
    <glyph glyph-name="quoteleft" unicode="&#x2018;" horiz-adv-x="188" 
d="M167 716c1.33301 -10.667 2.00098 -19.3301 2.00098 -25.9971c0 -9.33301 -0.666992 -19.666 -2 -30.999l-4 -33c-4 1.33301 -10.333 3.66602 -19 6.99902s-15.334 5 -20.001 5c-2 -7.33301 -3 -14.333 -3 -21c0 -13.333 2.66699 -25.5 8 -36.5
s13.666 -24.833 24.999 -41.5l-3 -24c-12.667 6 -26.5 23.333 -41.5 52s-27.833 46 -38.5 52c-4 2 -6.66699 2 -8 0c-0.666992 -6.66699 -1.66699 -11 -3 -13c-2.66699 -13.333 1.5 -29.833 12.5 -49.5s16.5 -35.167 16.5 -46.5c0 -5.33301 -0.333008 -9.33301 -1 -12
c-21.333 17.333 -36.666 39.166 -45.999 65.499s-14 55.5 -14 87.5c0 11.333 0.5 23.166 1.5 35.499s2.83301 26.166 5.5 41.499h6l23 -57c6 -15.333 12.667 -29.333 20 -42l14 121c24.667 -8 47.667 -19.333 69 -34z" />
    <glyph glyph-name="quoteright" unicode="&#x2019;" horiz-adv-x="188" 
d="M104 762l0.000976562 -122.998c7.33301 8.66699 17.833 26 31.5 52s21.167 39.667 22.5 41h4c0 -70 -6.33301 -120.167 -19 -150.5s-31.667 -53.833 -57 -70.5c-2 4 -3 8 -3 12c0 7.33301 6 19.166 18 35.499s18.333 26.166 19 29.499
c-0.666992 5.33301 0 11.666 2 18.999s3 11.333 3 12c0 4 -1.33301 7.33301 -4 10c-13.333 -1.33301 -25.333 -10.166 -36 -26.499l-35 -54.5c-1.33301 -0.666992 -5 -4 -11 -10s-11.333 -8.33301 -16 -7c-2 5.33301 -3 9.66602 -3 12.999c0 6.66699 3.5 14.334 10.5 23.001
l23.5 28c7.33301 15.333 12 33.333 14 54c-4 2 -7.33301 3 -10 3c-10.667 -2.66699 -21.334 -5 -32.001 -7l4 90l37 15c12.667 5.33301 25 9.33301 37 12z" />
    <glyph glyph-name="quotedblleft" unicode="&#x201c;" horiz-adv-x="369" 
d="M348 716c1.33301 -10.667 2.00195 -19.332 2.00195 -25.999c0 -9.33301 -0.666992 -19.666 -2 -30.999l-4 -33c-4 1.33301 -10.333 3.66602 -19 6.99902s-15.334 5 -20.001 5c-2 -7.33301 -3 -14.333 -3 -21c0 -13.333 2.66699 -25.5 8 -36.5
s13.666 -24.833 24.999 -41.5l-3 -24c-12.667 6 -26.5 23.333 -41.5 52s-27.833 46 -38.5 52c-4 2 -6.66699 2 -8 0c-0.666992 -6.66699 -1.5 -11.167 -2.5 -13.5s-1.5 -6.16602 -1.5 -11.499c0 -9.33301 5 -23.5 15 -42.5s15 -32.833 15 -41.5
c0 -2.66699 -0.666992 -6.66699 -2 -12c-22 17.333 -37.333 39.166 -46 65.499s-13 56.166 -13 89.499c0 26 2 51 6 75h7l23 -57c6 -15.333 12.667 -29.333 20 -42c0 15.333 1.5 34.333 4.5 57l8.5 64c26 -8.66699 49.333 -20 70 -34zM163.002 716.002
c1.33301 -10.667 1.99902 -19.3291 1.99902 -25.9961c0 -9.33301 -0.666992 -19.666 -2 -30.999l-4 -33c-4 1.33301 -10.333 3.66602 -19 6.99902s-15.334 5 -20.001 5c-2 -7.33301 -3 -14.333 -3 -21c0 -13.333 2.66699 -25.5 8 -36.5s13.666 -24.833 24.999 -41.5l-3 -24
c-12.667 6 -26.5 23.333 -41.5 52s-27.833 46 -38.5 52c-3.33301 2 -5.66602 2 -6.99902 0c-1.33301 -6.66699 -2.66602 -11 -3.99902 -13c-2 -11.333 2.5 -28.833 13.5 -52.5s16.5 -37.834 16.5 -42.501c0 -2 -0.666992 -6.33301 -2 -13
c-21.333 17.333 -36.666 39.166 -45.999 65.499s-14 55.5 -14 87.5c0 11.333 0.5 23.166 1.5 35.499s2.83301 26.166 5.5 41.499h6l43 -99l14 121c26.667 -8.66699 49.667 -20 69 -34z" />
    <glyph glyph-name="quotedblright" unicode="&#x201d;" horiz-adv-x="346" 
d="M269 762v-122.999c7.33301 8.66699 17.833 26 31.5 52s21.167 39.667 22.5 41h4c0 -57.333 -4.33301 -103.166 -13 -137.499s-29.334 -62.166 -62.001 -83.499c-2 5.33301 -3 9.66602 -3 12.999c0 8 5.83301 20 17.5 36s17.834 25.333 18.501 28
c-0.666992 5.33301 0 11.666 2 18.999s3 11.333 3 12c0 4 -1.33301 7.33301 -4 10c-16.667 -2 -30.667 -14.333 -42 -37s-19.166 -35.667 -23.499 -39s-9.5 -8.33301 -15.5 -15s-11.667 -9 -17 -7c-2 5.33301 -3 9.66602 -3 12.999c0 6.66699 5.66699 16.667 17 30
s19.333 24.5 24 33.5s7 22.833 7 41.5c-3.33301 2 -6.33301 3 -9 3c-10.667 -2.66699 -21.334 -5 -32.001 -7l3 90l37 15c12.667 5.33301 25 9.33301 37 12zM104 762.001l0.000976562 -122.998c7.33301 8.66699 17.833 26 31.5 52s21.167 39.667 22.5 41h4
c0 -70 -6.33301 -120.167 -19 -150.5s-31.667 -53.833 -57 -70.5c-2 4 -3 8 -3 12c0 7.33301 6 19.166 18 35.499s18.333 26.166 19 29.499c-0.666992 5.33301 0 11.666 2 18.999s3 11.333 3 12c0 4 -1.33301 7.33301 -4 10c-13.333 -1.33301 -25.333 -10.166 -36 -26.499
l-35 -54.5c-1.33301 -0.666992 -5 -4 -11 -10s-11.333 -8.33301 -16 -7c-2 5.33301 -3 9.66602 -3 12.999c0 6.66699 3.5 14.334 10.5 23.001l23.5 28c7.33301 15.333 12 33.333 14 54c-4 2 -7.33301 3 -10 3c-10.667 -2.66699 -21.334 -5 -32.001 -7l4 90l37 15
c12.667 5.33301 25 9.33301 37 12z" />
    <glyph glyph-name="partialdiff" unicode="&#x2202;" horiz-adv-x="494" 
d="M65 717c16.667 7.33301 37.167 13.998 61.5 19.998s48.166 9 71.499 9c16 0 36.333 -3 61 -9s51 -19.333 79 -40s51.167 -47.167 69.5 -79.5s32 -68.833 41 -109.5s13.5 -79 13.5 -115c0 -30.667 -4.33301 -72.667 -13 -126s-21.167 -97.666 -37.5 -132.999
s-31.5 -62.5 -45.5 -81.5s-31 -34 -51 -45s-38.167 -18.5 -54.5 -22.5s-31.833 -6 -46.5 -6c-38 0 -70.5 9.33301 -97.5 28s-48.667 39.667 -65 63s-24.5 52 -24.5 86c-0.666992 4.66699 -1 11.667 -1 21c0 32 5.5 61 16.5 87s25 49.5 42 70.5s36.667 37.5 59 49.5
s49.166 18 80.499 18c28.667 0 51.5 -4.16699 68.5 -12.5s44.167 -26.833 81.5 -55.5c7.33301 38.667 11 77.334 11 116.001c0 22.667 -3.5 50.167 -10.5 82.5s-14.5 58.5 -22.5 78.5s-21.667 39.5 -41 58.5s-42.666 28.5 -69.999 28.5c-5.33301 0 -11 0.333008 -17 1
s-10.667 1 -14 1c-21.333 0 -40.666 -3.83301 -57.999 -11.5l-48 -21.5zM258 362.998c-37.333 0 -67.3369 -15.3301 -90.0039 -45.9971s-37.667 -59.334 -45 -86.001s-11 -54.334 -11 -83.001c0 -24.667 2.83301 -48.334 8.5 -71.001s16.834 -39.667 33.501 -51
s33 -17 49 -17c12 0 29.833 5.16699 53.5 15.5s43.334 34.333 59.001 72s26.834 71.5 33.501 101.5s12.334 63.667 17.001 101c-20 22 -36.5 38.167 -49.5 48.5s-32.5 15.5 -58.5 15.5z" />
    <glyph glyph-name="Delta" unicode="&#x2206;" horiz-adv-x="612" 
d="M608 0h-602l320 688zM72 49h412l-194 468z" />
    <glyph glyph-name="product" unicode="&#x220f;" horiz-adv-x="823" 
d="M706 3c0 -32.667 7.66797 -54.335 23.001 -65.002s40 -16 74 -16v-23h-306v23c33.333 0 57.666 5.33301 72.999 16s23 32.334 23 65.001v693h-358v-693c0 -32.667 7.66699 -54.334 23 -65.001s40 -16 74 -16v-23h-307v23c34 0 58.667 5.33301 74 16s23 32.334 23 65.001
v626c0 40 -10 66.5 -30 79.5s-41.667 19.5 -65 19.5v23h773v-23c-32 0 -55.667 -8.66699 -71 -26s-23 -41.666 -23 -72.999v-626z" />
    <glyph glyph-name="radical" unicode="&#x221a;" 
d="M10 450l146 72l197 -403l127 798l35 -5l-150 -950l-243 502l-96 -47z" />
    <glyph glyph-name="infinity" unicode="&#x221e;" horiz-adv-x="713" 
d="M486 391c7.33301 3.33301 16.1709 6.33301 26.5039 9s22.166 4 35.499 4c36.667 0 69.167 -12.5 97.5 -37.5s42.5 -55.167 42.5 -90.5v-9c0 -36 -12.833 -68.667 -38.5 -98s-57.834 -44 -96.501 -44h-12c-42.667 4 -83 20.333 -121 49c-34 31.333 -55 50.333 -63 57
l-63 -61c-38.667 -30 -80.667 -45 -126 -45h-8c-38.667 0 -70.667 14.667 -96 44s-38 62 -38 98v12c3.33301 34.667 18.5 64.167 45.5 88.5s58.5 36.5 94.5 36.5c21.333 0 45.166 -5.83301 71.499 -17.5s66.166 -41.5 119.499 -89.5l63 54.5c18 15 40 28.167 66 39.5z
M205.005 345c-13.333 4.66699 -26.333 7 -39 7c-27.333 0 -49.166 -10.167 -65.499 -30.5s-24.5 -41.166 -24.5 -62.499c0 -25.333 9.33301 -46.166 28 -62.499s41 -24.5 67 -24.5c6.66699 0 19.667 2.33301 39 7s34.666 11.667 45.999 21s34 30.666 68 63.999
c-30 25.333 -53.167 43.666 -69.5 54.999s-32.833 20 -49.5 26zM522.005 175c7.33301 -2 14.667 -2.99902 22 -2.99902c25.333 0 47.333 8.16699 66 24.5s28 37.166 28 62.499c0 22 -8.16699 43 -24.5 63s-38.166 30 -65.499 30c-12.667 0 -26.334 -2.66699 -41.001 -8
s-30.167 -13.5 -46.5 -24.5s-39.833 -29.5 -70.5 -55.5c28 -26.667 49.5 -46.5 64.5 -59.5s37.5 -22.833 67.5 -29.5z" />
    <glyph glyph-name="integral" unicode="&#x222b;" horiz-adv-x="274" 
d="M189 272c0 -69.333 -3.33496 -127.167 -10.002 -173.5s-13.5 -81.833 -20.5 -106.5s-13 -41.667 -18 -51s-9.83301 -17 -14.5 -23s-14.5 -11.667 -29.5 -17s-26.5 -8 -34.5 -8c-10 0 -18.333 1.83301 -25 5.5s-13 9.16699 -19 16.5s-10.167 14.333 -12.5 21
s-3.5 12.334 -3.5 17.001c0 16.667 6.16699 28.167 18.5 34.5s20.833 9.5 25.5 9.5c8 0 14.833 -2.16699 20.5 -6.5s11.5 -9.66602 17.5 -15.999s11.333 -9.5 16 -9.5c8.66699 0 15.167 10.833 19.5 32.5s6.5 47.167 6.5 76.5c0 36 -1 86.667 -3 152s-3 119.333 -3 162v144
c0 82.667 1.66699 146.167 5 190.5s8.5 78 15.5 101s14.833 41.167 23.5 54.5s17.5 23 26.5 29s19.833 9 32.5 9c9.33301 0 17.333 -1 24 -3s13.5 -5.33301 20.5 -10s12.667 -10.834 17 -18.501s6.5 -16.167 6.5 -25.5c0 -8 -4.16699 -17 -12.5 -27s-21.5 -15 -39.5 -15
c-11.333 0 -19.666 2.83301 -24.999 8.5s-10.166 9.5 -14.499 11.5s-7.83301 3 -10.5 3c-12 0 -18 -7.33301 -18 -22c5.33301 -62 9.83301 -121.833 13.5 -179.5s5.5 -107.834 5.5 -150.501z" />
    <glyph glyph-name="approxequal" unicode="&#x2248;" 
d="M527 370c-14.667 -25.333 -34.8311 -44.833 -60.498 -58.5s-52.167 -20.5 -79.5 -20.5c-7.33301 0 -13.333 0.333008 -18 1s-11.334 2 -20.001 4l-150 43c-16 4.66699 -31 7 -45 7c-30 0 -55.667 -11.667 -77 -35c-10.667 -14 -17.334 -22.333 -20.001 -25l-43 27
c40 52.667 88.333 79 145 79c17.333 0 34 -2.33301 50 -7l151 -42c10.667 -2.66699 19 -4 25 -4c16 0 31.167 3.16699 45.5 9.5s26.5 13.5 36.5 21.5s17.667 16 23 24zM527.003 219c-14.667 -25.333 -34.8311 -44.833 -60.498 -58.5s-52.167 -20.5 -79.5 -20.5
c-7.33301 0 -13.333 0.333008 -18 1s-11.334 2 -20.001 4l-150 43c-16 4.66699 -31 7 -45 7c-30 0 -55.667 -11.667 -77 -35c-10.667 -14 -17.334 -22.333 -20.001 -25l-43 27c40 52.667 88.333 79 145 79c17.333 0 34 -2.33301 50 -7l151 -42c10.667 -2.66699 19 -4 25 -4
c16 0 31.167 3.16699 45.5 9.5s26.5 13.5 36.5 21.5s17.667 16 23 24z" />
    <glyph glyph-name="notequal" unicode="&#x2260;" 
d="M451 521l-76 -136h165v-55h-195l-78 -139h273v-55h-303l-90 -161l-49 28l74 133h-157v55h188l77 139h-265v55h296l91 164z" />
    <glyph glyph-name="lessequal" unicode="&#x2264;" 
d="M29 55h497v-55h-497v55zM29 409l497 230v-62l-433 -199l433 -199v-62l-497 230v62z" />
    <glyph glyph-name="greaterequal" unicode="&#x2265;" 
d="M526 0h-497v55h497v-55zM526 347l-497 -230v62l433 199l-433 199v62l497 -230v-62z" />
    <glyph glyph-name="lozenge" unicode="&#x25ca;" horiz-adv-x="494" 
d="M212 0l-194 377l194 368h60l194 -368l-194 -377h-60zM242 691l-164 -314l164 -323l164 323z" />
    <glyph glyph-name=".null" horiz-adv-x="0" 
 />
    <glyph glyph-name="nonmarkingreturn" horiz-adv-x="374" 
 />
  </font>
</defs>
</svg>
