<?xml version="1.0" standalone="no"?>
<!DOCTYPE svg PUBLIC "-//W3C//DTD SVG 1.1//EN" "http://www.w3.org/Graphics/SVG/1.1/DTD/svg11.dtd" >
<svg>
<metadata>
Created by FontForge 20090914 at Sat Jul 12 15:21:11 2014
 By www-data
&#194;&#169;1999 Digital Graphic Labs - All Rights Reserved
</metadata>
<defs>
<font id="bitwise" horiz-adv-x="710" >
  <font-face 
    font-family="Bitwise"
    font-weight="400"
    font-stretch="normal"
    units-per-em="1024"
    panose-1="2 11 6 3 5 3 2 2 2 4"
    ascent="784"
    descent="-240"
    x-height="496.999"
    cap-height="723.001"
    bbox="-195.003 -240 1017 784.002"
    underline-thickness="0"
    underline-position="0"
    unicode-range="U+0020-U+2122"
  />
<missing-glyph horiz-adv-x="853" 
d="M2 726h365v-726h-365v726zM66 669v-613h237v613h-237z" />
    <glyph glyph-name=".notdef" horiz-adv-x="853" 
d="M2 726h365v-726h-365v726zM66 669v-613h237v613h-237z" />
    <glyph glyph-name="space" unicode=" " horiz-adv-x="450" 
 />
    <glyph glyph-name="exclam" unicode="!" horiz-adv-x="235" 
d="M62 721h62c2 0 4 -0.5 6 -1.5s3.66699 -2.16699 5 -3.5s2.5 -2.83301 3.5 -4.5s1.5 -3.16699 1.5 -4.5v-264c0 -2.66699 1 -6.5 3 -11.5s4.33301 -10.5 7 -16.5s5.83398 -12.333 9.50098 -19l11 -20.5l11 -21l10 -19c3 -5.66699 5.33301 -10.5 7 -14.5s2.5 -7 2.5 -9
v-164c0 -2 -0.666992 -4.16699 -2 -6.5s-3 -4.33301 -5 -6s-4.33301 -3.16699 -7 -4.5s-5.33398 -2 -8.00098 -2h-102c-3.33301 0 -6.83301 0.5 -10.5 1.5s-7 2.33301 -10 4s-5.5 3.66699 -7.5 6s-3 4.83301 -3 7.5v558c0 2 0.5 3.83301 1.5 5.5s2.16699 3.16699 3.5 4.5
s3 2.5 5 3.5s4 1.5 6 1.5zM124 -13c-8.66699 0 -16.667 1.66699 -24 5s-13.666 7.5 -18.999 12.5s-9.66602 11.167 -12.999 18.5s-5 15 -5 23c0 8.66699 1.66699 16.667 5 24s7.66602 13.666 12.999 18.999s11.666 9.66602 18.999 12.999s15.333 5 24 5
c8 0 15.667 -1.66699 23 -5s13.833 -7.66602 19.5 -12.999s10 -11.666 13 -18.999s4.5 -15.333 4.5 -24c0 -8 -1.5 -15.667 -4.5 -23s-7.33301 -13.5 -13 -18.5s-12.167 -9.16699 -19.5 -12.5s-15 -5 -23 -5z" />
    <glyph glyph-name="quotedbl" unicode="&#x22;" horiz-adv-x="305" 
d="M112 441h-39.001c-1.33301 0 -2.66602 0.5 -3.99902 1.5s-2.33301 2.33301 -3 4l-2 5c-0.666992 1.66699 -1 3.16699 -1 4.5v81c0 2 -0.666992 4.5 -2 7.5l-4.5 10.5c-1.66699 4 -3.66699 8.33301 -6 13l-7 14l-7 14.5c-2.33301 5 -4.33301 9.5 -6 13.5
s-3 7.83301 -4 11.5s-1.5 6.5 -1.5 8.5v67c0 2 0.333008 4.16699 1 6.5s1.66699 4.5 3 6.5s2.83301 3.66699 4.5 5s3.16699 2 4.5 2h64c2 0 4.16699 -0.5 6.5 -1.5s4.5 -2.5 6.5 -4.5s3.66699 -4.16699 5 -6.5s2 -4.83301 2 -7.5v-240c0 -1.33301 -0.333008 -3 -1 -5
s-1.5 -3.83301 -2.5 -5.5s-2 -3 -3 -4s-2.16699 -1.5 -3.5 -1.5zM248.999 441l-39 -0.000976562c-1.33301 0 -2.5 0.5 -3.5 1.5s-2 2.33301 -3 4s-1.83301 3.33398 -2.5 5.00098s-1 3.16699 -1 4.5v81c0 2 -0.5 4.5 -1.5 7.5s-2.5 6.5 -4.5 10.5l-6.5 13l-7 14l-7 14.5
c-2.33301 5 -4.33301 9.5 -6 13.5s-3 7.83301 -4 11.5s-1.5 6.5 -1.5 8.5v67c0 2 0.333008 4.16699 1 6.5s1.66699 4.5 3 6.5s2.83301 3.66699 4.5 5s3.16699 2 4.5 2h65c2 0 4 -0.5 6 -1.5s4 -2.5 6 -4.5s3.66699 -4.16699 5 -6.5s2 -4.83301 2 -7.5v-240
c0 -1.33301 -0.333008 -3 -1 -5s-1.5 -3.83301 -2.5 -5.5s-2 -3 -3 -4s-2.16699 -1.5 -3.5 -1.5z" />
    <glyph glyph-name="numbersign" unicode="#" horiz-adv-x="790" 
d="M459 728l-82 -226h128l82 226h83l-80 -224h150l-25 -75h-153l-44 -132h159l-26 -71h-160l-79 -226h-83l82 226h-132l-78 -226h-85l82 224h-156l26 73h155l48 134h-166l24 71h166l81 226h83zM352 431l-48 -135h131l47 135h-130z" />
    <glyph glyph-name="dollar" unicode="$" 
d="M336 724v45.001c0 1.33301 0.166992 2.83301 0.5 4.5s0.833008 3.33398 1.5 5.00098s1.5 3 2.5 4s2.5 1.5 4.5 1.5h25c1.33301 0 2.5 -0.5 3.5 -1.5s1.83301 -2.16699 2.5 -3.5s1.16699 -2.66602 1.5 -3.99902s0.5 -2.66602 0.5 -3.99902v-46h244
c4.66699 0 9.16699 -1.16699 13.5 -3.5s8.33301 -5.33301 12 -9s6.66699 -7.66699 9 -12s3.5 -8.83301 3.5 -13.5v-126c0 -2 -0.166992 -4.33301 -0.5 -7s-1.16602 -5.16699 -2.49902 -7.5s-2.83301 -4.33301 -4.5 -6s-3.5 -2.5 -5.5 -2.5h-58c-2 0 -4.33301 0.666992 -7 2
s-4.83398 2.83301 -6.50098 4.5s-3.16699 3.66699 -4.5 6s-2 4.5 -2 6.5v77c0 2 -0.666992 3.66699 -2 5s-2.83301 2.5 -4.5 3.5s-3.5 1.83301 -5.5 2.5s-3.66699 1 -5 1h-170v-241h231c5.33301 0 10.666 -1.16699 15.999 -3.5s10.166 -5.5 14.499 -9.5s8 -8.66699 11 -14
s4.5 -10.333 4.5 -15v-325c0 -4 -1.16699 -8.33301 -3.5 -13s-5.16602 -9 -8.49902 -13s-7.33301 -7 -12 -9s-9.33398 -3 -14.001 -3h-240v-49c0 -2 -1.16699 -4.33301 -3.5 -7s-4.83301 -4 -7.5 -4h-20c-3.33301 0 -6.16602 1.5 -8.49902 4.5s-3.5 6.16699 -3.5 9.5v46
h-236c-6 0 -12.167 1.16699 -18.5 3.5s-12.166 5.66602 -17.499 9.99902s-9.83301 9.16602 -13.5 14.499s-5.5 11 -5.5 17v130c0 2 0.5 4.16699 1.5 6.5s2.33301 4.33301 4 6s3.5 3.16699 5.5 4.5s4 2 6 2h46c2.66699 0 5.16699 -0.833008 7.5 -2.5s4.33301 -3.5 6 -5.5
s3 -4.33301 4 -7s1.5 -5.33398 1.5 -8.00098v-75c0 -2 0.666992 -3.66699 2 -5s3 -2.5 5 -3.5s4.16699 -1.83301 6.5 -2.5s4.5 -1 6.5 -1h187v241h-236c-6 0 -12.167 1.5 -18.5 4.5s-12 7 -17 12s-9.16699 10.5 -12.5 16.5s-5 12 -5 18v302c0 6 1.5 11.667 4.5 17
s7 10.166 12 14.499s10.333 7.83301 16 10.5s11.5 4 17.5 4h239zM382 327.001v-241h109c2 0 4 0.5 6 1.5s4 2.33301 6 4s3.5 3.5 4.5 5.5s1.5 4 1.5 6v207c0 1.33301 -0.333008 3 -1 5s-1.66699 3.83301 -3 5.5s-2.83301 3.16699 -4.5 4.5s-3.16699 2 -4.5 2h-114z
M334 407.001v241h-183c-2 0 -4 -0.5 -6 -1.5s-4 -2.33301 -6 -4s-3.66699 -3.5 -5 -5.5s-2 -4.33301 -2 -7v-206c0 -2 0.5 -4 1.5 -6s2.16699 -3.83301 3.5 -5.5s2.83301 -3 4.5 -4s3.16699 -1.5 4.5 -1.5h188z" />
    <glyph glyph-name="percent" unicode="%" horiz-adv-x="435" 
d="M172 544c-8 0 -15.667 1.66699 -23 5s-13.666 7.66602 -18.999 12.999s-9.5 11.666 -12.5 18.999s-4.5 15 -4.5 23s1.5 15.667 4.5 23s7.16699 13.666 12.5 18.999s11.666 9.66602 18.999 12.999s15 5 23 5c8.66699 0 16.5 -1.66699 23.5 -5
s13.167 -7.66602 18.5 -12.999s9.66602 -11.666 12.999 -18.999s5 -15 5 -23s-1.66699 -15.667 -5 -23s-7.66602 -13.666 -12.999 -18.999s-11.5 -9.66602 -18.5 -12.999s-14.833 -5 -23.5 -5zM346 34c-8 0 -15.667 1.5 -23 4.5s-13.666 7.33301 -18.999 13
s-9.66602 12 -12.999 19s-5 14.833 -5 23.5c0 8 1.66699 15.667 5 23s7.66602 13.666 12.999 18.999s11.666 9.5 18.999 12.5s15 4.5 23 4.5s15.667 -1.5 23 -4.5s13.666 -7.16699 18.999 -12.5s9.66602 -11.666 12.999 -18.999s5 -15 5 -23
c0 -8.66699 -1.66699 -16.5 -5 -23.5s-7.66602 -13.333 -12.999 -19s-11.666 -10 -18.999 -13s-15 -4.5 -23 -4.5zM343 710c1.33301 3.33301 4.00195 6.16797 8.00195 8.50098s8 3.5 12 3.5h39c2.66699 0 5.16699 -0.833008 7.5 -2.5s4.5 -3.5 6.5 -5.5
s3.33301 -4.33301 4 -7s0.666992 -5 0 -7l-135 -310c-2.66699 -6 -4.33398 -12.333 -5.00098 -19s-0.666992 -13.334 0 -20.001s1.66699 -13.334 3 -20.001s3 -13.167 5 -19.5s4 -12.333 6 -18s3.66699 -11 5 -16s2.16602 -9.5 2.49902 -13.5s-0.166992 -7.33301 -1.5 -10
l-110 -229c-2 -3.33301 -4.16699 -6.5 -6.5 -9.5s-5 -5.66699 -8 -8s-6.33301 -4.16602 -10 -5.49902s-7.16699 -2 -10.5 -2h-97c-4 0 -8 1 -12 3s-7 5 -9 9s-3 9 -3 15s1.66699 12.667 5 20z" />
    <glyph glyph-name="ampersand" unicode="&#x26;" horiz-adv-x="730" 
d="M667 293v-245.998c0 -5.33301 -1.16699 -10.666 -3.5 -15.999s-5.33301 -10.333 -9 -15s-8 -8.33398 -13 -11.001s-10.167 -4 -15.5 -4h-542c-5.33301 0 -10.5 1.16699 -15.5 3.5s-9.83301 5.33301 -14.5 9s-8.33398 8 -11.001 13s-4 9.83301 -4 14.5v279
c0 6.66699 1.33301 13 4 19s6 11.667 10 17s8.83301 10.5 14.5 15.5l16.5 14.5l16.5 14.5c5.66699 5 10.5 10.167 14.5 15.5s7.33301 10.833 10 16.5s4 11.834 4 18.501v230c0 4.66699 1.16699 9.5 3.5 14.5s5.33301 9.5 9 13.5s7.83398 7.33301 12.501 10
s9.33398 4 14.001 4h360c4.66699 0 9.5 -1.16699 14.5 -3.5s9.33301 -5.33301 13 -9s6.83398 -7.83398 9.50098 -12.501s4 -9.33398 4 -14.001v-256c0 -9.33301 -2.33301 -18.5 -7 -27.5s-10.834 -17.333 -18.501 -25s-16 -13.834 -25 -18.501s-18.167 -7 -27.5 -7h-277
c-2.66699 0 -5.5 -0.5 -8.5 -1.5s-5.83301 -2.33301 -8.5 -4s-4.83398 -3.66699 -6.50098 -6s-2.5 -4.83301 -2.5 -7.5v-226c0 -2 0.666992 -4 2 -6s2.83301 -3.83301 4.5 -5.5s3.66699 -3 6 -4s4.5 -1.5 6.5 -1.5h292c2 0 4 0.333008 6 1s3.83301 1.66699 5.5 3
s3.16699 3 4.5 5s2 3.66699 2 5v120h-48v71h198zM214 616.002v-162.001c0 -2 0.333008 -4.33301 1 -7s1.66699 -5 3 -7s2.83301 -3.83301 4.5 -5.5s3.83398 -2.5 6.50098 -2.5h241c2 0 4 0.5 6 1.5s3.66699 2.33301 5 4s2.5 3.5 3.5 5.5s1.5 3.66699 1.5 5v172
c0 2.66699 -0.833008 5 -2.5 7s-3.66699 3.83301 -6 5.5s-5 2.83398 -8 3.50098s-5.5 1 -7.5 1h-226c-2.66699 0 -5.33398 -0.666992 -8.00098 -2s-5 -3 -7 -5s-3.66699 -4.33301 -5 -7s-2 -5 -2 -7z" />
    <glyph glyph-name="quotesingle" unicode="'" horiz-adv-x="160" 
d="M107 441l-39.001 -0.000976562c-0.666992 0 -1.66699 0.5 -3 1.5s-2.5 2.33301 -3.5 4s-1.83301 3.33398 -2.5 5.00098s-1 3.16699 -1 4.5v81c0 2 -0.5 4.5 -1.5 7.5s-2.33301 6.5 -4 10.5s-3.66699 8.33301 -6 13l-7 14l-7 14.5c-2.33301 5 -4.33301 9.5 -6 13.5
s-3.16699 7.83301 -4.5 11.5s-2 6.5 -2 8.5v67c0 2 0.5 4.16699 1.5 6.5s2 4.5 3 6.5s2.33301 3.66699 4 5s3.5 2 5.5 2h64c2 0 4.16699 -0.5 6.5 -1.5s4.5 -2.5 6.5 -4.5s3.5 -4.16699 4.5 -6.5s1.5 -4.83301 1.5 -7.5v-240c0 -1.33301 -0.166992 -3 -0.5 -5
s-1 -3.83301 -2 -5.5s-2.16699 -3 -3.5 -4s-2.66602 -1.5 -3.99902 -1.5z" />
    <glyph glyph-name="parenleft" unicode="(" horiz-adv-x="265" 
d="M41 521c0 7.33301 1.16504 14.4971 3.49805 21.4971s5.5 13.5 9.5 19.5l104 160c0.666992 1.33301 2 2.66602 4 3.99902s4.16699 2.33301 6.5 3s4.5 0.833984 6.5 0.500977s4 -0.833008 6 -1.5l39 -24c1.33301 -0.666992 2.66602 -1.83398 3.99902 -3.50098
s2.33301 -3.66699 3 -6s0.833984 -4.5 0.500977 -6.5s-0.833008 -3.66699 -1.5 -5l-77 -105c-4 -5.33301 -7.66699 -11.166 -11 -17.499s-5 -12.833 -5 -19.5v-356c0 -4.66699 0.833008 -9.66699 2.5 -15s3.83398 -10 6.50098 -14l81 -110c1.33301 -2 2.33301 -4.33301 3 -7
s1.16699 -5.16699 1.5 -7.5s0.166016 -4.66602 -0.500977 -6.99902s-2 -4.16602 -4 -5.49902l-38 -23c-2 -1.33301 -4.33301 -2.16602 -7 -2.49902s-5.16699 -0.333008 -7.5 0s-4.66602 1 -6.99902 2s-4.16602 2.5 -5.49902 4.5l-104 162
c-3.33301 5.33301 -6.33301 11 -9 17s-4 12 -4 18v324z" />
    <glyph glyph-name="parenright" unicode=")" horiz-adv-x="265" 
d="M226 521l0.000976562 -323.997c0 -6 -1.33301 -12 -4 -18s-5.66699 -11.667 -9 -17l-104 -162c-1.33301 -2 -3.16602 -3.5 -5.49902 -4.5s-4.83301 -1.66699 -7.5 -2s-5.33398 -0.333008 -8.00098 0s-5 1.16602 -7 2.49902l-37 23
c-2 1.33301 -3.33301 3.16602 -4 5.49902s-1 4.66602 -1 6.99902s0.5 4.83301 1.5 7.5s2.16699 5 3.5 7l81 110c2.66699 4 4.66699 8.66699 6 14s2 10.333 2 15v356c0 6.66699 -1.66699 13.167 -5 19.5s-6.66602 12.166 -9.99902 17.499l-77 105c-1.33301 1.33301 -2 3 -2 5
s0.333008 4.16699 1 6.5s1.5 4.33301 2.5 6s2.5 2.83398 4.5 3.50098l39 24c1.33301 0.666992 3.16602 1.16699 5.49902 1.5s4.66602 0.166016 6.99902 -0.500977s4.33301 -1.66699 6 -3s3.16699 -2.66602 4.5 -3.99902l104 -160c4 -6 7.16699 -12.5 9.5 -19.5
s3.5 -14.167 3.5 -21.5z" />
    <glyph glyph-name="asterisk" unicode="*" horiz-adv-x="512" 
d="M220 707c0 1.33301 0.168945 2.83105 0.501953 4.49805s0.833008 3.33398 1.5 5.00098s1.66699 3 3 4s2.66602 1.5 3.99902 1.5h47c2 0 3.66699 -0.5 5 -1.5s2.5 -2.16699 3.5 -3.5s1.83301 -2.83301 2.5 -4.5s1 -3.5 1 -5.5v-126l109 35
c1.33301 0 3.16602 0.166992 5.49902 0.5s4.66602 0.333008 6.99902 0s4.33301 -1 6 -2s2.5 -2.5 2.5 -4.5l10 -48c0.666992 -2.66699 0 -5.66699 -2 -9s-4.66699 -5.33301 -8 -6l-116 -30l76 -93c1.33301 -2 2.33301 -4 3 -6s1 -4.16699 1 -6.5s-0.333008 -4.5 -1 -6.5
s-1.66699 -3.66699 -3 -5l-36 -26c-2 -0.666992 -4 -1.16699 -6 -1.5s-4 -0.333008 -6 0s-4 1 -6 2s-3.33301 2.5 -4 4.5l-65 90l-61 -83c-1.33301 -2 -3.33301 -4 -6 -6s-5.33398 -3.66699 -8.00098 -5s-5.33398 -2.16602 -8.00098 -2.49902s-5 0.166992 -7 1.5l-33 26
c-1.33301 1.33301 -2.16602 2.83301 -2.49902 4.5s-0.5 3.5 -0.5 5.5s0.5 4 1.5 6l2.5 5l75 93l-117 33c-2.66699 0.666992 -5.16699 2.66699 -7.5 6s-3.16602 6.33301 -2.49902 9l10 45c0.666992 2 1.83398 3.5 3.50098 4.5s3.5 1.83301 5.5 2.5s4.16699 1 6.5 1
s4.5 -0.333008 6.5 -1l107 -36v129z" />
    <glyph glyph-name="plus" unicode="+" horiz-adv-x="853" 
d="M389 610h71v-271h262v-69h-262v-270h-71v271h-263v68h263v271z" />
    <glyph glyph-name="comma" unicode="," horiz-adv-x="355" 
d="M177 100c6 0 12.335 -0.667969 19.002 -2.00098s12.5 -4.16602 17.5 -8.49902s9.16699 -10 12.5 -17s5 -15.833 5 -26.5v-112h-67l44 66c-5.33301 -1.33301 -10.5 -2.83301 -15.5 -4.5s-10.5 -2.5 -16.5 -2.5c-8 0 -15.333 1.33301 -22 4s-12.334 6.5 -17.001 11.5
s-8.16699 10.833 -10.5 17.5s-3.5 13 -3.5 19c0 8.66699 1.5 16.5 4.5 23.5s7.16699 12.833 12.5 17.5s11.166 8.16699 17.499 10.5s12.833 3.5 19.5 3.5z" />
    <glyph glyph-name="hyphen" unicode="-" horiz-adv-x="460" 
d="M60 290h332c4 0 7.16699 -1.33301 9.5 -4s3.5 -5.66699 3.5 -9v-56c0 -3.33301 -1.16699 -6.33301 -3.5 -9s-5.5 -4 -9.5 -4h-332c-3.33301 0 -6.33301 1.33301 -9 4s-4 5.66699 -4 9v56c0 3.33301 1.33301 6.33301 4 9s5.66699 4 9 4z" />
    <glyph glyph-name="period" unicode="." horiz-adv-x="355" 
d="M176 -9c-7.33301 0 -14.333 1.5 -21 4.5s-12.5 6.83301 -17.5 11.5s-9 10.334 -12 17.001s-4.5 14 -4.5 22c0 7.33301 1.5 14.333 4.5 21s7 12.5 12 17.5s10.833 9 17.5 12s13.667 4.5 21 4.5c8 0 15.333 -1.5 22 -4.5s12.5 -7 17.5 -12s8.83301 -10.833 11.5 -17.5
s4 -13.667 4 -21c0 -8 -1.33301 -15.333 -4 -22s-6.5 -12.334 -11.5 -17.001s-10.833 -8.5 -17.5 -11.5s-14 -4.5 -22 -4.5z" />
    <glyph glyph-name="slash" unicode="/" horiz-adv-x="405" 
d="M387 726c2 0 4.16895 -0.668945 6.50195 -2.00195s4.5 -3 6.5 -5s3.33301 -4.16699 4 -6.5s0.666992 -4.5 0 -6.5l-184 -408c-2 -6 -3.16699 -11.833 -3.5 -17.5s0 -11.5 1 -17.5s2.5 -12.167 4.5 -18.5s4.16699 -12.5 6.5 -18.5s4.5 -12.167 6.5 -18.5
s3.5 -12.5 4.5 -18.5s1.16699 -11.833 0.5 -17.5s-2 -11.5 -4 -17.5l-104 -217c-2 -4 -4.66699 -7.66699 -8 -11s-7 -6.16602 -11 -8.49902s-8.16699 -4.16602 -12.5 -5.49902s-8.5 -2 -12.5 -2h-90c-6.66699 0 -11.834 1.33301 -15.501 4s-6.16699 6.16699 -7.5 10.5
s-1.5 8.83301 -0.5 13.5s2.16699 9 3.5 13l343 756c2 5.33301 5.66699 9.83301 11 13.5s10.666 5.5 15.999 5.5h39z" />
    <glyph glyph-name="zero" unicode="0" 
d="M92 724h520c6 0 12 -1.33301 18 -4s11 -6 15 -10s7.33301 -9 10 -15s4 -12 4 -18v-629c0 -6.66699 -1.33301 -13 -4 -19s-6 -11 -10 -15s-9 -7.33301 -15 -10s-12 -4 -18 -4h-520c-6.66699 -0 -12.834 1.33301 -18.501 4s-10.667 6 -15 10s-7.66602 9 -9.99902 15
s-3.5 12.333 -3.5 19v629c0 6 1.16699 12 3.5 18s5.66602 11 9.99902 15s9.33301 7.33301 15 10s11.834 4 18.501 4zM157 646c-6 0 -11.165 -2 -15.498 -6s-6.5 -8.66699 -6.5 -14v-521c0 -5.33301 2.16699 -10 6.5 -14s9.5 -6 15.5 -6h334c6 0 11.167 2 15.5 6
s6.5 8.66699 6.5 14v193c0 6 0.666992 12.167 2 18.5s3.16602 12.833 5.49902 19.5s5.16602 13.167 8.49902 19.5l10 19l9.5 18c3 5.66699 5.66699 11 8 16s4.33301 9.5 6 13.5s2.5 7.33301 2.5 10v194c0 5.33301 -2.16699 10 -6.5 14s-9.5 6 -15.5 6h-386z" />
    <glyph glyph-name="one" unicode="1" 
d="M272 724h101.994c2.66699 0 5.16699 -0.666992 7.5 -2s4.5 -3 6.5 -5s3.66699 -4.33301 5 -7s2 -5.33398 2 -8.00098v-536c0 -2 0.333008 -4.16699 1 -6.5s1.5 -4.5 2.5 -6.5s2.33301 -3.66699 4 -5s3.5 -2 5.5 -2h29c2 0 4.33301 -0.666992 7 -2
s4.83398 -3.16602 6.50098 -5.49902s3.16699 -4.83301 4.5 -7.5s2 -5 2 -7v-98c0 -3.33301 -0.833008 -6.5 -2.5 -9.5s-4 -5.66699 -7 -8s-6.16699 -4.33301 -9.5 -6s-6.66602 -2.5 -9.99902 -2.5h-144c-4 -0 -8.16699 0.833008 -12.5 2.5s-8.16602 3.83398 -11.499 6.50098
s-6.16602 5.66699 -8.49902 9s-3.5 7 -3.5 11v91c0 3.33301 0.833008 6.66602 2.5 9.99902s3.83398 6.5 6.50098 9.5s5.5 5.33301 8.5 7s6.16699 2.5 9.5 2.5h24c2.66699 0 5 1.5 7 4.5s3 6.16699 3 9.5v454c0 2 -0.5 3.83301 -1.5 5.5l-3 5c-1 1.66699 -2.33301 3 -4 4
s-3.5 1.5 -5.5 1.5h-28c-2.66699 0 -5 0.5 -7 1.5s-3.83301 2.33301 -5.5 4s-3.16699 3.66699 -4.5 6s-2 4.5 -2 6.5v54c0 2.66699 0.833008 5.16699 2.5 7.5s3.66699 4.33301 6 6s4.83301 3 7.5 4s5.33398 1.5 8.00098 1.5z" />
    <glyph glyph-name="two" unicode="2" 
d="M70 724l545.001 0.00488281c5.33301 0 10.5 -1.5 15.5 -4.5s9.5 -6.83301 13.5 -11.5s7.16699 -9.83398 9.5 -15.501s3.5 -10.834 3.5 -15.501v-285c0 -5.33301 -1.16699 -10.833 -3.5 -16.5s-5.66602 -10.834 -9.99902 -15.501s-9 -8.66699 -14 -12s-10.5 -5 -16.5 -5
h-462c-2 0 -3.66699 -0.5 -5 -1.5s-2.5 -2.16699 -3.5 -3.5s-1.83301 -2.83301 -2.5 -4.5s-1 -3.5 -1 -5.5v-220c0 -2 0.666992 -4.33301 2 -7s3.16602 -4.83398 5.49902 -6.50098s5 -3.16699 8 -4.5s5.5 -2 7.5 -2h470c2.66699 0 5.66699 -0.5 9 -1.5s6.33301 -2.5 9 -4.5
s4.83398 -4.16699 6.50098 -6.5s2.5 -4.83301 2.5 -7.5v-54c0 -2.66699 -0.833008 -4.83398 -2.5 -6.50098s-3.83398 -3 -6.50098 -4s-5.5 -1.83301 -8.5 -2.5s-5.5 -1 -7.5 -1h-551c-4 0 -8.33301 1.16699 -13 3.5s-8.66699 5.33301 -12 9s-6.16602 7.66699 -8.49902 12
s-3.5 8.5 -3.5 12.5v359c0 4 1 7.83301 3 11.5s4.5 7 7.5 10s6.5 5.5 10.5 7.5s7.66699 3 11 3h477c1.33301 0 2.83301 0.5 4.5 1.5s3.16699 2.33301 4.5 4s2.33301 3.5 3 5.5s1 4 1 6v179c0 2 -0.666992 3.83301 -2 5.5s-2.83301 3.16699 -4.5 4.5s-3.66699 2.33301 -6 3
s-4.5 1 -6.5 1h-476c-2.66699 0 -5.5 0.5 -8.5 1.5s-5.66699 2.5 -8 4.5s-4.33301 4.16699 -6 6.5s-2.5 4.83301 -2.5 7.5v47c0 2.66699 0.666992 5.16699 2 7.5s3.16602 4.33301 5.49902 6s4.66602 3 6.99902 4s4.83301 1.5 7.5 1.5z" />
    <glyph glyph-name="three" unicode="3" 
d="M542 724c4.66699 0 9.83301 -0.667969 15.5 -2.00098s10.834 -3.33301 15.501 -6s8.66699 -6 12 -10s5 -8.33301 5 -13v-236c0 -4 1 -7.83301 3 -11.5s4.5 -7.16699 7.5 -10.5s6.5 -6.83301 10.5 -10.5l12 -11l12 -11.5c4 -4 7.5 -8 10.5 -12s5.5 -8.5 7.5 -13.5
s3 -10.167 3 -15.5v-318c0 -5.33301 -1.5 -10.5 -4.5 -15.5s-7 -9.5 -12 -13.5s-10.333 -7.33301 -16 -10s-11.167 -4 -16.5 -4h-531c-2.66699 0 -5.5 0.5 -8.5 1.5s-5.66699 2.5 -8 4.5s-4.33301 4.16699 -6 6.5s-2.5 4.5 -2.5 6.5v47c0 3.33301 0.833008 6.33301 2.5 9
s4 5.16699 7 7.5s6 4.16602 9 5.49902s6.16699 2 9.5 2h407c2 0 4.33301 0.333008 7 1s5 1.66699 7 3s3.66699 2.83301 5 4.5s2 3.83398 2 6.50098v224c0 1.33301 -0.5 2.83301 -1.5 4.5s-2 3.16699 -3 4.5s-2.33301 2.33301 -4 3s-3.16699 1 -4.5 1h-409
c-3.33301 0 -7 0.5 -11 1.5s-7.66699 2.33301 -11 4s-6.16602 3.83398 -8.49902 6.50098s-3.5 5.66699 -3.5 9v44c0 2.66699 0.833008 5.5 2.5 8.5s3.66699 5.5 6 7.5s5 3.66699 8 5s5.83301 2 8.5 2h404c3.33301 0 6.5 0.833008 9.5 2.5s5.83301 3.66699 8.5 6
s4.83398 5 6.50098 8s2.5 5.83301 2.5 8.5v165c0 2.66699 -0.833008 5 -2.5 7s-3.66699 4 -6 6s-4.83301 3.5 -7.5 4.5s-5.33398 1.5 -8.00098 1.5h-407c-2.66699 0 -5.33398 0.333008 -8.00098 1s-5.33398 1.66699 -8.00098 3s-4.83398 3 -6.50098 5s-2.5 4.33301 -2.5 7
v46c0 2.66699 0.666992 5.33398 2 8.00098s3 5.16699 5 7.5s4.33301 4.16602 7 5.49902s5.33398 2 8.00098 2h469z" />
    <glyph glyph-name="four" unicode="4" 
d="M645 2l-94 0.00195312c-2.66699 0 -5.16699 0.333008 -7.5 1s-4.5 1.66699 -6.5 3s-3.66699 2.83301 -5 4.5s-2 3.5 -2 5.5v89c0 2 -0.833008 4 -2.5 6s-3.66699 3.66699 -6 5s-4.83301 2.5 -7.5 3.5s-5 1.5 -7 1.5h-409c-6 0 -11.833 1.33301 -17.5 4
s-11 6.16699 -16 10.5s-9 9.16602 -12 14.499s-4.5 10.666 -4.5 15.999v533c0 3.33301 0.833008 6.5 2.5 9.5s3.66699 5.83301 6 8.5s5.16602 4.83398 8.49902 6.50098s6.33301 2.5 9 2.5h95c2.66699 0 5.5 -0.666992 8.5 -2s5.5 -3.16602 7.5 -5.49902
s3.83301 -4.83301 5.5 -7.5s2.5 -5.33398 2.5 -8.00098v-472c0 -3.33301 0.833008 -6.33301 2.5 -9s4 -5.16699 7 -7.5s6.16699 -4.16602 9.5 -5.49902s6.66602 -2 9.99902 -2h288c2 0 4.16699 0.5 6.5 1.5s4.5 2 6.5 3s3.66699 2.5 5 4.5s2 4 2 6v34
c0 2 0.666992 4.33301 2 7s2.83301 5.16699 4.5 7.5s3.83398 4.16602 6.50098 5.49902s5.33398 2 8.00098 2h91c2 0 4.16699 -0.5 6.5 -1.5s4.33301 -2.33301 6 -4s3 -3.33398 4 -5.00098s1.5 -3.5 1.5 -5.5v-241c0 -2 -0.333008 -4.16699 -1 -6.5s-1.66699 -4.33301 -3 -6
s-3 -3.16699 -5 -4.5s-4 -2 -6 -2z" />
    <glyph glyph-name="five" unicode="5" 
d="M635 724c2.66699 0 5.32715 -0.504883 7.99414 -1.50488s5 -2.33301 7 -4s3.66699 -3.66699 5 -6s2 -4.83301 2 -7.5v-47c0 -2.66699 -0.833008 -5.16699 -2.5 -7.5s-3.66699 -4.5 -6 -6.5s-5 -3.5 -8 -4.5s-5.83301 -1.5 -8.5 -1.5h-476c-2 0 -4 -0.333008 -6 -1
s-4 -1.66699 -6 -3s-3.66699 -2.83301 -5 -4.5s-2 -3.5 -2 -5.5v-179c0 -2 0.5 -4 1.5 -6s2 -3.83301 3 -5.5s2.33301 -3 4 -4s3.5 -1.5 5.5 -1.5h476c4 0 7.83301 -1 11.5 -3s7 -4.5 10 -7.5s5.5 -6.33301 7.5 -10s3 -7.5 3 -11.5v-359c0 -4 -1.16699 -8.16699 -3.5 -12.5
s-5.16602 -8.33301 -8.49902 -12s-7.16602 -6.66699 -11.499 -9s-8.83301 -3.5 -13.5 -3.5h-550c-2.66699 0 -5.5 0.333008 -8.5 1s-5.66699 1.5 -8 2.5s-4.5 2.33301 -6.5 4s-3 3.83398 -3 6.50098v54c0 2.66699 1 5.16699 3 7.5s4.33301 4.5 7 6.5s5.5 3.5 8.5 4.5
s5.83301 1.5 8.5 1.5h470c2.66699 0 5.33398 0.666992 8.00098 2s5.16699 2.83301 7.5 4.5s4.16602 3.83398 5.49902 6.50098s2 5 2 7v220c0 2 -0.166992 3.83301 -0.5 5.5s-1.16602 3.16699 -2.49902 4.5s-2.66602 2.5 -3.99902 3.5s-2.66602 1.5 -3.99902 1.5h-463
c-5.33301 0 -10.666 1.66699 -15.999 5s-10 7.33301 -14 12s-7.33301 9.83398 -10 15.501s-4 11.167 -4 16.5v285c0 4.66699 1.16699 9.83398 3.5 15.501s5.5 10.834 9.5 15.501s8.5 8.5 13.5 11.5s10.167 4.5 15.5 4.5h545z" />
    <glyph glyph-name="six" unicode="6" 
d="M45 673c0 6 1.83105 12.1709 5.49805 18.5039s8.33398 11.833 14.001 16.5s12 8.5 19 11.5s13.833 4.5 20.5 4.5h436c4.66699 0 9.83398 -0.833008 15.501 -2.5s10.667 -4 15 -7s8 -6.66699 11 -11s4.5 -8.83301 4.5 -13.5v-137c0 -2 -0.5 -4.16699 -1.5 -6.5
s-2.5 -4.5 -4.5 -6.5s-4.16699 -3.66699 -6.5 -5s-4.5 -2 -6.5 -2h-46c-2.66699 0 -5.16699 0.666992 -7.5 2s-4.66602 3.16602 -6.99902 5.49902s-4.16602 4.66602 -5.49902 6.99902s-2 4.83301 -2 7.5v62c0 2.66699 -0.666992 5.33398 -2 8.00098
s-3.16602 5.16699 -5.49902 7.5s-4.83301 4.16602 -7.5 5.49902s-5.33398 2 -8.00098 2h-343v-271h483c5.33301 0 10.833 -1.33301 16.5 -4s10.667 -6.16699 15 -10.5s8 -9.33301 11 -15s4.5 -11.167 4.5 -16.5v-282c0 -4.66699 -1.33301 -9.5 -4 -14.5s-6 -9.33301 -10 -13
s-8.5 -6.83398 -13.5 -9.50098s-9.83301 -4 -14.5 -4h-529c-4.66699 0 -9.83398 1 -15.501 3s-10.834 4.5 -15.501 7.5s-8.5 6.66699 -11.5 11s-4.5 9.16602 -4.5 14.499v637zM130.998 291.004l-0.000976562 -178.999c0 -2.66699 0.833008 -5.33398 2.5 -8.00098
s3.83398 -5 6.50098 -7s5.5 -3.66699 8.5 -5s6.16699 -2 9.5 -2h397c2.66699 0 5 0.666992 7 2s4 3.16602 6 5.49902s3.5 5 4.5 8s1.5 5.5 1.5 7.5v154c0 2.66699 -0.5 5.33398 -1.5 8.00098s-2.16699 5.16699 -3.5 7.5s-3 4.33301 -5 6s-4 2.5 -6 2.5h-427z" />
    <glyph glyph-name="seven" unicode="7" 
d="M51 684c0 5.33301 1.33887 10.334 4.00586 15.001s6.16699 8.83398 10.5 12.501s9.16602 6.66699 14.499 9s10.333 3.5 15 3.5h523c4.66699 0 9.5 -1 14.5 -3s9.5 -4.83301 13.5 -8.5s7.33301 -8 10 -13s3.66699 -10.5 3 -16.5c-0.666992 -4.66699 -1 -9.16699 -1 -13.5
s-0.333008 -8.83301 -1 -13.5s-1.5 -9 -2.5 -13s-2.5 -7.66699 -4.5 -11l-409 -593l-8.5 -13c-3 -4.66699 -6 -8.83398 -9 -12.501s-6.5 -6.83398 -10.5 -9.50098s-8.33301 -4 -13 -4h-73c-8.66699 0 -14.834 1.66699 -18.501 5s-6.33398 7.16602 -8.00098 11.499
s-2.5 9.16602 -2.5 14.499v15c-0.666992 8.66699 -0.666992 17.5 0 26.5s3.66699 17.167 9 24.5l176 256c4 6 8.83301 11.333 14.5 16s11.667 8.83398 18 12.501s13.166 7 20.499 10l21.5 9c7 3 14 6.16699 21 9.5s13.667 6.83301 20 10.5s12.333 7.83398 18 12.501
s10.5 10.334 14.5 17.001l127 190h-406c-2 0 -4 -0.5 -6 -1.5s-3.83301 -2.16699 -5.5 -3.5s-3.16699 -3 -4.5 -5s-2 -4 -2 -6v-78c0 -2 -0.333008 -4 -1 -6s-1.83398 -4 -3.50098 -6s-3.5 -3.66699 -5.5 -5s-4 -2 -6 -2h-47c-2 0 -4.33301 0.666992 -7 2
s-4.83398 3.16602 -6.50098 5.49902s-3.16699 4.83301 -4.5 7.5s-2 5 -2 7v135z" />
    <glyph glyph-name="eight" unicode="8" 
d="M39 47l-0.00195312 275c0 4.66699 1.33301 9.5 4 14.5s6.16699 10 10.5 15s9.16602 10.167 14.499 15.5l16 16l16 16.5c5.33301 5.66699 10.166 11.5 14.499 17.5s7.83301 12.333 10.5 19s4 13.667 4 21v224c0 5.33301 1.5 10.666 4.5 15.999s6.83301 10 11.5 14
s9.83398 7.16699 15.501 9.5s11.167 3.5 16.5 3.5h343c5.33301 0 11 -1.33301 17 -4s11.333 -6.33398 16 -11.001s8.5 -9.66699 11.5 -15s4.5 -11 4.5 -17v-220c0 -6.66699 1.5 -13.167 4.5 -19.5s6.83301 -12.666 11.5 -18.999s9.83398 -12.666 15.501 -18.999
s11.667 -12.666 18 -18.999s12.333 -13 18 -20s10.834 -14.333 15.501 -22s8.33398 -15.834 11.001 -24.501s4 -17.667 4 -27v-235c0 -6 -1.5 -12.167 -4.5 -18.5s-7 -11.833 -12 -16.5s-10.5 -8.66699 -16.5 -12s-12 -5 -18 -5h-521c-6 -0 -12.333 1.33301 -19 4
s-12.667 6.16699 -18 10.5s-9.83301 9.33301 -13.5 15s-5.5 11.5 -5.5 17.5zM208.998 348c-6 0 -11 -2 -15 -6s-6 -8.66699 -6 -14v-219c0 -6 2 -11 6 -15s9 -6 15 -6h290c6 0 11 2 15 6s6 9 6 15v219c0 5.33301 -2 10 -6 14s-9 6 -15 6h-290zM236.998 637
c-3.33301 0 -6.5 -0.5 -9.5 -1.5s-5.5 -2.66699 -7.5 -5s-3.66699 -4.83301 -5 -7.5s-2 -5.66699 -2 -9v-159c0 -3.33301 0.666992 -6.33301 2 -9s3 -5 5 -7s4.5 -3.66699 7.5 -5s6.16699 -2 9.5 -2h227c3.33301 0 6.5 0.666992 9.5 2s5.5 3 7.5 5s3.66699 4.33301 5 7
s2 5.66699 2 9v159c0 3.33301 -0.666992 6.33301 -2 9s-3 5.16699 -5 7.5s-4.5 4 -7.5 5s-6.16699 1.5 -9.5 1.5h-227z" />
    <glyph glyph-name="nine" unicode="9" 
d="M567 433l0.000976562 185c0 2.66699 -0.833008 5.33398 -2.5 8.00098s-3.83398 5.16699 -6.50098 7.5s-5.5 4 -8.5 5s-6.16699 1.5 -9.5 1.5h-384c-2.66699 0 -5 -0.666992 -7 -2s-4 -3.16602 -6 -5.49902s-3.5 -4.83301 -4.5 -7.5s-1.5 -5.33398 -1.5 -8.00098v-160
c0 -2.66699 0.5 -5.33398 1.5 -8.00098s2.16699 -5.16699 3.5 -7.5s3 -4.33301 5 -6s4 -2.5 6 -2.5h414zM663.001 34c0 -6.66699 -0.496094 -12.001 -1.49609 -16.001s-2.66699 -7.33301 -5 -10s-5.5 -4.66699 -9.5 -6s-9.33301 -2 -16 -2h-91
c-2.66699 0 -5.83398 0.833008 -9.50098 2.5s-6.83398 3.66699 -9.50098 6s-5 5 -7 8s-3 5.83301 -3 8.5v297c0 2 -0.333008 4.33301 -1 7s-1.66699 5.16699 -3 7.5s-2.83301 4.33301 -4.5 6s-3.83398 2.5 -6.50098 2.5h-404c-5.33301 0 -10.833 1.33301 -16.5 4
s-10.667 6.16699 -15 10.5s-8 9.33301 -11 15s-4.5 11.167 -4.5 16.5v292c0 4.66699 1.33301 9.5 4 14.5s6 9.5 10 13.5s8.5 7.16699 13.5 9.5s10.167 3.5 15.5 3.5h528c5.33301 0 10.666 -0.833008 15.999 -2.5s10.333 -4.16699 15 -7.5s8.5 -7.16602 11.5 -11.499
s4.5 -8.83301 4.5 -13.5v-655z" />
    <glyph glyph-name="colon" unicode=":" horiz-adv-x="205" 
d="M101 -9c-8 0 -15.333 1.5 -22 4.5s-12.5 6.83301 -17.5 11.5s-8.83301 10.334 -11.5 17.001s-4 14 -4 22c0 7.33301 1.33301 14.333 4 21s6.5 12.5 11.5 17.5s10.833 9 17.5 12s14 4.5 22 4.5c7.33301 0 14.333 -1.5 21 -4.5s12.5 -7 17.5 -12s9 -10.833 12 -17.5
s4.5 -13.667 4.5 -21c0 -8 -1.5 -15.333 -4.5 -22s-7 -12.334 -12 -17.001s-10.833 -8.5 -17.5 -11.5s-13.667 -4.5 -21 -4.5zM101 134c-8 0 -15.333 1.5 -22 4.5s-12.5 7 -17.5 12s-8.83301 10.833 -11.5 17.5s-4 13.667 -4 21c0 8 1.33301 15.333 4 22s6.5 12.5 11.5 17.5
s10.833 9 17.5 12s14 4.5 22 4.5c7.33301 0 14.333 -1.5 21 -4.5s12.5 -7 17.5 -12s9 -10.833 12 -17.5s4.5 -14 4.5 -22c0 -7.33301 -1.5 -14.333 -4.5 -21s-7 -12.5 -12 -17.5s-10.833 -9 -17.5 -12s-13.667 -4.5 -21 -4.5z" />
    <glyph glyph-name="semicolon" unicode=";" horiz-adv-x="205" 
d="M100 99c6.66699 0 13.1689 -0.834961 19.502 -2.50195s12.166 -4.5 17.499 -8.5s9.66602 -9.5 12.999 -16.5s5 -16.167 5 -27.5v-111h-67l44 66c-5.33301 -2 -10.666 -3.83301 -15.999 -5.5s-10.666 -2.5 -15.999 -2.5c-8 0 -15.333 1.5 -22 4.5s-12.334 7 -17.001 12
s-8.33398 10.667 -11.001 17s-4 12.5 -4 18.5c0 9.33301 1.66699 17.333 5 24s7.5 12.334 12.5 17.001s10.833 8.33398 17.5 11.001s13 4 19 4zM101.002 133.998c-8 0 -15.333 1.33301 -22 4s-12.5 6.5 -17.5 11.5s-8.83301 11 -11.5 18s-4 14.167 -4 21.5
s1.33301 14.333 4 21s6.5 12.5 11.5 17.5s10.833 9 17.5 12s14 4.5 22 4.5c7.33301 0 14.333 -1.5 21 -4.5s12.5 -7 17.5 -12s9 -10.833 12 -17.5s4.5 -13.667 4.5 -21s-1.5 -14.5 -4.5 -21.5s-7 -13 -12 -18s-10.833 -8.83301 -17.5 -11.5s-13.667 -4 -21 -4z" />
    <glyph glyph-name="less" unicode="&#x3c;" horiz-adv-x="853" 
d="M717 579v-77l-483 -197l483 -196v-78l-586 242v66z" />
    <glyph glyph-name="equal" unicode="=" horiz-adv-x="853" 
d="M128 439h594v-69h-594v69zM128 240h594v-69h-594v69z" />
    <glyph glyph-name="greater" unicode="&#x3e;" horiz-adv-x="853" 
d="M131 579l586 -240v-65l-587 -243v78l484 196l-483 198v76z" />
    <glyph glyph-name="question" unicode="?" horiz-adv-x="590" 
d="M259 -9c-7.33301 0 -14.333 1.5 -21 4.5s-12.5 6.83301 -17.5 11.5s-9 10.334 -12 17.001s-4.5 14 -4.5 22c0 7.33301 1.5 14.333 4.5 21s7 12.5 12 17.5s10.833 9 17.5 12s13.667 4.5 21 4.5s14.5 -1.5 21.5 -4.5s13 -7 18 -12s8.83301 -10.833 11.5 -17.5
s4 -13.667 4 -21c0 -8 -1.33301 -15.333 -4 -22s-6.5 -12.334 -11.5 -17.001s-11 -8.5 -18 -11.5s-14.167 -4.5 -21.5 -4.5zM37 697c0 2.66699 0.672852 5.66406 2.00586 8.99707s3.33301 6.33301 6 9s5.5 4.66699 8.5 6s5.83301 2 8.5 2h457
c3.33301 0 6.83301 -0.666992 10.5 -2s7.16699 -3.16602 10.5 -5.49902s6 -5.16602 8 -8.49902s3 -6.66602 3 -9.99902v-215c0 -4 -1 -7.83301 -3 -11.5s-4.33301 -7 -7 -10s-5.83398 -5.66699 -9.50098 -8s-7.5 -4.16602 -11.5 -5.49902l-239 -74c-2 0 -4 -0.666992 -6 -2
s-4 -3 -6 -5s-3.5 -4 -4.5 -6s-1.5 -4 -1.5 -6v-34c0 -4 1 -7.66699 3 -11s4.33301 -6.33301 7 -9l43 -42l6 -6c2 -2 3.83301 -4.16699 5.5 -6.5s3 -4.66602 4 -6.99902s1.5 -4.83301 1.5 -7.5v-78c0 -2 -0.166992 -4.5 -0.5 -7.5s-1 -5.83301 -2 -8.5
s-2.33301 -4.83398 -4 -6.50098s-3.5 -2.5 -5.5 -2.5h-109c-2.66699 0 -5.5 0.5 -8.5 1.5s-5.66699 2.5 -8 4.5s-4.33301 4.33301 -6 7s-2.5 5.33398 -2.5 8.00098v253c0 3.33301 0.833008 6.83301 2.5 10.5s3.66699 7 6 10s5.16602 5.66699 8.49902 8
s6.66602 4.16602 9.99902 5.49902l230 70c2.66699 0.666992 5.16699 1.5 7.5 2.5s4.66602 2.16699 6.99902 3.5s4.33301 3 6 5s2.5 4 2.5 6v106c0 2 -0.5 3.66699 -1.5 5s-2.33301 2.66602 -4 3.99902s-3.33398 2.33301 -5.00098 3s-3.5 1 -5.5 1h-265v-84
c0 -2 -0.666992 -4.5 -2 -7.5s-2.83301 -5.66699 -4.5 -8s-3.66699 -4.33301 -6 -6s-4.83301 -2.5 -7.5 -2.5h-107c-2.66699 0 -5.33398 0.666992 -8.00098 2s-5 3.16602 -7 5.49902s-3.66699 4.83301 -5 7.5s-2 5.33398 -2 8.00098v140z" />
    <glyph glyph-name="at" unicode="@" horiz-adv-x="1024" 
d="M550 734c32.667 0 63.4932 -2.49805 92.4932 -7.49805s56.333 -12 82 -21s49.5 -19.833 71.5 -32.5s42 -26.834 60 -42.501s33.833 -32.667 47.5 -51s25.167 -37.666 34.5 -57.999s16.5 -41.333 21.5 -63s7.5 -43.834 7.5 -66.501c0.666992 -24.667 -1 -48.167 -5 -70.5
s-9.83301 -43.666 -17.5 -63.999s-16.834 -39.333 -27.501 -57s-22.5 -33.834 -35.5 -48.501s-27.167 -27.667 -42.5 -39s-31.166 -21 -47.499 -29s-33.333 -14.167 -51 -18.5s-35.5 -6.5 -53.5 -6.5c-14 0 -27.667 1.83301 -41 5.5s-25 9.33398 -35 17.001
s-17.5 17 -22.5 28s-6.16699 23.5 -3.5 37.5c-6 -11.333 -14.667 -22.833 -26 -34.5s-23.833 -21.834 -37.5 -30.501s-28.167 -15.334 -43.5 -20.001s-30.333 -6.33398 -45 -5.00098c-17.333 2 -32.666 4.83301 -45.999 8.5s-25 8.16699 -35 13.5s-18.667 11.333 -26 18
s-13.666 14 -18.999 22s-9.5 16.333 -12.5 25s-5.5 17.5 -7.5 26.5s-3.33301 18.333 -4 28l-2 28.5c-0.666992 18 0.166016 35.667 2.49902 53s6.33301 34 12 50s12.667 31.5 21 46.5s17.833 29 28.5 42s22.334 24.833 35.001 35.5s26.167 19.667 40.5 27s29.333 13 45 17
s31.834 6 48.501 6c12 0 24 -1.16699 36 -3.5s23.5 -6.5 34.5 -12.5s21.167 -13.833 30.5 -23.5s17.333 -21.5 24 -35.5l26 58h69l-81 -321c-2 -6 -1.16699 -12 2.5 -18s8.33398 -11.333 14.001 -16s12.167 -8 19.5 -10s14 -2.66699 20 -2c15.333 3.33301 29.833 8 43.5 14
s26.5 13.5 38.5 22.5s22.833 19 32.5 30s18.334 22.667 26.001 35s14.5 25.333 20.5 39s10.833 27.5 14.5 41.5s6.33398 28 8.00098 42s2.5 27.667 2.5 41c-0.666992 26.667 -4 51.167 -10 73.5s-14.167 42.833 -24.5 61.5s-22.5 35.334 -36.5 50.001
s-29.333 27.834 -46 39.501s-34.167 21.5 -52.5 29.5s-37.166 14.667 -56.499 20s-38.833 9.16602 -58.5 11.499s-38.834 3.5 -57.501 3.5c-34.667 0 -67.667 -3.33301 -99 -10s-60.5 -15.667 -87.5 -27s-51.833 -25 -74.5 -41s-43.167 -33.667 -61.5 -53
s-34.5 -40 -48.5 -62s-25.5 -45 -34.5 -69s-15.667 -48.333 -20 -73s-6.16602 -49.334 -5.49902 -74.001c0.666992 -33.333 4.5 -63.833 11.5 -91.5s16.167 -53 27.5 -76s24.833 -43.5 40.5 -61.5s33 -33.667 52 -47s39 -25 60 -35s42.833 -18 65.5 -24
s45.5 -10.5 68.5 -13.5s45.833 -4.5 68.5 -4.5c26.667 0 53 2.16699 79 6.5s51.833 10.5 77.5 18.5s50.667 17.833 75 29.5s48.166 24.834 71.499 39.501l28 -38c-24.667 -20 -50.5 -37 -77.5 -51s-54.5 -25.5 -82.5 -34.5s-56.5 -15.833 -85.5 -20.5
s-58.167 -7.33398 -87.5 -8.00098c-36.667 -0.666992 -71.5 1.83301 -104.5 7.5s-64 13.834 -93 24.501s-55.667 23.834 -80 39.501s-46.333 32.834 -66 51.501s-37 39 -52 61s-27.5 45 -37.5 69s-17.333 48.833 -22 74.5s-6.66699 51.167 -6 76.5
c0.666992 41.333 5.33398 79.833 14.001 115.5s20.167 68.5 34.5 98.5s31.166 57.333 50.499 82s40.833 46.667 64.5 66s48.834 36.166 75.501 50.499s54.167 26.166 82.5 35.499s57.333 16.333 87 21s59.167 7 88.5 7zM518.993 450.002
c-11.333 0 -22.4951 -1.66699 -33.4951 -5s-21.5 -8.33301 -31.5 -15s-19.333 -14.667 -28 -24s-16.834 -19.5 -24.501 -30.5s-14.334 -22.667 -20.001 -35s-10.334 -25 -14.001 -38s-6.33398 -26 -8.00098 -39s-1.83398 -25.833 -0.500977 -38.5l2 -18.5
c0.666992 -6.33301 1.66699 -12.666 3 -18.999s3.16602 -12.5 5.49902 -18.5s5 -11.667 8 -17s6.83301 -10.333 11.5 -15s10 -8.66699 16 -12s12.833 -6 20.5 -8s16.5 -3.33301 26.5 -4c13.333 0 25.833 1.66699 37.5 5s22.334 8.5 32.001 15.5s18.5 15.167 26.5 24.5
s15.167 19.833 21.5 31.5s12 24 17 37s9.5 26.5 13.5 40.5s7.33301 28.167 10 42.5s5 28.166 7 41.499c2 11.333 0.833008 22.833 -3.5 34.5s-10.833 22.167 -19.5 31.5s-19.5 17 -32.5 23s-27.167 9.33301 -42.5 10z" />
    <glyph glyph-name="A" unicode="A" horiz-adv-x="745" 
d="M121 724l499.994 -0.000976562c2.66699 0 5.33398 -0.666992 8.00098 -2s5 -3 7 -5s3.66699 -4.16699 5 -6.5s2 -4.83301 2 -7.5v-281c0 -5.33301 0.833008 -10.5 2.5 -15.5s3.83398 -9.66699 6.50098 -14s5.83398 -8.66602 9.50098 -12.999l11.5 -13
c4 -4.33301 7.83301 -8.83301 11.5 -13.5s6.83398 -9.16699 9.50098 -13.5s4.83398 -9 6.50098 -14s2.5 -10.167 2.5 -15.5v-285c0 -2.66699 -0.5 -5.5 -1.5 -8.5s-2.33301 -5.66699 -4 -8s-3.66699 -4.33301 -6 -6s-4.83301 -2.5 -7.5 -2.5h-104c-2 0 -4.33301 0.5 -7 1.5
s-5.16699 2.33301 -7.5 4s-4.33301 3.66699 -6 6s-2.5 4.5 -2.5 6.5v277c0 2.66699 -0.666992 5.33398 -2 8.00098s-3.16602 5 -5.49902 7s-5 3.5 -8 4.5s-5.83301 1.5 -8.5 1.5h-327c-2 0 -4.5 -0.333008 -7.5 -1s-5.66699 -1.83398 -8 -3.50098s-4.33301 -3.66699 -6 -6
s-2.5 -4.83301 -2.5 -7.5v-275c0 -2.66699 -0.666992 -5.33398 -2 -8.00098s-3.33301 -5.16699 -6 -7.5s-5.33398 -4.16602 -8.00098 -5.49902s-5.33398 -2 -8.00098 -2h-98c-2.66699 0 -5.5 0.666992 -8.5 2s-5.83301 3 -8.5 5s-4.66699 4.16699 -6 6.5
s-2 5.16602 -2 8.49902v282c0 6 0.833008 11.5 2.5 16.5s4 10 7 15s6.33301 9.83301 10 14.5l11.5 14l11.5 14c3.66699 4.66699 7 9.33398 10 14.001s5.33301 9.66699 7 15s2.5 10.666 2.5 15.999v280c0 2.66699 0.666992 5.33398 2 8.00098s3.33301 5 6 7
s5.33398 3.5 8.00098 4.5s5.33398 1.5 8.00098 1.5zM179.994 623.999l0.000976562 -213c0 -2 1 -4 3 -6s4.16699 -3.5 6.5 -4.5s5 -1.83301 8 -2.5s5.5 -1 7.5 -1h336c2 0 4.16699 0.5 6.5 1.5s4.33301 2.5 6 4.5s3 4 4 6s1.5 4.33301 1.5 7v206
c0 2.66699 -0.666992 5.33398 -2 8.00098s-3.16602 5.16699 -5.49902 7.5s-4.83301 4.16602 -7.5 5.49902s-5.33398 2 -8.00098 2h-334c-2.66699 0 -5.33398 -0.666992 -8.00098 -2s-5 -3 -7 -5s-3.66699 -4.33301 -5 -7s-2 -5 -2 -7z" />
    <glyph glyph-name="B" unicode="B" horiz-adv-x="700" 
d="M85 723l459.999 0.00195312c4.66699 0 9.5 -1.16699 14.5 -3.5s9.5 -5.16602 13.5 -8.49902s7.16699 -7.16602 9.5 -11.499s3.5 -8.83301 3.5 -13.5v-261c0 -6 1.16699 -11.333 3.5 -16s5.16602 -9.33398 8.49902 -14.001s7.16602 -9.16699 11.499 -13.5l13.5 -13
l13.5 -13c4.33301 -4.33301 8.16602 -8.83301 11.499 -13.5s6 -9.5 8 -14.5s3 -10.167 3 -15.5v-265c0 -5.33301 -1.5 -10.833 -4.5 -16.5s-6.83301 -10.834 -11.5 -15.501s-10 -8.33398 -16 -11.001s-12 -4 -18 -4h-511c-5.33301 0 -11.166 1 -17.499 3
s-12 4.83301 -17 8.5s-9.33301 8 -13 13s-5.5 10.167 -5.5 15.5v648c0 4 1.33301 8.16699 4 12.5s5.83398 8.16602 9.50098 11.499s7.83398 6 12.501 8s9.33398 3 14.001 3zM141.999 643.002c-2.66699 0 -5 -1 -7 -3s-3 -4.33301 -3 -7v-222c0 -2.66699 1 -5.16699 3 -7.5
s4.33301 -3.5 7 -3.5h349c2.66699 0 5 1.16699 7 3.5s3 4.83301 3 7.5v222c0 2.66699 -1 5 -3 7s-4.33301 3 -7 3h-349zM204.999 316.002c-3.33301 0 -6 -0.833008 -8 -2.5s-3 -4.16699 -3 -7.5v-209c0 -2.66699 1 -5 3 -7s4.66699 -3 8 -3h357c2.66699 0 5.16699 1 7.5 3
s3.5 4.33301 3.5 7v209c0 3.33301 -1.16699 5.83301 -3.5 7.5s-4.83301 2.5 -7.5 2.5h-357z" />
    <glyph glyph-name="C" unicode="C" horiz-adv-x="700" 
d="M621 723c4.66699 0 9.49805 -0.995117 14.498 -2.99512s9.66699 -4.66699 14 -8s7.83301 -7 10.5 -11s4 -8.33301 4 -13v-129c0 -2.66699 -0.666992 -5.33398 -2 -8.00098s-3.16602 -5.33398 -5.49902 -8.00098s-4.83301 -4.66699 -7.5 -6s-5.33398 -2 -8.00098 -2h-103
c-2.66699 0 -5.5 0.666992 -8.5 2s-5.66699 3 -8 5s-4.33301 4.5 -6 7.5s-2.5 5.83301 -2.5 8.5v67c0 2.66699 -0.5 5.33398 -1.5 8.00098s-2.5 5.16699 -4.5 7.5s-4.33301 4.16602 -7 5.49902s-5.33398 2 -8.00098 2h-334c-2.66699 0 -5.16699 -0.833008 -7.5 -2.5
s-4.33301 -3.66699 -6 -6s-3 -5 -4 -8s-1.5 -5.5 -1.5 -7.5v-201c0 -1.33301 0.833008 -3.5 2.5 -6.5s3.83398 -6.66699 6.50098 -11l9 -14l10.5 -16c3.66699 -5.66699 7.16699 -11.834 10.5 -18.501s6.33301 -13.5 9 -20.5s4.83398 -14.333 6.50098 -22
s2.5 -15.167 2.5 -22.5v-187c0 -4.66699 0.666992 -8.33398 2 -11.001s3 -4.83398 5 -6.50098s4.16699 -2.66699 6.5 -3s4.83301 -0.5 7.5 -0.5h340c2.66699 0 5.33398 0.833008 8.00098 2.5s4.83398 3.66699 6.50098 6s3 5 4 8s1.5 5.83301 1.5 8.5v140
c0 2.66699 0.666992 5.66699 2 9s3.16602 6.16602 5.49902 8.49902s4.83301 4.33301 7.5 6s5.33398 2.5 8.00098 2.5h38c2.66699 0 5.5 -0.833008 8.5 -2.5s5.5 -3.83398 7.5 -6.50098s3.66699 -5.66699 5 -9s2 -6.33301 2 -9v-204c0 -4.66699 -1.33301 -9.66699 -4 -15
s-6.16699 -10.166 -10.5 -14.499s-9 -7.83301 -14 -10.5s-10.167 -4 -15.5 -4h-525c-4.66699 0 -9.83398 1.16699 -15.501 3.5s-10.667 5.5 -15 9.5s-7.83301 8.5 -10.5 13.5s-4 9.83301 -4 14.5v642c0 4.66699 1.16699 9.33398 3.5 14.001s5.5 9 9.5 13
s8.5 7.16699 13.5 9.5s9.83301 3.5 14.5 3.5h533z" />
    <glyph glyph-name="D" unicode="D" horiz-adv-x="715" 
d="M100 723l498.998 0.00292969c4 0 9.66699 -1.83301 17 -5.5s14.333 -8.33398 21 -14.001s12.334 -11.5 17.001 -17.5s7 -11.667 7 -17v-616c0 -6.66699 -2 -13.167 -6 -19.5s-9 -12 -15 -17s-12.833 -9 -20.5 -12s-15.167 -4.5 -22.5 -4.5h-497
c-7.33301 0 -14.166 1.33301 -20.499 4s-11.833 6.5 -16.5 11.5s-8.5 10.667 -11.5 17s-4.5 13.166 -4.5 20.499v616c0 17.333 4 30.666 12 39.999s21.667 14 41 14zM137.998 620.003l-0.00390625 -189c0 -3.33301 0.833008 -7.33301 2.5 -12s3.83398 -9.5 6.50098 -14.5
s5.66699 -10.333 9 -16l10.5 -18l11 -19c3.66699 -6.33301 6.83398 -12.833 9.50098 -19.5s4.83398 -13.167 6.50098 -19.5s2.5 -12.833 2.5 -19.5v-188c0 -2.66699 0.666992 -5.66699 2 -9s3 -6.5 5 -9.5s4.5 -5.5 7.5 -7.5s6.16699 -3 9.5 -3h324
c4 0 7.66699 1.33301 11 4s6.33301 5.66699 9 9s4.83398 7.16602 6.50098 11.499s2.5 8.5 2.5 12.5v514c0 2 -0.833008 4.33301 -2.5 7s-3.66699 4.83398 -6 6.50098s-5 3 -8 4s-5.83301 1.5 -8.5 1.5h-387c-3.33301 0 -6.33301 -0.666992 -9 -2s-5 -3.33301 -7 -6
s-3.66699 -5.5 -5 -8.5s-2 -6.16699 -2 -9.5z" />
    <glyph glyph-name="E" unicode="E" horiz-adv-x="555" 
d="M47 686c0 4.66699 1.16211 9.33203 3.49512 13.999s5.33301 8.83398 9 12.501s7.83398 6.5 12.501 8.5s9.33398 3 14.001 3h399c2 0 4.5 -0.333008 7.5 -1s5.83301 -1.5 8.5 -2.5s4.83398 -2.5 6.50098 -4.5s2.5 -4.33301 2.5 -7v-44
c0 -2.66699 -0.666992 -5.33398 -2 -8.00098s-3.16602 -5 -5.49902 -7s-5 -3.66699 -8 -5s-5.83301 -2 -8.5 -2h-339c-2 0 -3.83301 -0.333008 -5.5 -1s-3.16699 -1.83398 -4.5 -3.50098s-2.5 -3.33398 -3.5 -5.00098s-1.5 -3.5 -1.5 -5.5v-212c0 -2 0.5 -4 1.5 -6
s2.33301 -3.83301 4 -5.5s3.5 -3 5.5 -4s4 -1.5 6 -1.5h337c2.66699 0 5.33398 -0.5 8.00098 -1.5s5 -2.16699 7 -3.5s3.83301 -3 5.5 -5s2.5 -4.33301 2.5 -7v-38c0 -2.66699 -0.666992 -5.5 -2 -8.5s-3.16602 -5.66699 -5.49902 -8s-4.83301 -4.33301 -7.5 -6
s-5.33398 -2.5 -8.00098 -2.5h-286c-2 0 -4.16699 -0.5 -6.5 -1.5s-4.33301 -2.33301 -6 -4s-3 -3.66699 -4 -6s-1.5 -4.5 -1.5 -6.5v-200c0 -2 0.5 -4 1.5 -6s2.5 -3.66699 4.5 -5s4 -2.33301 6 -3s4 -1 6 -1h291c2.66699 0 5.5 -0.5 8.5 -1.5s5.83301 -2.16699 8.5 -3.5
s5 -3 7 -5s3 -4.33301 3 -7v-52c0 -2 -0.5 -4 -1.5 -6s-2.16699 -3.83301 -3.5 -5.5s-2.83301 -3 -4.5 -4s-3.5 -1.5 -5.5 -1.5h-417c-4 0 -8.33301 0.833008 -13 2.5s-9 3.83398 -13 6.50098s-7.16699 5.83398 -9.5 9.50098s-3.5 7.83398 -3.5 12.501v655z" />
    <glyph glyph-name="F" unicode="F" horiz-adv-x="535" 
d="M47 686c0 4.66699 1.16016 9.33203 3.49316 13.999s5.33301 8.83398 9 12.501s7.83398 6.5 12.501 8.5s9.33398 3 14.001 3h399c2 0 4.5 -0.333008 7.5 -1s5.83301 -1.5 8.5 -2.5s4.83398 -2.5 6.50098 -4.5s2.5 -4.33301 2.5 -7v-44
c0 -2.66699 -0.666992 -5.33398 -2 -8.00098s-3.16602 -5 -5.49902 -7s-5 -3.66699 -8 -5s-5.83301 -2 -8.5 -2h-339c-2 0 -3.83301 -0.333008 -5.5 -1s-3.16699 -1.83398 -4.5 -3.50098s-2.5 -3.33398 -3.5 -5.00098s-1.5 -3.5 -1.5 -5.5v-212c0 -2 0.5 -4 1.5 -6
s2.33301 -3.83301 4 -5.5s3.5 -3 5.5 -4s4 -1.5 6 -1.5h337c2.66699 0 5.33398 -0.5 8.00098 -1.5s5 -2.16699 7 -3.5s3.83301 -3 5.5 -5s2.5 -4.33301 2.5 -7v-38c0 -2.66699 -0.666992 -5.5 -2 -8.5s-3.16602 -5.66699 -5.49902 -8s-4.83301 -4.33301 -7.5 -6
s-5.33398 -2.5 -8.00098 -2.5h-286c-2 0 -4.16699 -0.5 -6.5 -1.5s-4.33301 -2.33301 -6 -4s-3 -3.66699 -4 -6s-1.5 -4.5 -1.5 -6.5v-269c0 -3.33301 -0.833008 -6.83301 -2.5 -10.5s-3.66699 -7.16699 -6 -10.5s-5.16602 -6 -8.49902 -8s-6.66602 -3 -9.99902 -3h-69
c-4 0 -8.33301 0.833008 -13 2.5s-9 3.83398 -13 6.50098s-7.16699 5.83398 -9.5 9.50098s-3.5 7.83398 -3.5 12.501v655z" />
    <glyph glyph-name="G" unicode="G" horiz-adv-x="700" 
d="M621 723c4.66699 0 9.49805 -0.998047 14.498 -2.99805s9.66699 -4.66699 14 -8s7.83301 -7 10.5 -11s4 -8.33301 4 -13v-129c0 -2.66699 -0.666992 -5.33398 -2 -8.00098s-3.16602 -5.33398 -5.49902 -8.00098s-4.83301 -4.66699 -7.5 -6s-5.33398 -2 -8.00098 -2h-47
c-2.66699 0 -5.5 0.666992 -8.5 2s-5.66699 3 -8 5s-4.16602 4.5 -5.49902 7.5s-2 5.83301 -2 8.5v67c0 2.66699 -0.666992 5.33398 -2 8.00098s-3 5.16699 -5 7.5s-4.33301 4.16602 -7 5.49902s-5.33398 2 -8.00098 2h-390c-2.66699 0 -5.16699 -0.833008 -7.5 -2.5
s-4.33301 -3.66699 -6 -6s-3 -5 -4 -8s-1.5 -5.5 -1.5 -7.5v-201c0 -1.33301 0.833008 -3.5 2.5 -6.5s3.83398 -6.66699 6.50098 -11l9 -14l10.5 -16c3.66699 -5.66699 7.16699 -11.834 10.5 -18.501s6.33301 -13.5 9 -20.5s4.83398 -14.333 6.50098 -22
s2.5 -15.167 2.5 -22.5v-187c0 -4.66699 0.666992 -8.33398 2 -11.001s3 -4.83398 5 -6.50098s4.16699 -2.66699 6.5 -3s4.83301 -0.5 7.5 -0.5h340c2.66699 0 5.33398 0.833008 8.00098 2.5s4.83398 3.66699 6.50098 6s3 5 4 8s1.5 5.83301 1.5 8.5v116
c0 2.66699 -0.833008 5.33398 -2.5 8.00098s-3.83398 5.16699 -6.50098 7.5s-5.66699 4.16602 -9 5.49902s-6.33301 2 -9 2h-117c-2.66699 0 -5.33398 0.5 -8.00098 1.5s-5.16699 2.33301 -7.5 4s-4.16602 3.5 -5.49902 5.5s-2 4.33301 -2 7v43
c0 2.66699 0.666992 5.5 2 8.5s3 5.83301 5 8.5s4.5 4.83398 7.5 6.50098s5.83301 2.5 8.5 2.5h205c2.66699 0 5.5 -0.833008 8.5 -2.5s5.5 -4 7.5 -7s3.66699 -6 5 -9s2 -6.16699 2 -9.5v-263c0 -4.66699 -1.33301 -9.66699 -4 -15s-6.16699 -10.166 -10.5 -14.499
s-9 -7.83301 -14 -10.5s-10.167 -4 -15.5 -4h-525c-4.66699 0 -9.83398 1.16699 -15.501 3.5s-10.667 5.5 -15 9.5s-7.83301 8.5 -10.5 13.5s-4 9.83301 -4 14.5v642c0 4.66699 1.16699 9.33398 3.5 14.001s5.5 9 9.5 13s8.5 7.16699 13.5 9.5s9.83301 3.5 14.5 3.5h533z
" />
    <glyph glyph-name="H" unicode="H" horiz-adv-x="745" 
d="M158 723c2 0 4.49707 -0.501953 7.49707 -1.50195s5.66699 -2.33301 8 -4s4.33301 -3.66699 6 -6s2.5 -4.5 2.5 -6.5v-292c0 -2 0.5 -4 1.5 -6s2.33301 -3.83301 4 -5.5s3.5 -3 5.5 -4s4 -1.5 6 -1.5h342c2 0 4 0.666992 6 2s3.83301 3 5.5 5s2.83398 4.33301 3.50098 7
s1 5 1 7v288c0 2 0.666992 4.16699 2 6.5s2.83301 4.5 4.5 6.5s3.5 3.5 5.5 4.5s4.33301 1.5 7 1.5h48c2.66699 0 5 -0.666992 7 -2s3.83301 -3 5.5 -5s3.16699 -4.16699 4.5 -6.5s2 -4.83301 2 -7.5v-261c0 -6 0.833008 -12 2.5 -18s3.83398 -11.667 6.50098 -17
s5.83398 -10.666 9.50098 -15.999l11 -16l11 -16c3.66699 -5.33301 6.83398 -10.666 9.50098 -15.999s4.83398 -10.833 6.50098 -16.5s2.5 -11.5 2.5 -17.5v-289c0 -2.66699 -0.666992 -5.16699 -2 -7.5s-3 -4.33301 -5 -6s-4.33301 -3.16699 -7 -4.5s-5 -2 -7 -2h-98
c-2.66699 0 -5.5 0.666992 -8.5 2s-5.83301 3 -8.5 5s-4.83398 4.16699 -6.50098 6.5s-2.5 5.16602 -2.5 8.49902v278c0 2 -0.5 4 -1.5 6s-2.5 3.83301 -4.5 5.5s-4.16699 2.83398 -6.5 3.50098s-4.5 1 -6.5 1h-335c-2.66699 0 -5.33398 -0.5 -8.00098 -1.5
s-5 -2.33301 -7 -4s-3.83301 -3.83398 -5.5 -6.50098s-2.5 -5 -2.5 -7v-280c0 -2 -0.5 -4 -1.5 -6s-2.5 -3.83301 -4.5 -5.5s-4.16699 -3 -6.5 -4s-4.5 -1.5 -6.5 -1.5h-102c-2.66699 0 -5.33398 0.666992 -8.00098 2s-5.16699 3 -7.5 5s-4.16602 4.33301 -5.49902 7
s-2 5.33398 -2 8.00098v285c0 6 0.833008 12 2.5 18s4 12 7 18s6.33301 11.833 10 17.5l11 16.5l11 16c3.66699 5.33301 7 10.5 10 15.5s5.33301 9.83301 7 14.5s2.5 9 2.5 13v270c0 2 0.5 4 1.5 6s2.33301 3.83301 4 5.5s3.5 3 5.5 4s4 1.5 6 1.5h44z" />
    <glyph glyph-name="I" unicode="I" horiz-adv-x="240" 
d="M80 723l54.999 0.000976562c2 0 4.16699 -0.5 6.5 -1.5s4.33301 -2.5 6 -4.5s3 -4 4 -6s1.5 -4 1.5 -6v-265c0 -8 0.666992 -15.333 2 -22s3.33301 -12.834 6 -18.501s5.5 -11.167 8.5 -16.5s6.16699 -10.5 9.5 -15.5l9.5 -14.5c3 -4.66699 5.66699 -9.5 8 -14.5
s4.33301 -10.167 6 -15.5s2.5 -11 2.5 -17v-284c0 -2.66699 -0.666992 -5.33398 -2 -8.00098s-3 -5 -5 -7s-4.33301 -3.66699 -7 -5s-5 -2 -7 -2h-104c-2 0 -4.33301 0.5 -7 1.5s-5.16699 2.16699 -7.5 3.5s-4.33301 3 -6 5s-2.5 4.33301 -2.5 7v684
c0 2.66699 0.833008 5.33398 2.5 8.00098s3.5 5 5.5 7s4.33301 3.66699 7 5s5.33398 2 8.00098 2z" />
    <glyph glyph-name="J" unicode="J" horiz-adv-x="628" 
d="M554 723c5.33301 0 9.32812 -1.16699 11.9951 -3.5s4.83398 -5.5 6.50098 -9.5s2.83398 -8.33301 3.50098 -13s1 -9.33398 1 -14.001v-642c0 -4.66699 -1.33301 -9.5 -4 -14.5s-6.33398 -9.5 -11.001 -13.5s-9.66699 -7.16699 -15 -9.5s-10.333 -3.5 -15 -3.5h-453
c-5.33301 0 -10.666 1.33301 -15.999 4s-10 6.16699 -14 10.5s-7.33301 9.16602 -10 14.499s-4 10.333 -4 15v204c0 2.66699 0.5 5.66699 1.5 9s2.66699 6.33301 5 9s4.83301 4.83398 7.5 6.50098s5.33398 2.5 8.00098 2.5h38c3.33301 0 6.33301 -0.833008 9 -2.5
s5 -3.66699 7 -6s3.66699 -5.16602 5 -8.49902s2 -6.33301 2 -9v-140c0 -2.66699 0.666992 -5.5 2 -8.5s2.83301 -5.66699 4.5 -8s3.66699 -4.33301 6 -6s4.83301 -2.5 7.5 -2.5h269c2.66699 0 5.16699 0.166992 7.5 0.5s4.5 1.33301 6.5 3s3.66699 3.83398 5 6.50098
s2 6.33398 2 11.001v187c0 7.33301 0.833008 14.833 2.5 22.5s3.83398 15 6.50098 22s5.66699 13.667 9 20s6.83301 12.5 10.5 18.5l10.5 16.5l9 14c2.66699 4.33301 4.66699 8 6 11s2 5.16699 2 6.5v263c0 4.66699 0.5 9.16699 1.5 13.5s2.33301 8.16602 4 11.499
s3.83398 6.16602 6.50098 8.49902s6 3.5 10 3.5h48z" />
    <glyph glyph-name="K" unicode="K" horiz-adv-x="690" 
d="M162 724c2 0 4.16309 -0.505859 6.49609 -1.50586s4.33301 -2.33301 6 -4s3 -3.66699 4 -6s1.5 -4.5 1.5 -6.5v-292c0 -2 1 -4 3 -6s4.33301 -3.66699 7 -5s5.5 -2.33301 8.5 -3s5.5 -1 7.5 -1h315c4 0 8.33301 0.833008 13 2.5s9 3.83398 13 6.50098
s7.33301 5.83398 10 9.50098s4 7.5 4 11.5v274c0 2 0.333008 4.16699 1 6.5s1.83398 4.5 3.50098 6.5s3.5 3.66699 5.5 5s4 2 6 2h43c2.66699 0 5.16699 -0.833008 7.5 -2.5s4.33301 -3.66699 6 -6s3.16699 -5 4.5 -8s2 -5.83301 2 -8.5v-285c0 -6 -1.5 -11.833 -4.5 -17.5
s-6.83301 -10.667 -11.5 -15s-10 -8 -16 -11s-12.333 -4.5 -19 -4.5c8 0 15 -1.5 21 -4.5s11.167 -6.83301 15.5 -11.5s7.5 -10 9.5 -16s3 -12 3 -18v-292c0 -2 -0.5 -4.5 -1.5 -7.5s-2.16699 -5.5 -3.5 -7.5s-3 -3.83301 -5 -5.5s-4.33301 -2.5 -7 -2.5h-42
c-2.66699 0 -5.16699 0.833008 -7.5 2.5s-4.16602 3.5 -5.49902 5.5s-2.5 4.33301 -3.5 7s-1.5 5.33398 -1.5 8.00098v264c0 4 -1.16699 8 -3.5 12s-5.16602 7.66699 -8.49902 11s-7 6 -11 8s-8 3 -12 3h-320c-2.66699 0 -5.5 -0.833008 -8.5 -2.5
s-5.83301 -3.66699 -8.5 -6s-4.83398 -5 -6.50098 -8s-2.5 -6.16699 -2.5 -9.5v-270c0 -2.66699 -0.333008 -5.5 -1 -8.5s-1.66699 -5.66699 -3 -8s-3.16602 -4.33301 -5.49902 -6s-4.5 -2.5 -6.5 -2.5h-104c-2.66699 0 -5.5 0.833008 -8.5 2.5s-5.66699 3.66699 -8 6
s-4.16602 4.83301 -5.49902 7.5s-2 5.66699 -2 9v278c0 6 0.833008 11.833 2.5 17.5s4 11.334 7 17.001s6.33301 11.167 10 16.5l11 16.5l11 16.5c3.66699 5.33301 7 10.833 10 16.5s5.33301 11.334 7 17.001s2.5 11.834 2.5 18.501v264c0 2 0.333008 4.33301 1 7
s1.66699 5 3 7s3 3.66699 5 5s4 2 6 2h50z" />
    <glyph glyph-name="L" unicode="L" horiz-adv-x="590" 
d="M114 723l52.9932 0.00390625c2 0 4 -0.5 6 -1.5s4 -2.33301 6 -4s3.5 -3.5 4.5 -5.5s1.5 -4 1.5 -6v-608c0 -2 0.5 -3.83301 1.5 -5.5s2.16699 -3.33398 3.5 -5.00098s3 -2.83398 5 -3.50098s3.66699 -1 5 -1h344c2.66699 0 5.33398 -0.666992 8.00098 -2s5 -3 7 -5
s3.83301 -4.33301 5.5 -7s2.5 -5.33398 2.5 -8.00098v-44c0 -2 -0.5 -4 -1.5 -6s-2.33301 -3.83301 -4 -5.5s-3.5 -3 -5.5 -4s-4 -1.5 -6 -1.5h-485c-3.33301 0 -6.66602 0.5 -9.99902 1.5s-6.33301 2.5 -9 4.5s-5 4.33301 -7 7s-3 5.66699 -3 9v279
c0 6 0.833008 12.167 2.5 18.5s3.83398 12.666 6.50098 18.999s5.83398 12.5 9.50098 18.5l11 18c3.66699 6 7.33398 11.667 11.001 17s6.83398 10.5 9.50098 15.5s4.83398 9.83301 6.50098 14.5s2.5 8.66699 2.5 12v269c0 2 0.666992 4.16699 2 6.5s2.83301 4.5 4.5 6.5
s3.5 3.66699 5.5 5s4.33301 2 7 2z" />
    <glyph glyph-name="M" unicode="M" horiz-adv-x="805" 
d="M45 23l0.00390625 662.001c0 4.66699 1.5 9.33398 4.5 14.001s6.66699 8.66699 11 12s9.16602 6.16602 14.499 8.49902s10.666 3.5 15.999 3.5h278c5.33301 0 10.833 -0.833008 16.5 -2.5s10.667 -4.33398 15 -8.00098s8 -8.16699 11 -13.5s4.5 -11.666 4.5 -18.999
c0 7.33301 1.5 13.666 4.5 18.999s6.66699 9.83301 11 13.5s9.16602 6.33398 14.499 8.00098s10.666 2.5 15.999 2.5h254c4 0 8.33301 -1.16699 13 -3.5s8.83398 -5.16602 12.501 -8.49902s6.66699 -7.16602 9 -11.499s3.5 -8.83301 3.5 -13.5v-663
c0 -2 -0.333008 -4.33301 -1 -7s-1.66699 -5.16699 -3 -7.5s-2.83301 -4.33301 -4.5 -6s-3.5 -2.5 -5.5 -2.5h-40c-2 0 -4 0.5 -6 1.5s-4 2.5 -6 4.5s-3.5 4 -4.5 6s-1.5 4 -1.5 6v602c0 2.66699 -0.333008 5.33398 -1 8.00098s-1.83398 5.16699 -3.50098 7.5
s-3.5 4.16602 -5.5 5.49902s-4.33301 2 -7 2h-171c-4.66699 0 -9.16699 -1.16699 -13.5 -3.5s-8.33301 -5.5 -12 -9.5s-6.5 -8.5 -8.5 -13.5s-3 -9.83301 -3 -14.5v-580c0 -2.66699 -0.5 -5.16699 -1.5 -7.5s-2.16699 -4.66602 -3.5 -6.99902s-3 -4.16602 -5 -5.49902
s-4.33301 -2 -7 -2h-41c-2.66699 0 -5.5 0.666992 -8.5 2s-5.83301 3.16602 -8.5 5.49902s-4.66699 4.83301 -6 7.5s-2 5.33398 -2 8.00098v581c0 4 -1.16699 8.33301 -3.5 13s-5.16602 9 -8.49902 13s-7.16602 7.16699 -11.499 9.5s-8.83301 3.5 -13.5 3.5h-182
c-3.33301 0 -6.33301 -0.666992 -9 -2s-5.16699 -3.33301 -7.5 -6s-4.33301 -5.5 -6 -8.5s-2.5 -6.16699 -2.5 -9.5v-172c0 -6.66699 1 -12.834 3 -18.501s4.33301 -11.334 7 -17.001s6 -11.334 10 -17.001l11.5 -16.5l11 -16.5c3.66699 -5.66699 7 -11.334 10 -17.001
s5.5 -11.334 7.5 -17.001s3 -11.834 3 -18.501v-282c0 -3.33301 -1 -6.5 -3 -9.5s-4.33301 -5.66699 -7 -8s-5.83398 -4.16602 -9.50098 -5.49902s-6.83398 -2 -9.50098 -2h-96c-2.66699 0 -5.33398 0.666992 -8.00098 2s-5.16699 3.16602 -7.5 5.49902
s-4.16602 4.83301 -5.49902 7.5s-2 5.33398 -2 8.00098z" />
    <glyph glyph-name="N" unicode="N" horiz-adv-x="715" 
d="M47 694c0 2.66699 0.332031 5.83203 0.999023 9.49902s2 7 4 10s4.16699 5.5 6.5 7.5s4.83301 3 7.5 3h49c5.33301 0 11 -1.16699 17 -3.5s10.667 -5.5 14 -9.5l427 -598v582c0 3.33301 0.5 6.5 1.5 9.5s2.33301 5.83301 4 8.5s3.66699 5 6 7s4.83301 3 7.5 3h46
c3.33301 0 6.33301 -1 9 -3s5 -4.5 7 -7.5s3.66699 -6.33301 5 -10s2 -7.16699 2 -10.5v-651c0 -3.33301 -0.333008 -7.5 -1 -12.5s-1.83398 -9.5 -3.50098 -13.5s-3.66699 -7.5 -6 -10.5s-5.5 -4.5 -9.5 -4.5h-58c-8 0 -16 2.16699 -24 6.5s-14.667 9.83301 -20 16.5
l-413 556v-133c0 -6 0.833008 -12.167 2.5 -18.5s4 -12.333 7 -18s6.33301 -11.334 10 -17.001l11.5 -17l11.5 -17c3.66699 -5.66699 7 -11.5 10 -17.5s5.33301 -12 7 -18s2.5 -12.333 2.5 -19v-282c0 -3.33301 -0.833008 -6.16602 -2.5 -8.49902s-3.66699 -4.5 -6 -6.5
s-5.16602 -3.66699 -8.49902 -5s-6.33301 -2 -9 -2h-91c-2.66699 0 -5.5 0.666992 -8.5 2s-5.66699 3 -8 5s-4.16602 4.33301 -5.49902 7s-2 5.33398 -2 8.00098v672z" />
    <glyph glyph-name="O" unicode="O" horiz-adv-x="715" 
d="M97 723h512c7.33301 0 14.166 -1.33301 20.499 -4s11.833 -6.33398 16.5 -11.001s8.33398 -10.167 11.001 -16.5s4 -13.166 4 -20.499v-619c0 -7.33301 -1.33301 -14.166 -4 -20.499s-6.33398 -11.833 -11.001 -16.5s-10.167 -8.33398 -16.5 -11.001
s-13.166 -4 -20.499 -4h-512c-7.33301 -0 -14.166 1.33301 -20.499 4s-11.833 6.33398 -16.5 11.001s-8.33398 10.167 -11.001 16.5s-4 13.166 -4 20.499v619c0 7.33301 1.33301 14.166 4 20.499s6.33398 11.833 11.001 16.5s10.167 8.33398 16.5 11.001s13.166 4 20.499 4z
M174 648c-8 0 -14.3291 -0.663086 -18.9961 -1.99609s-8.33398 -3.5 -11.001 -6.5s-4.33398 -7.16699 -5.00098 -12.5s-1 -12 -1 -20v-482c0 -10 0.5 -17.667 1.5 -23s3 -9.33301 6 -12s6.66699 -4.33398 11 -5.00098s10.166 -1 17.499 -1h318
c5.33301 0 9.5 0.333008 12.5 1s5.16699 2 6.5 4s2.33301 4.66699 3 8s1 7.66602 1 12.999v190c0 5.33301 0.666992 11.166 2 17.499s3.33301 12.5 6 18.5l8.5 18.5l9 18.5c3 6 6.16699 11.667 9.5 17l8.5 14c2.33301 4 4.16602 7.66699 5.49902 11s2 5.66602 2 6.99902v185
c0 8.66699 -0.166992 15.667 -0.5 21s-1.5 9.5 -3.5 12.5s-5.5 5 -10.5 6s-12.167 1.5 -21.5 1.5h-356z" />
    <glyph glyph-name="P" unicode="P" horiz-adv-x="695" 
d="M47 685c0 4.66699 1.16504 9.33301 3.49805 14s5.33301 8.83398 9 12.501s7.83398 6.66699 12.501 9s9.33398 3.5 14.001 3.5h531c4.66699 0 9.33398 -1 14.001 -3s8.83398 -4.66699 12.501 -8s6.66699 -7.33301 9 -12s3.5 -9 3.5 -13v-330
c0 -4.66699 -1.16699 -9.5 -3.5 -14.5s-5.33301 -9.33301 -9 -13s-7.83398 -6.66699 -12.501 -9s-9.33398 -3.5 -14.001 -3.5h-406c-2 0 -4.16699 -0.5 -6.5 -1.5s-4.33301 -2.5 -6 -4.5s-3 -4 -4 -6s-1.5 -4 -1.5 -6v-268c0 -3.33301 -0.833008 -6.83301 -2.5 -10.5
s-3.66699 -7.16699 -6 -10.5s-5 -6 -8 -8s-6.16699 -3 -9.5 -3h-88c-4 0 -8 1.16699 -12 3.5s-7.5 5.16602 -10.5 8.49902s-5.33301 7 -7 11s-2.5 8 -2.5 12v650zM155.998 641.999c-1.33301 0 -3.00098 -0.5 -5.00098 -1.5s-3.66699 -2 -5 -3s-2.5 -2.33301 -3.5 -4
s-1.5 -3.5 -1.5 -5.5v-221c0 -3.33301 1.5 -6 4.5 -8s6.16699 -3 9.5 -3h401c2.66699 0 5.33398 1.33301 8.00098 4s4 5.33398 4 8.00098v220c0 2 -0.333008 3.66699 -1 5s-1.66699 2.66602 -3 3.99902s-2.83301 2.5 -4.5 3.5s-3.5 1.5 -5.5 1.5h-398z" />
    <glyph glyph-name="Q" unicode="Q" horiz-adv-x="715" 
d="M139 624l0.00292969 -520c0 -2 0.666992 -4.16699 2 -6.5s2.83301 -4.5 4.5 -6.5s3.66699 -3.5 6 -4.5s4.83301 -1.5 7.5 -1.5h167c6 0 11.167 1 15.5 3s8.5 4.5 12.5 7.5s8 6.5 12 10.5l11.5 12c3.66699 4 7.66699 8 12 12s9.16602 7.66699 14.499 11
s11.166 5.83301 17.499 7.5s13.5 2.5 21.5 2.5h108c2 0 3.83301 0.5 5.5 1.5s3.16699 2.33301 4.5 4s2.33301 3.33398 3 5.00098s1 3.5 1 5.5v461c0 2.66699 -0.666992 5.16699 -2 7.5s-3.16602 4.5 -5.49902 6.5s-4.83301 3.5 -7.5 4.5s-5.33398 1.5 -8.00098 1.5h-381
c-2.66699 0 -5.33398 -0.833008 -8.00098 -2.5s-5 -3.66699 -7 -6s-3.66699 -4.83301 -5 -7.5s-2 -5.33398 -2 -8.00098zM88.0029 723l532.997 0.00390625c4.66699 0 9.33398 -1.16699 14.001 -3.5s8.66699 -5.33301 12 -9s6.16602 -7.83398 8.49902 -12.501s3.5 -9 3.5 -13
v-642c0 -4.66699 -1.16699 -9.5 -3.5 -14.5s-5.5 -9.5 -9.5 -13.5s-8.33301 -7.16699 -13 -9.5s-9.66699 -3.5 -15 -3.5h-35c-2 0 -4.33301 -0.5 -7 -1.5s-5 -2.5 -7 -4.5s-3.66699 -4.33301 -5 -7s-2 -5.33398 -2 -8.00098v-29c0 -2.66699 -0.5 -5.33398 -1.5 -8.00098
s-2.33301 -5 -4 -7s-3.5 -3.83301 -5.5 -5.5s-4.33301 -2.5 -7 -2.5h-117c-2.66699 0 -5.33398 0.666992 -8.00098 2s-5.16699 2.83301 -7.5 4.5s-4.16602 3.66699 -5.49902 6s-2 4.83301 -2 7.5v32c0 2.66699 -0.666992 5.16699 -2 7.5s-3 4.5 -5 6.5
s-4.33301 3.33301 -7 4s-5 1 -7 1h-292c-5.33301 0 -10.5 1.33301 -15.5 4s-9.5 6.16699 -13.5 10.5s-7.33301 9.16602 -10 14.499s-4 10.333 -4 15v641c0 4.66699 1.33301 9.16699 4 13.5s5.83398 8.33301 9.50098 12s7.83398 6.66699 12.501 9s9.33398 3.5 14.001 3.5z
" />
    <glyph glyph-name="R" unicode="R" horiz-adv-x="705" 
d="M45 25l-0.000976562 660.001c0 4 1 8.33301 3 13s4.66699 8.83398 8 12.501s7.16602 6.66699 11.499 9s8.5 3.5 12.5 3.5h450c4.66699 0 9.66699 -1.16699 15 -3.5s10.166 -5.33301 14.499 -9s7.83301 -8 10.5 -13s4 -9.83301 4 -14.5v-252
c0 -4.66699 1.33301 -8.5 4 -11.5s6.16699 -5.5 10.5 -7.5s9.16602 -3.66699 14.499 -5s10.833 -2.83301 16.5 -4.5s11.167 -3.5 16.5 -5.5s10 -4.83301 14 -8.5s7.33301 -8 10 -13s4 -11.5 4 -19.5v-336c0 -2 -0.333008 -4.16699 -1 -6.5s-1.5 -4.5 -2.5 -6.5
s-2.16699 -3.66699 -3.5 -5s-3 -2 -5 -2h-47c-2.66699 0 -5.16699 0.5 -7.5 1.5s-4.66602 2.33301 -6.99902 4s-4.16602 3.66699 -5.49902 6s-2 4.5 -2 6.5v282c0 2.66699 -1 5.5 -3 8.5s-4.5 5.5 -7.5 7.5s-6.16699 3.5 -9.5 4.5s-6.66602 1.5 -9.99902 1.5h-332
c-2.66699 0 -5.66699 -0.666992 -9 -2s-6.5 -3 -9.5 -5s-5.33301 -4.5 -7 -7.5s-2.5 -6.16699 -2.5 -9.5v-276c0 -2.66699 -0.833008 -5.33398 -2.5 -8.00098s-3.66699 -5 -6 -7s-5 -3.66699 -8 -5s-5.83301 -2 -8.5 -2h-97c-2.66699 0 -5.66699 0.666992 -9 2
s-6.16602 3.16602 -8.49902 5.49902s-4.33301 5 -6 8s-2.5 6.16699 -2.5 9.5zM148.999 634.001c-4 0 -7.33301 -1.33301 -10 -4s-4 -5.66699 -4 -9v-195c0 -3.33301 1.33301 -6.33301 4 -9s6 -4 10 -4h323c4 0 7.33301 1.33301 10 4s4 5.66699 4 9v195
c0 3.33301 -1.33301 6.33301 -4 9s-6 4 -10 4h-323z" />
    <glyph glyph-name="S" unicode="S" horiz-adv-x="685" 
d="M36 671c0 6 1.50098 11.9893 4.50098 17.9893s6.66699 11.5 11 16.5s9.5 9.16699 15.5 12.5s12 5 18 5h515c5.33301 0 10.666 -1.16699 15.999 -3.5s10.166 -5.5 14.499 -9.5s8 -8.5 11 -13.5s4.5 -9.83301 4.5 -14.5v-129c0 -2 -0.5 -4 -1.5 -6s-2.16699 -4 -3.5 -6
s-3 -3.5 -5 -4.5s-4 -1.5 -6 -1.5h-56c-2 0 -4 0.5 -6 1.5s-4 2.5 -6 4.5s-3.5 4 -4.5 6s-1.5 4 -1.5 6v72c0 2.66699 -0.666992 5.16699 -2 7.5s-3 4.33301 -5 6s-4.33301 3.16699 -7 4.5s-5 2 -7 2h-393c-2 0 -4 -0.666992 -6 -2s-3.83301 -3.16602 -5.5 -5.49902
s-2.83398 -4.66602 -3.50098 -6.99902s-1 -4.5 -1 -6.5v-211c0 -2.66699 1.33301 -5.16699 4 -7.5s5.33398 -3.5 8.00098 -3.5h462c5.33301 0 10.666 -1.33301 15.999 -4s10.166 -6.16699 14.499 -10.5s8 -9.33301 11 -15s4.5 -11.167 4.5 -16.5v-313
c0 -4.66699 -1.33301 -9.66699 -4 -15s-5.83398 -10 -9.50098 -14s-8 -7.33301 -13 -10s-9.83301 -4 -14.5 -4h-517c-6 0 -12.167 1.33301 -18.5 4s-12.166 6.33398 -17.499 11.001s-9.5 9.83398 -12.5 15.501s-4.5 11.167 -4.5 16.5v123
c0 2.66699 0.666992 5.33398 2 8.00098s3 5.33398 5 8.00098s4.33301 4.66699 7 6s5.33398 2 8.00098 2h46c2.66699 0 5.33398 -0.5 8.00098 -1.5s5 -2.5 7 -4.5s3.83301 -4.16699 5.5 -6.5s2.5 -4.83301 2.5 -7.5v-73c0 -2 0.5 -4.16699 1.5 -6.5s2.16699 -4.33301 3.5 -6
s3 -3 5 -4s4 -1.5 6 -1.5h341c2 0 4 0.333008 6 1s3.83301 1.83398 5.5 3.50098s3 3.33398 4 5.00098s1.5 3.5 1.5 5.5v206c0 2 -0.5 3.83301 -1.5 5.5s-2.16699 3.33398 -3.5 5.00098s-3 2.83398 -5 3.50098s-3.66699 1 -5 1h-402c-5.33301 0 -10.666 1.33301 -15.999 4
s-10.333 5.83398 -15 9.50098s-8.5 8 -11.5 13s-4.5 10.167 -4.5 15.5v310z" />
    <glyph glyph-name="T" unicode="T" horiz-adv-x="660" 
d="M39 724l562.999 0.000976562c4 0 8.16699 -0.833008 12.5 -2.5s8.33301 -4 12 -7s6.83398 -6.33301 9.50098 -10s4 -7.83398 4 -12.501v-93c0 -3.33301 -1 -6.66602 -3 -9.99902s-4.66699 -6.33301 -8 -9s-6.83301 -4.66699 -10.5 -6s-7.16699 -2 -10.5 -2h-201
c-3.33301 0 -7 -0.666992 -11 -2s-7.66699 -3 -11 -5s-6 -4.33301 -8 -7s-3 -5.66699 -3 -9v-523c0 -2.66699 -0.5 -5.5 -1.5 -8.5s-2.33301 -5.83301 -4 -8.5s-3.66699 -4.83398 -6 -6.50098s-4.83301 -2.5 -7.5 -2.5h-51c-3.33301 -0 -6.33301 0.833008 -9 2.5
s-5 3.83398 -7 6.50098s-3.66699 5.5 -5 8.5s-2 5.83301 -2 8.5v596c0 3.33301 -0.833008 6.66602 -2.5 9.99902s-3.66699 6.5 -6 9.5s-5 5.33301 -8 7s-6.16699 2.5 -9.5 2.5h-216c-2 0 -4.33301 0.5 -7 1.5s-5 2.16699 -7 3.5s-3.66699 3 -5 5s-2 4.33301 -2 7v38
c0 2.66699 0.666992 5 2 7s3 3.83301 5 5.5s4.33301 3 7 4s5 1.5 7 1.5z" />
    <glyph glyph-name="U" unicode="U" horiz-adv-x="715" 
d="M45 701c0 2.66699 0.667969 5.33301 2.00098 8s2.83301 5.16699 4.5 7.5s3.66699 4.16602 6 5.49902s4.83301 2 7.5 2h59c2 0 4 -0.5 6 -1.5s3.66699 -2.5 5 -4.5s2.5 -4 3.5 -6s1.5 -4 1.5 -6v-300c0 -2 0.666992 -4.5 2 -7.5s3 -6.16699 5 -9.5s4.5 -7 7.5 -11l9 -12.5
c3 -4.33301 5.83301 -8.83301 8.5 -13.5s5.16699 -9.5 7.5 -14.5s4.16602 -10 5.49902 -15s2 -10.167 2 -15.5v-197c0 -2.66699 0.666992 -5.33398 2 -8.00098s3 -5.16699 5 -7.5s4.33301 -4.16602 7 -5.49902s5.66699 -2 9 -2h342c2 0 4 0.5 6 1.5s3.83301 2.5 5.5 4.5
s3.16699 4 4.5 6s2 4 2 6v602c0 2.66699 0.5 4.83398 1.5 6.50098s2.33301 3.33398 4 5.00098s3.66699 3 6 4s4.5 1.5 6.5 1.5h52c2 0 4.5 -0.333008 7.5 -1s5.66699 -1.66699 8 -3s4.33301 -2.83301 6 -4.5s2.5 -3.83398 2.5 -6.50098v-657c0 -5.33301 -1 -11 -3 -17
s-4.83301 -11.5 -8.5 -16.5s-8 -9 -13 -12s-10.167 -4.5 -15.5 -4.5h-525c-6 0 -12.167 1 -18.5 3s-12 4.83301 -17 8.5s-9.33301 8 -13 13s-5.5 10.5 -5.5 16.5v658z" />
    <glyph glyph-name="V" unicode="V" horiz-adv-x="628" 
d="M66 723c3.33301 0 6.33203 -0.667969 8.99902 -2.00098s5.33398 -3.16602 8.00098 -5.49902s4.83398 -4.83301 6.50098 -7.5s3.16699 -5.33398 4.5 -8.00098l216 -596l217 593c0.666992 2.66699 1.83398 5.5 3.50098 8.5s3.5 5.83301 5.5 8.5
s4.16699 4.83398 6.5 6.50098s4.83301 2.5 7.5 2.5h47c2 0 4 -0.666992 6 -2s3.83301 -3.16602 5.5 -5.49902s3 -4.66602 4 -6.99902s1.83301 -4.83301 2.5 -7.5c0.666992 -1.33301 0.333984 -3.16602 -0.999023 -5.49902s-2.33301 -4.5 -3 -6.5l-236 -654l-4.5 -11
c-1.66699 -4 -3.5 -7.83301 -5.5 -11.5s-4.5 -6.66699 -7.5 -9s-6.16699 -3.5 -9.5 -3.5h-70c-3.33301 0 -6.5 0.833008 -9.5 2.5s-5.83301 3.66699 -8.5 6s-4.83398 5.16602 -6.50098 8.49902l-4.5 9l-239 657c-0.666992 3.33301 -1.83398 6.66602 -3.50098 9.99902
s-1.83398 6.66602 -0.500977 9.99902c0.666992 2 1.5 4.16699 2.5 6.5s2.16699 4.5 3.5 6.5s2.83301 3.66699 4.5 5s3.5 2 5.5 2h44z" />
    <glyph glyph-name="W" unicode="W" horiz-adv-x="805" 
d="M754 700l-0.00195312 -662c0 -4.66699 -1.5 -9.33398 -4.5 -14.001s-6.83301 -8.66699 -11.5 -12s-9.66699 -6.16602 -15 -8.49902s-10.333 -3.5 -15 -3.5h-247c-5.33301 -0 -10.833 0.833008 -16.5 2.5s-10.667 4.33398 -15 8.00098s-8 8.16699 -11 13.5
s-4.5 11.666 -4.5 18.999c0 -7.33301 -1.5 -13.666 -4.5 -18.999s-6.66699 -9.83301 -11 -13.5s-9.16602 -6.33398 -14.499 -8.00098s-10.666 -2.5 -15.999 -2.5h-285c-4 0 -8.33301 1.16699 -13 3.5s-8.83398 5.16602 -12.501 8.49902s-6.66699 7.16602 -9 11.499
s-3.5 8.83301 -3.5 13.5v663c0 2 0.333008 4.33301 1 7s1.5 5.16699 2.5 7.5s2.5 4.33301 4.5 6s4 2.5 6 2.5h57c2 0 4.16699 -0.666992 6.5 -2s4.33301 -2.83301 6 -4.5s3 -3.5 4 -5.5s1.5 -4 1.5 -6v-299c0 -5.33301 0.833008 -10.666 2.5 -15.999s4 -10.666 7 -15.999
s6.5 -10.666 10.5 -15.999s7.83301 -10.833 11.5 -16.5l11 -17c3.66699 -5.66699 7 -11.5 10 -17.5s5.5 -12 7.5 -18s3 -12 3 -18v-168c0 -2.66699 0.333008 -5.33398 1 -8.00098s1.83398 -5.16699 3.50098 -7.5s3.5 -4.16602 5.5 -5.49902s4.33301 -2 7 -2h122
c4.66699 0 9.16699 1.16699 13.5 3.5s8.33301 5.66602 12 9.99902s6.5 8.83301 8.5 13.5s3 9.33398 3 14.001v580c0 2.66699 0.5 5.16699 1.5 7.5s2.16699 4.66602 3.5 6.99902s3 4.16602 5 5.49902s4.33301 2 7 2h41c2.66699 0 5.5 -0.666992 8.5 -2
s5.83301 -3.16602 8.5 -5.49902s4.66699 -4.83301 6 -7.5s2 -5.33398 2 -8.00098v-581c0 -4 1.16699 -8.33301 3.5 -13s5.16602 -9 8.49902 -13s7.16602 -7.16699 11.499 -9.5s8.83301 -3.5 13.5 -3.5h151c2.66699 0 5.33398 0.833008 8.00098 2.5s5 3.83398 7 6.50098
s3.5 5.66699 4.5 9s1.5 6.33301 1.5 9v594c0 6.66699 0.666992 11.5 2 14.5s3 5 5 6s3.83301 1.5 5.5 1.5h4.5h49c2.66699 0 5.33398 -0.666992 8.00098 -2s5 -3.16602 7 -5.49902s3.83301 -4.83301 5.5 -7.5s2.5 -5.33398 2.5 -8.00098z" />
    <glyph glyph-name="X" unicode="X" horiz-adv-x="680" 
d="M24 700c0 2.66699 0.498047 5.50098 1.49805 8.50098s2.5 5.66699 4.5 8s4.33301 4.16602 7 5.49902s5.33398 2 8.00098 2h51c2 0 4 -0.5 6 -1.5s3.83301 -2.33301 5.5 -4s3 -3.66699 4 -6s1.5 -4.5 1.5 -6.5v-92c0 -4.66699 1.33301 -9.16699 4 -13.5
s5.66699 -8.16602 9 -11.499l210 -174l136 126c4.66699 4 9 8.33301 13 13s7.5 9.66699 10.5 15s5.5 10.833 7.5 16.5s3 11.5 3 17.5v94c0 3.33301 0.833008 6.5 2.5 9.5s3.83398 5.83301 6.50098 8.5s5.5 4.83398 8.5 6.50098s6.16699 2.5 9.5 2.5h85
c3.33301 0 6.83301 -0.5 10.5 -1.5s7 -2.66699 10 -5s5.66699 -5 8 -8s3.5 -6.16699 3.5 -9.5v-77c0 -6.66699 -1.16699 -13.334 -3.5 -20.001s-5.83301 -12.334 -10.5 -17.001l-239 -225l233 -194c2 -1.33301 4.16699 -3.16602 6.5 -5.49902s4.5 -4.83301 6.5 -7.5
s3.66699 -5.5 5 -8.5s2 -5.83301 2 -8.5v-116c0 -2 -0.5 -4.33301 -1.5 -7s-2.33301 -5 -4 -7s-3.66699 -3.66699 -6 -5s-4.83301 -2 -7.5 -2h-55c-2.66699 0 -5.33398 0.833008 -8.00098 2.5s-5.16699 3.66699 -7.5 6s-4.16602 5.16602 -5.49902 8.49902s-2 6.33301 -2 9
v83c0 4 -1 8.16699 -3 12.5s-4.33301 7.83301 -7 10.5l-207 176l-145 -141c-4.66699 -4 -8.5 -8.83301 -11.5 -14.5s-4.5 -11.5 -4.5 -17.5v-114c0 -2.66699 -0.666992 -5.16699 -2 -7.5s-3.16602 -4.66602 -5.49902 -6.99902s-4.83301 -4 -7.5 -5
s-5.33398 -1.5 -8.00098 -1.5h-101c-2.66699 0 -5.66699 0.666992 -9 2s-6.33301 3.16602 -9 5.49902s-4.83398 5 -6.50098 8s-2.5 5.83301 -2.5 8.5v74c0 6 1.33301 12.167 4 18.5s6.33398 11.5 11.001 15.5l236 225l-237 206c-3.33301 2.66699 -6.5 5.66699 -9.5 9
s-4.5 7 -4.5 11v117z" />
    <glyph glyph-name="Y" unicode="Y" horiz-adv-x="655" 
d="M24 698c0 2.66699 0.49707 5.66699 1.49707 9s2.33301 6.16602 4 8.49902s3.83398 4.33301 6.50098 6s5.33398 2.5 8.00098 2.5h46c2 0 4.16699 -0.833008 6.5 -2.5s4.16602 -3.83398 5.49902 -6.50098s2.33301 -5.5 3 -8.5s1 -5.83301 1 -8.5v-267
c0 -2 0.5 -4.16699 1.5 -6.5s2.16699 -4.33301 3.5 -6s3 -3.16699 5 -4.5s4 -2 6 -2h405c2 0 4 0.5 6 1.5s3.83301 2.16699 5.5 3.5s3 3 4 5s1.5 4 1.5 6v278c0 2 0.5 4 1.5 6s2.16699 3.83301 3.5 5.5s3 3 5 4s4 1.5 6 1.5h47c2.66699 0 5 -0.666992 7 -2
s3.83301 -3.16602 5.5 -5.49902s3 -4.83301 4 -7.5s1.5 -5.33398 1.5 -8.00098v-326c0 -5.33301 -1.16699 -10.5 -3.5 -15.5s-5.66602 -9.66699 -9.99902 -14s-9 -7.66602 -14 -9.99902s-10.167 -3.5 -15.5 -3.5h-171c-2 0 -3.83301 -0.666992 -5.5 -2
s-3.33398 -2.83301 -5.00098 -4.5s-2.83398 -3.33398 -3.50098 -5.00098s-1 -3.5 -1 -5.5v-291c0 -2.66699 -0.666992 -5.5 -2 -8.5s-3.16602 -5.5 -5.49902 -7.5s-4.83301 -3.66699 -7.5 -5s-5.33398 -2 -8.00098 -2h-95c-3.33301 0 -6.5 0.833008 -9.5 2.5
s-5.5 3.83398 -7.5 6.50098s-3.83301 5.66699 -5.5 9s-2.5 6.33301 -2.5 9v282c0 2.66699 -0.666992 5.33398 -2 8.00098s-3 5 -5 7s-4.16699 3.66699 -6.5 5s-4.83301 2 -7.5 2h-155c-5.33301 0 -11.166 1 -17.499 3s-12.166 5 -17.499 9s-9.66602 8.5 -12.999 13.5
s-5 10.167 -5 15.5v326z" />
    <glyph glyph-name="Z" unicode="Z" horiz-adv-x="665" 
d="M24 697c0 2.66699 0.825195 5.49707 2.49219 8.49707s3.83398 5.66699 6.50098 8s5.66699 4.16602 9 5.49902s6.33301 2 9 2h541c4.66699 0 9.83398 -0.5 15.501 -1.5s11 -2.83301 16 -5.5s8.83301 -5.83398 11.5 -9.50098s3.66699 -8.16699 3 -13.5
c-0.666992 -3.33301 -1 -6.83301 -1 -10.5v-11.5c0 -4 -0.5 -7.66699 -1.5 -11s-2.5 -6.33301 -4.5 -9l-500 -568h409c2.66699 0 5.33398 1.33301 8.00098 4s4 5.66699 4 9v81c0 2 0.333008 3.83301 1 5.5s1.66699 3.33398 3 5.00098s2.83301 2.83398 4.5 3.50098
s3.5 1 5.5 1h52c2 0 3.83301 -0.5 5.5 -1.5s3 -2.5 4 -4.5s1.83301 -4 2.5 -6s1 -4 1 -6v-142c0 -3.33301 -0.666992 -6.66602 -2 -9.99902s-3.16602 -6.5 -5.49902 -9.5s-5.16602 -5.5 -8.49902 -7.5s-6.66602 -3 -9.99902 -3h-538c-4.66699 0 -9.66699 1 -15 3
s-10 4.66699 -14 8s-7.33301 7.33301 -10 12s-4 9.33398 -4 14.001v103v10.5c0 3.66699 0.5 7.33398 1.5 11.001s2.16699 7.16699 3.5 10.5s3.33301 6.33301 6 9l205 223c3.33301 4 7.66602 7.66699 12.999 11s11 6.33301 17 9s12.333 5.16699 19 7.5l20.5 7
c7 2.33301 14 4.83301 21 7.5s13.833 5.66699 20.5 9s12.834 7 18.501 11s10.834 8.66699 15.501 14l145 163h-408c-3.33301 0 -6.5 -1 -9.5 -3s-4.5 -4.66699 -4.5 -8v-68c0 -2 -0.333008 -4.33301 -1 -7s-1.5 -5.16699 -2.5 -7.5s-2.5 -4.33301 -4.5 -6s-4 -2.5 -6 -2.5
h-53c-2 0 -4.16699 0.666992 -6.5 2s-4.16602 2.83301 -5.49902 4.5s-2.5 3.66699 -3.5 6s-1.5 4.5 -1.5 6.5v137z" />
    <glyph glyph-name="bracketleft" unicode="[" horiz-adv-x="265" 
d="M48 698c0 2.66699 0.666016 5.50195 1.99902 8.50195s3 5.83301 5 8.5s4.5 4.66699 7.5 6s5.83301 2 8.5 2h125c2 0 4.16699 -0.166992 6.5 -0.5s4.66602 -1 6.99902 -2s4.16602 -2.33301 5.49902 -4s2 -3.5 2 -5.5v-49c0 -1.33301 -0.5 -3 -1.5 -5
s-2.16699 -3.66699 -3.5 -5s-3 -2.5 -5 -3.5s-4 -1.5 -6 -1.5h-52c-2 0 -4.33301 -0.5 -7 -1.5s-5.16699 -2.16699 -7.5 -3.5s-4.16602 -3.16602 -5.49902 -5.49902s-2 -4.5 -2 -6.5v-532c0 -2 0.5 -4.16699 1.5 -6.5s2.33301 -4.5 4 -6.5s3.5 -3.66699 5.5 -5s4 -2 6 -2h52
c2 0 4 -0.333008 6 -1s3.83301 -1.33398 5.5 -2.00098s3.16699 -1.66699 4.5 -3s2 -3 2 -5v-51c0 -2 -0.5 -4 -1.5 -6s-2.16699 -3.83301 -3.5 -5.5s-3 -2.83398 -5 -3.50098s-4 -1 -6 -1h-123c-3.33301 0 -6.66602 0.666992 -9.99902 2s-6.16602 3.16602 -8.49902 5.49902
s-4.33301 5 -6 8s-2.5 6.16699 -2.5 9.5v673z" />
    <glyph glyph-name="backslash" unicode="\" horiz-adv-x="405" 
d="M45 726l39.999 0.00195312c5.33301 0 10.5 -1.83301 15.5 -5.5s8.83301 -8.16699 11.5 -13.5l343 -756c2 -4 3.33301 -8.33301 4 -13s0.5 -9.16699 -0.5 -13.5s-3.33301 -7.83301 -7 -10.5s-9.16699 -4 -16.5 -4h-90c-4.66699 0 -9.16699 0.666992 -13.5 2
s-8.5 3.16602 -12.5 5.49902s-7.66699 5.16602 -11 8.49902s-5.66602 7 -6.99902 11l-104 217c-2.66699 6 -4.16699 11.833 -4.5 17.5s0 11.5 1 17.5s2.5 12.167 4.5 18.5l6 18.5c2 6 4.16699 12.167 6.5 18.5s4 12.5 5 18.5s1.33301 11.833 1 17.5s-1.83301 11.5 -4.5 17.5
l-184 408c-0.666992 2 -0.5 4.16699 0.5 6.5s2.33301 4.5 4 6.5s3.66699 3.66699 6 5s4.5 2 6.5 2z" />
    <glyph glyph-name="bracketright" unicode="]" horiz-adv-x="265" 
d="M217 698l0.00292969 -673.002c0 -3.33301 -0.833008 -6.5 -2.5 -9.5s-3.83398 -5.66699 -6.50098 -8s-5.66699 -4.16602 -9 -5.49902s-6.33301 -2 -9 -2h-124c-2 0 -3.83301 0.333008 -5.5 1s-3.33398 1.83398 -5.00098 3.50098s-3 3.5 -4 5.5s-1.5 4 -1.5 6v51
c0 2 0.666992 3.66699 2 5s2.83301 2.33301 4.5 3s3.5 1.33398 5.5 2.00098s4 1 6 1h52c2 0 4.16699 0.666992 6.5 2s4.16602 3 5.49902 5s2.5 4.16699 3.5 6.5s1.5 4.5 1.5 6.5v532c0 2 -0.666992 4.16699 -2 6.5s-3.16602 4.16602 -5.49902 5.49902
s-4.66602 2.5 -6.99902 3.5s-4.83301 1.5 -7.5 1.5h-52c-2 0 -3.83301 0.5 -5.5 1.5s-3.33398 2.16699 -5.00098 3.5s-2.83398 3 -3.50098 5s-1 3.66699 -1 5v49c0 2 0.666992 3.83301 2 5.5s3 3 5 4s4.16699 1.66699 6.5 2s4.5 0.5 6.5 0.5h125
c2.66699 0 5.5 -0.666992 8.5 -2s5.5 -3.33301 7.5 -6s3.83301 -5.5 5.5 -8.5s2.5 -5.83301 2.5 -8.5z" />
    <glyph glyph-name="asciicircum" unicode="^" horiz-adv-x="1024" 
d="M461 729h94l253 -277h-90l-210 209l-210 -209h-90z" />
    <glyph glyph-name="underscore" unicode="_" horiz-adv-x="512" 
d="M0 -169h509v-71h-509v71z" />
    <glyph glyph-name="grave" unicode="`" horiz-adv-x="512" 
d="M218 670c2.66699 0 5.66504 -0.667969 8.99805 -2.00098s5.66602 -3 6.99902 -5l85 -119c0.666992 -1.33301 0.333984 -3.16602 -0.999023 -5.49902s-2.66602 -3.5 -3.99902 -3.5h-29c-4.66699 0 -9 0.833008 -13 2.5s-7.66699 4.16699 -11 7.5l-119 115
c-0.666992 0.666992 -1 1.66699 -1 3s0.166992 2.5 0.5 3.5s0.833008 1.83301 1.5 2.5s1.33398 1 2.00098 1h73z" />
    <glyph glyph-name="a" unicode="a" horiz-adv-x="530" 
d="M38 298c0 5.33301 1.33203 10.3301 3.99902 14.9971s6.16699 8.83398 10.5 12.501s9 6.5 14 8.5s9.83301 3 14.5 3h302c2.66699 0 5 1 7 3s3 4.33301 3 7v59c0 2.66699 -1.66699 5.16699 -5 7.5s-6.33301 3.5 -9 3.5h-321c-2 0 -4.16699 0.333008 -6.5 1
s-4.5 1.83398 -6.5 3.50098s-3.66699 3.33398 -5 5.00098s-2 3.5 -2 5.5v47c0 2 0.666992 4.16699 2 6.5s3 4.33301 5 6s4.33301 3.16699 7 4.5s5 2 7 2h380c4 0 8.16699 -1.16699 12.5 -3.5s8.33301 -5.33301 12 -9s6.5 -7.66699 8.5 -12s3 -8.5 3 -12.5v-356
c0 -2.66699 0.5 -5.16699 1.5 -7.5s2.16699 -4.5 3.5 -6.5s2.83301 -3.5 4.5 -4.5s3.83398 -1.5 6.50098 -1.5h25c2 0 4.16699 -0.5 6.5 -1.5s4.5 -2.33301 6.5 -4s3.66699 -3.5 5 -5.5s2 -4 2 -6v-48c0 -2.66699 -0.833008 -5.16699 -2.5 -7.5s-3.83398 -4.5 -6.50098 -6.5
s-5.5 -3.5 -8.5 -4.5s-5.83301 -1.5 -8.5 -1.5h-428c-4.66699 0 -9.66699 1.16699 -15 3.5s-10.166 5.33301 -14.499 9s-7.83301 8 -10.5 13s-4 9.83301 -4 14.5v258zM198.999 254.997c-4 0 -7.5 -1.5 -10.5 -4.5s-4.5 -6.5 -4.5 -10.5v-137c0 -4 1.5 -7.5 4.5 -10.5
s6.5 -4.5 10.5 -4.5h178c4 0 7.5 1.5 10.5 4.5s4.5 6.5 4.5 10.5v137c0 4 -1.5 7.5 -4.5 10.5s-6.5 4.5 -10.5 4.5h-178z" />
    <glyph glyph-name="b" unicode="b" horiz-adv-x="548" 
d="M43 701c0 2.66699 0.664062 5.33398 1.99707 8.00098s3.16602 5 5.49902 7s4.83301 3.66699 7.5 5s5.33398 2 8.00098 2h48c2 0 4.16699 -0.5 6.5 -1.5s4.5 -2.16699 6.5 -3.5s3.66699 -3 5 -5s2 -4.33301 2 -7v-228c8 5.33301 17.167 9.83301 27.5 13.5
s20.5 5.5 30.5 5.5h272c4 0 8.33301 -1 13 -3s8.83398 -4.83301 12.501 -8.5s6.66699 -7.5 9 -11.5s3.5 -8.33301 3.5 -13v-415c0 -5.33301 -1.33301 -10.833 -4 -16.5s-6.16699 -10.667 -10.5 -15s-9.16602 -7.83301 -14.499 -10.5s-10.666 -4 -15.999 -4h-362
c-6 0 -12 1.16699 -18 3.5s-11.5 5.33301 -16.5 9s-9.16699 8.16699 -12.5 13.5s-5 10.666 -5 15.999v659zM214.997 414c-5.33301 0 -10 -2 -14 -6s-6 -8.66699 -6 -14v-291c0 -6 2 -11 6 -15s8.66699 -6 14 -6h171c6 0 11 2 15 6s6 9 6 15v291c0 5.33301 -2 10 -6 14
s-9 6 -15 6h-171z" />
    <glyph glyph-name="c" unicode="c" horiz-adv-x="535" 
d="M43 448c0 5.33301 1.00098 10.8311 3.00098 16.498s4.83301 10.834 8.5 15.501s7.83398 8.66699 12.501 12s9.66699 5 15 5h375c4 0 8.33301 -1 13 -3s9 -4.5 13 -7.5s7.16699 -6.5 9.5 -10.5s3.5 -8 3.5 -12v-87c0 -3.33301 -0.833008 -6.33301 -2.5 -9
s-3.66699 -5.16699 -6 -7.5s-5 -4.33301 -8 -6s-6.16699 -2.5 -9.5 -2.5h-108c-2.66699 0 -5.5 0.5 -8.5 1.5s-5.83301 2.16699 -8.5 3.5s-5 3 -7 5s-3 4.33301 -3 7v34c0 2 -0.333008 3.66699 -1 5s-1.66699 2.66602 -3 3.99902s-2.83301 2.5 -4.5 3.5s-3.5 1.5 -5.5 1.5
h-167c-2 0 -3.83301 -0.5 -5.5 -1.5s-3.33398 -2.16699 -5.00098 -3.5s-2.83398 -2.83301 -3.50098 -4.5s-1 -3.5 -1 -5.5v-303c0 -2 0.5 -3.83301 1.5 -5.5s2.33301 -3.33398 4 -5.00098s3.5 -3 5.5 -4s4 -1.5 6 -1.5h240c2 0 4 1.33301 6 4s3 5 3 7v44
c0 1.33301 0.333008 3 1 5s1.66699 3.66699 3 5s2.83301 2.5 4.5 3.5s3.5 1.5 5.5 1.5h57c2.66699 0 5.16699 -0.5 7.5 -1.5s4.33301 -2.33301 6 -4s3.16699 -3.66699 4.5 -6s2 -4.5 2 -6.5v-100c0 -4 -0.833008 -8 -2.5 -12s-4 -7.66699 -7 -11
s-6.16699 -6.16602 -9.5 -8.49902s-7 -3.5 -11 -3.5h-379c-6 0 -11.667 1.83301 -17 5.5s-10 8.33398 -14 14.001s-7.16699 11.834 -9.5 18.501s-3.5 13 -3.5 19v391z" />
    <glyph glyph-name="d" unicode="d" horiz-adv-x="548" 
d="M502 701l-0.00195312 -659c0 -5.33301 -1.66699 -10.666 -5 -15.999s-7.5 -9.83301 -12.5 -13.5s-10.5 -6.66699 -16.5 -9s-11.667 -3.5 -17 -3.5h-363c-5.33301 0 -10.666 1.33301 -15.999 4s-10.166 6.16699 -14.499 10.5s-7.83301 9.33301 -10.5 15s-4 11.167 -4 16.5
v415c0 4.66699 1.16699 9 3.5 13s5.5 7.83301 9.5 11.5s8.16699 6.5 12.5 8.5s8.83301 3 13.5 3h271c10 0 20.167 -1.83301 30.5 -5.5s19.5 -8.16699 27.5 -13.5v228c0 2.66699 0.666992 5 2 7s3 3.66699 5 5s4.16699 2.5 6.5 3.5s4.83301 1.5 7.5 1.5h47
c2.66699 0 5.33398 -0.666992 8.00098 -2s5.16699 -3 7.5 -5s4.16602 -4.33301 5.49902 -7s2 -5.33398 2 -8.00098zM385.998 414h-171c-5.33301 0 -10 -2 -14 -6s-6 -8.66699 -6 -14v-291c0 -6 2 -11 6 -15s8.66699 -6 14 -6h171c6 0 11 2 15 6s6 9 6 15v291
c0 5.33301 -2 10 -6 14s-9 6 -15 6z" />
    <glyph glyph-name="e" unicode="e" horiz-adv-x="540" 
d="M43 466c0 4 1.16309 7.99902 3.49609 11.999s5.5 7.5 9.5 10.5s8.16699 5.33301 12.5 7s8.83301 2.5 13.5 2.5h383c4 0 8.33301 -1 13 -3s8.83398 -4.5 12.501 -7.5s6.83398 -6.66699 9.50098 -11s4 -8.83301 4 -13.5v-195c0 -3.33301 -1 -6.5 -3 -9.5
s-4.5 -5.83301 -7.5 -8.5s-6.16699 -4.83398 -9.5 -6.50098s-6.66602 -2.5 -9.99902 -2.5h-275c-3.33301 0 -6.33301 -1.33301 -9 -4s-4 -5.66699 -4 -9v-137c0 -2 0.833008 -4.16699 2.5 -6.5s3.83398 -3.5 6.50098 -3.5h207c2 0 4.16699 1.16699 6.5 3.5s3.5 4.5 3.5 6.5
v50c0 2.66699 1.33301 5.33398 4 8.00098s5.33398 4 8.00098 4h65c2 0 3.83301 -0.333008 5.5 -1s3.16699 -1.66699 4.5 -3s2.5 -2.83301 3.5 -4.5s1.5 -3.5 1.5 -5.5v-110c0 -3.33301 -1 -6.66602 -3 -9.99902s-4.33301 -6.5 -7 -9.5s-5.66699 -5.33301 -9 -7
s-6.66602 -2.5 -9.99902 -2.5h-393c-4.66699 0 -9.33398 1 -14.001 3s-8.83398 4.5 -12.501 7.5s-6.66699 6.66699 -9 11s-3.5 8.5 -3.5 12.5v432zM194.996 419.999c-2.66699 0 -4.83398 -1 -6.50098 -3s-2.5 -4 -2.5 -6v-83c0 -2.66699 0.833008 -4.83398 2.5 -6.50098
s3.83398 -2.5 6.50098 -2.5h206c2 0 4 0.833008 6 2.5s3 3.83398 3 6.50098v83c0 2 -1 4 -3 6s-4 3 -6 3h-206z" />
    <glyph glyph-name="f" unicode="f" horiz-adv-x="335" 
d="M80 416l-60.998 0.000976562c-2 0 -4.16699 0.5 -6.5 1.5s-4.33301 2.16699 -6 3.5s-3 3 -4 5s-1.5 4 -1.5 6v52c0 2 0.5 3.83301 1.5 5.5s2.33301 3.16699 4 4.5s3.5 2.33301 5.5 3s3.66699 1 5 1h63v197c0 4 1.33301 7.66699 4 11s6 6.16602 10 8.49902
s8.33301 4.16602 13 5.49902s9 2 13 2h311c3.33301 0 6.5 -0.666992 9.5 -2s5.83301 -3.16602 8.5 -5.49902s4.83398 -4.83301 6.50098 -7.5s2.5 -5.33398 2.5 -8.00098v-95c0 -1.33301 -0.333008 -2.83301 -1 -4.5s-1.83398 -3.16699 -3.50098 -4.5
s-3.33398 -2.5 -5.00098 -3.5s-3.5 -1.5 -5.5 -1.5h-62c-1.33301 0 -3 0.5 -5 1.5s-3.66699 2.16699 -5 3.5s-2.5 2.83301 -3.5 4.5s-1.5 3.16699 -1.5 4.5v38h-143v-144h76c2 0 4.33301 -0.333008 7 -1s5 -1.83398 7 -3.50098s3.66699 -3.5 5 -5.5s2 -4 2 -6v-47
c0 -2 -0.666992 -4.16699 -2 -6.5s-2.83301 -4.5 -4.5 -6.5s-3.66699 -3.5 -6 -4.5s-4.83301 -1.5 -7.5 -1.5h-77v-15c0 -5.33301 -0.666992 -10.666 -2 -15.999s-3.33301 -10.5 -6 -15.5s-5.5 -10 -8.5 -15s-6.16699 -10 -9.5 -15l-10 -15
c-3.33301 -5 -6.16602 -10 -8.49902 -15s-4.33301 -10.167 -6 -15.5s-2.5 -11 -2.5 -17v-257c0 -2 -0.333008 -4.16699 -1 -6.5s-1.83398 -4.66602 -3.50098 -6.99902s-3.5 -4 -5.5 -5s-4 -1.5 -6 -1.5h-50c-2.66699 0 -5.33398 0.5 -8.00098 1.5s-5.16699 2.33301 -7.5 4
s-4.33301 3.66699 -6 6s-2.5 4.83301 -2.5 7.5v397z" />
    <glyph glyph-name="g" unicode="g" horiz-adv-x="540" 
d="M42 465c0 4 1.16602 8 3.49902 12s5.33301 7.5 9 10.5s7.83398 5.33301 12.501 7s9 2.5 13 2.5h426c2 0 4 -0.5 6 -1.5s3.66699 -2.5 5 -4.5s2.33301 -4 3 -6s1 -4 1 -6v-44c0 -2 -0.333008 -4 -1 -6s-1.5 -3.83301 -2.5 -5.5s-2.33301 -3 -4 -4s-3.16699 -1.5 -4.5 -1.5
h-60v-253c0 -2.66699 -0.5 -5.33398 -1.5 -8.00098s-2.66699 -5.16699 -5 -7.5s-4.66602 -4.16602 -6.99902 -5.49902s-4.83301 -2 -7.5 -2h-224v-79h238c3.33301 0 6.83301 -0.833008 10.5 -2.5s6.83398 -4 9.50098 -7s4.83398 -6.33301 6.50098 -10
s2.5 -7.16699 2.5 -10.5v-224c0 -3.33301 -0.666992 -7 -2 -11s-3.33301 -7.5 -6 -10.5s-5.83398 -5.5 -9.50098 -7.5s-7.16699 -3 -10.5 -3h-368c-3.33301 0 -7 0.666992 -11 2s-7.66699 3.33301 -11 6s-6 5.66699 -8 9s-3 6.66602 -3 9.99902v230
c0 4 1.16699 7.66699 3.5 11s5.16602 6.33301 8.49902 9s7.16602 4.83398 11.499 6.50098s8.5 2.5 12.5 2.5h41v79h-45c-3.33301 0 -6.83301 0.5 -10.5 1.5s-7.16699 2.66699 -10.5 5s-6 4.83301 -8 7.5s-3 5.66699 -3 9v300zM148.999 417c-4 0 -7.16699 -1.33301 -9.5 -4
s-3.5 -5.66699 -3.5 -9v-168c0 -3.33301 1.16699 -6.33301 3.5 -9s5.5 -4 9.5 -4h198c3.33301 0 6.16602 1.33301 8.49902 4s3.5 5.66699 3.5 9v168c0 3.33301 -1.16699 6.33301 -3.5 9s-5.16602 4 -8.49902 4h-198zM198.999 -9c-2.66699 0 -5.16699 -0.833008 -7.5 -2.5
s-3.5 -3.83398 -3.5 -6.50098v-121c0 -2.66699 1.16699 -4.83398 3.5 -6.50098s4.83301 -2.5 7.5 -2.5h172c3.33301 0 6.16602 0.833008 8.49902 2.5s3.5 3.83398 3.5 6.50098v121c0 2.66699 -1.16699 4.83398 -3.5 6.50098s-5.16602 2.5 -8.49902 2.5h-172z" />
    <glyph glyph-name="h" unicode="h" horiz-adv-x="540" 
d="M42 23l0.00195312 677.995c0 2.66699 0.5 5.33398 1.5 8.00098s2.33301 5 4 7s3.66699 3.66699 6 5s4.83301 2 7.5 2h49c2.66699 0 5 -0.666992 7 -2s3.83301 -3.16602 5.5 -5.49902s3 -4.66602 4 -6.99902s1.5 -4.83301 1.5 -7.5v-186c0 -2 0.5 -4.16699 1.5 -6.5
s2.5 -4.33301 4.5 -6s4.16699 -3 6.5 -4s4.5 -1.5 6.5 -1.5h299c5.33301 0 10.666 -1.33301 15.999 -4s10.166 -6.16699 14.499 -10.5s7.83301 -9.16602 10.5 -14.499s4 -10.666 4 -15.999v-432c0 -2.66699 -0.666992 -5.16699 -2 -7.5s-3.16602 -4.5 -5.49902 -6.5
s-4.83301 -3.5 -7.5 -4.5s-5 -1.5 -7 -1.5h-49c-2.66699 0 -5.33398 0.5 -8.00098 1.5s-5.16699 2.5 -7.5 4.5s-4.16602 4.16699 -5.49902 6.5s-2 4.83301 -2 7.5v379c0 2 -0.5 3.83301 -1.5 5.5s-2.33301 3.16699 -4 4.5s-3.33398 2.33301 -5.00098 3s-3.5 1 -5.5 1h-177
c-2 0 -4.16699 -0.5 -6.5 -1.5s-4.33301 -2.33301 -6 -4s-3 -3.66699 -4 -6s-1.5 -4.5 -1.5 -6.5v-372c0 -2.66699 -0.666992 -5.5 -2 -8.5s-3.16602 -5.5 -5.49902 -7.5s-4.83301 -3.66699 -7.5 -5s-5.33398 -2 -8.00098 -2h-98c-2.66699 0 -5.33398 0.666992 -8.00098 2
s-5.16699 3 -7.5 5s-4.16602 4.5 -5.49902 7.5s-2 5.83301 -2 8.5z" />
    <glyph glyph-name="i" unicode="i" horiz-adv-x="225" 
d="M57 497l58.9971 -0.000976562c2 0 4 -0.5 6 -1.5s3.66699 -2.33301 5 -4s2.5 -3.5 3.5 -5.5s1.5 -4 1.5 -6v-141c0 -3.33301 0.833008 -7.5 2.5 -12.5s3.83398 -10.333 6.50098 -16s5.66699 -11.667 9 -18s6.83301 -12.5 10.5 -18.5l11 -18
c3.66699 -6 6.83398 -11.667 9.50098 -17s4.83398 -10.166 6.50098 -14.499s2.5 -7.83301 2.5 -10.5v-191c0 -2.66699 -0.666992 -5.33398 -2 -8.00098s-3 -5.16699 -5 -7.5s-4.16699 -4.16602 -6.5 -5.49902s-4.83301 -2 -7.5 -2h-98c-2.66699 0 -5.83398 0.5 -9.50098 1.5
s-6.83398 2.66699 -9.50098 5s-5 4.83301 -7 7.5s-3 5.66699 -3 9v456c0 2 0.333008 4 1 6s1.83398 4 3.50098 6s3.33398 3.5 5.00098 4.5s3.5 1.5 5.5 1.5zM85.9971 564.999c-7.33301 0 -14.333 1.5 -21 4.5s-12.334 6.83301 -17.001 11.5s-8.5 10.334 -11.5 17.001
s-4.5 13.334 -4.5 20.001c0 7.33301 1.5 14.333 4.5 21s6.83301 12.334 11.5 17.001s10.334 8.5 17.001 11.5s13.667 4.5 21 4.5c6.66699 0 13.334 -1.5 20.001 -4.5s12.334 -6.83301 17.001 -11.5s8.5 -10.334 11.5 -17.001s4.5 -13.667 4.5 -21
c0 -6.66699 -1.5 -13.334 -4.5 -20.001s-6.83301 -12.334 -11.5 -17.001s-10.334 -8.5 -17.001 -11.5s-13.334 -4.5 -20.001 -4.5z" />
    <glyph glyph-name="j" unicode="j" horiz-adv-x="225" 
d="M165 497c2 0 3.82715 -0.499023 5.49414 -1.49902s3.33398 -2.5 5.00098 -4.5s2.83398 -4 3.50098 -6s1 -4 1 -6v-680c0 -3.33301 -0.833008 -6.33301 -2.5 -9s-4 -5.16699 -7 -7.5s-6.16699 -4 -9.5 -5s-6.66602 -1.5 -9.99902 -1.5h-323
c-2.66699 0 -5.33398 1 -8.00098 3s-5.16699 4.66699 -7.5 8s-4.16602 6.66602 -5.49902 9.99902s-2 6 -2 8v89c0 1.33301 0.5 3 1.5 5s2.16699 3.66699 3.5 5s3 2.5 5 3.5s3.66699 1.5 5 1.5h62c2 0 3.83301 -0.666992 5.5 -2s3.16699 -2.66602 4.5 -3.99902
s2.33301 -3 3 -5s1 -4 1 -6v-35h137v357c0 2.66699 0.833008 6.16699 2.5 10.5s3.83398 9.16602 6.50098 14.499s5.66699 11 9 17l10.5 18c3.66699 6 7.16699 12.167 10.5 18.5s6.33301 12.333 9 18s4.83398 11 6.50098 16s2.5 9.16699 2.5 12.5v141c0 2 0.5 4 1.5 6
s2.33301 3.83301 4 5.5s3.33398 3 5.00098 4s3.5 1.5 5.5 1.5h59zM136.994 565.001c-7.33301 0 -14.333 1.5 -21 4.5s-12.334 6.83301 -17.001 11.5s-8.33398 10.334 -11.001 17.001s-4 13.334 -4 20.001c0 7.33301 1.33301 14.333 4 21s6.33398 12.334 11.001 17.001
s10.334 8.5 17.001 11.5s13.667 4.5 21 4.5s14.166 -1.5 20.499 -4.5s11.833 -6.83301 16.5 -11.5s8.5 -10.334 11.5 -17.001s4.5 -13.667 4.5 -21c0 -6.66699 -1.5 -13.334 -4.5 -20.001s-6.83301 -12.334 -11.5 -17.001s-10.167 -8.5 -16.5 -11.5
s-13.166 -4.5 -20.499 -4.5z" />
    <glyph glyph-name="k" unicode="k" horiz-adv-x="545" 
d="M42 703c0 2 0.330078 3.99512 0.99707 5.99512s1.83398 4 3.50098 6s3.33398 3.66699 5.00098 5s3.5 2 5.5 2h58c2 0 4.16699 -0.666992 6.5 -2s4.33301 -3 6 -5s3 -4.16699 4 -6.5s1.5 -4.83301 1.5 -7.5v-191c0 -6 0.833008 -11.667 2.5 -17
s3.83398 -10.666 6.50098 -15.999s5.66699 -10.5 9 -15.5l10 -15l10 -15c3.33301 -5 6.33301 -10.167 9 -15.5s4.66699 -10.666 6 -15.999s2 -11 2 -17v-37c0 -2.66699 1.33301 -5 4 -7s5.33398 -3 8.00098 -3h170c3.33301 0 6.83301 0.5 10.5 1.5s7.16699 2.66699 10.5 5
s6 5 8 8s3 6.16699 3 9.5v123c0 2 0.5 4 1.5 6s2.33301 3.83301 4 5.5s3.66699 3 6 4s4.5 1.5 6.5 1.5h58c2 0 4.16699 -0.5 6.5 -1.5s4.33301 -2.33301 6 -4s3.16699 -3.5 4.5 -5.5s2 -4 2 -6v-149c0 -4 -1 -8 -3 -12s-4.83301 -7.66699 -8.5 -11
s-8.16699 -5.83301 -13.5 -7.5s-10.666 -2.5 -15.999 -2.5c6 0 11.5 -1 16.5 -3s9.33301 -4.66699 13 -8s6.5 -7.16602 8.5 -11.499s3 -8.5 3 -12.5v-246c0 -2 -0.5 -4.33301 -1.5 -7s-2.33301 -5 -4 -7s-3.66699 -3.5 -6 -4.5s-4.5 -1.5 -6.5 -1.5h-59c-2 0 -4 0.5 -6 1.5
s-3.83301 2.33301 -5.5 4s-3 3.66699 -4 6s-1.5 4.5 -1.5 6.5v208c0 3.33301 -1.16699 6.83301 -3.5 10.5s-5.16602 6.66699 -8.49902 9s-7 4.33301 -11 6s-8 2.5 -12 2.5h-165c-2 0 -3.83301 -0.333008 -5.5 -1s-3.33398 -1.66699 -5.00098 -3s-3 -2.66602 -4 -3.99902
s-1.5 -3 -1.5 -5v-216c0 -2.66699 -0.666992 -5.5 -2 -8.5s-3 -5.83301 -5 -8.5s-4.33301 -4.66699 -7 -6s-5.33398 -2 -8.00098 -2h-101c-2.66699 0 -5.33398 0.5 -8.00098 1.5s-5 2.66699 -7 5s-3.66699 4.83301 -5 7.5s-2 5.33398 -2 8.00098v681z" />
    <glyph glyph-name="l" unicode="l" horiz-adv-x="225" 
d="M57 722l58.9971 -0.000976562c2 0 4 -0.5 6 -1.5s3.66699 -2.33301 5 -4s2.5 -3.5 3.5 -5.5s1.5 -4 1.5 -6v-366c0 -3.33301 0.833008 -7.5 2.5 -12.5s3.83398 -10.333 6.50098 -16s5.66699 -11.667 9 -18s6.83301 -12.5 10.5 -18.5l11 -18
c3.66699 -6 6.83398 -11.667 9.50098 -17s4.83398 -10.166 6.50098 -14.499s2.5 -7.83301 2.5 -10.5v-191c0 -2.66699 -0.666992 -5.33398 -2 -8.00098s-3 -5.16699 -5 -7.5s-4.16699 -4.16602 -6.5 -5.49902s-4.83301 -2 -7.5 -2h-98c-2.66699 0 -5.83398 0.5 -9.50098 1.5
s-6.83398 2.66699 -9.50098 5s-5 4.83301 -7 7.5s-3 5.66699 -3 9v681c0 2 0.333008 4 1 6s1.83398 3.83301 3.50098 5.5s3.33398 3.16699 5.00098 4.5s3.5 2 5.5 2z" />
    <glyph glyph-name="m" unicode="m" horiz-adv-x="705" 
d="M42 466c0 4 1.00195 7.83691 3.00195 11.5039s4.83301 7 8.5 10s7.66699 5.5 12 7.5s8.5 3 12.5 3h240c4.66699 0 9.5 -0.5 14.5 -1.5s9.5 -2.66699 13.5 -5s7.5 -5.66602 10.5 -9.99902s4.83301 -9.5 5.5 -15.5c0.666992 6 2.5 11 5.5 15s6.5 7.16699 10.5 9.5
s8.33301 4.16602 13 5.49902s9 2 13 2h218c4 0 8 -1 12 -3s7.66699 -4.5 11 -7.5s6.16602 -6.5 8.49902 -10.5s3.5 -8 3.5 -12v-449c0 -1.33301 -0.5 -3 -1.5 -5s-2.16699 -3.83301 -3.5 -5.5s-3 -3 -5 -4s-4 -1.5 -6 -1.5h-63c-2 0 -3.66699 0.5 -5 1.5
s-2.5 2.16699 -3.5 3.5s-2 2.83301 -3 4.5s-1.5 3.5 -1.5 5.5v390c0 1.33301 -0.333008 2.83301 -1 4.5s-1.66699 3.16699 -3 4.5s-2.66602 2.5 -3.99902 3.5s-3 1.5 -5 1.5h-135c-2 0 -3.83301 -0.666992 -5.5 -2s-3 -2.83301 -4 -4.5s-1.83301 -3.5 -2.5 -5.5s-1 -4 -1 -6
v-384c0 -1.33301 -0.166992 -3 -0.5 -5s-0.833008 -4 -1.5 -6s-1.5 -3.5 -2.5 -4.5s-2.16699 -1.5 -3.5 -1.5h-64c-2 0 -3.83301 0.333008 -5.5 1s-3.33398 1.83398 -5.00098 3.50098s-3 3.33398 -4 5.00098s-1.5 3.5 -1.5 5.5v386c0 2 -0.333008 4 -1 6
s-1.5 3.83301 -2.5 5.5s-2.33301 3 -4 4s-3.5 1.5 -5.5 1.5h-154c-1.33301 0 -2.83301 -0.333008 -4.5 -1s-3.16699 -1.83398 -4.5 -3.50098s-2.5 -3.33398 -3.5 -5.00098s-1.5 -3.16699 -1.5 -4.5v-111c0 -4 0.666992 -8.16699 2 -12.5s3.33301 -8.5 6 -12.5
s5.5 -7.83301 8.5 -11.5s6.16699 -7.33398 9.5 -11.001s6.5 -7.33398 9.5 -11.001s5.66699 -7.5 8 -11.5s4.33301 -8 6 -12s2.5 -8.33301 2.5 -13v-183c0 -2 -0.5 -3.83301 -1.5 -5.5s-2.33301 -3.33398 -4 -5.00098s-3.33398 -2.83398 -5.00098 -3.50098s-3.5 -1 -5.5 -1
h-116c-1.33301 -0 -2.83301 0.333008 -4.5 1s-3.16699 1.66699 -4.5 3s-2.33301 2.83301 -3 4.5s-1 3.5 -1 5.5v452z" />
    <glyph glyph-name="n" unicode="n" horiz-adv-x="548" 
d="M42 466c0 11.333 2.50098 19.501 7.50098 24.501s14.5 7.5 28.5 7.5h378c7.33301 0 13.666 -0.5 18.999 -1.5s9.83301 -2.66699 13.5 -5s6.33398 -5.66602 8.00098 -9.99902s2.83398 -9.5 3.50098 -15.5l1 -449c0 -4 -0.5 -7.16699 -1.5 -9.5s-1.83301 -4 -2.5 -5
s-1.5 -1.66699 -2.5 -2s-1.83301 -0.5 -2.5 -0.5h-64c-1.33301 0 -3 0.333008 -5 1s-3.83301 1.83398 -5.5 3.50098s-3 3.33398 -4 5.00098s-1.5 3.5 -1.5 5.5v386c0 4 -0.166992 7.16699 -0.5 9.5s-1 4 -2 5s-2.33301 1.66699 -4 2s-3.83398 0.5 -6.50098 0.5h-250
c-4 0 -6.83301 -0.166992 -8.5 -0.5s-3 -1 -4 -2s-1.5 -2.5 -1.5 -4.5v-7v-111c0 -4 0.666992 -8.16699 2 -12.5s3.33301 -8.5 6 -12.5s5.5 -7.83301 8.5 -11.5s6.16699 -7.33398 9.5 -11.001s6.5 -7.33398 9.5 -11.001s5.66699 -7.5 8 -11.5s4.33301 -8 6 -12
s2.5 -8.33301 2.5 -13v-183c0 -2 -0.5 -3.83301 -1.5 -5.5s-2.33301 -3.33398 -4 -5.00098s-3.33398 -2.83398 -5.00098 -3.50098s-3.5 -1 -5.5 -1h-116c-1.33301 -0 -2.83301 0.333008 -4.5 1s-3.16699 1.66699 -4.5 3s-2.33301 2.83301 -3 4.5s-1 3.5 -1 5.5v452z" />
    <glyph glyph-name="o" unicode="o" horiz-adv-x="535" 
d="M69 498h393c4 0 7.5 -0.666992 10.5 -2s5.83301 -3.33301 8.5 -6s4.66699 -5.5 6 -8.5s2 -6.5 2 -10.5v-444c0 -4 -0.666992 -7.5 -2 -10.5s-3.33301 -5.66699 -6 -8s-5.5 -4.33301 -8.5 -6s-6.5 -2.5 -10.5 -2.5h-393c-3.33301 -0 -6.66602 0.833008 -9.99902 2.5
s-6.16602 3.66699 -8.49902 6s-4.16602 5 -5.49902 8s-2 6.5 -2 10.5v444c0 4 0.666992 7.5 2 10.5s3.16602 5.83301 5.49902 8.5s5.16602 4.66699 8.49902 6s6.66602 2 9.99902 2zM140 417c-3.33301 0 -6.00586 -1 -8.00586 -3s-3 -4.33301 -3 -7v-315
c0 -2.66699 1 -5 3 -7s4.66699 -3 8 -3h193c2.66699 0 5.16699 1 7.5 3s3.5 4.33301 3.5 7l-1 108c0 8 0.833008 15.833 2.5 23.5s3.83398 15 6.50098 22s5.83398 14 9.50098 21s7.33398 13.5 11.001 19.5s7.33398 11.667 11.001 17s6.83398 10.333 9.50098 15
s4.83398 9 6.50098 13s2.5 7.66699 2.5 11v65c0 2.66699 -1 5 -3 7s-4.33301 3 -7 3h-252z" />
    <glyph glyph-name="p" unicode="p" horiz-adv-x="525" 
d="M41 -202v657.997c0 6 1.66699 11.5 5 16.5s7.5 9.5 12.5 13.5s10.5 7.16699 16.5 9.5s11.667 3.5 17 3.5h343c5.33301 0 10.666 -1.5 15.999 -4.5s10.166 -6.66699 14.499 -11s7.83301 -9.33301 10.5 -15s4 -10.834 4 -15.501v-415
c0 -4.66699 -1.16699 -9.16699 -3.5 -13.5s-5.33301 -8.16602 -9 -11.499s-7.83398 -6.16602 -12.501 -8.49902s-9 -3.5 -13 -3.5h-233c-3.33301 0 -6.66602 -0.166992 -9.99902 -0.5s-6.5 -1.5 -9.5 -3.5s-5.5 -4.16699 -7.5 -6.5s-3 -5.16602 -3 -8.49902v-189
c0 -2 -0.666992 -4 -2 -6s-3.16602 -3.83301 -5.49902 -5.5s-4.66602 -3 -6.99902 -4s-4.5 -1.5 -6.5 -1.5h-94c-2.66699 0 -5.33398 0.666992 -8.00098 2s-5.16699 3 -7.5 5s-4.16602 4.33301 -5.49902 7s-2 5.33398 -2 8.00098zM150 81.9971h222c6 0 11 2 15 6s6 9 6 15
v293c0 5.33301 -2 10 -6 14s-9 6 -15 6h-222c-5.33301 0 -10 -2 -14 -6s-6 -8.66699 -6 -14v-293c0 -6 2 -11 6 -15s8.66699 -6 14 -6z" />
    <glyph glyph-name="q" unicode="q" horiz-adv-x="525" 
d="M480 -202c0 -2.66699 -0.662109 -5.33105 -1.99512 -7.99805s-3 -5 -5 -7s-4.5 -3.66699 -7.5 -5s-5.83301 -2 -8.5 -2h-94c-2 0 -4.16699 0.5 -6.5 1.5s-4.5 2.33301 -6.5 4s-3.66699 3.5 -5 5.5s-2 4 -2 6v189c0 3.33301 -1 6.16602 -3 8.49902s-4.5 4.5 -7.5 6.5
s-6.33301 3.16699 -10 3.5s-6.83398 0.5 -9.50098 0.5h-234c-4 0 -8.33301 1.16699 -13 3.5s-8.83398 5.16602 -12.501 8.49902s-6.66699 7.16602 -9 11.499s-3.5 8.83301 -3.5 13.5v415c0 4.66699 1.33301 9.83398 4 15.501s6.16699 10.667 10.5 15s9.16602 8 14.499 11
s10.666 4.5 15.999 4.5h343c5.33301 0 11.166 -1.16699 17.499 -3.5s12 -5.5 17 -9.5s9 -8.5 12 -13.5s4.5 -10.5 4.5 -16.5v-658zM371.005 82.0029c5.33301 0 10.166 2 14.499 6s6.5 9 6.5 15v293c0 5.33301 -2.16699 10 -6.5 14s-9.16602 6 -14.499 6h-222
c-6 0 -11 -2 -15 -6s-6 -8.66699 -6 -14v-293c0 -6 2 -11 6 -15s9 -6 15 -6h222z" />
    <glyph glyph-name="r" unicode="r" horiz-adv-x="430" 
d="M44 459c0 4.66699 1.16602 9.16992 3.49902 13.5029s5.5 8.33301 9.5 12s8.33301 6.66699 13 9s9.33398 3.5 14.001 3.5h299c4 0 8 -1 12 -3s7.83301 -4.5 11.5 -7.5s6.5 -6.5 8.5 -10.5s3 -8 3 -12v-95c0 -2.66699 -0.333008 -5.33398 -1 -8.00098
s-1.66699 -5.16699 -3 -7.5s-3 -4.16602 -5 -5.49902s-4.33301 -2 -7 -2h-59c-2 0 -4.16699 0.5 -6.5 1.5s-4.5 2.16699 -6.5 3.5s-3.5 3 -4.5 5s-1.5 4 -1.5 6v47c0 2.66699 -1.5 5.16699 -4.5 7.5s-6.16699 3.5 -9.5 3.5h-162c-2 0 -3.66699 -0.5 -5 -1.5
s-2.5 -2.16699 -3.5 -3.5s-1.83301 -3 -2.5 -5s-1 -3.66699 -1 -5v-69c0 -6 0.666992 -11.833 2 -17.5s3.33301 -11.334 6 -17.001s5.66699 -11.334 9 -17.001l10 -17l10 -16.5c3.33301 -5.33301 6.16602 -10.833 8.49902 -16.5s4.33301 -11.5 6 -17.5s2.5 -12 2.5 -18v-174
c0 -2.66699 -0.833008 -5.5 -2.5 -8.5s-3.66699 -5.66699 -6 -8s-5 -4.33301 -8 -6s-6.16699 -2.5 -9.5 -2.5h-95c-3.33301 0 -6.5 1 -9.5 3s-5.66699 4.33301 -8 7s-4.16602 5.66699 -5.49902 9s-2 6.66602 -2 9.99902v430z" />
    <glyph glyph-name="s" unicode="s" horiz-adv-x="535" 
d="M43 464c0 4.66699 1.16309 8.99707 3.49609 12.9971s5.5 7.5 9.5 10.5s8.33301 5.5 13 7.5s9 3 13 3h382c3.33301 0 6.5 -0.833008 9.5 -2.5s5.83301 -3.66699 8.5 -6s4.83398 -4.83301 6.50098 -7.5s2.5 -5.66699 2.5 -9v-101c0 -2 -0.333008 -4.33301 -1 -7
s-1.66699 -5.16699 -3 -7.5s-3 -4.33301 -5 -6s-4 -2.5 -6 -2.5h-64c-2 0 -4.16699 0.333008 -6.5 1s-4.5 1.66699 -6.5 3s-3.66699 2.83301 -5 4.5s-2 3.5 -2 5.5v45c0 2 -0.5 3.5 -1.5 4.5s-2.33301 2 -4 3s-3.5 1.83301 -5.5 2.5s-3.66699 1 -5 1h-226
c-2 0 -3.83301 -0.5 -5.5 -1.5s-3.16699 -2.33301 -4.5 -4s-2.33301 -3.33398 -3 -5.00098s-1 -3.5 -1 -5.5v-95c0 -1.33301 0.333008 -2.66602 1 -3.99902s1.83398 -2.66602 3.50098 -3.99902s3.33398 -2.16602 5.00098 -2.49902s3.5 -0.5 5.5 -0.5h311
c3.33301 0 6.66602 -1 9.99902 -3s6.33301 -4.33301 9 -7s4.83398 -5.66699 6.50098 -9s2.5 -6.66602 2.5 -9.99902v-237c0 -3.33301 -0.666992 -6.83301 -2 -10.5s-3 -7 -5 -10s-4.33301 -5.5 -7 -7.5s-5.66699 -3 -9 -3h-389c-4 -0 -8 0.833008 -12 2.5
s-7.66699 3.66699 -11 6s-6.16602 5.33301 -8.49902 9s-3.5 7.16699 -3.5 10.5v107c0 2 0.333008 4 1 6s1.83398 3.83301 3.50098 5.5s3.33398 3 5.00098 4s3.5 1.5 5.5 1.5h66c2 0 3.5 -0.5 4.5 -1.5s2 -2.33301 3 -4s1.83301 -3.5 2.5 -5.5s1 -3.66699 1 -5v-40
c0 -2 0.333008 -3.83301 1 -5.5s1.66699 -3.16699 3 -4.5s2.66602 -2.5 3.99902 -3.5s3 -1.5 5 -1.5h183c2 0 3.66699 0.333008 5 1s2.66602 1.66699 3.99902 3s2.5 2.83301 3.5 4.5s1.5 3.16699 1.5 4.5v108c0 2.66699 -1.5 5 -4.5 7s-5.83301 3 -8.5 3h-258
c-3.33301 0 -6.83301 0.666992 -10.5 2s-7 3.33301 -10 6s-5.5 5.66699 -7.5 9s-3 7 -3 11v224z" />
    <glyph glyph-name="t" unicode="t" horiz-adv-x="345" 
d="M105 645l49.9971 -0.000976562c6 0 11 -2 15 -6s6 -8.66699 6 -14v-128h109c2.66699 0 5.33398 -0.833008 8.00098 -2.5s5 -3.66699 7 -6s3.66699 -4.83301 5 -7.5s2 -5.33398 2 -8.00098v-105c0 -2 -0.5 -4.16699 -1.5 -6.5s-2.33301 -4.33301 -4 -6
s-3.5 -3.16699 -5.5 -4.5s-4 -2 -6 -2h-114v-255c0 -1.33301 0.333008 -3 1 -5s1.83398 -3.83301 3.50098 -5.5s3.33398 -3 5.00098 -4s3.5 -1.5 5.5 -1.5h54c2 0 4 -0.5 6 -1.5s3.83301 -2.33301 5.5 -4s3 -3.66699 4 -6s1.5 -4.5 1.5 -6.5v-39c0 -6 -1.66699 -11 -5 -15
s-7.66602 -6 -12.999 -6h-139c-5.33301 0 -10 2 -14 6s-6 8.66699 -6 14v395h-41c-2 0 -3.83301 0.333008 -5.5 1s-3.33398 1.83398 -5.00098 3.50098s-3 3.33398 -4 5.00098s-1.5 3.5 -1.5 5.5v53c0 1.33301 0.333008 2.83301 1 4.5s1.5 3.16699 2.5 4.5s2.33301 2.5 4 3.5
s3.16699 1.5 4.5 1.5h45v128c0 5.33301 2 10 6 14s8.66699 6 14 6z" />
    <glyph glyph-name="u" unicode="u" horiz-adv-x="548" 
d="M44 481c0 1.33301 0.168945 3.00098 0.501953 5.00098s1.16602 3.83301 2.49902 5.5s2.66602 3 3.99902 4s2.66602 1.5 3.99902 1.5h74c2.66699 0 5.33398 -1.5 8.00098 -4.5s4 -5.83301 4 -8.5v-173c0 -4 0.666992 -8 2 -12s3.33301 -8.16699 6 -12.5
s5.5 -8.66602 8.5 -12.999l9.5 -14c3.33301 -5 6.66602 -10.333 9.99902 -16s6.16602 -11.834 8.49902 -18.501s4.33301 -13.834 6 -21.501s2.5 -16.167 2.5 -25.5v-91c0 -2 1.16699 -4 3.5 -6s4.5 -3 6.5 -3h198c2.66699 0 5.33398 1.33301 8.00098 4s4 5.33398 4 8.00098
v392c0 1.33301 0.333008 3 1 5s1.83398 3.83301 3.50098 5.5s3.33398 3 5.00098 4s3.5 1.5 5.5 1.5h62c1.33301 0 2.66602 -0.5 3.99902 -1.5s2.66602 -2.16699 3.99902 -3.5s2.33301 -2.83301 3 -4.5s1 -3.16699 1 -4.5v-464c0 -2.66699 -0.833008 -5.16699 -2.5 -7.5
s-3.66699 -4.5 -6 -6.5s-5 -3.5 -8 -4.5s-5.83301 -1.5 -8.5 -1.5h-405c-3.33301 0 -6.66602 0.5 -9.99902 1.5s-6.5 2.5 -9.5 4.5s-5.33301 4.16699 -7 6.5s-2.5 5.16602 -2.5 8.49902v460z" />
    <glyph glyph-name="v" unicode="v" horiz-adv-x="505" 
d="M8 480c0 1.33301 0.166992 3 0.5 5s1.16602 3.83301 2.49902 5.5s2.83301 3.16699 4.5 4.5s3.16699 2 4.5 2h58c4 0 8 -1.66699 12 -5s6.66699 -7 8 -11l155 -380l153 381c1.33301 4 3.66602 7.66699 6.99902 11s6.66602 5 9.99902 5h58c2 0 3.83301 -0.666992 5.5 -2
s3.16699 -2.83301 4.5 -4.5s2.33301 -3.5 3 -5.5s0.666992 -4 0 -6l-185 -452c-1.33301 -2.66699 -2.66602 -5.66699 -3.99902 -9s-3 -6.33301 -5 -9s-4.16699 -5 -6.5 -7s-5.16602 -3 -8.49902 -3h-68c-3.33301 -0 -6.66602 1.33301 -9.99902 4s-6 5.66699 -8 9z" />
    <glyph glyph-name="w" unicode="w" horiz-adv-x="690" 
d="M46 480c0 2 0.49707 4.00195 1.49707 6.00195s2.33301 3.83301 4 5.5s3.66699 3.16699 6 4.5s4.5 2 6.5 2h54c2 0 4 -0.5 6 -1.5s3.83301 -2.16699 5.5 -3.5s3.16699 -3 4.5 -5s2 -4 2 -6v-165c0 -2 0.833008 -4.83301 2.5 -8.5s3.83398 -8 6.50098 -13l9 -16.5l10.5 -19
l10.5 -19.5l9.5 -18.5c3 -6 5.33301 -11.5 7 -16.5s2.5 -9.5 2.5 -13.5v-93c0 -3.33301 1.33301 -6.33301 4 -9s5.66699 -4 9 -4h80c2.66699 0 5.5 0.666992 8.5 2s4.5 3.33301 4.5 6v390c0 1.33301 0.166992 2.66602 0.5 3.99902s1 2.83301 2 4.5
s2.16699 2.83398 3.5 3.50098s2.66602 1 3.99902 1h67c0.666992 0 1.5 -0.5 2.5 -1.5s1.83301 -2.16699 2.5 -3.5s1.33398 -2.83301 2.00098 -4.5s1 -2.83398 1 -3.50098v-385c0 -2 0.333008 -3.66699 1 -5s1.66699 -2.66602 3 -3.99902s2.83301 -2.33301 4.5 -3
s3.5 -1 5.5 -1h148c2 0 3.83301 0.833008 5.5 2.5s2.5 3.5 2.5 5.5v391c0 1.33301 0.5 2.83301 1.5 4.5s2.33301 3.16699 4 4.5s3.33398 2.5 5.00098 3.5s3.5 1.5 5.5 1.5h55c2.66699 0 5.5 -1.16699 8.5 -3.5s4.5 -4.83301 4.5 -7.5v-452c0 -4 -0.833008 -8 -2.5 -12
s-3.66699 -7.83301 -6 -11.5s-5.16602 -6.66699 -8.49902 -9s-7 -3.5 -11 -3.5h-215c-4 0 -8.33301 0.5 -13 1.5s-9 2.33301 -13 4s-7.5 4.16699 -10.5 7.5s-4.83301 7.66602 -5.5 12.999c-3.33301 -9.33301 -8.33301 -16 -15 -20s-13.667 -6 -21 -6h-233
c-4 0 -8.33301 1.16699 -13 3.5s-9 5.16602 -13 8.49902s-7.16699 7 -9.5 11s-3.5 8.33301 -3.5 13v444z" />
    <glyph glyph-name="x" unicode="x" horiz-adv-x="505" 
d="M26 485c0 2 0.5 3.83789 1.5 5.50488s2.5 3 4.5 4l6 3c2 1 4 1.5 6 1.5h56c1.33301 0 2.83301 -0.5 4.5 -1.5l5 -3c1.66699 -1 2.83398 -2.33301 3.50098 -4s1 -3.16699 1 -4.5v-41c0 -3.33301 0.833008 -6.5 2.5 -9.5s3.5 -5.5 5.5 -7.5l127 -119l84 81
c2 2 3.5 4.66699 4.5 8s1.5 6.33301 1.5 9v79c0 2.66699 1.5 5.16699 4.5 7.5s5.83301 3.5 8.5 3.5h107c1.33301 0 3 -0.166992 5 -0.5s3.83301 -0.833008 5.5 -1.5s3.16699 -1.5 4.5 -2.5s2 -2.5 2 -4.5v-62c0 -4 -0.5 -8 -1.5 -12s-2.83301 -7.33301 -5.5 -10l-155 -155
l154 -149c2.66699 -2.66699 4.83398 -5.83398 6.50098 -9.50098s2.5 -7.16699 2.5 -10.5v-63c0 -2 -0.333008 -4 -1 -6s-1.66699 -3.83301 -3 -5.5s-2.83301 -3 -4.5 -4s-3.5 -1.5 -5.5 -1.5h-58c-2 0 -4 0.5 -6 1.5s-3.66699 2.5 -5 4.5s-2.5 4.16699 -3.5 6.5
s-1.5 4.5 -1.5 6.5v31c0 4.66699 -1.16699 9 -3.5 13s-5.16602 7.66699 -8.49902 11l-124 116l-74 -72c-2 -2 -3.83301 -4.5 -5.5 -7.5s-2.5 -6.16699 -2.5 -9.5v-86c0 -2 -0.333008 -3.83301 -1 -5.5s-1.83398 -3.33398 -3.50098 -5.00098
s-3.33398 -2.83398 -5.00098 -3.50098s-3.16699 -1 -4.5 -1h-108c-2.66699 0 -5.33398 0.5 -8.00098 1.5s-5 2.5 -7 4.5s-3.66699 4.16699 -5 6.5s-2 4.5 -2 6.5v56c0 4 0.666992 7.66699 2 11s3.16602 6.66602 5.49902 9.99902s4.83301 6.5 7.5 9.5
s5.33398 5.83301 8.00098 8.5l138 137l-145 141l-6 6c-2 2 -3.83301 4.16699 -5.5 6.5s-3 4.66602 -4 6.99902s-1.5 4.83301 -1.5 7.5v66z" />
    <glyph glyph-name="y" unicode="y" horiz-adv-x="540" 
d="M43 479c0 2 0.335938 3.83008 1.00293 5.49707s1.66699 3.33398 3 5.00098s2.66602 3.16699 3.99902 4.5s3 2 5 2h58c2 0 3.83301 -0.666992 5.5 -2s3.16699 -2.66602 4.5 -3.99902s2.5 -3 3.5 -5s1.5 -4 1.5 -6v-379c0 -2 0.666992 -4.16699 2 -6.5
s3.16602 -4.33301 5.49902 -6s4.83301 -3 7.5 -4s5.33398 -1.5 8.00098 -1.5h237c1.33301 0 3.16602 0.5 5.49902 1.5s4.33301 2.16699 6 3.5s3.16699 2.83301 4.5 4.5s2 3.5 2 5.5v382c0 2 0.5 4.16699 1.5 6.5s2.33301 4.33301 4 6s3.66699 3 6 4s4.5 1.5 6.5 1.5h52
c2.66699 0 5 -0.5 7 -1.5s3.83301 -2.33301 5.5 -4s3.16699 -3.66699 4.5 -6s2 -4.5 2 -6.5v-678c0 -2.66699 -0.666992 -5.33398 -2 -8.00098s-3 -5.16699 -5 -7.5s-4.33301 -4.33301 -7 -6s-5.33398 -2.5 -8.00098 -2.5h-94c-2.66699 0 -5.33398 0.666992 -8.00098 2
s-5.33398 3 -8.00098 5s-4.66699 4.33301 -6 7s-2 5.33398 -2 8.00098v182c0 2.66699 -0.666992 5.16699 -2 7.5s-3.16602 4.33301 -5.49902 6s-4.66602 3 -6.99902 4s-4.83301 1.5 -7.5 1.5h-240c-5.33301 0 -11 1 -17 3s-11.5 4.83301 -16.5 8.5
s-9.16699 7.83398 -12.5 12.501s-5 9.66699 -5 15v440z" />
    <glyph glyph-name="z" unicode="z" horiz-adv-x="505" 
d="M48 499l408.003 0.00488281c2.66699 0 5.66699 -0.666992 9 -2s6.16602 -3.16602 8.49902 -5.49902s4.33301 -4.83301 6 -7.5s2.5 -5.33398 2.5 -8.00098v-56c0 -4.66699 -1.16699 -8.83398 -3.5 -12.501s-4.83301 -6.83398 -7.5 -9.50098l-303 -314h209
c2 0 4.16699 0.166992 6.5 0.5s4.5 0.833008 6.5 1.5s3.66699 1.66699 5 3s2 3 2 5v33c0 2 0.333008 4.16699 1 6.5s1.66699 4.5 3 6.5s3 3.66699 5 5s4 2 6 2h52c2 0 4.16699 -0.666992 6.5 -2s4.33301 -2.83301 6 -4.5s3 -3.5 4 -5.5s1.5 -4 1.5 -6v-118
c0 -2 -0.833008 -3.83301 -2.5 -5.5s-3.83398 -2.83398 -6.50098 -3.50098s-5.5 -1.16699 -8.5 -1.5s-5.83301 -0.5 -8.5 -0.5h-406c-3.33301 0 -6.33301 0.666992 -9 2s-5.33398 3 -8.00098 5s-4.66699 4.5 -6 7.5s-2 5.83301 -2 8.5v84c0 8 1.66699 15.833 5 23.5
s7.66602 14.167 12.999 19.5l113 112c7.33301 7.33301 15.833 12.666 25.5 15.999s19.5 6.33301 29.5 9s19.833 5.66699 29.5 9s17.834 8.66602 24.501 15.999l107 112h-262v-61c0 -2 -0.333008 -4 -1 -6s-1.83398 -4 -3.50098 -6s-3.5 -3.5 -5.5 -4.5s-4 -1.5 -6 -1.5h-49
c-2.66699 0 -5.16699 0.5 -7.5 1.5s-4.66602 2.33301 -6.99902 4s-4.16602 3.66699 -5.49902 6s-2 4.5 -2 6.5v108c0 2.66699 0.666992 5.66699 2 9s3.16602 6.5 5.49902 9.5s5 5.33301 8 7s6.16699 2.5 9.5 2.5z" />
    <glyph glyph-name="braceleft" unicode="{" horiz-adv-x="512" 
d="M427 665c-24 1.33301 -43.8291 -0.162109 -59.4961 -4.49512s-27.834 -10.666 -36.501 -18.999s-14.667 -18 -18 -29s-5 -22.5 -5 -34.5v-178c0 -14 -1.5 -28.167 -4.5 -42.5s-8.33301 -27.833 -16 -40.5s-17.834 -23.667 -30.501 -33s-28 -15.333 -46 -18
c18 -4.66699 33.167 -11.667 45.5 -21s22.166 -20 29.499 -32s12.5 -24.833 15.5 -38.5s4.5 -27.5 4.5 -41.5v-178c0 -12.667 1.66699 -24.5 5 -35.5s9.5 -20.5 18.5 -28.5s21.5 -14 37.5 -18s36.667 -5.33301 62 -4v-72c-21.333 -2 -40.833 -2.66699 -58.5 -2
s-33.334 2.5 -47.001 5.5s-25.667 7 -36 12s-19.333 10.833 -27 17.5s-14 14 -19 22s-9 16.5 -12 25.5s-5 18.5 -6 28.5s-1.5 20 -1.5 30v179c0 7.33301 -0.5 14.666 -1.5 21.999s-2.33301 14.666 -4 21.999s-4.16699 14.166 -7.5 20.499s-7.5 12.166 -12.5 17.499
s-10.833 10.166 -17.5 14.499s-14.667 7.83301 -24 10.5s-20 4.5 -32 5.5s-25.333 1.16699 -40 0.5v72c28 -0.666992 51 2.16602 69 8.49902s32.333 14.666 43 24.999s18 22.333 22 36s6 28.167 6 43.5v177c0 10.667 0.333008 21 1 31s2 19.5 4 28.5s5 17.667 9 26
s9.33301 15.833 16 22.5s15 12.667 25 18s22 9.83301 36 13.5s30.333 6.33398 49 8.00098s40 2.16699 64 1.5v-74z" />
    <glyph glyph-name="bar" unicode="|" horiz-adv-x="512" 
d="M292 783v-1023h-75v1023h75z" />
    <glyph glyph-name="braceright" unicode="}" horiz-adv-x="512" 
d="M79 665v73.9951c24.667 0.666992 46.334 0.166992 65.001 -1.5s35 -4.33398 49 -8.00098s26 -8.16699 36 -13.5s18.333 -11.333 25 -18s11.834 -14.167 15.501 -22.5s6.66699 -17 9 -26s3.66602 -18.5 3.99902 -28.5s0.5 -20.333 0.5 -31v-177
c0 -15.333 2.16699 -29.833 6.5 -43.5s11.833 -25.667 22.5 -36s25 -18.666 43 -24.999s41 -9.16602 69 -8.49902v-72c-14.667 0.666992 -28 0.5 -40 -0.5s-22.667 -2.83301 -32 -5.5s-17.5 -6.16699 -24.5 -10.5s-13 -9.16602 -18 -14.499s-9 -11.166 -12 -17.499
s-5.5 -13.166 -7.5 -20.499s-3.33301 -14.666 -4 -21.999s-1 -14.666 -1 -21.999v-179c0 -10 -0.666992 -20 -2 -30s-3.33301 -19.5 -6 -28.5s-6.5 -17.5 -11.5 -25.5s-11.333 -15.333 -19 -22s-16.667 -12.5 -27 -17.5s-22.5 -9 -36.5 -12s-29.667 -4.83301 -47 -5.5
s-37 0 -59 2v72c25.333 -1.33301 46 0 62 4s28.5 10 37.5 18s15.167 17.5 18.5 28.5s5 22.833 5 35.5v178c0 14 1.5 27.833 4.5 41.5s8.16699 26.5 15.5 38.5s17.166 22.667 29.499 32s27.833 16.333 46.5 21c-18.667 2.66699 -34.167 8.66699 -46.5 18
s-22.333 20.333 -30 33s-13.167 26.167 -16.5 40.5s-5 28.5 -5 42.5v178c0 12 -1.5 23.5 -4.5 34.5s-9 20.667 -18 29s-21.167 14.666 -36.5 18.999s-35.333 5.83301 -60 4.5z" />
    <glyph glyph-name="asciitilde" unicode="~" horiz-adv-x="853" 
d="M89 230l0.00292969 76l44 26c15.333 8.66699 31.166 16.5 47.499 23.5s33.166 12.667 50.499 17s34.666 6.5 51.999 6.5c12 0 24.5 -1 37.5 -3s25.833 -4.83301 38.5 -8.5s25.5 -7.66699 38.5 -12s25.833 -8.83301 38.5 -13.5l37 -13.5
c12 -4.33301 23.667 -8.16602 35 -11.499s22.333 -6 33 -8s20.667 -3 30 -3c17.333 0 34.333 2.66699 51 8s32.834 12 48.501 20s31.167 16.833 46.5 26.5l45 28.5v-81l-45 -25c-15.333 -8.66699 -31 -16.334 -47 -23.001s-32.333 -12.167 -49 -16.5
s-33.334 -6.5 -50.001 -6.5c-12.667 0 -25.167 1 -37.5 3s-24.5 4.66699 -36.5 8s-24 7.16602 -36 11.499l-36 13.5c-12 4.66699 -24.167 9 -36.5 13s-24.5 7.66699 -36.5 11s-24.167 6 -36.5 8s-24.833 3 -37.5 3c-16.667 0 -33 -2.33301 -49 -7s-31.833 -10.667 -47.5 -18
s-31.167 -15.666 -46.5 -24.999z" />
    <glyph glyph-name="cent" unicode="&#xa2;" 
d="M121 448c0 5.33301 1.00293 10.8311 3.00293 16.498s4.83301 10.834 8.5 15.501s7.83398 8.66699 12.501 12s9.66699 5 15 5h139v62c0 2.66699 1.33301 5 4 7s5.33398 3 8.00098 3h24c2 0 3.83301 -1 5.5 -3s2.5 -4.33301 2.5 -7v-62h192c4 0 8.33301 -1 13 -3
s9 -4.5 13 -7.5s7.16699 -6.5 9.5 -10.5s3.5 -8 3.5 -12v-87c0 -3.33301 -0.833008 -6.33301 -2.5 -9s-3.66699 -5.16699 -6 -7.5s-5 -4.33301 -8 -6s-6.16699 -2.5 -9.5 -2.5h-108c-2.66699 0 -5.5 0.5 -8.5 1.5s-5.83301 2.16699 -8.5 3.5s-4.83398 3 -6.50098 5
s-2.5 4.33301 -2.5 7v34c0 2 -0.5 3.66699 -1.5 5s-2.16699 2.66602 -3.5 3.99902s-2.83301 2.5 -4.5 3.5s-3.5 1.5 -5.5 1.5h-167c-2 0 -3.83301 -0.5 -5.5 -1.5s-3.16699 -2.16699 -4.5 -3.5s-2.5 -2.83301 -3.5 -4.5s-1.5 -3.5 -1.5 -5.5v-303
c0 -2 0.5 -3.83301 1.5 -5.5s2.33301 -3.33398 4 -5.00098s3.66699 -3 6 -4s4.16602 -1.5 5.49902 -1.5h240c2 0 4 1.33301 6 4s3 5 3 7v44c0 1.33301 0.333008 3 1 5s1.66699 3.66699 3 5s2.83301 2.5 4.5 3.5s3.5 1.5 5.5 1.5h58c2 0 4.16699 -0.5 6.5 -1.5
s4.33301 -2.33301 6 -4s3.16699 -3.66699 4.5 -6s2 -4.5 2 -6.5v-100c0 -4 -0.833008 -8 -2.5 -12s-3.83398 -7.66699 -6.50098 -11s-5.83398 -6.16602 -9.50098 -8.49902s-7.5 -3.5 -11.5 -3.5h-200v-68c0 -2.66699 -1 -5 -3 -7s-4.33301 -3 -7 -3h-23
c-2.66699 0 -5.33398 1 -8.00098 3s-4 4.33301 -4 7v68h-134c-6 0 -11.667 1.83301 -17 5.5s-10 8.33398 -14 14.001s-7.16699 11.834 -9.5 18.501s-3.5 13 -3.5 19v391z" />
    <glyph glyph-name="sterling" unicode="&#xa3;" 
d="M114 723l284.994 0.00292969c2 0 4 -0.5 6 -1.5s4 -2.33301 6 -4s3.5 -3.5 4.5 -5.5s1.5 -4 1.5 -6v-95c0 -1.33301 -0.166992 -3 -0.5 -5s-0.833008 -4 -1.5 -6s-1.5 -3.66699 -2.5 -5s-2.5 -2 -4.5 -2h-57c-2 0 -4.16699 0.666992 -6.5 2s-4.33301 3 -6 5
s-3 4.16699 -4 6.5s-1.5 4.5 -1.5 6.5v34h-148v-174h85c2 0 4.16699 -0.666992 6.5 -2s3.5 -3.33301 3.5 -6v-22c0 -2 -1 -3.83301 -3 -5.5s-4.33301 -2.5 -7 -2.5h-85v-337c0 -2 0.5 -3.83301 1.5 -5.5s2.16699 -3.33398 3.5 -5.00098s3 -2.83398 5 -3.50098
s3.66699 -1 5 -1h287c2 0 4.5 -0.666992 7.5 -2s5.5 -3 7.5 -5s3.66699 -4.33301 5 -7s2 -5.33398 2 -8.00098v-44c0 -2 -0.5 -4 -1.5 -6s-2.16699 -3.83301 -3.5 -5.5s-3 -3 -5 -4s-4 -1.5 -6 -1.5h-428c-3.33301 0 -6.66602 0.5 -9.99902 1.5s-6.33301 2.5 -9 4.5
s-5 4.33301 -7 7s-3 5.66699 -3 9v279c0 6 0.833008 12.167 2.5 18.5s3.83398 12.666 6.50098 18.999s5.83398 12.5 9.50098 18.5l11 18c3.66699 6 7.33398 11.667 11.001 17s6.83398 10.5 9.50098 15.5s4.83398 9.83301 6.50098 14.5s2.5 8.66699 2.5 12h-71h-4
c-1.33301 0 -2.66602 0.333008 -3.99902 1s-2.5 1.33398 -3.5 2.00098s-1.5 1.66699 -1.5 3v28c0 1.33301 0.5 2.33301 1.5 3s2.16699 1.16699 3.5 1.5l4 1c1.33301 0.333008 2.66602 0.5 3.99902 0.5h71v229c0 2 0.666992 4.16699 2 6.5s2.83301 4.5 4.5 6.5
s3.5 3.66699 5.5 5s4.33301 2 7 2z" />
    <glyph glyph-name="copyright" unicode="&#xa9;" horiz-adv-x="853" 
d="M421 44c22.667 0 44.334 2.33301 65.001 7s40.667 11 60 19s37.5 17.833 54.5 29.5s32.833 24.667 47.5 39s27.834 30.166 39.501 47.499s21.5 35.5 29.5 54.5s14.167 39 18.5 60s6.5 42.5 6.5 64.5s-2.16699 43.5 -6.5 64.5s-10.5 41 -18.5 60
s-17.833 37.167 -29.5 54.5s-24.834 33.166 -39.501 47.499s-30.5 27.333 -47.5 39s-35.167 21.667 -54.5 30s-39.333 14.666 -60 18.999s-42.334 6.5 -65.001 6.5c-22 0 -43.333 -2.16699 -64 -6.5s-40.667 -10.666 -60 -18.999s-37.5 -18.333 -54.5 -30
s-32.833 -24.667 -47.5 -39s-27.834 -30.166 -39.501 -47.499s-21.5 -35.5 -29.5 -54.5s-14.167 -39 -18.5 -60s-6.5 -42.5 -6.5 -64.5s2.16699 -43.5 6.5 -64.5s10.5 -41 18.5 -60s17.833 -37.167 29.5 -54.5s24.834 -33.166 39.501 -47.499s30.5 -27.333 47.5 -39
s35.167 -21.5 54.5 -29.5s39.333 -14.333 60 -19s42 -7 64 -7zM421 -5c-25.333 0 -50 2.33301 -74 7s-47.167 11.834 -69.5 21.501s-43.333 21.167 -63 34.5s-38 28.333 -55 45s-32.167 35 -45.5 55s-24.666 41 -33.999 63s-16.5 45.167 -21.5 69.5s-7.5 49.166 -7.5 74.499
s2.5 50.166 7.5 74.499s12.167 47.5 21.5 69.5s20.666 43 33.999 63s28.5 38.333 45.5 55s35.333 31.834 55 45.501s40.667 25.167 63 34.5s45.5 16.5 69.5 21.5s48.667 7.5 74 7.5c26 0 51 -2.5 75 -7.5s47.167 -12.167 69.5 -21.5s43.333 -20.833 63 -34.5
s38 -28.834 55 -45.501s32.167 -35 45.5 -55s24.666 -41 33.999 -63s16.5 -45.167 21.5 -69.5s7.5 -49.166 7.5 -74.499s-2.5 -50.166 -7.5 -74.499s-12.167 -47.5 -21.5 -69.5s-20.666 -43 -33.999 -63s-28.5 -38.333 -45.5 -55s-35.333 -31.667 -55 -45
s-40.667 -24.833 -63 -34.5s-45.5 -16.834 -69.5 -21.501s-49 -7 -75 -7zM519 454c-0.666992 13.333 -4.00293 25.167 -10.0029 35.5s-13.5 18.833 -22.5 25.5s-18.833 11.667 -29.5 15s-21.334 5 -32.001 5c-12 0 -22.833 -1.5 -32.5 -4.5s-18.334 -7.16699 -26.001 -12.5
s-14.5 -11.666 -20.5 -18.999s-11.167 -15.333 -15.5 -24s-7.83301 -17.667 -10.5 -27s-5 -18.833 -7 -28.5s-3.33301 -19.334 -4 -29.001s-1 -18.834 -1 -27.501c0 -26.667 3 -50.334 9 -71.001s14.167 -38 24.5 -52s22.666 -24.667 36.999 -32s29.833 -11 46.5 -11
c29.333 0 52.833 7.5 70.5 22.5s28.834 37.167 33.501 66.5h71c-4 -27.333 -11.667 -50.333 -23 -69s-25.166 -33.667 -41.499 -45s-34 -19.333 -53 -24s-38.167 -7 -57.5 -7s-37 1.83301 -53 5.5s-30.333 8.83398 -43 15.501s-24.167 14.5 -34.5 23.5
s-19.166 19 -26.499 30s-13.666 22.667 -18.999 35s-9.5 24.833 -12.5 37.5s-5.16699 25.5 -6.5 38.5s-2 25.833 -2 38.5c0 20 1.33301 38.5 4 55.5s6.83398 32.667 12.501 47s12.167 27.333 19.5 39s15.666 22 24.999 31s19.333 16.833 30 23.5
s21.834 12.334 33.501 17.001s23.667 8 36 10s24.5 3 36.5 3c21.333 0 41.833 -3.16699 61.5 -9.5s37.334 -15.5 53.001 -27.5s28.5 -26.5 38.5 -43.5s16 -35.833 18 -56.5h-77z" />
    <glyph glyph-name="registered" unicode="&#xae;" horiz-adv-x="853" 
d="M421 44c22.667 0 44.334 2.33301 65.001 7s40.667 11 60 19s37.5 17.833 54.5 29.5s32.833 24.667 47.5 39s27.834 30.166 39.501 47.499s21.5 35.5 29.5 54.5s14.167 39 18.5 60s6.5 42.5 6.5 64.5s-2.16699 43.5 -6.5 64.5s-10.5 41 -18.5 60
s-17.833 37.167 -29.5 54.5s-24.834 33.166 -39.501 47.499s-30.5 27.333 -47.5 39s-35.167 21.667 -54.5 30s-39.333 14.666 -60 18.999s-42.334 6.5 -65.001 6.5c-22 0 -43.333 -2.16699 -64 -6.5s-40.667 -10.666 -60 -18.999s-37.5 -18.333 -54.5 -30
s-32.833 -24.667 -47.5 -39s-27.834 -30.166 -39.501 -47.499s-21.5 -35.5 -29.5 -54.5s-14.167 -39 -18.5 -60s-6.5 -42.5 -6.5 -64.5s2.16699 -43.5 6.5 -64.5s10.5 -41 18.5 -60s17.833 -37.167 29.5 -54.5s24.834 -33.166 39.501 -47.499s30.5 -27.333 47.5 -39
s35.167 -21.5 54.5 -29.5s39.333 -14.333 60 -19s42 -7 64 -7zM421 -5c-25.333 0 -50 2.33301 -74 7s-47.167 11.834 -69.5 21.501s-43.333 21.167 -63 34.5s-38 28.333 -55 45s-32.167 35 -45.5 55s-24.666 41 -33.999 63s-16.5 45.167 -21.5 69.5s-7.5 49.166 -7.5 74.499
s2.5 50.166 7.5 74.499s12.167 47.5 21.5 69.5s20.666 43 33.999 63s28.5 38.333 45.5 55s35.333 31.834 55 45.501s40.667 25.167 63 34.5s45.5 16.5 69.5 21.5s48.667 7.5 74 7.5c26 0 51 -2.5 75 -7.5s47.167 -12.167 69.5 -21.5s43.333 -20.833 63 -34.5
s38 -28.834 55 -45.501s32.167 -35 45.5 -55s24.666 -41 33.999 -63s16.5 -45.167 21.5 -69.5s7.5 -49.166 7.5 -74.499s-2.5 -50.166 -7.5 -74.499s-12.167 -47.5 -21.5 -69.5s-20.666 -43 -33.999 -63s-28.5 -38.333 -45.5 -55s-35.333 -31.667 -55 -45
s-40.667 -24.833 -63 -34.5s-45.5 -16.834 -69.5 -21.501s-49 -7 -75 -7zM278 162l-0.000976562 414.998h186c23.333 0 44 -2.83301 62 -8.5s33.333 -13.5 46 -23.5s22 -21.833 28 -35.5s8.66699 -28.167 8 -43.5c-1.33301 -17.333 -4.5 -32.666 -9.5 -45.999
s-11.667 -24.666 -20 -33.999s-18.166 -16.833 -29.499 -22.5s-24 -9.5 -38 -11.5l95 -194h-91l-84 182h-76v-178h-77zM354.999 388.998l86.999 0.000976562c14.667 0 27.167 2 37.5 6s19 9.16699 26 15.5s12.167 13.666 15.5 21.999s5 17.166 5 26.499s-2 18.333 -6 27
s-9.5 16.334 -16.5 23.001s-15.667 12.167 -26 16.5s-22.166 6.5 -35.499 6.5h-87v-143z" />
    <glyph glyph-name="agrave" unicode="&#xe0;" horiz-adv-x="635" 
d="M8 232l100.999 -0.000976562c8.66699 0 16.667 -1.33301 24 -4s14 -6.16699 20 -10.5s11.5 -9.66602 16.5 -15.999s9.16699 -13.166 12.5 -20.499c5.33301 -11.333 9 -21.833 11 -31.5s2.83301 -19.334 2.5 -29.001s-1.66602 -19.167 -3.99902 -28.5
s-5.5 -19.333 -9.5 -30c-5.33301 -17.333 -14.5 -31 -27.5 -41s-28.5 -15.333 -46.5 -16h-25h-25h-24.5h-25.5v227zM38.999 205.999l-0.000976562 -175.001c10.667 0 21.167 -0.666992 31.5 -2s20 -1.66602 29 -0.999023s17.333 2.83398 25 6.50098s14.5 10.5 20.5 20.5
c6.66699 10 12 21.333 16 34s5.83301 25.5 5.5 38.5s-3 25.5 -8 37.5s-12.5 21.667 -22.5 29c-7.33301 5.33301 -14.833 8.83301 -22.5 10.5s-15.5 2.66699 -23.5 3s-16.167 0.166016 -24.5 -0.500977s-17.166 -1 -26.499 -1zM393.998 162.998l-5.00293 15.5
c-1.33301 4.33301 -3.16602 8.16602 -5.49902 11.499s-5.5 6 -9.5 8s-10 4.33301 -18 7c-6 2 -12 3.66699 -18 5s-12.167 1.66602 -18.5 0.999023s-12.333 -2.16699 -18 -4.5s-11.5 -5.83301 -17.5 -10.5c-5.33301 -3.33301 -10 -7.66602 -14 -12.999
s-7.5 -11.333 -10.5 -18s-5.5 -13.5 -7.5 -20.5s-3.33301 -14.333 -4 -22s-0.666992 -15.167 0 -22.5s2 -14.5 4 -21.5s4.83301 -13.5 8.5 -19.5s8.16699 -11 13.5 -15c7.33301 -7.33301 15.5 -12.833 24.5 -16.5s18.333 -5.33398 28 -5.00098s19 2.33301 28 6
s17.167 9.16699 24.5 16.5c4 4 7.16699 8 9.5 12s4.33301 8 6 12s2.66699 8.5 3 13.5s0.5 10.5 0.5 16.5h-70v26h98v-120h-19l-8 29c-2.66699 -3.33301 -5.66699 -6.66602 -9 -9.99902s-6.66602 -6.33301 -9.99902 -9s-6.83301 -5 -10.5 -7s-8.16699 -3.33301 -13.5 -4
c-5.33301 -1.33301 -10.333 -2.33301 -15 -3s-9.33398 -1 -14.001 -1s-9.5 0.166992 -14.5 0.5s-10.167 0.833008 -15.5 1.5c-12.667 2 -23.667 5.83301 -33 11.5s-17.666 13.834 -24.999 24.501c-6.66699 12 -11.667 24.5 -15 37.5s-5 26.5 -5 40.5
c0 16 2.16699 30.833 6.5 44.5s11.5 26.834 21.5 39.501c6.66699 8 13 14.333 19 19s12.5 8.33398 19.5 11.001s14.333 4.5 22 5.5s16.5 1.5 26.5 1.5c8.66699 -0.666992 17 -1.83398 25 -3.50098s15.333 -4.33398 22 -8.00098s12.834 -8.5 18.501 -14.5s10.5 -13 14.5 -21
c2 -4 3.83301 -8.5 5.5 -13.5s2.5 -9.5 2.5 -13.5h-14h-14zM490.995 231.998v-200h116v-27h-146v227h30z" />
    <glyph glyph-name="endash" unicode="&#x2013;" horiz-adv-x="512" 
d="M0 260c0 2 0.668945 4.16699 2.00195 6.5s3 4.33301 5 6s4.16699 3 6.5 4s4.5 1.5 6.5 1.5h471c2 0 4.16699 -0.5 6.5 -1.5s4.5 -2.33301 6.5 -4s3.5 -3.5 4.5 -5.5s1.5 -4 1.5 -6v-26c0 -2 -0.5 -4 -1.5 -6s-2.5 -3.83301 -4.5 -5.5s-4.16699 -3 -6.5 -4
s-4.5 -1.5 -6.5 -1.5h-476c-2 0 -3.83301 0.666992 -5.5 2s-3.33398 2.83301 -5.00098 4.5s-2.83398 3.66699 -3.50098 6s-1 4.5 -1 6.5v23z" />
    <glyph glyph-name="emdash" unicode="&#x2014;" horiz-adv-x="1024" 
d="M0 260c0 2 0.666992 4.16699 2 6.5s3 4.33301 5 6s4.16699 3 6.5 4s4.5 1.5 6.5 1.5h978c2 0 4.16699 -0.5 6.5 -1.5s4.5 -2.33301 6.5 -4s3.5 -3.5 4.5 -5.5s1.5 -4 1.5 -6v-26c0 -2 -0.5 -4 -1.5 -6s-2.5 -3.83301 -4.5 -5.5s-4.16699 -3 -6.5 -4s-4.5 -1.5 -6.5 -1.5
h-983c-2 0 -3.83301 0.666992 -5.5 2s-3.16699 2.83301 -4.5 4.5s-2.5 3.66699 -3.5 6s-1.5 4.5 -1.5 6.5v23z" />
    <glyph glyph-name="quoteleft" unicode="&#x2018;" horiz-adv-x="205" 
d="M102 557c-6.66699 0 -13.1699 0.834961 -19.5029 2.50195s-12.166 4.5 -17.499 8.5s-9.66602 9.5 -12.999 16.5s-5 16.167 -5 27.5v112h67l-44 -66l16.5 5.5c5 1.66699 10.167 2.5 15.5 2.5c8.66699 0 16.167 -1.66699 22.5 -5s11.833 -7.5 16.5 -12.5
s8.33398 -10.667 11.001 -17s4 -12.5 4 -18.5c0 -9.33301 -1.66699 -17.333 -5 -24s-7.5 -12.334 -12.5 -17.001s-10.833 -8.33398 -17.5 -11.001s-13 -4 -19 -4z" />
    <glyph glyph-name="quoteright" unicode="&#x2019;" horiz-adv-x="205" 
d="M102 724c6 0 12.335 -0.666992 19.002 -2s12.5 -4.16602 17.5 -8.49902s9.16699 -10 12.5 -17s5 -15.833 5 -26.5v-113h-67l44 67c-5.33301 -2.66699 -10.666 -4.83398 -15.999 -6.50098s-10.666 -2.5 -15.999 -2.5c-8 0 -15.333 1.66699 -22 5s-12.334 7.5 -17.001 12.5
s-8.33398 10.667 -11.001 17s-4 12.833 -4 19.5c0 8.66699 1.66699 16.5 5 23.5s7.66602 12.833 12.999 17.5s11.166 8.16699 17.499 10.5s12.833 3.5 19.5 3.5z" />
    <glyph glyph-name="quotedblleft" unicode="&#x201c;" horiz-adv-x="345" 
d="M102 557c-6.66699 0 -13.1699 0.834961 -19.5029 2.50195s-12.166 4.5 -17.499 8.5s-9.66602 9.5 -12.999 16.5s-5 16.167 -5 27.5v112h67l-44 -66l16.5 5.5c5 1.66699 10.167 2.5 15.5 2.5c8.66699 0 16.167 -1.66699 22.5 -5s11.833 -7.5 16.5 -12.5
s8.33398 -10.667 11.001 -17s4 -12.5 4 -18.5c0 -9.33301 -1.66699 -17.333 -5 -24s-7.5 -12.334 -12.5 -17.001s-10.833 -8.33398 -17.5 -11.001s-13 -4 -19 -4zM240.997 557.002c-6 0 -12.335 0.834961 -19.002 2.50195s-12.5 4.5 -17.5 8.5s-9.16699 9.5 -12.5 16.5
s-5 16.167 -5 27.5v112h67l-44 -66c5.33301 2 10.5 3.83301 15.5 5.5s10.5 2.5 16.5 2.5c8 0 15.333 -1.66699 22 -5s12.334 -7.5 17.001 -12.5s8.16699 -10.667 10.5 -17s3.5 -12.5 3.5 -18.5c0 -9.33301 -1.5 -17.333 -4.5 -24s-7.16699 -12.334 -12.5 -17.001
s-11.166 -8.33398 -17.499 -11.001s-12.833 -4 -19.5 -4z" />
    <glyph glyph-name="quotedblright" unicode="&#x201d;" horiz-adv-x="345" 
d="M241 724c6.66699 0 13.1699 -0.666992 19.5029 -2s12.166 -4.16602 17.499 -8.49902s9.5 -10 12.5 -17s4.5 -15.833 4.5 -26.5v-113h-67l45 67c-6 -2.66699 -11.5 -4.83398 -16.5 -6.50098s-10.167 -2.5 -15.5 -2.5c-8.66699 0 -16.334 1.66699 -23.001 5
s-12.334 7.5 -17.001 12.5s-8.16699 10.667 -10.5 17s-3.5 12.833 -3.5 19.5c0 8.66699 1.66699 16.5 5 23.5s7.5 12.833 12.5 17.5s10.833 8.16699 17.5 10.5s13 3.5 19 3.5zM102.003 724c6 0 12.335 -0.666992 19.002 -2s12.5 -4.16602 17.5 -8.49902
s9.16699 -10 12.5 -17s5 -15.833 5 -26.5v-113h-67l44 67c-5.33301 -2.66699 -10.666 -4.83398 -15.999 -6.50098s-10.666 -2.5 -15.999 -2.5c-8 0 -15.333 1.66699 -22 5s-12.334 7.5 -17.001 12.5s-8.33398 10.667 -11.001 17s-4 12.833 -4 19.5
c0 8.66699 1.66699 16.5 5 23.5s7.66602 12.833 12.999 17.5s11.166 8.16699 17.499 10.5s12.833 3.5 19.5 3.5z" />
    <glyph glyph-name="dagger" unicode="&#x2020;" horiz-adv-x="400" 
d="M166 722h66c3.33301 0 6 -1 8 -3s3 -4.66699 3 -8v-142h109c1.33301 0 2.83301 -0.5 4.5 -1.5s3.16699 -2.16699 4.5 -3.5s2.5 -3 3.5 -5s1.5 -3.66699 1.5 -5v-33c0 -2 -0.5 -3.83301 -1.5 -5.5s-2.16699 -3.16699 -3.5 -4.5s-2.83301 -2.5 -4.5 -3.5
s-3.16699 -1.5 -4.5 -1.5h-109v-583c0 -3.33301 -1 -6 -3 -8s-4.66699 -3 -8 -3h-66c-2.66699 0 -5.16699 1 -7.5 3s-3.5 4.66699 -3.5 8v584h-111c-1.33301 0 -3.16602 0.333008 -5.49902 1s-3.5 1.66699 -3.5 3v53c0 1.33301 1.16699 2.5 3.5 3.5s4.16602 1.5 5.49902 1.5
h111v142c0 3.33301 1.16699 6 3.5 8s4.83301 3 7.5 3z" />
    <glyph glyph-name="daggerdbl" unicode="&#x2021;" horiz-adv-x="400" 
d="M166 722l66 0.000976562c3.33301 0 6 -1 8 -3s3 -4.66699 3 -8v-215l109 -1c1.33301 0 2.83301 -0.333008 4.5 -1s3.16699 -1.83398 4.5 -3.50098s2.5 -3.33398 3.5 -5.00098s1.5 -3.5 1.5 -5.5v-33c0 -2 -0.5 -3.83301 -1.5 -5.5s-2.16699 -3.16699 -3.5 -4.5
s-2.83301 -2.33301 -4.5 -3s-3.16699 -1 -4.5 -1h-109v-228h110c1.33301 0 2.83301 -0.5 4.5 -1.5s3 -2.16699 4 -3.5s1.83301 -2.83301 2.5 -4.5s1 -3.5 1 -5.5v-34c0 -1.33301 -0.333008 -2.83301 -1 -4.5s-1.5 -3.16699 -2.5 -4.5s-2.33301 -2.33301 -4 -3
s-3.16699 -1 -4.5 -1h-110v-220c0 -3.33301 -1 -6 -3 -8s-4.66699 -3 -8 -3h-66c-2.66699 0 -5.16699 1.16699 -7.5 3.5s-3.5 4.83301 -3.5 7.5v220h-106c-3.33301 0 -6.33301 1.33301 -9 4s-4 5.33398 -4 8.00098v35c0 2 0.5 3.83301 1.5 5.5s2.16699 3.16699 3.5 4.5
s2.83301 2.5 4.5 3.5s3.5 1.5 5.5 1.5h104v228h-111c-1.33301 0 -3.16602 0.333008 -5.49902 1s-3.5 1.66699 -3.5 3v53c0 2 1.16699 3.33301 3.5 4s4.16602 1 5.49902 1h111v216c0 3.33301 1.16699 6 3.5 8s4.83301 3 7.5 3z" />
    <glyph glyph-name="bullet" unicode="&#x2022;" horiz-adv-x="600" 
d="M300 232c-20.667 0 -40 3.83301 -58 11.5s-33.667 18.167 -47 31.5s-23.833 29 -31.5 47s-11.5 37.333 -11.5 58s3.83301 40 11.5 58s18.167 33.667 31.5 47s29 23.833 47 31.5s37.333 11.5 58 11.5s40 -3.83301 58 -11.5s33.667 -18.167 47 -31.5s24 -29 32 -47
s12 -37.333 12 -58s-4 -40 -12 -58s-18.667 -33.667 -32 -47s-29 -23.833 -47 -31.5s-37.333 -11.5 -58 -11.5z" />
    <glyph glyph-name="trademark" unicode="&#x2122;" horiz-adv-x="853" 
d="M120 728h224v-39h-84v-229h-54v229h-86v39zM404 459v269h75l76 -191l70 191h74v-268h-48v222l-83 -222h-29l-86 222v-223h-49z" />
    <glyph glyph-name="glyph1" horiz-adv-x="0" 
 />
    <glyph glyph-name="glyph2" horiz-adv-x="1024" 
 />
  </font>
</defs>
</svg>
