<?xml version="1.0" standalone="no"?>
<!DOCTYPE svg PUBLIC "-//W3C//DTD SVG 1.1//EN" "http://www.w3.org/Graphics/SVG/1.1/DTD/svg11.dtd" >
<svg>
<metadata>
Created by FontForge 20090914 at Mon Jul 14 01:17:22 2014
 By www-data
URW Software, Copyright 1994 by URW
</metadata>
<defs>
<font id="AlgerianBasD" horiz-adv-x="500" >
  <font-face 
    font-family="Algerian Basic D"
    font-weight="400"
    font-stretch="normal"
    units-per-em="1000"
    panose-1="2 0 5 6 7 0 0 2 0 3"
    ascent="800"
    descent="-200"
    x-height="666.999"
    cap-height="667"
    bbox="-253.002 -215.002 1133 838.99"
    underline-thickness="65"
    underline-position="-26"
    unicode-range="U+0005-U+2122"
  />
<missing-glyph horiz-adv-x="250" 
 />
    <glyph glyph-name=".notdef" horiz-adv-x="250" 
 />
    <glyph glyph-name="breve" 
d="M139 821c1.33301 -9.33301 3 -16.5 5 -21.5s4.66699 -9.16699 8 -12.5c7.33301 -9.33301 20.5 -16.833 39.5 -22.5s39.167 -8.5 60.5 -8.5s41.166 2.66699 59.499 8s31.166 12.666 38.499 21.999c6 6.66699 10 18.334 12 35.001h35
c0.666992 -36.667 -12.5 -66.167 -39.5 -88.5s-62.167 -33.5 -105.5 -33.5c-21.333 0 -41.166 2.83301 -59.499 8.5s-34.166 13.667 -47.499 24s-23.833 22.333 -31.5 36s-11.5 28.5 -11.5 44.5v9h37z" />
    <glyph glyph-name="dotaccent" 
d="M250 811c13.333 0 24.832 -5 34.499 -15s14.5 -21.667 14.5 -35c0 -14 -4.83301 -25.833 -14.5 -35.5s-21.5 -14.5 -35.5 -14.5s-25.833 4.83301 -35.5 14.5s-14.5 21.5 -14.5 35.5s4.83301 25.833 14.5 35.5s21.834 14.5 36.501 14.5z" />
    <glyph glyph-name="ring" 
d="M252 835c20 0 37.166 -7.33105 51.499 -21.998s21.5 -32.334 21.5 -53.001s-7.16699 -38.167 -21.5 -52.5s-32.166 -21.5 -53.499 -21.5c-20.667 0 -38.167 7.16699 -52.5 21.5s-21.5 31.833 -21.5 52.5c0 21.333 7.33301 39.166 22 53.499s32.667 21.5 54 21.5z
M249.999 794.002c-9.33301 0 -17.166 -3.33301 -23.499 -10s-9.5 -14.667 -9.5 -24s3.33301 -17.333 10 -24s14.667 -10 24 -10s17.166 3.33301 23.499 10s9.5 14.667 9.5 24s-3.33301 17.333 -10 24s-14.667 10 -24 10z" />
    <glyph glyph-name="hungarumlaut" unicode="&#xa;" 
d="M212 709h-52l76 102h103zM357 709h-52l76 102h103z" />
    <glyph glyph-name="ogonek" 
d="M436 0c-13.333 -8 -26.166 -17.499 -38.499 -28.499s-23.333 -22.5 -33 -34.5s-17.334 -23.667 -23.001 -35s-8.5 -21 -8.5 -29c0 -5.33301 2.16699 -10 6.5 -14s9.5 -6 15.5 -6c22.667 0 48 17 76 51c-3.33301 -10.667 -5.83301 -22.834 -7.5 -36.501
s-2.83398 -29.167 -3.50098 -46.5c-29.333 -14 -56.333 -21 -81 -21c-17.333 0 -32.333 6.66699 -45 20s-19 29.333 -19 48c0 22 7.33301 43.5 22 64.5s38.334 43.5 71.001 67.5h68z" />
    <glyph glyph-name="caron" 
d="M128 811h84l53 -60l52 60h55l-88 -102h-67z" />
    <glyph glyph-name="dotlessi" unicode="&#xd;" horiz-adv-x="303" 
d="M276 667l-73 -60v-547l73 -60h-249l73 60v547l-73 60h249z" />
    <glyph glyph-name="fraction" horiz-adv-x="100" 
d="M-127 0h-50l405 661h50z" />
    <glyph glyph-name="fi" horiz-adv-x="865" 
d="M575 667l-32.499 -40.502c-9 -11.667 -16.833 -23.167 -23.5 -34.5s-12.834 -23.666 -18.501 -36.999s-11.834 -29 -18.501 -47c-1.33301 3.33301 -2.66602 6.16602 -3.99902 8.49902s-2.66602 5.16602 -3.99902 8.49902c-9.33301 20.667 -18.5 37.334 -27.5 50.001
s-19.833 22.667 -32.5 30s-27.834 12.333 -45.501 15s-39.5 4 -65.5 4c-18 0 -34.333 -0.166992 -49 -0.5s-31.667 -1.16602 -51 -2.49902v-241h141l67 80v-203l-67 80h-141v-277l73 -60h-249l73 60v277c-22 1.33301 -41.833 -1.16699 -59.5 -7.5
s-34.167 -16.166 -49.5 -29.499c14 53.333 50.333 80 109 80v227l-73 60h548zM838.001 666.998l-73 -60v-547l73 -60h-249l73 60v547l-73 60h249z" />
    <glyph glyph-name="fl" horiz-adv-x="1119" 
d="M575 667l-32.499 -40.502c-9 -11.667 -16.833 -23.167 -23.5 -34.5s-12.834 -23.666 -18.501 -36.999s-11.834 -29 -18.501 -47c-1.33301 3.33301 -2.66602 6.16602 -3.99902 8.49902s-2.66602 5.16602 -3.99902 8.49902c-9.33301 20.667 -18.5 37.334 -27.5 50.001
s-19.833 22.667 -32.5 30s-27.834 12.333 -45.501 15s-39.5 4 -65.5 4c-18 0 -34.333 -0.166992 -49 -0.5s-31.667 -1.16602 -51 -2.49902v-241h141l67 80v-203l-67 80h-141v-277l73 -60h-249l73 60v277c-22 1.33301 -41.833 -1.16699 -59.5 -7.5
s-34.167 -16.166 -49.5 -29.499c14 53.333 50.333 80 109 80v227l-73 60h548zM838.001 666.998l-73 -60.001v-561c19.333 -1.33301 35.333 -2.16602 48 -2.49902s25.667 -0.5 39 -0.5c54.667 0 96 11.667 124 35s46.667 62 56 116c7.33301 -21.333 15.5 -42.5 24.5 -63.5
s18.167 -40.333 27.5 -58s18.333 -33 27 -46s16 -21.833 22 -26.5h-544l73 60v547l-73 60h249z" />
    <glyph glyph-name="Lslash" horiz-adv-x="558" 
d="M355 478v-55.001l-152 -114v-263c19.333 -1.33301 35.333 -2.16602 48 -2.49902s25.667 -0.5 39 -0.5c55.333 0 97 11.667 125 35s46.667 62 56 116c7.33301 -21.333 15.5 -42.5 24.5 -63.5s18.167 -40.333 27.5 -58s18.333 -33 27 -46s16 -21.833 22 -26.5h-545l73 60
v181l-73 -59v54l73 59v312l-73 60h250l-74 -60v-243z" />
    <glyph glyph-name="lslash" horiz-adv-x="558" 
d="M355 478v-55.001l-152 -114v-263c19.333 -1.33301 35.333 -2.16602 48 -2.49902s25.667 -0.5 39 -0.5c55.333 0 97 11.667 125 35s46.667 62 56 116c7.33301 -21.333 15.5 -42.5 24.5 -63.5s18.167 -40.333 27.5 -58s18.333 -33 27 -46s16 -21.833 22 -26.5h-545l73 60
v181l-73 -59v54l73 59v312l-73 60h250l-74 -60v-243z" />
    <glyph glyph-name="Zcaron" horiz-adv-x="591" 
d="M154 46c18 -1.33301 33.001 -2.16309 45.001 -2.49609s28 -0.5 48 -0.5c34 0 62.5 1 85.5 3s42.667 5.66699 59 11s30.166 12.666 41.499 21.999s22 21.333 32 36c7.33301 9.33301 13.5 18.666 18.5 27.999s10.167 19.666 15.5 30.999c14.667 -38 29.834 -72 45.501 -102
s31.167 -54 46.5 -72h-591l414 621c-16 1.33301 -30.167 2.16602 -42.5 2.49902s-27.5 0.5 -45.5 0.5c-30 0 -55.333 -0.666992 -76 -2s-38.167 -3.5 -52.5 -6.5s-26.5 -7.33301 -36.5 -13s-19.667 -12.834 -29 -21.501c-10.667 -9.33301 -19.334 -19.666 -26.001 -30.999
s-13 -25.333 -19 -42l-19 42.5c-5.33301 12.333 -11 24.333 -17 36s-12.5 23.667 -19.5 36l-25.5 44.5h564zM174.001 811.003h84l53 -60l52 60h55l-88 -102h-67z" />
    <glyph glyph-name="zcaron" horiz-adv-x="591" 
d="M154 46c18 -1.33301 33.001 -2.16309 45.001 -2.49609s28 -0.5 48 -0.5c34 0 62.5 1 85.5 3s42.667 5.66699 59 11s30.166 12.666 41.499 21.999s22 21.333 32 36c7.33301 9.33301 13.5 18.666 18.5 27.999s10.167 19.666 15.5 30.999c14.667 -38 29.834 -72 45.501 -102
s31.167 -54 46.5 -72h-591l414 621c-16 1.33301 -30.167 2.16602 -42.5 2.49902s-27.5 0.5 -45.5 0.5c-30 0 -55.333 -0.666992 -76 -2s-38.167 -3.5 -52.5 -6.5s-26.5 -7.33301 -36.5 -13s-19.667 -12.834 -29 -21.501c-10.667 -9.33301 -19.334 -19.666 -26.001 -30.999
s-13 -25.333 -19 -42l-19 42.5c-5.33301 12.333 -11 24.333 -17 36s-12.5 23.667 -19.5 36l-25.5 44.5h564zM174.001 811.003h84l53 -60l52 60h55l-88 -102h-67z" />
    <glyph glyph-name="space" unicode=" " horiz-adv-x="250" 
 />
    <glyph glyph-name="space" unicode="&#xa0;" horiz-adv-x="250" 
 />
    <glyph glyph-name="exclam" unicode="!" horiz-adv-x="288" 
d="M135 176c-1.33301 37.333 -4 71.333 -8 102s-10 59.5 -18 86.5s-18.333 52.833 -31 77.5s-27.667 49.667 -45 75c16 7.33301 30 15.166 42 23.499s22.333 17.833 31 28.5s16 23 22 37s11.333 30 16 48c4.66699 -18 10 -34 16 -48s13.167 -26.333 21.5 -37
s18.5 -20.167 30.5 -28.5s26 -16.166 42 -23.499c-17.333 -25.333 -32.333 -50.333 -45 -75s-23 -50.5 -31 -77.5s-14.167 -55.833 -18.5 -86.5s-6.83301 -64.667 -7.5 -102h-17zM145 128c18 0 33.501 -6.5 46.501 -19.5s19.5 -29.167 19.5 -48.5
c0 -18.667 -6.5 -34.5 -19.5 -47.5s-29.167 -19.5 -48.5 -19.5c-18.667 0 -34.5 6.5 -47.5 19.5s-19.5 28.833 -19.5 47.5c0 19.333 6.66699 35.5 20 48.5s29.666 19.5 48.999 19.5z" />
    <glyph glyph-name="quotedbl" unicode="&#x22;" horiz-adv-x="291" 
d="M124 667l-22 -209h-47l-22 209h91zM258 667l-22 -209h-47l-23 209h92z" />
    <glyph glyph-name="numbersign" unicode="#" horiz-adv-x="600" 
d="M200 0h-67l34 246h-127v43h133l16 109h-124v45h130l31 224h68l-31 -224h114l32 224h66l-31 -224h116v-45h-123l-15 -109h115v-43h-121l-34 -246h-66l34 246h-115zM256 398l-15 -109h115l15 109h-115z" />
    <glyph glyph-name="dollar" unicode="$" horiz-adv-x="593" 
d="M445 645c15.333 -3.33301 27.332 -5.00684 35.999 -5.00684c22 0 45.333 7.66699 70 23c-8.66699 -13.333 -17.667 -28.333 -27 -45s-18.333 -33.667 -27 -51s-16.334 -34 -23.001 -50s-11.667 -30 -15 -42c-14 82 -55.333 132 -124 150v-229l53 -15
c15.333 -4 28.333 -7.66699 39 -11s20 -6.66602 28 -9.99902s15.333 -7 22 -11s13.334 -8.33301 20.001 -13c24 -16.667 42.667 -38.167 56 -64.5s20 -55.166 20 -86.499c0 -39.333 -10.5 -75.166 -31.5 -107.499s-49.5 -56.166 -85.5 -71.499
c-16.667 -7.33301 -34.334 -13.166 -53.001 -17.499s-35 -6.5 -49 -6.5l-19 1v-96h-42v101c-8 0.666992 -15.5 1.66699 -22.5 3s-14.833 3 -23.5 5l-32 7.5c-12.667 3 -29 7.16699 -49 12.5c-13.333 3.33301 -25.333 5.83301 -36 7.5s-20.334 2.5 -29.001 2.5
c-11.333 0 -22.5 -1.83301 -33.5 -5.5s-26.833 -10.5 -47.5 -20.5l38 65c10.667 18.667 19.834 36 27.501 52s14.5 31.333 20.5 46s11.667 30.334 17 47.001c4.66699 -28.667 11.334 -53.5 20.001 -74.5s19.834 -38.667 33.501 -53s30 -25.833 49 -34.5
s41.5 -15.334 67.5 -20.001v266l-45 10.5c-12.667 3 -23.667 5.83301 -33 8.5s-17.5 5.16699 -24.5 7.5s-13.5 4.83301 -19.5 7.5c-30 14 -53.333 34.833 -70 62.5s-25 59.834 -25 96.501c0 57.333 19.167 102.333 57.5 135s91.5 49.667 159.5 51v70h42v-73
c4 -0.666992 7.16699 -1.16699 9.5 -1.5s5.83301 -1.16602 10.5 -2.49902zM333.999 22.9932c21.333 0 39 1.33105 53 3.99805s27 7.33398 39 14.001c19.333 10.667 34.333 24.5 45 41.5s16 35.833 16 56.5c0 28.667 -9.16699 54.834 -27.5 78.501s-42.5 40.5 -72.5 50.5
c-6 2.66699 -12.833 5 -20.5 7s-18.5 5 -32.5 9v-261zM292.999 630.991c-18 0 -36.998 -4 -56.998 -12c-46 -20.667 -69 -52.334 -69 -95.001c0 -25.333 7.83301 -47.333 23.5 -66s38.167 -32.667 67.5 -42c5.33301 -1.33301 10.166 -2.66602 14.499 -3.99902
s11.166 -3.33301 20.499 -6v225z" />
    <glyph glyph-name="percent" unicode="%" horiz-adv-x="780" 
d="M186 671c24 0 46.168 -4.33301 66.501 -13s37.833 -21 52.5 -37s26 -35 34 -57s12 -46.333 12 -73c0 -51.333 -14.333 -92 -43 -122s-67.667 -45 -117 -45c-25.333 0 -48.333 4.16699 -69 12.5s-38.334 20.166 -53.001 35.499s-26 33.833 -34 55.5s-12 45.834 -12 72.501
c0 52 14.667 93.5 44 124.5s69 46.5 119 46.5zM183.001 634c-30 0 -51.667 -10.833 -65 -32.5s-20 -56.167 -20 -103.5c0 -20.667 1.83301 -40 5.5 -58s8.83398 -32.333 15.501 -43c6.66699 -11.333 16.667 -20.333 30 -27s27.666 -10 42.999 -10c56 0 84 45.667 84 137
c0 50 -7 85.333 -21 106s-38 31 -72 31zM213.001 0h-50l405 661h50zM593.001 337c24 0 46.168 -4.33301 66.501 -13s37.833 -21 52.5 -37s26 -35 34 -57s12 -46.333 12 -73c0 -51.333 -14.333 -92 -43 -122s-67.667 -45 -117 -45c-25.333 0 -48.333 4.16699 -69 12.5
s-38.334 20.166 -53.001 35.499s-26 33.833 -34 55.5s-12 45.834 -12 72.501c0 52 14.667 93.5 44 124.5s69 46.5 119 46.5zM590.002 300c-30 0 -51.667 -10.833 -65 -32.5s-20 -56.167 -20 -103.5c0 -20.667 1.83301 -40 5.5 -58s8.83398 -32.333 15.501 -43
c6.66699 -11.333 16.667 -20.333 30 -27s27.666 -10 42.999 -10c56 0 84 45.667 84 137c0 50 -7 85.333 -21 106s-38 31 -72 31z" />
    <glyph glyph-name="ampersand" unicode="&#x26;" horiz-adv-x="709" 
d="M258 424c-4.66699 17.333 -8.00293 33.1709 -10.0029 47.5039s-3 29.166 -3 44.499c0 48 11.833 86.333 35.5 115s54.834 43 93.501 43c17.333 0 33.666 -3.16699 48.999 -9.5s28.666 -14.833 39.999 -25.5s20.333 -23.334 27 -38.001s10 -30.334 10 -47.001
c0 -66 -47.333 -114 -142 -144l44.5 -97c11 -24 20.333 -43.667 28 -59s14.667 -28.166 21 -38.499s14.166 -21.833 23.499 -34.5c6.66699 14 11.167 28.667 13.5 44s3.5 37.333 3.5 66c0 13.333 -0.333008 24.333 -1 33s-1.66699 17.667 -3 27
c50.667 -38.667 96 -65 136 -79c-33.333 -33.333 -70.666 -83.333 -111.999 -150c21.333 -28 41.5 -48.333 60.5 -61s38.833 -19 59.5 -19c8 0 15.333 1.16699 22 3.5s14.667 6.5 24 12.5c4 3.33301 8.66699 5 14 5c11.333 0 17 -5 17 -15
c0 -6.66699 -3.16699 -13.334 -9.5 -20.001s-14.5 -12.834 -24.5 -18.501s-21.167 -10.334 -33.5 -14.001s-24.5 -5.5 -36.5 -5.5c-25.333 0 -50.666 5 -75.999 15s-47.666 23.667 -66.999 41c-27.333 -22.667 -54 -38.834 -80 -48.501s-56.333 -14.5 -91 -14.5
c-36.667 0 -70.334 5.33301 -101.001 16s-57.167 25.834 -79.5 45.501s-39.666 42.834 -51.999 69.501s-18.5 56 -18.5 88c0 36.667 8.83301 70 26.5 100s42.834 54.333 75.501 73c17.333 9.33301 34.833 17.833 52.5 25.5s38.834 15.5 63.501 23.5zM272.997 378.005
c-40 -16 -71.001 -40.5 -93.001 -73.5s-33 -71.5 -33 -115.5c0 -23.333 3.83301 -44.833 11.5 -64.5s18.334 -36.834 32.001 -51.501s29.834 -26.167 48.501 -34.5s38.667 -12.5 60 -12.5c45.333 0 86.666 21.667 123.999 65c-10 12.667 -21.5 29.834 -34.5 51.501
s-26.167 45.5 -39.5 71.5l-40 81.5c-13.333 28.333 -25.333 55.833 -36 82.5zM343.996 450.005c35.333 13.333 60.166 27.8301 74.499 43.4971s21.5 35.834 21.5 60.501c0 22.667 -6.33301 41.167 -19 55.5s-29 21.5 -49 21.5c-17.333 0 -31.333 -5.83301 -42 -17.5
s-16 -27.5 -16 -47.5c0 -17.333 2.33301 -35.166 7 -53.499s12.334 -39.166 23.001 -62.499z" />
    <glyph glyph-name="quotesingle" unicode="'" horiz-adv-x="158" 
d="M124 667l-22 -209h-47l-22 209h91z" />
    <glyph glyph-name="parenleft" unicode="(" horiz-adv-x="348" 
d="M328 687c-57.333 -6 -100.666 -27.335 -129.999 -64.002c-9.33301 -11.333 -17 -24.833 -23 -40.5s-11 -35 -15 -58s-6.83301 -50 -8.5 -81s-2.5 -67.833 -2.5 -110.5c0 -42 0.833008 -78.667 2.5 -110s4.5 -58.333 8.5 -81s9 -41.834 15 -57.501
s13.667 -29.167 23 -40.5c29.333 -36.667 72.666 -58 129.999 -64v-47c-22.667 2.66699 -42.834 5.83398 -60.501 9.50098s-33.667 8.33398 -48 14.001s-27.666 12.5 -39.999 20.5s-24.5 17.667 -36.5 29c-36.667 33.333 -63 75.833 -79 127.5s-24 118.167 -24 199.5
c0 82 8 148.833 24 200.5s42.333 94.167 79 127.5c12 10.667 24.167 20.167 36.5 28.5s25.666 15.333 39.999 21s30.333 10.334 48 14.001s37.834 6.5 60.501 8.5v-46z" />
    <glyph glyph-name="parenright" unicode=")" horiz-adv-x="348" 
d="M20 -20c57.333 6 100.666 27.335 129.999 64.002c8.66699 11.333 16.167 24.833 22.5 40.5s11.5 34.834 15.5 57.501s6.83301 49.667 8.5 81s2.5 68 2.5 110c0 42.667 -0.833008 79.5 -2.5 110.5s-4.5 58 -8.5 81s-9.16699 42.333 -15.5 58s-13.833 29.167 -22.5 40.5
c-29.333 36.667 -72.666 58 -129.999 64v46c22.667 -2 42.667 -4.83301 60 -8.5s33.333 -8.33398 48 -14.001s28.167 -12.667 40.5 -21s24.5 -17.833 36.5 -28.5c36.667 -33.333 63 -75.833 79 -127.5s24 -118.5 24 -200.5c0 -81.333 -8 -147.833 -24 -199.5
s-42.333 -94.167 -79 -127.5c-12 -11.333 -24.167 -21 -36.5 -29s-25.833 -14.833 -40.5 -20.5s-30.667 -10.334 -48 -14.001s-37.333 -6.83398 -60 -9.50098v47z" />
    <glyph glyph-name="asterisk" unicode="*" horiz-adv-x="369" 
d="M235 381c0 35.333 -16.3398 75.333 -49.0068 120c-15.333 -19.333 -27.666 -41 -36.999 -65s-14 -45.667 -14 -65l-84 60c18 4 36.333 13.5 55 28.5s36.667 34.5 54 58.5c-16.667 5.33301 -32 9.16602 -46 11.499s-28 3.5 -42 3.5c-9.33301 0 -18 -0.5 -26 -1.5
s-16.667 -2.5 -26 -4.5l32 98c19.333 -32 58 -57.667 116 -77c0.666992 25.333 -2.16602 50.333 -8.49902 75s-15.166 44.667 -26.499 60h103c-12 -13.333 -21.167 -31.5 -27.5 -54.5s-9.5 -49.5 -9.5 -79.5c24 7.33301 46.667 17.833 68 31.5s38 28.5 50 44.5l32 -98
c-9.33301 3.33301 -17.666 5.66602 -24.999 6.99902s-15.666 2 -24.999 2c-15.333 0 -29.666 -1.33301 -42.999 -4s-28.666 -6.66699 -45.999 -12c15.333 -21.333 32.333 -39.666 51 -54.999s37.667 -26.666 57 -33.999l-83 -60v10z" />
    <glyph glyph-name="plus" unicode="+" horiz-adv-x="467" 
d="M266 545v-185h179v-65h-179v-173h-65v173h-179v65h179v185h65z" />
    <glyph glyph-name="comma" unicode="," horiz-adv-x="228" 
d="M58 65c18.667 6.66699 35.5 13.6689 50.5 21.002s31.833 17 50.5 29c6 -13.333 10.167 -25.333 12.5 -36s3.5 -22.334 3.5 -35.001c0 -42 -13.167 -78.5 -39.5 -109.5s-64.5 -54.167 -114.5 -69.5l-4 7c9.33301 8 16.333 14.167 21 18.5s8.66699 8.5 12 12.5
c7.33301 9.33301 13.5 21.666 18.5 36.999s7.5 30 7.5 44c0 30 -9.33301 55.667 -28 77z" />
    <glyph glyph-name="hyphen" unicode="-" horiz-adv-x="322" 
d="M302 303h-259l-23 61h259z" />
    <glyph glyph-name="period" unicode="." horiz-adv-x="228" 
d="M116 128c18 0 33.501 -6.5 46.501 -19.5s19.5 -29.167 19.5 -48.5c0 -18.667 -6.5 -34.5 -19.5 -47.5s-29.167 -19.5 -48.5 -19.5c-18.667 0 -34.5 6.5 -47.5 19.5s-19.5 28.833 -19.5 47.5c0 19.333 6.66699 35.5 20 48.5s29.666 19.5 48.999 19.5z" />
    <glyph glyph-name="slash" unicode="/" horiz-adv-x="566" 
d="M82 -67h-82l484 800h82z" />
    <glyph glyph-name="zero" unicode="0" horiz-adv-x="605" 
d="M301 674c34.667 0 68.5029 -8.16895 101.503 -24.502s61.167 -39.166 84.5 -68.499c25.333 -32 44.666 -70.667 57.999 -116s20 -95.333 20 -150c0 -51.333 -6 -97.333 -18 -138s-29 -75.5 -51 -104.5s-48.833 -51.167 -80.5 -66.5s-67.167 -23 -106.5 -23
c-40.667 0 -77.5 8.33301 -110.5 25s-61.333 40.334 -85 71.001s-41.834 67.5 -54.501 110.5s-19 90.833 -19 143.5c0 52 6.16699 99 18.5 141s29.833 77.833 52.5 107.5s50.167 52.5 82.5 68.5s68.166 24 107.499 24zM296.003 633.998
c-28 0 -52.332 -6.83203 -72.999 -20.499s-36 -32.167 -46 -55.5c-11.333 -26 -19.833 -58.667 -25.5 -98s-8.5 -82 -8.5 -128s3 -88.5 9 -127.5s14.667 -70.833 26 -95.5c11.333 -25.333 29.333 -46 54 -62s51 -24 79 -24c100.667 0 151 101.333 151 304
c0 53.333 -2.33301 97.666 -7 132.999s-12.334 65 -23.001 89c-12 27.333 -29.667 48.333 -53 63s-51 22 -83 22z" />
    <glyph glyph-name="one" unicode="1" horiz-adv-x="320" 
d="M227 60l73.002 -59.998h-243l73 60v500c-10.667 -7.33301 -23.834 -13.5 -39.501 -18.5s-30.834 -7.5 -45.501 -7.5c-16 0 -29.667 4.16699 -41 12.5s-17 18.166 -17 29.499c0 7.33301 2.5 13.666 7.5 18.999s11.167 8 18.5 8c13.333 0 20 -7.33301 20 -22
c0 -2.66699 -0.333008 -4.66699 -1 -6v-3c0 -6 4.33301 -9 13 -9c23.333 0 46 8.66699 68 26s38.667 40 50 68h64v-597z" />
    <glyph glyph-name="two" unicode="2" horiz-adv-x="530" 
d="M503 0l-483 -0.00390625c13.333 58 36.5 108.333 69.5 151s78.833 81.334 137.5 116.001l37.5 24c9.66699 6 17.834 11.333 24.501 16s12.334 9.16699 17.001 13.5l16 14.5c46.667 42.667 70 95.334 70 158.001c0 44 -12.333 78.5 -37 103.5s-58.334 37.5 -101.001 37.5
c-37.333 0 -68 -10.833 -92 -32.5s-36 -49.167 -36 -82.5c0 -26 7.5 -47.667 22.5 -65s34.167 -26 57.5 -26c13.333 0 24.5 2.16699 33.5 6.5s19.167 12.833 30.5 25.5c-4.66699 -30 -16.334 -53.333 -35.001 -70s-42.334 -25 -71.001 -25c-18.667 0 -36 3.33301 -52 10
s-30 16 -42 28s-21.333 25.833 -28 41.5s-10 32.5 -10 50.5c0 26 5.5 50 16.5 72s26.167 40.833 45.5 56.5s42.333 28 69 37s55.667 13.5 87 13.5c34 0 65.833 -5.16699 95.5 -15.5s55.334 -24.5 77.001 -42.5s38.667 -39.167 51 -63.5s18.5 -50.833 18.5 -79.5
c0 -61.333 -32 -115 -96 -161c-8.66699 -6 -15.834 -11.167 -21.501 -15.5s-13.167 -9.16602 -22.5 -14.499l-38.5 -21l-67.5 -37c-13.333 -7.33301 -27.166 -16.333 -41.499 -27s-27.833 -22.5 -40.5 -35.5s-24.167 -26.333 -34.5 -40s-18.5 -26.5 -24.5 -38.5h211
c22.667 0 42 0.333008 58 1s29.667 1.5 41 2.5s21 2.5 29 4.5s15 4.66699 21 8c19.333 10.667 32 28.334 38 53.001v-152z" />
    <glyph glyph-name="three" unicode="3" horiz-adv-x="539" 
d="M219 399c8 -0.666992 14.9971 -1.00195 20.9971 -1.00195h12c17.333 0 33.5 3 48.5 9s28 14.167 39 24.5s19.667 22.5 26 36.5s9.5 29 9.5 45c0 16.667 -3.33301 32.5 -10 47.5s-16 27.833 -28 38.5s-26 19.167 -42 25.5s-33.333 9.5 -52 9.5
c-34.667 0 -62.834 -9 -84.501 -27s-32.5 -42 -32.5 -72c0 -17.333 4.66699 -31.833 14 -43.5s21.666 -17.5 36.999 -17.5c10.667 0 20.334 2.66699 29.001 8c-5.33301 -14.667 -14.166 -26 -26.499 -34s-26.833 -12 -43.5 -12c-13.333 0 -25.666 2.5 -36.999 7.5
s-21.333 12 -30 21s-15.5 19.167 -20.5 30.5s-7.5 23.666 -7.5 36.999c0 20 5.5 38.667 16.5 56s26.167 32.333 45.5 45s42.166 22.667 68.499 30s54.833 11 85.5 11c32 0 61.333 -3.66699 88 -11s49.334 -17.833 68.001 -31.5s33.167 -30 43.5 -49s15.5 -40.167 15.5 -63.5
c0 -37.333 -13.167 -69.166 -39.5 -95.499s-61.166 -42.5 -104.499 -48.5c57.333 -13.333 101.333 -37 132 -71s46 -76 46 -126c0 -61.333 -21.833 -109.166 -65.5 -143.499s-104.5 -51.5 -182.5 -51.5c-49.333 0 -91.833 8 -127.5 24s-62.5 39 -80.5 69
c-15.333 24.667 -26.333 55 -33 91c12.667 4 24 8 34 12s19.5 8.33301 28.5 13s17.667 9.5 26 14.5s17.166 11.167 26.499 18.5c-2.66699 -11.333 -4.5 -21.833 -5.5 -31.5s-1.5 -20.5 -1.5 -32.5c0 -44.667 11.333 -78.834 34 -102.501s55.334 -35.5 98.001 -35.5
c44 0 78.333 13.5 103 40.5s37 64.167 37 111.5c0 24.667 -3.66699 47.834 -11 69.501s-17.166 40.5 -29.499 56.5s-27 28.5 -44 37.5s-35.5 13.5 -55.5 13.5c-7.33301 0 -15.833 -0.666992 -25.5 -2s-22.167 -3.66602 -37.5 -6.99902l20 56h5z" />
    <glyph glyph-name="four" unicode="4" horiz-adv-x="522" 
d="M304 656c-6 -31.333 -17.8359 -67.665 -35.5029 -108.998s-38.167 -83 -61.5 -125s-48.666 -81.833 -75.999 -119.5s-53.666 -68.834 -78.999 -93.501h241v228c23.333 12 42 23.833 56 35.5s27.667 26.834 41 45.501v-309h35c15.333 0 27.333 -0.5 36 -1.5
s16.667 -2.83301 24 -5.5c11.333 -4.66699 20.333 -11.667 27 -21s10 -19.666 10 -30.999c0 -10.667 -3.33301 -19.334 -10 -26.001s-15.334 -10 -26.001 -10c-9.33301 0 -17 2.5 -23 7.5s-9 11.167 -9 18.5c0 3.33301 0.333008 6.16602 1 8.49902
s2.66699 5.16602 6 8.49902c0.666992 0.666992 1 2 1 4c0 6.66699 -4.33301 10.667 -13 12c-1.33301 0.666992 -2.83301 1 -4.5 1h-18.5h-36v-114l73 -60h-244l74 60v114h-306v17c24 26 47 58.167 69 96.5s41.833 79 59.5 122s31.834 86.167 42.501 129.5
s16.334 82.333 17.001 117h129z" />
    <glyph glyph-name="five" unicode="5" horiz-adv-x="544" 
d="M343 657c19.333 0 34.9971 0.173828 46.9971 0.506836s21.5 1.16602 28.5 2.49902s12.333 3.16602 16 5.49902s6.83398 5.5 9.50098 9.5c4.66699 6 7 12.333 7 19c0 4 -1.33301 6 -4 6c-1.33301 0 -3.33301 -1.33301 -6 -4c-4 -4 -8.66699 -6 -14 -6
c-6.66699 0 -12.334 2.33301 -17.001 7s-7 10 -7 16c0 6.66699 2.33301 12.5 7 17.5s10.334 7.5 17.001 7.5c14 0 26.333 -6.83301 37 -20.5s16 -29.167 16 -46.5c0 -18.667 -5.5 -35.5 -16.5 -50.5s-26.167 -25.833 -45.5 -32.5c-7.33301 -2.66699 -14.666 -5 -21.999 -7
s-15.5 -3.5 -24.5 -4.5s-19.5 -1.66699 -31.5 -2s-26.333 -0.5 -43 -0.5h-179v-174c24 19.333 48.167 33.166 72.5 41.499s51.833 12.5 82.5 12.5c32 0 63.333 -5.66699 94 -17s57.334 -27 80.001 -47c46.667 -40.667 70 -98.334 70 -173.001
c0 -36.667 -7.33301 -70.834 -22 -102.501s-35 -58.167 -61 -79.5c-21.333 -16.667 -48.166 -29.5 -80.499 -38.5s-68.166 -13.5 -107.499 -13.5c-64.667 0 -118.334 14.667 -161.001 44s-68.667 69.333 -78 120c6.66699 2.66699 15.5 6.83398 26.5 12.501s22.333 12 34 19
s23 14.167 34 21.5s19.833 13.666 26.5 18.999c-2 -10.667 -3.33301 -20.334 -4 -29.001s-1 -17.667 -1 -27c0 -26.667 3.16699 -48.334 9.5 -65.001s16.833 -31 31.5 -43c13.333 -10 27.833 -17.833 43.5 -23.5s32.167 -8.5 49.5 -8.5c47.333 0 84.166 18 110.499 54
s39.5 86.333 39.5 151c0 58 -13.167 102.667 -39.5 134s-63.5 47 -111.5 47c-62 0 -112.333 -29.667 -151 -89l-33 20v317h271z" />
    <glyph glyph-name="six" unicode="6" horiz-adv-x="563" 
d="M508 553c-5.33301 -2 -10.167 -4.17578 -14.5 -6.50879s-8.83301 -4.5 -13.5 -6.5c-17.333 -9.33301 -31.666 -17.333 -42.999 -24s-19.333 -11.667 -24 -15c-1.33301 15.333 -2.16602 25.5 -2.49902 30.5s-1.16602 11.167 -2.49902 18.5
c-6.66699 28.667 -19.167 50.834 -37.5 66.501s-41.5 23.5 -69.5 23.5c-25.333 0 -49.5 -8.16699 -72.5 -24.5s-40.167 -38.166 -51.5 -65.499c-12.667 -29.333 -21.834 -63.5 -27.501 -102.5s-8.5 -87.167 -8.5 -144.5c0 -46 2.16699 -84.333 6.5 -115
s11.833 -57.667 22.5 -81c11.333 -25.333 27.833 -45.666 49.5 -60.999s44.834 -23 69.501 -23c20 0 38.667 5.33301 56 16s32.166 25.334 44.499 44.001s22 40.834 29 66.501s10.5 53.834 10.5 84.501c0 54.667 -11 97.667 -33 129s-52 47 -90 47
c-29.333 0 -53.5 -9.5 -72.5 -28.5s-31.167 -46.167 -36.5 -81.5c-1.33301 -10 -3.66602 -17 -6.99902 -21s-7.66602 -6 -12.999 -6c-6 0 -11.167 2.83301 -15.5 8.5s-6.5 12.834 -6.5 21.501c0 10 1.5 21 4.5 33s7.16699 23.667 12.5 35
c13.333 26.667 32.833 47.5 58.5 62.5s55.5 22.5 89.5 22.5c30 0 57.5 -5.5 82.5 -16.5s46.5 -26.667 64.5 -47s31.833 -44.666 41.5 -72.999s14.5 -59.5 14.5 -93.5c0 -36 -5.33301 -69 -16 -99s-25.834 -55.667 -45.501 -77s-43.334 -37.833 -71.001 -49.5
s-58.167 -17.5 -91.5 -17.5c-42 0 -79.833 9 -113.5 27s-61.167 44 -82.5 78c-20 32.667 -35.5 69.667 -46.5 111s-16.5 84 -16.5 128c0 50.667 6.83301 97.5 20.5 140.5s32.667 80.333 57 112s53.166 56.334 86.499 74.001s69.666 26.5 108.999 26.5
c46 0 86 -10.667 120 -32s60.333 -52 79 -92z" />
    <glyph glyph-name="seven" unicode="7" horiz-adv-x="513" 
d="M493 657c-2.66699 -20.667 -6.66602 -41.001 -11.999 -61.001s-12.5 -41.5 -21.5 -64.5s-20.5 -48.667 -34.5 -77s-31.333 -61.166 -52 -98.499c-25.333 -47.333 -44 -96.666 -56 -147.999s-18 -107.333 -18 -168v-19.5c0 -5.66699 0.333008 -12.5 1 -20.5h-139
c2 34 6.33301 66.333 13 97s16 60.834 28 90.501s27.167 59.667 45.5 90s40.166 62.5 65.499 96.5c20.667 26.667 38 49.834 52 69.501s25.667 37.167 35 52.5s16.666 29.166 21.999 41.499s9.33301 24.5 12 36.5h-344v-18c0 -38 -4.16699 -65.667 -12.5 -83
s-22.166 -26 -41.499 -26c-10 0 -18.5 2.66699 -25.5 8s-10.5 11.666 -10.5 18.999s2.33301 13.333 7 18s10 7 16 7c5.33301 0 11 -2.66699 17 -8c3.33301 -2.66699 6 -4 8 -4c6.66699 0 11 5.66699 13 17c0 1.33301 0.166992 2.5 0.5 3.5s0.5 3.16699 0.5 6.5
s0.166992 8.16602 0.5 14.499s0.5 15.5 0.5 27.5v101h430z" />
    <glyph glyph-name="eight" unicode="8" horiz-adv-x="582" 
d="M382 397l45.5 -22.0137c11 -5.33301 20 -10.166 27 -14.499s13.167 -8.83301 18.5 -13.5s11.666 -11 18.999 -19c20 -21.333 35.5 -44.833 46.5 -70.5s16.5 -51.5 16.5 -77.5c0 -29.333 -6 -56.166 -18 -80.499s-29 -45.166 -51 -62.499s-48.333 -30.666 -79 -39.999
s-64.667 -14 -102 -14c-40.667 0 -78 5 -112 15s-63.333 24 -88 42s-43.834 39.333 -57.501 64s-20.5 52 -20.5 82c0 29.333 7.33301 56.666 22 81.999s35.667 47 63 65c13.333 8 26.166 15.167 38.499 21.5l47.5 23.5c-45.333 19.333 -77.833 40 -97.5 62
s-29.5 48.667 -29.5 80c0 26.667 6.66699 50.667 20 72s34 42.333 62 63l12.5 8l14.5 8.5l20 11l29 15.5c34.667 18 62.5 34 83.5 48s31.5 23.667 31.5 29c0 2 -0.5 3.5 -1.5 4.5s-4.5 3.16699 -10.5 6.5c-8.66699 4.66699 -13 12.334 -13 23.001c0 8 2.83301 15 8.5 21
s12.5 9 20.5 9c9.33301 0 17.833 -4.83301 25.5 -14.5s11.5 -20.834 11.5 -33.501c0 -11.333 -3.66699 -22.166 -11 -32.499s-19.666 -21.5 -36.999 -33.5c-6 -4 -11 -7.5 -15 -10.5s-9.5 -6.66699 -16.5 -11l-28 -17.5l-48.5 -30c-6 -3.33301 -13.833 -8.83301 -23.5 -16.5
s-17.167 -14.167 -22.5 -19.5c-18.667 -19.333 -28 -40.666 -28 -63.999c0 -10.667 1.83301 -20.5 5.5 -29.5s9.66699 -17.667 18 -26s19.5 -16.666 33.5 -24.999s31.333 -17.166 52 -26.499c12 -5.33301 23 -9.66602 33 -12.999s20.667 -6.66602 32 -9.99902
c39.333 11.333 69.333 27.333 90 48s31 44.334 31 71.001c0 12 -2.33301 23.167 -7 33.5s-11.167 19.333 -19.5 27s-18.166 13.667 -29.499 18s-23.333 6.5 -36 6.5c-16.667 0 -31.5 -3.66699 -44.5 -11s-22.167 -17.666 -27.5 -30.999c-2.66699 -6 -5 -10 -7 -12
s-4.66699 -3 -8 -3c-10.667 0 -16 7.66699 -16 23c0 21.333 9.33301 39 28 53s42.334 21 71.001 21c19.333 0 37.5 -3.16699 54.5 -9.5s31.833 -15.166 44.5 -26.499s22.667 -24.666 30 -39.999s11 -31.666 11 -48.999c0 -14.667 -2 -28 -6 -40s-10.667 -23.833 -20 -35.5
s-21.5 -23 -36.5 -34s-33.5 -22.833 -55.5 -35.5zM235 355.986c-22 -12 -40.667 -24 -56 -36s-27.666 -24.667 -36.999 -38s-16.166 -27.5 -20.499 -42.5s-6.5 -31.833 -6.5 -50.5c0 -28.667 6 -54.834 18 -78.501s28.667 -42.5 50 -56.5
c13.333 -9.33301 32.333 -16.833 57 -22.5s50.667 -8.5 78 -8.5c31.333 0 55.166 2.5 71.499 7.5s31.166 14.5 44.499 28.5c25.333 26.667 38 58 38 94s-11.167 67.333 -33.5 94s-57.166 50.334 -104.499 71.001c-4.66699 2 -8.83398 3.66699 -12.501 5
s-8.66699 3.33301 -15 6s-15 6 -26 10z" />
    <glyph glyph-name="nine" unicode="9" horiz-adv-x="544" 
d="M383 401c10.667 0 15.998 -9.33496 15.998 -28.002c0 -21.333 -4.5 -41 -13.5 -59s-21.5 -33.833 -37.5 -47.5s-34.833 -24.334 -56.5 -32.001s-44.834 -11.5 -69.501 -11.5c-29.333 0 -56.333 5.16699 -81 15.5s-46 24.666 -64 42.999s-32 40.333 -42 66
s-15 53.834 -15 84.501c0 34 5.83301 65.833 17.5 95.5s27.834 55.334 48.501 77.001s45 38.667 73 51s58.333 18.5 91 18.5c36.667 0 70.667 -8 102 -24s58.166 -38.333 80.499 -67s39.833 -62.834 52.5 -102.501s19 -83.167 19 -130.5
c0 -80.667 -15.833 -154.667 -47.5 -222s-77.167 -123 -136.5 -167c-34 -25.333 -71.333 -45.166 -112 -59.499s-81 -21.5 -121 -21.5c-20.667 0 -31 5.33301 -31 16c0 9.33301 7.66699 15 23 17c50.667 5.33301 96.834 20.166 138.501 44.499s77.167 56.5 106.5 96.5
c12.667 16.667 24 36.667 34 60s18.5 48.5 25.5 75.5s12.5 55.333 16.5 85s6 59.834 6 90.501c0 37.333 -1.83301 69 -5.5 95s-9.16699 49.667 -16.5 71c-11.333 30.667 -29.833 55.5 -55.5 74.5s-53.5 28.5 -83.5 28.5c-40 0 -71.5 -16.167 -94.5 -48.5
s-34.5 -76.166 -34.5 -131.499c0 -54 12 -96.667 36 -128s57 -47 99 -47c52.667 0 88.334 22 107.001 66c1.33301 2.66699 2.33301 5 3 7s1.33398 4.33301 2.00098 7s1.5 6.33398 2.5 11.001s2.5 11 4.5 19c0.666992 8 5 12 13 12z" />
    <glyph glyph-name="colon" unicode=":" horiz-adv-x="228" 
d="M116 128c18 0 33.501 -6.5 46.501 -19.5s19.5 -29.167 19.5 -48.5c0 -18.667 -6.5 -34.5 -19.5 -47.5s-29.167 -19.5 -48.5 -19.5c-18.667 0 -34.5 6.5 -47.5 19.5s-19.5 28.833 -19.5 47.5c0 19.333 6.66699 35.5 20 48.5s29.666 19.5 48.999 19.5zM116.001 510
c18 0 33.501 -6.5 46.501 -19.5s19.5 -29.167 19.5 -48.5c0 -18.667 -6.5 -34.5 -19.5 -47.5s-29.167 -19.5 -48.5 -19.5c-18.667 0 -34.5 6.5 -47.5 19.5s-19.5 28.833 -19.5 47.5c0 19.333 6.66699 35.5 20 48.5s29.666 19.5 48.999 19.5z" />
    <glyph glyph-name="semicolon" unicode=";" horiz-adv-x="228" 
d="M58 65c18.667 6.66699 35.5 13.6689 50.5 21.002s31.833 17 50.5 29c6 -13.333 10.167 -25.333 12.5 -36s3.5 -22.334 3.5 -35.001c0 -42 -13.167 -78.5 -39.5 -109.5s-64.5 -54.167 -114.5 -69.5l-4 7c9.33301 8 16.333 14.167 21 18.5s8.66699 8.5 12 12.5
c7.33301 9.33301 13.5 21.666 18.5 36.999s7.5 30 7.5 44c0 30 -9.33301 55.667 -28 77zM113 510.002c18 0 33.501 -6.66699 46.501 -20s19.5 -29.333 19.5 -48s-6.5 -34.5 -19.5 -47.5s-29.167 -19.5 -48.5 -19.5c-18.667 0 -34.5 6.5 -47.5 19.5s-19.5 28.833 -19.5 47.5
c0 19.333 6.66699 35.5 20 48.5s29.666 19.5 48.999 19.5z" />
    <glyph glyph-name="less" unicode="&#x3c;" 
d="M459 573l-284 -183l284 -191v-131l-418 282v7l418 266v-50z" />
    <glyph glyph-name="equal" unicode="=" horiz-adv-x="467" 
d="M445 373h-423v65h423v-65zM445 229h-423v65h423v-65z" />
    <glyph glyph-name="greater" unicode="&#x3e;" 
d="M41 117l284 183l-284 192v131l418 -282v-8l-418 -265v49z" />
    <glyph glyph-name="question" unicode="?" horiz-adv-x="419" 
d="M122 456c-4 -2 -8.83691 -5 -14.5039 -9l-18 -13l-19 -14c-6.33301 -4.66699 -11.5 -8.66699 -15.5 -12c-25.333 30 -38 62.667 -38 98c0 22 4.5 42 13.5 60s21.833 33.5 38.5 46.5s36.334 23.167 59.001 30.5s47.667 11 75 11c28.667 0 55.334 -4.16699 80.001 -12.5
s45.834 -19.666 63.501 -33.999s31.5 -31.5 41.5 -51.5s15 -42 15 -66c0 -44.667 -16.333 -82.334 -49 -113.001c-6 -6 -11.167 -10.833 -15.5 -14.5s-10 -8 -17 -13l-28.5 -19.5l-51 -34c-12 -8.66699 -22.167 -17.167 -30.5 -25.5s-16.166 -18.833 -23.499 -31.5
l-9.5 -17.5c-3 -5.66699 -4.5 -9.16699 -4.5 -10.5l2 -44c0 -2 -1.83301 -4.33301 -5.5 -7s-7.16699 -4 -10.5 -4c-8.66699 0 -16.167 5.5 -22.5 16.5s-9.5 24.167 -9.5 39.5c0 24 6.33301 48.167 19 72.5s32.667 50.5 60 78.5c17.333 18 31.666 33.667 42.999 47
s20.333 25.666 27 36.999s11.334 22.333 14.001 33s4 22.334 4 35.001c0 28.667 -8.66699 52 -26 70s-39.666 27 -66.999 27c-12 0 -23.5 -2 -34.5 -6s-20.5 -9.5 -28.5 -16.5s-14.333 -15.167 -19 -24.5s-7 -19.333 -7 -30c0 -12 3.16699 -22.5 9.5 -31.5
s17.166 -18.167 32.499 -27.5l-5 -4zM191.996 128c18 0 33.501 -6.5 46.501 -19.5s19.5 -29.167 19.5 -48.5c0 -18.667 -6.5 -34.5 -19.5 -47.5s-29.167 -19.5 -48.5 -19.5c-18.667 0 -34.5 6.5 -47.5 19.5s-19.5 28.833 -19.5 47.5c0 19.333 6.66699 35.5 20 48.5
s29.666 19.5 48.999 19.5z" />
    <glyph glyph-name="at" unicode="@" horiz-adv-x="742" 
d="M514 314c-1.33301 -16 -2.49902 -28.168 -3.49902 -36.501s-1.66699 -14.833 -2 -19.5s-0.5 -7.83398 -0.5 -9.50098v-5.5c0 -12 3.33301 -22.167 10 -30.5s14.667 -12.5 24 -12.5c14 0 27.5 5.5 40.5 16.5s24.5 25.833 34.5 44.5s18 40.167 24 64.5s9 50.166 9 77.499
c0 33.333 -6.5 64.666 -19.5 93.999s-30.833 54.833 -53.5 76.5s-49 38.834 -79 51.501s-62.333 19 -97 19c-39.333 0 -76.333 -8.5 -111 -25.5s-65 -40.333 -91 -70s-46.5 -64.167 -61.5 -103.5s-22.5 -81.333 -22.5 -126c0 -42 6.83301 -81 20.5 -117s32.667 -67 57 -93
s53.166 -46.5 86.499 -61.5s69.333 -22.5 108 -22.5c18.667 0 38.834 2.16699 60.501 6.5s42.167 10.166 61.5 17.499c8.66699 3.33301 18.167 7.83301 28.5 13.5s25.166 15.167 44.499 28.5c11.333 7.33301 20 11 26 11c7.33301 0 11 -3.66699 11 -11
c0 -10 -10.333 -22.333 -31 -37c-28 -19.333 -60.5 -34.666 -97.5 -45.999s-73.5 -17 -109.5 -17c-48 0 -92.833 8.66699 -134.5 26s-77.667 41 -108 71s-54.333 65.333 -72 106s-26.5 84.667 -26.5 132c0 48.667 9.5 94.5 28.5 137.5s44.833 80.333 77.5 112
s71 56.667 115 75s91 27.5 141 27.5c43.333 0 83.666 -7.16699 120.999 -21.5s69.833 -33.833 97.5 -58.5s49.334 -54 65.001 -88s23.5 -70.333 23.5 -109c0 -32 -5 -62.667 -15 -92s-23.5 -55.166 -40.5 -77.499s-36.5 -40.166 -58.5 -53.499s-45.333 -20 -70 -20
c-46 0 -70.667 23.667 -74 71c-16 -27.333 -32.833 -46.666 -50.5 -57.999s-38.5 -17 -62.5 -17c-40 0 -71.667 14.667 -95 44s-35 68.666 -35 117.999c0 32 5.16699 61.833 15.5 89.5s24.166 52 41.499 73s37.833 37.5 61.5 49.5s48.834 18 75.501 18
c6.66699 0 12.5 -0.166992 17.5 -0.5s10 -1.16602 15 -2.49902s10.5 -3 16.5 -5s13 -4.66699 21 -8c13.333 -5.33301 25 -8 35 -8c6.66699 0 12 0.833008 16 2.5s10.333 5.5 19 11.5zM450.001 404.999l0.000976562 8c0 30.667 -5.33301 54.834 -16 72.501s-25 26.5 -43 26.5
c-14.667 0 -28 -5.16699 -40 -15.5s-22.333 -24.666 -31 -42.999s-15.5 -40.333 -20.5 -66s-7.5 -53.834 -7.5 -84.501c0 -36 5.16699 -64.167 15.5 -84.5s24.5 -30.5 42.5 -30.5c15.333 0 29.833 6.16699 43.5 18.5s24.5 29.166 32.5 50.499
c3.33301 8 6.16602 17.667 8.49902 29s4.5 25 6.5 41z" />
    <glyph glyph-name="A" unicode="A" horiz-adv-x="690" 
d="M420 607l87.998 -235.009c16 10.667 30.167 21 42.5 31s23.166 21 32.499 33c2 -7.33301 4.66699 -15.666 8 -24.999s7 -18.666 11 -27.999s8 -18.166 12 -26.499s7.66699 -14.833 11 -19.5c-7.33301 0.666992 -13 1 -17 1h-13c-14 0 -25.833 -1.16699 -35.5 -3.5
s-20.167 -6.5 -31.5 -12.5l97 -262l78 -60h-262l71 60l-72 189l-35 -35c-13.333 -13.333 -26.5 -28.5 -39.5 -45.5s-22.167 -30.5 -27.5 -40.5c-22.667 36.667 -43.5 67.834 -62.5 93.501s-37.5 47.167 -55.5 64.5l-28 -84c-6.66699 -20 -11.5 -35.5 -14.5 -46.5
s-4.66699 -19.333 -5 -25s-0.5 -12.5 -0.5 -20.5c0 -9.33301 0.666992 -17.666 2 -24.999s4 -14.666 8 -21.999s9.33301 -15.166 16 -23.499s15.334 -18.166 26.001 -29.499l9 -10h-260c22.667 10 43.667 23.5 63 40.5s37.333 38.167 54 63.5s32.334 55 47.001 89
s28.667 73.333 42 118c-13.333 9.33301 -25.5 16 -36.5 20s-25.5 7 -43.5 9c4 6 8.5 13.167 13.5 21.5s9.66699 16.5 14 24.5s8 15.333 11 22s4.83301 11.334 5.5 14.001c5.33301 -7.33301 9.83301 -13 13.5 -17s9.83398 -9.66699 18.501 -17
c7.33301 -6.66699 13 -11.667 17 -15s7 -6 9 -8l90 242l-55 60h239zM237.998 334.991l25.502 -28c7.66699 -8.66699 15.167 -17.667 22.5 -27s14.666 -19.166 21.999 -29.499l25 -34.5l5 -8c3.33301 3.33301 15.666 18.666 36.999 45.999c5.33301 6.66699 12 14.167 20 22.5
s16.667 16.833 26 25.5l-98 258z" />
    <glyph glyph-name="B" unicode="B" horiz-adv-x="639" 
d="M41 600c40 28 83.3359 49.001 130.003 63.001s94.667 21 144 21c37.333 0 71.666 -4.5 102.999 -13.5s58.333 -21.5 81 -37.5s40.334 -35.167 53.001 -57.5s19 -46.5 19 -72.5c0 -38.667 -12.833 -71 -38.5 -97s-62.5 -43.667 -110.5 -53
c26.667 -4 51.167 -11.5 73.5 -22.5s41.666 -24.667 57.999 -41s29 -35 38 -56s13.5 -43.167 13.5 -66.5c0 -18 -2.83301 -35.167 -8.5 -51.5s-13.5 -31.333 -23.5 -45s-22.167 -25.334 -36.5 -35.001s-29.833 -16.834 -46.5 -21.501c-10.667 -2.66699 -21 -5 -31 -7
s-21 -3.5 -33 -4.5s-25.5 -1.66699 -40.5 -2s-32.5 -0.5 -52.5 -0.5h-306l73 60v268c-12.667 -0.666992 -22.667 -1.16699 -30 -1.5s-13.833 -0.666016 -19.5 -0.999023l-16.5 -1c-5.33301 -0.333008 -12 -0.833008 -20 -1.5l22 50
c8.66699 -0.666992 16.167 -1.16699 22.5 -1.5s12.166 -0.5 17.499 -0.5h15.5c2.33301 0 5.16602 -0.333008 8.49902 -1v190zM203.003 370.001l7 0.00195312l60 -1c26 0 50.167 2.16699 72.5 6.5s40.833 10.166 55.5 17.499c18 9.33301 32.5 24.333 43.5 45
s16.5 42.667 16.5 66c0 40 -13 72.667 -39 98s-60 38 -102 38c-20.667 0 -40.167 -2.83301 -58.5 -8.5s-36.833 -14.834 -55.5 -27.501v-234zM203.003 46.0029c32.667 -2 57.667 -2.99902 75 -2.99902c74.667 0 129 11.167 163 33.5s51 58.5 51 108.5
c0 31.333 -6.66699 58.166 -20 80.499s-31.666 37.5 -54.999 45.5c-18 6 -39.833 10.333 -65.5 13s-58.834 4 -99.501 4h-21.5c-7 0 -16.167 -0.333008 -27.5 -1v-281z" />
    <glyph glyph-name="C" unicode="C" horiz-adv-x="595" 
d="M584 667l-34.0029 -60.5029l-26 -49c-8 -15.667 -15.5 -31.667 -22.5 -48s-14.5 -34.833 -22.5 -55.5c-3.33301 25.333 -8 47 -14 65s-13.667 35 -23 51c-13.333 21.333 -31.666 38.5 -54.999 51.5s-47 19.5 -71 19.5c-23.333 0 -46.166 -6.5 -68.499 -19.5
s-40.166 -30.167 -53.499 -51.5c-32 -50.667 -48 -124.667 -48 -222c0 -103.333 17.167 -182.666 51.5 -237.999s83.5 -83 147.5 -83c48 0 86.333 16 115 48s45.667 77.667 51 137c2 14.667 8 22 18 22c13.333 0 20 -11 20 -33c0 -13.333 -1.83301 -28.833 -5.5 -46.5
s-8.16699 -34.167 -13.5 -49.5c-15.333 -39.333 -40.333 -69.5 -75 -90.5s-77.334 -31.5 -128.001 -31.5c-42 0 -81.167 7.33301 -117.5 22s-66.5 36 -90.5 64c-28 31.333 -49.333 69.333 -64 114s-22 93 -22 145s7.16699 99.667 21.5 143s34.5 80.833 60.5 112.5
s56.833 56.334 92.5 74.001s74.5 26.5 116.5 26.5c11.333 0 21.5 -0.333008 30.5 -1s18.333 -2 28 -4s20 -4.83301 31 -8.5s24.167 -8.5 39.5 -14.5c14.667 -5.33301 26.834 -9.16602 36.501 -11.499s19.167 -3.5 28.5 -3.5c11.333 0 21.333 1.66699 30 5
s20.667 10.333 36 21z" />
    <glyph glyph-name="D" unicode="D" horiz-adv-x="614" 
d="M250 667c54.667 0 100 -4.83203 136 -14.499s67 -25.5 93 -47.5c67.333 -58 101 -146.333 101 -265c0 -140.667 -40.667 -238 -122 -292c-13.333 -9.33301 -26.833 -17 -40.5 -23s-28.667 -10.833 -45 -14.5s-34.333 -6.33398 -54 -8.00098s-42.167 -2.5 -67.5 -2.5h-224
l73 60v547l-73 60h223zM203 47.001c18.667 -1.33301 32 -2.33203 40 -2.99902s15.667 -1 23 -1c68 0 118.333 26.333 151 79c16 26 28.333 57.833 37 95.5s13 79.167 13 124.5c0 91.333 -17 161.166 -51 209.499s-83 72.5 -147 72.5c-7.33301 0 -15.833 -0.333008 -25.5 -1
s-23.167 -1.66699 -40.5 -3v-573z" />
    <glyph glyph-name="E" unicode="E" horiz-adv-x="603" 
d="M575 667l-32.5 -40.502c-9 -11.667 -16.833 -23.167 -23.5 -34.5s-12.834 -23.666 -18.501 -36.999s-11.834 -29 -18.501 -47c-1.33301 3.33301 -2.66602 6.16602 -3.99902 8.49902s-2.66602 5.16602 -3.99902 8.49902c-9.33301 20.667 -18.5 37.334 -27.5 50.001
s-19.833 22.667 -32.5 30s-27.834 12.333 -45.501 15s-39.5 4 -65.5 4c-18 0 -34.333 -0.166992 -49 -0.5s-31.667 -1.16602 -51 -2.49902v-241h141l67 80v-203l-67 80h-141v-291c19.333 -1.33301 33.5 -2.16602 42.5 -2.49902s17.833 -0.5 26.5 -0.5
c35.333 0 66.5 2.66699 93.5 8s48.167 13.333 63.5 24c12.667 8.66699 24.5 20.167 35.5 34.5s23.833 34.833 38.5 61.5c4 -18 8.66699 -34.333 14 -49s11.833 -28.667 19.5 -42s16.834 -26.5 27.501 -39.5s23.667 -26.5 39 -40.5h-576l73 60v277
c-22.667 0.666992 -42.5 -2 -59.5 -8s-33.5 -15.667 -49.5 -29c7.33301 27.333 19.833 47.5 37.5 60.5s41.5 19.5 71.5 19.5v227l-73 60h548z" />
    <glyph glyph-name="F" unicode="F" horiz-adv-x="562" 
d="M575 667l-32.499 -40.502c-9 -11.667 -16.833 -23.167 -23.5 -34.5s-12.834 -23.666 -18.501 -36.999s-11.834 -29 -18.501 -47c-1.33301 3.33301 -2.66602 6.16602 -3.99902 8.49902s-2.66602 5.16602 -3.99902 8.49902c-9.33301 20.667 -18.5 37.334 -27.5 50.001
s-19.833 22.667 -32.5 30s-27.834 12.333 -45.501 15s-39.5 4 -65.5 4c-18 0 -34.333 -0.166992 -49 -0.5s-31.667 -1.16602 -51 -2.49902v-241h141l67 80v-203l-67 80h-141v-277l73 -60h-249l73 60v277c-22 1.33301 -41.833 -1.16699 -59.5 -7.5
s-34.167 -16.166 -49.5 -29.499c14 53.333 50.333 80 109 80v227l-73 60h548z" />
    <glyph glyph-name="G" unicode="G" horiz-adv-x="679" 
d="M520 468c-13.333 114.667 -68.3311 172 -164.998 172c-26.667 0 -52.167 -5.16699 -76.5 -15.5s-45.166 -25.166 -62.499 -44.499c-24 -26 -41.667 -58.167 -53 -96.5s-17 -84.833 -17 -139.5c0 -200.667 82.667 -301 248 -301h16.5c5 0 10.667 0.166992 17 0.5
s13.666 0.833008 21.999 1.5s19.166 1.33398 32.499 2.00098v257h-145c-71.333 0 -107 23.333 -107 70c0 15.333 4.83301 28.166 14.5 38.499s21.167 15.5 34.5 15.5c10 0 18.5 -3.16699 25.5 -9.5s10.5 -14.166 10.5 -23.499c0 -8.66699 -2 -15 -6 -19
s-11.667 -7.33301 -23 -10c-4.66699 -1.33301 -7 -3.66602 -7 -6.99902c0 -4.66699 2.5 -7.83398 7.5 -9.50098s14.167 -2.5 27.5 -2.5h344l-73 -60v-227l73 -60h-245c-30 0 -55.167 0.333008 -75.5 1s-37.833 2 -52.5 4s-27.667 4.66699 -39 8s-23 7.66602 -35 12.999
c-28 12.667 -53 29.5 -75 50.5s-40.667 45 -56 72s-27 56.667 -35 89s-12 66.5 -12 102.5c0 46.667 7 91.167 21 133.5s33.667 78.5 59 108.5c13.333 15.333 28.5 29.166 45.5 41.499s35.167 23 54.5 32s39.166 16 59.499 21s40.5 7.5 60.5 7.5c12.667 0 24 -0.333008 34 -1
s21 -2.16699 33 -4.5s26.167 -5.83301 42.5 -10.5l63.5 -18c14 -4.66699 28.667 -7 44 -7c22 0 44.333 5.66699 67 17z" />
    <glyph glyph-name="H" unicode="H" horiz-adv-x="636" 
d="M277 667l-73.998 -60v-237c21.333 -5.33301 43.166 -9.33301 65.499 -12s48.166 -4 77.499 -4c17.333 0 32.666 0.5 45.999 1.5s27 2.5 41 4.5v247l-74 60h250l-73 -60v-547l73 -60h-250l74 60v253c-17.333 -2 -34 -3.5 -50 -4.5s-32.667 -1.5 -50 -1.5
c-52.667 0 -96 4.33301 -130 13v-260l74 -60h-250l73 60v260c-44 -1.33301 -76 -16 -96 -44c10 28 22.333 49.333 37 64s34.334 24.667 59.001 30v237l-73 60h250z" />
    <glyph glyph-name="I" unicode="I" horiz-adv-x="303" 
d="M276 667l-73 -60v-547l73 -60h-249l73 60v547l-73 60h249z" />
    <glyph glyph-name="J" unicode="J" horiz-adv-x="518" 
d="M421 607l0.00195312 -399.998c0 -12 0.333008 -21.833 1 -29.5s2 -14 4 -19s4.66699 -9.16699 8 -12.5s7.66602 -6.33301 12.999 -9c-2 -23.333 -8.83301 -44.5 -20.5 -63.5s-27 -35.167 -46 -48.5s-41.333 -23.666 -67 -30.999s-53.834 -11 -84.501 -11
c-39.333 0 -72.833 5.66699 -100.5 17s-51.834 29 -72.501 53l-12 16c-3.33301 4.66699 -6.5 9.66699 -9.5 15s-6 11.666 -9 18.999s-6.5 16.666 -10.5 27.999c-3.33301 10.667 -7.66602 17.667 -12.999 21s-15 6.33301 -29 9l156 116c-6 -36 -9 -70.667 -9 -104
c0 -44.667 9.16699 -80.334 27.5 -107.001s43.5 -40 75.5 -40c63.333 0 95 47.667 95 143v438l-73 60h249z" />
    <glyph glyph-name="K" unicode="K" horiz-adv-x="643" 
d="M276 667l-72.999 -59.998v-322l201 240c11.333 13.333 20.166 26.666 26.499 39.999s9.5 24.666 9.5 33.999c0 15.333 -6.5 29.5 -19.5 42.5s-29.167 21.5 -48.5 25.5h274c-64 -17.333 -128.667 -68 -194 -152l-72 -86l190 -369l86 -60h-272l73 60l-147 287l-107 -129
v-158l73 -60h-249l73 60v547l-73 60h249z" />
    <glyph glyph-name="L" unicode="L" horiz-adv-x="558" 
d="M276 667l-73 -60.001v-561c19.333 -1.33301 35.333 -2.16602 48 -2.49902s25.667 -0.5 39 -0.5c54.667 0 96 11.667 124 35s46.667 62 56 116c7.33301 -21.333 15.5 -42.5 24.5 -63.5s18.167 -40.333 27.5 -58s18.333 -33 27 -46s16 -21.833 22 -26.5h-544l73 60v547
l-73 60h249z" />
    <glyph glyph-name="M" unicode="M" horiz-adv-x="758" 
d="M142 193c0 -21.333 0.500977 -39.833 1.50098 -55.5s2.83301 -29.5 5.5 -41.5s5.83398 -22.5 9.50098 -31.5s8.5 -17.5 14.5 -25.5c7.33301 -10 15.166 -17.833 23.499 -23.5s19.166 -10.834 32.499 -15.501h-216c16 5.33301 29.333 12.333 40 21
s19.667 20.334 27 35.001s12.5 32.167 15.5 52.5s4.5 48.5 4.5 84.5v414l-73 60h274l-73 -60l150 -444l161 444l-73 60h265l-73 -60v-547l73 -60h-249l73 60v475l-193 -535h-36l-184 541v-348z" />
    <glyph glyph-name="N" unicode="N" horiz-adv-x="610" 
d="M471 494c0 28 -1.33301 51.667 -4 71s-7.33398 35.666 -14.001 48.999s-15.667 24 -27 32s-25.333 15 -42 21h216c-17.333 -6 -31.5 -13 -42.5 -21s-19.833 -18.667 -26.5 -32s-11.334 -29.666 -14.001 -48.999s-4 -43 -4 -71v-494h-84l-287 556v-383
c0 -28 1.33301 -51.667 4 -71s7.33398 -35.666 14.001 -48.999s15.5 -24 26.5 -32s25.167 -15 42.5 -21h-216c16.667 6 30.667 13 42 21s20.333 18.667 27 32s11.334 29.666 14.001 48.999s4 43 4 71v434l-73 60h269l-73 -60l248 -480v367z" />
    <glyph glyph-name="O" unicode="O" horiz-adv-x="632" 
d="M320 684c43.333 0 82.167 -8 116.5 -24s63.5 -39 87.5 -69s42.333 -66.833 55 -110.5s19 -92.834 19 -147.501c0 -55.333 -6.33301 -104.666 -19 -147.999s-31 -80 -55 -110s-53.5 -52.833 -88.5 -68.5s-74.833 -23.5 -119.5 -23.5s-84.5 7.83301 -119.5 23.5
s-64.667 38.5 -89 68.5s-42.833 66.5 -55.5 109.5s-19 92.167 -19 147.5c0 114 24.667 201.167 74 261.5s120.333 90.5 213 90.5zM308.001 641c-26 0 -50.668 -7.83301 -74.001 -23.5s-41 -36.167 -53 -61.5c-12.667 -26 -21.667 -56.5 -27 -91.5s-8 -78.5 -8 -130.5
s3 -95.667 9 -131s15.667 -66 29 -92c12.667 -25.333 31.5 -45.833 56.5 -61.5s51.5 -23.5 79.5 -23.5s53.667 7.66699 77 23s41 36 53 62s20.833 56.5 26.5 91.5s8.5 77.5 8.5 127.5c0 54 -3 98.833 -9 134.5s-15.667 66.167 -29 91.5
c-13.333 26 -32.666 46.667 -57.999 62s-52.333 23 -81 23z" />
    <glyph glyph-name="P" unicode="P" horiz-adv-x="572" 
d="M267 667c54 0 97.9961 -3.49902 131.996 -10.499s62 -18.167 84 -33.5c24.667 -17.333 43.334 -38 56.001 -62s19 -50.333 19 -79s-6.66699 -55.334 -20 -80.001s-31.666 -43.667 -54.999 -57s-52 -23.666 -86 -30.999s-71.667 -11 -113 -11
c-9.33301 0 -20.666 0.333008 -33.999 1s-29 1.66699 -47 3v-247l73 -60h-249l73 60v253c-3.33301 1.33301 -6 2 -8 2h-8c-16 0 -31.333 -1.33301 -46 -4s-30.667 -7.66699 -48 -15c20.667 43.333 57.334 64.666 110.001 63.999v247l-73 60h240zM202.996 354.001
c11.333 -1.33301 21.3311 -2.33301 29.998 -3s18 -1 28 -1c122.667 0 184 42.667 184 128c0 97.333 -56 146 -168 146c-11.333 0 -22.166 -0.333008 -32.499 -1s-24.166 -1.66699 -41.499 -3v-266z" />
    <glyph glyph-name="Q" unicode="Q" horiz-adv-x="632" 
d="M421 1c-17.333 -6.66699 -34.5039 -11.3311 -51.5039 -13.998s-35.167 -4 -54.5 -4c-89.333 0 -158.666 30.667 -207.999 92s-74 147.666 -74 258.999c0 55.333 6.33301 104.666 19 147.999s31.167 80 55.5 110s54 52.833 89 68.5s74.833 23.5 119.5 23.5
c90 0 159.5 -30.5 208.5 -91.5s73.5 -147.5 73.5 -259.5c0 -136 -37.333 -234.333 -112 -295c30.667 -28.667 67.334 -43 110.001 -43c12.667 0 24.834 1.33301 36.501 4s25.834 7 42.501 13c-5.33301 -6.66699 -11.5 -15.667 -18.5 -27l-22 -36l-22 -38
c-7 -12.667 -12.833 -23.667 -17.5 -33c-66 11.333 -124 52.333 -174 123zM430.996 82.0029c18.667 24.667 32.3311 56.667 40.998 96s13 90.333 13 153c0 53.333 -3 97.666 -9 132.999s-15.667 66 -29 92c-13.333 25.333 -32.5 45.833 -57.5 61.5s-51.5 23.5 -79.5 23.5
c-27.333 0 -52.666 -7.66699 -75.999 -23s-41 -36 -53 -62c-12.667 -26 -21.667 -56.333 -27 -91s-8 -78 -8 -130c0 -52.667 3 -96.667 9 -132s15.667 -66 29 -92c12.667 -25.333 31.5 -45.833 56.5 -61.5s51.5 -23.5 79.5 -23.5c12.667 0 24 1.33301 34 4
s21 7.33398 33 14.001c-8.66699 16.667 -20.5 30.167 -35.5 40.5s-29.833 15.5 -44.5 15.5h-5c-2 0 -4.66699 -0.333008 -8 -1l36 44c15.333 -3.33301 32.333 -10.5 51 -21.5s34.334 -23.5 47.001 -37.5z" />
    <glyph glyph-name="R" unicode="R" horiz-adv-x="596" 
d="M27 600c40 26.667 85.1689 47.332 135.502 61.999s101.5 22 153.5 22c35.333 0 68.166 -4.5 98.499 -13.5s56.5 -21.333 78.5 -37s39.333 -34.334 52 -56.001s19 -44.834 19 -69.501c0 -41.333 -15.167 -77.166 -45.5 -107.499s-73.5 -53.166 -129.5 -68.499
c10.667 -30.667 24.667 -62.5 42 -95.5s36 -64.667 56 -95s40.5 -58 61.5 -83s41.167 -44.5 60.5 -58.5c-28.667 -9.33301 -58.334 -21.833 -89.001 -37.5s-56.667 -32.167 -78 -49.5c-6 38.667 -12.333 74.167 -19 106.5s-14.334 64 -23.001 95s-18.667 62.667 -30 95
s-24.666 67.5 -39.999 105.5c-6 -2 -15.167 -4.33301 -27.5 -7s-25 -5.16699 -38 -7.5s-25.167 -4.33301 -36.5 -6s-19.666 -2.5 -24.999 -2.5v-232l73 -60h-249l73 60v217c-22.667 -2 -39.834 -4 -51.501 -6s-22.834 -5.33301 -33.501 -10
c7.33301 16.667 12.5 29.334 15.5 38.001s5.16699 16.667 6.5 24c8.66699 -0.666992 14.167 -1 16.5 -1h8.5c5.33301 0 10.833 0.166992 16.5 0.5s12.834 0.833008 21.501 1.5v236zM203.002 330.998c80.667 9.33301 142.164 29.001 184.497 59.001s63.5 69 63.5 117
c0 19.333 -3.66699 37.166 -11 53.499s-17.666 30.5 -30.999 42.5s-29.166 21.333 -47.499 28s-38.166 10 -59.499 10c-19.333 0 -36.833 -2.83301 -52.5 -8.5s-31.167 -15.167 -46.5 -28.5v-273z" />
    <glyph glyph-name="S" unicode="S" horiz-adv-x="560" 
d="M516 661c-4.66699 -6 -10.6641 -15.333 -17.9971 -28s-15.166 -27.167 -23.499 -43.5s-16.666 -33.666 -24.999 -51.999s-15.5 -35.5 -21.5 -51.5c-4 17.333 -7.66699 31.333 -11 42s-7.66602 20.667 -12.999 30c-12.667 25.333 -31.834 45.5 -57.501 60.5
s-53.5 22.5 -83.5 22.5c-37.333 0 -67.833 -10.5 -91.5 -31.5s-35.5 -47.833 -35.5 -80.5c0 -44 21.667 -76 65 -96c8 -4 14.667 -7.16699 20 -9.5s12.833 -4.83301 22.5 -7.5s23 -6.16699 40 -10.5l71.5 -17.5c35.333 -8.66699 64.333 -18.834 87 -30.501
s41.667 -26.5 57 -44.5c29.333 -35.333 44 -76 44 -122c0 -29.333 -6 -56.666 -18 -81.999s-28.5 -47.333 -49.5 -66s-45.833 -33.334 -74.5 -44.001s-59.667 -16 -93 -16c-12 0 -23.667 0.5 -35 1.5s-23.666 3 -36.999 6s-29 6.83301 -47 11.5s-39.667 11 -65 19
c-22 6.66699 -40.667 10 -56 10c-10 0 -21 -2.33301 -33 -7s-27 -12.667 -45 -24c8.66699 12.667 18 28.167 28 46.5s19.667 37.333 29 57s17.666 38.334 24.999 56.001s12.333 32.167 15 43.5c2.66699 -12.667 5.33398 -23.334 8.00098 -32.001
s5.16699 -16.334 7.5 -23.001s4.66602 -12.667 6.99902 -18s5.16602 -10.666 8.49902 -15.999c17.333 -28 42.5 -49.667 75.5 -65s70.5 -23 112.5 -23c46 0 82.5 11 109.5 33s40.5 51.333 40.5 88c0 22 -6.16699 43 -18.5 63s-29.166 36.333 -50.499 49
c-8.66699 4.66699 -17.334 8.83398 -26.001 12.501s-18.834 7.33398 -30.501 11.001s-25.5 7.16699 -41.5 10.5l-59 12c-36.667 7.33301 -66 16.166 -88 26.499s-40.333 23.5 -55 39.5c-28.667 32.667 -43 72.667 -43 120c0 28.667 5.16699 54.834 15.5 78.501
s24.666 44 42.999 61s40.333 30.167 66 39.5s54.167 14 85.5 14c23.333 0 45.666 -2 66.999 -6s47.333 -10.667 78 -20c13.333 -4.66699 24.166 -7.83398 32.499 -9.50098s15.5 -2.5 21.5 -2.5c8.66699 0 17.5 1.16699 26.5 3.5s21.167 6.16602 36.5 11.499z" />
    <glyph glyph-name="T" unicode="T" horiz-adv-x="605" 
d="M618 667c-35.333 -56.667 -60.998 -110 -76.998 -160c-6 18 -10.667 31.5 -14 40.5s-7.33301 17.5 -12 25.5c-9.33301 16 -23 28.5 -41 37.5s-38.333 13.5 -61 13.5c-7.33301 0 -15.5 -0.166992 -24.5 -0.5s-20.5 -1.16602 -34.5 -2.49902v-561l73 -60h-249l73 60v561
c-14.667 1.33301 -26.334 2.16602 -35.001 2.49902s-16.667 0.5 -24 0.5c-22.667 0 -43 -4.5 -61 -13.5s-31.667 -21.5 -41 -37.5c-4.66699 -8 -8.66699 -16.5 -12 -25.5s-8 -22.5 -14 -40.5c-8.66699 25.333 -19.334 51.333 -32.001 78s-27.667 54 -45 82h631z" />
    <glyph glyph-name="U" unicode="U" horiz-adv-x="630" 
d="M640 667c-21.333 -6.66699 -38.8301 -14.501 -52.4971 -23.501s-24.5 -20.833 -32.5 -35.5s-13.667 -32.834 -17 -54.501s-5 -48.167 -5 -79.5v-217c0 -28 -0.333008 -51.667 -1 -71s-1.66699 -36.166 -3 -50.499s-3.33301 -26.666 -6 -36.999s-6 -19.833 -10 -28.5
c-11.333 -28 -32.666 -49.5 -63.999 -64.5s-71 -22.5 -119 -22.5c-104 0 -172.333 29.667 -205 89c-10.667 19.333 -18.167 43.5 -22.5 72.5s-6.5 67.167 -6.5 114.5v348l-73 60h250l-74 -60v-416c0 -39.333 3.16699 -69.333 9.5 -90s17.166 -36.667 32.499 -48
c11.333 -8.66699 25.5 -15.334 42.5 -20.001s35.5 -7 55.5 -7c33.333 0 61.166 5.5 83.499 16.5s38.166 27.167 47.499 48.5c7.33301 16.667 12.666 37.667 15.999 63s5 59.333 5 102v218c0 31.333 -1.66699 57.833 -5 79.5s-9.16602 39.834 -17.499 54.501
s-19.333 26.5 -33 35.5s-30.834 16.833 -51.501 23.5h256z" />
    <glyph glyph-name="V" unicode="V" horiz-adv-x="620" 
d="M478 466c15.333 40.667 27.333 77.167 36 109.5s13 57.166 13 74.499c0 34.667 -13 64.667 -39 90c50 9.33301 94.833 21.5 134.5 36.5s73.5 32.833 101.5 53.5c-22 -21.333 -41.667 -43.166 -59 -65.499s-34 -48 -50 -77s-32 -62.5 -48 -100.5s-33.333 -83.333 -52 -136
l-149 -391l73 -60h-258l74 60l-195 547l-73 60h250l-73 -60l176 -502z" />
    <glyph glyph-name="W" unicode="W" horiz-adv-x="846" 
d="M678 437c16 58 27.6699 104 35.0029 138s11 59.667 11 77c0 20.667 -4 37.667 -12 51s-21.333 25.666 -40 36.999c20 4.66699 42 10.834 66 18.501s47.5 15.667 70.5 24s44.167 16.833 63.5 25.5s33.666 16 42.999 22c-24.667 -26.667 -45.834 -52.167 -63.501 -76.5
s-33.834 -51.333 -48.501 -81s-28.5 -64.167 -41.5 -103.5s-27.167 -87.333 -42.5 -144l-89 -327l10 -38l73 -60h-252l74 60l-117 419l-110 -389l10 -30l73 -60h-251l74 60l-154 547l-73 60h251l-73 -60l121 -434l136 494h49l135 -490z" />
    <glyph glyph-name="X" unicode="X" horiz-adv-x="602" 
d="M120 60l73.998 -60.001h-207c16 11.333 29.5 21.5 40.5 30.5s21.333 18.333 31 28s19.334 20.5 29.001 32.5s20.834 26.667 33.501 44l133 183l-180 289l-74 60h259l-73 -60l140 -225l163 225l-74 60h200c-22 -17.333 -44 -37.666 -66 -60.999s-43 -49 -63 -77l-135 -186
l177 -283l74 -60h-261l74 60l-137 219z" />
    <glyph glyph-name="Y" unicode="Y" horiz-adv-x="653" 
d="M502 562c17.333 28 29.5 50.835 36.5 68.502s10.5 33.5 10.5 47.5c0 10 -3.5 20 -10.5 30s-18.167 20.667 -33.5 32c20 3.33301 42.167 8.33301 66.5 15s48.333 14 72 22s46 16.333 67 25s38.167 17 51.5 25l-57.5 -58c-15 -15.333 -29 -31 -42 -47s-26.5 -34 -40.5 -54
l-52 -78l-192 -310v-220l73 -60h-249l73 60v220l-124 192l-49 75.5c-12.667 19 -24.667 35.167 -36 48.5s-22.833 25.166 -34.5 35.499s-26.5 22.166 -44.5 35.499h268l-73 -63l179 -272z" />
    <glyph glyph-name="Z" unicode="Z" horiz-adv-x="591" 
d="M154 46c18 -1.33301 33.001 -2.16309 45.001 -2.49609s28 -0.5 48 -0.5c34 0 62.5 1 85.5 3s42.667 5.66699 59 11s30.166 12.666 41.499 21.999s22 21.333 32 36c7.33301 9.33301 13.5 18.666 18.5 27.999s10.167 19.666 15.5 30.999c14.667 -38 29.834 -72 45.501 -102
s31.167 -54 46.5 -72h-591l414 621c-16 1.33301 -30.167 2.16602 -42.5 2.49902s-27.5 0.5 -45.5 0.5c-30 0 -55.333 -0.666992 -76 -2s-38.167 -3.5 -52.5 -6.5s-26.5 -7.33301 -36.5 -13s-19.667 -12.834 -29 -21.501c-10.667 -9.33301 -19.334 -19.666 -26.001 -30.999
s-13 -25.333 -19 -42l-19 42.5c-5.33301 12.333 -11 24.333 -17 36s-12.5 23.667 -19.5 36l-25.5 44.5h564z" />
    <glyph glyph-name="bracketleft" unicode="[" horiz-adv-x="332" 
d="M312 720v-47h-125v-679h125v-47h-232v773h232z" />
    <glyph glyph-name="backslash" unicode="\" horiz-adv-x="566" 
d="M566 -67h-82l-484 800h82z" />
    <glyph glyph-name="bracketright" unicode="]" horiz-adv-x="332" 
d="M20 -53v47h125v679h-125v47h232v-773h-232z" />
    <glyph glyph-name="asciicircum" unicode="^" horiz-adv-x="621" 
d="M298 700h7l282 -418h-131l-191 284l-183 -284h-49z" />
    <glyph glyph-name="underscore" unicode="_" 
d="M500 -90v-65h-500v65h500z" />
    <glyph glyph-name="grave" unicode="`" 
d="M202 811l76 -102h-55l-127 102h106z" />
    <glyph glyph-name="a" unicode="a" horiz-adv-x="690" 
d="M420 607l87.998 -235.009c16 10.667 30.167 21 42.5 31s23.166 21 32.499 33c2 -7.33301 4.66699 -15.666 8 -24.999s7 -18.666 11 -27.999s8 -18.166 12 -26.499s7.66699 -14.833 11 -19.5c-7.33301 0.666992 -13 1 -17 1h-13c-14 0 -25.833 -1.16699 -35.5 -3.5
s-20.167 -6.5 -31.5 -12.5l97 -262l78 -60h-262l71 60l-72 189l-35 -35c-13.333 -13.333 -26.5 -28.5 -39.5 -45.5s-22.167 -30.5 -27.5 -40.5c-22.667 36.667 -43.5 67.834 -62.5 93.501s-37.5 47.167 -55.5 64.5l-28 -84c-6.66699 -20 -11.5 -35.5 -14.5 -46.5
s-4.66699 -19.333 -5 -25s-0.5 -12.5 -0.5 -20.5c0 -9.33301 0.666992 -17.666 2 -24.999s4 -14.666 8 -21.999s9.33301 -15.166 16 -23.499s15.334 -18.166 26.001 -29.499l9 -10h-260c22.667 10 43.667 23.5 63 40.5s37.333 38.167 54 63.5s32.334 55 47.001 89
s28.667 73.333 42 118c-13.333 9.33301 -25.5 16 -36.5 20s-25.5 7 -43.5 9c4 6 8.5 13.167 13.5 21.5s9.66699 16.5 14 24.5s8 15.333 11 22s4.83301 11.334 5.5 14.001c5.33301 -7.33301 9.83301 -13 13.5 -17s9.83398 -9.66699 18.501 -17
c7.33301 -6.66699 13 -11.667 17 -15s7 -6 9 -8l90 242l-55 60h239zM237.998 334.991l25.502 -28c7.66699 -8.66699 15.167 -17.667 22.5 -27s14.666 -19.166 21.999 -29.499l25 -34.5l5 -8c3.33301 3.33301 15.666 18.666 36.999 45.999c5.33301 6.66699 12 14.167 20 22.5
s16.667 16.833 26 25.5l-98 258z" />
    <glyph glyph-name="b" unicode="b" horiz-adv-x="639" 
d="M41 600c40 28 83.3359 49.001 130.003 63.001s94.667 21 144 21c37.333 0 71.666 -4.5 102.999 -13.5s58.333 -21.5 81 -37.5s40.334 -35.167 53.001 -57.5s19 -46.5 19 -72.5c0 -38.667 -12.833 -71 -38.5 -97s-62.5 -43.667 -110.5 -53
c26.667 -4 51.167 -11.5 73.5 -22.5s41.666 -24.667 57.999 -41s29 -35 38 -56s13.5 -43.167 13.5 -66.5c0 -18 -2.83301 -35.167 -8.5 -51.5s-13.5 -31.333 -23.5 -45s-22.167 -25.334 -36.5 -35.001s-29.833 -16.834 -46.5 -21.501c-10.667 -2.66699 -21 -5 -31 -7
s-21 -3.5 -33 -4.5s-25.5 -1.66699 -40.5 -2s-32.5 -0.5 -52.5 -0.5h-306l73 60v268c-12.667 -0.666992 -22.667 -1.16699 -30 -1.5s-13.833 -0.666016 -19.5 -0.999023l-16.5 -1c-5.33301 -0.333008 -12 -0.833008 -20 -1.5l22 50
c8.66699 -0.666992 16.167 -1.16699 22.5 -1.5s12.166 -0.5 17.499 -0.5h15.5c2.33301 0 5.16602 -0.333008 8.49902 -1v190zM203.003 370.001l7 0.00195312l60 -1c26 0 50.167 2.16699 72.5 6.5s40.833 10.166 55.5 17.499c18 9.33301 32.5 24.333 43.5 45
s16.5 42.667 16.5 66c0 40 -13 72.667 -39 98s-60 38 -102 38c-20.667 0 -40.167 -2.83301 -58.5 -8.5s-36.833 -14.834 -55.5 -27.501v-234zM203.003 46.0029c32.667 -2 57.667 -2.99902 75 -2.99902c74.667 0 129 11.167 163 33.5s51 58.5 51 108.5
c0 31.333 -6.66699 58.166 -20 80.499s-31.666 37.5 -54.999 45.5c-18 6 -39.833 10.333 -65.5 13s-58.834 4 -99.501 4h-21.5c-7 0 -16.167 -0.333008 -27.5 -1v-281z" />
    <glyph glyph-name="c" unicode="c" horiz-adv-x="595" 
d="M584 667l-34.0029 -60.5029l-26 -49c-8 -15.667 -15.5 -31.667 -22.5 -48s-14.5 -34.833 -22.5 -55.5c-3.33301 25.333 -8 47 -14 65s-13.667 35 -23 51c-13.333 21.333 -31.666 38.5 -54.999 51.5s-47 19.5 -71 19.5c-23.333 0 -46.166 -6.5 -68.499 -19.5
s-40.166 -30.167 -53.499 -51.5c-32 -50.667 -48 -124.667 -48 -222c0 -103.333 17.167 -182.666 51.5 -237.999s83.5 -83 147.5 -83c48 0 86.333 16 115 48s45.667 77.667 51 137c2 14.667 8 22 18 22c13.333 0 20 -11 20 -33c0 -13.333 -1.83301 -28.833 -5.5 -46.5
s-8.16699 -34.167 -13.5 -49.5c-15.333 -39.333 -40.333 -69.5 -75 -90.5s-77.334 -31.5 -128.001 -31.5c-42 0 -81.167 7.33301 -117.5 22s-66.5 36 -90.5 64c-28 31.333 -49.333 69.333 -64 114s-22 93 -22 145s7.16699 99.667 21.5 143s34.5 80.833 60.5 112.5
s56.833 56.334 92.5 74.001s74.5 26.5 116.5 26.5c11.333 0 21.5 -0.333008 30.5 -1s18.333 -2 28 -4s20 -4.83301 31 -8.5s24.167 -8.5 39.5 -14.5c14.667 -5.33301 26.834 -9.16602 36.501 -11.499s19.167 -3.5 28.5 -3.5c11.333 0 21.333 1.66699 30 5
s20.667 10.333 36 21z" />
    <glyph glyph-name="d" unicode="d" horiz-adv-x="614" 
d="M250 667c54.667 0 100 -4.83203 136 -14.499s67 -25.5 93 -47.5c67.333 -58 101 -146.333 101 -265c0 -140.667 -40.667 -238 -122 -292c-13.333 -9.33301 -26.833 -17 -40.5 -23s-28.667 -10.833 -45 -14.5s-34.333 -6.33398 -54 -8.00098s-42.167 -2.5 -67.5 -2.5h-224
l73 60v547l-73 60h223zM203 47.001c18.667 -1.33301 32 -2.33203 40 -2.99902s15.667 -1 23 -1c68 0 118.333 26.333 151 79c16 26 28.333 57.833 37 95.5s13 79.167 13 124.5c0 91.333 -17 161.166 -51 209.499s-83 72.5 -147 72.5c-7.33301 0 -15.833 -0.333008 -25.5 -1
s-23.167 -1.66699 -40.5 -3v-573z" />
    <glyph glyph-name="e" unicode="e" horiz-adv-x="603" 
d="M575 667l-32.5 -40.502c-9 -11.667 -16.833 -23.167 -23.5 -34.5s-12.834 -23.666 -18.501 -36.999s-11.834 -29 -18.501 -47c-1.33301 3.33301 -2.66602 6.16602 -3.99902 8.49902s-2.66602 5.16602 -3.99902 8.49902c-9.33301 20.667 -18.5 37.334 -27.5 50.001
s-19.833 22.667 -32.5 30s-27.834 12.333 -45.501 15s-39.5 4 -65.5 4c-18 0 -34.333 -0.166992 -49 -0.5s-31.667 -1.16602 -51 -2.49902v-241h141l67 80v-203l-67 80h-141v-291c19.333 -1.33301 33.5 -2.16602 42.5 -2.49902s17.833 -0.5 26.5 -0.5
c35.333 0 66.5 2.66699 93.5 8s48.167 13.333 63.5 24c12.667 8.66699 24.5 20.167 35.5 34.5s23.833 34.833 38.5 61.5c4 -18 8.66699 -34.333 14 -49s11.833 -28.667 19.5 -42s16.834 -26.5 27.501 -39.5s23.667 -26.5 39 -40.5h-576l73 60v277
c-22.667 0.666992 -42.5 -2 -59.5 -8s-33.5 -15.667 -49.5 -29c7.33301 27.333 19.833 47.5 37.5 60.5s41.5 19.5 71.5 19.5v227l-73 60h548z" />
    <glyph glyph-name="f" unicode="f" horiz-adv-x="562" 
d="M575 667l-32.499 -40.502c-9 -11.667 -16.833 -23.167 -23.5 -34.5s-12.834 -23.666 -18.501 -36.999s-11.834 -29 -18.501 -47c-1.33301 3.33301 -2.66602 6.16602 -3.99902 8.49902s-2.66602 5.16602 -3.99902 8.49902c-9.33301 20.667 -18.5 37.334 -27.5 50.001
s-19.833 22.667 -32.5 30s-27.834 12.333 -45.501 15s-39.5 4 -65.5 4c-18 0 -34.333 -0.166992 -49 -0.5s-31.667 -1.16602 -51 -2.49902v-241h141l67 80v-203l-67 80h-141v-277l73 -60h-249l73 60v277c-22 1.33301 -41.833 -1.16699 -59.5 -7.5
s-34.167 -16.166 -49.5 -29.499c14 53.333 50.333 80 109 80v227l-73 60h548z" />
    <glyph glyph-name="g" unicode="g" horiz-adv-x="679" 
d="M520 468c-13.333 114.667 -68.3311 172 -164.998 172c-26.667 0 -52.167 -5.16699 -76.5 -15.5s-45.166 -25.166 -62.499 -44.499c-24 -26 -41.667 -58.167 -53 -96.5s-17 -84.833 -17 -139.5c0 -200.667 82.667 -301 248 -301h16.5c5 0 10.667 0.166992 17 0.5
s13.666 0.833008 21.999 1.5s19.166 1.33398 32.499 2.00098v257h-145c-71.333 0 -107 23.333 -107 70c0 15.333 4.83301 28.166 14.5 38.499s21.167 15.5 34.5 15.5c10 0 18.5 -3.16699 25.5 -9.5s10.5 -14.166 10.5 -23.499c0 -8.66699 -2 -15 -6 -19
s-11.667 -7.33301 -23 -10c-4.66699 -1.33301 -7 -3.66602 -7 -6.99902c0 -4.66699 2.5 -7.83398 7.5 -9.50098s14.167 -2.5 27.5 -2.5h344l-73 -60v-227l73 -60h-245c-30 0 -55.167 0.333008 -75.5 1s-37.833 2 -52.5 4s-27.667 4.66699 -39 8s-23 7.66602 -35 12.999
c-28 12.667 -53 29.5 -75 50.5s-40.667 45 -56 72s-27 56.667 -35 89s-12 66.5 -12 102.5c0 46.667 7 91.167 21 133.5s33.667 78.5 59 108.5c13.333 15.333 28.5 29.166 45.5 41.499s35.167 23 54.5 32s39.166 16 59.499 21s40.5 7.5 60.5 7.5c12.667 0 24 -0.333008 34 -1
s21 -2.16699 33 -4.5s26.167 -5.83301 42.5 -10.5l63.5 -18c14 -4.66699 28.667 -7 44 -7c22 0 44.333 5.66699 67 17z" />
    <glyph glyph-name="h" unicode="h" horiz-adv-x="636" 
d="M277 667l-73.998 -60v-237c21.333 -5.33301 43.166 -9.33301 65.499 -12s48.166 -4 77.499 -4c17.333 0 32.666 0.5 45.999 1.5s27 2.5 41 4.5v247l-74 60h250l-73 -60v-547l73 -60h-250l74 60v253c-17.333 -2 -34 -3.5 -50 -4.5s-32.667 -1.5 -50 -1.5
c-52.667 0 -96 4.33301 -130 13v-260l74 -60h-250l73 60v260c-44 -1.33301 -76 -16 -96 -44c10 28 22.333 49.333 37 64s34.334 24.667 59.001 30v237l-73 60h250z" />
    <glyph glyph-name="i" unicode="i" horiz-adv-x="303" 
d="M276 667l-73 -60v-547l73 -60h-249l73 60v547l-73 60h249z" />
    <glyph glyph-name="j" unicode="j" horiz-adv-x="518" 
d="M421 607l0.00195312 -399.998c0 -12 0.333008 -21.833 1 -29.5s2 -14 4 -19s4.66699 -9.16699 8 -12.5s7.66602 -6.33301 12.999 -9c-2 -23.333 -8.83301 -44.5 -20.5 -63.5s-27 -35.167 -46 -48.5s-41.333 -23.666 -67 -30.999s-53.834 -11 -84.501 -11
c-39.333 0 -72.833 5.66699 -100.5 17s-51.834 29 -72.501 53l-12 16c-3.33301 4.66699 -6.5 9.66699 -9.5 15s-6 11.666 -9 18.999s-6.5 16.666 -10.5 27.999c-3.33301 10.667 -7.66602 17.667 -12.999 21s-15 6.33301 -29 9l156 116c-6 -36 -9 -70.667 -9 -104
c0 -44.667 9.16699 -80.334 27.5 -107.001s43.5 -40 75.5 -40c63.333 0 95 47.667 95 143v438l-73 60h249z" />
    <glyph glyph-name="k" unicode="k" horiz-adv-x="643" 
d="M276 667l-72.999 -59.998v-322l201 240c11.333 13.333 20.166 26.666 26.499 39.999s9.5 24.666 9.5 33.999c0 15.333 -6.5 29.5 -19.5 42.5s-29.167 21.5 -48.5 25.5h274c-64 -17.333 -128.667 -68 -194 -152l-72 -86l190 -369l86 -60h-272l73 60l-147 287l-107 -129
v-158l73 -60h-249l73 60v547l-73 60h249z" />
    <glyph glyph-name="l" unicode="l" horiz-adv-x="558" 
d="M276 667l-73 -60.001v-561c19.333 -1.33301 35.333 -2.16602 48 -2.49902s25.667 -0.5 39 -0.5c54.667 0 96 11.667 124 35s46.667 62 56 116c7.33301 -21.333 15.5 -42.5 24.5 -63.5s18.167 -40.333 27.5 -58s18.333 -33 27 -46s16 -21.833 22 -26.5h-544l73 60v547
l-73 60h249z" />
    <glyph glyph-name="m" unicode="m" horiz-adv-x="758" 
d="M142 193c0 -21.333 0.500977 -39.833 1.50098 -55.5s2.83301 -29.5 5.5 -41.5s5.83398 -22.5 9.50098 -31.5s8.5 -17.5 14.5 -25.5c7.33301 -10 15.166 -17.833 23.499 -23.5s19.166 -10.834 32.499 -15.501h-216c16 5.33301 29.333 12.333 40 21
s19.667 20.334 27 35.001s12.5 32.167 15.5 52.5s4.5 48.5 4.5 84.5v414l-73 60h274l-73 -60l150 -444l161 444l-73 60h265l-73 -60v-547l73 -60h-249l73 60v475l-193 -535h-36l-184 541v-348z" />
    <glyph glyph-name="n" unicode="n" horiz-adv-x="610" 
d="M471 494c0 28 -1.33301 51.667 -4 71s-7.33398 35.666 -14.001 48.999s-15.667 24 -27 32s-25.333 15 -42 21h216c-17.333 -6 -31.5 -13 -42.5 -21s-19.833 -18.667 -26.5 -32s-11.334 -29.666 -14.001 -48.999s-4 -43 -4 -71v-494h-84l-287 556v-383
c0 -28 1.33301 -51.667 4 -71s7.33398 -35.666 14.001 -48.999s15.5 -24 26.5 -32s25.167 -15 42.5 -21h-216c16.667 6 30.667 13 42 21s20.333 18.667 27 32s11.334 29.666 14.001 48.999s4 43 4 71v434l-73 60h269l-73 -60l248 -480v367z" />
    <glyph glyph-name="o" unicode="o" horiz-adv-x="632" 
d="M320 684c43.333 0 82.167 -8 116.5 -24s63.5 -39 87.5 -69s42.333 -66.833 55 -110.5s19 -92.834 19 -147.501c0 -55.333 -6.33301 -104.666 -19 -147.999s-31 -80 -55 -110s-53.5 -52.833 -88.5 -68.5s-74.833 -23.5 -119.5 -23.5s-84.5 7.83301 -119.5 23.5
s-64.667 38.5 -89 68.5s-42.833 66.5 -55.5 109.5s-19 92.167 -19 147.5c0 114 24.667 201.167 74 261.5s120.333 90.5 213 90.5zM308.001 641c-26 0 -50.668 -7.83301 -74.001 -23.5s-41 -36.167 -53 -61.5c-12.667 -26 -21.667 -56.5 -27 -91.5s-8 -78.5 -8 -130.5
s3 -95.667 9 -131s15.667 -66 29 -92c12.667 -25.333 31.5 -45.833 56.5 -61.5s51.5 -23.5 79.5 -23.5s53.667 7.66699 77 23s41 36 53 62s20.833 56.5 26.5 91.5s8.5 77.5 8.5 127.5c0 54 -3 98.833 -9 134.5s-15.667 66.167 -29 91.5
c-13.333 26 -32.666 46.667 -57.999 62s-52.333 23 -81 23z" />
    <glyph glyph-name="p" unicode="p" horiz-adv-x="572" 
d="M267 667c54 0 97.9961 -3.49902 131.996 -10.499s62 -18.167 84 -33.5c24.667 -17.333 43.334 -38 56.001 -62s19 -50.333 19 -79s-6.66699 -55.334 -20 -80.001s-31.666 -43.667 -54.999 -57s-52 -23.666 -86 -30.999s-71.667 -11 -113 -11
c-9.33301 0 -20.666 0.333008 -33.999 1s-29 1.66699 -47 3v-247l73 -60h-249l73 60v253c-3.33301 1.33301 -6 2 -8 2h-8c-16 0 -31.333 -1.33301 -46 -4s-30.667 -7.66699 -48 -15c20.667 43.333 57.334 64.666 110.001 63.999v247l-73 60h240zM202.996 354.001
c11.333 -1.33301 21.3311 -2.33301 29.998 -3s18 -1 28 -1c122.667 0 184 42.667 184 128c0 97.333 -56 146 -168 146c-11.333 0 -22.166 -0.333008 -32.499 -1s-24.166 -1.66699 -41.499 -3v-266z" />
    <glyph glyph-name="q" unicode="q" horiz-adv-x="632" 
d="M421 1c-17.333 -6.66699 -34.5039 -11.3311 -51.5039 -13.998s-35.167 -4 -54.5 -4c-89.333 0 -158.666 30.667 -207.999 92s-74 147.666 -74 258.999c0 55.333 6.33301 104.666 19 147.999s31.167 80 55.5 110s54 52.833 89 68.5s74.833 23.5 119.5 23.5
c90 0 159.5 -30.5 208.5 -91.5s73.5 -147.5 73.5 -259.5c0 -136 -37.333 -234.333 -112 -295c30.667 -28.667 67.334 -43 110.001 -43c12.667 0 24.834 1.33301 36.501 4s25.834 7 42.501 13c-5.33301 -6.66699 -11.5 -15.667 -18.5 -27l-22 -36l-22 -38
c-7 -12.667 -12.833 -23.667 -17.5 -33c-66 11.333 -124 52.333 -174 123zM430.996 82.0029c18.667 24.667 32.3311 56.667 40.998 96s13 90.333 13 153c0 53.333 -3 97.666 -9 132.999s-15.667 66 -29 92c-13.333 25.333 -32.5 45.833 -57.5 61.5s-51.5 23.5 -79.5 23.5
c-27.333 0 -52.666 -7.66699 -75.999 -23s-41 -36 -53 -62c-12.667 -26 -21.667 -56.333 -27 -91s-8 -78 -8 -130c0 -52.667 3 -96.667 9 -132s15.667 -66 29 -92c12.667 -25.333 31.5 -45.833 56.5 -61.5s51.5 -23.5 79.5 -23.5c12.667 0 24 1.33301 34 4
s21 7.33398 33 14.001c-8.66699 16.667 -20.5 30.167 -35.5 40.5s-29.833 15.5 -44.5 15.5h-5c-2 0 -4.66699 -0.333008 -8 -1l36 44c15.333 -3.33301 32.333 -10.5 51 -21.5s34.334 -23.5 47.001 -37.5z" />
    <glyph glyph-name="r" unicode="r" horiz-adv-x="596" 
d="M27 600c40 26.667 85.1689 47.332 135.502 61.999s101.5 22 153.5 22c35.333 0 68.166 -4.5 98.499 -13.5s56.5 -21.333 78.5 -37s39.333 -34.334 52 -56.001s19 -44.834 19 -69.501c0 -41.333 -15.167 -77.166 -45.5 -107.499s-73.5 -53.166 -129.5 -68.499
c10.667 -30.667 24.667 -62.5 42 -95.5s36 -64.667 56 -95s40.5 -58 61.5 -83s41.167 -44.5 60.5 -58.5c-28.667 -9.33301 -58.334 -21.833 -89.001 -37.5s-56.667 -32.167 -78 -49.5c-6 38.667 -12.333 74.167 -19 106.5s-14.334 64 -23.001 95s-18.667 62.667 -30 95
s-24.666 67.5 -39.999 105.5c-6 -2 -15.167 -4.33301 -27.5 -7s-25 -5.16699 -38 -7.5s-25.167 -4.33301 -36.5 -6s-19.666 -2.5 -24.999 -2.5v-232l73 -60h-249l73 60v217c-22.667 -2 -39.834 -4 -51.501 -6s-22.834 -5.33301 -33.501 -10
c7.33301 16.667 12.5 29.334 15.5 38.001s5.16699 16.667 6.5 24c8.66699 -0.666992 14.167 -1 16.5 -1h8.5c5.33301 0 10.833 0.166992 16.5 0.5s12.834 0.833008 21.501 1.5v236zM203.002 330.998c80.667 9.33301 142.164 29.001 184.497 59.001s63.5 69 63.5 117
c0 19.333 -3.66699 37.166 -11 53.499s-17.666 30.5 -30.999 42.5s-29.166 21.333 -47.499 28s-38.166 10 -59.499 10c-19.333 0 -36.833 -2.83301 -52.5 -8.5s-31.167 -15.167 -46.5 -28.5v-273z" />
    <glyph glyph-name="s" unicode="s" horiz-adv-x="560" 
d="M516 661c-4.66699 -6 -10.6641 -15.333 -17.9971 -28s-15.166 -27.167 -23.499 -43.5s-16.666 -33.666 -24.999 -51.999s-15.5 -35.5 -21.5 -51.5c-4 17.333 -7.66699 31.333 -11 42s-7.66602 20.667 -12.999 30c-12.667 25.333 -31.834 45.5 -57.501 60.5
s-53.5 22.5 -83.5 22.5c-37.333 0 -67.833 -10.5 -91.5 -31.5s-35.5 -47.833 -35.5 -80.5c0 -44 21.667 -76 65 -96c8 -4 14.667 -7.16699 20 -9.5s12.833 -4.83301 22.5 -7.5s23 -6.16699 40 -10.5l71.5 -17.5c35.333 -8.66699 64.333 -18.834 87 -30.501
s41.667 -26.5 57 -44.5c29.333 -35.333 44 -76 44 -122c0 -29.333 -6 -56.666 -18 -81.999s-28.5 -47.333 -49.5 -66s-45.833 -33.334 -74.5 -44.001s-59.667 -16 -93 -16c-12 0 -23.667 0.5 -35 1.5s-23.666 3 -36.999 6s-29 6.83301 -47 11.5s-39.667 11 -65 19
c-22 6.66699 -40.667 10 -56 10c-10 0 -21 -2.33301 -33 -7s-27 -12.667 -45 -24c8.66699 12.667 18 28.167 28 46.5s19.667 37.333 29 57s17.666 38.334 24.999 56.001s12.333 32.167 15 43.5c2.66699 -12.667 5.33398 -23.334 8.00098 -32.001
s5.16699 -16.334 7.5 -23.001s4.66602 -12.667 6.99902 -18s5.16602 -10.666 8.49902 -15.999c17.333 -28 42.5 -49.667 75.5 -65s70.5 -23 112.5 -23c46 0 82.5 11 109.5 33s40.5 51.333 40.5 88c0 22 -6.16699 43 -18.5 63s-29.166 36.333 -50.499 49
c-8.66699 4.66699 -17.334 8.83398 -26.001 12.501s-18.834 7.33398 -30.501 11.001s-25.5 7.16699 -41.5 10.5l-59 12c-36.667 7.33301 -66 16.166 -88 26.499s-40.333 23.5 -55 39.5c-28.667 32.667 -43 72.667 -43 120c0 28.667 5.16699 54.834 15.5 78.501
s24.666 44 42.999 61s40.333 30.167 66 39.5s54.167 14 85.5 14c23.333 0 45.666 -2 66.999 -6s47.333 -10.667 78 -20c13.333 -4.66699 24.166 -7.83398 32.499 -9.50098s15.5 -2.5 21.5 -2.5c8.66699 0 17.5 1.16699 26.5 3.5s21.167 6.16602 36.5 11.499z" />
    <glyph glyph-name="t" unicode="t" horiz-adv-x="605" 
d="M618 667c-35.333 -56.667 -60.998 -110 -76.998 -160c-6 18 -10.667 31.5 -14 40.5s-7.33301 17.5 -12 25.5c-9.33301 16 -23 28.5 -41 37.5s-38.333 13.5 -61 13.5c-7.33301 0 -15.5 -0.166992 -24.5 -0.5s-20.5 -1.16602 -34.5 -2.49902v-561l73 -60h-249l73 60v561
c-14.667 1.33301 -26.334 2.16602 -35.001 2.49902s-16.667 0.5 -24 0.5c-22.667 0 -43 -4.5 -61 -13.5s-31.667 -21.5 -41 -37.5c-4.66699 -8 -8.66699 -16.5 -12 -25.5s-8 -22.5 -14 -40.5c-8.66699 25.333 -19.334 51.333 -32.001 78s-27.667 54 -45 82h631z" />
    <glyph glyph-name="u" unicode="u" horiz-adv-x="630" 
d="M640 667c-21.333 -6.66699 -38.8301 -14.501 -52.4971 -23.501s-24.5 -20.833 -32.5 -35.5s-13.667 -32.834 -17 -54.501s-5 -48.167 -5 -79.5v-217c0 -28 -0.333008 -51.667 -1 -71s-1.66699 -36.166 -3 -50.499s-3.33301 -26.666 -6 -36.999s-6 -19.833 -10 -28.5
c-11.333 -28 -32.666 -49.5 -63.999 -64.5s-71 -22.5 -119 -22.5c-104 0 -172.333 29.667 -205 89c-10.667 19.333 -18.167 43.5 -22.5 72.5s-6.5 67.167 -6.5 114.5v348l-73 60h250l-74 -60v-416c0 -39.333 3.16699 -69.333 9.5 -90s17.166 -36.667 32.499 -48
c11.333 -8.66699 25.5 -15.334 42.5 -20.001s35.5 -7 55.5 -7c33.333 0 61.166 5.5 83.499 16.5s38.166 27.167 47.499 48.5c7.33301 16.667 12.666 37.667 15.999 63s5 59.333 5 102v218c0 31.333 -1.66699 57.833 -5 79.5s-9.16602 39.834 -17.499 54.501
s-19.333 26.5 -33 35.5s-30.834 16.833 -51.501 23.5h256z" />
    <glyph glyph-name="v" unicode="v" horiz-adv-x="620" 
d="M478 466c15.333 40.667 27.333 77.167 36 109.5s13 57.166 13 74.499c0 34.667 -13 64.667 -39 90c50 9.33301 94.833 21.5 134.5 36.5s73.5 32.833 101.5 53.5c-22 -21.333 -41.667 -43.166 -59 -65.499s-34 -48 -50 -77s-32 -62.5 -48 -100.5s-33.333 -83.333 -52 -136
l-149 -391l73 -60h-258l74 60l-195 547l-73 60h250l-73 -60l176 -502z" />
    <glyph glyph-name="w" unicode="w" horiz-adv-x="846" 
d="M678 437c16 58 27.6699 104 35.0029 138s11 59.667 11 77c0 20.667 -4 37.667 -12 51s-21.333 25.666 -40 36.999c20 4.66699 42 10.834 66 18.501s47.5 15.667 70.5 24s44.167 16.833 63.5 25.5s33.666 16 42.999 22c-24.667 -26.667 -45.834 -52.167 -63.501 -76.5
s-33.834 -51.333 -48.501 -81s-28.5 -64.167 -41.5 -103.5s-27.167 -87.333 -42.5 -144l-89 -327l10 -38l73 -60h-252l74 60l-117 419l-110 -389l10 -30l73 -60h-251l74 60l-154 547l-73 60h251l-73 -60l121 -434l136 494h49l135 -490z" />
    <glyph glyph-name="x" unicode="x" horiz-adv-x="602" 
d="M120 60l73.998 -60.001h-207c16 11.333 29.5 21.5 40.5 30.5s21.333 18.333 31 28s19.334 20.5 29.001 32.5s20.834 26.667 33.501 44l133 183l-180 289l-74 60h259l-73 -60l140 -225l163 225l-74 60h200c-22 -17.333 -44 -37.666 -66 -60.999s-43 -49 -63 -77l-135 -186
l177 -283l74 -60h-261l74 60l-137 219z" />
    <glyph glyph-name="y" unicode="y" horiz-adv-x="653" 
d="M502 562c17.333 28 29.5 50.835 36.5 68.502s10.5 33.5 10.5 47.5c0 10 -3.5 20 -10.5 30s-18.167 20.667 -33.5 32c20 3.33301 42.167 8.33301 66.5 15s48.333 14 72 22s46 16.333 67 25s38.167 17 51.5 25l-57.5 -58c-15 -15.333 -29 -31 -42 -47s-26.5 -34 -40.5 -54
l-52 -78l-192 -310v-220l73 -60h-249l73 60v220l-124 192l-49 75.5c-12.667 19 -24.667 35.167 -36 48.5s-22.833 25.166 -34.5 35.499s-26.5 22.166 -44.5 35.499h268l-73 -63l179 -272z" />
    <glyph glyph-name="z" unicode="z" horiz-adv-x="591" 
d="M154 46c18 -1.33301 33.001 -2.16309 45.001 -2.49609s28 -0.5 48 -0.5c34 0 62.5 1 85.5 3s42.667 5.66699 59 11s30.166 12.666 41.499 21.999s22 21.333 32 36c7.33301 9.33301 13.5 18.666 18.5 27.999s10.167 19.666 15.5 30.999c14.667 -38 29.834 -72 45.501 -102
s31.167 -54 46.5 -72h-591l414 621c-16 1.33301 -30.167 2.16602 -42.5 2.49902s-27.5 0.5 -45.5 0.5c-30 0 -55.333 -0.666992 -76 -2s-38.167 -3.5 -52.5 -6.5s-26.5 -7.33301 -36.5 -13s-19.667 -12.834 -29 -21.501c-10.667 -9.33301 -19.334 -19.666 -26.001 -30.999
s-13 -25.333 -19 -42l-19 42.5c-5.33301 12.333 -11 24.333 -17 36s-12.5 23.667 -19.5 36l-25.5 44.5h564z" />
    <glyph glyph-name="braceleft" unicode="{" horiz-adv-x="346" 
d="M326 673c-25.333 -1.33301 -44.3359 -3.16895 -57.0029 -5.50195s-23.667 -6.5 -33 -12.5c-13.333 -8 -24 -20.167 -32 -36.5s-12 -33.833 -12 -52.5c0 -5.33301 0.166992 -9.83301 0.5 -13.5s1 -8 2 -13s2.83301 -11.333 5.5 -19s6.66699 -18.5 12 -32.5
c5.33301 -14.667 8 -28.667 8 -42c0 -18 -5.16699 -35 -15.5 -51s-24.166 -29 -41.499 -39c-10 -5.33301 -21.667 -9.66602 -35 -12.999s-31.333 -6.33301 -54 -9c12 -1.33301 22 -2.5 30 -3.5s15.167 -2 21.5 -3s12 -2.33301 17 -4s10.167 -3.5 15.5 -5.5
c20 -8 35.667 -19 47 -33s17 -29.667 17 -47c0 -5.33301 -0.166992 -9.66602 -0.5 -12.999s-1.16602 -7.66602 -2.49902 -12.999s-3.33301 -12.833 -6 -22.5s-6.66699 -23.167 -12 -40.5c-4.66699 -14 -7 -29.333 -7 -46c0 -24.667 5.5 -46.167 16.5 -64.5
s25.833 -30.5 44.5 -36.5c9.33301 -3.33301 19.166 -5.5 29.499 -6.5s24.166 -1.5 41.499 -1.5v-47h-66c-30.667 0 -58.334 3.33301 -83.001 10s-43 15.667 -55 27c-13.333 12.667 -23.833 29.167 -31.5 49.5s-11.5 41.833 -11.5 64.5c0 14 1.66699 29.333 5 46
s9.33301 39 18 67c6 18.667 9 35.334 9 50.001c0 10.667 -4.16699 20 -12.5 28s-20.166 13.667 -35.499 17c-5.33301 1.33301 -11.666 2.33301 -18.999 3s-17.666 1.33398 -30.999 2.00098v45c16 1.33301 29.333 3.16602 40 5.49902s20 6.16602 28 11.499
c9.33301 5.33301 16.666 13.166 21.999 23.499s8 20.833 8 31.5c0 4.66699 -0.166992 8.5 -0.5 11.5s-1.16602 7.5 -2.49902 13.5s-3.83301 14.167 -7.5 24.5s-8.5 24.833 -14.5 43.5c-4.66699 12 -7 28 -7 48c0 28 5.83301 54 17.5 78s27.167 41.333 46.5 52
c10.667 6 27.334 11 50.001 15s45.667 6 69 6h64v-47z" />
    <glyph glyph-name="bar" unicode="|" 
d="M287 667v-834h-74v834h74z" />
    <glyph glyph-name="braceright" unicode="}" horiz-adv-x="346" 
d="M20 -6c25.333 1.33301 44.3359 3.16602 57.0029 5.49902s23.667 6.5 33 12.5c13.333 8 24 20.167 32 36.5s12 33.833 12 52.5c0 5.33301 -0.166992 9.83301 -0.5 13.5s-1 8 -2 13s-3 11.333 -6 19s-6.83301 18.5 -11.5 32.5c-5.33301 14.667 -8 28.667 -8 42
c0 18 5.16699 35 15.5 51s24.166 29 41.499 39c10 5.33301 21.5 9.66602 34.5 12.999s31.167 6.66602 54.5 9.99902c-11.333 0.666992 -21 1.5 -29 2.5s-15.167 2 -21.5 3s-12 2.33301 -17 4l-16.5 5.5c-20 8 -35.667 19 -47 33s-17 29.667 -17 47
c0 4.66699 0.166992 8.83398 0.5 12.501s1.16602 8.16699 2.49902 13.5s3.33301 12.833 6 22.5s6.66699 23.167 12 40.5c4.66699 14 7 29.333 7 46c0 24.667 -5.5 46.167 -16.5 64.5s-25.833 30.5 -44.5 36.5c-9.33301 3.33301 -19.166 5.5 -29.499 6.5
s-24.166 1.5 -41.499 1.5v47h66c30.667 0 58.334 -3.33301 83.001 -10s43 -15.667 55 -27c13.333 -12.667 23.833 -29.167 31.5 -49.5s11.5 -41.833 11.5 -64.5c0 -14 -1.66699 -29.333 -5 -46s-9.33301 -39 -18 -67c-6 -19.333 -9 -36 -9 -50
c0 -10.667 4.16699 -20 12.5 -28s20.166 -13.667 35.499 -17c5.33301 -1.33301 11.666 -2.33301 18.999 -3s17.666 -1.33398 30.999 -2.00098v-45c-16 -1.33301 -29.333 -3.16602 -40 -5.49902s-20 -6.16602 -28 -11.499c-9.33301 -5.33301 -16.666 -13.166 -21.999 -23.499
s-8 -20.833 -8 -31.5c0 -4.66699 0.166992 -8.5 0.5 -11.5s1.16602 -7.5 2.49902 -13.5s3.83301 -14.167 7.5 -24.5s8.5 -24.833 14.5 -43.5c4.66699 -12 7 -28 7 -48c0 -28 -5.83301 -54 -17.5 -78s-27.167 -41.333 -46.5 -52c-10.667 -6 -27.334 -11 -50.001 -15
s-45.667 -6 -69 -6h-64v47z" />
    <glyph glyph-name="asciitilde" unicode="~" horiz-adv-x="667" 
d="M537 723c-16.667 -32 -37.168 -57.1709 -61.501 -75.5039s-48.833 -27.5 -73.5 -27.5c-4.66699 0 -9.33398 0.166992 -14.001 0.5s-10 1.33301 -16 3s-13.333 3.83398 -22 6.50098s-19.667 6.33398 -33 11.001l-30.5 10
c-8.33301 2.66699 -15.666 4.83398 -21.999 6.50098s-12 2.66699 -17 3s-10.5 0.5 -16.5 0.5c-15.333 0 -28.166 -2.83301 -38.499 -8.5s-22.833 -17.167 -37.5 -34.5l-8 -9l-18 11c39.333 68.667 84.666 103 135.999 103c10 0 21 -1.5 33 -4.5s29.667 -8.5 53 -16.5
c20.667 -7.33301 36.5 -12.166 47.5 -14.499s21.5 -3.5 31.5 -3.5c32.667 0 62.334 16.667 89.001 50z" />
    <glyph glyph-name="exclamdown" unicode="&#xa1;" horiz-adv-x="288" 
d="M152 464c0.666992 -37.333 3.16699 -71.333 7.5 -102s10.5 -59.5 18.5 -86.5s18.333 -52.833 31 -77.5s27.667 -49.667 45 -75c-16 -7.33301 -30 -15.166 -42 -23.499s-22.167 -17.833 -30.5 -28.5s-15.5 -22.834 -21.5 -36.501s-11.333 -29.5 -16 -47.5
c-4.66699 18 -10 33.833 -16 47.5s-13.333 25.834 -22 36.501s-19 20.167 -31 28.5s-26 16.166 -42 23.499c17.333 25.333 32.333 50.333 45 75s23 50.5 31 77.5s14 55.833 18 86.5s6.66699 64.667 8 102h17zM144 647c18.667 0 34.5 -6.66699 47.5 -20s19.5 -29 19.5 -47
c0 -19.333 -6.5 -35.5 -19.5 -48.5s-29.167 -19.5 -48.5 -19.5c-18.667 0 -34.5 6.5 -47.5 19.5s-19.5 28.833 -19.5 47.5c0 19.333 6.5 35.5 19.5 48.5s29.167 19.5 48.5 19.5z" />
    <glyph glyph-name="cent" unicode="&#xa2;" horiz-adv-x="451" 
d="M254 643l0.00195312 -69.002c11.333 0 23.833 -2 37.5 -6s30.167 -10 49.5 -18c12 -5.33301 21.167 -8.83301 27.5 -10.5s12.5 -2.5 18.5 -2.5c15.333 0 28 6 38 18c-6 -9.33301 -12.667 -21.166 -20 -35.499s-14.5 -29.166 -21.5 -44.499s-13.5 -30.5 -19.5 -45.5
s-10.333 -27.833 -13 -38.5c-1.33301 39.333 -10.833 72.333 -28.5 99s-40.5 41.667 -68.5 45v-416h8c62 0 98.667 42.667 110 128c0.666992 11.333 5.66699 17 15 17c12 0 18 -8 18 -24c0 -32 -7.5 -60.667 -22.5 -86s-34.5 -43.333 -58.5 -54
c-9.33301 -4 -19.5 -7.33301 -30.5 -10s-24.167 -4.66699 -39.5 -6v-84h-40v86c-54 8.66699 -96.5 34.167 -127.5 76.5s-46.5 95.833 -46.5 160.5c0 33.333 4.16699 64.5 12.5 93.5s20.166 54.5 35.499 76.5s33.666 40 54.999 54s45 23 71 27v69h40zM214.002 533.998
c-56.667 -17.333 -85 -82.333 -85 -195c0 -56.667 6.66699 -101.5 20 -134.5s35 -57.833 65 -74.5v404z" />
    <glyph glyph-name="sterling" unicode="&#xa3;" horiz-adv-x="664" 
d="M624 237c4.66699 -18.667 8.00293 -35.668 10.0029 -51.001s3 -31.666 3 -48.999c0 -50 -13.5 -88.167 -40.5 -114.5s-65.5 -39.5 -115.5 -39.5c-38.667 0 -75.334 6.16699 -110.001 18.5s-71 32.5 -109 60.5c-46 -48 -93.667 -72 -143 -72
c-14.667 0 -28.5 2.33301 -41.5 7s-24.167 10.834 -33.5 18.501s-16.833 16.667 -22.5 27s-8.5 21.5 -8.5 33.5c0 29.333 12.667 53.333 38 72s57.666 28 96.999 28c8 0 15.333 -0.333008 22 -1s13.667 -1.66699 21 -3s15.333 -3.33301 24 -6s19 -6.33398 31 -11.001
c0.666992 4 1 7.33301 1 10v10c0 35.333 -13 70 -39 104h-124l-21 60h117c-24.667 42 -37 87.333 -37 136c0 30 5.5 57.333 16.5 82s26.5 46 46.5 64s44 31.833 72 41.5s59 14.5 93 14.5c62.667 0 114.5 -15.333 155.5 -46s68.833 -74.667 83.5 -132l-129 -27v10
c0 12.667 -1.66699 27.5 -5 44.5s-7.33301 31.167 -12 42.5c-8 19.333 -22.333 35 -43 47s-43.334 18 -68.001 18c-16.667 0 -33.167 -3 -49.5 -9s-30.166 -14 -41.499 -24c-14.667 -14.667 -22 -33.334 -22 -56.001c0 -15.333 2.5 -33.333 7.5 -54s12.167 -42.667 21.5 -66
l17.5 -42c4.33301 -10 7.5 -17.667 9.5 -23s3.66699 -9.33301 5 -12s2.66602 -5.66699 3.99902 -9h131l22 -60h-138c1.33301 -5.33301 2 -9.66602 2 -12.999v-13c0 -23.333 -1.66699 -44 -5 -62s-9 -35.667 -17 -53l54.5 -28c15 -7.33301 28.5 -13 40.5 -17
s23.167 -6.66699 33.5 -8s21.833 -2 34.5 -2c36 0 64.167 9.16699 84.5 27.5s30.5 43.5 30.5 75.5c0 15.333 -2.33301 32.333 -7 51h53zM220.003 90.999c-35.333 24.667 -70.001 36.998 -104.001 36.998c-20 0 -37 -5.16699 -51 -15.5s-21 -23.166 -21 -38.499
s6 -27.333 18 -36s28 -13 48 -13c23.333 0 44.833 5.83301 64.5 17.5s34.834 27.834 45.501 48.501z" />
    <glyph glyph-name="currency" unicode="&#xa4;" horiz-adv-x="467" 
d="M396 538l45.999 -46.001l-43 -43c12.667 -19.333 21.834 -38.166 27.501 -56.499s8.5 -38.166 8.5 -59.499c0 -42.667 -12.667 -82 -38 -118l41 -40l-46 -46l-41 40c-36 -25.333 -75.333 -38 -118 -38c-41.333 0 -80 12 -116 36l-42 -42l-46 46l42 42
c-26.667 37.333 -40 77.333 -40 120c0 41.333 12.667 80.666 38 117.999l-44 44l46 46l44 -44c35.333 25.333 75 38 119 38c42.667 0 82.667 -13 120 -39zM231.999 494.999c-17.333 0 -33.834 -4.33008 -49.501 -12.9971s-29.334 -20.334 -41.001 -35.001
s-20.834 -31.834 -27.501 -51.501s-10 -40.5 -10 -62.5s3.33301 -42.833 10 -62.5s15.834 -36.834 27.501 -51.501s25.334 -26.334 41.001 -35.001s32.5 -13 50.5 -13s34.833 4.16699 50.5 12.5s29.334 19.833 41.001 34.5s20.834 31.834 27.501 51.501s10 40.5 10 62.5
c0 22.667 -3.33301 44 -10 64s-15.834 37.333 -27.501 52s-25.5 26.167 -41.5 34.5s-33 12.5 -51 12.5z" />
    <glyph glyph-name="yen" unicode="&#xa5;" horiz-adv-x="640" 
d="M581 600l-144 -232h75l23 -60h-135l-21 -37v-30h133l23 -58h-156v-123l73 -60h-250l73 60v123h-129l-21 58h150v30l-21 37h-108l-24 60h94l-77 118c-16.667 26 -31.5 48.167 -44.5 66.5s-25.333 34 -37 47s-23 24 -34 33s-23.167 17.167 -36.5 24.5h272l-73 -60l174 -262
l168 265l-74 57h200z" />
    <glyph glyph-name="brokenbar" unicode="&#xa6;" 
d="M287 667v-344h-74v344h74zM287 153v-320h-74v320h74z" />
    <glyph glyph-name="section" unicode="&#xa7;" horiz-adv-x="535" 
d="M393 598c-6.66699 19.333 -12.6719 33.5029 -18.0049 42.5029s-13.333 17.167 -24 24.5c-11.333 8 -24.666 14.333 -39.999 19s-31.333 7 -48 7c-34 0 -61.5 -7.5 -82.5 -22.5s-31.5 -34.5 -31.5 -58.5c0 -21.333 8.66699 -39.166 26 -53.499
s45.666 -27.166 84.999 -38.499l60.5 -17.5c15 -4.33301 27.167 -8 36.5 -11s17.333 -5.83301 24 -8.5s14.334 -6 23.001 -10c60.667 -26 91 -66.333 91 -121c0 -30.667 -9.66699 -57.167 -29 -79.5s-47.333 -39.833 -84 -52.5c56.667 -28.667 85 -70.334 85 -125.001
c0 -23.333 -5 -44.833 -15 -64.5s-24.167 -36.5 -42.5 -50.5s-40.166 -25 -65.499 -33s-53.333 -12 -84 -12c-12 0 -22.5 0.166992 -31.5 0.5s-18.667 1.5 -29 3.5s-22.166 4.66699 -35.499 8s-30.666 8 -51.999 14c-16 4.66699 -31.667 7 -47 7
c-8.66699 0 -16.667 -1.16699 -24 -3.5s-16.666 -6.5 -27.999 -12.5l24.5 40l18 30.5c5.66699 9.66699 11.334 20.167 17.001 31.5l21.5 43c5.33301 -38 22 -67.333 50 -88s65 -31 111 -31c41.333 0 74.166 8.16699 98.499 24.5s36.5 38.5 36.5 66.5
c0 17.333 -5.16699 33.666 -15.5 48.999s-24.5 27.666 -42.5 36.999c-6.66699 3.33301 -12.667 6.16602 -18 8.49902s-12.333 5 -21 8s-20 6.5 -34 10.5l-57 17c-29.333 8 -54.333 16.667 -75 26s-37.334 19.5 -50.001 30.5s-21.834 23.5 -27.501 37.5s-8.5 29.667 -8.5 47
c0 33.333 10.833 61.166 32.5 83.499s51.5 36.5 89.5 42.5c-30 10 -53 25.667 -69 47s-24 47 -24 77c0 44.667 17.5 80.167 52.5 106.5s82.833 39.5 143.5 39.5c10 0 19.333 -0.333008 28 -1s17.334 -1.66699 26.001 -3s17.834 -3 27.501 -5s20.167 -4.66699 31.5 -8
c9.33301 -3.33301 17.166 -5.5 23.499 -6.5s11.833 -1.5 16.5 -1.5c14.667 0 30.667 4.33301 48 13l-21 -36.5c-5.33301 -9 -10.166 -17.667 -14.499 -26s-9 -18 -14 -29l-20.5 -43.5zM218.995 446.003c-18 -2.66699 -32.334 -5.66504 -43.001 -8.99805
s-19.667 -7.66602 -27 -12.999c-21.333 -15.333 -32 -36 -32 -62c0 -13.333 3 -25 9 -35s16.5 -19.333 31.5 -28s35.5 -17.334 61.5 -26.001s59 -18.334 99 -29.001c30.667 4.66699 54.167 14.167 70.5 28.5s24.5 32.833 24.5 55.5c0 30.667 -17 54.667 -51 72
c-5.33301 2.66699 -10.666 5.16699 -15.999 7.5s-11.833 4.66602 -19.5 6.99902l-29 8.5l-44.5 13c-5.33301 1.33301 -11 2.83301 -17 4.5s-11.667 3.5 -17 5.5z" />
    <glyph glyph-name="dieresis" unicode="&#xa8;" 
d="M341 811c13.333 0 24.832 -5 34.499 -15s14.5 -21.667 14.5 -35c0 -14 -4.83301 -25.833 -14.5 -35.5s-21.5 -14.5 -35.5 -14.5s-25.833 4.83301 -35.5 14.5s-14.5 21.5 -14.5 35.5s4.83301 25.833 14.5 35.5s21.834 14.5 36.501 14.5zM159.999 811
c13.333 0 24.832 -5 34.499 -15s14.5 -21.667 14.5 -35c0 -14 -4.83301 -25.833 -14.5 -35.5s-21.5 -14.5 -35.5 -14.5s-25.833 4.83301 -35.5 14.5s-14.5 21.5 -14.5 35.5s4.83301 25.833 14.5 35.5s21.834 14.5 36.501 14.5z" />
    <glyph glyph-name="copyright" unicode="&#xa9;" horiz-adv-x="794" 
d="M405 674c50 0 96.333 -8.83301 139 -26.5s79.5 -42.167 110.5 -73.5s55.333 -68.5 73 -111.5s26.5 -89.833 26.5 -140.5c0 -50 -8.66699 -96.333 -26 -139s-42 -78.667 -74 -108c-29.333 -26 -65.833 -46.5 -109.5 -61.5s-89.5 -22.5 -137.5 -22.5
c-46 0 -90 6.83301 -132 20.5s-80 33.167 -114 58.5c-80.667 61.333 -121 149 -121 263c0 55.333 9.16699 104.833 27.5 148.5s45.5 80.167 81.5 109.5c33.333 27.333 71.833 48 115.5 62s90.5 21 140.5 21zM394 633c-44 0 -83.999 -6.83398 -119.999 -20.501
s-65.333 -33.167 -88 -58.5c-22 -25.333 -39.167 -58.5 -51.5 -99.5s-18.5 -86.167 -18.5 -135.5c0 -93.333 24.167 -164.666 72.5 -213.999s118.166 -74 209.499 -74c96.667 0 169 30 217 90c21.333 26 36.666 55.5 45.999 88.5s14 72.5 14 118.5
c0 52 -4.66699 94.833 -14 128.5s-24.666 63.167 -45.999 88.5c-50 58.667 -123.667 88 -221 88zM572.001 541.999l-29.002 -48.002c-7.33301 -12.667 -13.666 -24.5 -18.999 -35.5l-16 -34.5l-18.999 -45l-3 24c-5.33301 32.667 -15.833 57.834 -31.5 75.501
s-35.5 26.5 -59.5 26.5c-30.667 0 -54.334 -14.167 -71.001 -42.5s-25 -68.5 -25 -120.5c0 -58 9.66699 -102.333 29 -133s47.333 -46 84 -46c53.333 0 84.333 34 93 102c2 12 7.66699 18 17 18c12.667 0 19 -8.66699 19 -26c0 -8 -1.16699 -17.5 -3.5 -28.5
s-5.16602 -20.833 -8.49902 -29.5c-9.33301 -24 -25 -42.5 -47 -55.5s-49 -19.5 -81 -19.5c-28 0 -53.167 4.83301 -75.5 14.5s-41.5 23.5 -57.5 41.5s-28.333 39.667 -37 65s-13 53.666 -13 84.999c0 30.667 4.5 59.167 13.5 85.5s21.5 48.833 37.5 67.5
s35.167 33.334 57.5 44.001s46.5 16 72.5 16c7.33301 0 13.833 -0.166992 19.5 -0.5s11.334 -1.16602 17.001 -2.49902s12 -3.16602 19 -5.49902l24.5 -8.5c8 -3.33301 14.667 -5.5 20 -6.5s10.666 -1.5 15.999 -1.5c4 0 7.33301 0.166992 10 0.5s5.5 1.16602 8.5 2.49902
s6.66699 3.5 11 6.5l17.5 12.5l7 4z" />
    <glyph glyph-name="ordfeminine" unicode="&#xaa;" horiz-adv-x="380" 
d="M253 322c-19.333 -22 -37.332 -37.501 -53.999 -46.501s-36 -13.5 -58 -13.5c-31.333 0 -57 9.16699 -77 27.5s-30 41.833 -30 70.5c0 35.333 17.667 61.333 53 78c9.33301 4.66699 23 8.33398 41 11.001s44 5.33398 78 8.00098c19.333 1.33301 33.333 5.83301 42 13.5
s13 19.167 13 34.5c0 44 -26.667 66 -80 66c-23.333 0 -42.333 -4.66699 -57 -14s-29.667 -26 -45 -50c-4 7.33301 -7.16699 13.333 -9.5 18s-4.83301 9 -7.5 13s-5.83398 8.16699 -9.50098 12.5l-13.5 15.5c4.66699 0.666992 8.66699 1.5 12 2.5l10 3
c3.33301 1 7.16602 2.33301 11.499 4s10.166 4.16699 17.499 7.5c18.667 7.33301 35.334 12.666 50.001 15.999s31.334 5 50.001 5c46 0 79.333 -8.83301 100 -26.5s31 -46.5 31 -86.5v-188l25 -36h-93v55zM257.001 450.999c-10 -8 -19.3311 -13.501 -27.998 -16.501
s-23 -5.5 -43 -7.5c-28 -3.33301 -48.5 -10.333 -61.5 -21s-19.5 -26.667 -19.5 -48c0 -17.333 5.16699 -31.166 15.5 -41.499s24.166 -15.5 41.499 -15.5c16 0 30.833 4 44.5 12s25.167 19 34.5 33c3.33301 5.33301 6 10.5 8 15.5s3.66699 10.5 5 16.5
s2.16602 13 2.49902 21s0.5 18 0.5 30v22z" />
    <glyph glyph-name="guillemotleft" unicode="&#xab;" horiz-adv-x="282" 
d="M214 477h45l-56 -144l56 -143h-49l-82 143zM107 477h44l-56 -144l56 -143h-49l-82 143z" />
    <glyph glyph-name="logicalnot" unicode="&#xac;" 
d="M342 213h-309v54h434v-267h-125v213z" />
    <glyph glyph-name="minus" unicode="&#xad;" horiz-adv-x="467" 
d="M445 301h-423v65h423v-65z" />
    <glyph glyph-name="registered" unicode="&#xae;" horiz-adv-x="794" 
d="M405 674c50 0 96.333 -8.83301 139 -26.5s79.5 -42.167 110.5 -73.5s55.333 -68.5 73 -111.5s26.5 -89.833 26.5 -140.5c0 -50 -8.66699 -96.333 -26 -139s-42 -78.667 -74 -108c-29.333 -26 -65.833 -46.5 -109.5 -61.5s-89.5 -22.5 -137.5 -22.5
c-46 0 -90 6.83301 -132 20.5s-80 33.167 -114 58.5c-80.667 61.333 -121 149 -121 263c0 55.333 9.16699 104.833 27.5 148.5s45.5 80.167 81.5 109.5c33.333 27.333 71.833 48 115.5 62s90.5 21 140.5 21zM394 633c-44 0 -83.999 -6.83398 -119.999 -20.501
s-65.333 -33.167 -88 -58.5c-22 -25.333 -39.167 -58.5 -51.5 -99.5s-18.5 -86.167 -18.5 -135.5c0 -93.333 24.167 -164.666 72.5 -213.999s118.166 -74 209.499 -74c96.667 0 169 30 217 90c21.333 26 36.666 55.5 45.999 88.5s14 72.5 14 118.5
c0 52 -4.66699 94.833 -14 128.5s-24.666 63.167 -45.999 88.5c-50 58.667 -123.667 88 -221 88zM222.001 492.999c24.667 16 52.334 28.332 83.001 36.999s62 13 94 13c22 0 42.5 -2.83301 61.5 -8.5s35.333 -13.334 49 -23.001s24.5 -21.167 32.5 -34.5
s12 -27.666 12 -42.999c0 -50 -34 -85.333 -102 -106c17.333 -42.667 38.166 -80.5 62.499 -113.5s49.5 -58.833 75.5 -77.5c-24 -7.33301 -45.5 -15.666 -64.5 -24.999s-37.5 -20.666 -55.5 -33.999c-4 24 -7.83301 45.5 -11.5 64.5s-8 37.5 -13 55.5s-11 36.167 -18 54.5
l-24.5 61.5c-7.33301 -1.33301 -13.333 -2.5 -18 -3.5s-9.16699 -1.83301 -13.5 -2.5s-9 -1.5 -14 -2.5s-11.5 -1.83301 -19.5 -2.5v-125l57 -45h-188l56 45v115l-24 -3c-5.33301 -0.666992 -11.333 -2.33398 -18 -5.00098l-16 -6c6.66699 13.333 11.5 23.5 14.5 30.5
s5.5 15.167 7.5 24.5l11 -1h10h7c2 0 4.66699 0.333008 8 1v126l-51 27zM338.001 338.998c90 12 135 43.667 135 95c0 20 -7.83301 36.833 -23.5 50.5s-35.167 20.5 -58.5 20.5c-19.333 0 -37 -6 -53 -18v-148z" />
    <glyph glyph-name="macron" unicode="&#xaf;" 
d="M410 734h-321v51h321v-51z" />
    <glyph glyph-name="degree" unicode="&#xb0;" horiz-adv-x="266" 
d="M136 684c14 0 27.3359 -2.83398 40.0029 -8.50098s23.834 -13.334 33.501 -23.001s17.167 -21 22.5 -34s8 -26.833 8 -41.5s-2.83301 -28.5 -8.5 -41.5s-13.334 -24.167 -23.001 -33.5s-21 -16.833 -34 -22.5s-26.833 -8.5 -41.5 -8.5s-28.334 2.83301 -41.001 8.5
s-23.834 13.334 -33.501 23.001s-17.334 20.834 -23.001 33.501s-8.5 26.334 -8.5 41.001s2.83301 28.667 8.5 42s13.334 24.666 23.001 33.999s21.167 16.833 34.5 22.5s27.666 8.5 42.999 8.5zM133.003 639.999c-17.333 0 -32 -6.16699 -44 -18.5s-18 -27.166 -18 -44.499
s6.16699 -32.166 18.5 -44.499s27.166 -18.5 44.499 -18.5s32 6.16699 44 18.5s18 27.166 18 44.499s-6.16699 32.166 -18.5 44.499s-27.166 18.5 -44.499 18.5z" />
    <glyph glyph-name="plusminus" unicode="&#xb1;" horiz-adv-x="467" 
d="M445 96v-65h-423v65h423zM266 554v-185h179v-65h-179v-173h-65v173h-179v65h179v185h65z" />
    <glyph glyph-name="twosuperior" unicode="&#xb2;" horiz-adv-x="373" 
d="M336 266l-304.999 -0.000976562c8 37.333 22.167 69.333 42.5 96s49.166 50.667 86.499 72l22 13.5c6 3.66699 11 6.83398 15 9.50098l10.5 7c3 2 6.16699 4.66699 9.5 8c26 24 39 53 39 87c0 23.333 -6.83301 41.666 -20.5 54.999s-32.5 20 -56.5 20
c-20 0 -36.667 -5.5 -50 -16.5s-20 -25.167 -20 -42.5c0 -13.333 4 -24.333 12 -33s18 -13 30 -13c4.66699 0 8.33398 0.166992 11.001 0.5s5.5 1.5 8.5 3.5s6.66699 5 11 9s10.166 10 17.499 18c-1.33301 -8 -2.33301 -14.167 -3 -18.5
s-1.33398 -7.66602 -2.00098 -9.99902s-1.16699 -4.33301 -1.5 -6s-0.833008 -3.5 -1.5 -5.5c-13.333 -27.333 -35 -41 -65 -41c-24 0 -44.333 7.83301 -61 23.5s-25 35.167 -25 58.5c0 16 3.5 30.667 10.5 44s16.5 25 28.5 35s26.333 17.667 43 23s35 8 55 8
c21.333 0 41.333 -3.16699 60 -9.5s34.834 -15 48.501 -26s24.334 -24.167 32.001 -39.5s11.5 -31.666 11.5 -48.999c0 -37.333 -20 -70 -60 -98c-5.33301 -4 -9.83301 -7.16699 -13.5 -9.5l-14 -8.5c-5.66699 -3.33301 -13.334 -7.5 -23.001 -12.5l-40.5 -21.5
c-13.333 -6.66699 -27 -16.5 -41 -29.5s-25.667 -26.167 -35 -39.5h115c33.333 0 56.333 1.16699 69 3.5s22 7.16602 28 14.499c2 2 3.5 3.83301 4.5 5.5s2.16699 4.66699 3.5 9s3 10.5 5 18.5s5 19.333 9 34v-147z" />
    <glyph glyph-name="threesuperior" unicode="&#xb3;" horiz-adv-x="373" 
d="M161 569l-3.5 -8.99902l-3.5 -9c-7.33301 -20.667 -23.333 -31 -48 -31c-17.333 0 -32.166 6.16699 -44.499 18.5s-18.5 26.833 -18.5 43.5c0 12.667 3.5 24.5 10.5 35.5s16.5 20.5 28.5 28.5s26.167 14.167 42.5 18.5s34.166 6.5 53.499 6.5
c41.333 0 74.333 -8.83301 99 -26.5s37 -41.167 37 -70.5c0 -38 -22 -66 -66 -84c30 -12 52 -27 66 -45s21 -40.667 21 -68c0 -38 -13.833 -67.5 -41.5 -88.5s-65.5 -31.5 -113.5 -31.5c-46 0 -81 9.33301 -105 28s-40 48.667 -48 90c10.667 3.33301 19.5 6.33301 26.5 9
s13.5 5.5 19.5 8.5s12.167 6.66699 18.5 11s13.833 9.83301 22.5 16.5c-2 -8.66699 -3.5 -15.5 -4.5 -20.5l-2.5 -12.5c-0.666992 -3.33301 -1 -6.5 -1 -9.5v-11.5c0 -48.667 24.333 -73 73 -73c24 0 42.833 7.16699 56.5 21.5s20.5 34.5 20.5 60.5
c0 27.333 -7.5 50.166 -22.5 68.499s-33.5 27.5 -55.5 27.5c-9.33301 0 -20.333 -1.33301 -33 -4c-2 -0.666992 -4 -1.16699 -6 -1.5l-9 -1.5l18 48l27 -1c19.333 0 35.5 5.66699 48.5 17s19.5 25.666 19.5 42.999c0 18 -6.83301 33.167 -20.5 45.5
s-30.834 18.5 -51.501 18.5c-19.333 0 -34.666 -4.66699 -45.999 -14s-17 -21.666 -17 -36.999c0 -8.66699 2.16699 -15.667 6.5 -21s9.5 -8 15.5 -8c4.66699 0 9.66699 1.33301 15 4l11 7z" />
    <glyph glyph-name="acute" unicode="&#xb4;" 
d="M277 709h-55l76 102h106z" />
    <glyph glyph-name="mu" unicode="&#xb5;" horiz-adv-x="530" 
d="M364 78c-30.667 -60.667 -76.666 -91.001 -137.999 -91.001c-13.333 0 -25.333 1.33301 -36 4s-22.667 7.33398 -36 14.001c-1.33301 -12 0.833984 -30.667 6.50098 -56s13.5 -52.666 23.5 -81.999c-9.33301 -0.666992 -17.166 -1.16699 -23.499 -1.5
s-12.5 -0.833008 -18.5 -1.5s-12.333 -1.5 -19 -2.5s-15 -2.16699 -25 -3.5l-29 -5l3.5 71.5c1 20.333 1.66699 38.833 2 55.5s0.666016 32 0.999023 46s0.5 28.667 0.5 44v417h88v-318c0 -16 0.333008 -29.5 1 -40.5s1.66699 -20.5 3 -28.5s3.16602 -15 5.49902 -21
s5.16602 -12 8.49902 -18c14 -20 35.333 -30 64 -30c34 0 60 11.5 78 34.5s29.667 58.5 35 106.5c0.666992 3.33301 1.16699 10.333 1.5 21s0.833008 22.167 1.5 34.5s1.16699 24.166 1.5 35.499s0.5 20 0.5 26v198h88v-435l65 -52h-153v78z" />
    <glyph glyph-name="paragraph" unicode="&#xb6;" horiz-adv-x="605" 
d="M247 375c-23.333 0 -43.832 0.833984 -61.499 2.50098s-33.334 4.33398 -47.001 8.00098s-25.834 8.33398 -36.501 14.001s-20.667 12.5 -30 20.5c-39.333 34 -59 80.333 -59 139c0 42 10.167 77.333 30.5 106s48.833 47.667 85.5 57
c4.66699 1.33301 11.667 2.66602 21 3.99902s19.5 2.5 30.5 3.5s22.333 1.83301 34 2.5s22.5 1 32.5 1h358l-7 -9c-5.33301 -8 -11 -15.833 -17 -23.5l-18 -22.5c-5.33301 -8 -10.666 -16.833 -15.999 -26.5s-11.666 -21.834 -18.999 -36.501
c-11.333 25.333 -23.333 43.666 -36 54.999s-28.334 17 -47.001 17h-9.5c-3 0 -6.16699 -0.333008 -9.5 -1v-753h-57v753h-62v-753h-60v442z" />
    <glyph glyph-name="periodcentered" unicode="&#xb7;" horiz-adv-x="228" 
d="M116 354c18 0 33.501 -6.5 46.501 -19.5s19.5 -29.167 19.5 -48.5c0 -18.667 -6.5 -34.5 -19.5 -47.5s-29.167 -19.5 -48.5 -19.5c-18.667 0 -34.5 6.5 -47.5 19.5s-19.5 28.833 -19.5 47.5c0 19.333 6.66699 35.5 20 48.5s29.666 19.5 48.999 19.5z" />
    <glyph glyph-name="periodcentered" unicode="&#x2219;" horiz-adv-x="228" 
d="M116 354c18 0 33.501 -6.5 46.501 -19.5s19.5 -29.167 19.5 -48.5c0 -18.667 -6.5 -34.5 -19.5 -47.5s-29.167 -19.5 -48.5 -19.5c-18.667 0 -34.5 6.5 -47.5 19.5s-19.5 28.833 -19.5 47.5c0 19.333 6.66699 35.5 20 48.5s29.666 19.5 48.999 19.5z" />
    <glyph glyph-name="cedilla" unicode="&#xb8;" 
d="M301 -46c15.333 0 27.332 -5.83496 35.999 -17.502s13 -27.167 13 -46.5c0 -30 -9 -55 -27 -75s-41 -30 -69 -30c-36 0 -64 17 -84 51l13 8l16.5 10.5c5.66699 3.66699 10.834 7.33398 15.501 11.001s8 6.83398 10 9.50098c0.666992 -15.333 3.83398 -27.333 9.50098 -36
s13.167 -13 22.5 -13c10.667 0 19.667 6.66699 27 20s11 29.333 11 48c0 22.667 -9.66699 34 -29 34c-11.333 0 -20.333 -5 -27 -15l-10 8c5.33301 11.333 10.166 24.5 14.499 39.5s7.83301 28.167 10.5 39.5h53l-11 -46h5z" />
    <glyph glyph-name="onesuperior" unicode="&#xb9;" horiz-adv-x="373" 
d="M233 312l57 -45h-184l56 45v275c-14.667 -7.33301 -29.667 -11 -45 -11c-11.333 0 -21 3 -29 9s-12 13.333 -12 22c0 6 2.16699 11.167 6.5 15.5s9.5 6.5 15.5 6.5c12.667 0 19 -6.33301 19 -19v-3c2 -0.666992 4 -1 6 -1c10.667 0 22 5.33301 34 16s21 23.667 27 39h49
v-349z" />
    <glyph glyph-name="ordmasculine" unicode="&#xba;" horiz-adv-x="380" 
d="M195 604c24.667 0 47.333 -4.16797 68 -12.501s38.167 -20.166 52.5 -35.499s25.5 -33.833 33.5 -55.5s12 -45.5 12 -71.5c0 -50.667 -15 -91 -45 -121s-70 -45 -120 -45c-26 0 -50 4.16699 -72 12.5s-40.667 20 -56 35s-27.333 33 -36 54s-13 44.167 -13 69.5
c0 52 15.833 93.333 47.5 124s74.5 46 128.5 46zM189.999 570.999c-32 0 -56.167 -12.1689 -72.5 -36.502s-24.5 -60.166 -24.5 -107.499c0 -88 32.333 -132 97 -132c63.333 0 95 46 95 138c0 48.667 -7.33301 83.834 -22 105.501s-39 32.5 -73 32.5z" />
    <glyph glyph-name="guillemotright" unicode="&#xbb;" horiz-adv-x="283" 
d="M72 189h-49l56 150l-56 138h49l84 -147zM177 189h-48l56 150l-56 138h48l85 -147z" />
    <glyph glyph-name="onequarter" unicode="&#xbc;" horiz-adv-x="847" 
d="M233 312l57 -45h-184l56 45v275c-14.667 -7.33301 -29.667 -11 -45 -11c-11.333 0 -21 3 -29 9s-12 13.333 -12 22c0 6 2.16699 11.167 6.5 15.5s9.5 6.5 15.5 6.5c12.667 0 19 -6.33301 19 -19v-3c2 -0.666992 4 -1 6 -1c10.667 0 22 5.33301 34 16s21 23.667 27 39h49
v-349zM246 0h-50l405 661h50zM693 394c-2.66699 -16.667 -8.49805 -36.333 -17.498 -59s-20 -46 -33 -70s-27.5 -47.333 -43.5 -70s-32 -42.667 -48 -60h121v129l5 3c14.667 7.33301 27.167 15.5 37.5 24.5s20.166 21.167 29.499 36.5v-193h15c42.667 0 64 -14 64 -42
c0 -7.33301 -2.66699 -13.666 -8 -18.999s-12.333 -8 -21 -8c-7.33301 0 -13.333 2.16699 -18 6.5s-7 9.5 -7 15.5c0 4.66699 1.33301 8.66699 4 12c-1.33301 0.666992 -3.33301 1 -6 1h-4h-4h-15v-56l57 -45h-186l57 45v56h-183v19c14.667 14.667 28.834 33.667 42.501 57
s25.667 47.833 36 73.5s18.666 51.167 24.999 76.5s9.16602 47.666 8.49902 66.999h92z" />
    <glyph glyph-name="onehalf" unicode="&#xbd;" horiz-adv-x="847" 
d="M233 312l57 -45h-184l56 45v275c-14.667 -7.33301 -29.667 -11 -45 -11c-11.333 0 -21 3 -29 9s-12 13.333 -12 22c0 6 2.16699 11.167 6.5 15.5s9.5 6.5 15.5 6.5c12.667 0 19 -6.33301 19 -19v-3c2 -0.666992 4 -1 6 -1c10.667 0 22 5.33301 34 16s21 23.667 27 39h49
v-349zM246 0h-50l405 661h50zM810 0l-305.001 0.00488281c8 37.333 22.167 69.166 42.5 95.499s49.166 50.166 86.499 71.499l22 13.5c6 3.66699 11 6.83398 15 9.50098s7.5 5.16699 10.5 7.5s6.16699 5.16602 9.5 8.49902c26 24 39 52.667 39 86
c0 23.333 -6.83301 41.666 -20.5 54.999s-32.5 20 -56.5 20c-20 0 -36.667 -5.5 -50 -16.5s-20 -25.167 -20 -42.5c0 -13.333 4 -24.333 12 -33s18 -13 30 -13c4.66699 0 8.5 0.166992 11.5 0.5s6 1.5 9 3.5s6.5 5.16699 10.5 9.5s9.66699 10.166 17 17.499l-3 -20
c-3.33301 -19.333 -11.166 -34.333 -23.499 -45s-27.833 -16 -46.5 -16c-24 0 -44.333 7.83301 -61 23.5s-25 35.167 -25 58.5c0 16 3.5 30.667 10.5 44s16.5 25 28.5 35s26.333 17.667 43 23s35 8 55 8c21.333 0 41.333 -3.16699 60 -9.5s34.834 -15 48.501 -26
s24.334 -24 32.001 -39s11.5 -31.167 11.5 -48.5c0 -37.333 -20 -70.333 -60 -99l-13.5 -8.5l-14 -8.5c-5.66699 -3.33301 -13.334 -7.5 -23.001 -12.5l-40.5 -21.5c-13.333 -7.33301 -27 -17.333 -41 -30s-25.667 -25.667 -35 -39h115c33.333 0 56.333 1.16699 69 3.5
s22 7.16602 28 14.499c2 2 3.5 3.83301 4.5 5.5s2.16699 4.66699 3.5 9s3 10.5 5 18.5s5 19.333 9 34v-147z" />
    <glyph glyph-name="threequarters" unicode="&#xbe;" horiz-adv-x="847" 
d="M161 569l-3.5 -8.99902l-3.5 -9c-7.33301 -20.667 -23.333 -31 -48 -31c-17.333 0 -32.166 6.16699 -44.499 18.5s-18.5 26.833 -18.5 43.5c0 12.667 3.5 24.5 10.5 35.5s16.5 20.5 28.5 28.5s26.167 14.167 42.5 18.5s34.166 6.5 53.499 6.5
c41.333 0 74.333 -8.83301 99 -26.5s37 -41.167 37 -70.5c0 -38 -22 -66 -66 -84c30 -12 52 -27 66 -45s21 -40.667 21 -68c0 -38 -13.833 -67.5 -41.5 -88.5s-65.5 -31.5 -113.5 -31.5c-46 0 -81 9.33301 -105 28s-40 48.667 -48 90c10.667 3.33301 19.5 6.33301 26.5 9
s13.5 5.5 19.5 8.5s12.167 6.66699 18.5 11s13.833 9.83301 22.5 16.5c-2 -8.66699 -3.5 -15.5 -4.5 -20.5l-2.5 -12.5c-0.666992 -3.33301 -1 -6.5 -1 -9.5v-11.5c0 -48.667 24.333 -73 73 -73c24 0 42.833 7.16699 56.5 21.5s20.5 34.5 20.5 60.5
c0 27.333 -7.5 50.166 -22.5 68.499s-33.5 27.5 -55.5 27.5c-9.33301 0 -20.333 -1.33301 -33 -4c-2 -0.666992 -4 -1.16699 -6 -1.5l-9 -1.5l18 48l27 -1c19.333 0 35.5 5.66699 48.5 17s19.5 25.666 19.5 42.999c0 18 -6.83301 33.167 -20.5 45.5
s-30.834 18.5 -51.501 18.5c-19.333 0 -34.666 -4.66699 -45.999 -14s-17 -21.666 -17 -36.999c0 -8.66699 2.16699 -15.667 6.5 -21s9.5 -8 15.5 -8c4.66699 0 9.66699 1.33301 15 4l11 7zM246 0.000976562h-50l404 661h50zM692 394.001
c-2.66699 -16.667 -8.49805 -36.333 -17.498 -59s-20 -46 -33 -70s-27.5 -47.333 -43.5 -70s-32 -42.667 -48 -60h121v129l5 3c14.667 7.33301 27.167 15.5 37.5 24.5s20.166 21.167 29.499 36.5v-193h15c42.667 0 64 -14 64 -42c0 -7.33301 -2.66699 -13.666 -8 -18.999
s-12.333 -8 -21 -8c-7.33301 0 -13.333 2.16699 -18 6.5s-7 9.5 -7 15.5c0 4.66699 1.33301 8.66699 4 12c-1.33301 0.666992 -3.33301 1 -6 1h-4h-4h-15v-56l57 -45h-186l57 45v56h-183v19c14.667 14.667 28.834 33.667 42.501 57s25.667 47.833 36 73.5
s18.666 51.167 24.999 76.5s9.16602 47.666 8.49902 66.999h92z" />
    <glyph glyph-name="questiondown" unicode="&#xbf;" horiz-adv-x="419" 
d="M298 184c3.33301 2 8.00195 5.00098 14.002 9.00098s12.167 8.33301 18.5 13l19 14c6.33301 4.66699 11.5 9 15.5 13c25.333 -30 38 -62.667 38 -98c0 -22 -4.5 -42 -13.5 -60s-21.833 -33.5 -38.5 -46.5s-36.334 -23.167 -59.001 -30.5s-47.667 -11 -75 -11
c-29.333 0 -56.166 4.16699 -80.499 12.5s-45.333 19.666 -63 33.999s-31.5 31.5 -41.5 51.5s-15 42 -15 66c0 44 16.333 81.333 49 112c6 6 11.167 10.833 15.5 14.5s10 8 17 13l28.5 20l51 34.5c12 8 22.167 16.167 30.5 24.5s16.166 19.166 23.499 32.499
c3.33301 5.33301 6.5 11 9.5 17s4.5 9.33301 4.5 10l-2 44c0 2 1.83301 4.33301 5.5 7s7.16699 4 10.5 4c8.66699 0 16.167 -5.5 22.5 -16.5s9.5 -23.833 9.5 -38.5c0 -24.667 -6.33301 -49 -19 -73s-32.667 -50 -60 -78c-17.333 -18 -31.666 -33.667 -42.999 -47
s-20.333 -25.666 -27 -36.999s-11.334 -22.333 -14.001 -33s-4 -22.334 -4 -35.001c0 -28.667 8.66699 -52 26 -70s39.666 -27 66.999 -27c24.667 0 45.667 7.33301 63 22s26 32.667 26 54c0 12.667 -3.33301 23.334 -10 32.001s-17.667 17.667 -33 27l6 4zM230.002 647.001
c18.667 0 34.5 -6.66699 47.5 -20s19.5 -29 19.5 -47c0 -19.333 -6.5 -35.5 -19.5 -48.5s-29.167 -19.5 -48.5 -19.5c-18.667 0 -34.5 6.5 -47.5 19.5s-19.5 28.833 -19.5 47.5c0 19.333 6.5 35.5 19.5 48.5s29.167 19.5 48.5 19.5z" />
    <glyph glyph-name="Agrave" unicode="&#xc0;" horiz-adv-x="690" 
d="M420 607l87.998 -235.009c16 10.667 30.167 21 42.5 31s23.166 21 32.499 33c2 -7.33301 4.66699 -15.666 8 -24.999s7 -18.666 11 -27.999s8 -18.166 12 -26.499s7.66699 -14.833 11 -19.5c-7.33301 0.666992 -13 1 -17 1h-13c-14 0 -25.833 -1.16699 -35.5 -3.5
s-20.167 -6.5 -31.5 -12.5l97 -262l78 -60h-262l71 60l-72 189l-35 -35c-13.333 -13.333 -26.5 -28.5 -39.5 -45.5s-22.167 -30.5 -27.5 -40.5c-22.667 36.667 -43.5 67.834 -62.5 93.501s-37.5 47.167 -55.5 64.5l-28 -84c-6.66699 -20 -11.5 -35.5 -14.5 -46.5
s-4.66699 -19.333 -5 -25s-0.5 -12.5 -0.5 -20.5c0 -9.33301 0.666992 -17.666 2 -24.999s4 -14.666 8 -21.999s9.33301 -15.166 16 -23.499s15.334 -18.166 26.001 -29.499l9 -10h-260c22.667 10 43.667 23.5 63 40.5s37.333 38.167 54 63.5s32.334 55 47.001 89
s28.667 73.333 42 118c-13.333 9.33301 -25.5 16 -36.5 20s-25.5 7 -43.5 9c4 6 8.5 13.167 13.5 21.5s9.66699 16.5 14 24.5s8 15.333 11 22s4.83301 11.334 5.5 14.001c5.33301 -7.33301 9.83301 -13 13.5 -17s9.83398 -9.66699 18.501 -17
c7.33301 -6.66699 13 -11.667 17 -15s7 -6 9 -8l90 242l-55 60h239zM237.998 334.991l25.502 -28c7.66699 -8.66699 15.167 -17.667 22.5 -27s14.666 -19.166 21.999 -29.499l25 -34.5l5 -8c3.33301 3.33301 15.666 18.666 36.999 45.999c5.33301 6.66699 12 14.167 20 22.5
s16.667 16.833 26 25.5l-98 258zM296 810.991l76 -102h-55l-127 102h106z" />
    <glyph glyph-name="Aacute" unicode="&#xc1;" horiz-adv-x="690" 
d="M420 607l87.998 -235.009c16 10.667 30.167 21 42.5 31s23.166 21 32.499 33c2 -7.33301 4.66699 -15.666 8 -24.999s7 -18.666 11 -27.999s8 -18.166 12 -26.499s7.66699 -14.833 11 -19.5c-7.33301 0.666992 -13 1 -17 1h-13c-14 0 -25.833 -1.16699 -35.5 -3.5
s-20.167 -6.5 -31.5 -12.5l97 -262l78 -60h-262l71 60l-72 189l-35 -35c-13.333 -13.333 -26.5 -28.5 -39.5 -45.5s-22.167 -30.5 -27.5 -40.5c-22.667 36.667 -43.5 67.834 -62.5 93.501s-37.5 47.167 -55.5 64.5l-28 -84c-6.66699 -20 -11.5 -35.5 -14.5 -46.5
s-4.66699 -19.333 -5 -25s-0.5 -12.5 -0.5 -20.5c0 -9.33301 0.666992 -17.666 2 -24.999s4 -14.666 8 -21.999s9.33301 -15.166 16 -23.499s15.334 -18.166 26.001 -29.499l9 -10h-260c22.667 10 43.667 23.5 63 40.5s37.333 38.167 54 63.5s32.334 55 47.001 89
s28.667 73.333 42 118c-13.333 9.33301 -25.5 16 -36.5 20s-25.5 7 -43.5 9c4 6 8.5 13.167 13.5 21.5s9.66699 16.5 14 24.5s8 15.333 11 22s4.83301 11.334 5.5 14.001c5.33301 -7.33301 9.83301 -13 13.5 -17s9.83398 -9.66699 18.501 -17
c7.33301 -6.66699 13 -11.667 17 -15s7 -6 9 -8l90 242l-55 60h239zM237.998 334.991l25.502 -28c7.66699 -8.66699 15.167 -17.667 22.5 -27s14.666 -19.166 21.999 -29.499l25 -34.5l5 -8c3.33301 3.33301 15.666 18.666 36.999 45.999c5.33301 6.66699 12 14.167 20 22.5
s16.667 16.833 26 25.5l-98 258zM385 708.991h-55l76 102h106z" />
    <glyph glyph-name="Acircumflex" unicode="&#xc2;" horiz-adv-x="690" 
d="M420 607l87.998 -235.009c16 10.667 30.167 21 42.5 31s23.166 21 32.499 33c2 -7.33301 4.66699 -15.666 8 -24.999s7 -18.666 11 -27.999s8 -18.166 12 -26.499s7.66699 -14.833 11 -19.5c-7.33301 0.666992 -13 1 -17 1h-13c-14 0 -25.833 -1.16699 -35.5 -3.5
s-20.167 -6.5 -31.5 -12.5l97 -262l78 -60h-262l71 60l-72 189l-35 -35c-13.333 -13.333 -26.5 -28.5 -39.5 -45.5s-22.167 -30.5 -27.5 -40.5c-22.667 36.667 -43.5 67.834 -62.5 93.501s-37.5 47.167 -55.5 64.5l-28 -84c-6.66699 -20 -11.5 -35.5 -14.5 -46.5
s-4.66699 -19.333 -5 -25s-0.5 -12.5 -0.5 -20.5c0 -9.33301 0.666992 -17.666 2 -24.999s4 -14.666 8 -21.999s9.33301 -15.166 16 -23.499s15.334 -18.166 26.001 -29.499l9 -10h-260c22.667 10 43.667 23.5 63 40.5s37.333 38.167 54 63.5s32.334 55 47.001 89
s28.667 73.333 42 118c-13.333 9.33301 -25.5 16 -36.5 20s-25.5 7 -43.5 9c4 6 8.5 13.167 13.5 21.5s9.66699 16.5 14 24.5s8 15.333 11 22s4.83301 11.334 5.5 14.001c5.33301 -7.33301 9.83301 -13 13.5 -17s9.83398 -9.66699 18.501 -17
c7.33301 -6.66699 13 -11.667 17 -15s7 -6 9 -8l90 242l-55 60h239zM237.998 334.991l25.502 -28c7.66699 -8.66699 15.167 -17.667 22.5 -27s14.666 -19.166 21.999 -29.499l25 -34.5l5 -8c3.33301 3.33301 15.666 18.666 36.999 45.999c5.33301 6.66699 12 14.167 20 22.5
s16.667 16.833 26 25.5l-98 258zM480 708.991h-84l-53 60l-52 -60h-55l87 102h68z" />
    <glyph glyph-name="Atilde" unicode="&#xc3;" horiz-adv-x="690" 
d="M420 607l87.998 -235.009c16 10.667 30.167 21 42.5 31s23.166 21 32.499 33c2 -7.33301 4.66699 -15.666 8 -24.999s7 -18.666 11 -27.999s8 -18.166 12 -26.499s7.66699 -14.833 11 -19.5c-7.33301 0.666992 -13 1 -17 1h-13c-14 0 -25.833 -1.16699 -35.5 -3.5
s-20.167 -6.5 -31.5 -12.5l97 -262l78 -60h-262l71 60l-72 189l-35 -35c-13.333 -13.333 -26.5 -28.5 -39.5 -45.5s-22.167 -30.5 -27.5 -40.5c-22.667 36.667 -43.5 67.834 -62.5 93.501s-37.5 47.167 -55.5 64.5l-28 -84c-6.66699 -20 -11.5 -35.5 -14.5 -46.5
s-4.66699 -19.333 -5 -25s-0.5 -12.5 -0.5 -20.5c0 -9.33301 0.666992 -17.666 2 -24.999s4 -14.666 8 -21.999s9.33301 -15.166 16 -23.499s15.334 -18.166 26.001 -29.499l9 -10h-260c22.667 10 43.667 23.5 63 40.5s37.333 38.167 54 63.5s32.334 55 47.001 89
s28.667 73.333 42 118c-13.333 9.33301 -25.5 16 -36.5 20s-25.5 7 -43.5 9c4 6 8.5 13.167 13.5 21.5s9.66699 16.5 14 24.5s8 15.333 11 22s4.83301 11.334 5.5 14.001c5.33301 -7.33301 9.83301 -13 13.5 -17s9.83398 -9.66699 18.501 -17
c7.33301 -6.66699 13 -11.667 17 -15s7 -6 9 -8l90 242l-55 60h239zM237.998 334.991l25.502 -28c7.66699 -8.66699 15.167 -17.667 22.5 -27s14.666 -19.166 21.999 -29.499l25 -34.5l5 -8c3.33301 3.33301 15.666 18.666 36.999 45.999c5.33301 6.66699 12 14.167 20 22.5
s16.667 16.833 26 25.5l-98 258zM510 795.991c0 -26 -7.83008 -47.8359 -23.4971 -65.5029s-34.834 -26.5 -57.501 -26.5c-12.667 0 -26.667 2.33301 -42 7s-33.333 12.334 -54 23.001c-14.667 7.33301 -25 12.166 -31 14.499s-12.333 3.5 -19 3.5
c-22.667 0 -35.667 -13.667 -39 -41h-37c0 14.667 2.33301 28.334 7 41.001s11.167 23.834 19.5 33.501s18.166 17.334 29.499 23.001s23.333 8.5 36 8.5c8 0 15 -0.5 21 -1.5s12.5 -2.83301 19.5 -5.5s15.167 -6.5 24.5 -11.5l35 -19.5c16.667 -10 30 -15 40 -15
s17.667 3.33301 23 10s8.66602 18 9.99902 34h38v-12z" />
    <glyph glyph-name="Adieresis" unicode="&#xc4;" horiz-adv-x="690" 
d="M420 607l87.998 -235.009c16 10.667 30.167 21 42.5 31s23.166 21 32.499 33c2 -7.33301 4.66699 -15.666 8 -24.999s7 -18.666 11 -27.999s8 -18.166 12 -26.499s7.66699 -14.833 11 -19.5c-7.33301 0.666992 -13 1 -17 1h-13c-14 0 -25.833 -1.16699 -35.5 -3.5
s-20.167 -6.5 -31.5 -12.5l97 -262l78 -60h-262l71 60l-72 189l-35 -35c-13.333 -13.333 -26.5 -28.5 -39.5 -45.5s-22.167 -30.5 -27.5 -40.5c-22.667 36.667 -43.5 67.834 -62.5 93.501s-37.5 47.167 -55.5 64.5l-28 -84c-6.66699 -20 -11.5 -35.5 -14.5 -46.5
s-4.66699 -19.333 -5 -25s-0.5 -12.5 -0.5 -20.5c0 -9.33301 0.666992 -17.666 2 -24.999s4 -14.666 8 -21.999s9.33301 -15.166 16 -23.499s15.334 -18.166 26.001 -29.499l9 -10h-260c22.667 10 43.667 23.5 63 40.5s37.333 38.167 54 63.5s32.334 55 47.001 89
s28.667 73.333 42 118c-13.333 9.33301 -25.5 16 -36.5 20s-25.5 7 -43.5 9c4 6 8.5 13.167 13.5 21.5s9.66699 16.5 14 24.5s8 15.333 11 22s4.83301 11.334 5.5 14.001c5.33301 -7.33301 9.83301 -13 13.5 -17s9.83398 -9.66699 18.501 -17
c7.33301 -6.66699 13 -11.667 17 -15s7 -6 9 -8l90 242l-55 60h239zM237.998 334.991l25.502 -28c7.66699 -8.66699 15.167 -17.667 22.5 -27s14.666 -19.166 21.999 -29.499l25 -34.5l5 -8c3.33301 3.33301 15.666 18.666 36.999 45.999c5.33301 6.66699 12 14.167 20 22.5
s16.667 16.833 26 25.5l-98 258zM449 810.991c13.333 0 24.832 -5 34.499 -15s14.5 -21.667 14.5 -35c0 -14 -4.83301 -25.833 -14.5 -35.5s-21.5 -14.5 -35.5 -14.5s-25.833 4.83301 -35.5 14.5s-14.5 21.5 -14.5 35.5s4.83301 25.833 14.5 35.5s21.834 14.5 36.501 14.5z
M267.999 810.991c13.333 0 24.832 -5 34.499 -15s14.5 -21.667 14.5 -35c0 -14 -4.83301 -25.833 -14.5 -35.5s-21.5 -14.5 -35.5 -14.5s-25.833 4.83301 -35.5 14.5s-14.5 21.5 -14.5 35.5s4.83301 25.833 14.5 35.5s21.834 14.5 36.501 14.5z" />
    <glyph glyph-name="Aring" unicode="&#xc5;" horiz-adv-x="690" 
d="M420 607l87.998 -235.009c16 10.667 30.167 21 42.5 31s23.166 21 32.499 33c2 -7.33301 4.66699 -15.666 8 -24.999s7 -18.666 11 -27.999s8 -18.166 12 -26.499s7.66699 -14.833 11 -19.5c-7.33301 0.666992 -13 1 -17 1h-13c-14 0 -25.833 -1.16699 -35.5 -3.5
s-20.167 -6.5 -31.5 -12.5l97 -262l78 -60h-262l71 60l-72 189l-35 -35c-13.333 -13.333 -26.5 -28.5 -39.5 -45.5s-22.167 -30.5 -27.5 -40.5c-22.667 36.667 -43.5 67.834 -62.5 93.501s-37.5 47.167 -55.5 64.5l-28 -84c-6.66699 -20 -11.5 -35.5 -14.5 -46.5
s-4.66699 -19.333 -5 -25s-0.5 -12.5 -0.5 -20.5c0 -9.33301 0.666992 -17.666 2 -24.999s4 -14.666 8 -21.999s9.33301 -15.166 16 -23.499s15.334 -18.166 26.001 -29.499l9 -10h-260c22.667 10 43.667 23.5 63 40.5s37.333 38.167 54 63.5s32.334 55 47.001 89
s28.667 73.333 42 118c-13.333 9.33301 -25.5 16 -36.5 20s-25.5 7 -43.5 9c4 6 8.5 13.167 13.5 21.5s9.66699 16.5 14 24.5s8 15.333 11 22s4.83301 11.334 5.5 14.001c5.33301 -7.33301 9.83301 -13 13.5 -17s9.83398 -9.66699 18.501 -17
c7.33301 -6.66699 13 -11.667 17 -15s7 -6 9 -8l90 242l-55 60h239zM237.998 334.991l25.502 -28c7.66699 -8.66699 15.167 -17.667 22.5 -27s14.666 -19.166 21.999 -29.499l25 -34.5l5 -8c3.33301 3.33301 15.666 18.666 36.999 45.999c5.33301 6.66699 12 14.167 20 22.5
s16.667 16.833 26 25.5l-98 258zM359 834.991c20 0 37.166 -7.33105 51.499 -21.998s21.5 -32.334 21.5 -53.001s-7.16699 -38.167 -21.5 -52.5s-32.166 -21.5 -53.499 -21.5c-20.667 0 -38.167 7.16699 -52.5 21.5s-21.5 31.833 -21.5 52.5
c0 21.333 7.33301 39.166 22 53.499s32.667 21.5 54 21.5zM356.999 793.993c-9.33301 0 -17.166 -3.33301 -23.499 -10s-9.5 -14.667 -9.5 -24s3.33301 -17.333 10 -24s14.667 -10 24 -10s17.166 3.33301 23.499 10s9.5 14.667 9.5 24s-3.33301 17.333 -10 24
s-14.667 10 -24 10z" />
    <glyph glyph-name="AE" unicode="&#xc6;" horiz-adv-x="1024" 
d="M997 667l-32.4971 -40.5c-9 -11.667 -16.833 -23.167 -23.5 -34.5s-12.834 -23.666 -18.501 -36.999s-11.834 -29 -18.501 -47c-2 5.33301 -4.66699 11 -8 17c-9.33301 20.667 -18.5 37.334 -27.5 50.001s-19.833 22.667 -32.5 30s-27.834 12.333 -45.501 15
s-39.5 4 -65.5 4c-18.667 0 -35.334 -0.166992 -50.001 -0.5s-31.667 -1.16602 -51 -2.49902v-241h142l67 80v-203l-67 80h-142v-291c19.333 -1.33301 33.666 -2.16602 42.999 -2.49902s18 -0.5 26 -0.5c36 0 67.5 2.66699 94.5 8s48.167 13.333 63.5 24
c12.667 8.66699 24.5 20.167 35.5 34.5s23.833 34.833 38.5 61.5c4 -18 8.66699 -34.333 14 -49s11.833 -28.667 19.5 -42s16.834 -26.5 27.501 -39.5s23.667 -26.5 39 -40.5h-578l73 60v201l-87 -111l-16 19.5l-33 40.5c-8 10 -15 18.333 -21 25l-17.5 19
c-5.66699 6 -11.667 12 -18 18l-23.5 22l-47 -70c-16 -24.667 -28.5 -48.334 -37.5 -71.001s-13.5 -42.334 -13.5 -59.001c0 -22 6 -40 18 -54s33 -27.333 63 -40h-301c20.667 8.66699 39.667 19.167 57 31.5s34.833 27.666 52.5 45.999s36.167 40.5 55.5 66.5
s41 57.667 65 95l52 81c-10.667 6 -20.667 10.667 -30 14s-20.666 6.33301 -33.999 9l-5 2l52 70c8.66699 -10.667 17.5 -20.834 26.5 -30.501s16.5 -16.5 22.5 -20.5l164 243l-74 60h607zM331.003 335l30.5 -29c8.33301 -8 16 -16 23 -24l22 -26l27.5 -35l87 106v290z" />
    <glyph glyph-name="Ccedilla" unicode="&#xc7;" horiz-adv-x="595" 
d="M340 -46c2.66699 0.666992 5.66309 0.99707 8.99609 0.99707c13.333 0 24.166 -6 32.499 -18s12.5 -27.333 12.5 -46c0 -30 -9 -55 -27 -75s-41 -30 -69 -30c-36 0 -64 17 -84 51c4 1.33301 8.66699 3.66602 14 6.99902l16 10.5
c5.33301 3.66699 10.333 7.33398 15 11.001s8.33398 6.83398 11.001 9.50098c0 -14.667 2.83301 -26.334 8.5 -35.001s13.167 -13 22.5 -13c10.667 0 19.667 6.66699 27 20s11 29.333 11 48c0 22.667 -9.66699 34 -29 34c-10 0 -19 -5.33301 -27 -16l-9 9
c4 10 7.5 19.333 10.5 28s6.5 20.334 10.5 35.001c-30.667 3.33301 -57.5 9.5 -80.5 18.5s-44.833 21.833 -65.5 38.5c-18 14 -34.167 31.167 -48.5 51.5s-26.5 42.833 -36.5 67.5s-17.667 51.167 -23 79.5s-8 57.5 -8 87.5c0 52 7.16699 99.667 21.5 143
s34.5 80.833 60.5 112.5s56.833 56.334 92.5 74.001s74.5 26.5 116.5 26.5c11.333 0 21.5 -0.333008 30.5 -1s18.333 -2 28 -4s20 -4.83301 31 -8.5s24.167 -8.5 39.5 -14.5c14.667 -5.33301 26.834 -9.16602 36.501 -11.499s19.167 -3.5 28.5 -3.5
c11.333 0 21.333 1.66699 30 5s20.667 10.333 36 21l-34 -61l-26 -49c-8 -15.333 -15.5 -31 -22.5 -47s-14.5 -34.333 -22.5 -55c-3.33301 25.333 -8 46.833 -14 64.5s-13.667 34.5 -23 50.5c-13.333 21.333 -31.666 38.5 -54.999 51.5s-47 19.5 -71 19.5
c-23.333 0 -46.166 -6.5 -68.499 -19.5s-40.166 -30.167 -53.499 -51.5c-32 -50.667 -48 -124.667 -48 -222c0 -103.333 17.167 -182.666 51.5 -237.999s83.5 -83 147.5 -83c48 0 86.333 16.167 115 48.5s45.667 78.166 51 137.499c2 14.667 8 22 18 22
c13.333 0 20 -11 20 -33c0 -17.333 -2.83301 -37.333 -8.5 -60s-12.5 -42 -20.5 -58c-30 -60 -87.333 -93.333 -172 -100z" />
    <glyph glyph-name="Egrave" unicode="&#xc8;" horiz-adv-x="603" 
d="M575 667l-32.5 -40.502c-9 -11.667 -16.833 -23.167 -23.5 -34.5s-12.834 -23.666 -18.501 -36.999s-11.834 -29 -18.501 -47c-1.33301 3.33301 -2.66602 6.16602 -3.99902 8.49902s-2.66602 5.16602 -3.99902 8.49902c-9.33301 20.667 -18.5 37.334 -27.5 50.001
s-19.833 22.667 -32.5 30s-27.834 12.333 -45.501 15s-39.5 4 -65.5 4c-18 0 -34.333 -0.166992 -49 -0.5s-31.667 -1.16602 -51 -2.49902v-241h141l67 80v-203l-67 80h-141v-291c19.333 -1.33301 33.5 -2.16602 42.5 -2.49902s17.833 -0.5 26.5 -0.5
c35.333 0 66.5 2.66699 93.5 8s48.167 13.333 63.5 24c12.667 8.66699 24.5 20.167 35.5 34.5s23.833 34.833 38.5 61.5c4 -18 8.66699 -34.333 14 -49s11.833 -28.667 19.5 -42s16.834 -26.5 27.501 -39.5s23.667 -26.5 39 -40.5h-576l73 60v277
c-22.667 0.666992 -42.5 -2 -59.5 -8s-33.5 -15.667 -49.5 -29c7.33301 27.333 19.833 47.5 37.5 60.5s41.5 19.5 71.5 19.5v227l-73 60h548zM253 810.998l76 -102h-55l-127 102h106z" />
    <glyph glyph-name="Eacute" unicode="&#xc9;" horiz-adv-x="603" 
d="M575 667l-32.5 -40.502c-9 -11.667 -16.833 -23.167 -23.5 -34.5s-12.834 -23.666 -18.501 -36.999s-11.834 -29 -18.501 -47c-1.33301 3.33301 -2.66602 6.16602 -3.99902 8.49902s-2.66602 5.16602 -3.99902 8.49902c-9.33301 20.667 -18.5 37.334 -27.5 50.001
s-19.833 22.667 -32.5 30s-27.834 12.333 -45.501 15s-39.5 4 -65.5 4c-18 0 -34.333 -0.166992 -49 -0.5s-31.667 -1.16602 -51 -2.49902v-241h141l67 80v-203l-67 80h-141v-291c19.333 -1.33301 33.5 -2.16602 42.5 -2.49902s17.833 -0.5 26.5 -0.5
c35.333 0 66.5 2.66699 93.5 8s48.167 13.333 63.5 24c12.667 8.66699 24.5 20.167 35.5 34.5s23.833 34.833 38.5 61.5c4 -18 8.66699 -34.333 14 -49s11.833 -28.667 19.5 -42s16.834 -26.5 27.501 -39.5s23.667 -26.5 39 -40.5h-576l73 60v277
c-22.667 0.666992 -42.5 -2 -59.5 -8s-33.5 -15.667 -49.5 -29c7.33301 27.333 19.833 47.5 37.5 60.5s41.5 19.5 71.5 19.5v227l-73 60h548zM329 708.998h-55l76 102h106z" />
    <glyph glyph-name="Ecircumflex" unicode="&#xca;" horiz-adv-x="603" 
d="M575 667l-32.5 -40.502c-9 -11.667 -16.833 -23.167 -23.5 -34.5s-12.834 -23.666 -18.501 -36.999s-11.834 -29 -18.501 -47c-1.33301 3.33301 -2.66602 6.16602 -3.99902 8.49902s-2.66602 5.16602 -3.99902 8.49902c-9.33301 20.667 -18.5 37.334 -27.5 50.001
s-19.833 22.667 -32.5 30s-27.834 12.333 -45.501 15s-39.5 4 -65.5 4c-18 0 -34.333 -0.166992 -49 -0.5s-31.667 -1.16602 -51 -2.49902v-241h141l67 80v-203l-67 80h-141v-291c19.333 -1.33301 33.5 -2.16602 42.5 -2.49902s17.833 -0.5 26.5 -0.5
c35.333 0 66.5 2.66699 93.5 8s48.167 13.333 63.5 24c12.667 8.66699 24.5 20.167 35.5 34.5s23.833 34.833 38.5 61.5c4 -18 8.66699 -34.333 14 -49s11.833 -28.667 19.5 -42s16.834 -26.5 27.501 -39.5s23.667 -26.5 39 -40.5h-576l73 60v277
c-22.667 0.666992 -42.5 -2 -59.5 -8s-33.5 -15.667 -49.5 -29c7.33301 27.333 19.833 47.5 37.5 60.5s41.5 19.5 71.5 19.5v227l-73 60h548zM424 708.998h-84l-53 60l-52 -60h-55l87 102h68z" />
    <glyph glyph-name="Edieresis" unicode="&#xcb;" horiz-adv-x="603" 
d="M575 667l-32.5 -40.502c-9 -11.667 -16.833 -23.167 -23.5 -34.5s-12.834 -23.666 -18.501 -36.999s-11.834 -29 -18.501 -47c-1.33301 3.33301 -2.66602 6.16602 -3.99902 8.49902s-2.66602 5.16602 -3.99902 8.49902c-9.33301 20.667 -18.5 37.334 -27.5 50.001
s-19.833 22.667 -32.5 30s-27.834 12.333 -45.501 15s-39.5 4 -65.5 4c-18 0 -34.333 -0.166992 -49 -0.5s-31.667 -1.16602 -51 -2.49902v-241h141l67 80v-203l-67 80h-141v-291c19.333 -1.33301 33.5 -2.16602 42.5 -2.49902s17.833 -0.5 26.5 -0.5
c35.333 0 66.5 2.66699 93.5 8s48.167 13.333 63.5 24c12.667 8.66699 24.5 20.167 35.5 34.5s23.833 34.833 38.5 61.5c4 -18 8.66699 -34.333 14 -49s11.833 -28.667 19.5 -42s16.834 -26.5 27.501 -39.5s23.667 -26.5 39 -40.5h-576l73 60v277
c-22.667 0.666992 -42.5 -2 -59.5 -8s-33.5 -15.667 -49.5 -29c7.33301 27.333 19.833 47.5 37.5 60.5s41.5 19.5 71.5 19.5v227l-73 60h548zM392 810.998c13.333 0 24.832 -5 34.499 -15s14.5 -21.667 14.5 -35c0 -14 -4.83301 -25.833 -14.5 -35.5
s-21.5 -14.5 -35.5 -14.5s-25.833 4.83301 -35.5 14.5s-14.5 21.5 -14.5 35.5s4.83301 25.833 14.5 35.5s21.834 14.5 36.501 14.5zM210.999 810.998c13.333 0 24.832 -5 34.499 -15s14.5 -21.667 14.5 -35c0 -14 -4.83301 -25.833 -14.5 -35.5s-21.5 -14.5 -35.5 -14.5
s-25.833 4.83301 -35.5 14.5s-14.5 21.5 -14.5 35.5s4.83301 25.833 14.5 35.5s21.834 14.5 36.501 14.5z" />
    <glyph glyph-name="Igrave" unicode="&#xcc;" horiz-adv-x="303" 
d="M276 667l-73 -60v-547l73 -60h-249l73 60v547l-73 60h249zM103 811l76 -102h-55l-127 102h106z" />
    <glyph glyph-name="Iacute" unicode="&#xcd;" horiz-adv-x="303" 
d="M276 667l-73 -60v-547l73 -60h-249l73 60v547l-73 60h249zM179 709h-55l76 102h106z" />
    <glyph glyph-name="Icircumflex" unicode="&#xce;" horiz-adv-x="303" 
d="M276 667l-73 -60v-547l73 -60h-249l73 60v547l-73 60h249zM274 709h-84l-53 60l-52 -60h-55l87 102h68z" />
    <glyph glyph-name="Idieresis" unicode="&#xcf;" horiz-adv-x="303" 
d="M276 667l-73 -60v-547l73 -60h-249l73 60v547l-73 60h249zM236 811c13.333 0 24.832 -5 34.499 -15s14.5 -21.667 14.5 -35c0 -14 -4.83301 -25.833 -14.5 -35.5s-21.5 -14.5 -35.5 -14.5s-25.833 4.83301 -35.5 14.5s-14.5 21.5 -14.5 35.5s4.83301 25.833 14.5 35.5
s21.834 14.5 36.501 14.5zM68.999 811c13.333 0 24.832 -5 34.499 -15s14.5 -21.667 14.5 -35c0 -14 -4.83301 -25.833 -14.5 -35.5s-21.5 -14.5 -35.5 -14.5s-25.833 4.83301 -35.5 14.5s-14.5 21.5 -14.5 35.5s4.83301 25.833 14.5 35.5s21.834 14.5 36.501 14.5z" />
    <glyph glyph-name="Eth" unicode="&#xd0;" horiz-adv-x="614" 
d="M16 381l84 0.00195312v226l-73 60h223c54.667 0 100 -4.83301 136 -14.5s67 -25.834 93 -48.501c67.333 -57.333 101 -145.333 101 -264c0 -70 -10.333 -129.667 -31 -179s-51 -87 -91 -113c-13.333 -9.33301 -26.833 -17 -40.5 -23s-28.667 -10.833 -45 -14.5
s-34.333 -6.33398 -54 -8.00098s-42.167 -2.5 -67.5 -2.5h-224l73 60v273h-67zM203 47.002c18.667 -1.33301 31.833 -2.33203 39.5 -2.99902s15.5 -1 23.5 -1c68 0 118.333 26.333 151 79c16 26 28.333 57.667 37 95s13 79 13 125c0 91.333 -17 161.166 -51 209.499
s-83 72.5 -147 72.5c-8 0 -16.667 -0.333008 -26 -1l-40 -3v-239h122l17 -48h-139v-286z" />
    <glyph glyph-name="Ntilde" unicode="&#xd1;" horiz-adv-x="610" 
d="M471 494c0 28 -1.33301 51.667 -4 71s-7.33398 35.666 -14.001 48.999s-15.667 24 -27 32s-25.333 15 -42 21h216c-17.333 -6 -31.5 -13 -42.5 -21s-19.833 -18.667 -26.5 -32s-11.334 -29.666 -14.001 -48.999s-4 -43 -4 -71v-494h-84l-287 556v-383
c0 -28 1.33301 -51.667 4 -71s7.33398 -35.666 14.001 -48.999s15.5 -24 26.5 -32s25.167 -15 42.5 -21h-216c16.667 6 30.667 13 42 21s20.333 18.667 27 32s11.334 29.666 14.001 48.999s4 43 4 71v434l-73 60h269l-73 -60l248 -480v367zM457 796
c0 -26 -7.83008 -47.8359 -23.4971 -65.5029s-34.834 -26.5 -57.501 -26.5c-12.667 0 -26.667 2.33301 -42 7s-33.333 12.334 -54 23.001c-14.667 7.33301 -25 12.166 -31 14.499s-12.333 3.5 -19 3.5c-22.667 0 -35.667 -13.667 -39 -41h-37
c0 14.667 2.33301 28.334 7 41.001s11.167 23.834 19.5 33.501s18.166 17.334 29.499 23.001s23.333 8.5 36 8.5c8 0 15 -0.5 21 -1.5s12.5 -2.83301 19.5 -5.5s15.167 -6.5 24.5 -11.5l35 -19.5c16.667 -10 30 -15 40 -15s17.667 3.33301 23 10s8.66602 18 9.99902 34h38
v-12z" />
    <glyph glyph-name="Ograve" unicode="&#xd2;" horiz-adv-x="632" 
d="M320 684c43.333 0 82.167 -8 116.5 -24s63.5 -39 87.5 -69s42.333 -66.833 55 -110.5s19 -92.834 19 -147.501c0 -55.333 -6.33301 -104.666 -19 -147.999s-31 -80 -55 -110s-53.5 -52.833 -88.5 -68.5s-74.833 -23.5 -119.5 -23.5s-84.5 7.83301 -119.5 23.5
s-64.667 38.5 -89 68.5s-42.833 66.5 -55.5 109.5s-19 92.167 -19 147.5c0 114 24.667 201.167 74 261.5s120.333 90.5 213 90.5zM308.001 641c-26 0 -50.668 -7.83301 -74.001 -23.5s-41 -36.167 -53 -61.5c-12.667 -26 -21.667 -56.5 -27 -91.5s-8 -78.5 -8 -130.5
s3 -95.667 9 -131s15.667 -66 29 -92c12.667 -25.333 31.5 -45.833 56.5 -61.5s51.5 -23.5 79.5 -23.5s53.667 7.66699 77 23s41 36 53 62s20.833 56.5 26.5 91.5s8.5 77.5 8.5 127.5c0 54 -3 98.833 -9 134.5s-15.667 66.167 -29 91.5
c-13.333 26 -32.666 46.667 -57.999 62s-52.333 23 -81 23zM267 811l76 -102h-55l-127 102h106z" />
    <glyph glyph-name="Oacute" unicode="&#xd3;" horiz-adv-x="632" 
d="M320 684c43.333 0 82.167 -8 116.5 -24s63.5 -39 87.5 -69s42.333 -66.833 55 -110.5s19 -92.834 19 -147.501c0 -55.333 -6.33301 -104.666 -19 -147.999s-31 -80 -55 -110s-53.5 -52.833 -88.5 -68.5s-74.833 -23.5 -119.5 -23.5s-84.5 7.83301 -119.5 23.5
s-64.667 38.5 -89 68.5s-42.833 66.5 -55.5 109.5s-19 92.167 -19 147.5c0 114 24.667 201.167 74 261.5s120.333 90.5 213 90.5zM308.001 641c-26 0 -50.668 -7.83301 -74.001 -23.5s-41 -36.167 -53 -61.5c-12.667 -26 -21.667 -56.5 -27 -91.5s-8 -78.5 -8 -130.5
s3 -95.667 9 -131s15.667 -66 29 -92c12.667 -25.333 31.5 -45.833 56.5 -61.5s51.5 -23.5 79.5 -23.5s53.667 7.66699 77 23s41 36 53 62s20.833 56.5 26.5 91.5s8.5 77.5 8.5 127.5c0 54 -3 98.833 -9 134.5s-15.667 66.167 -29 91.5
c-13.333 26 -32.666 46.667 -57.999 62s-52.333 23 -81 23zM343 709h-55l76 102h106z" />
    <glyph glyph-name="Ocircumflex" unicode="&#xd4;" horiz-adv-x="632" 
d="M320 684c43.333 0 82.167 -8 116.5 -24s63.5 -39 87.5 -69s42.333 -66.833 55 -110.5s19 -92.834 19 -147.501c0 -55.333 -6.33301 -104.666 -19 -147.999s-31 -80 -55 -110s-53.5 -52.833 -88.5 -68.5s-74.833 -23.5 -119.5 -23.5s-84.5 7.83301 -119.5 23.5
s-64.667 38.5 -89 68.5s-42.833 66.5 -55.5 109.5s-19 92.167 -19 147.5c0 114 24.667 201.167 74 261.5s120.333 90.5 213 90.5zM308.001 641c-26 0 -50.668 -7.83301 -74.001 -23.5s-41 -36.167 -53 -61.5c-12.667 -26 -21.667 -56.5 -27 -91.5s-8 -78.5 -8 -130.5
s3 -95.667 9 -131s15.667 -66 29 -92c12.667 -25.333 31.5 -45.833 56.5 -61.5s51.5 -23.5 79.5 -23.5s53.667 7.66699 77 23s41 36 53 62s20.833 56.5 26.5 91.5s8.5 77.5 8.5 127.5c0 54 -3 98.833 -9 134.5s-15.667 66.167 -29 91.5
c-13.333 26 -32.666 46.667 -57.999 62s-52.333 23 -81 23zM438 709h-84l-53 60l-52 -60h-55l87 102h68z" />
    <glyph glyph-name="Otilde" unicode="&#xd5;" horiz-adv-x="632" 
d="M320 684c43.333 0 82.167 -8 116.5 -24s63.5 -39 87.5 -69s42.333 -66.833 55 -110.5s19 -92.834 19 -147.501c0 -55.333 -6.33301 -104.666 -19 -147.999s-31 -80 -55 -110s-53.5 -52.833 -88.5 -68.5s-74.833 -23.5 -119.5 -23.5s-84.5 7.83301 -119.5 23.5
s-64.667 38.5 -89 68.5s-42.833 66.5 -55.5 109.5s-19 92.167 -19 147.5c0 114 24.667 201.167 74 261.5s120.333 90.5 213 90.5zM308.001 641c-26 0 -50.668 -7.83301 -74.001 -23.5s-41 -36.167 -53 -61.5c-12.667 -26 -21.667 -56.5 -27 -91.5s-8 -78.5 -8 -130.5
s3 -95.667 9 -131s15.667 -66 29 -92c12.667 -25.333 31.5 -45.833 56.5 -61.5s51.5 -23.5 79.5 -23.5s53.667 7.66699 77 23s41 36 53 62s20.833 56.5 26.5 91.5s8.5 77.5 8.5 127.5c0 54 -3 98.833 -9 134.5s-15.667 66.167 -29 91.5
c-13.333 26 -32.666 46.667 -57.999 62s-52.333 23 -81 23zM468 796c0 -26 -7.83008 -47.8359 -23.4971 -65.5029s-34.834 -26.5 -57.501 -26.5c-12.667 0 -26.667 2.33301 -42 7s-33.333 12.334 -54 23.001c-14.667 7.33301 -25 12.166 -31 14.499s-12.333 3.5 -19 3.5
c-22.667 0 -35.667 -13.667 -39 -41h-37c0 14.667 2.33301 28.334 7 41.001s11.167 23.834 19.5 33.501s18.166 17.334 29.499 23.001s23.333 8.5 36 8.5c8 0 15 -0.5 21 -1.5s12.5 -2.83301 19.5 -5.5s15.167 -6.5 24.5 -11.5l35 -19.5c16.667 -10 30 -15 40 -15
s17.667 3.33301 23 10s8.66602 18 9.99902 34h38v-12z" />
    <glyph glyph-name="Odieresis" unicode="&#xd6;" horiz-adv-x="632" 
d="M320 684c43.333 0 82.167 -8 116.5 -24s63.5 -39 87.5 -69s42.333 -66.833 55 -110.5s19 -92.834 19 -147.501c0 -55.333 -6.33301 -104.666 -19 -147.999s-31 -80 -55 -110s-53.5 -52.833 -88.5 -68.5s-74.833 -23.5 -119.5 -23.5s-84.5 7.83301 -119.5 23.5
s-64.667 38.5 -89 68.5s-42.833 66.5 -55.5 109.5s-19 92.167 -19 147.5c0 114 24.667 201.167 74 261.5s120.333 90.5 213 90.5zM308.001 641c-26 0 -50.668 -7.83301 -74.001 -23.5s-41 -36.167 -53 -61.5c-12.667 -26 -21.667 -56.5 -27 -91.5s-8 -78.5 -8 -130.5
s3 -95.667 9 -131s15.667 -66 29 -92c12.667 -25.333 31.5 -45.833 56.5 -61.5s51.5 -23.5 79.5 -23.5s53.667 7.66699 77 23s41 36 53 62s20.833 56.5 26.5 91.5s8.5 77.5 8.5 127.5c0 54 -3 98.833 -9 134.5s-15.667 66.167 -29 91.5
c-13.333 26 -32.666 46.667 -57.999 62s-52.333 23 -81 23zM406 811c13.333 0 24.832 -5 34.499 -15s14.5 -21.667 14.5 -35c0 -14 -4.83301 -25.833 -14.5 -35.5s-21.5 -14.5 -35.5 -14.5s-25.833 4.83301 -35.5 14.5s-14.5 21.5 -14.5 35.5s4.83301 25.833 14.5 35.5
s21.834 14.5 36.501 14.5zM224.999 811c13.333 0 24.832 -5 34.499 -15s14.5 -21.667 14.5 -35c0 -14 -4.83301 -25.833 -14.5 -35.5s-21.5 -14.5 -35.5 -14.5s-25.833 4.83301 -35.5 14.5s-14.5 21.5 -14.5 35.5s4.83301 25.833 14.5 35.5s21.834 14.5 36.501 14.5z" />
    <glyph glyph-name="multiply" unicode="&#xd7;" horiz-adv-x="467" 
d="M95 518l141 -141l136 137l46 -46l-136 -137l132 -133l-46 -46l-132 133l-137 -136l-46 46l137 136l-141 141z" />
    <glyph glyph-name="Oslash" unicode="&#xd8;" horiz-adv-x="632" 
d="M101 -17h-53l61 90c-50.667 62.667 -76 149.334 -76 260.001c0 55.333 6.33301 104.666 19 147.999s31 80 55 110s53.5 52.833 88.5 68.5s74.833 23.5 119.5 23.5c36 0 67.833 -4.5 95.5 -13.5s54.167 -23.5 79.5 -43.5l40 57h53l-61 -89
c50.667 -62.667 76 -149.334 76 -260.001c0 -55.333 -6.33301 -104.666 -19 -147.999s-31 -80 -55 -110s-53.5 -53 -88.5 -69s-74.5 -24 -118.5 -24c-36 0 -68 4.66699 -96 14s-54.667 24 -80 44zM186 107c14.667 -25.333 33.833 -45 57.5 -59s49.167 -21 76.5 -21
c28 0 53.667 7.66699 77 23s41 36 53 62c12.667 26 21.667 56.5 27 91.5s8 78.5 8 130.5c0 38 -1.5 71.5 -4.5 100.5s-8.16699 54.833 -15.5 77.5zM444.999 560c-14.667 24.667 -33.834 44.167 -57.501 58.5s-49.5 21.5 -77.5 21.5c-27.333 0 -52.666 -7.66699 -75.999 -23
s-41 -36 -53 -62c-12.667 -26 -21.667 -56.333 -27 -91s-8 -78 -8 -130c0 -38.667 1.66699 -72.667 5 -102s8.33301 -55 15 -77z" />
    <glyph glyph-name="Ugrave" unicode="&#xd9;" horiz-adv-x="630" 
d="M640 667c-21.333 -6.66699 -38.8301 -14.501 -52.4971 -23.501s-24.5 -20.833 -32.5 -35.5s-13.667 -32.834 -17 -54.501s-5 -48.167 -5 -79.5v-217c0 -28 -0.333008 -51.667 -1 -71s-1.66699 -36.166 -3 -50.499s-3.33301 -26.666 -6 -36.999s-6 -19.833 -10 -28.5
c-11.333 -28 -32.666 -49.5 -63.999 -64.5s-71 -22.5 -119 -22.5c-104 0 -172.333 29.667 -205 89c-10.667 19.333 -18.167 43.5 -22.5 72.5s-6.5 67.167 -6.5 114.5v348l-73 60h250l-74 -60v-416c0 -39.333 3.16699 -69.333 9.5 -90s17.166 -36.667 32.499 -48
c11.333 -8.66699 25.5 -15.334 42.5 -20.001s35.5 -7 55.5 -7c33.333 0 61.166 5.5 83.499 16.5s38.166 27.167 47.499 48.5c7.33301 16.667 12.666 37.667 15.999 63s5 59.333 5 102v218c0 31.333 -1.66699 57.833 -5 79.5s-9.16602 39.834 -17.499 54.501
s-19.333 26.5 -33 35.5s-30.834 16.833 -51.501 23.5h256zM283.003 810.999l76 -102h-55l-127 102h106z" />
    <glyph glyph-name="Uacute" unicode="&#xda;" horiz-adv-x="630" 
d="M640 667c-21.333 -6.66699 -38.8301 -14.501 -52.4971 -23.501s-24.5 -20.833 -32.5 -35.5s-13.667 -32.834 -17 -54.501s-5 -48.167 -5 -79.5v-217c0 -28 -0.333008 -51.667 -1 -71s-1.66699 -36.166 -3 -50.499s-3.33301 -26.666 -6 -36.999s-6 -19.833 -10 -28.5
c-11.333 -28 -32.666 -49.5 -63.999 -64.5s-71 -22.5 -119 -22.5c-104 0 -172.333 29.667 -205 89c-10.667 19.333 -18.167 43.5 -22.5 72.5s-6.5 67.167 -6.5 114.5v348l-73 60h250l-74 -60v-416c0 -39.333 3.16699 -69.333 9.5 -90s17.166 -36.667 32.499 -48
c11.333 -8.66699 25.5 -15.334 42.5 -20.001s35.5 -7 55.5 -7c33.333 0 61.166 5.5 83.499 16.5s38.166 27.167 47.499 48.5c7.33301 16.667 12.666 37.667 15.999 63s5 59.333 5 102v218c0 31.333 -1.66699 57.833 -5 79.5s-9.16602 39.834 -17.499 54.501
s-19.333 26.5 -33 35.5s-30.834 16.833 -51.501 23.5h256zM359.003 708.999h-55l76 102h106z" />
    <glyph glyph-name="Ucircumflex" unicode="&#xdb;" horiz-adv-x="630" 
d="M640 667c-21.333 -6.66699 -38.8301 -14.501 -52.4971 -23.501s-24.5 -20.833 -32.5 -35.5s-13.667 -32.834 -17 -54.501s-5 -48.167 -5 -79.5v-217c0 -28 -0.333008 -51.667 -1 -71s-1.66699 -36.166 -3 -50.499s-3.33301 -26.666 -6 -36.999s-6 -19.833 -10 -28.5
c-11.333 -28 -32.666 -49.5 -63.999 -64.5s-71 -22.5 -119 -22.5c-104 0 -172.333 29.667 -205 89c-10.667 19.333 -18.167 43.5 -22.5 72.5s-6.5 67.167 -6.5 114.5v348l-73 60h250l-74 -60v-416c0 -39.333 3.16699 -69.333 9.5 -90s17.166 -36.667 32.499 -48
c11.333 -8.66699 25.5 -15.334 42.5 -20.001s35.5 -7 55.5 -7c33.333 0 61.166 5.5 83.499 16.5s38.166 27.167 47.499 48.5c7.33301 16.667 12.666 37.667 15.999 63s5 59.333 5 102v218c0 31.333 -1.66699 57.833 -5 79.5s-9.16602 39.834 -17.499 54.501
s-19.333 26.5 -33 35.5s-30.834 16.833 -51.501 23.5h256zM453.003 708.999h-84l-53 60l-52 -60h-55l87 102h68z" />
    <glyph glyph-name="Udieresis" unicode="&#xdc;" horiz-adv-x="630" 
d="M640 667c-21.333 -6.66699 -38.8301 -14.501 -52.4971 -23.501s-24.5 -20.833 -32.5 -35.5s-13.667 -32.834 -17 -54.501s-5 -48.167 -5 -79.5v-217c0 -28 -0.333008 -51.667 -1 -71s-1.66699 -36.166 -3 -50.499s-3.33301 -26.666 -6 -36.999s-6 -19.833 -10 -28.5
c-11.333 -28 -32.666 -49.5 -63.999 -64.5s-71 -22.5 -119 -22.5c-104 0 -172.333 29.667 -205 89c-10.667 19.333 -18.167 43.5 -22.5 72.5s-6.5 67.167 -6.5 114.5v348l-73 60h250l-74 -60v-416c0 -39.333 3.16699 -69.333 9.5 -90s17.166 -36.667 32.499 -48
c11.333 -8.66699 25.5 -15.334 42.5 -20.001s35.5 -7 55.5 -7c33.333 0 61.166 5.5 83.499 16.5s38.166 27.167 47.499 48.5c7.33301 16.667 12.666 37.667 15.999 63s5 59.333 5 102v218c0 31.333 -1.66699 57.833 -5 79.5s-9.16602 39.834 -17.499 54.501
s-19.333 26.5 -33 35.5s-30.834 16.833 -51.501 23.5h256zM422.003 810.999c13.333 0 24.832 -5 34.499 -15s14.5 -21.667 14.5 -35c0 -14 -4.83301 -25.833 -14.5 -35.5s-21.5 -14.5 -35.5 -14.5s-25.833 4.83301 -35.5 14.5s-14.5 21.5 -14.5 35.5
s4.83301 25.833 14.5 35.5s21.834 14.5 36.501 14.5zM241.002 810.999c13.333 0 24.832 -5 34.499 -15s14.5 -21.667 14.5 -35c0 -14 -4.83301 -25.833 -14.5 -35.5s-21.5 -14.5 -35.5 -14.5s-25.833 4.83301 -35.5 14.5s-14.5 21.5 -14.5 35.5s4.83301 25.833 14.5 35.5
s21.834 14.5 36.501 14.5z" />
    <glyph glyph-name="Yacute" unicode="&#xdd;" horiz-adv-x="653" 
d="M502 562c17.333 28 29.5 50.835 36.5 68.502s10.5 33.5 10.5 47.5c0 10 -3.5 20 -10.5 30s-18.167 20.667 -33.5 32c20 3.33301 42.167 8.33301 66.5 15s48.333 14 72 22s46 16.333 67 25s38.167 17 51.5 25l-57.5 -58c-15 -15.333 -29 -31 -42 -47s-26.5 -34 -40.5 -54
l-52 -78l-192 -310v-220l73 -60h-249l73 60v220l-124 192l-49 75.5c-12.667 19 -24.667 35.167 -36 48.5s-22.833 25.166 -34.5 35.499s-26.5 22.166 -44.5 35.499h268l-73 -63l179 -272zM367 709.002h-55l76 102h106z" />
    <glyph glyph-name="Thorn" unicode="&#xde;" horiz-adv-x="572" 
d="M267 520c54 0 97.9971 -3.49609 131.997 -10.4961s62 -18.167 84 -33.5c50 -34.667 75 -81.334 75 -140.001c0 -28.667 -6.66699 -55.334 -20 -80.001s-31.666 -43.667 -54.999 -57c-23.333 -14 -52.166 -24.5 -86.499 -31.5s-72.833 -10.5 -115.5 -10.5
c-11.333 0 -22.333 0.166992 -33 0.5s-25.667 1.16602 -45 2.49902v-100l73 -60h-249l73 60v107c-3.33301 0.666992 -6 1 -8 1h-8c-16 0 -31.333 -1.33301 -46 -4s-30.667 -7.66699 -48 -15c20.667 43.333 57.334 64.666 110.001 63.999v394l-73 60h249l-73 -60v-87h64z
M202.997 207.004c11.333 -1.33301 21.166 -2.16699 29.499 -2.5s17.166 -0.5 26.499 -0.5c124 0 186 42.333 186 127c0 97.333 -56 146 -168 146c-11.333 0 -22.166 -0.333008 -32.499 -1s-24.166 -1.66699 -41.499 -3v-266z" />
    <glyph glyph-name="germandbls" unicode="&#xdf;" horiz-adv-x="1119" 
d="M519 661c-4.66699 -6 -10.6641 -15.333 -17.9971 -28s-15.166 -27.167 -23.499 -43.5s-16.666 -33.666 -24.999 -51.999s-15.5 -35.5 -21.5 -51.5c-4 17.333 -7.66699 31.333 -11 42s-7.66602 20.667 -12.999 30c-12.667 25.333 -31.834 45.5 -57.501 60.5
s-53.5 22.5 -83.5 22.5c-37.333 0 -67.833 -10.5 -91.5 -31.5s-35.5 -47.833 -35.5 -80.5c0 -44 21.667 -76 65 -96c8 -4 14.667 -7.16699 20 -9.5s12.833 -4.83301 22.5 -7.5s23 -6.16699 40 -10.5l71.5 -17.5c35.333 -8.66699 64.333 -18.834 87 -30.501
s41.667 -26.5 57 -44.5c29.333 -35.333 44 -76 44 -122c0 -29.333 -6 -56.666 -18 -81.999s-28.5 -47.333 -49.5 -66s-45.833 -33.334 -74.5 -44.001s-59.667 -16 -93 -16c-12 0 -23.667 0.5 -35 1.5s-23.666 3 -36.999 6s-29 6.83301 -47 11.5s-39.667 11 -65 19
c-22 6.66699 -40.667 10 -56 10c-10 0 -21 -2.33301 -33 -7s-27 -12.667 -45 -24c8.66699 12.667 18 28.167 28 46.5s19.667 37.333 29 57s17.666 38.334 24.999 56.001s12.333 32.167 15 43.5c2.66699 -12.667 5.33398 -23.334 8.00098 -32.001
s5.16699 -16.334 7.5 -23.001s4.66602 -12.667 6.99902 -18s5.16602 -10.666 8.49902 -15.999c17.333 -28 42.5 -49.667 75.5 -65s70.5 -23 112.5 -23c46 0 82.5 11 109.5 33s40.5 51.333 40.5 88c0 22 -6.16699 43 -18.5 63s-29.166 36.333 -50.499 49
c-8.66699 4.66699 -17.334 8.83398 -26.001 12.501s-18.834 7.33398 -30.501 11.001s-25.5 7.16699 -41.5 10.5l-59 12c-36.667 7.33301 -66 16.166 -88 26.499s-40.333 23.5 -55 39.5c-28.667 32.667 -43 72.667 -43 120c0 28.667 5.16699 54.834 15.5 78.501
s24.666 44 42.999 61s40.333 30.167 66 39.5s54.167 14 85.5 14c23.333 0 45.666 -2 66.999 -6s47.333 -10.667 78 -20c13.333 -4.66699 24.166 -7.83398 32.499 -9.50098s15.5 -2.5 21.5 -2.5c8.66699 0 17.5 1.16699 26.5 3.5s21.167 6.16602 36.5 11.499zM1079 661
c-4.66699 -6 -10.6641 -15.333 -17.9971 -28s-15.166 -27.167 -23.499 -43.5s-16.666 -33.666 -24.999 -51.999s-15.5 -35.5 -21.5 -51.5c-4 16.667 -7.66699 30.5 -11 41.5s-7.66602 21.167 -12.999 30.5c-13.333 25.333 -32.666 45.5 -57.999 60.5s-53 22.5 -83 22.5
c-37.333 0 -67.833 -10.5 -91.5 -31.5s-35.5 -47.833 -35.5 -80.5c0 -44 21.667 -76 65 -96c8 -4 14.667 -7.16699 20 -9.5s12.833 -4.83301 22.5 -7.5s23 -6.16699 40 -10.5l71.5 -17.5c35.333 -8.66699 64.333 -18.834 87 -30.501s41.667 -26.5 57 -44.5
c29.333 -35.333 44 -76 44 -122c0 -29.333 -6 -56.666 -18 -81.999s-28.5 -47.333 -49.5 -66s-46 -33.334 -75 -44.001s-60.167 -16 -93.5 -16c-12 0 -23.5 0.5 -34.5 1.5s-23.333 3 -37 6s-29.334 6.83301 -47.001 11.5s-39.167 11 -64.5 19c-22 6.66699 -40.667 10 -56 10
c-10.667 0 -21.834 -2.33301 -33.501 -7s-26.5 -12.667 -44.5 -24c8 12.667 17 28.167 27 46.5s19.667 37.333 29 57s17.666 38.334 24.999 56.001s12.666 32.167 15.999 43.5c5.33301 -25.333 10.166 -43.833 14.499 -55.5s9.83301 -22.834 16.5 -33.501
c17.333 -28 42.5 -49.667 75.5 -65s70.167 -23 111.5 -23c46 0 82.667 11 110 33s41 51.333 41 88c0 22 -6.16699 43 -18.5 63s-29.166 36.333 -50.499 49c-8.66699 4.66699 -17.334 8.83398 -26.001 12.501s-18.834 7.33398 -30.501 11.001s-25.5 7.16699 -41.5 10.5
l-59 12c-36.667 7.33301 -66 16.166 -88 26.499s-40.333 23.5 -55 39.5c-28.667 32.667 -43 72.667 -43 120c0 28.667 5.16699 54.834 15.5 78.501s24.666 44 42.999 61s40.333 30.167 66 39.5s54.167 14 85.5 14c23.333 0 45.5 -1.83301 66.5 -5.5s46.833 -10.5 77.5 -20.5
c14 -4.66699 25.167 -7.83398 33.5 -9.50098s15.5 -2.5 21.5 -2.5c8.66699 0 17.5 1.16699 26.5 3.5s21.167 6.16602 36.5 11.499z" />
    <glyph glyph-name="agrave" unicode="&#xe0;" horiz-adv-x="690" 
d="M420 607l87.998 -235.009c16 10.667 30.167 21 42.5 31s23.166 21 32.499 33c2 -7.33301 4.66699 -15.666 8 -24.999s7 -18.666 11 -27.999s8 -18.166 12 -26.499s7.66699 -14.833 11 -19.5c-7.33301 0.666992 -13 1 -17 1h-13c-14 0 -25.833 -1.16699 -35.5 -3.5
s-20.167 -6.5 -31.5 -12.5l97 -262l78 -60h-262l71 60l-72 189l-35 -35c-13.333 -13.333 -26.5 -28.5 -39.5 -45.5s-22.167 -30.5 -27.5 -40.5c-22.667 36.667 -43.5 67.834 -62.5 93.501s-37.5 47.167 -55.5 64.5l-28 -84c-6.66699 -20 -11.5 -35.5 -14.5 -46.5
s-4.66699 -19.333 -5 -25s-0.5 -12.5 -0.5 -20.5c0 -9.33301 0.666992 -17.666 2 -24.999s4 -14.666 8 -21.999s9.33301 -15.166 16 -23.499s15.334 -18.166 26.001 -29.499l9 -10h-260c22.667 10 43.667 23.5 63 40.5s37.333 38.167 54 63.5s32.334 55 47.001 89
s28.667 73.333 42 118c-13.333 9.33301 -25.5 16 -36.5 20s-25.5 7 -43.5 9c4 6 8.5 13.167 13.5 21.5s9.66699 16.5 14 24.5s8 15.333 11 22s4.83301 11.334 5.5 14.001c5.33301 -7.33301 9.83301 -13 13.5 -17s9.83398 -9.66699 18.501 -17
c7.33301 -6.66699 13 -11.667 17 -15s7 -6 9 -8l90 242l-55 60h239zM237.998 334.991l25.502 -28c7.66699 -8.66699 15.167 -17.667 22.5 -27s14.666 -19.166 21.999 -29.499l25 -34.5l5 -8c3.33301 3.33301 15.666 18.666 36.999 45.999c5.33301 6.66699 12 14.167 20 22.5
s16.667 16.833 26 25.5l-98 258zM296 810.991l76 -102h-55l-127 102h106z" />
    <glyph glyph-name="aacute" unicode="&#xe1;" horiz-adv-x="690" 
d="M420 607l87.998 -235.009c16 10.667 30.167 21 42.5 31s23.166 21 32.499 33c2 -7.33301 4.66699 -15.666 8 -24.999s7 -18.666 11 -27.999s8 -18.166 12 -26.499s7.66699 -14.833 11 -19.5c-7.33301 0.666992 -13 1 -17 1h-13c-14 0 -25.833 -1.16699 -35.5 -3.5
s-20.167 -6.5 -31.5 -12.5l97 -262l78 -60h-262l71 60l-72 189l-35 -35c-13.333 -13.333 -26.5 -28.5 -39.5 -45.5s-22.167 -30.5 -27.5 -40.5c-22.667 36.667 -43.5 67.834 -62.5 93.501s-37.5 47.167 -55.5 64.5l-28 -84c-6.66699 -20 -11.5 -35.5 -14.5 -46.5
s-4.66699 -19.333 -5 -25s-0.5 -12.5 -0.5 -20.5c0 -9.33301 0.666992 -17.666 2 -24.999s4 -14.666 8 -21.999s9.33301 -15.166 16 -23.499s15.334 -18.166 26.001 -29.499l9 -10h-260c22.667 10 43.667 23.5 63 40.5s37.333 38.167 54 63.5s32.334 55 47.001 89
s28.667 73.333 42 118c-13.333 9.33301 -25.5 16 -36.5 20s-25.5 7 -43.5 9c4 6 8.5 13.167 13.5 21.5s9.66699 16.5 14 24.5s8 15.333 11 22s4.83301 11.334 5.5 14.001c5.33301 -7.33301 9.83301 -13 13.5 -17s9.83398 -9.66699 18.501 -17
c7.33301 -6.66699 13 -11.667 17 -15s7 -6 9 -8l90 242l-55 60h239zM237.998 334.991l25.502 -28c7.66699 -8.66699 15.167 -17.667 22.5 -27s14.666 -19.166 21.999 -29.499l25 -34.5l5 -8c3.33301 3.33301 15.666 18.666 36.999 45.999c5.33301 6.66699 12 14.167 20 22.5
s16.667 16.833 26 25.5l-98 258zM385 708.991h-55l76 102h106z" />
    <glyph glyph-name="acircumflex" unicode="&#xe2;" horiz-adv-x="690" 
d="M420 607l87.998 -235.009c16 10.667 30.167 21 42.5 31s23.166 21 32.499 33c2 -7.33301 4.66699 -15.666 8 -24.999s7 -18.666 11 -27.999s8 -18.166 12 -26.499s7.66699 -14.833 11 -19.5c-7.33301 0.666992 -13 1 -17 1h-13c-14 0 -25.833 -1.16699 -35.5 -3.5
s-20.167 -6.5 -31.5 -12.5l97 -262l78 -60h-262l71 60l-72 189l-35 -35c-13.333 -13.333 -26.5 -28.5 -39.5 -45.5s-22.167 -30.5 -27.5 -40.5c-22.667 36.667 -43.5 67.834 -62.5 93.501s-37.5 47.167 -55.5 64.5l-28 -84c-6.66699 -20 -11.5 -35.5 -14.5 -46.5
s-4.66699 -19.333 -5 -25s-0.5 -12.5 -0.5 -20.5c0 -9.33301 0.666992 -17.666 2 -24.999s4 -14.666 8 -21.999s9.33301 -15.166 16 -23.499s15.334 -18.166 26.001 -29.499l9 -10h-260c22.667 10 43.667 23.5 63 40.5s37.333 38.167 54 63.5s32.334 55 47.001 89
s28.667 73.333 42 118c-13.333 9.33301 -25.5 16 -36.5 20s-25.5 7 -43.5 9c4 6 8.5 13.167 13.5 21.5s9.66699 16.5 14 24.5s8 15.333 11 22s4.83301 11.334 5.5 14.001c5.33301 -7.33301 9.83301 -13 13.5 -17s9.83398 -9.66699 18.501 -17
c7.33301 -6.66699 13 -11.667 17 -15s7 -6 9 -8l90 242l-55 60h239zM237.998 334.991l25.502 -28c7.66699 -8.66699 15.167 -17.667 22.5 -27s14.666 -19.166 21.999 -29.499l25 -34.5l5 -8c3.33301 3.33301 15.666 18.666 36.999 45.999c5.33301 6.66699 12 14.167 20 22.5
s16.667 16.833 26 25.5l-98 258zM480 708.991h-84l-53 60l-52 -60h-55l87 102h68z" />
    <glyph glyph-name="atilde" unicode="&#xe3;" horiz-adv-x="690" 
d="M420 607l87.998 -235.009c16 10.667 30.167 21 42.5 31s23.166 21 32.499 33c2 -7.33301 4.66699 -15.666 8 -24.999s7 -18.666 11 -27.999s8 -18.166 12 -26.499s7.66699 -14.833 11 -19.5c-7.33301 0.666992 -13 1 -17 1h-13c-14 0 -25.833 -1.16699 -35.5 -3.5
s-20.167 -6.5 -31.5 -12.5l97 -262l78 -60h-262l71 60l-72 189l-35 -35c-13.333 -13.333 -26.5 -28.5 -39.5 -45.5s-22.167 -30.5 -27.5 -40.5c-22.667 36.667 -43.5 67.834 -62.5 93.501s-37.5 47.167 -55.5 64.5l-28 -84c-6.66699 -20 -11.5 -35.5 -14.5 -46.5
s-4.66699 -19.333 -5 -25s-0.5 -12.5 -0.5 -20.5c0 -9.33301 0.666992 -17.666 2 -24.999s4 -14.666 8 -21.999s9.33301 -15.166 16 -23.499s15.334 -18.166 26.001 -29.499l9 -10h-260c22.667 10 43.667 23.5 63 40.5s37.333 38.167 54 63.5s32.334 55 47.001 89
s28.667 73.333 42 118c-13.333 9.33301 -25.5 16 -36.5 20s-25.5 7 -43.5 9c4 6 8.5 13.167 13.5 21.5s9.66699 16.5 14 24.5s8 15.333 11 22s4.83301 11.334 5.5 14.001c5.33301 -7.33301 9.83301 -13 13.5 -17s9.83398 -9.66699 18.501 -17
c7.33301 -6.66699 13 -11.667 17 -15s7 -6 9 -8l90 242l-55 60h239zM237.998 334.991l25.502 -28c7.66699 -8.66699 15.167 -17.667 22.5 -27s14.666 -19.166 21.999 -29.499l25 -34.5l5 -8c3.33301 3.33301 15.666 18.666 36.999 45.999c5.33301 6.66699 12 14.167 20 22.5
s16.667 16.833 26 25.5l-98 258zM510 795.991c0 -26 -7.83008 -47.8359 -23.4971 -65.5029s-34.834 -26.5 -57.501 -26.5c-12.667 0 -26.667 2.33301 -42 7s-33.333 12.334 -54 23.001c-14.667 7.33301 -25 12.166 -31 14.499s-12.333 3.5 -19 3.5
c-22.667 0 -35.667 -13.667 -39 -41h-37c0 14.667 2.33301 28.334 7 41.001s11.167 23.834 19.5 33.501s18.166 17.334 29.499 23.001s23.333 8.5 36 8.5c8 0 15 -0.5 21 -1.5s12.5 -2.83301 19.5 -5.5s15.167 -6.5 24.5 -11.5l35 -19.5c16.667 -10 30 -15 40 -15
s17.667 3.33301 23 10s8.66602 18 9.99902 34h38v-12z" />
    <glyph glyph-name="adieresis" unicode="&#xe4;" horiz-adv-x="690" 
d="M420 607l87.998 -235.009c16 10.667 30.167 21 42.5 31s23.166 21 32.499 33c2 -7.33301 4.66699 -15.666 8 -24.999s7 -18.666 11 -27.999s8 -18.166 12 -26.499s7.66699 -14.833 11 -19.5c-7.33301 0.666992 -13 1 -17 1h-13c-14 0 -25.833 -1.16699 -35.5 -3.5
s-20.167 -6.5 -31.5 -12.5l97 -262l78 -60h-262l71 60l-72 189l-35 -35c-13.333 -13.333 -26.5 -28.5 -39.5 -45.5s-22.167 -30.5 -27.5 -40.5c-22.667 36.667 -43.5 67.834 -62.5 93.501s-37.5 47.167 -55.5 64.5l-28 -84c-6.66699 -20 -11.5 -35.5 -14.5 -46.5
s-4.66699 -19.333 -5 -25s-0.5 -12.5 -0.5 -20.5c0 -9.33301 0.666992 -17.666 2 -24.999s4 -14.666 8 -21.999s9.33301 -15.166 16 -23.499s15.334 -18.166 26.001 -29.499l9 -10h-260c22.667 10 43.667 23.5 63 40.5s37.333 38.167 54 63.5s32.334 55 47.001 89
s28.667 73.333 42 118c-13.333 9.33301 -25.5 16 -36.5 20s-25.5 7 -43.5 9c4 6 8.5 13.167 13.5 21.5s9.66699 16.5 14 24.5s8 15.333 11 22s4.83301 11.334 5.5 14.001c5.33301 -7.33301 9.83301 -13 13.5 -17s9.83398 -9.66699 18.501 -17
c7.33301 -6.66699 13 -11.667 17 -15s7 -6 9 -8l90 242l-55 60h239zM237.998 334.991l25.502 -28c7.66699 -8.66699 15.167 -17.667 22.5 -27s14.666 -19.166 21.999 -29.499l25 -34.5l5 -8c3.33301 3.33301 15.666 18.666 36.999 45.999c5.33301 6.66699 12 14.167 20 22.5
s16.667 16.833 26 25.5l-98 258zM449 810.991c13.333 0 24.832 -5 34.499 -15s14.5 -21.667 14.5 -35c0 -14 -4.83301 -25.833 -14.5 -35.5s-21.5 -14.5 -35.5 -14.5s-25.833 4.83301 -35.5 14.5s-14.5 21.5 -14.5 35.5s4.83301 25.833 14.5 35.5s21.834 14.5 36.501 14.5z
M267.999 810.991c13.333 0 24.832 -5 34.499 -15s14.5 -21.667 14.5 -35c0 -14 -4.83301 -25.833 -14.5 -35.5s-21.5 -14.5 -35.5 -14.5s-25.833 4.83301 -35.5 14.5s-14.5 21.5 -14.5 35.5s4.83301 25.833 14.5 35.5s21.834 14.5 36.501 14.5z" />
    <glyph glyph-name="aring" unicode="&#xe5;" horiz-adv-x="690" 
d="M420 607l87.998 -235.009c16 10.667 30.167 21 42.5 31s23.166 21 32.499 33c2 -7.33301 4.66699 -15.666 8 -24.999s7 -18.666 11 -27.999s8 -18.166 12 -26.499s7.66699 -14.833 11 -19.5c-7.33301 0.666992 -13 1 -17 1h-13c-14 0 -25.833 -1.16699 -35.5 -3.5
s-20.167 -6.5 -31.5 -12.5l97 -262l78 -60h-262l71 60l-72 189l-35 -35c-13.333 -13.333 -26.5 -28.5 -39.5 -45.5s-22.167 -30.5 -27.5 -40.5c-22.667 36.667 -43.5 67.834 -62.5 93.501s-37.5 47.167 -55.5 64.5l-28 -84c-6.66699 -20 -11.5 -35.5 -14.5 -46.5
s-4.66699 -19.333 -5 -25s-0.5 -12.5 -0.5 -20.5c0 -9.33301 0.666992 -17.666 2 -24.999s4 -14.666 8 -21.999s9.33301 -15.166 16 -23.499s15.334 -18.166 26.001 -29.499l9 -10h-260c22.667 10 43.667 23.5 63 40.5s37.333 38.167 54 63.5s32.334 55 47.001 89
s28.667 73.333 42 118c-13.333 9.33301 -25.5 16 -36.5 20s-25.5 7 -43.5 9c4 6 8.5 13.167 13.5 21.5s9.66699 16.5 14 24.5s8 15.333 11 22s4.83301 11.334 5.5 14.001c5.33301 -7.33301 9.83301 -13 13.5 -17s9.83398 -9.66699 18.501 -17
c7.33301 -6.66699 13 -11.667 17 -15s7 -6 9 -8l90 242l-55 60h239zM237.998 334.991l25.502 -28c7.66699 -8.66699 15.167 -17.667 22.5 -27s14.666 -19.166 21.999 -29.499l25 -34.5l5 -8c3.33301 3.33301 15.666 18.666 36.999 45.999c5.33301 6.66699 12 14.167 20 22.5
s16.667 16.833 26 25.5l-98 258zM359 834.991c20 0 37.166 -7.33105 51.499 -21.998s21.5 -32.334 21.5 -53.001s-7.16699 -38.167 -21.5 -52.5s-32.166 -21.5 -53.499 -21.5c-20.667 0 -38.167 7.16699 -52.5 21.5s-21.5 31.833 -21.5 52.5
c0 21.333 7.33301 39.166 22 53.499s32.667 21.5 54 21.5zM356.999 793.993c-9.33301 0 -17.166 -3.33301 -23.499 -10s-9.5 -14.667 -9.5 -24s3.33301 -17.333 10 -24s14.667 -10 24 -10s17.166 3.33301 23.499 10s9.5 14.667 9.5 24s-3.33301 17.333 -10 24
s-14.667 10 -24 10z" />
    <glyph glyph-name="ae" unicode="&#xe6;" horiz-adv-x="1024" 
d="M997 667l-32.4971 -40.5c-9 -11.667 -16.833 -23.167 -23.5 -34.5s-12.834 -23.666 -18.501 -36.999s-11.834 -29 -18.501 -47c-2 5.33301 -4.66699 11 -8 17c-9.33301 20.667 -18.5 37.334 -27.5 50.001s-19.833 22.667 -32.5 30s-27.834 12.333 -45.501 15
s-39.5 4 -65.5 4c-18.667 0 -35.334 -0.166992 -50.001 -0.5s-31.667 -1.16602 -51 -2.49902v-241h142l67 80v-203l-67 80h-142v-291c19.333 -1.33301 33.666 -2.16602 42.999 -2.49902s18 -0.5 26 -0.5c36 0 67.5 2.66699 94.5 8s48.167 13.333 63.5 24
c12.667 8.66699 24.5 20.167 35.5 34.5s23.833 34.833 38.5 61.5c4 -18 8.66699 -34.333 14 -49s11.833 -28.667 19.5 -42s16.834 -26.5 27.501 -39.5s23.667 -26.5 39 -40.5h-578l73 60v201l-87 -111l-16 19.5l-33 40.5c-8 10 -15 18.333 -21 25l-17.5 19
c-5.66699 6 -11.667 12 -18 18l-23.5 22l-47 -70c-16 -24.667 -28.5 -48.334 -37.5 -71.001s-13.5 -42.334 -13.5 -59.001c0 -22 6 -40 18 -54s33 -27.333 63 -40h-301c20.667 8.66699 39.667 19.167 57 31.5s34.833 27.666 52.5 45.999s36.167 40.5 55.5 66.5
s41 57.667 65 95l52 81c-10.667 6 -20.667 10.667 -30 14s-20.666 6.33301 -33.999 9l-5 2l52 70c8.66699 -10.667 17.5 -20.834 26.5 -30.501s16.5 -16.5 22.5 -20.5l164 243l-74 60h607zM331.003 335l30.5 -29c8.33301 -8 16 -16 23 -24l22 -26l27.5 -35l87 106v290z" />
    <glyph glyph-name="ccedilla" unicode="&#xe7;" horiz-adv-x="595" 
d="M340 -46c2.66699 0.666992 5.66309 0.99707 8.99609 0.99707c13.333 0 24.166 -6 32.499 -18s12.5 -27.333 12.5 -46c0 -30 -9 -55 -27 -75s-41 -30 -69 -30c-36 0 -64 17 -84 51c4 1.33301 8.66699 3.66602 14 6.99902l16 10.5
c5.33301 3.66699 10.333 7.33398 15 11.001s8.33398 6.83398 11.001 9.50098c0 -14.667 2.83301 -26.334 8.5 -35.001s13.167 -13 22.5 -13c10.667 0 19.667 6.66699 27 20s11 29.333 11 48c0 22.667 -9.66699 34 -29 34c-10 0 -19 -5.33301 -27 -16l-9 9
c4 10 7.5 19.333 10.5 28s6.5 20.334 10.5 35.001c-30.667 3.33301 -57.5 9.5 -80.5 18.5s-44.833 21.833 -65.5 38.5c-18 14 -34.167 31.167 -48.5 51.5s-26.5 42.833 -36.5 67.5s-17.667 51.167 -23 79.5s-8 57.5 -8 87.5c0 52 7.16699 99.667 21.5 143
s34.5 80.833 60.5 112.5s56.833 56.334 92.5 74.001s74.5 26.5 116.5 26.5c11.333 0 21.5 -0.333008 30.5 -1s18.333 -2 28 -4s20 -4.83301 31 -8.5s24.167 -8.5 39.5 -14.5c14.667 -5.33301 26.834 -9.16602 36.501 -11.499s19.167 -3.5 28.5 -3.5
c11.333 0 21.333 1.66699 30 5s20.667 10.333 36 21l-34 -61l-26 -49c-8 -15.333 -15.5 -31 -22.5 -47s-14.5 -34.333 -22.5 -55c-3.33301 25.333 -8 46.833 -14 64.5s-13.667 34.5 -23 50.5c-13.333 21.333 -31.666 38.5 -54.999 51.5s-47 19.5 -71 19.5
c-23.333 0 -46.166 -6.5 -68.499 -19.5s-40.166 -30.167 -53.499 -51.5c-32 -50.667 -48 -124.667 -48 -222c0 -103.333 17.167 -182.666 51.5 -237.999s83.5 -83 147.5 -83c48 0 86.333 16.167 115 48.5s45.667 78.166 51 137.499c2 14.667 8 22 18 22
c13.333 0 20 -11 20 -33c0 -17.333 -2.83301 -37.333 -8.5 -60s-12.5 -42 -20.5 -58c-30 -60 -87.333 -93.333 -172 -100z" />
    <glyph glyph-name="egrave" unicode="&#xe8;" horiz-adv-x="603" 
d="M575 667l-32.5 -40.502c-9 -11.667 -16.833 -23.167 -23.5 -34.5s-12.834 -23.666 -18.501 -36.999s-11.834 -29 -18.501 -47c-1.33301 3.33301 -2.66602 6.16602 -3.99902 8.49902s-2.66602 5.16602 -3.99902 8.49902c-9.33301 20.667 -18.5 37.334 -27.5 50.001
s-19.833 22.667 -32.5 30s-27.834 12.333 -45.501 15s-39.5 4 -65.5 4c-18 0 -34.333 -0.166992 -49 -0.5s-31.667 -1.16602 -51 -2.49902v-241h141l67 80v-203l-67 80h-141v-291c19.333 -1.33301 33.5 -2.16602 42.5 -2.49902s17.833 -0.5 26.5 -0.5
c35.333 0 66.5 2.66699 93.5 8s48.167 13.333 63.5 24c12.667 8.66699 24.5 20.167 35.5 34.5s23.833 34.833 38.5 61.5c4 -18 8.66699 -34.333 14 -49s11.833 -28.667 19.5 -42s16.834 -26.5 27.501 -39.5s23.667 -26.5 39 -40.5h-576l73 60v277
c-22.667 0.666992 -42.5 -2 -59.5 -8s-33.5 -15.667 -49.5 -29c7.33301 27.333 19.833 47.5 37.5 60.5s41.5 19.5 71.5 19.5v227l-73 60h548zM253 810.998l76 -102h-55l-127 102h106z" />
    <glyph glyph-name="eacute" unicode="&#xe9;" horiz-adv-x="603" 
d="M575 667l-32.5 -40.502c-9 -11.667 -16.833 -23.167 -23.5 -34.5s-12.834 -23.666 -18.501 -36.999s-11.834 -29 -18.501 -47c-1.33301 3.33301 -2.66602 6.16602 -3.99902 8.49902s-2.66602 5.16602 -3.99902 8.49902c-9.33301 20.667 -18.5 37.334 -27.5 50.001
s-19.833 22.667 -32.5 30s-27.834 12.333 -45.501 15s-39.5 4 -65.5 4c-18 0 -34.333 -0.166992 -49 -0.5s-31.667 -1.16602 -51 -2.49902v-241h141l67 80v-203l-67 80h-141v-291c19.333 -1.33301 33.5 -2.16602 42.5 -2.49902s17.833 -0.5 26.5 -0.5
c35.333 0 66.5 2.66699 93.5 8s48.167 13.333 63.5 24c12.667 8.66699 24.5 20.167 35.5 34.5s23.833 34.833 38.5 61.5c4 -18 8.66699 -34.333 14 -49s11.833 -28.667 19.5 -42s16.834 -26.5 27.501 -39.5s23.667 -26.5 39 -40.5h-576l73 60v277
c-22.667 0.666992 -42.5 -2 -59.5 -8s-33.5 -15.667 -49.5 -29c7.33301 27.333 19.833 47.5 37.5 60.5s41.5 19.5 71.5 19.5v227l-73 60h548zM329 708.998h-55l76 102h106z" />
    <glyph glyph-name="ecircumflex" unicode="&#xea;" horiz-adv-x="603" 
d="M575 667l-32.5 -40.502c-9 -11.667 -16.833 -23.167 -23.5 -34.5s-12.834 -23.666 -18.501 -36.999s-11.834 -29 -18.501 -47c-1.33301 3.33301 -2.66602 6.16602 -3.99902 8.49902s-2.66602 5.16602 -3.99902 8.49902c-9.33301 20.667 -18.5 37.334 -27.5 50.001
s-19.833 22.667 -32.5 30s-27.834 12.333 -45.501 15s-39.5 4 -65.5 4c-18 0 -34.333 -0.166992 -49 -0.5s-31.667 -1.16602 -51 -2.49902v-241h141l67 80v-203l-67 80h-141v-291c19.333 -1.33301 33.5 -2.16602 42.5 -2.49902s17.833 -0.5 26.5 -0.5
c35.333 0 66.5 2.66699 93.5 8s48.167 13.333 63.5 24c12.667 8.66699 24.5 20.167 35.5 34.5s23.833 34.833 38.5 61.5c4 -18 8.66699 -34.333 14 -49s11.833 -28.667 19.5 -42s16.834 -26.5 27.501 -39.5s23.667 -26.5 39 -40.5h-576l73 60v277
c-22.667 0.666992 -42.5 -2 -59.5 -8s-33.5 -15.667 -49.5 -29c7.33301 27.333 19.833 47.5 37.5 60.5s41.5 19.5 71.5 19.5v227l-73 60h548zM424 708.998h-84l-53 60l-52 -60h-55l87 102h68z" />
    <glyph glyph-name="edieresis" unicode="&#xeb;" horiz-adv-x="603" 
d="M575 667l-32.5 -40.502c-9 -11.667 -16.833 -23.167 -23.5 -34.5s-12.834 -23.666 -18.501 -36.999s-11.834 -29 -18.501 -47c-1.33301 3.33301 -2.66602 6.16602 -3.99902 8.49902s-2.66602 5.16602 -3.99902 8.49902c-9.33301 20.667 -18.5 37.334 -27.5 50.001
s-19.833 22.667 -32.5 30s-27.834 12.333 -45.501 15s-39.5 4 -65.5 4c-18 0 -34.333 -0.166992 -49 -0.5s-31.667 -1.16602 -51 -2.49902v-241h141l67 80v-203l-67 80h-141v-291c19.333 -1.33301 33.5 -2.16602 42.5 -2.49902s17.833 -0.5 26.5 -0.5
c35.333 0 66.5 2.66699 93.5 8s48.167 13.333 63.5 24c12.667 8.66699 24.5 20.167 35.5 34.5s23.833 34.833 38.5 61.5c4 -18 8.66699 -34.333 14 -49s11.833 -28.667 19.5 -42s16.834 -26.5 27.501 -39.5s23.667 -26.5 39 -40.5h-576l73 60v277
c-22.667 0.666992 -42.5 -2 -59.5 -8s-33.5 -15.667 -49.5 -29c7.33301 27.333 19.833 47.5 37.5 60.5s41.5 19.5 71.5 19.5v227l-73 60h548zM392 810.998c13.333 0 24.832 -5 34.499 -15s14.5 -21.667 14.5 -35c0 -14 -4.83301 -25.833 -14.5 -35.5
s-21.5 -14.5 -35.5 -14.5s-25.833 4.83301 -35.5 14.5s-14.5 21.5 -14.5 35.5s4.83301 25.833 14.5 35.5s21.834 14.5 36.501 14.5zM210.999 810.998c13.333 0 24.832 -5 34.499 -15s14.5 -21.667 14.5 -35c0 -14 -4.83301 -25.833 -14.5 -35.5s-21.5 -14.5 -35.5 -14.5
s-25.833 4.83301 -35.5 14.5s-14.5 21.5 -14.5 35.5s4.83301 25.833 14.5 35.5s21.834 14.5 36.501 14.5z" />
    <glyph glyph-name="igrave" unicode="&#xec;" horiz-adv-x="303" 
d="M276 667l-73 -60v-547l73 -60h-249l73 60v547l-73 60h249zM103 811l76 -102h-55l-127 102h106z" />
    <glyph glyph-name="iacute" unicode="&#xed;" horiz-adv-x="303" 
d="M276 667l-73 -60v-547l73 -60h-249l73 60v547l-73 60h249zM179 709h-55l76 102h106z" />
    <glyph glyph-name="icircumflex" unicode="&#xee;" horiz-adv-x="303" 
d="M276 667l-73 -60v-547l73 -60h-249l73 60v547l-73 60h249zM274 709h-84l-53 60l-52 -60h-55l87 102h68z" />
    <glyph glyph-name="idieresis" unicode="&#xef;" horiz-adv-x="303" 
d="M276 667l-73 -60v-547l73 -60h-249l73 60v547l-73 60h249zM236 811c13.333 0 24.832 -5 34.499 -15s14.5 -21.667 14.5 -35c0 -14 -4.83301 -25.833 -14.5 -35.5s-21.5 -14.5 -35.5 -14.5s-25.833 4.83301 -35.5 14.5s-14.5 21.5 -14.5 35.5s4.83301 25.833 14.5 35.5
s21.834 14.5 36.501 14.5zM68.999 811c13.333 0 24.832 -5 34.499 -15s14.5 -21.667 14.5 -35c0 -14 -4.83301 -25.833 -14.5 -35.5s-21.5 -14.5 -35.5 -14.5s-25.833 4.83301 -35.5 14.5s-14.5 21.5 -14.5 35.5s4.83301 25.833 14.5 35.5s21.834 14.5 36.501 14.5z" />
    <glyph glyph-name="eth" unicode="&#xf0;" horiz-adv-x="614" 
d="M16 381l84 0.00195312v226l-73 60h223c54.667 0 100 -4.83301 136 -14.5s67 -25.834 93 -48.501c67.333 -57.333 101 -145.333 101 -264c0 -70 -10.333 -129.667 -31 -179s-51 -87 -91 -113c-13.333 -9.33301 -26.833 -17 -40.5 -23s-28.667 -10.833 -45 -14.5
s-34.333 -6.33398 -54 -8.00098s-42.167 -2.5 -67.5 -2.5h-224l73 60v273h-67zM203 47.002c18.667 -1.33301 31.833 -2.33203 39.5 -2.99902s15.5 -1 23.5 -1c68 0 118.333 26.333 151 79c16 26 28.333 57.667 37 95s13 79 13 125c0 91.333 -17 161.166 -51 209.499
s-83 72.5 -147 72.5c-8 0 -16.667 -0.333008 -26 -1l-40 -3v-239h122l17 -48h-139v-286z" />
    <glyph glyph-name="ntilde" unicode="&#xf1;" horiz-adv-x="610" 
d="M471 494c0 28 -1.33301 51.667 -4 71s-7.33398 35.666 -14.001 48.999s-15.667 24 -27 32s-25.333 15 -42 21h216c-17.333 -6 -31.5 -13 -42.5 -21s-19.833 -18.667 -26.5 -32s-11.334 -29.666 -14.001 -48.999s-4 -43 -4 -71v-494h-84l-287 556v-383
c0 -28 1.33301 -51.667 4 -71s7.33398 -35.666 14.001 -48.999s15.5 -24 26.5 -32s25.167 -15 42.5 -21h-216c16.667 6 30.667 13 42 21s20.333 18.667 27 32s11.334 29.666 14.001 48.999s4 43 4 71v434l-73 60h269l-73 -60l248 -480v367zM457 796
c0 -26 -7.83008 -47.8359 -23.4971 -65.5029s-34.834 -26.5 -57.501 -26.5c-12.667 0 -26.667 2.33301 -42 7s-33.333 12.334 -54 23.001c-14.667 7.33301 -25 12.166 -31 14.499s-12.333 3.5 -19 3.5c-22.667 0 -35.667 -13.667 -39 -41h-37
c0 14.667 2.33301 28.334 7 41.001s11.167 23.834 19.5 33.501s18.166 17.334 29.499 23.001s23.333 8.5 36 8.5c8 0 15 -0.5 21 -1.5s12.5 -2.83301 19.5 -5.5s15.167 -6.5 24.5 -11.5l35 -19.5c16.667 -10 30 -15 40 -15s17.667 3.33301 23 10s8.66602 18 9.99902 34h38
v-12z" />
    <glyph glyph-name="ograve" unicode="&#xf2;" horiz-adv-x="632" 
d="M320 684c43.333 0 82.167 -8 116.5 -24s63.5 -39 87.5 -69s42.333 -66.833 55 -110.5s19 -92.834 19 -147.501c0 -55.333 -6.33301 -104.666 -19 -147.999s-31 -80 -55 -110s-53.5 -52.833 -88.5 -68.5s-74.833 -23.5 -119.5 -23.5s-84.5 7.83301 -119.5 23.5
s-64.667 38.5 -89 68.5s-42.833 66.5 -55.5 109.5s-19 92.167 -19 147.5c0 114 24.667 201.167 74 261.5s120.333 90.5 213 90.5zM308.001 641c-26 0 -50.668 -7.83301 -74.001 -23.5s-41 -36.167 -53 -61.5c-12.667 -26 -21.667 -56.5 -27 -91.5s-8 -78.5 -8 -130.5
s3 -95.667 9 -131s15.667 -66 29 -92c12.667 -25.333 31.5 -45.833 56.5 -61.5s51.5 -23.5 79.5 -23.5s53.667 7.66699 77 23s41 36 53 62s20.833 56.5 26.5 91.5s8.5 77.5 8.5 127.5c0 54 -3 98.833 -9 134.5s-15.667 66.167 -29 91.5
c-13.333 26 -32.666 46.667 -57.999 62s-52.333 23 -81 23zM267 811l76 -102h-55l-127 102h106z" />
    <glyph glyph-name="oacute" unicode="&#xf3;" horiz-adv-x="632" 
d="M320 684c43.333 0 82.167 -8 116.5 -24s63.5 -39 87.5 -69s42.333 -66.833 55 -110.5s19 -92.834 19 -147.501c0 -55.333 -6.33301 -104.666 -19 -147.999s-31 -80 -55 -110s-53.5 -52.833 -88.5 -68.5s-74.833 -23.5 -119.5 -23.5s-84.5 7.83301 -119.5 23.5
s-64.667 38.5 -89 68.5s-42.833 66.5 -55.5 109.5s-19 92.167 -19 147.5c0 114 24.667 201.167 74 261.5s120.333 90.5 213 90.5zM308.001 641c-26 0 -50.668 -7.83301 -74.001 -23.5s-41 -36.167 -53 -61.5c-12.667 -26 -21.667 -56.5 -27 -91.5s-8 -78.5 -8 -130.5
s3 -95.667 9 -131s15.667 -66 29 -92c12.667 -25.333 31.5 -45.833 56.5 -61.5s51.5 -23.5 79.5 -23.5s53.667 7.66699 77 23s41 36 53 62s20.833 56.5 26.5 91.5s8.5 77.5 8.5 127.5c0 54 -3 98.833 -9 134.5s-15.667 66.167 -29 91.5
c-13.333 26 -32.666 46.667 -57.999 62s-52.333 23 -81 23zM343 709h-55l76 102h106z" />
    <glyph glyph-name="ocircumflex" unicode="&#xf4;" horiz-adv-x="632" 
d="M320 684c43.333 0 82.167 -8 116.5 -24s63.5 -39 87.5 -69s42.333 -66.833 55 -110.5s19 -92.834 19 -147.501c0 -55.333 -6.33301 -104.666 -19 -147.999s-31 -80 -55 -110s-53.5 -52.833 -88.5 -68.5s-74.833 -23.5 -119.5 -23.5s-84.5 7.83301 -119.5 23.5
s-64.667 38.5 -89 68.5s-42.833 66.5 -55.5 109.5s-19 92.167 -19 147.5c0 114 24.667 201.167 74 261.5s120.333 90.5 213 90.5zM308.001 641c-26 0 -50.668 -7.83301 -74.001 -23.5s-41 -36.167 -53 -61.5c-12.667 -26 -21.667 -56.5 -27 -91.5s-8 -78.5 -8 -130.5
s3 -95.667 9 -131s15.667 -66 29 -92c12.667 -25.333 31.5 -45.833 56.5 -61.5s51.5 -23.5 79.5 -23.5s53.667 7.66699 77 23s41 36 53 62s20.833 56.5 26.5 91.5s8.5 77.5 8.5 127.5c0 54 -3 98.833 -9 134.5s-15.667 66.167 -29 91.5
c-13.333 26 -32.666 46.667 -57.999 62s-52.333 23 -81 23zM438 709h-84l-53 60l-52 -60h-55l87 102h68z" />
    <glyph glyph-name="otilde" unicode="&#xf5;" horiz-adv-x="632" 
d="M320 684c43.333 0 82.167 -8 116.5 -24s63.5 -39 87.5 -69s42.333 -66.833 55 -110.5s19 -92.834 19 -147.501c0 -55.333 -6.33301 -104.666 -19 -147.999s-31 -80 -55 -110s-53.5 -52.833 -88.5 -68.5s-74.833 -23.5 -119.5 -23.5s-84.5 7.83301 -119.5 23.5
s-64.667 38.5 -89 68.5s-42.833 66.5 -55.5 109.5s-19 92.167 -19 147.5c0 114 24.667 201.167 74 261.5s120.333 90.5 213 90.5zM308.001 641c-26 0 -50.668 -7.83301 -74.001 -23.5s-41 -36.167 -53 -61.5c-12.667 -26 -21.667 -56.5 -27 -91.5s-8 -78.5 -8 -130.5
s3 -95.667 9 -131s15.667 -66 29 -92c12.667 -25.333 31.5 -45.833 56.5 -61.5s51.5 -23.5 79.5 -23.5s53.667 7.66699 77 23s41 36 53 62s20.833 56.5 26.5 91.5s8.5 77.5 8.5 127.5c0 54 -3 98.833 -9 134.5s-15.667 66.167 -29 91.5
c-13.333 26 -32.666 46.667 -57.999 62s-52.333 23 -81 23zM468 796c0 -26 -7.83008 -47.8359 -23.4971 -65.5029s-34.834 -26.5 -57.501 -26.5c-12.667 0 -26.667 2.33301 -42 7s-33.333 12.334 -54 23.001c-14.667 7.33301 -25 12.166 -31 14.499s-12.333 3.5 -19 3.5
c-22.667 0 -35.667 -13.667 -39 -41h-37c0 14.667 2.33301 28.334 7 41.001s11.167 23.834 19.5 33.501s18.166 17.334 29.499 23.001s23.333 8.5 36 8.5c8 0 15 -0.5 21 -1.5s12.5 -2.83301 19.5 -5.5s15.167 -6.5 24.5 -11.5l35 -19.5c16.667 -10 30 -15 40 -15
s17.667 3.33301 23 10s8.66602 18 9.99902 34h38v-12z" />
    <glyph glyph-name="odieresis" unicode="&#xf6;" horiz-adv-x="632" 
d="M320 684c43.333 0 82.167 -8 116.5 -24s63.5 -39 87.5 -69s42.333 -66.833 55 -110.5s19 -92.834 19 -147.501c0 -55.333 -6.33301 -104.666 -19 -147.999s-31 -80 -55 -110s-53.5 -52.833 -88.5 -68.5s-74.833 -23.5 -119.5 -23.5s-84.5 7.83301 -119.5 23.5
s-64.667 38.5 -89 68.5s-42.833 66.5 -55.5 109.5s-19 92.167 -19 147.5c0 114 24.667 201.167 74 261.5s120.333 90.5 213 90.5zM308.001 641c-26 0 -50.668 -7.83301 -74.001 -23.5s-41 -36.167 -53 -61.5c-12.667 -26 -21.667 -56.5 -27 -91.5s-8 -78.5 -8 -130.5
s3 -95.667 9 -131s15.667 -66 29 -92c12.667 -25.333 31.5 -45.833 56.5 -61.5s51.5 -23.5 79.5 -23.5s53.667 7.66699 77 23s41 36 53 62s20.833 56.5 26.5 91.5s8.5 77.5 8.5 127.5c0 54 -3 98.833 -9 134.5s-15.667 66.167 -29 91.5
c-13.333 26 -32.666 46.667 -57.999 62s-52.333 23 -81 23zM406 811c13.333 0 24.832 -5 34.499 -15s14.5 -21.667 14.5 -35c0 -14 -4.83301 -25.833 -14.5 -35.5s-21.5 -14.5 -35.5 -14.5s-25.833 4.83301 -35.5 14.5s-14.5 21.5 -14.5 35.5s4.83301 25.833 14.5 35.5
s21.834 14.5 36.501 14.5zM224.999 811c13.333 0 24.832 -5 34.499 -15s14.5 -21.667 14.5 -35c0 -14 -4.83301 -25.833 -14.5 -35.5s-21.5 -14.5 -35.5 -14.5s-25.833 4.83301 -35.5 14.5s-14.5 21.5 -14.5 35.5s4.83301 25.833 14.5 35.5s21.834 14.5 36.501 14.5z" />
    <glyph glyph-name="divide" unicode="&#xf7;" horiz-adv-x="467" 
d="M445 301h-423v65h423v-65zM233 545c14.667 0 27.165 -5.16699 37.498 -15.5s15.5 -23.166 15.5 -38.499s-5.16699 -28.166 -15.5 -38.499s-23.166 -15.5 -38.499 -15.5s-28.166 5.16699 -38.499 15.5s-15.5 23.166 -15.5 38.499s5.33301 28.166 16 38.499
s23.667 15.5 39 15.5zM232.998 230c14.667 0 27.165 -5.16699 37.498 -15.5s15.5 -23.166 15.5 -38.499s-5.16699 -28.166 -15.5 -38.499s-23.166 -15.5 -38.499 -15.5s-28.166 5.16699 -38.499 15.5s-15.5 23.166 -15.5 38.499s5.33301 28.166 16 38.499
s23.667 15.5 39 15.5z" />
    <glyph glyph-name="oslash" unicode="&#xf8;" horiz-adv-x="632" 
d="M101 -17h-53l61 90c-50.667 62.667 -76 149.334 -76 260.001c0 55.333 6.33301 104.666 19 147.999s31 80 55 110s53.5 52.833 88.5 68.5s74.833 23.5 119.5 23.5c36 0 67.833 -4.5 95.5 -13.5s54.167 -23.5 79.5 -43.5l40 57h53l-61 -89
c50.667 -62.667 76 -149.334 76 -260.001c0 -55.333 -6.33301 -104.666 -19 -147.999s-31 -80 -55 -110s-53.5 -53 -88.5 -69s-74.5 -24 -118.5 -24c-36 0 -68 4.66699 -96 14s-54.667 24 -80 44zM186 107c14.667 -25.333 33.833 -45 57.5 -59s49.167 -21 76.5 -21
c28 0 53.667 7.66699 77 23s41 36 53 62c12.667 26 21.667 56.5 27 91.5s8 78.5 8 130.5c0 38 -1.5 71.5 -4.5 100.5s-8.16699 54.833 -15.5 77.5zM444.999 560c-14.667 24.667 -33.834 44.167 -57.501 58.5s-49.5 21.5 -77.5 21.5c-27.333 0 -52.666 -7.66699 -75.999 -23
s-41 -36 -53 -62c-12.667 -26 -21.667 -56.333 -27 -91s-8 -78 -8 -130c0 -38.667 1.66699 -72.667 5 -102s8.33301 -55 15 -77z" />
    <glyph glyph-name="ugrave" unicode="&#xf9;" horiz-adv-x="630" 
d="M640 667c-21.333 -6.66699 -38.8301 -14.501 -52.4971 -23.501s-24.5 -20.833 -32.5 -35.5s-13.667 -32.834 -17 -54.501s-5 -48.167 -5 -79.5v-217c0 -28 -0.333008 -51.667 -1 -71s-1.66699 -36.166 -3 -50.499s-3.33301 -26.666 -6 -36.999s-6 -19.833 -10 -28.5
c-11.333 -28 -32.666 -49.5 -63.999 -64.5s-71 -22.5 -119 -22.5c-104 0 -172.333 29.667 -205 89c-10.667 19.333 -18.167 43.5 -22.5 72.5s-6.5 67.167 -6.5 114.5v348l-73 60h250l-74 -60v-416c0 -39.333 3.16699 -69.333 9.5 -90s17.166 -36.667 32.499 -48
c11.333 -8.66699 25.5 -15.334 42.5 -20.001s35.5 -7 55.5 -7c33.333 0 61.166 5.5 83.499 16.5s38.166 27.167 47.499 48.5c7.33301 16.667 12.666 37.667 15.999 63s5 59.333 5 102v218c0 31.333 -1.66699 57.833 -5 79.5s-9.16602 39.834 -17.499 54.501
s-19.333 26.5 -33 35.5s-30.834 16.833 -51.501 23.5h256zM283.003 810.999l76 -102h-55l-127 102h106z" />
    <glyph glyph-name="uacute" unicode="&#xfa;" horiz-adv-x="630" 
d="M640 667c-21.333 -6.66699 -38.8301 -14.501 -52.4971 -23.501s-24.5 -20.833 -32.5 -35.5s-13.667 -32.834 -17 -54.501s-5 -48.167 -5 -79.5v-217c0 -28 -0.333008 -51.667 -1 -71s-1.66699 -36.166 -3 -50.499s-3.33301 -26.666 -6 -36.999s-6 -19.833 -10 -28.5
c-11.333 -28 -32.666 -49.5 -63.999 -64.5s-71 -22.5 -119 -22.5c-104 0 -172.333 29.667 -205 89c-10.667 19.333 -18.167 43.5 -22.5 72.5s-6.5 67.167 -6.5 114.5v348l-73 60h250l-74 -60v-416c0 -39.333 3.16699 -69.333 9.5 -90s17.166 -36.667 32.499 -48
c11.333 -8.66699 25.5 -15.334 42.5 -20.001s35.5 -7 55.5 -7c33.333 0 61.166 5.5 83.499 16.5s38.166 27.167 47.499 48.5c7.33301 16.667 12.666 37.667 15.999 63s5 59.333 5 102v218c0 31.333 -1.66699 57.833 -5 79.5s-9.16602 39.834 -17.499 54.501
s-19.333 26.5 -33 35.5s-30.834 16.833 -51.501 23.5h256zM359.003 708.999h-55l76 102h106z" />
    <glyph glyph-name="ucircumflex" unicode="&#xfb;" horiz-adv-x="630" 
d="M640 667c-21.333 -6.66699 -38.8301 -14.501 -52.4971 -23.501s-24.5 -20.833 -32.5 -35.5s-13.667 -32.834 -17 -54.501s-5 -48.167 -5 -79.5v-217c0 -28 -0.333008 -51.667 -1 -71s-1.66699 -36.166 -3 -50.499s-3.33301 -26.666 -6 -36.999s-6 -19.833 -10 -28.5
c-11.333 -28 -32.666 -49.5 -63.999 -64.5s-71 -22.5 -119 -22.5c-104 0 -172.333 29.667 -205 89c-10.667 19.333 -18.167 43.5 -22.5 72.5s-6.5 67.167 -6.5 114.5v348l-73 60h250l-74 -60v-416c0 -39.333 3.16699 -69.333 9.5 -90s17.166 -36.667 32.499 -48
c11.333 -8.66699 25.5 -15.334 42.5 -20.001s35.5 -7 55.5 -7c33.333 0 61.166 5.5 83.499 16.5s38.166 27.167 47.499 48.5c7.33301 16.667 12.666 37.667 15.999 63s5 59.333 5 102v218c0 31.333 -1.66699 57.833 -5 79.5s-9.16602 39.834 -17.499 54.501
s-19.333 26.5 -33 35.5s-30.834 16.833 -51.501 23.5h256zM453.003 708.999h-84l-53 60l-52 -60h-55l87 102h68z" />
    <glyph glyph-name="udieresis" unicode="&#xfc;" horiz-adv-x="630" 
d="M640 667c-21.333 -6.66699 -38.8301 -14.501 -52.4971 -23.501s-24.5 -20.833 -32.5 -35.5s-13.667 -32.834 -17 -54.501s-5 -48.167 -5 -79.5v-217c0 -28 -0.333008 -51.667 -1 -71s-1.66699 -36.166 -3 -50.499s-3.33301 -26.666 -6 -36.999s-6 -19.833 -10 -28.5
c-11.333 -28 -32.666 -49.5 -63.999 -64.5s-71 -22.5 -119 -22.5c-104 0 -172.333 29.667 -205 89c-10.667 19.333 -18.167 43.5 -22.5 72.5s-6.5 67.167 -6.5 114.5v348l-73 60h250l-74 -60v-416c0 -39.333 3.16699 -69.333 9.5 -90s17.166 -36.667 32.499 -48
c11.333 -8.66699 25.5 -15.334 42.5 -20.001s35.5 -7 55.5 -7c33.333 0 61.166 5.5 83.499 16.5s38.166 27.167 47.499 48.5c7.33301 16.667 12.666 37.667 15.999 63s5 59.333 5 102v218c0 31.333 -1.66699 57.833 -5 79.5s-9.16602 39.834 -17.499 54.501
s-19.333 26.5 -33 35.5s-30.834 16.833 -51.501 23.5h256zM422.003 810.999c13.333 0 24.832 -5 34.499 -15s14.5 -21.667 14.5 -35c0 -14 -4.83301 -25.833 -14.5 -35.5s-21.5 -14.5 -35.5 -14.5s-25.833 4.83301 -35.5 14.5s-14.5 21.5 -14.5 35.5
s4.83301 25.833 14.5 35.5s21.834 14.5 36.501 14.5zM241.002 810.999c13.333 0 24.832 -5 34.499 -15s14.5 -21.667 14.5 -35c0 -14 -4.83301 -25.833 -14.5 -35.5s-21.5 -14.5 -35.5 -14.5s-25.833 4.83301 -35.5 14.5s-14.5 21.5 -14.5 35.5s4.83301 25.833 14.5 35.5
s21.834 14.5 36.501 14.5z" />
    <glyph glyph-name="yacute" unicode="&#xfd;" horiz-adv-x="653" 
d="M502 562c17.333 28 29.5 50.835 36.5 68.502s10.5 33.5 10.5 47.5c0 10 -3.5 20 -10.5 30s-18.167 20.667 -33.5 32c20 3.33301 42.167 8.33301 66.5 15s48.333 14 72 22s46 16.333 67 25s38.167 17 51.5 25l-57.5 -58c-15 -15.333 -29 -31 -42 -47s-26.5 -34 -40.5 -54
l-52 -78l-192 -310v-220l73 -60h-249l73 60v220l-124 192l-49 75.5c-12.667 19 -24.667 35.167 -36 48.5s-22.833 25.166 -34.5 35.499s-26.5 22.166 -44.5 35.499h268l-73 -63l179 -272zM367 709.002h-55l76 102h106z" />
    <glyph glyph-name="thorn" unicode="&#xfe;" horiz-adv-x="572" 
d="M267 520c54 0 97.9971 -3.49609 131.997 -10.4961s62 -18.167 84 -33.5c50 -34.667 75 -81.334 75 -140.001c0 -28.667 -6.66699 -55.334 -20 -80.001s-31.666 -43.667 -54.999 -57c-23.333 -14 -52.166 -24.5 -86.499 -31.5s-72.833 -10.5 -115.5 -10.5
c-11.333 0 -22.333 0.166992 -33 0.5s-25.667 1.16602 -45 2.49902v-100l73 -60h-249l73 60v107c-3.33301 0.666992 -6 1 -8 1h-8c-16 0 -31.333 -1.33301 -46 -4s-30.667 -7.66699 -48 -15c20.667 43.333 57.334 64.666 110.001 63.999v394l-73 60h249l-73 -60v-87h64z
M202.997 207.004c11.333 -1.33301 21.166 -2.16699 29.499 -2.5s17.166 -0.5 26.499 -0.5c124 0 186 42.333 186 127c0 97.333 -56 146 -168 146c-11.333 0 -22.166 -0.333008 -32.499 -1s-24.166 -1.66699 -41.499 -3v-266z" />
    <glyph glyph-name="ydieresis" unicode="&#xff;" horiz-adv-x="653" 
d="M502 562c17.333 28 29.5 50.835 36.5 68.502s10.5 33.5 10.5 47.5c0 10 -3.5 20 -10.5 30s-18.167 20.667 -33.5 32c20 3.33301 42.167 8.33301 66.5 15s48.333 14 72 22s46 16.333 67 25s38.167 17 51.5 25l-57.5 -58c-15 -15.333 -29 -31 -42 -47s-26.5 -34 -40.5 -54
l-52 -78l-192 -310v-220l73 -60h-249l73 60v220l-124 192l-49 75.5c-12.667 19 -24.667 35.167 -36 48.5s-22.833 25.166 -34.5 35.499s-26.5 22.166 -44.5 35.499h268l-73 -63l179 -272zM417 811.002c13.333 0 24.832 -5 34.499 -15s14.5 -21.667 14.5 -35
c0 -14 -4.83301 -25.833 -14.5 -35.5s-21.5 -14.5 -35.5 -14.5s-25.833 4.83301 -35.5 14.5s-14.5 21.5 -14.5 35.5s4.83301 25.833 14.5 35.5s21.834 14.5 36.501 14.5zM235.999 811.002c13.333 0 24.832 -5 34.499 -15s14.5 -21.667 14.5 -35
c0 -14 -4.83301 -25.833 -14.5 -35.5s-21.5 -14.5 -35.5 -14.5s-25.833 4.83301 -35.5 14.5s-14.5 21.5 -14.5 35.5s4.83301 25.833 14.5 35.5s21.834 14.5 36.501 14.5z" />
    <glyph glyph-name="OE" unicode="&#x152;" horiz-adv-x="964" 
d="M598 337c0 -132.667 -33.667 -229.67 -101 -291.003c28 -1.33301 48.833 -2.16602 62.5 -2.49902s25.834 -0.5 36.501 -0.5c86 0 147.333 10.667 184 32c14.667 8.66699 28.167 20 40.5 34s26.833 34.667 43.5 62c4 -18 8.66699 -34.333 14 -49s11.833 -28.667 19.5 -42
s16.834 -26.5 27.501 -39.5s23.667 -26.5 39 -40.5h-547c-17.333 -6 -33.833 -10.333 -49.5 -13s-33.167 -4 -52.5 -4c-44.667 0 -84.5 7.83301 -119.5 23.5s-64.5 38.5 -88.5 68.5s-42.333 66.667 -55 110s-19 92.666 -19 147.999s6.33301 104.833 19 148.5
s31 80.5 55 110.5s53.5 52.833 88.5 68.5s74.833 23.5 119.5 23.5c19.333 0 36.833 -1.33301 52.5 -4s32.167 -7 49.5 -13h519l-32.5 -40.5c-9 -11.667 -16.833 -23.167 -23.5 -34.5s-12.834 -23.666 -18.501 -36.999s-11.834 -29 -18.501 -47l-9 17
c-11.333 20.667 -22.333 37.5 -33 50.5s-23.5 23 -38.5 30s-33 11.833 -54 14.5s-47.5 4 -79.5 4h-34c-10 0 -19.667 -0.166992 -29 -0.5s-19.5 -0.666016 -30.5 -0.999023s-23.833 -0.833008 -38.5 -1.5c58 -53.333 91 -133.666 99 -240.999h109l67 80v-203l-67 80h-107z
M308 640.997c-26.667 0 -51.5 -7.83301 -74.5 -23.5s-40.5 -36.167 -52.5 -61.5c-12.667 -26 -21.667 -56.5 -27 -91.5s-8 -78.5 -8 -130.5s3 -95.667 9 -131s15.667 -66 29 -92c12.667 -25.333 31.5 -45.833 56.5 -61.5s51.5 -23.5 79.5 -23.5s53.667 7.66699 77 23
s41 36 53 62s20.833 56.5 26.5 91.5s8.5 77.5 8.5 127.5c0 54 -3 98.833 -9 134.5s-15.667 66.167 -29 91.5c-13.333 26 -32.5 46.667 -57.5 62s-52.167 23 -81.5 23z" />
    <glyph glyph-name="oe" unicode="&#x153;" horiz-adv-x="964" 
d="M598 337c0 -132.667 -33.667 -229.67 -101 -291.003c28 -1.33301 48.833 -2.16602 62.5 -2.49902s25.834 -0.5 36.501 -0.5c86 0 147.333 10.667 184 32c14.667 8.66699 28.167 20 40.5 34s26.833 34.667 43.5 62c4 -18 8.66699 -34.333 14 -49s11.833 -28.667 19.5 -42
s16.834 -26.5 27.501 -39.5s23.667 -26.5 39 -40.5h-547c-17.333 -6 -33.833 -10.333 -49.5 -13s-33.167 -4 -52.5 -4c-44.667 0 -84.5 7.83301 -119.5 23.5s-64.5 38.5 -88.5 68.5s-42.333 66.667 -55 110s-19 92.666 -19 147.999s6.33301 104.833 19 148.5
s31 80.5 55 110.5s53.5 52.833 88.5 68.5s74.833 23.5 119.5 23.5c19.333 0 36.833 -1.33301 52.5 -4s32.167 -7 49.5 -13h519l-32.5 -40.5c-9 -11.667 -16.833 -23.167 -23.5 -34.5s-12.834 -23.666 -18.501 -36.999s-11.834 -29 -18.501 -47l-9 17
c-11.333 20.667 -22.333 37.5 -33 50.5s-23.5 23 -38.5 30s-33 11.833 -54 14.5s-47.5 4 -79.5 4h-34c-10 0 -19.667 -0.166992 -29 -0.5s-19.5 -0.666016 -30.5 -0.999023s-23.833 -0.833008 -38.5 -1.5c58 -53.333 91 -133.666 99 -240.999h109l67 80v-203l-67 80h-107z
M308 640.997c-26.667 0 -51.5 -7.83301 -74.5 -23.5s-40.5 -36.167 -52.5 -61.5c-12.667 -26 -21.667 -56.5 -27 -91.5s-8 -78.5 -8 -130.5s3 -95.667 9 -131s15.667 -66 29 -92c12.667 -25.333 31.5 -45.833 56.5 -61.5s51.5 -23.5 79.5 -23.5s53.667 7.66699 77 23
s41 36 53 62s20.833 56.5 26.5 91.5s8.5 77.5 8.5 127.5c0 54 -3 98.833 -9 134.5s-15.667 66.167 -29 91.5c-13.333 26 -32.5 46.667 -57.5 62s-52.167 23 -81.5 23z" />
    <glyph glyph-name="Scaron" unicode="&#x160;" horiz-adv-x="560" 
d="M516 661c-4.66699 -6 -10.6641 -15.333 -17.9971 -28s-15.166 -27.167 -23.499 -43.5s-16.666 -33.666 -24.999 -51.999s-15.5 -35.5 -21.5 -51.5c-4 17.333 -7.66699 31.333 -11 42s-7.66602 20.667 -12.999 30c-12.667 25.333 -31.834 45.5 -57.501 60.5
s-53.5 22.5 -83.5 22.5c-37.333 0 -67.833 -10.5 -91.5 -31.5s-35.5 -47.833 -35.5 -80.5c0 -44 21.667 -76 65 -96c8 -4 14.667 -7.16699 20 -9.5s12.833 -4.83301 22.5 -7.5s23 -6.16699 40 -10.5l71.5 -17.5c35.333 -8.66699 64.333 -18.834 87 -30.501
s41.667 -26.5 57 -44.5c29.333 -35.333 44 -76 44 -122c0 -29.333 -6 -56.666 -18 -81.999s-28.5 -47.333 -49.5 -66s-45.833 -33.334 -74.5 -44.001s-59.667 -16 -93 -16c-12 0 -23.667 0.5 -35 1.5s-23.666 3 -36.999 6s-29 6.83301 -47 11.5s-39.667 11 -65 19
c-22 6.66699 -40.667 10 -56 10c-10 0 -21 -2.33301 -33 -7s-27 -12.667 -45 -24c8.66699 12.667 18 28.167 28 46.5s19.667 37.333 29 57s17.666 38.334 24.999 56.001s12.333 32.167 15 43.5c2.66699 -12.667 5.33398 -23.334 8.00098 -32.001
s5.16699 -16.334 7.5 -23.001s4.66602 -12.667 6.99902 -18s5.16602 -10.666 8.49902 -15.999c17.333 -28 42.5 -49.667 75.5 -65s70.5 -23 112.5 -23c46 0 82.5 11 109.5 33s40.5 51.333 40.5 88c0 22 -6.16699 43 -18.5 63s-29.166 36.333 -50.499 49
c-8.66699 4.66699 -17.334 8.83398 -26.001 12.501s-18.834 7.33398 -30.501 11.001s-25.5 7.16699 -41.5 10.5l-59 12c-36.667 7.33301 -66 16.166 -88 26.499s-40.333 23.5 -55 39.5c-28.667 32.667 -43 72.667 -43 120c0 28.667 5.16699 54.834 15.5 78.501
s24.666 44 42.999 61s40.333 30.167 66 39.5s54.167 14 85.5 14c23.333 0 45.666 -2 66.999 -6s47.333 -10.667 78 -20c13.333 -4.66699 24.166 -7.83398 32.499 -9.50098s15.5 -2.5 21.5 -2.5c8.66699 0 17.5 1.16699 26.5 3.5s21.167 6.16602 36.5 11.499zM158.003 811h84
l53 -60l52 60h55l-88 -102h-67z" />
    <glyph glyph-name="scaron" unicode="&#x161;" horiz-adv-x="560" 
d="M516 661c-4.66699 -6 -10.6641 -15.333 -17.9971 -28s-15.166 -27.167 -23.499 -43.5s-16.666 -33.666 -24.999 -51.999s-15.5 -35.5 -21.5 -51.5c-4 17.333 -7.66699 31.333 -11 42s-7.66602 20.667 -12.999 30c-12.667 25.333 -31.834 45.5 -57.501 60.5
s-53.5 22.5 -83.5 22.5c-37.333 0 -67.833 -10.5 -91.5 -31.5s-35.5 -47.833 -35.5 -80.5c0 -44 21.667 -76 65 -96c8 -4 14.667 -7.16699 20 -9.5s12.833 -4.83301 22.5 -7.5s23 -6.16699 40 -10.5l71.5 -17.5c35.333 -8.66699 64.333 -18.834 87 -30.501
s41.667 -26.5 57 -44.5c29.333 -35.333 44 -76 44 -122c0 -29.333 -6 -56.666 -18 -81.999s-28.5 -47.333 -49.5 -66s-45.833 -33.334 -74.5 -44.001s-59.667 -16 -93 -16c-12 0 -23.667 0.5 -35 1.5s-23.666 3 -36.999 6s-29 6.83301 -47 11.5s-39.667 11 -65 19
c-22 6.66699 -40.667 10 -56 10c-10 0 -21 -2.33301 -33 -7s-27 -12.667 -45 -24c8.66699 12.667 18 28.167 28 46.5s19.667 37.333 29 57s17.666 38.334 24.999 56.001s12.333 32.167 15 43.5c2.66699 -12.667 5.33398 -23.334 8.00098 -32.001
s5.16699 -16.334 7.5 -23.001s4.66602 -12.667 6.99902 -18s5.16602 -10.666 8.49902 -15.999c17.333 -28 42.5 -49.667 75.5 -65s70.5 -23 112.5 -23c46 0 82.5 11 109.5 33s40.5 51.333 40.5 88c0 22 -6.16699 43 -18.5 63s-29.166 36.333 -50.499 49
c-8.66699 4.66699 -17.334 8.83398 -26.001 12.501s-18.834 7.33398 -30.501 11.001s-25.5 7.16699 -41.5 10.5l-59 12c-36.667 7.33301 -66 16.166 -88 26.499s-40.333 23.5 -55 39.5c-28.667 32.667 -43 72.667 -43 120c0 28.667 5.16699 54.834 15.5 78.501
s24.666 44 42.999 61s40.333 30.167 66 39.5s54.167 14 85.5 14c23.333 0 45.666 -2 66.999 -6s47.333 -10.667 78 -20c13.333 -4.66699 24.166 -7.83398 32.499 -9.50098s15.5 -2.5 21.5 -2.5c8.66699 0 17.5 1.16699 26.5 3.5s21.167 6.16602 36.5 11.499zM158.003 811h84
l53 -60l52 60h55l-88 -102h-67z" />
    <glyph glyph-name="Ydieresis" unicode="&#x178;" horiz-adv-x="653" 
d="M502 562c17.333 28 29.5 50.835 36.5 68.502s10.5 33.5 10.5 47.5c0 10 -3.5 20 -10.5 30s-18.167 20.667 -33.5 32c20 3.33301 42.167 8.33301 66.5 15s48.333 14 72 22s46 16.333 67 25s38.167 17 51.5 25l-57.5 -58c-15 -15.333 -29 -31 -42 -47s-26.5 -34 -40.5 -54
l-52 -78l-192 -310v-220l73 -60h-249l73 60v220l-124 192l-49 75.5c-12.667 19 -24.667 35.167 -36 48.5s-22.833 25.166 -34.5 35.499s-26.5 22.166 -44.5 35.499h268l-73 -63l179 -272zM417 811.002c13.333 0 24.832 -5 34.499 -15s14.5 -21.667 14.5 -35
c0 -14 -4.83301 -25.833 -14.5 -35.5s-21.5 -14.5 -35.5 -14.5s-25.833 4.83301 -35.5 14.5s-14.5 21.5 -14.5 35.5s4.83301 25.833 14.5 35.5s21.834 14.5 36.501 14.5zM235.999 811.002c13.333 0 24.832 -5 34.499 -15s14.5 -21.667 14.5 -35
c0 -14 -4.83301 -25.833 -14.5 -35.5s-21.5 -14.5 -35.5 -14.5s-25.833 4.83301 -35.5 14.5s-14.5 21.5 -14.5 35.5s4.83301 25.833 14.5 35.5s21.834 14.5 36.501 14.5z" />
    <glyph glyph-name="florin" unicode="&#x192;" horiz-adv-x="596" 
d="M397 410l-139.004 -0.00390625l-67 -351c-4 -21.333 -7.33301 -38.166 -10 -50.499s-5 -22.666 -7 -30.999s-4.16699 -15.333 -6.5 -21l-7.5 -18.5c-17.333 -40 -42 -70.667 -74 -92s-69.667 -32 -113 -32c-35.333 0 -69.166 7.83301 -101.499 23.5
s-60.166 37.5 -83.499 65.5c-23.333 30 -37 57.667 -41 83c6.66699 2 15.667 5.66699 27 11s22.833 11.166 34.5 17.499s23 12.833 34 19.5s19.5 12.334 25.5 17.001c-1.33301 -10.667 -2.33301 -19.5 -3 -26.5s-1 -14.167 -1 -21.5c0 -19.333 2.66699 -37.333 8 -54
s12.5 -31 21.5 -43s19.833 -21.5 32.5 -28.5s26.667 -10.5 42 -10.5c24 0 44.333 8.16699 61 24.5s30.667 42.5 42 78.5c2 6.66699 3.83301 13.334 5.5 20.001l5.5 23c2 8.66699 4.16699 18.667 6.5 30l8.5 41l64 326h-96l-20 60h128
c8.66699 40.667 21.167 77.334 37.5 110.001s35.5 60.5 57.5 83.5s46.5 40.667 73.5 53s55.5 18.5 85.5 18.5c19.333 0 38.333 -3 57 -9s35.834 -14.167 51.501 -24.5s29.334 -22.5 41.001 -36.5s20.167 -29.333 25.5 -46c-13.333 -5.33301 -28.5 -13 -45.5 -23
s-32.5 -20.667 -46.5 -32c-10 85.333 -43 128 -99 128c-35.333 0 -65.5 -19.5 -90.5 -58.5s-42.167 -93.5 -51.5 -163.5h106z" />
    <glyph glyph-name="circumflex" unicode="&#x2c6;" 
d="M372 709h-84l-53 60l-52 -60h-55l87 102h68z" />
    <glyph glyph-name="tilde" unicode="&#x2dc;" 
d="M401 796c0 -26 -7.83008 -47.8359 -23.4971 -65.5029s-34.834 -26.5 -57.501 -26.5c-12.667 0 -26.667 2.33301 -42 7s-33.333 12.334 -54 23.001c-14.667 7.33301 -25 12.166 -31 14.499s-12.333 3.5 -19 3.5c-22.667 0 -35.667 -13.667 -39 -41h-37
c0 14.667 2.33301 28.334 7 41.001s11.167 23.834 19.5 33.501s18.166 17.334 29.499 23.001s23.333 8.5 36 8.5c8 0 15 -0.5 21 -1.5s12.5 -2.83301 19.5 -5.5s15.167 -6.5 24.5 -11.5l35 -19.5c16.667 -10 30 -15 40 -15s17.667 3.33301 23 10s8.66602 18 9.99902 34h38
v-12z" />
    <glyph glyph-name="endash" unicode="&#x2013;" horiz-adv-x="522" 
d="M502 303h-459l-23 61h459z" />
    <glyph glyph-name="emdash" unicode="&#x2014;" horiz-adv-x="689" 
d="M669 303h-626l-23 61h626z" />
    <glyph glyph-name="quoteleft" unicode="&#x2018;" horiz-adv-x="228" 
d="M170 484c-18.667 -6.66699 -35.502 -13.667 -50.502 -21s-32.167 -17.333 -51.5 -30c-5.33301 13.333 -9.16602 25.333 -11.499 36s-3.5 22.334 -3.5 35.001c0 42.667 13.167 79.167 39.5 109.5s64.5 53.833 114.5 70.5l4 -8c-10 -8 -17.167 -14.167 -21.5 -18.5
s-8.16602 -8.5 -11.499 -12.5c-7.33301 -9.33301 -13.5 -21.5 -18.5 -36.5s-7.5 -29.833 -7.5 -44.5c0 -28.667 9.33301 -54.334 28 -77.001z" />
    <glyph glyph-name="quoteright" unicode="&#x2019;" horiz-adv-x="228" 
d="M17 440c9.33301 8.66699 16.334 15.001 21.001 19.001s8.66699 8 12 12c7.33301 9.33301 13.5 21.666 18.5 36.999s7.5 30 7.5 44c0 30 -9.33301 55.667 -28 77l33 12.5c9.33301 3.66699 18.166 7.5 26.499 11.5s16.5 8.5 24.5 13.5l27 17.5
c6 -13.333 10.167 -25.5 12.5 -36.5s3.5 -22.833 3.5 -35.5c0 -42 -13.167 -78.5 -39.5 -109.5s-64.5 -54.167 -114.5 -69.5z" />
    <glyph glyph-name="quotesinglbase" unicode="&#x201a;" horiz-adv-x="228" 
d="M58 65c18.667 6.66699 35.5 13.6689 50.5 21.002s31.833 17 50.5 29c6 -13.333 10.167 -25.333 12.5 -36s3.5 -22.334 3.5 -35.001c0 -42 -13.167 -78.5 -39.5 -109.5s-64.5 -54.167 -114.5 -69.5l-4 7c9.33301 8 16.333 14.167 21 18.5s8.66699 8.5 12 12.5
c7.33301 9.33301 13.5 21.666 18.5 36.999s7.5 30 7.5 44c0 30 -9.33301 55.667 -28 77z" />
    <glyph glyph-name="quotedblleft" unicode="&#x201c;" horiz-adv-x="401" 
d="M170 484c-18.667 -6.66699 -35.502 -13.667 -50.502 -21s-32.167 -17.333 -51.5 -30c-5.33301 13.333 -9.16602 25.333 -11.499 36s-3.5 22.334 -3.5 35.001c0 42.667 13.167 79.167 39.5 109.5s64.5 53.833 114.5 70.5l4 -8c-10 -8 -17.167 -14.167 -21.5 -18.5
s-8.16602 -8.5 -11.499 -12.5c-7.33301 -9.33301 -13.5 -21.5 -18.5 -36.5s-7.5 -29.833 -7.5 -44.5c0 -28.667 9.33301 -54.334 28 -77.001zM342.998 484c-19.333 -7.33301 -36.333 -14.5 -51 -21.5s-31.667 -16.833 -51 -29.5c-6 13.333 -10.167 25.333 -12.5 36
s-3.5 22.667 -3.5 36c0 42 13.167 78.167 39.5 108.5s64.5 53.833 114.5 70.5l4 -8c-9.33301 -8 -16.333 -14.167 -21 -18.5s-8.66699 -8.5 -12 -12.5c-7.33301 -9.33301 -13.5 -21.5 -18.5 -36.5s-7.5 -29.833 -7.5 -44.5c0 -30 9.33301 -55.667 28 -77z" />
    <glyph glyph-name="quotedblright" unicode="&#x201d;" horiz-adv-x="397" 
d="M186 440c9.33301 8 16.334 14.166 21.001 18.499s8.66699 8.5 12 12.5c7.33301 9.33301 13.5 21.666 18.5 36.999s7.5 30 7.5 44c0 30 -9.33301 55.667 -28 77l32.5 13c9.66699 4 18.667 8 27 12s16.666 8.5 24.999 13.5l26.5 16.5
c6 -13.333 10.167 -25.166 12.5 -35.499s3.5 -22.166 3.5 -35.499c0 -42.667 -13.167 -79.5 -39.5 -110.5s-64.5 -54.167 -114.5 -69.5zM17.001 439.999c9.33301 8.66699 16.334 15.001 21.001 19.001s8.66699 8 12 12c7.33301 9.33301 13.5 21.666 18.5 36.999
s7.5 30 7.5 44c0 30 -9.33301 55.667 -28 77l33 12.5c9.33301 3.66699 18.166 7.5 26.499 11.5s16.5 8.5 24.5 13.5l27 17.5c6 -13.333 10.167 -25.5 12.5 -36.5s3.5 -22.833 3.5 -35.5c0 -42 -13.167 -78.5 -39.5 -109.5s-64.5 -54.167 -114.5 -69.5z" />
    <glyph glyph-name="quotedblbase" unicode="&#x201e;" horiz-adv-x="397" 
d="M227 65c34.667 11.333 68.333 27.999 101 49.999c6 -13.333 10.167 -25.166 12.5 -35.499s3.5 -22.166 3.5 -35.499c0 -42 -13.167 -78.333 -39.5 -109s-64.5 -54 -114.5 -70l-4 7c9.33301 8 16.333 14.167 21 18.5s8.66699 8.5 12 12.5
c7.33301 9.33301 13.5 21.666 18.5 36.999s7.5 30 7.5 44c0 30 -9.33301 55.667 -28 77zM57.999 64.999c18.667 6 35.667 13.002 51 21.002s32 17.667 50 29c6 -13.333 10.167 -25.333 12.5 -36s3.5 -22.334 3.5 -35.001c0 -42 -13.167 -78.333 -39.5 -109
s-64.5 -54 -114.5 -70l-4 7c10 8.66699 17.167 15.167 21.5 19.5l11.5 11.5c7.33301 9.33301 13.5 21.666 18.5 36.999s7.5 30 7.5 44c0 30 -9.33301 55.667 -28 77z" />
    <glyph glyph-name="dagger" unicode="&#x2020;" horiz-adv-x="583" 
d="M340 -7l73 -60h-243l73 60v464h-150l-60 -73v190l60 -73h150v172l-73 60h243l-73 -60v-172h150l60 73v-190l-60 73h-150v-464z" />
    <glyph glyph-name="daggerdbl" unicode="&#x2021;" horiz-adv-x="583" 
d="M340 334h150l60 60v-177l-60 73h-150v-297l73 -60h-243l73 60v297h-150l-60 -73v177l60 -60h150v156h-150l-60 -60v177l60 -73h150v139l-77 60h250l-73 -60v-139h147l60 73v-177l-60 60h-150v-156z" />
    <glyph glyph-name="bullet" unicode="&#x2022;" horiz-adv-x="667" 
d="M336 477c18.667 0 36.332 -3.66602 52.999 -10.999s31.167 -17.333 43.5 -30s22.166 -27.5 29.499 -44.5s11 -34.833 11 -53.5c0 -19.333 -3.66699 -37.333 -11 -54s-17.166 -31.167 -29.499 -43.5s-27 -22.166 -44 -29.499s-34.833 -11 -53.5 -11
c-19.333 0 -37.5 3.66699 -54.5 11s-31.667 17.166 -44 29.499s-22.166 26.833 -29.499 43.5s-11 34.667 -11 54s3.66699 37.5 11 54.5s17.333 31.667 30 44s27.5 22.166 44.5 29.499s35.167 11 54.5 11z" />
    <glyph glyph-name="ellipsis" unicode="&#x2026;" horiz-adv-x="684" 
d="M116 128c18 0 33.501 -6.5 46.501 -19.5s19.5 -29.167 19.5 -48.5c0 -18.667 -6.5 -34.5 -19.5 -47.5s-29.167 -19.5 -48.5 -19.5c-18.667 0 -34.5 6.5 -47.5 19.5s-19.5 28.833 -19.5 47.5c0 19.333 6.66699 35.5 20 48.5s29.666 19.5 48.999 19.5zM344.001 128
c18 0 33.501 -6.5 46.501 -19.5s19.5 -29.167 19.5 -48.5c0 -18.667 -6.5 -34.5 -19.5 -47.5s-29.167 -19.5 -48.5 -19.5c-18.667 0 -34.5 6.5 -47.5 19.5s-19.5 28.833 -19.5 47.5c0 19.333 6.66699 35.5 20 48.5s29.666 19.5 48.999 19.5zM572.002 128
c18 0 33.501 -6.5 46.501 -19.5s19.5 -29.167 19.5 -48.5c0 -18.667 -6.5 -34.5 -19.5 -47.5s-29.167 -19.5 -48.5 -19.5c-18.667 0 -34.5 6.5 -47.5 19.5s-19.5 28.833 -19.5 47.5c0 19.333 6.66699 35.5 20 48.5s29.666 19.5 48.999 19.5z" />
    <glyph glyph-name="perthousand" unicode="&#x2030;" horiz-adv-x="1153" 
d="M186 671c24 0 46.168 -4.33301 66.501 -13s37.833 -21 52.5 -37s26 -35 34 -57s12 -46.333 12 -73c0 -51.333 -14.333 -92 -43 -122s-67.667 -45 -117 -45c-25.333 0 -48.333 4.16699 -69 12.5s-38.334 20.166 -53.001 35.499s-26 33.833 -34 55.5s-12 45.834 -12 72.501
c0 52 14.667 93.5 44 124.5s69 46.5 119 46.5zM183.001 634c-30 0 -51.667 -10.833 -65 -32.5s-20 -56.167 -20 -103.5c0 -20.667 1.83301 -40 5.5 -58s8.83398 -32.333 15.501 -43c6.66699 -11.333 16.667 -20.333 30 -27s27.666 -10 42.999 -10c56 0 84 45.667 84 137
c0 50 -7 85.333 -21 106s-38 31 -72 31zM213.001 0h-50l405 661h50zM593.001 337c24 0 46.168 -4.33301 66.501 -13s37.833 -21 52.5 -37s26 -35 34 -57s12 -46.333 12 -73c0 -51.333 -14.333 -92 -43 -122s-67.667 -45 -117 -45c-25.333 0 -48.333 4.16699 -69 12.5
s-38.334 20.166 -53.001 35.499s-26 33.833 -34 55.5s-12 45.834 -12 72.501c0 52 14.667 93.5 44 124.5s69 46.5 119 46.5zM590.002 300c-30 0 -51.667 -10.833 -65 -32.5s-20 -56.167 -20 -103.5c0 -20.667 1.83301 -40 5.5 -58s8.83398 -32.333 15.501 -43
c6.66699 -11.333 16.667 -20.333 30 -27s27.666 -10 42.999 -10c56 0 84 45.667 84 137c0 50 -7 85.333 -21 106s-38 31 -72 31zM966.002 337c24 0 46.168 -4.33301 66.501 -13s37.833 -21 52.5 -37s26 -35 34 -57s12 -46.333 12 -73c0 -51.333 -14.333 -92 -43 -122
s-67.667 -45 -117 -45c-25.333 0 -48.333 4.16699 -69 12.5s-38.334 20.166 -53.001 35.499s-26 33.833 -34 55.5s-12 45.834 -12 72.501c0 52 14.667 93.5 44 124.5s69 46.5 119 46.5zM963.003 300c-30 0 -51.667 -10.833 -65 -32.5s-20 -56.167 -20 -103.5
c0 -20.667 1.83301 -40 5.5 -58s8.83398 -32.333 15.501 -43c6.66699 -11.333 16.667 -20.333 30 -27s27.666 -10 42.999 -10c56 0 84 45.667 84 137c0 50 -7 85.333 -21 106s-38 31 -72 31z" />
    <glyph glyph-name="guilsinglleft" unicode="&#x2039;" horiz-adv-x="175" 
d="M107 477h44l-56 -144l56 -143h-49l-82 143z" />
    <glyph glyph-name="guilsinglright" unicode="&#x203a;" horiz-adv-x="177" 
d="M72 189h-49l56 150l-56 138h49l84 -147z" />
    <glyph glyph-name="trademark" unicode="&#x2122;" horiz-adv-x="895" 
d="M410 667c-13.333 -20.667 -24.001 -38.835 -32.001 -54.502s-15.333 -33.5 -22 -53.5l-9 24.5c-1.33301 3.66699 -3 7.83398 -5 12.501c-13.333 26 -36 39 -68 39h-12.5c-3.66699 0 -10.5 -0.666992 -20.5 -2v-326l53 -40h-178l53 40v326c-10 1.33301 -16.833 2 -20.5 2
h-12.5c-20.667 0 -36.667 -4.5 -48 -13.5s-20.666 -24.833 -27.999 -47.5c-1.33301 -3.33301 -2.33301 -5.66602 -3 -6.99902s-1.66699 -4 -3 -8c-1.33301 3.33301 -2 5.5 -2 6.5s-0.333008 2.5 -1 4.5c-3.33301 10.667 -9.5 25 -18.5 43s-18.167 33.667 -27.5 47l-5 7h410z
M503.999 306.999l53 -40h-139l53 40v320l-53 40h193l-52 -40l90 -251l97 251l-52 40h188l-53 -40v-320l53 -40h-178l53 40v261l-116 -301h-27l-110 304v-264z" />
    <glyph glyph-name=".null" horiz-adv-x="0" 
 />
    <glyph glyph-name="nonmarkingreturn" horiz-adv-x="250" 
 />
    <glyph glyph-name="periodcentered" horiz-adv-x="228" 
d="M116 354c18 0 33.501 -6.5 46.501 -19.5s19.5 -29.167 19.5 -48.5c0 -18.667 -6.5 -34.5 -19.5 -47.5s-29.167 -19.5 -48.5 -19.5c-18.667 0 -34.5 6.5 -47.5 19.5s-19.5 28.833 -19.5 47.5c0 19.333 6.66699 35.5 20 48.5s29.666 19.5 48.999 19.5z" />
    <glyph glyph-name="sfthyphen" horiz-adv-x="322" 
d="M302 303h-259l-23 61h259z" />
    <glyph glyph-name="nonbreakingspace" horiz-adv-x="250" 
 />
    </font>
</defs>
</svg>
